<svg id="Layer_1" data-name="Layer 1" xmlns="http://www.w3.org/2000/svg" xmlns:xlink="http://www.w3.org/1999/xlink" viewBox="0 0 228 228"><defs><linearGradient id="linear-gradient" x1="26.4" y1="26.4" x2="201.6" y2="201.6" gradientUnits="userSpaceOnUse"><stop offset="0" stop-color="#120919"/><stop offset="1" stop-color="#351c4c"/></linearGradient></defs><rect x="1.5" y="1.5" width="225" height="225" rx="85" stroke="#fff" stroke-miterlimit="10" stroke-width="3" fill="url(#linear-gradient)"/><path d="M114,65.8A48.2,48.2,0,1,0,162.2,114h0A48.2,48.2,0,0,0,114,65.8Zm4,8.27A40.22,40.22,0,0,1,154,110H120.82c0-.1-.1-.1-.1-.15s-.1-.1-.16-.15a7.51,7.51,0,0,0-2.38-2.38l-.1-.11a.61.61,0,0,0-.26-.15v-33Zm2.79,44h16.84a24.11,24.11,0,1,1-27.76-27.81l.1,17a8,8,0,1,0,10.86,10.86ZM114,154.24a40.15,40.15,0,0,1-4-80.11v8.1a32.12,32.12,0,1,0,35.92,35.87H154a40.37,40.37,0,0,1-40,36.12Z" fill="#fff"/></svg>