<svg id="Layer_1" data-name="Layer 1" xmlns="http://www.w3.org/2000/svg" xmlns:xlink="http://www.w3.org/1999/xlink" viewBox="0 0 228 228"><defs><linearGradient id="linear-gradient" x1="26.4" y1="26.4" x2="201.6" y2="201.6" gradientUnits="userSpaceOnUse"><stop offset="0" stop-color="#120919"/><stop offset="1" stop-color="#351c4c"/></linearGradient></defs><rect x="1.5" y="1.5" width="225" height="225" rx="85" stroke="#fff" stroke-miterlimit="10" stroke-width="3" fill="url(#linear-gradient)"/><path d="M166.14,84c-4.93-8-15-8.85-19.39-8.85a8.74,8.74,0,0,0-8.41-6.28h-3.08A14.42,14.42,0,0,0,120.8,83.24V91.5L62.13,150.29a2.44,2.44,0,0,0-.51,2.41,2.36,2.36,0,0,0,2,1.34H71.5A14.73,14.73,0,0,0,86.11,141.6H100l-3.64,5.32a2.28,2.28,0,0,0,0,2.53l6.16,8.74a2.27,2.27,0,0,0,1.85.95H110a2.24,2.24,0,0,0,0-4.48h-4.5l-4.65-6.5,4.65-6.56H114l-3.64,5.32a2.32,2.32,0,0,0,0,2.53l6.16,8.74a2.27,2.27,0,0,0,1.85.95H124a2.24,2.24,0,0,0,0-4.48h-4.5l-4.66-6.56,4.66-6.67a30.19,30.19,0,0,0,28-30v-24h17.15a2,2,0,0,0,1.9-1.17A3.69,3.69,0,0,0,166.14,84ZM71.43,149.61H68.85l8.07-8.11H81.5A10.23,10.23,0,0,1,71.43,149.61Zm71.34-64.44V111.5h0a25.75,25.75,0,0,1-25.72,25.72H81.4l7.1-7.11h18.72a18.07,18.07,0,0,0,18.1-18V112a2.24,2.24,0,1,0-4.48,0h0a13.65,13.65,0,0,1-13.63,13.67H92.84L124.61,93.9h0l.11-.11a.11.11,0,0,1,.11-.11h0a.12.12,0,0,1,.12-.12h0a.11.11,0,0,1,.11-.11h0a.11.11,0,0,1,.11-.11h0a.11.11,0,0,1,.11-.11h0v-9.8a10,10,0,0,1,10-10h3.09a4.31,4.31,0,0,1,4.31,4.15v.16l.06,7.46Zm4.31-2.24V79.5c2.92,0,8.19.56,12.16,3.48Z" fill="#fff"/><path d="M136.21,77.6A2.21,2.21,0,0,0,134,79.78v3a2.24,2.24,0,1,0,4.48,0h0V79.84A2.28,2.28,0,0,0,136.21,77.6Z" fill="#fff"/><path d="M123.1,101.14a2.21,2.21,0,0,0-2.24,2.18h0v1.41a2.24,2.24,0,1,0,4.48,0h0v-1.35A2.32,2.32,0,0,0,123.1,101.14Z" fill="#fff"/></svg>