<svg id="Layer_1" data-name="Layer 1" xmlns="http://www.w3.org/2000/svg" viewBox="0 0 189.86 124"><title>icon_9a</title><path d="M164.7,69.2a3,3,0,1,0,1.3,4A3.08,3.08,0,0,0,164.7,69.2Zm31.4-9.8a3,3,0,1,0,1.3,4A2.83,2.83,0,0,0,196.1,59.4Zm0,0a3,3,0,1,0,1.3,4A2.83,2.83,0,0,0,196.1,59.4Zm-31.4,9.8a3,3,0,1,0,1.3,4A3.08,3.08,0,0,0,164.7,69.2Zm41.4-10.9-2.4-7.9L151,66.7,80.5,88.4h-.1l-11,3.4,2.7,2.3a24,24,0,0,0,4.8,3.3c14.7,7.8,41.5,5.8,79.8-6.1l1.8-.6-3.4-11a38.17,38.17,0,0,0,17,1.1c.6,0,13.9-3,23.8-9.1l.3-.1c.1-.1,2-1.3,5,1.1l.7.6.8-.1a5.88,5.88,0,0,0,3.7-2.5C208,68.1,208,63.8,206.1,58.3ZM148.4,71.6l2.1,6.6,1.1,3.5C117.1,91.6,104.5,93,88.2,90ZM77.5,93.5l3.1-1c3.5.8,6.8,1.6,9.9,2a5.72,5.72,0,0,0,1.4.1c15.8,2.1,30.1-.3,61-9.1l.8,2.7C116.7,99.6,90.7,101.3,77.5,93.5ZM203.6,66.2h0v.7h0c0,.3-.1.4-.1.7,0,.1-.1.3-.1.4h0c0,.1-.1.1-.1.3s-.3.4-.4.6c-4-2.7-7.4-1.6-8.8-.4C184.9,74,171.7,77,171.7,77A37.82,37.82,0,0,1,154,75.2l-1.6-4.8,49.1-15.1,1.1,4.2a21,21,0,0,1,1.1,5.5A4.87,4.87,0,0,0,203.6,66.2Zm-7.5-6.8a3,3,0,1,0,1.3,4A2.83,2.83,0,0,0,196.1,59.4Zm-31.4,9.8a3,3,0,1,0,1.3,4A3.08,3.08,0,0,0,164.7,69.2Zm-34,87.4c-1.4-5.4-4.7-12-9.3-19.7a241.52,241.52,0,0,0-24.5-33.2,2.19,2.19,0,0,0-3.2,3,21.79,21.79,0,0,0,1.7,2.1l-4.7,4.7a2.3,2.3,0,0,0,0,3.1,1.73,1.73,0,0,0,1.6.7,2.57,2.57,0,0,0,1.6-.7l4.4-4.4a311.76,311.76,0,0,1,19.5,27c.4.8,1,1.6,1.4,2.4l-5.4,5.4a2.3,2.3,0,0,0,0,3.1,2.36,2.36,0,0,0,1.6.7,2.57,2.57,0,0,0,1.6-.7l4.5-4.5c6.1,11.6,7.8,19.5,4.4,22.9a6.86,6.86,0,0,1-5,1.7c-6.2-.1-16.4-4.5-29.4-13.2l4.7-4.7a2.19,2.19,0,1,0-3.1-3.1l-5.4,5.2a314.88,314.88,0,0,1-35.7-29l-.4-.4,6.4-6.4a2.19,2.19,0,1,0-3.1-3.1l-6.1,6.1A19.25,19.25,0,0,1,44.6,110c0-5.2,2.7-10.3,7.6-15.4C59.8,87,67.8,85,75.5,88.9a2.24,2.24,0,1,0,2-4,22.74,22.74,0,0,0-10.6-2.4,44.14,44.14,0,0,0-3.4-14.6c-2.4-5-5.7-7.8-9.2-7.8-4.4,0-8.2,4.2-10.5,11.3-6.6-3.4-12.3-3.7-15.4-.6s-2.8,8.6.6,15.3c-7.2,2.3-11.3,6.1-11.3,10.5,0,3.7,2.8,6.8,7.8,9.2a46.78,46.78,0,0,0,14.6,3.4v.7c0,6.4,3,12.6,8.9,18.5,5,5.1,20.9,19.1,37.9,30.7,9.2,6.4,17.3,10.8,23.8,13.2a29.93,29.93,0,0,0,10.2,2.1,11,11,0,0,0,8.2-3C132.1,168.4,132.7,163.3,130.7,156.6ZM22.1,96.8c0-2.1,3.3-5.1,10.6-6.9a2.33,2.33,0,0,0,1.6-1.3,2,2,0,0,0-.1-2c-4-6.5-4.1-10.9-2.7-12.5,1.6-1.6,5.9-1.3,12.5,2.7a2,2,0,0,0,2,.1,2.14,2.14,0,0,0,1.3-1.6c1.8-7.4,4.8-10.6,6.9-10.6,3.3,0,7.4,7.5,8.2,18.5C57.9,84.3,53.3,87,49,91.4s-7.1,8.8-8.2,13.4C29.6,104.2,22.1,100.2,22.1,96.8Zm78.1,28.3a2.3,2.3,0,0,0-3.1,0l-5.8,5.8a2.3,2.3,0,0,0,0,3.1,2.36,2.36,0,0,0,1.6.7,2.57,2.57,0,0,0,1.6-.7l5.8-5.8A2.42,2.42,0,0,0,100.2,125.1ZM78.7,111.9a2.3,2.3,0,0,0-3.1,0l-5.9,5.9a2.3,2.3,0,0,0,0,3.1,2.36,2.36,0,0,0,1.6.7,2.57,2.57,0,0,0,1.6-.7l5.9-5.9A2.42,2.42,0,0,0,78.7,111.9Z" transform="translate(-17.7 -50.4)" fill="#bf55ec"/></svg>