<svg id="Layer_1" data-name="Layer 1" xmlns="http://www.w3.org/2000/svg" viewBox="0 0 190 190"><title>icon_1a</title><path d="M112.5,53A59.5,59.5,0,1,0,172,112.5,59.58,59.58,0,0,0,112.5,53Zm4.9,10.2a49.63,49.63,0,0,1,44.4,44.3H121c0-.1-.1-.1-.1-.2s-.1-.1-.2-.2a8.93,8.93,0,0,0-2.9-2.9l-.1-.1c-.1-.1-.2-.1-.3-.2Zm3.5,54.2h20.8a29.76,29.76,0,1,1-34.3-34.3l.1,20.9a9.84,9.84,0,0,0,4.9,18.4A9.68,9.68,0,0,0,120.9,117.4Zm-8.4,44.7a49.58,49.58,0,0,1-5-98.9v10a39.66,39.66,0,1,0,44.3,44.3h10A49.59,49.59,0,0,1,112.5,162.1Z" transform="translate(-17.5 -17.5)" fill="#bf55ec"/><path d="M112.5,53A59.5,59.5,0,1,0,172,112.5,59.58,59.58,0,0,0,112.5,53Zm4.9,10.2a49.63,49.63,0,0,1,44.4,44.3H121c0-.1-.1-.1-.1-.2s-.1-.1-.2-.2a8.93,8.93,0,0,0-2.9-2.9l-.1-.1c-.1-.1-.2-.1-.3-.2Zm3.5,54.2h20.8a29.76,29.76,0,1,1-34.3-34.3l.1,20.9a9.84,9.84,0,0,0,4.9,18.4A9.68,9.68,0,0,0,120.9,117.4Zm-8.4,44.7a49.58,49.58,0,0,1-5-98.9v10a39.66,39.66,0,1,0,44.3,44.3h10A49.59,49.59,0,0,1,112.5,162.1Z" transform="translate(-17.5 -17.5)" fill="#bf55ec"/><path d="M112.5,17.5a95,95,0,1,0,95,95A95.09,95.09,0,0,0,112.5,17.5Zm7.8,16.2a79.24,79.24,0,0,1,70.9,70.8H126c0-.2-.2-.2-.2-.3s-.2-.2-.3-.3a13.49,13.49,0,0,0-4.6-4.6l-.2-.2a1.33,1.33,0,0,0-.5-.3l.1-65.1Zm5.6,86.6h33.2c-3.9,22.3-23.3,39.6-46.8,39.6a47.53,47.53,0,0,1-8-94.4l.2,33.4a15.65,15.65,0,0,0,7.8,29.3A15,15,0,0,0,125.9,120.3Zm-13.4,71.5a79.25,79.25,0,0,1-8-158.1v16a63.4,63.4,0,1,0,70.8,70.8h16C187.2,160.4,153.5,191.8,112.5,191.8Z" transform="translate(-17.5 -17.5)" fill="#bf55ec"/></svg>