<svg id="Layer_1" data-name="Layer 1" xmlns="http://www.w3.org/2000/svg" viewBox="0 0 189.98 190.21"><title>icon_4a</title><path d="M181.4,56.4a3.8,3.8,0,1,0,3.8,3.8A3.8,3.8,0,0,0,181.4,56.4Z" transform="translate(-17.47 -17.48)" fill="#bf55ec"/><path d="M112.4,145.6a3.8,3.8,0,1,0,3.8,3.8A3.86,3.86,0,0,0,112.4,145.6Z" transform="translate(-17.47 -17.48)" fill="#bf55ec"/><path d="M164.3,108.3a3.8,3.8,0,0,0-3.8,3.8A33.63,33.63,0,0,1,127,145.6a3.8,3.8,0,0,0,0,7.6,40.78,40.78,0,0,0,40.8-40.8A3.54,3.54,0,0,0,164.3,108.3Z" transform="translate(-17.47 -17.48)" fill="#bf55ec"/><path d="M207,73.3l-9.4-18.6a23.18,23.18,0,0,0-21.1-13,24.08,24.08,0,0,0-18.8,9.4L147.2,63a21.4,21.4,0,0,0-11.7-8.3l-18.8-5.3c-14.3-4.1-28.4-15.2-38.6-30.3a3.65,3.65,0,0,0-6.7,2.1V41.1a90.82,90.82,0,0,0,4.1,27.3,63.69,63.69,0,0,1-8.7,1.7,109.41,109.41,0,0,1-17.1,1.3H21.1a3.79,3.79,0,0,0-3.2,1.9,3.72,3.72,0,0,0,.2,3.8l22.2,35.6a54.8,54.8,0,0,0,43.8,25.6L48.3,178.8a11.13,11.13,0,0,0,3.8,18.1l19.6,9.8a.2.2,0,0,1,.2.2,11.29,11.29,0,0,0,14.5-6.2l13.7-32.4h27.3c31.4,0,58-25.6,58-55.7V90.3a11.14,11.14,0,0,1,11.1-11.1h7.3a4.44,4.44,0,0,0,3.2-1.7A5.09,5.09,0,0,0,207,73.3ZM78.9,31.9c10.2,12,23,20.7,35.9,24.3l18.8,5.3a14.11,14.11,0,0,1,8.5,7l-9.8,11.1L115,69.2a38.42,38.42,0,0,0-25.4-4.9A32.19,32.19,0,0,0,82.8,66a83,83,0,0,1-4-25.2C78.9,40.8,78.9,31.9,78.9,31.9ZM196.3,71.3a18.63,18.63,0,0,0-18.6,18.6v22.2c0,26.2-23.1,48.2-50.4,48.2H97.5a27.6,27.6,0,0,0-24.8,15.2l-.8,1.5a3.67,3.67,0,0,0,6.6,3.2,21,21,0,0,1,13-11.9l-12,29h0a3.66,3.66,0,0,1-4.7,2.1c-20.9-10.3-19.6-9.8-19.9-9.8a3.67,3.67,0,0,1-1.3-6c.2-.2,7.9-8.8,40.3-45.5a54.12,54.12,0,0,0,35.9-15.8,3.75,3.75,0,0,0-5.3-5.3c-16.6,16.6-36.1,13.4-38.4,13.7a47,47,0,0,1-39.9-22l-2.4-3.8,2.6,1.1c16.9,6.6,38.2,4.3,52.9-5.5a3.66,3.66,0,1,0-4.2-6C82.3,103.2,63.7,105,49,99.2L37,94.5,27.1,79h22a126.81,126.81,0,0,0,18.4-1.5c12.4-2.1,17.7-4.7,22.6-5.6a29.47,29.47,0,0,1,20.3,4l29.2,17.5a3.72,3.72,0,0,0,3.8-6.4l-5.3-3.2c26.2-29.4,24.6-27.8,24.8-28a16.28,16.28,0,0,1,27.5,2.6L197,71.8h-.8v-.5Z" transform="translate(-17.47 -17.48)" fill="#bf55ec"/></svg>