<svg id="Layer_1" data-name="Layer 1" xmlns="http://www.w3.org/2000/svg" viewBox="0 0 189.9 188.6"><title>icon_7a</title><path d="M113.2,60.7a9.1,9.1,0,1,0-9.1-9.1A9,9,0,0,0,113.2,60.7Zm0-12.2a3,3,0,1,1-3,3A2.83,2.83,0,0,1,113.2,48.5Z" transform="translate(-17.6 -18.2)" fill="#bf55ec"/><rect x="92.5" width="6.1" height="6.1" fill="#bf55ec"/><rect x="92.5" y="12.1" width="6.1" height="6.1" fill="#bf55ec"/><rect x="1.2" y="45.5" width="6.1" height="6.1" fill="#bf55ec"/><rect x="1.2" y="57.9" width="6.1" height="6.1" fill="#bf55ec"/><path d="M98,158a9.1,9.1,0,1,0,9.1-9.1A9.13,9.13,0,0,0,98,158Zm9.1-3a3,3,0,1,1-3,3A2.89,2.89,0,0,1,107.1,155Z" transform="translate(-17.6 -18.2)" fill="#bf55ec"/><rect x="86.4" y="106.4" width="6.1" height="6.1" fill="#bf55ec"/><rect x="86.4" y="118.6" width="6.1" height="6.1" fill="#bf55ec"/><path d="M198.4,79.1a9.1,9.1,0,1,0-9.1-9.1A9.13,9.13,0,0,0,198.4,79.1Zm0-12.1a3,3,0,1,1-3,3A2.95,2.95,0,0,1,198.4,67Z" transform="translate(-17.6 -18.2)" fill="#bf55ec"/><rect x="177.5" y="18.2" width="6.1" height="6.1" fill="#bf55ec"/><rect x="177.5" y="30.3" width="6.1" height="6.1" fill="#bf55ec"/><path d="M170,163.3l4.6-5.2a80,80,0,0,0,5-6.5l1.5-.4a77.49,77.49,0,0,1,17.4-2.2v-6.1a74.59,74.59,0,0,0-14.3,1.3,69.2,69.2,0,0,0,6.1-15.6,22.65,22.65,0,0,1,14.3-5v-6.1a29,29,0,0,0-12.8,3,69.7,69.7,0,0,0,.7-9.1v-1.1l.9-1.7a37.63,37.63,0,0,1,13-14.7l-3.5-5A44.94,44.94,0,0,0,191.4,100a89.66,89.66,0,0,0-2.6-10.8L183,71.9l-5.9,2,5.6,16.9a30.62,30.62,0,0,1,1.5,5.4,48.46,48.46,0,0,0-9.8-6.7L172,88.4l-2.8,5.4,2.4,1.1A38.19,38.19,0,0,1,185.7,107c0,1.3.2,2.6.2,4.1a73,73,0,0,1-.9,10.4,39.56,39.56,0,0,0-16.1-15l-2.8,5.4A33.72,33.72,0,0,1,181.9,129l.7,1.7a61,61,0,0,1-4.8,11.1,32,32,0,0,0-8.2-13.4l-4.3,4.3a27.84,27.84,0,0,1,7.4,13l.9,3c-1.3,1.7-2.6,3.5-3.9,5l-6.1,6.7a44.15,44.15,0,0,0-11.9-2.4c-.7-2.4-1.5-5-2.2-7.4l.9-5.9a51.13,51.13,0,0,1,7.4-18.9l-5-3.5a55.36,55.36,0,0,0-6.7,14.1c-1.7-8.5-3.3-17.1-4.3-25.8a26,26,0,0,1,12.6-7.6l1.5-.4-1.5-5.9-1.5.4A29.6,29.6,0,0,0,141,103c-.4-4.1-.7-8.2-.9-12.1l.7-1.3a37.63,37.63,0,0,1,13-14.7l-3.5-5a38.09,38.09,0,0,0-10.4,10h0V76.4a28,28,0,0,1,8.2-20l-4.3-4.3a33.18,33.18,0,0,0-9.1,16.7,45.87,45.87,0,0,0-11.3-11.1l-3.5,5a39.27,39.27,0,0,1,13,14.7l.9,1.7v6.5a31.11,31.11,0,0,0-11.3-6.7l-2,5.9a24.48,24.48,0,0,1,12.8,9.8l.7,1.1c.2,4.3.7,8.5,1.1,12.8a70.14,70.14,0,0,0-15.4-11.1l-2.8,5.4a52.8,52.8,0,0,1,19.3,16.1v.2c.7,4.3,1.3,8.7,2.2,13a43.93,43.93,0,0,0-8.2-5l-4.6-2.2-2.8,5.4,4.6,2.2a54.16,54.16,0,0,1,13,9.3c1.3,5.4,2.6,10.8,4.3,16.3a45.81,45.81,0,0,0-24.5,9.3l-16.7,13a43.54,43.54,0,0,0-18.4-13.7V134.6l15.4-15.4a9.48,9.48,0,1,0-13.4-13.4L81,111.9a1.34,1.34,0,0,1-2.2-.9V99.7a2.66,2.66,0,0,1,1.1-2.2L103,76.9a9,9,0,0,0,3-6.9,9.27,9.27,0,0,0-9.5-9.3A8.64,8.64,0,0,0,90,63.5l-9.1,9.1a1.34,1.34,0,0,1-2.2-.9V27.3a9.1,9.1,0,0,0-18.2,0v26a1.37,1.37,0,0,1-2.2.9L45.9,42A9.59,9.59,0,0,0,32.1,55.3L51.8,77.4a9.37,9.37,0,0,1,2.4,6.1v36.7a1.37,1.37,0,0,1-2.2.9L33.8,102.9A9.59,9.59,0,0,0,20,116.2l27,29.7a4.45,4.45,0,0,1,.9,2v21.7A43.55,43.55,0,0,0,33.6,183L19,206.8H207l-21-29.5A43,43,0,0,0,170,163.3ZM52.9,142.2,25.8,112.3a3.15,3.15,0,0,1-.9-2.4,3.42,3.42,0,0,1,3.5-3.5,3.36,3.36,0,0,1,2.4,1.1L49,125.7a7.69,7.69,0,0,0,5.2,2.2,7.38,7.38,0,0,0,7.4-7.4v-20h6.1V94.4H61.6V88.3H73.7V82.2H61.3a14.63,14.63,0,0,0-3.7-8.5L37.9,51.8a3.15,3.15,0,0,1-.9-2.4,3.42,3.42,0,0,1,3.5-3.5A3.36,3.36,0,0,1,42.9,47L55,59.1a7.69,7.69,0,0,0,5.2,2.2,7.38,7.38,0,0,0,7.4-7.4v-26a3,3,0,0,1,6,0V72.4A7.38,7.38,0,0,0,81,79.8a7.5,7.5,0,0,0,5.2-2.2l9.1-9.1a3.33,3.33,0,0,1,2.6-.9,3.4,3.4,0,0,1,3.3,3.3,3.36,3.36,0,0,1-1.1,2.4L76.9,93.8a8.6,8.6,0,0,0-3,6.7v11.3a7.38,7.38,0,0,0,7.4,7.4,7.5,7.5,0,0,0,5.2-2.2l6.1-6.1a3.36,3.36,0,0,1,2.4-1.1,3.42,3.42,0,0,1,3.5,3.5,3.36,3.36,0,0,1-1.1,2.4L82,131.1a6,6,0,0,0-1.7,4.3v4.8H68v6.1H80.1v6.1H74v6.1h6.1v7.2a40.43,40.43,0,0,0-9.1-1.1,46,46,0,0,0-15.2,2.8V148.3C55.2,146.1,54.6,143.9,52.9,142.2ZM30.5,200.8l9.3-14.1a39.1,39.1,0,0,1,5.9-6.9,39.38,39.38,0,0,0,20.4,5.6h4.3v-6.1H66.1a32.63,32.63,0,0,1-15-3.7,36.92,36.92,0,0,1,48.4,8.9,52.3,52.3,0,0,0-23-5.2v6.1a47.24,47.24,0,0,1,26.2,8l5,3.5,2.6,3.9Zm87.4,0-10-15.2,14.5-11.3a33.91,33.91,0,0,0,22.1,8h2.4v-5.9h-2.4a27.89,27.89,0,0,1-16.9-5.6,41.11,41.11,0,0,1,21.7-6.5,40.16,40.16,0,0,1,31.9,16.1l-3.5-.9a103.07,103.07,0,0,0-24.7-3v6.1a95.65,95.65,0,0,1,23.2,2.8l10.4,2.6,9.1,12.8Z" transform="translate(-17.6 -18.2)" fill="#bf55ec"/><rect x="28.5" y="170.4" width="6.1" height="6.1" fill="#bf55ec"/><rect x="62.1" y="173.5" width="6.1" height="6.1" fill="#bf55ec"/><rect x="101.6" y="164.4" width="6.1" height="6.1" fill="#bf55ec"/><rect x="147.2" y="170.4" width="6.1" height="6.1" fill="#bf55ec"/><rect x="119.8" y="170.4" width="6.1" height="6.1" fill="#bf55ec"/></svg>