<svg id="Layer_1" data-name="Layer 1" xmlns="http://www.w3.org/2000/svg" xmlns:xlink="http://www.w3.org/1999/xlink" viewBox="0 0 228 228"><defs><linearGradient id="linear-gradient" x1="26.4" y1="26.4" x2="201.6" y2="201.6" gradientUnits="userSpaceOnUse"><stop offset="0" stop-color="#120919"/><stop offset="1" stop-color="#351c4c"/></linearGradient></defs><rect x="1.5" y="1.5" width="225" height="225" rx="85" stroke="#fff" stroke-miterlimit="10" stroke-width="3" fill="url(#linear-gradient)"/><path d="M150.14,66.13l-8-.43c-7.84-.41-14.76,3.66-19.14,7a24.63,24.63,0,0,0-5.9,6.52c-3.1,4.64-10.74,9.73-13.75,11.6l-1.27-1.94A3,3,0,0,0,98,88L86.77,95.3a3,3,0,0,0-1.27,1.83,3.23,3.23,0,0,0,.4,2.37l.78,1.17-4,2.56a2.67,2.67,0,0,0-1.12,1.59,2.81,2.81,0,0,0,.35,1.9l3.71,5.75a2.56,2.56,0,0,0,1.56,1,.81.81,0,0,0,.51.1,2.65,2.65,0,0,0,1.37-.41L92.43,111a47.07,47.07,0,0,1,3.07,9.41h-5v17.71c0,14.76-9.51,20-11.45,20.92l-.1.1H72.87v3.24h67.44v-3.2h-6c-1.55-.87-9.93-6-9.93-20.93V120.5h-5.8a19.16,19.16,0,0,0,4.48-8.9l.25-1.12L122,109.7a49,49,0,0,1-11-8.59c.55-.41,1.12-.86,1.68-1.27a48.77,48.77,0,0,0,8.19-8.91c5.81-8.22,16.72-12.86,19.9-14.15a5.66,5.66,0,0,1,2-.31l6.77.31a5,5,0,0,0,3.82-1.37,5.69,5.69,0,0,0,1.78-3.82,5.24,5.24,0,0,0-5-5.46ZM88,110.31l-3-4.64,3.37-2.24.15.16.15.15a33.56,33.56,0,0,1,2.55,4.38Zm33.29,13.49v14.51c0,11.2,4.38,17.66,7.84,20.92h-7.84v-4.79a1.54,1.54,0,0,0-1.53-1.55h0a1.63,1.63,0,0,0-1.58,1.55v4.8h-4.83V149.5a1.63,1.63,0,0,0-1.55-1.55,1.5,1.5,0,0,0-1.55,1.44v9.84h-5V156a1.58,1.58,0,1,0-3.15-.27v0a1,1,0,0,0,0,.25v3.2H97.25v-4.7a1.54,1.54,0,0,0-1.53-1.5h0a1.63,1.63,0,0,0-1.55,1.55v4.78H84.94c4-3.25,8.9-9.72,8.9-20.92V123.8h14.51V127a1.63,1.63,0,0,0,1.54,1.55,1.54,1.54,0,0,0,1.55-1.53v0h0v-3.2h3.2v4.79a1.63,1.63,0,0,0,1.55,1.54,1.54,1.54,0,0,0,1.54-1.54h0V123.8Zm-1.48-11.72a18.53,18.53,0,0,1-5.49,8.51H100.76a17.94,17.94,0,0,0,8.66-2.6,17.27,17.27,0,0,0,6.52-8.49c1.32.81,2.49,1.73,3.86,2.58Zm-6.51-4.68a13.4,13.4,0,0,1-15.13,9.73,52,52,0,0,0-2.86-7.83l-.25-.51c-.56-1.28-1.28-2.55-1.93-3.82a.62.62,0,0,1-.16-.31,32.1,32.1,0,0,0-1.76-2.85L88.65,97.9l10.69-7,1.16,1.65,1.42,2.24c.51.77,1,1.54,1.54,2.24a9.05,9.05,0,0,1,.66.87l1,1.26c.25.31.56.67.86,1s.78.87,1.13,1.28l.86,1,.67.65a59.46,59.46,0,0,0,4.7,4.28Zm37.92-34.31a2.25,2.25,0,0,1-1.43.51L143,73.29a7,7,0,0,0-3.25.52c-4.39,1.67-15.17,6.51-21.43,15.26a40.19,40.19,0,0,1-7.59,8.25,20.52,20.52,0,0,1-1.83,1.43l-.15-.16a22.27,22.27,0,0,1-1.43-1.78c-.15-.25-.41-.51-.56-.77a19.07,19.07,0,0,1-1.12-1.55,7,7,0,0,1-.56-.86c3.36-2.14,11.2-7.44,14.69-12.58a22.56,22.56,0,0,1,5.14-5.75c4-3,10.18-6.67,17-6.37l8,.41a2,2,0,0,1,2,2v.25a5.52,5.52,0,0,1-.75,1.47Z" fill="#fff"/></svg>