<svg id="Layer_1" data-name="Layer 1" xmlns="http://www.w3.org/2000/svg" xmlns:xlink="http://www.w3.org/1999/xlink" viewBox="0 0 228 228"><defs><linearGradient id="linear-gradient" x1="26.4" y1="26.4" x2="201.6" y2="201.6" gradientUnits="userSpaceOnUse"><stop offset="0" stop-color="#120919"/><stop offset="1" stop-color="#351c4c"/></linearGradient></defs><rect x="1.5" y="1.5" width="225" height="225" rx="85" stroke="#fff" stroke-miterlimit="10" stroke-width="3" fill="url(#linear-gradient)"/><path d="M162.16,94.12l-4.79-9.47A11.84,11.84,0,0,0,146.64,78a12.18,12.18,0,0,0-9.57,4.78l-5.3,6a11,11,0,0,0-6-4.22l-9.58-2.7c-7.28-2.14-14.46-7.74-19.6-15.43a2.14,2.14,0,0,0-2.09-.75,2,2,0,0,0-1.38,1.83V77.68a44.88,44.88,0,0,0,2.14,13.9c-1.47.35-3,.66-4.43.87a57.59,57.59,0,0,1-8.8.6H67.5a1.82,1.82,0,0,0-1.63.92A1.91,1.91,0,0,0,66,95.9L77.28,114a27.88,27.88,0,0,0,22.29,13L81.32,147.67a5.71,5.71,0,0,0,1.93,9.2l10,5a.09.09,0,0,1,.1.08v0h0a5.77,5.77,0,0,0,7.34-3.11l7-16.5H121.5c16,0,29.52-13,29.52-28.35V102.72a5.68,5.68,0,0,1,5.66-5.65h3.82a2,2,0,0,0,1.64-.86A2.36,2.36,0,0,0,162.16,94.12ZM96.94,73c5.14,6.13,11.71,10.54,18.33,12.37l9.57,2.7a7.27,7.27,0,0,1,4.33,3.56l-5,5.65L115.36,92a19.63,19.63,0,0,0-13-2.5,14.36,14.36,0,0,0-3.41.87A41.27,41.27,0,0,1,97,77.6Zm59.78,20a9.52,9.52,0,0,0-9.48,9.5v11.31c0,13.33-11.76,24.48-25.66,24.48H106.41A14,14,0,0,0,93.79,146l-.36.76a1.87,1.87,0,0,0,3.33,1.63,10.59,10.59,0,0,1,6.62-6.06l-6.13,14.76h0a1.8,1.8,0,0,1-2.31,1.06h-.08c-10.73-5.24-10-4.93-10.18-4.93a1.86,1.86,0,0,1-1.11-2.38,1.74,1.74,0,0,1,.44-.69c.1-.1,4-4.53,20.52-23.21a27.54,27.54,0,0,0,18.32-8,1.91,1.91,0,0,0-2.7-2.7c-8.43,8.43-18.39,6.82-19.54,7a23.85,23.85,0,0,1-20.31-11.2L79,110.16l1.38.56C89,114,99.83,112.91,107.26,108a1.87,1.87,0,0,0-2.14-3.07h0a26.22,26.22,0,0,1-23.46,2.39l-6.18-2.45L70.5,97H81.77a63.89,63.89,0,0,0,9.37-.76c6.36-1,9-2.4,11.5-2.85a15,15,0,0,1,10.33,2l14.82,8.93a1.89,1.89,0,0,0,2.12-3.14h0l-.2-.12L127,99.39c13.36-14.89,12.54-14.11,12.66-14.22a8,8,0,0,1,6.62-3.26,8.14,8.14,0,0,1,7.38,4.6L157,93.34h-.35v-.16h.1Z" fill="#fff"/></svg>