<svg id="Layer_1" data-name="Layer 1" xmlns="http://www.w3.org/2000/svg" viewBox="0 0 189.89 157.02"><title>icon_3</title><path d="M30.2,161c-.6-.8-.8-2.7-.3-3.2,2.4-2.2,5.1-4.1,7.6-6,.2-.2.6,0,1.4-.2.5.3,1.6.8,1.7,1.6a3.43,3.43,0,0,1-.5,2.8,63.17,63.17,0,0,1-7.1,5.4A2.65,2.65,0,0,1,30.2,161Z" transform="translate(-17.5 -34.01)" fill="#ef4836"/><path d="M50,183.5a16.68,16.68,0,0,1-1.6,2.4c-1.9,1.6-4,3-5.9,4.4-1.6,1.1-3,.9-4-.2a2.69,2.69,0,0,1,.6-3.8l.2-.2a64.56,64.56,0,0,1,5.9-4.4,3.92,3.92,0,0,1,3-.2C49,181.8,49.3,182.7,50,183.5Z" transform="translate(-17.5 -34.01)" fill="#ef4836"/><path d="M43.2,150.9a3.08,3.08,0,0,1,.9-4h.2l29.9-22.6a3,3,0,0,1,3.5-.5,8.7,8.7,0,0,1,1.7,2.1,14.65,14.65,0,0,1-1.7,2.4c-10.1,7.6-20.1,15.3-30.2,22.9a2.78,2.78,0,0,1-3.8.2C43.3,151.1,43.3,151.1,43.2,150.9Z" transform="translate(-17.5 -34.01)" fill="#ef4836"/><path d="M72.3,149,22.6,186.8c-2.2,1.7-3.3,1.6-5.1-.5v-1.7c.5-.6,1.1-1.3,1.7-1.9q31.35-24,63-47.9a5.22,5.22,0,0,1,1.1-.8,2.66,2.66,0,0,1,3.6.5h0a2.52,2.52,0,0,1-.2,3.5,1.33,1.33,0,0,1-.5.3C81.8,141.9,77,145.4,72.3,149Z" transform="translate(-17.5 -34.01)" fill="#ef4836"/><path d="M95.9,147a2.55,2.55,0,0,1-.6,3.5h0c-2.4,1.9-4.9,3.8-7.4,5.7-10.4,7.9-20.7,15.8-31.2,23.7a26.74,26.74,0,0,1-3,1.7,9.64,9.64,0,0,1-2.1-1.7,5.19,5.19,0,0,1,.3-2.8c.2-.6.9-.9,1.6-1.3l36.7-28.2a9.06,9.06,0,0,1,1.9-1.3A2.78,2.78,0,0,1,95.9,147Z" transform="translate(-17.5 -34.01)" fill="#ef4836"/><path d="M200.9,34.3c-3.5-.8-6.6.2-9.8,1.3-5.2,1.9-9.3,5.5-13.4,9-5.1,4.3-10.1,8.7-15.2,13.1-1.7,1.6-3.6,2.4-5.9,1.4-.8-.3-1.7-.5-2.5-.8-11.6-4.3-23.1-8.7-34.7-13-6.3-2.4-12.5-4.4-18.8-6.6a7.43,7.43,0,0,0-6.5.9,23.88,23.88,0,0,0-7.6,8.2,5.78,5.78,0,0,0,.9,7.4A24.5,24.5,0,0,0,92,59c10,7,20.1,13.8,29.9,20.9,2.4,1.9,4.4,4,6.5,6-7.6,7.3-14.9,14.2-22.2,21a2.12,2.12,0,0,1-1.9,0c-3-1.4-5.9-2.8-8.9-4.3a7.87,7.87,0,0,0-9,1.1c-1.3,1.1-2.4,2.2-3.5,3.3-2.5,2.7-2.7,5.2-.5,8.1,1.6,2.1,3.2,4,4.7,5.9,6.5,8.2,13,16.5,19.6,24.7a8,8,0,0,0,9.5,2.7,11.85,11.85,0,0,0,5.7-13.4c-.6-2.7-1.4-5.4-1.9-8.1a2.26,2.26,0,0,1,.6-2.2c7.6-6,15.3-12,23.4-18.2,1.6,3,3.2,5.9,4.4,8.7l13.8,35.1a22.68,22.68,0,0,0,2.1,4.1,5.44,5.44,0,0,0,6.3,2.5c6.5-1.9,11.9-6.2,12.2-13.8a37.59,37.59,0,0,0-.3-5.9c-2.5-18.4-5.1-36.7-7.6-55.1a5,5,0,0,1,1.9-5.2c6.2-5.2,12.5-10.3,18.5-15.7a36.14,36.14,0,0,0,11.6-17.1,3.53,3.53,0,0,0,.3-1.4C208.2,39.1,205.2,34.9,200.9,34.3Zm.5,11.2a31.75,31.75,0,0,1-8.5,12L173.3,74.1a8.91,8.91,0,0,0-3.6,8.4c.9,7.9,2.1,15.7,3.2,23.6,1.6,11.9,3.3,23.6,4.7,35.4.6,5.4-1.7,8.7-6.6,10.4-2.1.8-2.7.6-3.3-1.4-3.8-10-7.6-19.8-11.2-29.7a85.45,85.45,0,0,0-11.1-21.4l-2.5,1.9c-9,7-17.9,13.8-26.9,20.6a3.8,3.8,0,0,0-1.6,4.4c.9,3.5,1.7,7,2.5,10.4a6.21,6.21,0,0,1-1.4,5.7c-1.9,2.2-3.6,2.1-5.4-.2l-21-26.9a6.47,6.47,0,0,1-.8-.9c-.6-1.1-2.2-2.8-1.9-3.3a16.66,16.66,0,0,1,4.4-4,2.81,2.81,0,0,1,2.4.5c3.5,1.6,7,3.3,10.4,5.1a3.81,3.81,0,0,0,4.6-.6c8.7-8.2,17.2-16.5,25.9-24.7a.2.2,0,0,0,.2-.2A35.19,35.19,0,0,0,122,73.8c-9.7-6.5-19.1-13.1-28.6-19.8-3.3-2.4-3.3-2.5-.8-5.5,4.1-5.1,5.1-5.4,11.2-3,16.5,6.2,32.8,12.3,49.2,18.4a17.31,17.31,0,0,0,6.3,1.3,9.48,9.48,0,0,0,6.6-2.8c6.6-5.9,13.4-11.6,20.1-17.2a20.62,20.62,0,0,1,10.3-4.9c.3,0,.5-.2.8-.2,1.7-.2,3.6-.5,4.9.9C203.1,42.4,202,44.1,201.4,45.5Z" transform="translate(-17.5 -34.01)" fill="#ef4836"/></svg>