<svg id="Layer_1" data-name="Layer 1" xmlns="http://www.w3.org/2000/svg" viewBox="0 0 189.72 189.9"><title>icon_9</title><path d="M161.8,151.9Zm0,0Zm0,0Zm0,0Zm0,0Z" transform="translate(-17.68 -17.6)" fill="#ef4836"/><path d="M31.6,42a3.89,3.89,0,0,1,3-4.5h2.6v-.2a8.6,8.6,0,0,1,2.4.4,3.73,3.73,0,0,1-.4,7.1,16.15,16.15,0,0,1-3.1.2A3.74,3.74,0,0,1,31.6,42Z" transform="translate(-17.68 -17.6)" fill="#ef4836"/><path d="M49.9,49.9c0,3.4-1.1,5-3.5,5.2-2.2.2-3.9-1.5-3.9-4.9V48.3a3.83,3.83,0,0,1,3.7-3.2C48.6,45.2,49.9,47.1,49.9,49.9Z" transform="translate(-17.68 -17.6)" fill="#ef4836"/><path d="M42.4,32.3c0-3.2,1.1-4.7,3.4-4.9s3.9,1.5,3.9,4.3c.2,3.5-1.1,5.6-3.7,5.6S42.4,35.5,42.4,32.3Z" transform="translate(-17.68 -17.6)" fill="#ef4836"/><path d="M50.4,42.6c-1.1-2.8.9-5,4.9-5,3.5,0,5.6,2.1,4.7,4.9a3.64,3.64,0,0,1-4.1,2.6C53.6,44.8,51.4,45,50.4,42.6Z" transform="translate(-17.68 -17.6)" fill="#ef4836"/><path d="M88.4,31.7a3.48,3.48,0,0,1,.2-4.5,3.34,3.34,0,0,1,4.7-.6c2.2,2.1,4.5,4.3,6.5,6.5a8.54,8.54,0,0,1,.9,2.4c-.7.9-1.3,2.2-2.2,2.6a4,4,0,0,1-3.7-.2A53.45,53.45,0,0,1,88.4,31.7Z" transform="translate(-17.68 -17.6)" fill="#ef4836"/><path d="M108.5,21.3a3.69,3.69,0,0,1,3.7-3.7h.2a3.65,3.65,0,0,1,3.5,3.7,3.69,3.69,0,0,1-3.7,3.7A3.76,3.76,0,0,1,108.5,21.3Z" transform="translate(-17.68 -17.6)" fill="#ef4836"/><path d="M114.9,200.8a3.57,3.57,0,0,1-.2,5.2l-.2.2-1.1.7H111c-.4-.2-.7-.6-1.1-.7a3.67,3.67,0,0,1-1.3-5,3.5,3.5,0,0,1,5-1.3A2.28,2.28,0,0,1,114.9,200.8Z" transform="translate(-17.68 -17.6)" fill="#ef4836"/><path d="M116.2,35.1h0V45a3.66,3.66,0,0,1-7.3,0V34.9a3.46,3.46,0,0,1,3.4-3.5h.4A4.25,4.25,0,0,1,116.2,35.1Z" transform="translate(-17.68 -17.6)" fill="#ef4836"/><path d="M124.6,33.1c.2-.4.6-.6.9-.9l5.6-5.6A3.16,3.16,0,0,1,135,26a18.67,18.67,0,0,1,2.6,3,9,9,0,0,1-1.7,3c-1.7,1.9-3.4,3.5-5.2,5.2a3.69,3.69,0,0,1-5.2.9A3.3,3.3,0,0,1,124.6,33.1Z" transform="translate(-17.68 -17.6)" fill="#ef4836"/><path d="M164.6,41.1a3.45,3.45,0,0,1,3-3.4,9.7,9.7,0,0,1,3.4,0,3.48,3.48,0,0,1,3.5,3.5v.2a3.53,3.53,0,0,1-3.7,3.5h-1.3a10.57,10.57,0,0,1-2.4-.2A3.3,3.3,0,0,1,164.6,41.1Z" transform="translate(-17.68 -17.6)" fill="#ef4836"/><path d="M182,48a11.48,11.48,0,0,1,0,3.7,3.57,3.57,0,0,1-3.7,3.4H178a3.77,3.77,0,0,1-3.4-3.7V50.3h0V48.4A4,4,0,0,1,178,45,4.36,4.36,0,0,1,182,48Z" transform="translate(-17.68 -17.6)" fill="#ef4836"/><path d="M174.7,32.5c0-1.9,0-3.9,2.1-4.9a3.66,3.66,0,0,1,4.9,1.7c.2.2.2.6.4.7a5.55,5.55,0,0,1,.2,1.9c0,4.3-2.4,6.4-5.2,5A4.3,4.3,0,0,1,174.7,32.5Z" transform="translate(-17.68 -17.6)" fill="#ef4836"/><path d="M182.5,40.5a3.85,3.85,0,0,1,3.7-3c3.5-.2,5.2.6,5.8,2.4.9,2.8-.9,4.9-4.7,4.9C184,44.8,182,43.1,182.5,40.5Z" transform="translate(-17.68 -17.6)" fill="#ef4836"/><path d="M207,159.7a25.34,25.34,0,0,0-19.1-20.9c-3.5-1.1-7.3-1.9-11-2.8a2.63,2.63,0,0,1-1.5-.7,5.54,5.54,0,0,1,1.5-5.6,22.43,22.43,0,0,0,9.5-16.8,142.75,142.75,0,0,0,0-18.5,31.46,31.46,0,0,0-.9-5.2,24.33,24.33,0,0,0-30.3-16.4,25.87,25.87,0,0,0-11.4,7.1,33.53,33.53,0,0,0-11.6-16.8A30.7,30.7,0,0,0,113,56.4c-16,0-26.5,8.4-32.1,23.2l-1.1-.7c-7.5-6.9-16.1-9-25.6-5.2A22.64,22.64,0,0,0,38.5,94.5c-.4,5.2-.2,10.6-.2,16.1a23.71,23.71,0,0,0,9,18.5,5.46,5.46,0,0,1,2.4,5,1.86,1.86,0,0,1-1.7,2.1c-3.4.7-6.5,1.5-9.7,2.2a25.92,25.92,0,0,0-20.6,26.2v22.8c0,3.9,1.1,5.2,5.2,5.2h28v9.7a4.57,4.57,0,0,0,2.6,5l42.6.2c2.2-1.3,3.2-2.6,2.6-4.5s-1.9-2.8-4.7-2.8H78.8V183.7a3.53,3.53,0,0,0-3.7-3.5h-.2a3.74,3.74,0,0,0-3.4,4.1V200h-13c.2-7.3-.2-14.6.9-21.7,1.9-11,8.8-17.9,19.6-20.9,6.2-1.7,12.3-3,18.7-4.5.9,1.9,1.7,3.5,2.4,5.4,3,6.7,6,13.5,8.8,20.2.7,1.7,1.7,3.2,3.9,3.2s3.2-1.5,3.7-3.2c3.5-8,7.1-15.9,10.5-23.9a2,2,0,0,1,2.8-1.3c5.2,1.3,10.3,2.4,15.5,3.7,12.1,2.8,20.2,12,21.3,24.3.4,6.2,0,12.3,0,18.7H153.7V184.3c0-2.6-1.3-4.3-3.5-4.3s-3.7,1.5-3.7,4.3V200H129.9c-2.1,0-3.9.2-4.9,2.4-.7,1.7-.2,3,2.1,4.9h44.3a4.91,4.91,0,0,0,2.6-5v-9.7h28.4a4.83,4.83,0,0,0,5-2.6V160.7A3.38,3.38,0,0,1,207,159.7ZM146.1,90.2a17,17,0,0,1,16.6-10.8A17.2,17.2,0,0,1,179,97.1a.7.7,0,0,1-.2.4v-.2c-11,.6-21.9.4-31.8-5.2C146.1,91.9,145.7,91.5,146.1,90.2Zm-.9,9.4c10.8,5.6,22.2,5.8,33.8,5.4h0c1.7,10.6-3.5,19.4-13.1,21.7a8.51,8.51,0,0,1-2.2.4,17,17,0,0,1-18.5-15.3C145,107.8,145.2,103.9,145.2,99.6ZM96.2,70a24.47,24.47,0,0,1,27.3-3.5,25.17,25.17,0,0,1,14.2,23l-12.3-7.1c-3.4-2.1-4.3-1.9-6.9.9a27.3,27.3,0,0,1-18.5,9c-4.1.2-8.2,0-12.5,0C86.7,83.5,89.3,75.8,96.2,70ZM56.6,80.5a16.91,16.91,0,0,1,22,9.7c0,.2.2.2.2.4a1.74,1.74,0,0,1-.9,1.9,44.14,44.14,0,0,1-21.1,5.4h-11v-.2A17,17,0,0,1,56.6,80.5ZM45.8,111v-6c11.8.4,23.2.2,34-5.4-.4,6.2.9,11.8-1.5,17.4a17.31,17.31,0,0,1-14.9,10.3A16.85,16.85,0,0,1,45.8,111Zm11.9,51.2a35.26,35.26,0,0,0-6.9,21.9,1.34,1.34,0,0,1-.2.9H39.8V167.8a3.71,3.71,0,0,0-7.3,1.3V185H25.2V164.6A18.16,18.16,0,0,1,40,145.9c3.5-.9,7.3-1.7,11-2.6,2.4,5.8,4.9,11.6,7.1,17.6A2.05,2.05,0,0,1,57.7,162.2Zm5.1-10.3c-1.9-6-6.5-11-5.6-17.7h11C69.3,141,64.6,145.9,62.8,151.9Zm25.6-5.3-17.2,4.5,3.4-8.2,13.6,3.4.2.3Zm7.2-5c-6-3.4-12.5-4.1-18.7-5.8a3.11,3.11,0,0,1-1.3-1.5,4.47,4.47,0,0,1,2.2-5.2c2.1-1.5,4.1-3,6.2-4.7v-.2a31.4,31.4,0,0,0,11,11.6,2,2,0,0,1,.6,1.5Zm24.7,8.8c-2.6,5.2-4.7,10.5-7.1,15.9-.2.6-.6,1.1-.9,2.1a9.47,9.47,0,0,1-.9-1.7c-2.6-6-5.4-11.8-7.7-17.7-1.1-2.6-.7-5.8-1.1-9.2h0a34.93,34.93,0,0,0,18.7.2C121.4,143.5,122,146.8,120.3,150.4ZM110,133.6a25.28,25.28,0,0,1-22.8-24.7v-9H93c11.2.6,21.3-2.1,29.7-10.3,4.9,2.8,9.5,5.6,14.4,8.4a1.25,1.25,0,0,1,.6,1.1c-.2,5.2.2,10.8-.9,15.9A25.3,25.3,0,0,1,110,133.6Zm19.1,7.4v-3.7c0-.6.4-.9.7-1.3a32.22,32.22,0,0,0,11.4-12.1,79.39,79.39,0,0,1,7.3,6.9c.9.9.6,3.2.7,4.7Zm7.3,5.8v-.6l13.6-3.4,3.4,8.2Zm25.4,5.1c-1.7-4.1-3.5-8-5-12a16,16,0,0,1-.4-5.4h11.2C168.5,141,163.8,145.9,161.8,151.9Zm38.1,31.4c0,.4-.2.9-.2,1.5h-6.2c-.4,0-.9-.9-.9-1.5V169.8a8.2,8.2,0,0,0-.2-2.2,3.36,3.36,0,0,0-3.9-2.8,3.67,3.67,0,0,0-3.4,3.5v16.4h-11c-.4-3-.4-5.8-.9-8.8a34.65,34.65,0,0,0-5.8-13.5,2.32,2.32,0,0,1-.6-2.1c2.4-5.8,4.9-11.6,7.3-17.7a130.07,130.07,0,0,1,14.8,4.1,17,17,0,0,1,11,16.3Z" transform="translate(-17.68 -17.6)" fill="#ef4836"/></svg>