<svg id="Layer_1" data-name="Layer 1" xmlns="http://www.w3.org/2000/svg" viewBox="0 0 190 157.22"><title>icon_6</title><path d="M63.6,114.8h0a5.6,5.6,0,0,1-5.3,5.9H58a36.85,36.85,0,0,1-4.7,0,33.79,33.79,0,0,1-4.5,0,5.72,5.72,0,0,1-5.6-5.6v-.2a5.4,5.4,0,0,1,5.6-5.3h9.1A5.61,5.61,0,0,1,63.6,114.8Z" transform="translate(-17.5 -33.78)" fill="#ef4836"/><path d="M63.6,137.1h0a5.45,5.45,0,0,1-5.1,5.9h-.2a41.7,41.7,0,0,1-5,0H48.8a5.72,5.72,0,0,1-5.6-5.6v-.2a5.55,5.55,0,0,1,5.6-5.4H58A5.67,5.67,0,0,1,63.6,137.1Z" transform="translate(-17.5 -33.78)" fill="#ef4836"/><path d="M72.9,115.2h0a5.42,5.42,0,0,1,5.4-5.6h9.3a5.6,5.6,0,0,1,5.6,5.3,5.36,5.36,0,0,1-5.3,5.7h0a41.7,41.7,0,0,1-5,0h0a33.79,33.79,0,0,1-4.5,0A5.17,5.17,0,0,1,72.9,115.2Z" transform="translate(-17.5 -33.78)" fill="#ef4836"/><path d="M77.3,142.8a5,5,0,0,1-4.4-5.7v-.2a5.31,5.31,0,0,1,5.1-5H88a5.76,5.76,0,0,1,5.3,5,5.12,5.12,0,0,1-4.4,5.9h0A74.84,74.84,0,0,1,77.3,142.8Z" transform="translate(-17.5 -33.78)" fill="#ef4836"/><path d="M102.3,115.1h0a5.78,5.78,0,0,1,5.7-5.4h9a5.55,5.55,0,0,1,5.6,5.4,5.67,5.67,0,0,1-5.3,5.6,41.7,41.7,0,0,1-5,0h0a33.79,33.79,0,0,1-4.5,0A5.51,5.51,0,0,1,102.3,115.1Z" transform="translate(-17.5 -33.78)" fill="#ef4836"/><path d="M102.3,137.4h0A5.38,5.38,0,0,1,108,132h9.1a5.55,5.55,0,1,1,.3,11.1,36.85,36.85,0,0,1-4.7,0h-4.5A5.94,5.94,0,0,1,102.3,137.4Z" transform="translate(-17.5 -33.78)" fill="#ef4836"/><path d="M147.3,162.9a5.59,5.59,0,0,1-5.9,3.8h-58a5.52,5.52,0,0,1-1-11h59.2C145.8,155.7,148.6,159.2,147.3,162.9Z" transform="translate(-17.5 -33.78)" fill="#ef4836"/><path d="M152.1,136.9a5.12,5.12,0,0,1-4.4,5.9h-.2a72.31,72.31,0,0,1-11.4,0,5.19,5.19,0,0,1-4.4-5.9h0a5.42,5.42,0,0,1,5.3-5h10A5.31,5.31,0,0,1,152.1,136.9Z" transform="translate(-17.5 -33.78)" fill="#ef4836"/><path d="M152.2,114.9v.3a5.49,5.49,0,0,1-5.3,5.7h-.2a38.43,38.43,0,0,1-4.8,0h-4.5a5.58,5.58,0,0,1-5.7-5.4v-.2a5.38,5.38,0,0,1,5.4-5.4h9.2A5.26,5.26,0,0,1,152.2,114.9Z" transform="translate(-17.5 -33.78)" fill="#ef4836"/><path d="M181.8,114.9h0a5.62,5.62,0,0,1-5.4,5.9h0a36.85,36.85,0,0,1-4.7,0h-4.5a5.71,5.71,0,0,1-5.7-5.4v-.2a5.38,5.38,0,0,1,5.4-5.4h9.2A5.33,5.33,0,0,1,181.8,114.9Z" transform="translate(-17.5 -33.78)" fill="#ef4836"/><path d="M181.8,136.7c.3,2.7-1.4,5.6-4.1,5.7a84.16,84.16,0,0,1-12.3,0c-2.7-.3-4.2-3-3.9-5.9a5.27,5.27,0,0,1,5-4.8h10.3A6.05,6.05,0,0,1,181.8,136.7Z" transform="translate(-17.5 -33.78)" fill="#ef4836"/><path d="M207.2,114.8c-3-20.2-19-34-39.3-34H54.4c0-3.6-.2-7.2,0-10.7a5.47,5.47,0,0,1,5.1-5,12.29,12.29,0,0,1,2.7-.2H164.9a17.74,17.74,0,0,0,3.3-.2,15.87,15.87,0,0,0,14.6-12.6,58.56,58.56,0,0,0,.3-13.9,5.51,5.51,0,0,0-2.7-3.6c-3.6-2.3-8,.5-8.1,5v8.7a5.38,5.38,0,0,1-5.4,5.4H61.9a21.74,21.74,0,0,0-3.6.2A16,16,0,0,0,43.7,67.3a101.57,101.57,0,0,0-.5,13.5,2.42,2.42,0,0,1-1.8,2.7,38.69,38.69,0,0,0-23.9,35.4v33.6A38.78,38.78,0,0,0,56,191H168.8a39.1,39.1,0,0,0,37.5-29.8c.5-1.8.8-3.6,1.2-5.4V115.6C207.3,115.5,207.2,115.1,207.2,114.8ZM196.4,152v.9a28,28,0,0,1-28.5,27.4H56.8a27.8,27.8,0,0,1-27.6-22.4,23.66,23.66,0,0,1-.6-5.9V119.1A27.68,27.68,0,0,1,56.8,91.7q55.8-.3,111.6,0h.8a27.81,27.81,0,0,1,27.4,28.2V152Z" transform="translate(-17.5 -33.78)" fill="#ef4836"/></svg>