<svg id="Layer_1" data-name="Layer 1" xmlns="http://www.w3.org/2000/svg" viewBox="0 0 225 225"><rect width="225" height="225" rx="85" fill="#3e4487"/><path d="M111.26,144.08" fill="#fff"/><path d="M134.39,111.2" fill="#fff"/><path d="M92.23,84.73a2.2,2.2,0,0,1,.27-1c.59-1.13,1.13-2.32,1.73-3.4.1-.16.16-.27.32-.27a.34.34,0,0,1,.32.27l.76,1.4a.21.21,0,0,1,0,.31h0a.25.25,0,0,1-.34.09A.2.2,0,0,1,95.2,82c-.11,0-.11-.11-.11-.16-.16-.27-.33-.6-.43-.81V81l-1,1.88L93.09,84a1.84,1.84,0,0,0,.75,2.49h0a1.33,1.33,0,0,0,.43.17,1.75,1.75,0,0,0,2-1.41v-.1A1.66,1.66,0,0,0,96.17,84c-.17-.32-.33-.64-.6-1.07-.1-.27-.1-.44.11-.49a.35.35,0,0,1,.43.16c.27.43.43.81.65,1.24a2.35,2.35,0,0,1-4.26,1.9,2.46,2.46,0,0,1-.25-1Z" fill="#fff"/><path d="M96.6,94.86c.59-1.13,1.13-2.31,1.72-3.39.11-.16.16-.27.33-.27a.34.34,0,0,1,.32.27l.75,1.4c.11.11.11.27,0,.32a.25.25,0,0,1-.34.09.2.2,0,0,1-.09-.09s-.1-.1-.1-.16c-.17-.27-.33-.59-.49-.81l-.11-.16-1,1.89L97,95a1.7,1.7,0,0,0,.63,2.31l.12.06a.73.73,0,0,0,.43.16,1.73,1.73,0,0,0,2-1.35V96a1.59,1.59,0,0,0-.16-1.13,11.3,11.3,0,0,0-.59-1.08c-.11-.27-.11-.43.11-.49a.33.33,0,0,1,.43.17,11.17,11.17,0,0,1,.64,1.24,2.36,2.36,0,0,1-1.07,3,2,2,0,0,1-2.32-.11,2.36,2.36,0,0,1-1.08-2.07C96.38,95.5,96.44,95.19,96.6,94.86Z" fill="#fff"/><path d="M104.9,89.37a2.2,2.2,0,0,1,.27-1c.48-1.14,1.08-2.22,1.56-3.4.11-.16.16-.27.33-.27a.34.34,0,0,1,.32.27l.75,1.29c.11.11.11.27,0,.33a.34.34,0,0,1-.43.1.09.09,0,0,1-.1-.08v0c-.17-.27-.33-.6-.49-.81l-.11-.16-.91,1.88-.49,1.08a1.77,1.77,0,0,0,.81,2.32,1.31,1.31,0,0,0,.43.16,1.73,1.73,0,0,0,2-1.41h0a1.14,1.14,0,0,0-.27-1.07c-.17-.33-.44-.65-.6-1a.33.33,0,0,1,0-.45H108c.16-.11.32,0,.43.16.27.43.43.76.65,1.14a2.27,2.27,0,0,1-.92,3,2.23,2.23,0,0,1-2.32.11A3,3,0,0,1,104.9,89.37Z" fill="#fff"/><path d="M111.5,95a2.2,2.2,0,0,1,.27-1c.59-1.14,1.13-2.32,1.73-3.4.1-.16.16-.27.32-.27a.34.34,0,0,1,.32.27l.76,1.4c.1.11.1.27,0,.32a.24.24,0,0,1-.32.11.2.2,0,0,1-.11-.11s-.11-.1-.11-.16c-.16-.27-.33-.59-.43-.81l-.11-.16-1,1.89-.59,1.08a1.7,1.7,0,0,0,.63,2.31l.12.06a.67.67,0,0,0,.43.16,1.74,1.74,0,0,0,2-1.4v-.11a1.59,1.59,0,0,0-.16-1.13c-.16-.32-.33-.65-.59-1.08-.11-.27-.11-.43.1-.48a.33.33,0,0,1,.43.16A11.27,11.27,0,0,1,116,94a2.37,2.37,0,0,1-1.08,3,2,2,0,0,1-2.32-.11C111.91,96.75,111.5,95.94,111.5,95Z" fill="#fff"/><path d="M113.9,83a2,2,0,0,1,.33-1.13c.64-1.29,1.4-2.69,2-4,.11-.16.17-.32.44-.32s.32.16.43.32c.32.59.59,1.13.91,1.67a.32.32,0,0,1,0,.43.3.3,0,0,1-.42.06l-.06-.06c-.11,0-.11-.11-.11-.16l-.48-1c-.11,0-.11-.11-.17-.11l-1.13,2.21L115,82.2a2,2,0,0,0,.7,2.74l.22.11a.84.84,0,0,0,.49.16,2.09,2.09,0,0,0,2.47-1.6v-.17a1.62,1.62,0,0,0-.27-1.3A9.56,9.56,0,0,1,118,80.9a.38.38,0,0,1,0-.54h.08a.34.34,0,0,1,.45.17.17.17,0,0,1,0,.1c.27.48.49.91.76,1.4a2.9,2.9,0,0,1-1.24,3.61,2.62,2.62,0,0,1-2.77-.14A2.75,2.75,0,0,1,113.9,83Z" fill="#fff"/><path d="M123,92.33a2.2,2.2,0,0,1,.27-1c.59-1.13,1.13-2.32,1.72-3.4.11-.16.17-.27.33-.27s.27.17.32.27l.76,1.41a.22.22,0,0,1,0,.3h0a.26.26,0,0,1-.36.08h0a.3.3,0,0,1-.08-.08s-.1-.11-.1-.16c-.16-.27-.33-.6-.43-.81l-.11-.16-1,1.88-.6,1.08a1.84,1.84,0,0,0,.76,2.48,1.31,1.31,0,0,0,.43.16,1.73,1.73,0,0,0,2-1.4V92.6a1.59,1.59,0,0,0-.16-1.13,11.4,11.4,0,0,0-.6-1.08c-.1-.27-.1-.43.11-.48a.33.33,0,0,1,.43.16c.27.43.43.81.65,1.24a2.37,2.37,0,0,1-1.08,3,2,2,0,0,1-2.32-.11A2.15,2.15,0,0,1,123,92.33Z" fill="#fff"/><path d="M162.8,136.75a1.76,1.76,0,0,0-2.37.75,1.12,1.12,0,0,0-.11.25c-.81,1.46-1.56,3-2.32,4.42a8,8,0,0,1-.59.92c-1.83-2.21-3.61-4.26-5.18-6.52-7.92-10.78-13.42-22.7-17.79-35.31a3.26,3.26,0,0,1-.16-1.24V93.3a1.74,1.74,0,0,0-1.89-1.56,1.69,1.69,0,0,0-1.57,1.82v5.72H92.55V93.73a1.79,1.79,0,0,0-1.53-2h-.19c-1,0-1.67.75-1.67,2v6.36a10.25,10.25,0,0,1-.16,1.24,179.51,179.51,0,0,1-13.43,29.22,61.43,61.43,0,0,1-8.3,11.38c-.32.32-.75.65-1.13,1.08-.49-1.41-.92-2.65-1.3-3.89-.75-2-2.15-2.31-3.55-.64v1.13c.8,2.21,1.56,4.37,2.37,6.58a1.76,1.76,0,0,0,1.84,1.31H158a1.7,1.7,0,0,0,1.72-1.08c1.24-2.37,2.48-4.8,3.72-7.17a1.8,1.8,0,0,0-.66-2.46h0Zm-55.74,6.36c-.76-1.67-1.46-3.28-2.21-5a.21.21,0,0,0-.11-.16,1.69,1.69,0,0,0-2.16-.91.4.4,0,0,0-.32.16,1.68,1.68,0,0,0-.63,2.28h0c.65,1.45,1.3,3,2,4.63H70.13c0-.16,0-.27.11-.27,5.44-5.93,9.32-12.77,12.83-19.84a200.1,200.1,0,0,0,8.73-20.32,1.14,1.14,0,0,1,1.24-.92h37.31a2.15,2.15,0,0,1-.17.65c-4.36,10.51-9.05,20.92-15.31,30.51a41.84,41.84,0,0,1-7.06,8.63A3.66,3.66,0,0,1,107.06,143.11Zm23.77,1H111.26c8.73-9.81,14.07-21.4,19.57-33.26Zm3.56,0V111.25c5.12,11.76,10.94,23.08,19.57,32.83Z" fill="#fff"/></svg>