<svg id="Layer_1" data-name="Layer 1" xmlns="http://www.w3.org/2000/svg" viewBox="0 0 225 225"><rect width="225" height="225" rx="85" fill="#3e4487"/><path d="M77,102.17c0-.8.38-1.17,1.12-1.17a11.33,11.33,0,0,0,5-1,5.67,5.67,0,0,0,3.24-5.5c0-.7.32-1.12.8-1.17s.85.37.85,1.06c.1,3.88,2,5.26,4.3,6.06a10,10,0,0,0,7.13-.21,4.79,4.79,0,0,0,2.81-2.45,13,13,0,0,0,.75-3.13c.1-.75.32-1.33.85-1.33s.85.58.85,1.33a5.54,5.54,0,0,0,2.55,5,8.89,8.89,0,0,0,9.25.11,5.28,5.28,0,0,0,2.6-5c0-.8.27-1.43.86-1.43s.85.58.85,1.38a5.1,5.1,0,0,0,2.12,4.57,8.89,8.89,0,0,0,10.21.11c1.38-.85,2.12-2.45,2.18-4.63,0-1,.37-1.49.85-1.49s.8.48.85,1.49a5.6,5.6,0,0,0,2.28,4.63,9.65,9.65,0,0,0,5.8,1.48,1.21,1.21,0,0,1,1.27.8v1a4.51,4.51,0,0,1-1.43.69,11.38,11.38,0,0,1-5.59-1.17,7.81,7.81,0,0,1-3.24-3.3c-2.92,6-13.23,6-16.32.06-3,6-13.07,5.85-16.16,0-2.12,3.67-5.21,4.41-8.24,4.41s-6.16-.69-8.29-4.36H87a8.08,8.08,0,0,1-6.48,4.2,8.79,8.79,0,0,1-2.61.21C77.5,103.44,77,103.12,77,102.17Z" fill="#fff"/><path d="M76.25,113c-3.46,4-8.14,4.41-12.92,4.36a1.19,1.19,0,0,1-1.33-1v-.22c0-.69.58-1.11,1.44-1.27,2.23-.27,4.57-.43,6.8-.8a5.31,5.31,0,0,0,3.61-2.28A8.44,8.44,0,0,0,75,108.65c.21-.79.43-1.38,1.28-1.38a1.27,1.27,0,0,1,1.28,1.23v.18a5,5,0,0,0,3.34,4.82,17.86,17.86,0,0,0,13.82.11,5.27,5.27,0,0,0,3.56-5.11,1.22,1.22,0,0,1,1.07-1.27h.1a1,1,0,0,1,1.16.8v.15c.11,3.88,2.71,5.32,6,6.06a17.39,17.39,0,0,0,9.62-.31c2.07-.7,3.83-1.81,4.41-4,0-.48.21-1,.21-1.49a1.23,1.23,0,0,1,2.45-.11v.11a5.28,5.28,0,0,0,3.77,5.1,16.53,16.53,0,0,0,12.44.11,5.37,5.37,0,0,0,4-5.21,1.18,1.18,0,0,1,1-1.33h.32c.9,0,1.11.64,1.11,1.38a5.19,5.19,0,0,0,3.35,4.78,16.21,16.21,0,0,0,7.23,1.39h.59c1.17,0,1.8.37,1.8,1.17s-.58,1.27-1.75,1.27a21.72,21.72,0,0,1-7.87-1.17,9.2,9.2,0,0,1-4.41-3.29c-4.15,6-18.29,6-22.59.1a16.44,16.44,0,0,1-22.54,0C93.2,119,82.09,119,76.25,113Z" fill="#fff"/><path d="M163,130.18c0,.8-.48,1.28-1.49,1.28a16.56,16.56,0,0,1-6.75-1.17,8.51,8.51,0,0,1-3.83-3.24c-3.51,6-15.57,6-19.24.1-5.42,6-13.87,6-19.19,0-5.32,6-14.72,6-19.67,0-2.92,4-6.86,4.41-11,4.36-.64,0-1.12-.37-1.12-1.28A1.27,1.27,0,0,1,81.83,129h0c1.91-.27,3.88-.43,5.8-.8a4.61,4.61,0,0,0,3.13-2.28,10.86,10.86,0,0,0,1-3.09c.1-.79.37-1.38,1.06-1.38s1.06.64,1.06,1.44a5,5,0,0,0,2.88,4.78,13.08,13.08,0,0,0,11.74.11,5.24,5.24,0,0,0,3-5.11c0-.74.37-1.27,1-1.27a.94.94,0,0,1,1,.85v.1c.11,3.88,2.29,5.32,5,6.06a12.64,12.64,0,0,0,8.19-.31,5.59,5.59,0,0,0,3.77-4,7.53,7.53,0,0,1,.21-1.49c.06-.75.43-1.17,1.07-1.17s.95.48,1,1.27a5.27,5.27,0,0,0,3.19,5.11,12.31,12.31,0,0,0,10.57.1,5.29,5.29,0,0,0,3.35-5.21c0-.79.38-1.38,1.12-1.33s1,.64,1,1.39a5.21,5.21,0,0,0,2.82,4.78,11.79,11.79,0,0,0,6.16,1.38h.48C162.5,129,163,129.33,163,130.18Z" fill="#fff"/></svg>