<svg id="Layer_1" data-name="Layer 1" xmlns="http://www.w3.org/2000/svg" viewBox="0 0 225 225"><rect width="225" height="225" rx="85" fill="#3e4487"/><path d="M112.38,61.5c-2.95,3.14-7.88,12-7.88,16.31v.1a7.86,7.86,0,0,0,7.87,7.85h0a7.87,7.87,0,0,0,7.9-7.84h0v-.06C120.28,73.56,113,60.72,112.38,61.5Zm5.12,16.41A5.14,5.14,0,0,1,112.39,83h-.16a5.14,5.14,0,0,1-5.1-5.11c0-2.79,3.06-10.8,5.37-12.41.54-.43,5,9.51,5,12.41Z" fill="#fff"/><path d="M150.1,149.7c-4,4.78-9.19,7.73-14.88,9.88A60.83,60.83,0,0,1,117,163.4c-.32,0-.7.11-1.13.16H109c-1.77-.16-3.54-.32-5.37-.59a54.37,54.37,0,0,1-21.92-7.31,45,45,0,0,1-4.2-3.06,1.38,1.38,0,0,1,1.4-2.37c.1.11.26.17.32.27,5.69,4.95,12.52,7.58,19.82,9a64.82,64.82,0,0,0,33.86-1.93A34.41,34.41,0,0,0,147,149.16a15.08,15.08,0,0,0,4.78-9.94,14.37,14.37,0,0,0-3.92-10.32c-3.39-3.92-7.74-6.44-12.42-8.43a55.16,55.16,0,0,0-14.34-3.76.31.31,0,0,0-.27.1,10.87,10.87,0,0,1,.59,1.46,9.49,9.49,0,0,0,5.21,4.56,19.12,19.12,0,0,1,7.74,5.11A22.56,22.56,0,0,1,137,132a1.3,1.3,0,0,1-.48,1.72.19.19,0,0,0-.16.11,1.28,1.28,0,0,1-1.71-.58h0c0-.11-.11-.11-.11-.17a13.46,13.46,0,0,0-5.59-6,28.63,28.63,0,0,0-3.65-1.78c-4.94-2.31-7.58-6.23-7.63-11.66-.11-4.67,0-9.34,0-14a5.16,5.16,0,0,0-5-5.27,5.1,5.1,0,0,0-5.26,4.92v13.84a14.76,14.76,0,0,1-.92,5.26,12.11,12.11,0,0,1-6.71,6.88,24.53,24.53,0,0,0-6.4,3.76,3.3,3.3,0,0,0-.59.59C88.84,133.52,89,138.2,93,142a22.78,22.78,0,0,0,9.51,4.94,36.88,36.88,0,0,0,23.8-1.34,16.91,16.91,0,0,0,6.13-4.08,17.58,17.58,0,0,0,2.2-3.39c.49-.91,1.13-1.34,1.88-1.13a1.42,1.42,0,0,1,.78,1.84l-.08.16a13.51,13.51,0,0,1-5.21,6.44,28.79,28.79,0,0,1-13.11,5A39.77,39.77,0,0,1,99,148.67a22.45,22.45,0,0,1-8-4.79c-5.26-4.94-5.26-11.65.11-16.6a23.76,23.76,0,0,1,7.15-4.4,9.54,9.54,0,0,0,5.53-5.43,3.36,3.36,0,0,0,.27-.75c-1.88.32-3.55.59-5.27.91a44.25,44.25,0,0,0-17.24,7.15,21,21,0,0,0-6.45,6.82,13.06,13.06,0,0,0,.11,14.19,6.12,6.12,0,0,1,.43.69,1.37,1.37,0,0,1-.33,1.88h0a1.28,1.28,0,0,1-1.77-.26s-.11-.11-.11-.17a15.86,15.86,0,0,1-2.79-7.14c-1-5.8,1.13-10.48,4.83-14.56a37.94,37.94,0,0,1,15-9.3,62.29,62.29,0,0,1,14-3.17c0-.32.1-.7.1-1.13v-13a7.9,7.9,0,0,1,15.8-.32c.11,4.52,0,8.92,0,13.43v.92c2.36.43,4.67.75,7,1.29,7.15,1.61,13.76,4.19,19.46,8.86,3.49,2.9,6.23,6.4,7.3,10.91C155.42,140.35,153.76,145.24,150.1,149.7Z" fill="#fff"/></svg>