<svg id="Layer_1" data-name="Layer 1" xmlns="http://www.w3.org/2000/svg" viewBox="0 0 225 225"><rect width="225" height="225" rx="85" fill="#3e4487"/><path d="M63.44,79.78a1.48,1.48,0,0,1,0-2.08l.11-.11a1.47,1.47,0,0,1,2-.26.09.09,0,0,1,.1.08v0h0c1.31,1.15,2.46,2.45,3.71,3.7a2.58,2.58,0,0,1,.41,1.1c-.31.41-.57,1-1.09,1.14A2.06,2.06,0,0,1,67,83.22,27.57,27.57,0,0,1,63.44,79.78Z" fill="#fff"/><path d="M65.16,70a1.67,1.67,0,0,1,.11-2.24,1.47,1.47,0,0,1,2.06-.19l.08.08h0c2.29,2.14,4.43,4.44,6.67,6.68a7.45,7.45,0,0,1,.58,1.25,6.16,6.16,0,0,1-1.25,1.3,1.44,1.44,0,0,1-1.83-.38L66.05,71A5.86,5.86,0,0,1,65.16,70Z" fill="#fff"/><path d="M71.5,86.5a13.29,13.29,0,0,1,1.3-1.3c.47.26,1,.57,1.46.88,1.57,1.46,3.08,3.08,4.64,4.54A1.68,1.68,0,0,1,79.2,93h0a1.54,1.54,0,0,1-.17.19,1.7,1.7,0,0,1-2.38,0,1.3,1.3,0,0,1-.18-.23L71.8,88.24A1.32,1.32,0,0,1,71.5,86.5Z" fill="#fff"/><path d="M76.74,81.5a2.2,2.2,0,0,1-.24-1.77c.16-.47.84-.73,1.31-1.09a6.58,6.58,0,0,1,1.25.68A16.55,16.55,0,0,1,80.73,81a1.72,1.72,0,0,1-.42,2.3,1.56,1.56,0,0,1-1.88,0A8.25,8.25,0,0,1,76.74,81.5Z" fill="#fff"/><path d="M79.72,70A16.08,16.08,0,0,1,81,68.67c.47.27,1,.58,1.46.89,3.24,3.13,6.42,6.37,9.55,9.55a1.65,1.65,0,0,1,.31,2.29l-.16.16a1.54,1.54,0,0,1-2.17.12l-.12-.12c-.11,0-.11-.11-.16-.16-3.23-3.23-6.41-6.41-9.54-9.65A1.27,1.27,0,0,1,79.71,70Z" fill="#fff"/><path d="M89.68,68.15a1.48,1.48,0,0,1,.1-2.08h0a1.44,1.44,0,0,1,2-.32h0a.09.09,0,0,1,.1.08v0h0c1.3,1.25,2.56,2.55,3.86,3.81a2.56,2.56,0,0,1,.42,1.09c-.32.42-.58,1-1,1.15a2.27,2.27,0,0,1-1.66-.1C92.18,70.6,90.93,69.4,89.68,68.15Z" fill="#fff"/><path d="M113.67,86.41c-1.14,1.15-2.29,2.29-3.54,3.44l.1.32H119a1.67,1.67,0,0,1,1.83,1.46v.1a1.63,1.63,0,0,1-1.56,1.67H106a1.41,1.41,0,0,1-1.57-1.1,2.44,2.44,0,0,1,.42-1.72c2.09-2.24,4.28-4.38,6.41-6.52a1.64,1.64,0,0,1,2.61,2C113.93,86.15,113.78,86.2,113.67,86.41Z" fill="#fff"/><path d="M132.5,81.5c0-3.7-.1-7.51.11-11.21a5.12,5.12,0,0,1,4.64-4.54,14.32,14.32,0,0,1,3.7,0,5.3,5.3,0,0,1,4.8,5.37c-.1,3.39-.1,6.79-.1,10.23v9.91a3.68,3.68,0,0,1-.15,1,1.63,1.63,0,0,1-2.08,1h0a1.72,1.72,0,0,1-1.1-1.25V71.5c0-2-.68-2.66-2.71-2.66h-1.72a2,2,0,0,0-2.14,1.85h0V81.5a1.49,1.49,0,0,1-1.66,1.3h0a1.39,1.39,0,0,1-1.56-1.2h0v-.1S132.5,81.5,132.5,81.5Z" fill="#fff"/><path d="M72.21,108.42,110.75,70c1.46-1.46,2.09-1.46,3.55,0l38.29,38a7,7,0,0,1,.83.89,1.5,1.5,0,0,1-.13,2.12h0a1.44,1.44,0,0,1-2,.19l-.1-.09a2.52,2.52,0,0,1-.69-.61Q132,92,113.5,73.62c-.29-.32-.57-.65-.83-1-2.71,2.71-5.22,5.37-7.77,7.93-10.07,10.06-20.14,20-30.2,30.09a2.67,2.67,0,0,1-.84.73,1.64,1.64,0,0,1-2.09-.26,1.51,1.51,0,0,1-.15-2A4.3,4.3,0,0,1,72.21,108.42Z" fill="#fff"/><path d="M147.21,139.61V115.78a4.44,4.44,0,0,0-.1-1.15,1.61,1.61,0,0,0-3.18.21v26.44a1.29,1.29,0,0,1-.84,1.46,7.93,7.93,0,0,1-9.33-.67,25.52,25.52,0,0,0-3.55-2.46,10.62,10.62,0,0,0-6.21-.88V117.34c0-1.67-.57-2.24-2.24-2.24H103.24c-1.72,0-2.29.47-2.29,2.24v21.28c-4.38-.26-6.37.47-9.65,3.39a7.46,7.46,0,0,1-9,.89,2.1,2.1,0,0,1-1.15-2V113.69c0-1.25-.58-2-1.57-2a1.76,1.76,0,0,0-1.74,1.78v26.19c-5.68-2.29-10.33-.83-14.08,3.55a1.69,1.69,0,0,0-.26,2.29l.16.18a1.74,1.74,0,0,0,2.47-.16h0l.08-.09a12.37,12.37,0,0,0,1.14-1.15,8.29,8.29,0,0,1,4-2.3,7.88,7.88,0,0,1,7.25,2.25,11.05,11.05,0,0,0,15.33-.11,7.57,7.57,0,0,1,10.7-.3l.3.3c4.64,4.23,10.74,4.23,15.44,0a11.76,11.76,0,0,1,3.7-2.08c2.87-.84,5.27.26,7.41,2.24,4.07,3.86,10.64,4.22,15.44-.42a7.74,7.74,0,0,1,6.26-2.09c2.4.27,4.07,1.73,5.63,3.4,1.31,1.3,2.3,1.25,3.29-.32V144C158.17,139.09,153.37,137.11,147.21,139.61Zm-26.39-.67a1.32,1.32,0,0,1-.68,1.25c-.83.57-1.67,1.25-2.45,1.88a7.68,7.68,0,0,1-10.33,0c-.83-.73-1.72-1.31-2.55-2.09a1.13,1.13,0,0,1-.47-.84V118.33h16.48Z" fill="#fff"/><path d="M162,156.2l-.11,1.31c-1.3,1.3-2,1.3-3.28,0l-1.25-1.26a7.59,7.59,0,0,0-10.54-.15,11.56,11.56,0,0,1-7.41,3.39,11,11,0,0,1-8.4-3.24,7.65,7.65,0,0,0-6.41-2.14,8.68,8.68,0,0,0-4.8,2.46,10.71,10.71,0,0,1-8.35,2.87,11.48,11.48,0,0,1-7.09-3.4,7.53,7.53,0,0,0-9.81-.41,9.39,9.39,0,0,0-1.3,1.14,10.73,10.73,0,0,1-13,1A15.25,15.25,0,0,1,78,155.94a7.57,7.57,0,0,0-10.38.16c-.68.57-1.26,1.3-1.88,1.87a1.53,1.53,0,0,1-2.14,0l-.1-.1a1.47,1.47,0,0,1-.19-2.06l.08-.08h0c2.82-3.28,6.1-5.42,10.64-4.95A11.2,11.2,0,0,1,80.81,154a7.39,7.39,0,0,0,8.35,1.57,9.75,9.75,0,0,0,2.45-1.67c4.8-4.28,10.8-4.28,15.49,0a7.66,7.66,0,0,0,10.8,0h0c4.8-4.39,10.8-4.28,15.6,0a7.68,7.68,0,0,0,10.74.1c5.11-4.64,11.32-4.43,16.17.42C161,155.05,161.5,155.63,162,156.2Z" fill="#fff"/></svg>