<svg id="Layer_1" data-name="Layer 1" xmlns="http://www.w3.org/2000/svg" viewBox="0 0 225 225"><rect width="225" height="225" rx="85" fill="#3e4487"/><path d="M105.44,113.85a3.54,3.54,0,0,1,.55,1.33v32.39c0,1.83-.94,3.05-2.43,3.27a2.89,2.89,0,0,1-3.26-2.34c0-.28-.11-.44,0-.72V115.9a2.85,2.85,0,0,1,1.22-2.65,2.72,2.72,0,0,1,3.82.46h0Z" fill="#fff"/><path d="M117.6,122.26a5.8,5.8,0,0,1,.11,1.38v31.78a2.76,2.76,0,0,1-2.7,2.82h-.23a2.8,2.8,0,0,1-2.71-2.82V123.25c0-2,1.22-3.15,3-3A2.38,2.38,0,0,1,117.6,122.26Z" fill="#fff"/><path d="M129.43,131.88h0V147.8a2.89,2.89,0,0,1-4.75,2.37,3.16,3.16,0,0,1-.94-2.65V116a3,3,0,0,1,2.43-3.26,2.75,2.75,0,0,1,3.23,2.17v17Z" fill="#fff"/><path d="M164.87,116.56a24.81,24.81,0,0,1-10.67,18.63,21.5,21.5,0,0,1-12.2,3.93c-2.55.11-5.09,0-7.69,0v-5.81c1.94,0,3.87-.11,5.7,0,12.6.89,20.5-10.78,19.23-21.72a19.48,19.48,0,0,0-9.74-15.32.6.6,0,0,0-.33-.16c-1-.28-1.32-.89-1.32-2a23.44,23.44,0,0,0-14.7-20.61c-9.34-3.42-19.62.28-25.32,9.13a25.74,25.74,0,0,0-3.59,9.61c0,.28-.11.45-.17.89-4.64-2.54-9.17-2.82-13.48.44-4.1,3-5.7,7.46-5.37,12.44a23.52,23.52,0,0,0-4.36-1.22,12.33,12.33,0,0,0-11.23,3.93c-6.57,6.74-4.75,19,3.49,23.38a13.28,13.28,0,0,0,6.13,1.4H95.5v5.8H79.62a19.53,19.53,0,0,1-19.45-17.13,4.51,4.51,0,0,0-.17-.89v-4.53c.17-.94.44-1.94.61-2.88A19.13,19.13,0,0,1,79.4,99c.78,0,.89-.44,1-.94A18.68,18.68,0,0,1,91.23,86.71a15,15,0,0,1,7.8-1,1,1,0,0,0,1.28-.61h0a.43.43,0,0,0,0-.16c3.43-8.41,9.29-14.26,18-17,12.33-3.87,25.76,2.21,31.9,14.2a32,32,0,0,1,3,9.18,1.87,1.87,0,0,0,.78,1.16C162.27,98.38,165.75,106.5,164.87,116.56Z" fill="#fff"/></svg>