<svg id="Layer_1" data-name="Layer 1" xmlns="http://www.w3.org/2000/svg" xmlns:xlink="http://www.w3.org/1999/xlink" viewBox="0 0 1080 356"><defs><linearGradient id="linear-gradient" x1="666.17" y1="336.87" x2="666.17" y2="327.57" gradientTransform="matrix(1, 0, 0, -1, 0, 446)" gradientUnits="userSpaceOnUse"><stop offset="0" stop-color="#1bbc9b"/><stop offset="1" stop-color="#041914"/></linearGradient><linearGradient id="linear-gradient-2" x1="705.11" y1="346.29" x2="705.11" y2="286.89" xlink:href="#linear-gradient"/><linearGradient id="linear-gradient-3" x1="682.9" y1="342.02" x2="682.9" y2="329.29" xlink:href="#linear-gradient"/><linearGradient id="linear-gradient-4" x1="687.55" y1="320.9" x2="687.55" y2="315.87" xlink:href="#linear-gradient"/><linearGradient id="linear-gradient-5" x1="193.25" y1="282.1" x2="193.25" y2="185.51" xlink:href="#linear-gradient"/><linearGradient id="linear-gradient-6" x1="194.45" y1="290.3" x2="194.45" y2="265.72" xlink:href="#linear-gradient"/><linearGradient id="linear-gradient-7" x1="137.05" y1="273.24" x2="137.05" y2="256.17" xlink:href="#linear-gradient"/><linearGradient id="linear-gradient-8" x1="149.18" y1="329.16" x2="149.18" y2="309.15" xlink:href="#linear-gradient"/><linearGradient id="linear-gradient-9" x1="181.38" y1="304.6" x2="181.38" y2="285.4" xlink:href="#linear-gradient"/><linearGradient id="linear-gradient-10" x1="144.4" y1="291.21" x2="144.4" y2="277.22" xlink:href="#linear-gradient"/><linearGradient id="linear-gradient-11" x1="164.55" y1="307.46" x2="164.55" y2="286.56" xlink:href="#linear-gradient"/><linearGradient id="linear-gradient-12" x1="147.94" y1="256.01" x2="147.94" y2="244.42" xlink:href="#linear-gradient"/><linearGradient id="linear-gradient-13" x1="174.29" y1="317.35" x2="174.29" y2="301.58" xlink:href="#linear-gradient"/><linearGradient id="linear-gradient-14" x1="118.15" y1="299.61" x2="118.15" y2="288.93" xlink:href="#linear-gradient"/><linearGradient id="linear-gradient-15" x1="197.08" y1="308.53" x2="197.08" y2="294.61" xlink:href="#linear-gradient"/><linearGradient id="linear-gradient-16" x1="102.75" y1="283.14" x2="102.75" y2="273.35" xlink:href="#linear-gradient"/><linearGradient id="linear-gradient-17" x1="173.9" y1="283.29" x2="173.9" y2="269.45" xlink:href="#linear-gradient"/><linearGradient id="linear-gradient-18" x1="192.14" y1="325.67" x2="192.14" y2="310.1" xlink:href="#linear-gradient"/><linearGradient id="linear-gradient-19" x1="149.84" y1="306.18" x2="149.84" y2="292.17" xlink:href="#linear-gradient"/><linearGradient id="linear-gradient-20" x1="122" y1="283.9" x2="122" y2="274.21" xlink:href="#linear-gradient"/><linearGradient id="linear-gradient-21" x1="164.64" y1="327.6" x2="164.64" y2="311.92" xlink:href="#linear-gradient"/><linearGradient id="linear-gradient-22" x1="112.95" y1="266.17" x2="112.95" y2="256.07" xlink:href="#linear-gradient"/><linearGradient id="linear-gradient-23" x1="133.6" y1="306.61" x2="133.6" y2="295.82" xlink:href="#linear-gradient"/><linearGradient id="linear-gradient-24" x1="127.75" y1="252.38" x2="127.75" y2="242.14" xlink:href="#linear-gradient"/><linearGradient id="linear-gradient-25" x1="213.34" y1="306" x2="213.34" y2="298.32" xlink:href="#linear-gradient"/><linearGradient id="linear-gradient-26" x1="213.6" y1="290.22" x2="213.6" y2="283.67" xlink:href="#linear-gradient"/><linearGradient id="linear-gradient-27" x1="337.2" y1="289.2" x2="337.2" y2="1" gradientTransform="matrix(1, 0, 0, -1, 0, 357)" xlink:href="#linear-gradient"/><linearGradient id="linear-gradient-28" x1="807.65" y1="357" x2="807.65" y2="1" xlink:href="#linear-gradient"/><linearGradient id="linear-gradient-29" x1="433.65" y1="197" x2="433.65" y2="1" xlink:href="#linear-gradient"/></defs><title>dark_sus_1</title><g opacity="0.15"><path d="M672.9,116a10.87,10.87,0,0,0-11.9-6.8,2.39,2.39,0,0,0-1.8,1v1c.1.2.3.5.4.7,2.4,4.9,6.6,7.2,12,6.4C673,118.1,673.5,117.3,672.9,116Zm-10-4c2-.7,5.4,1.1,6.7,3.6A7,7,0,0,1,662.9,112Z" transform="translate(0 -89)" fill="url(#linear-gradient)"/><path d="M741.9,140.5a1.76,1.76,0,0,0-2-.7,7.72,7.72,0,0,1-1.5.2l-3.5.3c.8-1.8,1.7-3.3,2.4-5,2.4-5.9,3.1-12.1,3.2-18.4,0-1.8-.5-2.3-2.3-2.3a60.88,60.88,0,0,0-17.5,2.7,29.34,29.34,0,0,0-8.9,4.3,10.7,10.7,0,0,0-1.6,1.4,28,28,0,0,0-4.9-5.9c-4.4-3.8-10.8-5.8-17.3-2.5a41.45,41.45,0,0,0-8.4,6c-1.1,1-2.1,2.1-3.2,3.2v-9a3.61,3.61,0,0,1,.3-1.8,10.61,10.61,0,0,0-3.3-12.8c-1-.8-1.9-.6-2.4.5a13.43,13.43,0,0,0-1.4,5.3,11.14,11.14,0,0,0,3.5,7.9,1.39,1.39,0,0,1,.5,1,37.58,37.58,0,0,1-.4,10.6,63.66,63.66,0,0,1-4.9,15.9c-.4,1-.3,1.7.5,2.1s1.5.1,2-1c.8-2,1.6-3.9,2.4-5.9q.9-2.7,1.8-5.7a16,16,0,0,1,1.6,2.3c1.3,2.9,2.7,5.7,3.9,8.6,3.4,8.5,9.4,13.9,18.2,16.2a38.3,38.3,0,0,0,23.4-1.7c5.5-2.1,10.3-5.5,14.9-9.1,1.7-1.4,3.2-3,4.7-4.5A2,2,0,0,0,741.9,140.5ZM674.4,111c-1.8-1.5-2.5-4.6-1.6-7.4C674.7,105.2,675.3,108.3,674.4,111Zm52.8,39a36.51,36.51,0,0,1-21.1,5.7,25.13,25.13,0,0,1-16.5-5.9,23.32,23.32,0,0,1-6.3-9.5c-1.1-2.7-2.3-5.4-3.6-8a39.26,39.26,0,0,0-2.9-4.2,54.59,54.59,0,0,1,6.8-6.8,27.82,27.82,0,0,1,6.5-4.2c4.6-1.9,8.6-.8,12.4,2.1a21.53,21.53,0,0,1,5.5,6.9,2.55,2.55,0,0,0,.7,1,1.41,1.41,0,0,0,2.3-.3,14.62,14.62,0,0,1,7.8-5.6,54.64,54.64,0,0,1,17.9-3.4h.3a.35.35,0,0,0,.1.2c-.2,5.6-.9,11.1-3.1,16.3a65.51,65.51,0,0,1-3.2,5.8c-.9,1.4-.6,2.6,1.1,3,1,.2,2.1.2,3.1.3h1A61.23,61.23,0,0,1,727.2,150Z" transform="translate(0 -89)" fill="url(#linear-gradient-2)"/><path d="M686.1,104.1a10.87,10.87,0,0,0-8.5,11c0,1.3.7,1.9,2,1.6a10.79,10.79,0,0,0,8.6-10.5C688.3,104.3,687.6,103.7,686.1,104.1Zm-5.5,9.3a7.11,7.11,0,0,1,4.6-6C685.5,109.5,683.3,112.3,680.6,113.4Z" transform="translate(0 -89)" fill="url(#linear-gradient-3)"/><path d="M687.5,125.1a2.36,2.36,0,0,1,2.5,2.5,2.34,2.34,0,0,1-2.4,2.5,2.36,2.36,0,0,1-2.5-2.5A2.39,2.39,0,0,1,687.5,125.1Z" transform="translate(0 -89)" fill="url(#linear-gradient-4)"/></g><g opacity="0.15"><path d="M184.5,237c-1.6-1.6-3.3-3.2-4.9-4.9a56.68,56.68,0,0,1-4.8-5,87.89,87.89,0,0,1-7.4-9.9,63.29,63.29,0,0,1-4.8-10.2,44.42,44.42,0,0,1-2.8-16.5,127.86,127.86,0,0,1,.9-13.8c.4-3.6,1.1-7.2,1.7-10.8.1-.5.4-1.1.7-2,.2,2.8.4,5.1.6,7.4.4,4.6.7,9.3,1.3,13.9.5,3.8,1.2,7.5,1.9,11.3a29.11,29.11,0,0,0,1.6,5c.6,1.5,1.6,1.5,2.7.2a111.22,111.22,0,0,0,9.9-14.7,97.86,97.86,0,0,1,5.9-8.9c-.3,1.6-.5,3.2-.9,4.8a45.5,45.5,0,0,1-5.6,13.7,66.09,66.09,0,0,1-4.7,5.8A9.68,9.68,0,0,0,173,208c-.2,2.7,1.4,4.6,2.8,6.5,1.5,2.3,3.2,4.4,4.8,6.6,2.8,3.8,5.5,7.8,9.6,10.4a11.79,11.79,0,0,0,10.8.8c3.8-1.4,7.5-3,11.4-4.1a17.82,17.82,0,0,1,14.3,2.4c-2.3,1.9-4.4,3.7-6.6,5.4-2.3,1.9-4.7,3.7-7,5.6a31.53,31.53,0,0,1-3.3,2.2q-6,3.3-12,6.3a79.19,79.19,0,0,1-8,3.3c-3.3,1.2-6.6,2.3-9.9,3.2-2.5.7-5,1.2-7.5,1.8-2.7.6-5.3,1-8,1.6-1.6.3-2.1-.1-3-2.3a4.57,4.57,0,0,1,.5-4.5c1.6-2.3,2.8-4.8,4.2-7.3a17.23,17.23,0,0,1,6.9-7c2-1,4.2-.8,6.4-.3a3.17,3.17,0,0,0,1.6-.4A9.12,9.12,0,0,0,184.5,237Z" transform="translate(0 -89)" fill="url(#linear-gradient-5)"/><path d="M204.3,155.7c.2,6.4.2,12.6-2.8,18.4-1.4,2.7-6.7,6.8-10.8,6.1.5-1.6,1-3.2,1.6-4.8s1-3,1.5-4.6l-.6-.3c-2.5,2.1-5.1,4.3-7.7,6.5-1.8-3.9-.8-7.2.7-10.5,1.8-3.7,5-5.7,8.5-7.2,2.5-1.1,5.1-2.2,7.7-3.2A5.85,5.85,0,0,1,204.3,155.7Z" transform="translate(0 -89)" fill="url(#linear-gradient-6)"/><path d="M150.6,180.7a10.25,10.25,0,0,1-1,2.7,13.54,13.54,0,0,1-14.1,6.2c-3.3-.6-6.6-1.5-9.9-2.4-.6-.2-1.2-.5-2.1-.8.7-1,1.3-1.8,1.9-2.6,2.7-3.4,5.3-6.8,9-9.1a12.72,12.72,0,0,1,14,.4c-2.7,1.9-5.3,3.8-7.9,5.7l.3.6C143.9,181.1,147,180.9,150.6,180.7Z" transform="translate(0 -89)" fill="url(#linear-gradient-7)"/><path d="M155,134.6c-1.7-1.8-3.5-3.5-5.2-5.3-.1.1-.3.1-.4.2.2,1.2.5,2.3.7,3.5s.5,2.4.9,3.7c-2,.3-3.3-.6-4.6-1.6-3.7-2.8-4.4-6.8-4.1-11,.1-2.3.5-4.7.8-7.3,3.1,1.6,6.1,3,8.7,5.2a10.53,10.53,0,0,1,4.3,8.2,21,21,0,0,1-.5,4.3C155.4,134.5,155.2,134.6,155,134.6Z" transform="translate(0 -89)" fill="url(#linear-gradient-8)"/><path d="M178.8,160.6c.3-2.9,2.1-4.9,1.8-7.8-2,1.7-3.8,3.2-5.7,4.8-1.3-1.8-1.1-3.7-.6-5.5a9.9,9.9,0,0,1,6-6.9c2.7-1.2,5.4-2.4,8.5-3.8,0,2.2.1,4.1,0,5.9a21.49,21.49,0,0,1-2,8.2,10.58,10.58,0,0,1-4.4,4A19.43,19.43,0,0,1,178.8,160.6Z" transform="translate(0 -89)" fill="url(#linear-gradient-9)"/><path d="M154.2,163.8c-2.5-.6-4.7-1.1-7.3-1.7.7,2.8,3.8,3.4,4.7,5.7-2.6,1.7-7,1.1-9.7-1s-4.1-4.8-5.5-7.7c-.6-1.2-1.1-2.4-1.8-3.9,1.8-.1,3.4-.3,5.1-.4,3-.1,6.1-.2,8.9,1.2C151.5,157.6,153.7,159.7,154.2,163.8Z" transform="translate(0 -89)" fill="url(#linear-gradient-10)"/><path d="M168.9,158c-.7-1.2-1.3-2.3-1.9-3.4s-1.3-2-1.9-3a.75.75,0,0,0-.5.1c0,2.4-.1,4.8-.1,7.7-1.3-.8-2.4-1.1-3.1-1.8a10.42,10.42,0,0,1-2.7-11.2c.7-2.2,1.4-4.4,2.2-6.6.5-1.5,1-1.6,2.1-.6,2.6,2.4,5.2,4.7,7,7.9A10.58,10.58,0,0,1,168.9,158Z" transform="translate(0 -89)" fill="url(#linear-gradient-11)"/><path d="M138.8,199c2.9-3.2,4.9-6.9,8.9-8.5a8.15,8.15,0,0,1,7.9,1c-1.8,1.3-3.4,2.4-5.1,3.6a.9.9,0,0,0,.1.5,26.13,26.13,0,0,0,2.8,0c.8,0,1.5-.2,2.3-.2,1.5-.1,1.7.2,1,1.4-2.1,3.5-5.4,5.1-9.7,4.6a46.08,46.08,0,0,1-7.3-1.9C139.5,199.5,139.3,199.3,138.8,199Z" transform="translate(0 -89)" fill="url(#linear-gradient-12)"/><path d="M174.3,144.4v-5.6a.9.9,0,0,1-.5-.1c-.9,1.5-1.8,3-2.8,4.7a6.24,6.24,0,0,1-1.2-6.8c1.3-3.6,4.3-5.8,7.6-7.9,1.1,3.3,2.2,6.4,1.8,9.8C178.8,141.3,177,142.9,174.3,144.4Z" transform="translate(0 -89)" fill="url(#linear-gradient-13)"/><path d="M125.4,153.3c-1.9-.4-3.5-.8-5.2-1.2a1.38,1.38,0,0,0-.3.4l2.4,2.4a7.84,7.84,0,0,1,1,1.5,9.38,9.38,0,0,1-1.5.6c-3.9.5-6.5-1.4-8.3-4.7-.6-1.1-1.3-2.2-1.9-3.4a14.16,14.16,0,0,1-.7-2.2C118.5,145.7,124.2,146.8,125.4,153.3Z" transform="translate(0 -89)" fill="url(#linear-gradient-14)"/><path d="M196.3,145.9c-1.4,1.2-2.8,2.3-4.2,3.5-1.5-2.4-.1-5.9,1.5-7.5,1.8-1.9,4.2-2.7,6.6-3.7.7-.3,1.4-.4,2.2-.7a1.91,1.91,0,0,1,.3.8c-.1,3,.1,6.1-1.3,8.9a7.78,7.78,0,0,1-5.3,4.2c-.9.2-1.3-.2-.9-1.1.5-1.4,1-2.7,1.4-4.1Z" transform="translate(0 -89)" fill="url(#linear-gradient-15)"/><path d="M95.1,168.4a33.09,33.09,0,0,1,3-2.5c3.2-2.3,6.5-4.1,10.5-2.2a6.58,6.58,0,0,1,1.5,1.4c-.5.3-1,.7-1.6,1-1,.5-2.1.9-3.1,1.3a.9.9,0,0,1-.1.5c1.8.3,3.5.6,5.3,1a6.66,6.66,0,0,1-7.9,3.6,75.9,75.9,0,0,1-7.8-3.3A1.34,1.34,0,0,0,95.1,168.4Z" transform="translate(0 -89)" fill="url(#linear-gradient-16)"/><path d="M173.1,171.1c-1.4,1.1-2.8,2.3-4.3,3.5a7.18,7.18,0,0,1,2.5-8.4c2.1-1.5,4.8-2.4,7.2-3.5.2-.1,1,.5,1,.7a47.05,47.05,0,0,1-1.2,8.5c-.7,2.6-2.9,3.9-5.5,4.6-1.2.3-1.1-.6-.8-1.3.4-1.3.9-2.6,1.4-3.9C173.3,171.2,173.2,171.2,173.1,171.1Z" transform="translate(0 -89)" fill="url(#linear-gradient-17)"/><path d="M195.1,120.3c1.5,3.5,2.3,6.6,2,9.9-.2,2.4-2.6,5.4-4.8,5.7,0-1.7-.1-3.3-.1-5-.1-.1-.2-.1-.4-.2-1,1.4-2,2.9-3,4.3h-.6a20.74,20.74,0,0,1-1-3.3,7.42,7.42,0,0,1,3-7.1A62.84,62.84,0,0,0,195.1,120.3Z" transform="translate(0 -89)" fill="url(#linear-gradient-18)"/><path d="M144.3,139.8a78.31,78.31,0,0,1,7.9,3.4,7.06,7.06,0,0,1,3.5,6.8,1.27,1.27,0,0,1-.4.9,1,1,0,0,1-.9-.3l-3.3-2.4c-.1.1-.3.2-.4.3.7,1.6,1.4,3.2,2.2,4.9-1,1-2.2.3-3.1-.1a8.07,8.07,0,0,1-4.9-6.6c-.3-2.1-.6-4.1-.9-6.2C143.9,140.2,144.1,140,144.3,139.8Z" transform="translate(0 -89)" fill="url(#linear-gradient-19)"/><path d="M114,167.9c2.8-2.5,5.3-4.8,8.8-5.6,2.1-.5,5.4.5,6.6,2.3-1.7.7-3.3,1.4-5,2.2a.6.6,0,0,0,.1.4c1.8.3,3.6.5,5.5.8-1.5,3.4-5.9,4.6-9.2,3.4a20.65,20.65,0,0,1-3.4-1.5C116.3,169.3,115.3,168.6,114,167.9Z" transform="translate(0 -89)" fill="url(#linear-gradient-20)"/><path d="M167.5,118.4c2.7,5.4,3.8,13.1-2.7,15.7,0-1.9,0-3.7-.1-5.5-.2-.1-.3-.1-.5-.2l-2.7,4.5c-1.7-1.3-2.3-3.4-1.5-5.9a9.19,9.19,0,0,1,3.4-5.2C164.8,120.8,166.1,119.6,167.5,118.4Z" transform="translate(0 -89)" fill="url(#linear-gradient-21)"/><path d="M105.2,188.8c2-3,3.5-6.3,6.8-8.1a7.12,7.12,0,0,1,6.8,0l-3.9,3.6c.1.1.1.3.2.4,1.8-.3,3.7-.6,5.6-.9C119,190.5,112,190.9,105.2,188.8Z" transform="translate(0 -89)" fill="url(#linear-gradient-22)"/><path d="M140.9,146.3c-1.9-.5-3.6-.9-5.2-1.3l-.3.3c1.2,1.3,2.4,2.7,3.7,4-2.1,1.5-4,.6-6-.1-2.4-.9-3.4-2.9-4.5-4.9-.8-1.5-1.5-3-2.3-4.8,4.3-.3,8.3-.8,11.9,1.7A7,7,0,0,1,140.9,146.3Z" transform="translate(0 -89)" fill="url(#linear-gradient-23)"/><path d="M133.7,194.7c-1.3,1.2-2.6,2.3-3.8,3.5,0,.1.1.3.1.4l5.4-.9a7.28,7.28,0,0,1-7.4,6.1c-2.5,0-5.1-.5-7.9-.7,1.9-3.4,3.6-6.5,6.6-8.6A6.75,6.75,0,0,1,133.7,194.7Z" transform="translate(0 -89)" fill="url(#linear-gradient-24)"/><path d="M209.9,147.2c.7-.9,1.5-1.8,2.5-3.1-1.6.5-2.7.8-3.8,1.2-.3-4.6,4.5-5.8,9.5-5.1C216.8,146.1,213,148.9,209.9,147.2Z" transform="translate(0 -89)" fill="url(#linear-gradient-25)"/><path d="M209.8,161.8c.9-.8,1.6-1.6,2.7-2.6-1.5.2-2.6.3-3.7.5.6-3.2,2.8-4.8,9.6-3.4C216.6,161.1,213.2,163.5,209.8,161.8Z" transform="translate(0 -89)" fill="url(#linear-gradient-26)"/></g><g opacity="0.15"><polygon points="674.4 356 0 356 0 268.3 105.8 211.5 166.2 179.2 202 160 374.1 67.8 612.4 296.5 612.4 296.5 674.4 356" fill="url(#linear-gradient-27)"/><path d="M1080,178V445H535.3L589,403.6l23.4-18.1h0l33.4-25.8,2-1.5,56.8-43.8,1.9-1.5L865,190.6l4.3-3.3,8.3-6.4h0l4.1-3.1,25.1-19.4,3.5-2.7L937,135.1h0l3.9-3h0l11.3-8.7,4.9-3.8L996.6,89l14.8,15.8,3.9,4.2,46,49.1,5.1,5.5Z" transform="translate(0 -89)" fill="url(#linear-gradient-28)"/></g><path d="M665.3,445H531.7c-20.9-20.7-81.5-68.6-192.1-64.7C199.9,385.3,202,250.9,202,249c13.9,97,142.8,97.2,142.8,97.2C453,354.4,534,379.6,589,403.6,626.2,419.8,651.5,435.5,665.3,445Z" transform="translate(0 -89)" opacity="0.15" fill="url(#linear-gradient-29)" style="isolation:isolate"/></svg>