<?xml version="1.0" encoding="utf-8"?>
<!-- Generator: Adobe Illustrator 24.3.0, SVG Export Plug-In . SVG Version: 6.00 Build 0)  -->
<svg version="1.1" id="Layer_1" xmlns="http://www.w3.org/2000/svg" xmlns:xlink="http://www.w3.org/1999/xlink" x="0px" y="0px"
	 viewBox="0 0 225 225" style="enable-background:new 0 0 225 225;" xml:space="preserve">
<style type="text/css">
	.st0{fill:#FFFFFF;}
</style>
<path class="st0" d="M96.9,147.8c-6.6,9-17.7,14.8-26.6,12.7c0.1-0.3,0.3-0.5,0.5-0.8L81.4,145c0.3-0.4,0.6-0.8,1.2-0.4
	c4.2,1.8,8.7,2.8,13.3,3C96.2,147.6,96.5,147.7,96.9,147.8z"/>
<path class="st0" d="M155.8,84.6l-11.3,3.8V78.2C149.1,78.9,153.1,80.4,155.8,84.6z"/>
<path class="st0" d="M140,0H85C38.1,0,0,38.1,0,85v55c0,46.9,38.1,85,85,85h55c46.9,0,85-38.1,85-85V85C225,38.1,186.9,0,140,0z
	 M109.3,63.4c0-1.1,0.9-2,2-2c1.1,0,2,0.9,2,2c0,1.1-0.9,2-2,2c-1,0.1-1.9-0.7-2-1.8V63.4z M158.4,88.1c-4.6,1.5-9,3-13.6,4.5
	c-0.6,0.1-1,0.6-0.9,1.2c-0.4,6.2-0.9,12.4-1.2,18.6c-0.2,5.3-0.9,10.5-3.5,15.3c-3.7,6.8-9.3,11.5-16.2,14.8
	c-6.2,3-13,4.7-19.9,5.1c-0.7,0.1-1.4,0.5-1.8,1.1c-4.8,6.7-10.5,12-18.4,14.8c-2.3,0.6-4.5,1.2-6.9,1.7h-4.4
	c-1.8-0.4-3.4-0.8-5.1-1.3c-2.2-0.7-2.6-2-1.2-3.9L81,138.5c0.2-0.3,0.4-0.6,0.5-0.8c-2.3-0.7-4.8-1.4-7.1-2.3
	c-2.6-1-4.8-2.8-6.4-5.1c-1.3-1.9-0.8-3.4,1.6-3.9c4-0.8,7.7-2.4,10.5-5.4c0.2-0.2,0.4-0.5,0.6-0.7c-1-0.3-2-0.7-3-1.2
	c-1.7-1-3.4-2.1-5-3.2c-0.8-0.7-1.5-1.6-1.9-2.5c-1.3-2.4-1.1-4.3,2.4-4.6c2.8-0.3,5.6-0.8,8.4-1.6c4.9-1.3,8.6-4.4,11.7-8.3
	c2-2.7,4.5-5.2,7.2-7.2c0.3-0.1,0.4-0.4,0.4-0.7c0.6-5.3,2.1-10.5,4.5-15.3c-2-1.6-4.2-2.8-6.6-3.8c-0.4-0.2-0.8-0.3-1.2-0.4
	c-0.2-0.1-0.4-0.2-0.6-0.3c-0.9-0.7-1-2-0.3-2.8c0.9-1.1,1.9-2,3-2.8c0.9-0.6,1.8-1.1,2.8-1.5c0.3-0.1,0.6-0.2,0.8-0.2
	c0.7,0,1.5,0.4,1.9,1c0.5,1,0.1,2.2-0.9,2.7c-0.7,0.4-1.4,0.7-2.2,1.2c0.2,0.2,0.5,0.4,0.8,0.6c2.1,1.2,4.1,2.6,6,4
	c1.3,0.9,1.4,1.8,0.6,3.3c-1.8,3.5-3.2,7.3-4,11.2c-0.1,0.4-0.2,0.8-0.3,1.3c1-0.3,1.9-0.5,2.7-0.7c11.9-2.6,25,5.9,23.6,20.9
	c-0.3,3.6-1.4,7.1-3.3,10.2c-0.7,1.4-2,1.8-3,1.2c-1-0.6-1.2-1.8-0.4-3.1c2.5-4.5,3.6-9.1,2.4-14.2c-1.9-7.2-8.8-11.9-16.2-11.2
	c-5.5,0.5-9.6,3.3-13.1,7.2c-1.8,2.3-3.8,4.5-6,6.5c-4,3.6-9,5.8-14.3,6.5l-2,0.3l-0.2,0.2c0.3,0.2,0.5,0.5,0.9,0.8
	c2.3,1.9,5.2,2.9,8.2,2.8c0.8-0.1,1.6,0.3,2,1c0.4,0.8,0.3,1.7-0.3,2.4c-3.3,4.5-7.2,8-12.6,9.6c-0.2,0.1-0.4,0.2-0.6,0.3
	c2,1.6,4.3,2.7,6.8,3.2c3.5,0.6,7.2,0.8,10.8,0.4c6.6-0.2,13.1-1.5,19.2-3.9c1-0.5,2-0.8,3-1.4c1.3-0.5,2.5-0.3,3,0.9v0.1
	c0.4,1,0,2.2-1,2.6c-0.1,0.1-0.1,0.1-0.2,0.1c-5.5,2.7-11.4,4.4-17.5,5.1c-3.2,0.4-6.5,0.4-9.8,0.7c-0.5,0.1-1,0.4-1.3,0.7
	c-0.6,0.7-1.2,1.6-1.9,2.6c2.4,0.6,4.5,1.4,6.7,1.8c12,1.9,23.4,0.2,33.9-6.2c6.5-3.9,11.1-9.3,12.8-16.7c0.4-2,0.7-4.1,0.8-6.1
	c0.5-8.1,1-16.2,1.6-24.3c0.4-4.3,0.8-8.7-0.3-13c-1.9-7-7-11.4-14.5-12.1c-1.7-0.2-3.6-0.2-5.4-0.3c-1.5,0-2.4-0.8-2.4-2
	c0-1.2,0.8-2,2.4-2.1c4.6-0.3,9.1,0.6,13.3,2.4c4.5,2.1,8,5.9,9.7,10.6c0.2,0.7,0.8,1.2,1.5,1.2c4.5,0.3,8.9,2,12.2,5.1
	c1.7,1.5,2.9,3.5,3.5,5.7C160.6,86.7,160.1,87.5,158.4,88.1z M130.3,78v-0.3c0-1.1,0.9-2.1,2.1-2.1s2.1,0.9,2.1,2.1v0
	c0,1.1-0.8,2-1.9,2.1C131.4,80,130.4,79.1,130.3,78z M123.1,125.3c0,1.1-0.9,2-2,2c-1.1,0-2-0.9-2-2c0-1.1,0.9-2,2-2
	C122.2,123.3,123.1,124.2,123.1,125.3z"/>
</svg>
