<?xml version="1.0" encoding="utf-8"?>
<!-- Generator: Adobe Illustrator 24.3.0, SVG Export Plug-In . SVG Version: 6.00 Build 0)  -->
<svg version="1.1" id="Layer_1" xmlns="http://www.w3.org/2000/svg" xmlns:xlink="http://www.w3.org/1999/xlink" x="0px" y="0px"
	 viewBox="0 0 225 225" style="enable-background:new 0 0 225 225;" xml:space="preserve">
<style type="text/css">
	.st0{fill:#FFFFFF;}
</style>
<polygon class="st0" points="85.9,76.6 82.2,74.8 85.8,68.2 85.9,68.3 "/>
<path class="st0" d="M86,80.8L86,93c-6.4-0.1-9.1-8.5-5-15.3c1.6,0.8,3,1.5,4.6,2.3C85.9,80.2,86,80.5,86,80.8z"/>
<polygon class="st0" points="96.1,81.1 89.5,85.1 89.5,68.2 89.8,68.1 "/>
<path class="st0" d="M89.3,93.2v-3.8c0-0.2,0.1-0.5,0.3-0.6c2.3-1.4,4.5-2.7,6.8-4C97,88.3,93.4,92.6,89.3,93.2z"/>
<path class="st0" d="M133.2,80.4c-0.2-0.3-0.3-0.6-0.4-1l0,0c1.8-3.8,3.5-7.5,5.4-11.2l0.3,0.2v16.2c-0.3-0.1-0.5-0.3-0.8-0.5
	C136.3,82.7,134.7,81.6,133.2,80.4z"/>
<path class="st0" d="M138.6,93c-4.2-0.2-8-5.5-6.8-9.8l3.6,2.9c0.3,0.3,0.6,0.5,1,0.8C138.8,89,139.1,89.5,138.6,93z"/>
<polygon class="st0" points="142.1,68.2 142,68.2 142,68.2 "/>
<path class="st0" d="M142.1,76.5v-8.3l0.1-0.1c1.2,2.1,2.3,4.3,3.5,6.5L142.1,76.5z"/>
<path class="st0" d="M148.7,87.2L148.7,87.2c-1,3.1-3.6,5.5-6.8,6.2V81.2c-0.1-0.6,0.2-1.1,0.8-1.3c1.4-0.6,2.8-1.4,4.3-2.1
	C148.2,80.8,149.8,83.7,148.7,87.2z"/>
<path class="st0" d="M140,0H85C38.1,0,0,38.1,0,85v55c0,46.9,38.1,85,85,85h55c46.9,0,85-38.1,85-85V85C225,38.1,186.9,0,140,0z
	 M137.2,165h-0.6c-0.8-0.3-1.3-1-1.4-1.8c-0.5-2-1.6-3.7-3.2-4.9c-1.9-1.6-4-3.1-6.1-4.5c-2.4-1.6-4.9-2.9-7.3-4.4
	c-1.2-0.7-1.3-1.8-0.6-2.5c0.5-0.6,1.4-0.7,2-0.3c4.6,2.7,9.3,5.1,13.4,8.6c2.4,1.8,4.1,4.4,5,7.2
	C138.7,163.8,138.5,164.3,137.2,165z M152.1,86.2c0,0.2-0.1,0.4-0.2,0.5c-0.8,4.4-3.9,8-8.2,9.5c-0.7,0.2-1.3,0.4-2,0.5v2.5
	c0,0.2-0.1,0.5-0.1,0.8v1.2c-0.5,0.7-1.5,1.1-2.4,1h-18.5c0.3,0.3,0.6,0.5,1,0.7c2.8,1.9,4.9,4.3,5.6,7.9c0.8,3.1-0.2,6.3-2.7,8.3
	c-1.8,1.5-3.9,2.7-5.8,4.2c-1.8,1.2-3.5,2.5-5.2,3.9c-2.6,2.3-4,5.7-3.5,9.2c0.2,2.2,1.5,3.9,3.1,5.5c0.4,0.4,1,0.9,1.4,1.3
	c0.4,0.3,0.6,0.8,0.6,1.3c0,0.4-0.1,0.7-0.4,1.1c-0.3,0.3-0.7,0.5-1.2,0.5c-0.4,0-0.8-0.1-1.1-0.4c-8.2-6.5-6.8-14.8-1.8-20.1
	c1.8-1.8,3.7-3.3,5.8-4.7c1.5-1.3,3.3-2.2,4.9-3.4c3.9-2.7,3.3-6.6,1.3-9.3c-1.7-2.1-4.1-3.6-6.7-4.3c0.4,1.3,0.7,2.7,1,4
	c0.6,3.3-0.8,6.6-3.6,8.3c-2.4,1.6-5,3-7.7,4.1c-4.6,2.1-9.4,4-14.1,6c-3.5,1.5-6.8,3.6-9.6,6.1c-4.8,4.4-6.6,10.1-6.4,16.5
	c0.2,4.9,2.2,9.5,5.5,13c1.3,1.4,1.3,2.3-0.3,3.3h-0.7c-2.4-2.1-4.3-4.7-5.5-7.6c-5.1-11.3-0.9-24.7,9.8-31c5.1-3,10.5-5.5,16-7.6
	c2.9-1.2,5.6-2.4,8.5-3.7c1.1-0.5,2.1-1.2,3-1.9c2.4-1.7,3.1-5,1.5-7.6c-0.9-1.3-2-2.4-3.2-3.4c-0.4-0.3-0.9-0.4-1.3-0.3H88.7
	c-1.8,0-2.5-0.5-2.5-1.7c0-0.4,0-0.8-0.1-1.2v-2.2c-1.4-0.5-2.8-1-4.1-1.7c-5.5-3.2-7.5-8.9-5.3-15.2c2.2-5.5,4.9-10.9,8-16
	c0.5-1,1.2-1.9,1.8-2.9c0.4-0.8,1.3-1.1,2.1-0.8c0.3,0.2,0.6,0.5,0.8,0.8c3.8,6,7,12.2,9.6,18.8c1.7,3.9,1.2,8.4-1.3,11.8
	c-1.9,2.5-4,3.7-8.1,4.9v1.9h49.1v-1.9c-2.7-0.4-5.2-1.7-7.1-3.7c-3.1-3.4-4.2-7.1-2.9-11.5c1.6-4.9,3.8-9.6,6.4-14
	c1.2-2.1,2.5-4.2,3.7-6.2c0.4-0.8,1.4-1.2,2.2-0.9c0.4,0.1,0.7,0.5,0.9,0.9c3.7,5.9,6.9,12.1,9.5,18.5c0.5,1.3,0.8,2.6,0.8,4V86.2z"
	/>
</svg>
