<?xml version="1.0" encoding="utf-8"?>
<!-- Generator: Adobe Illustrator 24.3.0, SVG Export Plug-In . SVG Version: 6.00 Build 0)  -->
<svg version="1.1" id="Layer_1" xmlns="http://www.w3.org/2000/svg" xmlns:xlink="http://www.w3.org/1999/xlink" x="0px" y="0px"
	 viewBox="0 0 225 225" style="enable-background:new 0 0 225 225;" xml:space="preserve">
<style type="text/css">
	.st0{fill:#FFFFFF;}
</style>
<path class="st0" d="M107.6,146c0.1,0.3,0.2,0.7,0,1c-0.2-0.3-0.4-0.6-0.7-0.9c-2.1-3.6-4-7.3-5.8-11.1c-2-5-1.7-10.7,1-15.5
	c0.3-0.4,0.5-0.9,0.9-1.5c0.3,1.9,0.6,3.5,0.9,5.1c0.8,4.2,1.9,8.4,2.7,12.6C107.2,139.1,107.3,142.6,107.6,146z"/>
<path class="st0" d="M119.3,110.8c-0.1,5.6-0.9,11.1-2.4,16.5v0c-1.8,6.9-2.6,13.9-2.5,21v10.3h-3.2v-1.2c-0.1-4,0-8.1-0.1-12.1
	c-0.2-7-1.3-14-3.1-20.8c-1.1-4.4-1.7-8.9-1.7-13.5c0-4.5-0.1-9,0-13.5c-0.1-3.8,0.5-7.5,1.7-11.1c0.5-1.3,1.2-2.5,2.1-3.6
	c1.7-2.1,3.9-2,5.6,0c1.1,1.4,1.9,3,2.4,4.7c0.9,3.3,1.3,6.6,1.3,10V110.8z"/>
<path class="st0" d="M122.1,118c1.4,2.1,2.4,4.5,2.8,7l0,0c0.8,4.1,0.2,8.3-1.7,12c-1.6,3.1-3.4,6.2-5.1,9.2
	c-0.1,0.2-0.3,0.3-0.5,0.7C117.4,136.8,120.5,127.7,122.1,118z"/>
<path class="st0" d="M140,0H85C38.1,0,0,38.1,0,85v55c0,46.9,38.1,85,85,85h55c46.9,0,85-38.1,85-85V85C225,38.1,186.9,0,140,0z
	 M150.3,115.9c-0.2,1-1,1.5-2.2,1.2c-4.6-0.9-9.3,0.2-13,3c-1,0.8-1.7,0.7-2.7-0.3l-9.1-9.1l-1-0.9v3.1c0,0.3,0.1,0.5,0.3,0.7
	c4.4,4.4,5.9,9.9,5.7,15.9c-0.2,3.6-1.2,7.1-3.1,10.2c-2.1,3.6-4.1,7.2-6.3,10.8c-0.1,0.1-0.1,0.3-0.3,0.5l7-2
	c0.3-0.1,0.7-0.2,1.1-0.3c0.8-0.2,1.7,0.3,1.9,1.1c0.1,0.1,0.1,0.2,0.1,0.3c0.6,3.3,1.1,6.7,1.7,10c0,0.8-0.4,1.5-1.2,1.9h-1
	c-0.8-0.5-1.3-1.3-1.3-2.3c-0.3-2.4-0.7-4.8-1.1-7.2c-2.7,0.8-5.2,1.5-7.9,2.3c-0.3,0.1-0.5,0.4-0.6,0.7v6.4h-10
	c0-2.1,0.1-4.3,0-6.4c-0.1-0.3-0.3-0.6-0.6-0.7c-2.5-0.8-5.2-1.6-7.8-2.3c-0.1,0.3-0.2,0.6-0.3,0.9c-0.3,2.1-0.7,4.2-1,6.3
	c-0.2,1-0.3,1.9-1.3,2.3h-0.9c-0.9-0.5-1.3-1.5-1-2.5c0.6-2.9,1-5.8,1.5-8.7c0.3-1.8,1-2.2,2.8-1.7l6.3,1.7c0.2,0.1,0.6,0.2,0.9,0.3
	c-1.3-2.2-2.7-4.3-3.9-6.4c-1.7-3.1-3.7-6.2-4.7-9.7c-2-6.5-0.9-13.5,3-19.1c0.2-0.4,0.5-0.7,0.8-1c1.7-1.2,1.5-2.9,1.2-4.7
	c-0.3,0.3-0.6,0.5-0.8,0.7l-9.1,9.1c-1.1,1.1-1.7,1.1-3,0.3c-3.5-2.6-8-3.7-12.4-2.8c-0.2,0-0.5,0.1-0.7,0.1
	c-0.8,0.1-1.6-0.5-1.8-1.3c-0.2-0.8,0.3-1.6,1.1-1.9H76c1.3-0.3,2.6-0.4,3.9-0.5c3.6-0.1,7.2,0.8,10.3,2.7l1,0.6
	c0.2-0.4,0.6-0.8,0.9-1.1c3.3-3.3,6.7-6.7,10-10.1c0.4-0.3,0.6-0.8,0.6-1.3c0.1-2.8,0-5.4,0.1-8.1c0.1-0.5-0.2-1.1-0.7-1.2
	c-4.1-1.9-8.3-3.7-12.7-5.7c-1.8-0.8-2-2.1-0.4-3.4l6.5-5c-0.9-0.9-1.8-1.7-2.7-2.7c-0.9-0.9-1.8-1.8-2.6-2.6c0,0-0.1-0.1-0.1-0.1
	c-0.6-0.6-0.5-1.6,0.1-2.2c0.3-0.3,0.7-0.5,1.1-0.5c0.4,0,0.8,0.2,1.1,0.4l0.1,0.1c2.2,2.1,4.5,4.4,6.6,6.6c0.6,0.6,0.7,1.6,0.1,2.2
	c-0.1,0.1-0.2,0.2-0.3,0.3c-1.6,1.4-3.1,2.6-4.8,3.9l-1.1,1l10.2,4.3c0.4-2.1,1-4.2,1.6-6.3c0.7-2.6,2.2-4.8,4.3-6.5
	c0.2-0.2,0.3-0.5,0.3-0.8c-0.3-2.2-1.1-4.4-2.3-6.3c-0.8-1.2-2.1-2.1-3.5-2.4c-4.1-1-8.3-2.1-12.3-3.3c-0.8-0.1-1.4-0.8-1.4-1.7
	c0-0.7,0.5-1.3,1.1-1.4c0.4-0.1,0.8,0,1.1,0.1c4.2,1.1,8.5,2.2,12.8,3.4c2.3,0.6,4.2,2.2,5.2,4.3c0.9,1.9,1.6,3.9,2.3,6
	c0.1,0.4,0.3,0.8,0.5,1.1c0.1-0.3,0.2-0.7,0.3-1c0.7-3.1,1.7-5.9,3.9-8.2c1.1-1.1,2.5-1.9,4-2.2c4-1,7.9-2,11.8-3.1
	c1.5-0.4,2.4-0.2,2.7,0.8s-0.3,1.9-1.8,2.3c-4,1.1-8,2.1-12.1,3.2c-1.3,0.3-2.4,1.1-3.1,2.1c-1.3,1.9-2.2,4.1-2.5,6.4
	c-0.1,0.3,0,0.6,0.3,0.8c2.9,2.1,4,5.2,4.9,8.5c0.4,1.4,0.6,2.8,0.9,4.4l10.5-4.5l-5-4.1c-0.4-0.2-0.8-0.5-1.1-0.8
	c-0.7-0.5-0.9-1.5-0.4-2.2l0.3-0.3c2.1-2.1,4.3-4.4,6.5-6.5c0.6-0.6,1.6-0.7,2.2-0.1l0.1,0.1l0.1,0.1c0.3,0.3,0.4,0.7,0.4,1
	c0,0.4-0.2,0.8-0.5,1.1l-4.5,4.5l-0.7,0.7l5.3,4.2c0.4,0.3,0.8,0.7,1.2,1c1.2,1.1,1.1,2.4-0.4,3.1c-3.1,1.4-6.3,2.8-9.4,4.2
	c-1.2,0.5-2.4,1-3.6,1.5c-0.4,0.1-0.7,0.5-0.7,1c0.1,2.8,0,5.6,0.1,8.3c0,0.4,0.1,0.8,0.4,1.1c3.7,3.8,7.4,7.6,11.2,11.3
	c1-0.5,2-1,3.1-1.6c3.6-1.6,7.6-2,11.5-1.2C150,114.5,150.6,115.2,150.3,115.9z"/>
</svg>
