<?xml version="1.0" encoding="utf-8"?>
<!-- Generator: Adobe Illustrator 24.3.0, SVG Export Plug-In . SVG Version: 6.00 Build 0)  -->
<svg version="1.1" id="Layer_1" xmlns="http://www.w3.org/2000/svg" xmlns:xlink="http://www.w3.org/1999/xlink" x="0px" y="0px"
	 viewBox="0 0 225 225" style="enable-background:new 0 0 225 225;" xml:space="preserve">
<style type="text/css">
	.st0{fill:#FFFFFF;}
</style>
<g>
	<path class="st0" d="M119.8,116.6c2.2,3.1,1.5,7.4-1.6,9.6c-1.1,0.8-2.4,1.2-3.7,1.3c-1.3,0-1.8,0.5-2,1.7
		c-0.9,5.1-5.1,7.7-10.1,6.5c-2.2-0.5-4.1-1.7-5.6-3.5c-1.3-1.5-2.2-1.5-3.5,0c-1.7,2-4,3.3-6.6,3.6c0.3-1.5,0.7-2.9,1.1-4.3
		c2.1-5.8,6.7-10.3,12.5-12.5c0.2-0.1,0.5-0.2,0.7-0.3h0.1c0.9-0.3,1.4-1.2,1.2-2.1c-0.2-0.9-1.2-1.5-2.1-1.2
		c-0.1,0-0.3,0.1-0.4,0.2c-4.3,1.5-8.2,4.1-11.1,7.7l-1,1.1c0.3-2.3,0.4-4.3,0.7-6.3c0.4-2.6,0.9-5.2,1.1-7.7
		c0.2-1.5,0.8-2.8,1.8-3.9c2.6-3.2,5.8-5.9,9.3-8c0.3-0.2,0.6-0.4,0.9-0.6c0.7-0.5,0.9-1.5,0.4-2.2c-0.3-0.5-0.8-0.8-1.4-0.8
		c-0.3,0-0.5,0.1-0.8,0.2c-1.2,0.7-2.4,1.4-3.5,2.2c-1.6,1.1-3,2.3-4.8,3.7c0.6-2,1.1-3.7,1.7-5.4c1.5-4.8,3.7-9.2,6.8-13.2
		c0.1-0.1,0.2-0.3,0.3-0.4c0.5-0.8,0.3-1.9-0.5-2.4c-0.8-0.5-1.8-0.3-2.3,0.5l-0.1,0.1l-0.1,0.1c-2.4,3-4.4,6.4-5.8,10
		c-2.8,7-4.7,14.3-5.8,21.8c-0.4,2.3-0.6,4.5-1,7.1c-0.3-0.4-0.5-0.8-0.6-1.2c-0.8-2.5-1.6-4.9-2.4-7.4c-0.1-0.1-0.1-0.2-0.1-0.3
		c-0.1-0.9-0.8-1.6-1.7-1.6c0,0-0.1,0-0.2,0h-0.3c-0.9,0.2-1.5,1.1-1.2,2c0.8,4.7,2.2,9.1,5.3,12.7c0.4,0.5,0.6,1.1,0.5,1.7
		c-0.3,3.2-0.5,6.4-0.7,9.6c0,0.4,0,0.8,0,1.1c-3.1-0.3-5.8-2.2-7.3-4.9c-0.6-1.1-1.7-1.9-2.9-2.1c-3.6-0.9-5.9-4.5-5-8.2
		c0.2-0.9,0.6-1.8,1.2-2.5c0.6-0.7,0.9-1.3,0.9-1.7c0-0.6-0.5-1.1-1.5-1.7c-0.2-0.1-0.5-0.3-0.7-0.4c-2.1-1.7-2.5-4.8-0.8-7l0.1-0.1
		c0.6-0.8,0.9-1.3,0.9-1.7c0-0.5-0.4-1-1.3-1.7c-2.9-2.5-3.3-6.8-0.9-9.7c1.2-1.5,2.9-2.4,4.8-2.6c1.5-0.1,1.9-0.5,2.1-2
		c0-0.5,0.1-1.1,0.3-1.5c1-2.6,3.9-3.9,6.5-3c0.7,0.3,1.6,0.2,2.2-0.4c0.5-0.6,0.5-1.5,0.1-2.1c-1.1-2.1-0.3-4.7,1.7-5.8
		c1.2-0.6,2.6-0.7,3.8-0.1c1.7,0.6,2.8-0.2,2.6-2c-0.4-1.8,0.4-3.7,2-4.7c1.6-0.9,3.3-0.6,5.1,0.6c0.6,0.4,1.3,0.5,1.9,0.4
		c0.9-0.2,1-1,1.1-1.9c0-0.3,0.1-0.7,0.3-1c0.7-1.7,2.7-2.5,4.4-1.8c1.1,0.4,1.8,1.4,2,2.5c0.4,1.9,1.3,2.4,3.1,1.5
		c0.3-0.2,0.6-0.3,0.9-0.4c3-1.2,6.5,0.3,7.7,3.3c0.3,0.9,1.1,1.5,2,1.5c0.1,0,0.3,0,0.4,0h0.8c4.2-0.2,7.8,3.1,8,7.4
		c0.2,4.2-3.1,7.8-7.4,8c-0.2,0-0.4,0-0.5,0l-0.2-0.1h-1c-0.9,0.2-1.5,1-1.4,1.9c0.1,0.5,0.4,1,0.9,1.2c0.3,0.1,0.7,0.2,1,0.3
		c2.8,0.9,4.7,3.5,4.8,6.4c0.1,2.8-1.5,5.3-4,6.5c-1.5,0.7-1.7,1.1-1.3,2.7c0.4,1.6,0,3.4-1.1,4.7
		C118.9,114.8,118.9,115.3,119.8,116.6z"/>
	<path class="st0" d="M147.7,122.5c4.5,3.9,9.8,2.7,12.4-2.2C156.2,116.7,150.7,117.2,147.7,122.5z M147.7,122.5
		c4.5,3.9,9.8,2.7,12.4-2.2C156.2,116.7,150.7,117.2,147.7,122.5z M138.3,93c1,6.3,6.3,8.2,10.6,6.5C148.3,93.9,143.5,91,138.3,93z
		 M147.7,122.5c4.5,3.9,9.8,2.7,12.4-2.2C156.2,116.7,150.7,117.2,147.7,122.5z M147.7,122.5c4.5,3.9,9.8,2.7,12.4-2.2
		C156.2,116.7,150.7,117.2,147.7,122.5z M138.3,93c1,6.3,6.3,8.2,10.6,6.5C148.3,93.9,143.5,91,138.3,93z M140,0H85
		C38.1,0,0,38.1,0,85v55c0,46.9,38.1,85,85,85h55c46.9,0,85-38.1,85-85V85C225,38.1,186.9,0,140,0z M163.8,78.7v1.8
		c-0.6,0.6-1.4,0.9-2.3,0.9h-21c-1.3,0-2-0.5-2.2-1.5c-0.2-0.9,0.4-1.8,1.3-1.9h0.1c0.1-0.1,0.2-0.1,0.3-0.1h21.4
		C162.3,77.8,163.2,78.1,163.8,78.7z M150.5,102.7c-1.7,0.4-3.2,0.7-4.9,1c-4.7-0.1-8.8-3.3-10.1-7.8c-0.3-1.1-0.6-2.3-0.7-3.5
		c-0.2-1.1,0.5-2.2,1.6-2.5c2.6-1,5.5-1.2,8.2-0.6c3,0.7,5.5,2.9,6.6,5.7c0.6,1.4,1,2.9,1.3,4.5c0,0.2,0.1,0.3,0.1,0.5
		C152.8,101.3,151.8,102.5,150.5,102.7z M136.8,67.5h12.9c1.4,0,2.1,0.7,2.1,1.7c0,1.1-0.8,1.7-2.2,1.7h-12.8
		c-1.3,0-2.1-0.6-2.1-1.7C134.8,68.2,135.5,67.5,136.8,67.5z M151.4,108.7c1.3,0,2.2,0.7,2.2,1.7c0,1.1-0.8,1.7-2.1,1.7h-17.9
		c-1.4,0-2.1-0.6-2.2-1.7c0-1.1,0.8-1.7,2.2-1.7H151.4z M115.6,131.6c-1.7,6.3-8.7,10.2-16.4,6.9c-1.4-0.7-2.8-1.6-4.1-2.5
		c-1.5,0.9-3,1.8-4.7,2.7c-1,0.3-2,0.6-3,0.9c-0.3,0.1-0.8,0.5-0.8,0.8v21.7c-1.4,0.8-2.5,0.9-3.6-0.1v-22.4
		c-3.4-0.4-6.5-2.1-8.7-4.7c-1.2-1.1-2.6-2.1-3.9-3c-5.1-2.4-7.3-8.4-5-13.6l0.1-0.2c0,0,0.1-0.1,0.1-0.1c0.1-0.2,0.1-0.4,0.1-0.5
		c0-0.3-0.2-0.7-0.5-0.8c-2.9-2.9-3.2-6.4-1.2-10.7c-1.3-1.3-2.2-3-2.6-4.8v-0.1c-1.4-5.5,2-11.1,7.5-12.5c0.5-0.1,1-0.5,1.1-1
		c1-3.4,3.9-5.8,7.4-6.1c0.3,0,0.5-0.1,0.9-0.1c-0.2-2.3,0.6-4.5,2.2-6.2c1.7-1.6,4-2.5,6.3-2.2c0.3-2.4,1.8-4.6,3.9-5.8
		c2.1-1.3,4.7-1.4,7-0.4c0.9-2.1,2.8-3.6,5-4.1h2.4c2,0.5,3.8,1.8,4.9,3.6c0.2,0.2,0.5,0.3,0.8,0.3c4.1-1.2,8.6,0.6,10.7,4.3
		c0.2,0.3,0.5,0.5,0.9,0.5c6.1,0.2,10.9,5.4,10.7,11.5c-0.1,4.2-2.5,7.9-6.3,9.8l-0.3,0.2c0.1,0.2,0.3,0.4,0.4,0.6l0.1,0.1
		c3.9,4.2,3.6,10.7-0.5,14.6c-0.4,0.4-0.8,0.7-1.3,1c-0.3,0.3-0.5,0.7-0.5,1.1c0,1.7-0.3,3.3-1.1,4.8c-0.1,0.2-0.1,0.5-0.1,0.7
		c0,0.2,0,0.5,0.1,0.7c0.4,0.8,0.7,1.7,0.9,2.6c1.2,5.5-2.4,11-7.9,12.1C116.1,131,115.8,131.2,115.6,131.6z M141.5,130.3
		c0.1,3.2-2.4,5.8-5.6,5.8h-17c-0.4,0.1-0.8-0.1-0.9-0.5c-0.2-0.4,0-0.8,0.4-1l0.2,0h17c2.4,0,4.4-1.9,4.5-4.3
		c0-0.7-0.1-1.3-0.4-1.9c-0.8-1.6-2.6-2.3-4.2-1.6l-0.3,0.2c-0.8,0.4-1.2,1.2-1,2.1c0.2,0.8,0.8,1.3,1.6,1.4c0.2,0,0.4,0.1,0.7,0.1
		c0.1,0,0.2-0.1,0.3-0.2c-0.1-0.1-0.2-0.3-0.3-0.3c-0.4,0-0.8-0.4-0.8-0.8v-0.1c0-0.4,0.4-0.8,0.8-0.8h0.2c0.9,0.1,1.5,0.9,1.6,1.8
		c0,0.9-0.7,1.6-1.5,1.8c-1.8,0.3-3.6-0.8-4.2-2.6c-0.4-1.7,0.5-3.5,2.2-4.2c1.7-0.8,3.7-0.5,5.1,0.8
		C141,127.1,141.6,128.7,141.5,130.3z M163.9,121c-0.5,0.8-1,1.6-1.5,2.3c-4.1,5.5-9.9,6.4-15.6,2.7c-3.2-2-3.5-3.3-1.2-6.4
		c2.4-3.4,5.6-5.5,10-5c3.2,0.3,6.2,1.9,8.3,4.3V121z M147.7,122.5c4.5,3.9,9.8,2.7,12.4-2.2C156.2,116.7,150.7,117.2,147.7,122.5z
		 M138.3,93c1,6.3,6.3,8.2,10.6,6.5C148.3,93.9,143.5,91,138.3,93z M138.3,93c1,6.3,6.3,8.2,10.6,6.5C148.3,93.9,143.5,91,138.3,93z
		 M147.7,122.5c4.5,3.9,9.8,2.7,12.4-2.2C156.2,116.7,150.7,117.2,147.7,122.5z M147.7,122.5c4.5,3.9,9.8,2.7,12.4-2.2
		C156.2,116.7,150.7,117.2,147.7,122.5z M138.3,93c1,6.3,6.3,8.2,10.6,6.5C148.3,93.9,143.5,91,138.3,93z M147.7,122.5
		c4.5,3.9,9.8,2.7,12.4-2.2C156.2,116.7,150.7,117.2,147.7,122.5z M147.7,122.5c4.5,3.9,9.8,2.7,12.4-2.2
		C156.2,116.7,150.7,117.2,147.7,122.5z"/>
</g>
</svg>
