<?xml version="1.0" encoding="utf-8"?>
<!-- Generator: Adobe Illustrator 24.3.0, SVG Export Plug-In . SVG Version: 6.00 Build 0)  -->
<svg version="1.1" id="Layer_1" xmlns="http://www.w3.org/2000/svg" xmlns:xlink="http://www.w3.org/1999/xlink" x="0px" y="0px"
	 viewBox="0 0 225 225" style="enable-background:new 0 0 225 225;" xml:space="preserve">
<style type="text/css">
	.st0{fill:#FFFFFF;}
</style>
<path class="st0" d="M154.7,105.9c-1.1-1-2.2-1.8-3.5-2.6c-3.1-1.6-6.3-3-9.6-4.2c-4.3-1.5-8.2-4-11.3-7.3c-1.7-1.8-3.6-3.7-5.4-5.4
	c-3-3.2-7.3-4.9-11.7-4.8c-1.7,0-3.4,0-5.1,0.2c-1,0.2-1.9-0.2-2.6-0.9c-3.5-3.4-7.5-5.9-12.5-6.4c-2-0.2-3.9-1.1-5.2-2.6
	c-1.4-1.5-2.8-2.9-4.3-4.2c-1.3-1.1-2.6-2.2-4-3.2c-1-0.7-2.4-0.5-3.2,0.5c0,0.1-0.1,0.2-0.2,0.3c-0.2,0.4-0.4,0.8-0.5,1.3
	c-0.2,1.6-0.2,3.3-0.4,4.8c-0.2,1.4,0.1,2.9,0.9,4.1c0.7,1.3,1.3,2.7,1.9,4.1c0.2,0.4,0.2,0.9,0.1,1.4c-0.4,1.5-1.7,2.1-3.6,1.7
	c-1.3-0.2-2.5-0.6-4.1-1c0.3,0.5,0.4,0.9,0.6,1.1c5.7,10,12.7,19.1,20.8,27.2c0.7,0.8,1.3,1.6,1.9,2.4c2.4,3.7,3.2,8.1,3.6,12.4
	c0.9,8.7,0,17.3-1.3,25.9c-0.4,2.6-0.9,5-1.3,7.7l1.6-0.7c5.9-2.6,12-4.9,18.5-5.6c5.7-0.6,11.2,0,15.3,4.8c0.6,0.6,1.2,1.1,1.9,1.6
	c1.8,1.4,4,2.3,6.2,2.6c1.8,0.3,3.7,0,5.4-0.8c-0.4-0.9-0.8-1.8-1.1-2.7c-0.8-2.9-1.4-5.9-1.9-8.9c-0.6-4-0.8-8-0.9-12
	c0-6.6-0.2-13-2.3-19.2c-0.6-1.7-1.3-3.3-2.2-5.2l19.4-6L154.7,105.9z M119.2,92.2c-0.8-0.4-1.5-0.8-2.2-1.3c-1.3-0.9-2.6-1.9-3.9-3
	c-0.6-0.3-0.8-1.1-0.5-1.7c0-0.1,0-0.1,0.1-0.1c0.2-0.4,0.7-0.7,1.1-0.7c0.2,0,0.4,0,0.6,0.1c0.6,0.2,1.2,0.4,1.8,0.6
	c0.7,0.3,1.4,0.7,2,1.2c0.9,0.8,1.6,1.5,2.4,2.2c0.3,0.3,0.4,0.7,0.5,1.1C121.2,92,120.3,92.6,119.2,92.2z"/>
<path class="st0" d="M140,0H85C38.1,0,0,38.1,0,85v55c0,46.9,38.1,85,85,85h55c46.9,0,85-38.1,85-85V85C225,38.1,186.9,0,140,0z
	 M156.2,107.8c-1.2,0.6-2.4,1-3.6,1.4c-4.2,1.2-8.4,2.5-12.7,3.8c-0.3,0.1-0.6,0.2-0.9,0.3c0.7,2.4,1.5,4.7,2,7.1
	c1,5.3,1.5,10.6,1.3,16c0,3.9,0.2,7.8,0.8,11.7c0.4,2.7,1,5.4,1.7,8.1c0.2,1.8,1.5,3.2,3.2,3.5c0.1,0,0.2,0.1,0.3,0.2
	c0,0,0,0,0.1,0.2c-1.9,1.6-4.1,2.7-6.6,3.2l-0.7,0.3h-3.5c-1.2-0.4-2.5-0.6-3.8-1.1c-2.5-1-4.6-2.5-6.4-4.4
	c-2.1-2.3-5.2-3.6-8.3-3.6c-5.5-0.2-10.8,1.2-15.9,3.2c-3.8,1.5-7.6,3.4-11.4,5.1l-0.9,0.4c0.4-2,0.9-4,1.2-5.9
	c1.7-9.4,3.1-18.8,2.8-28.3c-0.1-3.8-0.7-7.5-1.8-11.2c-0.8-2.5-2.2-4.9-4.1-6.7c-8.3-8.4-15.5-18-21.2-28.4c-0.3-0.5-0.5-1-0.4-1.6
	v0c0.2-1.3,1.3-2.2,2.6-2c1.2,0.1,2.4,0.3,3.6,0.6c0.7,0.1,1.3,0.3,1.9,0.5l-3.2-6.1l-4.3,2.4c-1-1.5-1.1-2.6,0.1-3.8
	c1.2-1.2,2.5-2.2,3.7-3.3c0.3-0.4,0.5-0.8,0.7-1.3c0.2-0.6,0.2-1.3,0.3-1.9c0.4-2.3,2.1-4.1,4.3-4.7H79c2.3,1,4.5,2.5,6.2,4.3
	c1.5,1.3,2.9,2.8,4.4,4.2c1,1.1,2.4,1.8,3.9,1.9c5.2,0.5,9.5,3.1,13.2,6.6c0.5,0.5,1.2,0.8,1.9,0.7c2.6,0,5.2,0,7.8,0.1
	c3.9,0.2,6.9,2.4,9.7,4.8c2,1.9,3.9,3.9,5.8,5.8c2.8,3,6.3,5.2,10.2,6.6c2.8,1,5.5,2.1,8.3,3.3c1.6,0.8,3,1.7,4.4,2.7
	c0.9,0.7,1.7,1.6,2.2,2.6C157.9,106.6,157.7,107.3,156.2,107.8z"/>
</svg>
