<?xml version="1.0" encoding="utf-8"?>
<!-- Generator: Adobe Illustrator 24.3.0, SVG Export Plug-In . SVG Version: 6.00 Build 0)  -->
<svg version="1.1" id="Layer_1" xmlns="http://www.w3.org/2000/svg" xmlns:xlink="http://www.w3.org/1999/xlink" x="0px" y="0px"
	 viewBox="0 0 225 225" style="enable-background:new 0 0 225 225;" xml:space="preserve">
<style type="text/css">
	.st0{fill:#FFFFFF;}
</style>
<path class="st0" d="M102.6,150.4H67.6v0c0.7-1.9,2.1-3.4,4-4.2c1.1-0.3,2-1.3,2-2.5c0.3-2.6,2.6-4.6,5.2-4.5
	c1.1,0.1,2.2-0.6,2.5-1.6c1.4-2.5,4.5-3.3,7-2c1.4,0.8,2.3,2.2,2.6,3.7c0,1.1,0.8,2,1.9,2c1.8,0.3,3.4,1.5,4.2,3.1
	c0.3,0.6,0.9,1.1,1.5,1.3C100.6,146.4,102.2,148.2,102.6,150.4z"/>
<path class="st0" d="M132.5,150.4c-0.3,0.1-0.6,0.1-1,0.1h-24.2c-0.9,0-1.2-0.3-1.3-1.2c-0.6-2.9-2.6-5.4-5.4-6.6
	c-0.4-0.3-0.8-0.6-1.2-0.9c-0.9-0.9-1.8-1.9-2.7-3c1.2-2,3.5-3.2,5.9-3.2c1.2,0.1,2.3-0.5,2.7-1.7c1.3-2.5,4.1-3.9,6.9-3.5
	c2.9,0.5,5.2,2.7,5.7,5.6c0.3,1.7,0.6,1.9,2.2,2.2c2.2,0.3,4.2,1.8,5.1,3.9c0.3,0.9,1.1,1.5,2,1.8
	C130.2,144.8,132.3,147.4,132.5,150.4z"/>
<path class="st0" d="M140,0H85C38.1,0,0,38.1,0,85v55c0,46.9,38.1,85,85,85h55c46.9,0,85-38.1,85-85V85C225,38.1,186.9,0,140,0z
	 M164.6,117.9c-1.1,6.7-4.9,11.3-11.6,13.4c-0.4,0.1-0.7,0.3-0.9,0.6c-2.3,4.2-6.5,7.1-11.2,7.9c-0.1,0-0.2,0.1-0.3,0.2v10.6
	l0.1,3.4H66.3c-1,0.2-2-0.3-2.5-1.2c-0.1-0.7-0.2-0.8-0.1-1.2c0.1-0.5,0.3-0.9,0.4-1.4c0.1-0.2,0,0,0.3-0.8c0.9-2.6,2.8-4.8,5.2-6.1
	c0.4-0.2,0.8-0.5,0.9-0.9c0.9-3.5,3.8-6.1,7.4-6.7c0.4-0.1,0.7-0.3,0.9-0.5c1-1.3,2.2-2.3,3.7-3c0.3-0.2,0.5-0.4,0.5-0.7
	c0.1-1.5,0-3,0-4.5c-4.8-0.6-9.1-3.5-11.5-7.7c-0.2-0.4-0.5-0.7-0.9-0.7c-3.6-1.2-6.6-3.7-8.3-7.1c-0.9-2.2-1.7-4.4-2.3-6.7V101
	c0.1-0.9,0.3-1.8,0.6-2.7c0.9-3.6,3-6.8,6-9c0.4-0.3,0.6-0.7,0.7-1.2c0.3-2.7,1-5.3,2.2-7.6c0.6-1.2,1.5-1.6,2.4-1
	c0.1,0,0.1,0.1,0.2,0.1c0.8,0.6,1,1.7,0.4,2.5c-1.1,2.2-1.8,4.7-1.8,7.2c0.1,1-0.5,2-1.4,2.4c-7.7,5-7.9,16.9-0.5,22
	c1,0.7,2.2,1.3,3.4,1.6c0.8,0.3,1.6,0.9,2,1.7c1.6,3.2,4.5,5.5,8,6.3c0.1,0.1,0.3,0.1,0.4,0.1h0.3v-5.2c0-0.3-0.3-0.6-0.6-0.9
	c-2.4-2.3-4.9-4.5-7.4-6.7c-0.8-0.5-1-1.6-0.4-2.4c0.4-0.7,1.2-1,2-0.7c0.4,0.2,0.7,0.4,0.9,0.7c1.5,1.3,3,2.7,4.5,4
	c0.2,0.3,0.5,0.4,0.9,0.9V92.8c0.1-0.5,0.5-1,1-1.2c0.9-0.4,1.9,0,2.2,0.9c0.1,0.4,0.2,0.8,0.2,1.3v10.5l5-4.6
	c1.3-1.3,2.2-1.4,3.1-0.6c0.9,0.9,0.6,1.9-0.7,3.1c-2.3,2.1-4.6,4.2-6.9,6.3c-0.3,0.3-0.5,0.7-0.6,1.2v13.3c0,0.3,0,0.5,0.1,0.8
	c1.4-0.7,2.7-1.2,3.9-1.9c1.8-1.2,3.3-2.8,4.3-4.8c0.4-0.6,1-1.1,1.7-1.3c5.1-1.2,8.8-5.4,9.5-10.6c0.7-5.8-1.3-10.5-6.5-13.6
	c-0.8-0.4-1.4-1.3-1.3-2.2c0-4.7-2.2-9.1-6-11.9c-4.4-3.4-10.5-3.6-15.1-0.5c-0.2,0.1-0.4,0.2-0.6,0.3h-0.1
	c-0.8,0.5-1.8,0.4-2.3-0.4L74,76.7c-0.2-0.3-0.3-0.6-0.3-0.9c0-0.6,0.3-1.1,0.8-1.4c0-0.1,0-0.1,0.1-0.1c2.5-1.9,5.5-3,8.6-3.2
	c9-0.6,16.4,6.1,18.4,14.3c0.3,2,1.3,3.8,2.9,5.1c9.1,8.1,6.2,23.9-5.1,27.8c-1,0.3-1.9,0.9-2.4,1.8c-2.2,3.3-5.6,5.7-9.5,6.5
	c-0.2,0-0.4,0-0.5,0.2c-0.1,0-0.2,0.1-0.3,0.2v4.4c3.3,0.4,6.1,2.6,7.4,5.6c0.2-0.2,0.4-0.4,0.6-0.6c1.8-2.4,4.5-3.9,7.5-4.2
	c0.4-0.1,0.8-0.3,1-0.6c2.5-3.3,5.6-5.1,9.8-4.5c4.2,0.6,7.1,3,8.6,7.2c0.2,0.4,0.5,0.8,0.9,0.9c2.5,0.8,4.7,2.5,6,4.8
	c0.2,0.4,0.6,0.7,1,0.9c3.7,1.4,6.3,4.8,6.9,8.7c0.2,0.8,0.4,1,1.2,0.7v-10.3c-5.1-0.7-9.6-3.7-12.2-8.2c-0.2-0.3-0.5-0.6-0.9-0.7
	c-7.3-2.4-11.8-10-11-17.7c0.3-5.1,2.9-9.7,7-12.7c0.3-0.2,0.5-0.6,0.6-1c0.2-3.6,1.4-7,3.4-10c0.7-1,1.7-1.4,2.6-0.8
	c0.9,0.6,1,1.5,0.3,2.7c-1.8,2.6-2.8,5.8-2.9,9c0,1.1-0.6,2.1-1.6,2.7c-4.5,2.9-6.7,8.2-5.8,13.4c0.4,5.4,4.2,10,9.4,11.4
	c0.8,0.2,1.4,0.8,1.8,1.5c1.7,3.4,4.8,5.9,8.5,6.7c0.2,0.1,0.4,0.1,0.5,0.1c0.1,0,0.2-0.1,0.3-0.1v-5.6c0-0.3-0.3-0.6-0.6-0.9
	c-2.5-2.3-5.1-4.6-7.5-7c-0.5-0.5-0.8-1.1-0.8-1.8c0.1-0.6,0.5-1.1,1-1.3c0.6-0.1,1.3,0,1.8,0.4c1.7,1.4,3.3,3,5,4.5
	c0.3,0.3,0.6,0.7,1,0.9V105c-0.1-0.9,0.4-1.8,1.2-2.1c1.2-0.5,2.2,0.4,2.2,1.9V116l1.3-1.2c1.5-1.4,3-2.8,4.6-4.2l0.2-0.2
	c0.7-0.7,1.9-0.6,2.5,0.1l0.2,0.2c0.5,0.8,0.3,1.9-0.5,2.4c-2.5,2.4-5.1,4.6-7.6,7c-0.3,0.4-0.5,0.8-0.6,1.3v14c0,0.2,0,0.4,0.1,0.6
	c0.6-0.1,1.2-0.3,1.8-0.5c3-1.1,5.5-3.3,6.9-6.1c0.3-0.8,1-1.5,1.9-1.6c5.7-1.4,9.7-6.4,9.9-12.3c0.2-5.7-1.9-10.3-7-13.2
	c-0.7-0.4-1.1-1.2-1-2.1c0-4.8-2.1-9.2-5.8-12.3c-4.3-3.6-10.3-4.3-15.2-1.6c-0.6,0.5-1.5,0.6-2.3,0.3l-0.1-0.1
	c-0.8-0.5-1-1.6-0.4-2.4c0.2-0.3,0.4-0.5,0.7-0.6c3-1.9,6.6-2.6,10.2-2.2c8.5,1.1,15.2,7.9,16.2,16.4c0.1,1.2,0.7,2.4,1.7,3.1
	C163.6,104.9,166,111.5,164.6,117.9z"/>
</svg>
