<?xml version="1.0" encoding="utf-8"?>
<!-- Generator: Adobe Illustrator 24.3.0, SVG Export Plug-In . SVG Version: 6.00 Build 0)  -->
<svg version="1.1" id="Layer_1" xmlns="http://www.w3.org/2000/svg" xmlns:xlink="http://www.w3.org/1999/xlink" x="0px" y="0px"
	 viewBox="0 0 225 225" style="enable-background:new 0 0 225 225;" xml:space="preserve">
<style type="text/css">
	.st0{fill:#FFFFFF;}
</style>
<path class="st0" d="M124.6,149.1c-1.3,5.2-5.8,9-11.2,9.4c-2.9,0.3-5.7-0.6-8-2.3c-6.2-4.5-6.4-12.8-4-18.3c0.3,0.6,0.7,1.1,1,1.6
	c1.2,1.8,3.1,3,5.3,3.3c1.2,0.3,2.4-0.4,2.7-1.6c0-0.1,0-0.3,0-0.4s0-0.3,0-0.4c0.2-2.8,0.3-5.6,0.7-8.4c0.5-3.3,2.2-6,4.3-8.8
	c0.2,0.4,0.3,0.7,0.4,1.2c0.9,1.7,1.9,3.5,2.9,5.2c1.2,1.9,2.5,3.6,3.6,5.5C124.8,139.3,126,144.1,124.6,149.1z"/>
<path class="st0" d="M146,128c-1.3,12.7-8,21.9-19.5,27.5c-0.1,0-0.1,0-0.2,0.1c1-2.1,1.8-4.2,2.5-6.4c1.2-5.6,0.2-11.4-2.9-16.2
	c-1.2-2.1-2.5-4.1-3.9-6c-1.8-2.4-2.8-5.2-3-8.2c0-0.6-0.2-1.1-0.6-1.5c-0.7-0.8-1.9-0.9-2.7-0.1l-0.1,0.1c-4.8,3.7-7.9,9-8.8,15
	c-0.3,1.6-0.3,3.3-0.8,5c-0.3-0.7-0.8-1.5-1.1-2.3c-0.2-0.6-0.4-1.3-0.5-1.9c-0.1-0.4-0.2-0.7-0.4-1c-0.7-0.9-2-1.1-2.9-0.4
	c-1.9,1.3-3.2,3.3-3.9,5.5c-2,6.4-1.9,12.7,2.1,18.6c-0.3-0.1-0.5-0.2-0.7-0.3c-10.8-5.5-17.4-14-19-26.1c-1.2-7.8,0-15.8,3.3-23
	c0.9-1.7,2-3.4,3.1-5c1,2.3,1.8,4.3,2.8,6.2c1.5,3.1,4,5.7,7,7.4c1.8,1,3.9,1.5,6,1.5c1.8,0,2.4-0.7,2.6-2.4
	c0.1-3.6,0.2-7.2,0.3-10.8c0.6-13.7,6-25,16-34.3c0.3-0.3,0.5-0.4,0.7-0.6c0.7,2.3,1.2,4.6,2,6.9c1.8,4.8,4.7,8.9,7.7,13.1
	c3.1,4.4,6.3,8.7,9.1,13.2C144.8,109.6,146.9,118.8,146,128z"/>
<path class="st0" d="M140,0H85C38.1,0,0,38.1,0,85v55c0,46.9,38.1,85,85,85h55c46.9,0,85-38.1,85-85V85C225,38.1,186.9,0,140,0z
	 M146,142.7c-6.2,11.3-15.6,17.9-28.4,19.9l-2.5,0.3h-5.2c-2.2-0.4-4.5-0.6-6.6-1.2c-14.5-4-23.9-13.3-27.5-28
	c-2.3-9.8-1.2-20.2,3.1-29.3c1.3-3,3.4-5.6,6-7.6c0.3-0.2,0.6-0.4,0.8-0.6c1.8-1.1,3.2-0.5,3.7,1.6c0.5,2.1,1.1,4.1,1.9,6.1
	c0.9,2.4,2.4,4.6,4.4,6.3c1.2,1,2.7,1.7,4.2,2c0.1-2.3,0.1-4.6,0.3-6.8c0.4-6.8,1.2-13.5,3.8-19.9c3.7-9.1,9.8-17,17.7-22.9l0.7-0.6
	l1.3-0.1c1.1,0.5,1.7,1.5,1.6,2.7c0,6.2,2.3,11.8,5.8,16.8c3,4.4,6.2,8.6,9.2,12.9c4.6,6.4,7.8,13.7,9.2,21.4
	C151.2,125,150.7,134,146,142.7z"/>
</svg>
