<?xml version="1.0" encoding="utf-8"?>
<!-- Generator: Adobe Illustrator 24.3.0, SVG Export Plug-In . SVG Version: 6.00 Build 0)  -->
<svg version="1.1" id="Layer_1" xmlns="http://www.w3.org/2000/svg" xmlns:xlink="http://www.w3.org/1999/xlink" x="0px" y="0px"
	 viewBox="0 0 225 225" style="enable-background:new 0 0 225 225;" xml:space="preserve">
<style type="text/css">
	.st0{fill:#FFFFFF;}
</style>
<path class="st0" d="M140,0H85C38.1,0,0,38.1,0,85v55c0,46.9,38.1,85,85,85h55c46.9,0,85-38.1,85-85V85C225,38.1,186.9,0,140,0z
	 M60.4,87.3c0.3-0.2,0.6-0.4,0.9-0.7c8-8,16.1-16.1,24-24.1c1.5-1.5,2.1-1.5,3.6,0l8.1,8.1c0.2,0.2,0.4,0.2,0.6,0l0.5-0.4l6.3-6.2
	c1-0.9,1.9-1,2.8-0.1c3.9,3.7,7.6,7.6,11.4,11.4c0.1,0.1,0.2,0.2,0.2,0.3s0,0.3-0.1,0.3l-1.8,1.7c-0.2,0.2-0.4,0.2-0.6,0
	c-3.3-3.3-6.5-6.6-9.8-9.9c-0.2-0.2-0.4-0.2-0.6,0l-5.5,5.6c-0.2,0.2-0.2,0.4,0,0.6l3,2.8c0.2,0.2,0.2,0.4,0,0.6l-1.8,1.7
	c-0.2,0.2-0.4,0.2-0.6,0l-0.1-0.1L87.6,65.9c-0.2-0.2-0.4-0.2-0.6,0L63.1,89.7c-0.1,0.2-0.3,0.2-0.5,0.1c0,0-0.1-0.1-0.1-0.1h0
	l-2.1-2.2V87.3z M73.4,155.6c0,0.5-0.5,0.9-1,0.9h-1.2c-0.5,0-0.9-0.4-0.9-0.9v-1.2c0-0.5,0.4-0.9,0.9-0.9h1.2
	c0.5-0.1,0.9,0.2,1,0.7c0,0.1,0,0.2,0,0.2V155.6z M97.2,157.4l-1.6,2.7l-1.6,1c-0.4,0.2-0.9,0.2-1.2-0.1c-1.3-1.3-3.3-1.3-4.6,0
	l-0.1,0.1c-0.4,0.4-0.8,1-0.9,1.6c-0.1,0.4-0.5,0.7-0.9,0.8h-1.6c-0.5,0-0.9-0.3-0.9-0.8c-0.3-3.1-2.8-5.6-5.9-5.9
	c-0.4-0.1-0.7-0.5-0.8-0.9v-1.4c0-0.5,0.4-1,0.9-1H78c2.9,0.4,5.5,1.9,7.2,4.3c0.3,0.4,0.9,0.5,1.3,0.3c1.7-1.2,4-1.6,6-0.9
	c0.5,0.1,1.1-0.2,1.2-0.7v-3.6c0-0.5,0.4-0.9,0.9-0.9h1.4c0.5-0.2,0.9,0.1,1.1,0.5c0,0.1,0,0.1,0,0.2V157.4z M83.8,147.2v-1.4
	c0-0.5,0.4-0.9,0.9-0.9h1.4c0.5,0,0.9,0.4,0.9,0.9v1.4c0,0.5-0.4,0.9-0.9,0.9h-1.4C84.2,148.1,83.8,147.7,83.8,147.2z M100.7,154.1
	V154c-0.4-3.2-3.1-5.7-6.4-5.8h-2.7c-0.5,0-0.9-0.4-0.9-0.9v-1.6c0-0.5,0.3-0.9,0.8-0.9h0.1c5-0.4,9.3,0.9,11.7,5.9
	c0.4,1,0.7,2,0.9,3c0.1,0.5-0.2,1-0.7,1.2c-0.1,0-0.2,0-0.3,0h-1.6C101.1,154.9,100.8,154.6,100.7,154.1z M104.2,136.8
	c0,0.6-0.5,1.1-1.1,1.2h-1.2c-0.6,0-1.2-0.5-1.2-1.2v-9.5c0-0.6,0.5-1.1,1.2-1.2h1.2c0.6,0,1.1,0.5,1.1,1.2V136.8z M105.2,139.8h1.2
	c0.5,0,1,0.5,1,1v1.2c0,0.5-0.5,1-1,1h-1.2c-0.5,0-1-0.5-1-1v-1.2C104.2,140.2,104.7,139.8,105.2,139.8z M124.4,157.6
	c0,0.5-0.4,0.9-0.9,0.9h-1.9c-2-0.2-4,0.9-5,2.6c-0.4,0.8-1.4,1.1-2.2,0.7c-0.3-0.1-0.6-0.4-0.7-0.7c-2.4-3.4-6-3.7-8.7-0.4
	c-0.2,0.3-0.6,0.4-1,0.3l-1.5-0.8c-0.4-0.2-0.6-0.7-0.4-1.2c1.3-2.5,3.9-3.9,6.7-3.9c2,0,4,0.6,5.9,1.9c0.3,0.3,0.8,0.3,1.2,0
	c1.3-1.1,3-1.8,4.7-1.9c0.4-0.1,0.7-0.4,0.8-0.8c0-0.5,0.4-0.8,0.9-0.8h1.6c0.2-0.2,0.5,0.2,0.5,0.7V157.6z M110.9,119.6
	c0,0.7-0.5,1.2-1.2,1.2h-0.9c-0.6,0-1.2-0.5-1.2-1.2v-0.8c0-0.6,0.5-1.2,1.1-1.2h0.9c0.7,0,1.2,0.5,1.2,1.2V119.6z M111,146.6v6
	c0,0.7-0.5,1.2-1.2,1.2h-0.9c-0.6,0-1.2-0.5-1.2-1.1v-6c0-0.7,0.5-1.2,1.2-1.2h0.9C110.5,145.5,111,146,111,146.6z M109.4,124.5
	c0.8,0.1,1.5,0.7,1.5,1.5v1.7c0.1,0.9-0.6,1.7-1.5,1.8c-0.9,0.1-1.7-0.6-1.8-1.5c0-0.1,0-0.2,0-0.3V126
	C107.7,125.1,108.5,124.4,109.4,124.5z M114.6,151.4c0.6-2.6,3.3-4.6,6.6-4.9c0.8-0.1,1.6,0.5,1.6,1.3v0.5c0,0.8-0.7,1.5-1.5,1.6
	c-1.5-0.1-3,0.9-3.4,2.4c-0.2,0.6-0.8,1-1.4,1h-0.4c-0.8,0-1.5-0.7-1.5-1.5V151.4z M113.9,146.4c-0.6,0-1.1-0.5-1.2-1.2v-4.4
	c0-0.6,0.5-1.1,1.2-1.1h1c0.6,0,1.1,0.5,1.1,1.1v4.4c0,0.6-0.5,1.1-1.1,1.2H113.9z M116,135.1c0,0.6-0.5,1.1-1.2,1.1h-1
	c-0.6,0-1.1-0.5-1.1-1.1v-0.9c0-0.6,0.5-1.1,1.1-1.2h0.9c0.6-0.1,1.2,0.4,1.2,1V135.1z M115.9,124.8c0,0.8-0.6,1.4-1.3,1.4H114
	c-0.8,0-1.4-0.6-1.4-1.4v-0.6c0-0.8,0.6-1.4,1.4-1.4h0.5c0.7,0,1.3,0.6,1.3,1.4V124.8z M138,163.5c0,0.1,0,0.1-0.1,0.1h-2.8
	c-0.2-0.1-0.4-0.2-0.5-0.4c-1-3.2-3.5-3.9-6.2-1.6h-0.1l-2.5-1.8v-0.1c2.2-3.5,6.8-3.7,10.4-0.6h0.1c1-1,2.2-1.7,3.6-2.1l0.8,3.3
	C139.2,160.7,138.2,162,138,163.5z M126.3,148.9v-1.4c0-0.5,0.4-0.9,0.9-0.9h1.3c0.5,0,0.9,0.4,0.9,0.9v1.4c0,0.5-0.4,0.9-0.9,0.9
	h-1.3C126.7,149.8,126.3,149.4,126.3,148.9z M147.7,159.1c0,0.5-0.4,0.9-0.9,0.9h-1.5c-0.5,0-0.9-0.4-0.9-0.9v-1.5
	c0-0.5,0.4-0.9,0.9-0.9h1.5c0.5,0,0.9,0.4,0.9,0.9V159.1z M164.1,105.1C164,105.1,164,105.2,164.1,105.1l-1,1
	c-0.5,0.3-1.1,0.3-1.5-0.1l-2.1-2.4c-0.4-0.4-1-0.5-1.5-0.1l-9.5,9.5c-1.5,1.5-2.1,1.5-3.6,0l-6-6c-0.4-0.4-1-0.4-1.4-0.1l-0.2,0.2
	c-0.1,0.2-0.4,0.5-0.6,0.6l-5.2,5.2c-0.8,0.8-1.9,1.2-3,1.2c-0.5,0-0.9,0-1.4,0.1c-1.8,0.3-2.6,1.8-2.6,3.8V142c0,0.5-0.4,1-1,1H122
	c-0.5,0-1-0.5-1-1v-22c-0.1-1.5,0-3,0.3-4.5c0.2-0.6-0.2-1.1-0.7-1.3c-0.1,0-0.2-0.1-0.3-0.1h-17.6c-1,0-2,0.1-3,0.4
	c-1.6,0.3-2.6,1.7-2.4,3.3v22.3c0,0.5-0.5,1-1,1h-1.4c-0.5,0-1-0.5-1-1v-22c0.1-1.2,0.4-2.3,0.7-3.5c0.1-0.3,0-0.7-0.2-0.9
	c-2.2-2.2-4.3-4.4-6.6-6.7c-0.4-0.4-1-0.5-1.4-0.1c0,0-0.1,0.1-0.1,0.1l-6,6c-1.5,1.5-2.2,1.5-3.6-0.1c-2.6-3-5.1-6-7.7-9
	c-0.3-0.4-1-0.5-1.4-0.2l-0.1,0.1l-0.2,0.1l-3.9,4c-0.3,0.4-1,0.5-1.4,0.1L61,107l0.1-1.7c1.5-1.4,2.9-2.8,4.3-4.2l1.4-1.4
	c1.1-1.2,2-1.2,3.1,0.1c2.7,3,5.3,6.2,8,9.3l0.1,0.1c0.4,0.4,1,0.5,1.4,0.1h0.1l5.3-5.3l0.9-0.9c0.6-0.8,1.7-0.9,2.5-0.3
	c0.1,0.1,0.2,0.2,0.3,0.3l8.1,8.1c0.4,0.5,1.1,0.7,1.8,0.4c1.3-0.4,2.7-0.7,4.1-0.8c8.5-0.1,17,0,25.5,0c0.6,0,1.2-0.2,1.6-0.7
	l6.8-6.8c1.4-1.4,2.1-1.4,3.4,0l6.1,6.1c0.4,0.4,1,0.4,1.4,0.1l0.1-0.1l0.1-0.1l9.5-9.5c1.2-1.2,1.9-1.2,3.1,0l3.8,3.8
	C164.4,104.1,164.4,104.7,164.1,105.1z M163.5,86.9c-0.6,0.7-1.7,0.7-2.3,0.1c0,0-0.1-0.1-0.1-0.1l-9.8-9.8
	c-0.6-0.7-1.6-0.7-2.2-0.1c0,0-0.1,0.1-0.1,0.1l-3.7,3.7c-0.7,0.6-0.7,1.7-0.1,2.3h0.1l1.3,1.2c0.7,0.6,0.7,1.6,0.1,2.3l-0.2,0.2
	c-0.7,0.6-1.7,0.5-2.3-0.1l-12.2-12.2c-0.3-0.3-0.9-0.3-1.2,0l-22.4,22.5c-0.7,0.6-1.7,0.6-2.4,0l-0.6-0.6c-0.3-0.3-0.2-0.8,0.1-1.1
	L129.6,71c1.3-1.3,2-1.3,3.3,0l7.3,7.3c0.6,0.7,1.6,0.7,2.3,0.1c0,0,0.1-0.1,0.1-0.1l0.1-0.1c1.9-2,3.8-3.9,5.8-5.8
	c0.5-0.8,1.6-0.9,2.4-0.4h0l0.3,0.3l13.3,13.3c0,0.1,0.1,0.1,0.1,0.2L163.5,86.9z"/>
</svg>
