<?xml version="1.0" encoding="utf-8"?>
<!-- Generator: Adobe Illustrator 24.3.0, SVG Export Plug-In . SVG Version: 6.00 Build 0)  -->
<svg version="1.1" id="Layer_1" xmlns="http://www.w3.org/2000/svg" xmlns:xlink="http://www.w3.org/1999/xlink" x="0px" y="0px"
	 viewBox="0 0 225 225" style="enable-background:new 0 0 225 225;" xml:space="preserve">
<style type="text/css">
	.st0{fill:#FFFFFF;}
</style>
<path class="st0" d="M140,0H85C38.1,0,0,38.1,0,85v55c0,46.9,38.1,85,85,85h55c46.9,0,85-38.1,85-85V85C225,38.1,186.9,0,140,0z
	 M109.4,66.8c0.1,0,0.3-0.1,0.3-0.1c2.6-0.5,5.1-1,7.6-1.5c0.9-0.2,1.7-0.2,2.5-0.3L125,65c1.5,0.2,3,0.3,4.5,0.6
	c1.2,0.3,2.3,0.6,3.5,0.9c0.9,0.1,1.5,0.8,1.5,1.7c0.9,5.2-0.1,10.4-2.8,14.9c-2.3,4.1-5.9,7.3-10.3,9.1c-0.2,0.1-0.4,0.2-0.6,0.3
	l2.6,0.9c1.3,0.4,1.6,1.1,0.7,2.2c-2.6,3.2-5.5,6.2-8.6,8.9l-0.2,0.2c-0.6,0.5-1.2,0.5-1.6,0c-0.4-0.5-0.3-1.1,0.1-1.5l0.1-0.1
	c1.3-1.1,2.6-2.3,3.8-3.4c1.3-1.3,2.6-2.8,4.1-4.4l-4.3-1.3l-0.9-0.3c-0.6-0.1-1-0.6-1-1.2c0.1-0.7,0.5-0.9,1-1
	c1.3-0.3,2.5-0.7,3.8-1.2c7.8-3.4,12.7-11.4,12-19.9c-0.2-2.2,0.1-1.7-2-2.2c-6.3-1.5-12.4-1-18.7,0.3c-0.5,0.1-1,0.3-1.6,0.4
	c-0.7,0.1-1.3-0.2-1.5-0.9C108.6,67.5,108.9,67,109.4,66.8z M117.8,83h0.2c0.6,0,1.1,0.4,1.2,1c0,0,0,0.1,0,0.1c0,0.5-0.4,1-0.9,1
	h-0.1c-0.6,0.1-1.2-0.3-1.3-0.9C116.8,83.7,117.2,83.1,117.8,83z M108.9,77.1L108.9,77.1c0.6,0,1.1,0.4,1.1,1v0.1c0,0.6-0.5,1-1.1,1
	h-0.1c-0.6,0-1-0.4-1.1-1C107.8,77.6,108.2,77.1,108.9,77.1z M71.9,98.5c0-0.1,0-0.1,0.1-0.1c1.1-2.5,2.2-5,3.5-7.4
	c0.7-1.2,1.4-2.3,2.2-3.4c0.7-1,1.5-1,2.2,0l0.6,0.9c0.2-0.8,0.3-1.7,0.3-2.5c-0.2-2,0.9-3.3,2.2-4.7c4.6-4.2,9.8-7.7,15.5-10.3
	c1.8-0.9,3.8-1.6,5.7-2.5c0.9-0.3,1.6-0.2,1.8,0.4c0.2,0.6-0.1,1.2-0.9,1.6c-6.1,2.2-11.8,5.4-17,9.3c-1.5,1.2-2.9,2.5-4.3,3.8
	c-0.3,0.3-0.5,0.7-0.6,1.2c-0.3,1.9-0.3,3.8-0.5,5.7l-0.1,0.7c-0.1,0.6-0.3,1.1-0.9,1.2c-0.5,0.1-1.1-0.2-1.3-0.7
	c-0.5-0.8-1-1.5-1.6-2.2c-1.8,2.7-3.3,5.5-4.5,8.4c-0.1,0.3-0.2,0.6-0.3,0.9c-0.2,0.6-0.8,0.9-1.3,0.7h-0.1
	C72,99.7,71.8,99,71.9,98.5z M103,79.4v0.2c0,0.6-0.5,1-1.1,1c-0.6,0-1.2-0.5-1.2-1.1c0.1-0.6,0.6-1,1.2-1v0
	C102.5,78.5,102.9,78.9,103,79.4z M102.1,76.8v-0.2c0-0.6,0.5-1.1,1.1-1.1s1.1,0.5,1.1,1.1c-0.1,0.5-0.5,1-1.1,1l0,0
	C102.8,77.7,102.2,77.4,102.1,76.8z M78,106.9L78,106.9c0,0.6-0.5,1.1-1,1.1h-0.2c-0.6,0-1.1-0.6-1.1-1.2c0.2-0.6,0.7-1,1.3-1
	C77.6,105.8,78.1,106.3,78,106.9z M69.4,126.9c-2,3.7-3.9,7.3-5.9,11c-0.1,0.2-0.2,0.4-0.3,0.6c-0.2,0.5-0.8,0.8-1.3,0.5h-0.1
	c-0.5-0.1-0.8-0.6-0.6-1.1v-0.1c0-0.1,0-0.1,0.1-0.2c0.3-0.9,0.8-1.8,1.2-2.6c1.9-3.3,3.8-6.8,5.6-10.1c0.2-0.4,0.3-0.8,0.3-1.2
	c-0.4-6.7,0.2-13.4,1.8-19.8c0.3-0.9,0.7-1.3,1.4-1.1c0.6,0.2,0.9,0.8,0.7,1.6c-1.4,5.2-2,10.5-1.9,15.9v1l0.8-1.1
	c10.1-15.1,23.1-28.2,38.3-38.3c2.8-1.8,5.7-3.5,8.5-5.2c0.1-0.1,0.2-0.1,0.3-0.2c0.5-0.3,1.2-0.2,1.6,0.3c0.1,0.2,0.1,0.3,0.1,0.5
	c0,0.4-0.2,0.8-0.6,0.9c0,0,0,0,0,0c0,0-0.1,0-0.1,0.1c-1.6,0.9-3.2,1.8-4.7,2.8c-11.7,7.2-22.2,16.2-31.1,26.7
	c-4.1,4.8-7.9,9.8-11.4,15.1c-0.2,0.2-0.3,0.5-0.4,0.7l0.2,0.3l14.2-4.7c-0.4-0.7-0.8-1.4-1-2.2c-0.2-0.4-0.1-0.9,0.1-1.3
	c0.3-0.5,0.8-0.5,1.3-0.3c1.2,0.4,2.4,0.8,3.6,1.3c0.6,0.3,1.3,0.2,1.9-0.1c0.4-0.2,0.8-0.4,1.3-0.6c-0.8-0.6-1.6-1.2-2.3-1.8
	c-0.6-0.2-0.8-0.9-0.6-1.4c0.2-0.6,0.6-0.7,1-0.7c0.1,0,0.2,0,0.3,0c2.5,0.2,5.1,0.3,7.6,0.4c0.5,0,1.1-0.1,1.6-0.3
	c3-1.9,6-3.8,9-5.7l0.2-0.2c0.8-0.5,1.3-0.5,1.8,0.1c0.4,0.7,0.3,1.2-0.5,1.7c-1.3,0.9-2.5,1.8-3.8,2.6c-2,1.3-4,2.5-6.1,3.7
	c-0.5,0.3-1.1,0.4-1.6,0.3c-1.6,0-3.2-0.2-5-0.3c0.3,0.3,0.6,0.6,1,0.9c0.5,0.3,0.6,0.9,0.3,1.4v0.1c-0.1,0.2-0.3,0.3-0.5,0.4
	c-1.3,0.7-2.6,1.3-4,1.8c-0.4,0.1-0.8,0.1-1.2,0c-0.7-0.2-1.5-0.5-2.2-0.8c0.1,0.3,0.2,0.3,0.3,0.5c0.4,0.9,0.3,1.5-0.8,1.9
	c-2.7,1-5.6,2.1-8.5,2.9c-2.8,0.9-5.9,1.8-8.8,2.7C69.8,126.5,69.5,126.7,69.4,126.9z M99.5,105.8c0,0.6-0.5,1.1-1.1,1.1
	s-1.1-0.5-1.1-1.1s0.5-1.1,1.1-1.1S99.5,105.2,99.5,105.8z M96.8,103.1c0,0.6-0.6,1.1-1.2,1.1c-0.6,0-1.1-0.4-1.1-1
	c0-0.6,0.5-1.1,1.1-1.1C96.2,102.1,96.7,102.5,96.8,103.1z M163.6,135.2c-0.3,0.7-0.8,0.7-1.5,0.7c-4.4-0.3-8.8,0.3-12.4,2.9
	c-2.3,1.6-4.4,3.6-6.1,5.8c-1.7,2.2-3.6,4.4-5.6,6.4c-3,3-6.5,5.4-10.4,7c-1.7,0.7-3.5,1.2-5.3,1.6c-2.9,0.6-5.9,0.6-8.8-0.1
	c-2.3-0.5-4.6-1.2-6.8-2c-2.6-1.1-5-2.5-7.2-4.3c-2.1-1.6-3.7-3.6-4.9-6c-0.4-0.9-0.7-1.8-1-2.6c-0.1-0.3-0.3-0.3-0.5-0.4
	c-0.3,0-0.6-0.1-0.9-0.2c-2-0.7-4-1.3-6-2c-1-0.3-1.9-0.8-2.7-1.4c-1.6-1-3.1-2.1-4.6-3.2c-0.1,0-0.1-0.1-0.1-0.1
	c-0.3-0.4-0.2-1,0.2-1.3c0.3-0.4,0.9-0.4,1.3-0.1l0.1,0.1c1.3,1,2.7,2,4.1,2.8c2,1.1,4.1,2,6.3,2.8c0.9,0.3,1.8,0.4,2.6,0.5
	c0.3-1.6,0.6-3.2,0.9-4.8c0-0.2,0-0.4,0.1-0.5c0.7-1.7,1.5-3.4,2.4-5c2.9-4.6,7.2-8.2,12.3-10.1c2.1-1,4.4-1.7,6.8-2.2
	c1.6-0.2,3.2-0.5,4.8-0.8c2.9-0.4,5.8-0.4,8.8-0.1c2.4,0.2,4.8,0.6,7.1,1.1c2.3,0.5,4.6,1.2,6.8,2.2c2.1,0.9,4.1,1.6,6,2.6
	c1.9,1,3.8,2.2,5.7,3.2c3,1.8,5.7,3.8,8.2,6.2C163.9,134.1,163.9,134.5,163.6,135.2z"/>
<path class="st0" d="M96.4,142.9c-0.4-0.1-0.5-0.4-0.5-0.9c0.2-3.1,1.2-6.2,2.8-8.9c1.7-2.6,3.8-4.8,6.3-6.6
	c2.5-1.9,5.4-3.3,8.4-4.1c1.6-0.4,3.2-0.8,4.7-1.1c3.2-0.7,6.4-0.9,9.7-0.6c2.4,0.1,4.8,0.4,7.2,0.9c2.4,0.6,4.7,1.2,7,2
	c2.1,0.7,4.1,1.6,6,2.5c3.1,1.4,6,3.1,8.8,5.1l-10.3-2.2c0.6-0.3,1.1-0.5,1.7-0.7c0.4-0.2,0.9-0.3,0.7-0.9c-0.2-0.6-0.5-0.6-1.1-0.4
	c-1.2,0.3-2.2,1-3.1,1.9c-0.3,0.2-0.6,0.3-0.9,0.3c-2.2,0.3-4.4,0.4-6.6,0.7c-1,0.3-2,0.5-3.1,0.9l-0.2-0.2l2.2-3
	c0.2-0.2,0.4-0.4,0.4-0.6c0-0.3-0.1-0.5-0.3-0.8c-0.1-0.1-0.4,0-0.6,0.1c-0.3,0.1-0.5,0.3-0.7,0.5c-0.9,1.4-2.2,2.4-2.7,4
	c-0.2,0.4-0.5,0.7-0.9,0.9c-2.6,1.2-5.3,2.3-8,3.4c-1.6,0.7-3,1.3-4.6,2c0.3-1.6,0.9-3.1,1.8-4.4c0.8-1,1.6-2,2.4-2.9
	c0.3-0.4,0.6-0.9,0.1-1.4s-0.8,0-1.1,0.3c-1.3,1.1-2.4,2.5-3.2,4c-0.7,1.4-1.2,2.9-1.6,4.4c-0.3,1-1.1,1-1.7,1.3
	c-1.7,0.8-3.4,1.3-5.1,2l-4,1.4l-0.3-0.3c0.5-1.3,1.1-2.6,1.8-4c1-1.7,2.3-3.3,3.5-5.1c0.2-0.3,0.2-0.6,0-0.9
	c-0.1-0.1-0.1-0.2-0.2-0.2c-0.3-0.2-0.7-0.1-0.9,0.2c-1.2,1.5-2.3,3-3.2,4.7c-1,1.8-1.7,3.8-2.7,5.7c-0.3,0.5-0.9,0.7-1.5,0.7
	C100.8,143.1,98.6,143.2,96.4,142.9z"/>
<path class="st0" d="M158.4,133.8c-1,0.1-2,0.2-3,0.4l0,0c-3.2,0.7-6.1,2.2-8.6,4.4c-1.2,1-2.3,2.2-3.4,3.3
	c-1.6,1.9-3.2,3.8-4.8,5.7c-0.8,1-1.8,2-2.8,2.8c-2.2,2-4.7,3.7-7.3,5.1c-2.2,1-4.6,1.8-7,2.2c-3.1,0.5-6.2,0.2-9.2-0.7
	c-2-0.7-4.2-1.6-6.2-2.4c-3.1-1.3-5.9-3.4-8-6.1c-1-1.2-1.6-2.7-1.9-4.2h5.6c0.3,0,0.5,0.1,0.7,0.3c1.2,1,2.3,2,3.5,3
	c1.9,1.4,4.1,2.6,6.3,3.4c0.7,0.3,1.3,0.3,2,0.5c0.6,0.2,0.9,0.1,1-0.4c0.1-0.5-0.2-0.8-0.7-0.9c-0.9-0.3-1.9-0.5-2.8-0.9
	c-2.8-1.2-5.3-2.8-7.6-4.8c-0.2-0.2-0.4-0.3-0.6-0.3l0.1-0.3c0.6-0.1,1.3-0.2,1.9-0.4c2.8-0.9,5.4-1.9,8.2-2.8c0.2,0,0.5,0,0.7,0.2
	c0.9,0.6,1.6,1.1,2.5,1.7c1.5,0.9,3.1,1.6,4.9,2c0.7,0.2,1.4,0.2,2.2,0.2c0.3,0,0.5-0.4,0.8-0.6c-0.2-0.3-0.5-0.5-0.8-0.7
	c-2.8-0.3-5.5-1.3-7.7-3c-0.2-0.1-0.3-0.3-0.4-0.4c0.1-0.1,0.3-0.2,0.4-0.3c3.6-1.6,7.1-3,10.7-4.5c0.4-0.2,1-0.1,1.3,0.3
	c1.8,1.5,4,2.5,6.4,2.7c0.5,0,0.9-0.1,0.9-0.7c0-0.6-0.3-0.8-0.9-0.8c-0.6,0-1.2-0.1-1.7-0.3c-1.3-0.5-2.9-0.8-4-2
	c1.1-0.4,2.2-0.9,3.1-1.3c2.3-1,4.8-1.7,7.3-2.2c0.8-0.1,1.6,0.1,2.3,0.5c1.8,0.8,3.5,1.6,5.3,2.3c0.4,0.2,0.9,0.2,1.1-0.4
	c0.2-0.6-0.2-0.9-0.7-1c-1.3-0.5-2.6-0.9-3.8-1.5C146,129.9,156,132.1,158.4,133.8z"/>
</svg>
