<svg id="Layer_1" data-name="Layer 1" xmlns="http://www.w3.org/2000/svg" viewBox="0 0 228 228"><rect x="1.5" y="1.5" width="225" height="225" rx="85" fill="#041519" stroke="#666" stroke-miterlimit="10" stroke-width="3"/><path d="M126.46,140.69Zm0,0Zm0,0Zm0,0Zm0,0Zm0,0Zm0,0Zm0,0Zm0,0Zm0,0Zm0,0Z" transform="translate(1.5 1.5)" fill="#bdc3c7"/><path d="M120.88,129.14a2.39,2.39,0,0,0-1.82-.89c-3.32-.11-6.64,0-10.06,0h-1.33c.11-.44.11-.61.17-.88l2.65-10.5c.44-1.66-.17-2.66-1.77-2.66H95.12a1.61,1.61,0,0,0-1.82,1.33c-2.27,6.91-4.64,13.76-6.91,20.67-.55,1.49.28,2.54,1.93,2.54h13.21a3.36,3.36,0,0,1-.16.94c-1.38,7-2.82,14-4.2,21-.17,1.05-.11,1.93,1,2.37a1.76,1.76,0,0,0,2.26-.88c6.86-10.34,13.55-20.67,20.29-31A2.59,2.59,0,0,0,120.88,129.14ZM102.7,152.41l-.28-.11c.44-2.1.77-4.21,1.21-6.31.56-2.81,1.17-5.52,1.66-8.29.33-1.6-.33-2.43-2-2.43H90.42c1.17-3.26,2.1-6.41,3.16-9.45.77-2.43,1.6-4.92,2.43-7.24.11-.33.55-.72.77-.72h10c-.34,1.22-.61,2.43-.89,3.59-.61,2.55-1.33,5.09-1.93,7.69-.56,1.93.16,2.82,2.1,2.82h10.17Z" transform="translate(1.5 1.5)" fill="#bdc3c7"/><path d="M124.8,67.23a24.77,24.77,0,0,1,0-4,1.4,1.4,0,0,1,1.61-1.38h.11a1.53,1.53,0,0,1,1.66,1.5h0v2.1h0v2a1.47,1.47,0,0,1-1.66,1.38h0a1.85,1.85,0,0,1-1.72-1.55Z" transform="translate(1.5 1.5)" fill="#bdc3c7"/><path d="M134.81,151.52c-1.49-5.41-4-10.33-6.74-15.25-.78-1.5-2.55-1.39-3.32.16-1.77,3.43-3.48,6.75-5,10.23a55.89,55.89,0,0,0-2,6.46c-.11,7.08,5.59,11.39,11.23,9.62C133.76,161.42,136.19,156.77,134.81,151.52Zm-6.74,8a5,5,0,0,1-6.31-3,7,7,0,0,1-.16-3.87c.88-4.2,2.87-8,4.92-12,2.1,4.09,4.09,8.07,5.08,12.33A5.28,5.28,0,0,1,128.07,159.48Z" transform="translate(1.5 1.5)" fill="#bdc3c7"/><path d="M149.73,77a1.64,1.64,0,0,1,0-2.43l.17-.17A38.54,38.54,0,0,1,153.33,71a2.34,2.34,0,0,1,1.93-.33c.55.17.77.94,1.22,1.49a10.38,10.38,0,0,1-.94,1.5l-3.15,3.15A1.78,1.78,0,0,1,149.73,77Z" transform="translate(1.5 1.5)" fill="#bdc3c7"/><path d="M153.6,106.53c-.11,0-.11,0-.11-.11a1.18,1.18,0,0,1-.33-1.66,24.1,24.1,0,0,0,1.22-11.83,24.56,24.56,0,0,0-43.73-11.22l-.88,1.16c-8.57-4.92-17.13-5.41-25.2.33-7.69,5.42-10.4,13.16-8.74,22.61-.33.11-.72.17-1,.28-9,1.66-15.59,10.33-14.7,19.23.94,9.56,8.84,16.92,18.13,16.92a1.74,1.74,0,0,0,.77-.11,1.68,1.68,0,0,0,1.33-1.94v-.11a1.71,1.71,0,0,0-1.82-1.49,14.6,14.6,0,0,1-14.87-13.32,14.75,14.75,0,0,1,13.37-16c2.82-.28,3.32-.89,2.55-3.15A18,18,0,0,1,96.17,82.76a18.69,18.69,0,0,1,18.3,11.44c.61,1.38,1.38,1.77,2.82,1.22,8.12-3.15,16,.77,18.46,9.12.44,1.38,1.05,1.66,2.43,1.66a30.47,30.47,0,0,1,6.74.16c6.47,1.5,10.84,5.53,12.61,12s-.33,12-5.25,16.36a16,16,0,0,1-10.67,4c-1.33.11-2.1.72-2.1,1.77s.77,1.77,2.21,1.77c.77,0,1.66-.11,2.43-.16A20.06,20.06,0,0,0,161,127.42,19.77,19.77,0,0,0,153.6,106.53Zm-3.92-2.6c-2.21-.44-4.48-1.05-6.63-1.38a14.56,14.56,0,0,0-3.16-.11,1.09,1.09,0,0,1-1.38-.89,16.55,16.55,0,0,0-12-10.33,15.66,15.66,0,0,0-8.29.16,1.12,1.12,0,0,1-1.5-.71c-1.21-1.94-2.65-3.76-4-5.7,5.53-8.84,17.85-11.88,27.42-6.74C150,83.7,153.16,95.53,149.68,103.93Z" transform="translate(1.5 1.5)" fill="#bdc3c7"/><path d="M165,96.91a1.49,1.49,0,0,1-1.33,1.49h0a26.77,26.77,0,0,1-4.2,0A1.52,1.52,0,0,1,158,96.8v-.16a1.59,1.59,0,0,1,1.5-1.66h4A1.5,1.5,0,0,1,165,96.64Z" transform="translate(1.5 1.5)" fill="#bdc3c7"/></svg>