<svg id="Layer_1" data-name="Layer 1" xmlns="http://www.w3.org/2000/svg" viewBox="0 0 228 228"><rect x="1.5" y="1.5" width="225" height="225" rx="85" fill="#041519" stroke="#666" stroke-miterlimit="10" stroke-width="3"/><path d="M111.26,144.08Z" transform="translate(1.5 1.5)" fill="#bdc3c7"/><path d="M134.39,111.2Z" transform="translate(1.5 1.5)" fill="#bdc3c7"/><path d="M92.23,84.73a2.22,2.22,0,0,1,.27-1c.59-1.13,1.13-2.32,1.73-3.4.1-.16.16-.27.32-.27a.34.34,0,0,1,.32.27l.76,1.4a.22.22,0,0,1,0,.33.25.25,0,0,1-.43,0c-.11,0-.11-.11-.11-.16-.16-.27-.33-.6-.43-.81V81l-1,1.88L93.09,84a1.85,1.85,0,0,0,.76,2.48,1.54,1.54,0,0,0,.43.17,1.75,1.75,0,0,0,2-1.41v-.1A1.62,1.62,0,0,0,96.17,84c-.17-.32-.33-.64-.6-1.07-.1-.27-.1-.44.11-.49s.32,0,.43.16c.27.43.43.81.65,1.24a2.37,2.37,0,0,1-1.08,3,2.39,2.39,0,0,1-3.45-2.1Z" transform="translate(1.5 1.5)" fill="#bdc3c7"/><path d="M96.6,94.86c.59-1.13,1.13-2.31,1.72-3.39.11-.16.16-.27.33-.27a.34.34,0,0,1,.32.27l.75,1.4c.11.11.11.27,0,.32a.25.25,0,0,1-.43,0s-.1-.1-.1-.16c-.17-.27-.33-.59-.49-.81l-.11-.16-1,1.89L97,95a1.69,1.69,0,0,0,.75,2.37.72.72,0,0,0,.43.16,1.73,1.73,0,0,0,2.05-1.4v-.11a1.59,1.59,0,0,0-.16-1.13,10.32,10.32,0,0,0-.59-1.08c-.11-.27-.11-.43.11-.49s.32,0,.43.17a12.18,12.18,0,0,1,.64,1.24,2.36,2.36,0,0,1-1.07,3,2,2,0,0,1-2.32-.11,2.37,2.37,0,0,1-1.13-2.16C96.38,95.51,96.44,95.19,96.6,94.86Z" transform="translate(1.5 1.5)" fill="#bdc3c7"/><path d="M104.9,89.37a2.18,2.18,0,0,1,.27-1c.48-1.14,1.08-2.22,1.56-3.4.11-.16.16-.27.33-.27a.34.34,0,0,1,.32.27l.75,1.29c.11.11.11.27,0,.33a.34.34,0,0,1-.43.1.1.1,0,0,1-.1-.1c-.17-.27-.33-.6-.49-.81l-.11-.16-.91,1.88-.49,1.08a1.76,1.76,0,0,0,.81,2.32,1.26,1.26,0,0,0,.43.16,1.73,1.73,0,0,0,2-1.46h0a1.12,1.12,0,0,0-.27-1.07c-.17-.33-.44-.65-.6-1a.32.32,0,0,1,.11-.49c.16-.11.32,0,.43.16.27.43.43.76.65,1.14a2.27,2.27,0,0,1-.92,3,2.22,2.22,0,0,1-2.32.11A3.06,3.06,0,0,1,104.9,89.37Z" transform="translate(1.5 1.5)" fill="#bdc3c7"/><path d="M111.53,95a2.18,2.18,0,0,1,.27-1c.59-1.14,1.13-2.32,1.73-3.4.1-.16.16-.27.32-.27a.34.34,0,0,1,.32.27l.76,1.4c.1.11.1.27,0,.32a.24.24,0,0,1-.43,0s-.11-.1-.11-.16c-.16-.27-.33-.59-.43-.81l-.11-.16-1,1.89-.59,1.08a1.69,1.69,0,0,0,.75,2.37.7.7,0,0,0,.43.16,1.74,1.74,0,0,0,2-1.4v-.11a1.59,1.59,0,0,0-.16-1.13c-.16-.32-.33-.65-.59-1.08-.11-.27-.11-.43.1-.48a.33.33,0,0,1,.43.16A12.3,12.3,0,0,1,116,94a2.36,2.36,0,0,1-1.08,3,2,2,0,0,1-2.32-.11C111.91,96.75,111.53,95.94,111.53,95Z" transform="translate(1.5 1.5)" fill="#bdc3c7"/><path d="M113.9,83a2,2,0,0,1,.33-1.13c.64-1.29,1.4-2.69,2-4,.11-.16.17-.32.44-.32s.32.16.43.32c.32.59.59,1.13.91,1.67a.32.32,0,0,1,0,.43.3.3,0,0,1-.48,0c-.11,0-.11-.11-.11-.16l-.48-1c-.11,0-.11-.11-.17-.11l-1.13,2.21L115,82.2a2,2,0,0,0,.92,2.85.84.84,0,0,0,.49.16,2.08,2.08,0,0,0,2.48-1.67v-.1a1.6,1.6,0,0,0-.27-1.3A9.69,9.69,0,0,1,118,80.9a.38.38,0,0,1,.11-.59.33.33,0,0,1,.48.27c.27.48.49.91.76,1.4a2.9,2.9,0,0,1-1.24,3.61,2.62,2.62,0,0,1-2.81-.11A2.74,2.74,0,0,1,113.9,83Z" transform="translate(1.5 1.5)" fill="#bdc3c7"/><path d="M123,92.33a2.22,2.22,0,0,1,.27-1c.59-1.13,1.13-2.32,1.72-3.4.11-.16.17-.27.33-.27s.27.17.32.27l.76,1.41a.21.21,0,0,1,0,.32.26.26,0,0,1-.44,0s-.1-.11-.1-.16c-.16-.27-.33-.6-.43-.81l-.11-.16-1,1.88-.6,1.08a1.85,1.85,0,0,0,.76,2.48,1.26,1.26,0,0,0,.43.16,1.73,1.73,0,0,0,2-1.4v-.11a1.59,1.59,0,0,0-.16-1.13,11.82,11.82,0,0,0-.6-1.08c-.1-.27-.1-.43.11-.48s.33,0,.43.16c.27.43.43.81.65,1.24a2.36,2.36,0,0,1-1.08,3,2,2,0,0,1-2.32-.11A2.16,2.16,0,0,1,123,92.33Z" transform="translate(1.5 1.5)" fill="#bdc3c7"/><path d="M162.8,136.75a1.76,1.76,0,0,0-2.48,1c-.81,1.46-1.56,3-2.32,4.42a8.06,8.06,0,0,1-.59.92c-1.83-2.21-3.61-4.26-5.18-6.52-7.92-10.78-13.42-22.7-17.79-35.31a3.34,3.34,0,0,1-.16-1.24V93.3a1.74,1.74,0,0,0-1.89-1.56,1.7,1.7,0,0,0-1.56,1.88v5.66H92.55V93.73a1.78,1.78,0,0,0-1.72-2c-1,0-1.67.75-1.67,2v6.36a10.52,10.52,0,0,1-.16,1.24,179.33,179.33,0,0,1-13.43,29.22,61.56,61.56,0,0,1-8.3,11.38c-.32.32-.75.65-1.13,1.08-.49-1.41-.92-2.65-1.3-3.89-.75-2-2.15-2.31-3.55-.64v1.13c.8,2.21,1.56,4.37,2.37,6.58a1.76,1.76,0,0,0,1.88,1.29h92.52a1.7,1.7,0,0,0,1.72-1.08c1.24-2.37,2.48-4.8,3.72-7.17A1.8,1.8,0,0,0,162.8,136.75Zm-55.74,6.36c-.76-1.67-1.46-3.28-2.21-5a.2.2,0,0,0-.11-.16,1.69,1.69,0,0,0-2.16-.91.43.43,0,0,0-.32.16,1.67,1.67,0,0,0-.6,2.32c.65,1.45,1.3,3,2,4.63H70.13c0-.16,0-.27.11-.27,5.44-5.93,9.32-12.77,12.83-19.84a199.14,199.14,0,0,0,8.73-20.32,1.14,1.14,0,0,1,1.24-.92h37.31a2.14,2.14,0,0,1-.17.65c-4.36,10.51-9.05,20.92-15.31,30.51a41.66,41.66,0,0,1-7.06,8.63C107.54,142.79,107.33,143,107.06,143.11Zm23.77,1H111.26c8.73-9.81,14.07-21.4,19.57-33.26Zm3.56,0V111.25c5.12,11.76,10.94,23.08,19.57,32.83Z" transform="translate(1.5 1.5)" fill="#bdc3c7"/></svg>