<svg id="Layer_1" data-name="Layer 1" xmlns="http://www.w3.org/2000/svg" viewBox="0 0 228 228"><rect x="1.5" y="1.5" width="225" height="225" rx="85" fill="#041519" stroke="#666" stroke-miterlimit="10" stroke-width="3"/><path d="M96.23,109.44a4,4,0,0,1,.52,1.32v30.89c0,1.74-.89,2.9-2.32,3.11a2.73,2.73,0,0,1-3.11-2.26c0-.27-.1-.43,0-.69V111.39a3,3,0,0,1,1.16-2.53A2.56,2.56,0,0,1,96.23,109.44Z" transform="translate(1.5 1.5)" fill="#bdc3c7"/><path d="M104,134.48a2.77,2.77,0,0,1,.1.9v20.93c-.15,1.16-1.26,1.84-2.74,1.84s-2.58-.84-2.58-1.89V135c0-1.32,1.16-2.11,2.85-2A2.37,2.37,0,0,1,104,134.48Z" transform="translate(1.5 1.5)" fill="#bdc3c7"/><path d="M111.67,121.36a1.72,1.72,0,0,1,.11.89v20.93c-.16,1.16-1.27,1.85-2.74,1.85s-2.59-.85-2.59-1.9V122c0-1.32,1.16-2.11,2.85-2A2.41,2.41,0,0,1,111.67,121.36Z" transform="translate(1.5 1.5)" fill="#bdc3c7"/><path d="M119.21,130.05a3.45,3.45,0,0,1,.11,1.27v27.47a2.59,2.59,0,0,1-2.75,2.42h0a2.39,2.39,0,0,1-2.58-2.42V130.85a2.52,2.52,0,0,1,2.32-2.69h.58A2.51,2.51,0,0,1,119.21,130.05Z" transform="translate(1.5 1.5)" fill="#bdc3c7"/><path d="M126.7,122.52a2.71,2.71,0,0,1,.1.89v20.93c-.16,1.16-1.26,1.85-2.74,1.85s-2.58-.85-2.58-1.9V123.15c0-1.32,1.16-2.11,2.84-2A2.38,2.38,0,0,1,126.7,122.52Z" transform="translate(1.5 1.5)" fill="#bdc3c7"/><path d="M134.66,122.78h0v10.75c0,.85-.53,1.53-1.69,1.85a3.57,3.57,0,0,1-2.85-.32,1.92,1.92,0,0,1-1-1.74V112.13a2.15,2.15,0,0,1,2.32-2.16c1.74-.16,3.11.68,3.11,2.11v10.7Z" transform="translate(1.5 1.5)" fill="#bdc3c7"/><path d="M162.44,111.45a23.66,23.66,0,0,1-10.18,17.76A20.3,20.3,0,0,1,140.67,133h-.11a2.61,2.61,0,0,1-2.74-2.68v-2.85h.84c12,.84,19.56-10.28,18.35-20.72a18.67,18.67,0,0,0-9.28-14.6.55.55,0,0,0-.32-.16c-1-.26-1.26-.84-1.26-1.9a22.36,22.36,0,0,0-14-19.61c-8.91-3.27-18.72.26-24.15,8.7a24.47,24.47,0,0,0-3.43,9.17c0,.27-.1.42-.15.85-4.43-2.43-8.75-2.69-12.87.42-3.9,2.9-5.43,7.11-5.11,11.86a21.72,21.72,0,0,0-4.16-1.16A11.66,11.66,0,0,0,71.61,104c-6.28,6.43-4.54,18.14,3.32,22.2a12.71,12.71,0,0,0,5.85,1.26h4.59a2.76,2.76,0,0,1,2.74,2.74,2.54,2.54,0,0,1-.85,1.9,2.61,2.61,0,0,1-1.89.84H81.15a18.53,18.53,0,0,1-18.56-16.34,5,5,0,0,1-.16-.84v-4.43c.16-.9.43-1.85.58-2.74A18.4,18.4,0,0,1,81,94.47c.74,0,.84-.42,1-.9A17.74,17.74,0,0,1,92.27,82.82a14.27,14.27,0,0,1,7.43-1,1,1,0,0,0,1.27-.74c3.22-8.07,8.8-13.65,17.08-16.24,11.76-3.58,24.57,2.16,30.42,13.55a30.63,30.63,0,0,1,2.85,8.75,2,2,0,0,0,.73,1.16C160,94.05,163.28,101.8,162.44,111.45Z" transform="translate(1.5 1.5)" fill="#bdc3c7"/></svg>