<svg id="Layer_1" data-name="Layer 1" xmlns="http://www.w3.org/2000/svg" viewBox="0 0 189.94 184.83"><title>icon_4</title><path d="M64.1,86.61a7.54,7.54,0,0,1,1,2.5v58.6c0,3.3-1.7,5.5-4.4,5.9a5.19,5.19,0,0,1-5.9-4.3c0-.5-.2-.8,0-1.3V90.31a5.64,5.64,0,0,1,2.2-4.8,4.84,4.84,0,0,1,6.8.68C63.9,86.33,64,86.47,64.1,86.61Z" transform="translate(0 0)" fill="#14697f"/><path d="M78.9,134.11a5.15,5.15,0,0,1,.2,1.7v39.7c-.3,2.2-2.4,3.5-5.2,3.5s-4.9-1.6-4.9-3.6v-40.3c0-2.5,2.2-4,5.4-3.8A4.54,4.54,0,0,1,78.9,134.11Z" transform="translate(0 0)" fill="#14697f"/><path d="M93.4,109.21a3.4,3.4,0,0,1,.2,1.7v39.7c-.3,2.2-2.4,3.5-5.2,3.5s-4.9-1.6-4.9-3.6v-40.1c0-2.5,2.2-4,5.4-3.8A4.61,4.61,0,0,1,93.4,109.21Z" transform="translate(0 0)" fill="#14697f"/><path d="M107.7,125.71a6.47,6.47,0,0,1,.2,2.4v52.1a4.9,4.9,0,0,1-5.2,4.6h0a4.55,4.55,0,0,1-4.89-4.17c0-.14,0-.28,0-.43v-53a4.78,4.78,0,0,1,4.4-5.1h1.1A4.78,4.78,0,0,1,107.7,125.71Z" transform="translate(0 0)" fill="#14697f"/><path d="M121.9,111.41a5.15,5.15,0,0,1,.2,1.7v39.7c-.3,2.2-2.4,3.5-5.2,3.5s-4.9-1.6-4.9-3.6v-40.1c0-2.5,2.2-4,5.4-3.8A4.51,4.51,0,0,1,121.9,111.41Z" transform="translate(0 0)" fill="#14697f"/><path d="M137,111.91h0v20.4c0,1.6-1,2.9-3.2,3.5a6.8,6.8,0,0,1-5.4-.6,3.65,3.65,0,0,1-1.9-3.3V91.71c0-2.4,1.7-4,4.4-4.1,3.3-.3,5.9,1.3,5.9,4v20.3Z" transform="translate(0 0)" fill="#14697f"/><path d="M189.7,90.41a44.88,44.88,0,0,1-19.3,33.7,38.71,38.71,0,0,1-22,7.1h-.2a5,5,0,0,1-5.2-4.79v-5.71h1.6c22.8,1.6,37.1-19.5,34.8-39.3-1.4-12-7.1-21.4-17.6-27.7a1.11,1.11,0,0,0-.6-.3c-1.9-.5-2.4-1.6-2.4-3.6-.6-16.2-11.7-31.7-26.6-37.2-16.9-6.2-35.5.5-45.8,16.5a46.3,46.3,0,0,0-6.5,17.4c0,.5-.2.8-.3,1.6-8.4-4.6-16.6-5.1-24.4.8-7.4,5.5-10.3,13.5-9.7,22.5a41.73,41.73,0,0,0-7.9-2.2,22.14,22.14,0,0,0-20.2,7.1c-11.9,12.2-8.6,34.4,6.3,42.1a23.93,23.93,0,0,0,11.1,2.4h8.7a5.23,5.23,0,0,1,5.2,5.2,4.85,4.85,0,0,1-1.6,3.6,5,5,0,0,1-3.6,1.6h-8a35.17,35.17,0,0,1-35.2-31,7.29,7.29,0,0,1-.3-1.6v-8.4c.3-1.7.8-3.5,1.1-5.2a34.89,34.89,0,0,1,34.1-26.8c1.4,0,1.6-.8,1.9-1.7a33.61,33.61,0,0,1,19.5-20.4,27.11,27.11,0,0,1,14.1-1.9A1.86,1.86,0,0,0,73.05,33a1.6,1.6,0,0,0,0-.21C79.2,17.51,89.8,6.91,105.5,2c22.3-6.8,46.6,4.1,57.7,25.7a57.79,57.79,0,0,1,5.4,16.6,3.8,3.8,0,0,0,1.4,2.2C185,57.41,191.3,72.11,189.7,90.41Z" transform="translate(0 0)" fill="#14697f"/></svg>