<svg id="Layer_1" data-name="Layer 1" xmlns="http://www.w3.org/2000/svg" viewBox="0 0 190.15 189.89"><title>icon_9</title><path d="M151.5,96.47" transform="translate(0 0.02)" fill="#14697f"/><path d="M130.5,33a4,4,0,0,1,.3-3.2,134.78,134.78,0,0,1,10-10,3,3,0,0,1,4.22.4l.08.1a2.78,2.78,0,0,1,0,3.8c-3.2,3.5-6.7,6.9-10,10a5.57,5.57,0,0,1-2.2,1C131.9,34.47,130.8,33.77,130.5,33Z" transform="translate(0 0.02)" fill="#14697f"/><path d="M152.8,75.27c-11.5-26.9-31.5-43.2-60.3-48.8-3.2-.6-6.7-.8-9.9-1.3-.2-.2-.2-.3-.2-.3v-5.3c0-2.4-1.3-3.8-3.2-3.8s-3.2,1.4-3.2,3.8V25a128.51,128.51,0,0,0-14.2,2.2Q14.4,39.36,2.1,86.67C1,90.67.7,95,0,99.07v12.7c.2.2.3.3.5.3a3.12,3.12,0,0,0,3.8,1.4,3.2,3.2,0,0,0,2.2-3.3v-3.3a3.44,3.44,0,0,1,.8-2.1,19.91,19.91,0,0,1,27.6-2.2c2.2,1.8,3.8,3.7,3.2,6.7v1.6a3,3,0,0,0,3,3h.21a3.08,3.08,0,0,0,3-3,9.15,9.15,0,0,0,0-3.3,3.48,3.48,0,0,1,1.4-3.2,6,6,0,0,0,.8-.8,20,20,0,0,1,28.27,1l0,0a5.17,5.17,0,0,1,1.3,2.9V133c-2.5.3-6.1-.8-6.2,3-.2,4.3,3.7,3.2,6.1,3.5v6.4H69.8v21c0,1.9-.6,3.5-2.4,4s-3-.5-3.8-2.1l-.2-.3a9.35,9.35,0,0,0-8.9-3.8,9.52,9.52,0,0,0-8.1,10.7c1,4.9,4.1,8.4,8.3,10.8a80.31,80.31,0,0,0,9.2,3.7h5.8a1.22,1.22,0,0,1,.5-.3c12.1-2.5,19-10.8,19-23.3v-20.9H82.8v-39a2.72,2.72,0,0,1,.8-1.8,19.9,19.9,0,0,1,27.9-2.1c2.1,1.6,3.3,3.5,2.9,6.2v1.8a3.06,3.06,0,0,0,2.5,2.5,3.18,3.18,0,0,0,3.7-2.5,26.7,26.7,0,0,1,0-4,3.44,3.44,0,0,1,.8-2.1,19.92,19.92,0,0,1,27.2-2.5c2.5,1.8,4.3,3.8,3.7,7.2v1.1a3.2,3.2,0,0,0,6.4,0h0C158.9,98.37,157.6,86.47,152.8,75.27ZM38.3,97c-10.4-6.9-20.7-7.2-31.3-.3a73.36,73.36,0,0,1,55-63C45,51.67,40.2,73.57,38.3,97Zm37.8,0a28.42,28.42,0,0,0-15.6-5.3,27.79,27.79,0,0,0-15.8,5.1c.2-2.7.3-5.1.6-7.3a99.9,99.9,0,0,1,10.4-36.6c3.7-7.2,8.3-13.5,15.3-17.8,1.6-1,3.2-1.6,5.3-2.7V97Zm6.5,54.9v8.9a49,49,0,0,1-.5,10.2,15.55,15.55,0,0,1-12.7,12.3,15.73,15.73,0,0,1-15.9-6.9c-1.3-1.9-1.1-3.5.3-4.8s3.3-.8,4.8,1.1a9.81,9.81,0,0,0,8,4.5,9.44,9.44,0,0,0,9.6-9.26V152ZM82.5,97l-.2-64.3c1,.5,1.9.6,2.7,1.1a35.42,35.42,0,0,1,14.3,13.4c6.9,10.4,10.5,22,12.6,34,.8,5.1,1.3,10.2,2.1,15.9C103.3,90,93,90,82.5,97Zm37.9.1c-1.9-23.4-6.7-45.3-23.4-63,25,5.3,51.2,29.1,54.6,62.5C141,89.77,130.7,90.07,120.4,97.07Z" transform="translate(0 0.02)" fill="#14697f"/><path d="M149.5,13.87a3.32,3.32,0,0,1,.3-3.2,134.78,134.78,0,0,1,10-10,3,3,0,0,1,4.22.4l.08.1a2.78,2.78,0,0,1,0,3.8c-3.2,3.5-6.7,6.7-10,10a5.9,5.9,0,0,1-2.1,1C151,15.27,149.8,14.87,149.5,13.87Z" transform="translate(0 0.02)" fill="#14697f"/><path d="M168.4,50.37a9.8,9.8,0,0,1-1.8,2.7c-2.9,3-5.9,5.9-8.8,8.8a3.21,3.21,0,1,1-5.1-3.9c.2-.2.3-.5.6-.6,3-3,5.9-6.1,8.9-8.9a3,3,0,0,1,3.7-.8A10.37,10.37,0,0,1,168.4,50.37Z" transform="translate(0 0.02)" fill="#14697f"/><path d="M171.6,21.87a23.37,23.37,0,0,1-1.8,2.9c-2.9,3-5.9,5.9-8.8,8.8a3.11,3.11,0,0,1-4.34.72l-.16-.12c-.2,0-.2-.2-.3-.3-1.4-1.3-1.3-3.2.3-4.8,3-3,5.9-6.1,8.9-8.9a2.81,2.81,0,0,1,3.5-.8A10.71,10.71,0,0,1,171.6,21.87Z" transform="translate(0 0.02)" fill="#14697f"/><path d="M174.8,13.87a3.32,3.32,0,0,1,.3-3.2,134.78,134.78,0,0,1,10-10,3,3,0,0,1,4.22.4l.08.1a2.78,2.78,0,0,1,0,3.8c-3.2,3.5-6.7,6.7-10,10a5.9,5.9,0,0,1-2.1,1C176.4,15.27,175.1,14.87,174.8,13.87Z" transform="translate(0 0.02)" fill="#14697f"/><path d="M189.4,26.57a3.15,3.15,0,0,1,0,3.7q-5,5.25-10.2,10.2a13.34,13.34,0,0,1-2.1.8c-.8-.6-1.9-1.1-2.2-2.1a3.61,3.61,0,0,1,.2-3.2c3.2-3.5,6.5-6.9,10-10.2A3.34,3.34,0,0,1,189.4,26.57Z" transform="translate(0 0.02)" fill="#14697f"/></svg>