<svg id="Layer_1" data-name="Layer 1" xmlns="http://www.w3.org/2000/svg" viewBox="0 0 228 228"><rect x="1.5" y="1.5" width="225" height="225" rx="85" fill="#041519" stroke="#666" stroke-miterlimit="10" stroke-width="3"/><path d="M83.54,111.49a1.89,1.89,0,0,1,1.85-1.94,1.86,1.86,0,0,1,1.84,1.94,1.81,1.81,0,0,1-1.84,1.85A1.91,1.91,0,0,1,83.54,111.49Z" transform="translate(1.5 1.5)" fill="#bdc3c7"/><path d="M88.57,109.6a1.9,1.9,0,0,1,.41-2.67c.1,0,.1-.1.15-.1l8.1-5.13c1.39-.82,2.93.1,2.93,2a4.85,4.85,0,0,1-1,1.28c-2.66,1.69-5.38,3.44-8.05,5.13A1.75,1.75,0,0,1,88.57,109.6Z" transform="translate(1.5 1.5)" fill="#bdc3c7"/><path d="M131.13,132.62a2,2,0,0,1-.72,2.62c-.1,0-.1.1-.15.1l-8.21,4.56a3.85,3.85,0,0,1-.87.31,1.89,1.89,0,0,1-1-3.54c1.38-.82,2.66-1.54,4.05-2.25s2.82-1.64,4.2-2.36a2,2,0,0,1,2.67.56Z" transform="translate(1.5 1.5)" fill="#bdc3c7"/><path d="M136.16,130.83a2,2,0,0,1-1.95,1.95,1.9,1.9,0,1,1,.1-3.8A1.75,1.75,0,0,1,136.16,130.83Z" transform="translate(1.5 1.5)" fill="#bdc3c7"/><path d="M159.9,67.7a6.08,6.08,0,0,0,1.28-1.49V65c-1.13-1.38-1.79-1.54-3.23-.72q-27.69,13.93-55.33,27.8c-.82.41-1.54.87-1.54,2a1.85,1.85,0,0,0,1.49,1.84c3.18,1.7,6.41,3.44,9.59,5.13.3.16.66.31,1.07.57a8.93,8.93,0,0,1-1.07.66c-7.9,5-15.75,9.9-23.64,15-2,1.23-1.85,2.82.1,3.89l10.72,5.7a4.64,4.64,0,0,1,1,.56,9.38,9.38,0,0,1-.82.72L65,157.49c-1.64,1.39-1.54,2.67.3,3.75h1.08L68.57,160Q96.26,144.54,124,129.24c.82-.52,1.64-.87,1.64-2.05s-.82-1.65-1.69-2.06c-2.61-1.38-5.28-2.76-7.9-4.15-.87-.51-1.69-.87-2.66-1.49l6.15-4,19.85-12.77c1.69-1.12,1.64-2.76-.16-3.64-.82-.51-1.64-.82-2.46-1.28l-7.08-3.64a8.58,8.58,0,0,0,.88-.72C140.26,84.93,150.05,76.31,159.9,67.7ZM126,96.67l8.62,4.47a9.91,9.91,0,0,1-1.08.71L109,117.6l-.41.3c-1.54,1.08-1.54,2.67.15,3.59,3.23,1.8,6.51,3.49,9.75,5.18.3.16.56.31,1,.57L82.36,147.85l-.15-.15,3.23-2.77c6.15-5.28,12.25-10.56,18.51-15.69,2.21-1.85,2-3.34-.51-4.57-3.33-1.64-6.57-3.48-9.85-5.18a9.16,9.16,0,0,1-1-.56l9.43-6,15.29-9.49.51-.3c1.54-1.08,1.49-2.67-.16-3.59-3.07-1.7-6.15-3.34-9.33-5a5.8,5.8,0,0,1-1.13-.66l38.93-19.49.15.15L141,79.24,125.54,92.78C123.75,94.26,123.9,95.65,126,96.67Z" transform="translate(1.5 1.5)" fill="#bdc3c7"/></svg>