<svg id="Layer_1" data-name="Layer 1" xmlns="http://www.w3.org/2000/svg" viewBox="0 0 156.58 190.06"><title>icon_7</title><path d="M78.07.06c-5.5,5.9-14.7,22.3-14.7,30.4v.2a14.63,14.63,0,0,0,14.68,14.6h0a14.66,14.66,0,0,0,14.7-14.62v-.08C92.77,22.56,79.27-1.34,78.07.06Zm9.5,30.6a9.56,9.56,0,0,1-9.5,9.5h-.3a9.56,9.56,0,0,1-9.5-9.5c0-5.2,5.7-20.1,10-23.1C79.27,6.76,87.57,25.26,87.57,30.66Z" transform="translate(0 0)" fill="#14697f"/><path d="M148.27,164.26c-7.4,8.9-17.1,14.4-27.7,18.4a114.07,114.07,0,0,1-34,7.1,18.62,18.62,0,0,0-2.1.3H71.67c-3.3-.3-6.6-.6-10-1.1-14.6-1.9-28.3-5.9-40.8-13.6a81.92,81.92,0,0,1-7.8-5.7,2.56,2.56,0,1,1,2.34-4.56,2.26,2.26,0,0,1,.26.16c.2.2.5.3.6.5,10.6,9.2,23.3,14.1,36.9,16.8a120.42,120.42,0,0,0,63-3.6c9.8-3.3,19-8.1,26.3-15.7,5.1-5.2,8.5-11.1,8.9-18.5s-2.5-13.8-7.3-19.2c-6.3-7.3-14.4-12-23.1-15.7a103.32,103.32,0,0,0-26.7-7,.54.54,0,0,0-.5.2,19.84,19.84,0,0,1,1.1,2.7,17.58,17.58,0,0,0,9.7,8.5,35.6,35.6,0,0,1,14.4,9.5,40.74,40.74,0,0,1,4.9,7.6,2.44,2.44,0,0,1-.9,3.2.38.38,0,0,0-.3.2,2.39,2.39,0,0,1-3.2-1.1h0c0-.2-.2-.2-.2-.3a25.05,25.05,0,0,0-10.4-11.2,54,54,0,0,0-6.8-3.3c-9.2-4.3-14.1-11.6-14.2-21.7-.2-8.7,0-17.4,0-26.1a9.58,9.58,0,0,0-9.3-9.8,9.46,9.46,0,0,0-9.8,9.11V96.16a27.78,27.78,0,0,1-1.7,9.8,22.48,22.48,0,0,1-12.5,12.8,45.12,45.12,0,0,0-11.9,7,5.21,5.21,0,0,0-1.1,1.1c-7.3,7.3-7.1,16,.5,23a42.31,42.31,0,0,0,17.7,9.2,68.7,68.7,0,0,0,44.3-2.5,31.37,31.37,0,0,0,11.4-7.6,32.29,32.29,0,0,0,4.1-6.3c.9-1.7,2.1-2.5,3.5-2.1,1.4.6,2.1,1.9,1.3,3.8a25.29,25.29,0,0,1-9.7,12,53.49,53.49,0,0,1-24.4,9.3,74,74,0,0,1-37-3.3,42.06,42.06,0,0,1-14.9-8.9c-9.8-9.2-9.8-21.7.2-30.9a44.77,44.77,0,0,1,13.3-8.2,17.68,17.68,0,0,0,10.3-10.1,7.78,7.78,0,0,0,.5-1.4c-3.5.6-6.6,1.1-9.8,1.7a82.67,82.67,0,0,0-32.1,13.3,39.37,39.37,0,0,0-12,12.7c-5.1,8.9-5.1,17.6.2,26.4a9.65,9.65,0,0,1,.8,1.3,2.55,2.55,0,0,1-.6,3.5h0a2.38,2.38,0,0,1-3.3-.5s-.2-.2-.2-.3a29.49,29.49,0,0,1-5.2-13.3c-1.9-10.8,2.1-19.5,9-27.1,7.8-8.2,17.4-13.5,27.9-17.3a115.29,115.29,0,0,1,26-5.9c0-.6.2-1.3.2-2.1V71.16a14.7,14.7,0,0,1,29.4-.6c.2,8.4,0,16.6,0,25v1.7c4.4.8,8.7,1.4,13,2.4,13.3,3,25.6,7.8,36.2,16.5,6.5,5.4,11.6,11.9,13.6,20.3C158.17,146.86,155.07,156,148.27,164.26Z" transform="translate(0 0)" fill="#14697f"/></svg>