<svg id="Layer_1" data-name="Layer 1" xmlns="http://www.w3.org/2000/svg" viewBox="0 0 190 72.08"><title>icon_6</title><path d="M28.3,16.6c0-1.5.7-2.2,2.1-2.2a21.39,21.39,0,0,0,9.4-1.8c3.5-1.8,6-4.7,6.1-10.3,0-1.3.6-2.1,1.5-2.2s1.6.7,1.6,2c.2,7.3,3.8,9.9,8.1,11.4a18.77,18.77,0,0,0,13.4-.4,9,9,0,0,0,5.3-4.6,24.39,24.39,0,0,0,1.4-5.9c.2-1.4.6-2.5,1.6-2.5s1.6,1.1,1.6,2.5c.1,4.6,1.9,7.6,4.8,9.4a16.75,16.75,0,0,0,17.4.2c2.9-1.6,4.9-4.6,4.9-9.4,0-1.5.5-2.7,1.6-2.7s1.6,1.1,1.6,2.6c.1,4,1.4,6.9,4,8.6,6.3,4.1,12.8,4.2,19.2.2,2.6-1.6,4-4.6,4.1-8.7,0-1.9.7-2.8,1.6-2.8s1.5.9,1.6,2.8a10.44,10.44,0,0,0,4.3,8.7c3.4,2.4,7.2,2.8,10.9,2.8a2.3,2.3,0,0,1,2.4,1.5l-.1,1.8a8.43,8.43,0,0,1-2.7,1.3,21.44,21.44,0,0,1-10.5-2.2,14.6,14.6,0,0,1-6.1-6.2c-5.5,11.2-24.9,11.3-30.7.1-5.6,11.2-24.6,11-30.4,0-4,6.9-9.8,8.3-15.5,8.3s-11.6-1.3-15.6-8.2H47c-3.1,5.5-7.5,7.2-12.2,7.9a16.16,16.16,0,0,1-4.9.4C29.1,19,28.3,18.4,28.3,16.6Z" transform="translate(0 0)" fill="#14697f"/><path d="M26.8,36.9c-6.5,7.6-15.3,8.3-24.3,8.2A2.25,2.25,0,0,1,0,43.2v-.4c0-1.3,1.1-2.1,2.7-2.4,4.2-.5,8.6-.8,12.8-1.5a10.17,10.17,0,0,0,6.8-4.3,15.63,15.63,0,0,0,2.1-5.8c.4-1.5.8-2.6,2.4-2.6a2.4,2.4,0,0,1,2.42,2.38c0,.11,0,.21,0,.32a9.51,9.51,0,0,0,6.3,9,33.5,33.5,0,0,0,26,.2,9.9,9.9,0,0,0,6.7-9.6,2.29,2.29,0,0,1,2-2.4h.2a1.94,1.94,0,0,1,2.2,1.6v.2c.2,7.3,5.1,10,11.2,11.4a32.77,32.77,0,0,0,18.1-.6c3.9-1.3,7.2-3.4,8.3-7.6a26.58,26.58,0,0,0,.4-2.8,2.3,2.3,0,0,1,4.6-.2v.2c.1,4.9,2.8,8,7.1,9.6a31.07,31.07,0,0,0,23.4.2c4.5-1.6,7.4-4.7,7.5-9.8a2.22,2.22,0,0,1,1.9-2.5,2,2,0,0,1,.6,0c1.7.1,2.1,1.2,2.1,2.6.1,4.3,2.5,7.3,6.3,9A30.43,30.43,0,0,0,177.7,40h1.1c2.2,0,3.4.7,3.4,2.2s-1.1,2.4-3.3,2.4a40.9,40.9,0,0,1-14.8-2.2,17.15,17.15,0,0,1-8.3-6.2c-7.8,11.2-34.4,11.3-42.5.2a31,31,0,0,1-42.4,0C58.7,48.2,37.8,48.2,26.8,36.9Z" transform="translate(0 0)" fill="#14697f"/><path d="M190,69.3c0,1.5-.9,2.4-2.8,2.4a31,31,0,0,1-12.7-2.2,15.8,15.8,0,0,1-7.2-6.1c-6.6,11.2-29.3,11.3-36.2.2C120.9,74.8,105,74.8,95,63.6c-10,11.3-27.7,11.3-37,0-5.5,7.6-12.9,8.3-20.7,8.2-1.2,0-2.1-.7-2.1-2.4A2.39,2.39,0,0,1,37.3,67h.1c3.6-.5,7.3-.8,10.9-1.5a8.7,8.7,0,0,0,5.9-4.3A20.68,20.68,0,0,0,56,55.4c.2-1.5.7-2.6,2-2.6s2,1.2,2,2.7c.1,4.5,2.1,7.4,5.4,9a24.57,24.57,0,0,0,22.1.2c3.5-1.6,5.6-4.9,5.6-9.6,0-1.4.7-2.4,1.9-2.4a1.78,1.78,0,0,1,1.9,1.6v.2c.2,7.3,4.3,10,9.5,11.4a23.84,23.84,0,0,0,15.4-.6c3.3-1.3,6.1-3.4,7.1-7.6a26.58,26.58,0,0,1,.4-2.8c.1-1.4.8-2.2,2-2.2s1.8.9,1.9,2.4c.1,4.9,2.4,8,6,9.6a23.13,23.13,0,0,0,19.9.2c3.8-1.6,6.2-4.7,6.3-9.8,0-1.5.7-2.6,2.1-2.5s1.8,1.2,1.9,2.6a9.85,9.85,0,0,0,5.3,9,22.29,22.29,0,0,0,11.6,2.6h.9C189.1,67,190,67.7,190,69.3Z" transform="translate(0 0)" fill="#14697f"/></svg>