<svg id="Layer_1" data-name="Layer 1" xmlns="http://www.w3.org/2000/svg" viewBox="0 0 189.86 190.08"><title>icon_5</title><path d="M38.46,93.08a3.7,3.7,0,0,1,3.6-3.8h0a3.62,3.62,0,0,1,3.6,3.66v.14a3.52,3.52,0,0,1-3.44,3.6h-.16A3.72,3.72,0,0,1,38.46,93.08Z" transform="translate(0 0)" fill="#14697f"/><path d="M48.26,89.38A3.7,3.7,0,0,1,49,84.2l0,0c.2,0,.2-.2.3-.2l15.8-10c2.7-1.6,5.7.2,5.7,3.8a9.3,9.3,0,0,1-1.9,2.5c-5.2,3.3-10.5,6.7-15.7,10a3.42,3.42,0,0,1-4.79-.59Z" transform="translate(0 0)" fill="#14697f"/><path d="M131.26,134.28a3.89,3.89,0,0,1-1.4,5.1c-.2,0-.2.2-.3.2l-16,8.9a8.37,8.37,0,0,1-1.7.6,3.68,3.68,0,0,1-1.9-6.9c2.7-1.6,5.2-3,7.9-4.4s5.5-3.2,8.2-4.6a3.83,3.83,0,0,1,5.2,1.1Z" transform="translate(0 0)" fill="#14697f"/><path d="M141.06,130.78a3.8,3.8,0,0,1-3.8,3.8h0a3.7,3.7,0,0,1,.2-7.4,3.41,3.41,0,0,1,3.6,3.21A2.54,2.54,0,0,1,141.06,130.78Z" transform="translate(0 0)" fill="#14697f"/><path d="M187.36,7.68a12,12,0,0,0,2.5-2.9V2.38c-2.2-2.7-3.5-3-6.3-1.4q-54,27.15-107.9,54.2c-1.6.8-3,1.7-3,3.8a3.64,3.64,0,0,0,2.9,3.6c6.2,3.3,12.5,6.7,18.7,10a23.27,23.27,0,0,1,2.1,1.1,17.46,17.46,0,0,1-2.1,1.3c-15.4,9.7-30.7,19.3-46.1,29.2-3.8,2.4-3.6,5.5.2,7.6l20.9,11.1a9.49,9.49,0,0,1,1.9,1.1,16.36,16.36,0,0,1-1.6,1.4l-67.3,57.4c-3.2,2.7-3,5.2.6,7.3H5c1.4-.8,2.9-1.6,4.3-2.4q54-30.15,108.1-60c1.6-1,3.2-1.7,3.2-4s-1.6-3.2-3.3-4c-5.1-2.7-10.3-5.4-15.4-8.1-1.7-1-3.3-1.7-5.2-2.9l12-7.8L147.36,76c3.3-2.2,3.2-5.4-.3-7.1-1.6-1-3.2-1.6-4.8-2.5l-13.8-7.1a15.24,15.24,0,0,0,1.7-1.4C149.06,41.28,168.16,24.48,187.36,7.68Zm-66.2,56.5,16.8,8.7a19.65,19.65,0,0,1-2.1,1.4L88.16,105l-.8.6c-3,2.1-3,5.2.3,7,6.3,3.5,12.7,6.8,19,10.1a19.94,19.94,0,0,1,1.9,1.1L36.16,164l-.3-.3,6.3-5.4c12-10.3,23.9-20.6,36.1-30.6,4.3-3.6,3.8-6.5-1-8.9-6.5-3.2-12.8-6.8-19.2-10.1a19.94,19.94,0,0,1-1.9-1.1L74.56,96l29.8-18.5,1-.6c3-2.1,2.9-5.2-.3-7-6-3.3-12-6.5-18.2-9.7a11.07,11.07,0,0,1-2.2-1.3l75.9-38,.3.3-10.3,9-30.2,26.4C116.86,59.48,117.16,62.18,121.16,64.18Z" transform="translate(0 0)" fill="#14697f"/></svg>