<svg id="Layer_1" data-name="Layer 1" xmlns="http://www.w3.org/2000/svg" viewBox="0 0 189.96 183.46"><title>icon_2</title><path d="M120.24,142.72" transform="translate(0 0.01)" fill="#14697f"/><path d="M110.14,121.82a4.36,4.36,0,0,0-3.3-1.6c-6-.2-12,0-18.2,0h-2.4c.2-.8.2-1.1.3-1.6l4.8-19c.8-3-.3-4.8-3.2-4.8H63.54a2.92,2.92,0,0,0-3.3,2.4c-4.1,12.5-8.4,24.9-12.5,37.4-1,2.7.5,4.6,3.5,4.6h23.9a5.79,5.79,0,0,1-.3,1.7c-2.5,12.7-5.1,25.3-7.6,38-.3,1.9-.2,3.5,1.9,4.3a3.2,3.2,0,0,0,4.1-1.6c12.4-18.7,24.5-37.4,36.7-56.1A4.8,4.8,0,0,0,110.14,121.82Zm-32.9,42.1-.5-.2c.8-3.8,1.4-7.6,2.2-11.4,1-5.1,2.1-10,3-15,.6-2.9-.6-4.4-3.6-4.4H55c2.1-5.9,3.8-11.6,5.7-17.1,1.4-4.4,2.9-8.9,4.4-13.1a2.21,2.21,0,0,1,1.4-1.3h18.1c-.6,2.2-1.1,4.4-1.6,6.5-1.1,4.6-2.4,9.2-3.5,13.9-1,3.5.3,5.1,3.8,5.1h18.4Z" transform="translate(0 0.01)" fill="#14697f"/><path d="M117.24,9.82a44.48,44.48,0,0,1,0-7.3A2.53,2.53,0,0,1,119.77,0a2.22,2.22,0,0,1,.37,0h.2a2.76,2.76,0,0,1,3,2.51,1.21,1.21,0,0,1,0,.19h0v3.8h0v3.6a2.67,2.67,0,0,1-2.79,2.52l-.21,0h0a3.31,3.31,0,0,1-3.1-2.8Z" transform="translate(0 0.01)" fill="#14697f"/><path d="M135.34,162.32c-2.7-9.8-7.3-18.7-12.2-27.6-1.4-2.7-4.6-2.5-6,.3-3.2,6.2-6.3,12.2-9,18.5a99.42,99.42,0,0,0-3.6,11.7c-.2,12.8,10.1,20.6,20.3,17.4C133.44,180.22,137.84,171.82,135.34,162.32Zm-12.2,14.4a9,9,0,0,1-11.4-5.4,12.72,12.72,0,0,1-.3-7c1.6-7.6,5.2-14.4,8.9-21.7,3.8,7.4,7.4,14.6,9.2,22.3A9.56,9.56,0,0,1,123.14,176.72Z" transform="translate(0 0.01)" fill="#14697f"/><path d="M162.34,27.42a3,3,0,0,1-.16-4.24,1.21,1.21,0,0,1,.16-.16l.3-.3a70.26,70.26,0,0,1,6.2-6,4.25,4.25,0,0,1,3.5-.6c1,.3,1.4,1.7,2.2,2.7a17.25,17.25,0,0,1-1.7,2.7l-5.7,5.7C165.54,28.72,163.64,28.82,162.34,27.42Z" transform="translate(0 0.01)" fill="#14697f"/><path d="M169.34,80.92c-.2,0-.2,0-.2-.2a2.13,2.13,0,0,1-.64-2.94l0-.06a43.43,43.43,0,0,0,2.2-21.4A44.41,44.41,0,0,0,91.64,36L90,38.12c-15.5-8.9-31-9.8-45.6.6-13.9,9.8-18.8,23.8-15.8,40.9-.6.2-1.3.3-1.9.5-16.2,3-28.2,18.7-26.6,34.8,1.7,17.3,16,30.6,32.8,30.6a3.18,3.18,0,0,0,1.4-.2,3,3,0,0,0,2.4-3.5h0v-.2a3.09,3.09,0,0,0-3.3-2.7,26.4,26.4,0,0,1-26.9-24.1,26.7,26.7,0,0,1,24.18-29h0c5.1-.5,6-1.6,4.6-5.7a32.64,32.64,0,0,1,30.1-42.2c14.9-.5,26.9,7.1,33.1,20.7,1.1,2.5,2.5,3.2,5.1,2.2,14.7-5.7,29,1.4,33.4,16.5.8,2.5,1.9,3,4.4,3a55.3,55.3,0,0,1,12.2.3c11.7,2.7,19.6,10,22.8,21.7,3,11.7-.6,21.7-9.5,29.6a28.84,28.84,0,0,1-19.3,7.3c-2.4.2-3.8,1.3-3.8,3.2s1.4,3.2,4,3.2c1.4,0,3-.2,4.4-.3a36.29,36.29,0,0,0,30.4-26.6A35.81,35.81,0,0,0,169.34,80.92Zm-7.1-4.7c-4-.8-8.1-1.9-12-2.5a27.18,27.18,0,0,0-5.7-.2,2,2,0,0,1-2.46-1.4c0-.07,0-.13,0-.2a30,30,0,0,0-21.7-18.7,28.29,28.29,0,0,0-15,.3,2,2,0,0,1-2.62-1.07,1.55,1.55,0,0,1-.08-.23c-2.2-3.5-4.8-6.8-7.3-10.3,10-16,32.3-21.5,49.6-12.2C162.84,39.62,168.54,61,162.24,76.22Z" transform="translate(0 0.01)" fill="#14697f"/><path d="M189.94,63.52a2.72,2.72,0,0,1-2.4,2.7h-.1a48.21,48.21,0,0,1-7.6,0,2.76,2.76,0,0,1-2.5-2.9V63a2.89,2.89,0,0,1,2.7-3h7.2a2.72,2.72,0,0,1,2.72,2.7c0,.1,0,.2,0,.3Z" transform="translate(0 0.01)" fill="#14697f"/></svg>