<svg id="Layer_1" data-name="Layer 1" xmlns="http://www.w3.org/2000/svg" viewBox="0 0 228 228"><rect x="1.5" y="1.5" width="225" height="225" rx="85" fill="#041519" stroke="#666" stroke-miterlimit="10" stroke-width="3"/><path d="M105.44,113.85a3.57,3.57,0,0,1,.55,1.33v32.39c0,1.83-.94,3.05-2.43,3.27a2.88,2.88,0,0,1-3.26-2.38c0-.28-.11-.44,0-.72V115.9a2.85,2.85,0,0,1,1.22-2.65A2.72,2.72,0,0,1,105.44,113.85Z" transform="translate(1.5 1.5)" fill="#bdc3c7"/><path d="M117.6,122.26a5.85,5.85,0,0,1,.11,1.38v31.78a2.76,2.76,0,0,1-2.82,2.82h-.11a2.81,2.81,0,0,1-2.71-2.82V123.25c0-2,1.22-3.15,3-3A2.38,2.38,0,0,1,117.6,122.26Z" transform="translate(1.5 1.5)" fill="#bdc3c7"/><path d="M129.43,131.88h0V147.8a2.89,2.89,0,0,1-4.75,2.37,3.18,3.18,0,0,1-.94-2.65V116c0-1.82.94-3,2.43-3.26a2.76,2.76,0,0,1,3.26,2.38v16.75Z" transform="translate(1.5 1.5)" fill="#bdc3c7"/><path d="M164.87,116.56a24.82,24.82,0,0,1-10.67,18.63A21.48,21.48,0,0,1,142,139.12c-2.55.11-5.09,0-7.69,0v-5.81c1.94,0,3.87-.11,5.7,0,12.6.89,20.5-10.78,19.23-21.72a19.49,19.49,0,0,0-9.73-15.32.58.58,0,0,0-.33-.16c-1.05-.28-1.32-.89-1.32-2a23.46,23.46,0,0,0-14.71-20.57c-9.34-3.42-19.62.28-25.32,9.13a25.64,25.64,0,0,0-3.59,9.61c0,.28-.11.45-.17.89-4.64-2.54-9.17-2.82-13.48.44-4.1,3-5.7,7.46-5.37,12.44a23.64,23.64,0,0,0-4.36-1.22,12.35,12.35,0,0,0-11.23,3.93c-6.57,6.74-4.75,19,3.49,23.38a13.26,13.26,0,0,0,6.13,1.33h16.2v5.8H79.62a19.53,19.53,0,0,1-19.45-17.13,4.65,4.65,0,0,0-.17-.89v-4.53c.17-.94.44-1.94.61-2.88A19.14,19.14,0,0,1,79.4,99c.78,0,.89-.44,1-.94A18.72,18.72,0,0,1,91.23,86.71a15,15,0,0,1,7.8-1,1,1,0,0,0,1.32-.77c3.43-8.41,9.29-14.26,18-17,12.33-3.87,25.76,2.21,31.9,14.2a32,32,0,0,1,3,9.18,1.82,1.82,0,0,0,.78,1.16C162.27,98.38,165.75,106.5,164.87,116.56Z" transform="translate(1.5 1.5)" fill="#bdc3c7"/></svg>