<svg id="Layer_1" data-name="Layer 1" xmlns="http://www.w3.org/2000/svg" viewBox="0 0 190 129.82"><title>icon_3</title><path d="M92.7,123.5" transform="translate(0 0)" fill="#14697f"/><path d="M135.6,62.5" transform="translate(0 0)" fill="#14697f"/><path d="M57.4,13.4a4,4,0,0,1,.5-1.8C59,9.5,60,7.3,61.1,5.3c.2-.3.3-.5.6-.5a.63.63,0,0,1,.6.5l1.4,2.6c.2.2.2.5,0,.6a.47.47,0,0,1-.65.15.54.54,0,0,1-.15-.15c-.2,0-.2-.2-.2-.3-.3-.5-.6-1.1-.8-1.5V6.4L60.1,9.9,59,12a3.43,3.43,0,0,0,1.4,4.6,2.86,2.86,0,0,0,.8.3A3.23,3.23,0,0,0,65,14.37V14.1a3,3,0,0,0-.3-2.1,21.56,21.56,0,0,0-1.1-2c-.2-.5-.2-.8.2-.9a.63.63,0,0,1,.8.3,25.1,25.1,0,0,1,1.2,2.3,4.37,4.37,0,0,1-2,5.6,3.77,3.77,0,0,1-4.3-.2A3.8,3.8,0,0,1,57.4,13.4Z" transform="translate(0 0)" fill="#14697f"/><path d="M65.5,32.2c1.1-2.1,2.1-4.3,3.2-6.3.2-.3.3-.5.6-.5a.63.63,0,0,1,.6.5l1.4,2.6c.2.2.2.5,0,.6a.47.47,0,0,1-.65.15.54.54,0,0,1-.15-.15s-.2-.2-.2-.3c-.3-.5-.6-1.1-.9-1.5l-.2-.3-1.8,3.5-1.1,2a3.15,3.15,0,0,0,1.19,4.29l.21.11a1.32,1.32,0,0,0,.8.3,3.23,3.23,0,0,0,3.79-2.53V34.4a3,3,0,0,0-.3-2.1,21.56,21.56,0,0,0-1.1-2c-.2-.5-.2-.8.2-.9a.63.63,0,0,1,.8.3A25.1,25.1,0,0,1,73.1,32a4.37,4.37,0,0,1-2,5.6,3.77,3.77,0,0,1-4.3-.2,4.41,4.41,0,0,1-2.1-4C65.1,33.4,65.2,32.8,65.5,32.2Z" transform="translate(0 0)" fill="#14697f"/><path d="M80.9,22a4,4,0,0,1,.5-1.8c.9-2.1,2-4.1,2.9-6.3.2-.3.3-.5.6-.5a.63.63,0,0,1,.6.5l1.4,2.4c.2.2.2.5,0,.6a.65.65,0,0,1-.8.2.2.2,0,0,1-.2-.2c-.3-.5-.6-1.1-.9-1.5l-.2-.3-1.7,3.5-.9,2a3.27,3.27,0,0,0,1.5,4.3,2.86,2.86,0,0,0,.8.3,3.18,3.18,0,0,0,3.68-2.6.44.44,0,0,0,0-.1h0a2.07,2.07,0,0,0-.5-2c-.3-.6-.8-1.2-1.1-1.8a.6.6,0,0,1,.09-.83.41.41,0,0,1,.11-.07c.3-.2.6,0,.8.3.5.8.8,1.4,1.2,2.1a4.21,4.21,0,0,1-1.7,5.5,4.13,4.13,0,0,1-4.3.2A5.59,5.59,0,0,1,80.9,22Z" transform="translate(0 0)" fill="#14697f"/><path d="M93.2,32.5a4,4,0,0,1,.5-1.8c1.1-2.1,2.1-4.3,3.2-6.3.2-.3.3-.5.6-.5a.63.63,0,0,1,.6.5L99.5,27c.2.2.2.5,0,.6a.47.47,0,0,1-.65.15.54.54,0,0,1-.15-.15s-.2-.2-.2-.3c-.3-.5-.6-1.1-.8-1.5l-.2-.3L95.7,29l-1.1,2a3.15,3.15,0,0,0,1.19,4.29l.21.11a1.32,1.32,0,0,0,.8.3,3.23,3.23,0,0,0,3.79-2.53V32.9a3,3,0,0,0-.3-2.1,21.56,21.56,0,0,0-1.1-2c-.2-.5-.2-.8.2-.9a.64.64,0,0,1,.8.3,25.1,25.1,0,0,1,1.2,2.3,4.37,4.37,0,0,1-2,5.6,3.77,3.77,0,0,1-4.3-.2C93.9,35.7,93.2,34.2,93.2,32.5Z" transform="translate(0 0)" fill="#14697f"/><path d="M97.6,10.2a3.65,3.65,0,0,1,.6-2.1c1.2-2.4,2.6-5,3.8-7.5.2-.3.3-.6.8-.6s.6.3.8.6c.6,1.1,1.1,2.1,1.7,3.1a.61.61,0,0,1,0,.8.56.56,0,0,1-.78.12.68.68,0,0,1-.12-.12c-.2,0-.2-.2-.2-.3l-.9-1.8c-.2,0-.2-.2-.3-.2l-2.1,4.1L99.7,8.7a3.77,3.77,0,0,0,1.42,5.15,1.51,1.51,0,0,0,.28.15,1.62,1.62,0,0,0,.9.3,3.87,3.87,0,0,0,4.58-3,.5.5,0,0,1,0-.12V11a2.9,2.9,0,0,0-.5-2.4,16.19,16.19,0,0,1-1.2-2.3.72.72,0,0,1,.2-1.1.63.63,0,0,1,.84.29.83.83,0,0,1,.06.21c.5.9.9,1.7,1.4,2.6a5.4,5.4,0,0,1-2.3,6.7,4.89,4.89,0,0,1-5.2-.2A5.08,5.08,0,0,1,97.6,10.2Z" transform="translate(0 0)" fill="#14697f"/><path d="M114.4,27.5a4,4,0,0,1,.5-1.8c1.1-2.1,2.1-4.3,3.2-6.3.2-.3.3-.5.6-.5s.5.3.6.5l1.4,2.6c.2.2.2.5,0,.6a.47.47,0,0,1-.65.15.54.54,0,0,1-.15-.15s-.2-.2-.2-.3c-.3-.5-.6-1.1-.8-1.5l-.2-.3L116.9,24l-1.1,2a3.43,3.43,0,0,0,1.4,4.6,2.86,2.86,0,0,0,.8.3,3.23,3.23,0,0,0,3.79-2.53V28.1a3,3,0,0,0-.3-2.1,21.56,21.56,0,0,0-1.1-2c-.2-.5-.2-.8.2-.9a.63.63,0,0,1,.8.3,25.1,25.1,0,0,1,1.2,2.3,4.37,4.37,0,0,1-2,5.6,3.77,3.77,0,0,1-4.3-.2A4,4,0,0,1,114.4,27.5Z" transform="translate(0 0)" fill="#14697f"/><path d="M188.3,109.9c-1.7-.9-3.5-.3-4.6,1.8-1.5,2.7-2.9,5.5-4.3,8.2a15.92,15.92,0,0,1-1.1,1.7c-3.4-4.1-6.7-7.9-9.6-12.1-14.7-20-24.9-42.1-33-65.5a6,6,0,0,1-.3-2.3V29.3a3.24,3.24,0,0,0-3.5-2.9A3.17,3.17,0,0,0,129,29.81s0,.06,0,.09V40.4H58V30.1c0-2.3-1.4-3.7-3.2-3.7s-3.1,1.4-3.1,3.7V41.9a17.87,17.87,0,0,1-.3,2.3A332,332,0,0,1,26.5,98.4a114.32,114.32,0,0,1-15.4,21.1c-.6.6-1.4,1.2-2.1,2-.9-2.6-1.7-4.9-2.4-7.2-1.4-3.8-4-4.3-6.6-1.2v2.1c1.5,4.1,2.9,8.1,4.4,12.2a3.28,3.28,0,0,0,3.5,2.4H179.5a3.17,3.17,0,0,0,3.2-2c2.3-4.4,4.6-8.9,6.9-13.3C190.4,112.5,190,110.9,188.3,109.9ZM84.9,121.7c-1.4-3.1-2.7-6.1-4.1-9.2a.36.36,0,0,0-.2-.3,3.13,3.13,0,0,0-4-1.7.83.83,0,0,0-.6.3A3.1,3.1,0,0,0,74.86,115a.43.43,0,0,0,0,.07c1.2,2.7,2.4,5.5,3.8,8.6H16.4c0-.3,0-.5.2-.5,10.1-11,17.3-23.7,23.8-36.8A368.76,368.76,0,0,0,56.6,48.7,2.11,2.11,0,0,1,58.9,47h69.2a4.15,4.15,0,0,1-.3,1.2C119.7,67.7,111,87,99.4,104.8a78.08,78.08,0,0,1-13.1,16C85.8,121.1,85.4,121.4,84.9,121.7Zm44.1,1.8H92.7c16.2-18.2,26.1-39.7,36.3-61.7Zm6.6,0V62.6c9.5,21.8,20.3,42.8,36.3,60.9Z" transform="translate(0 0)" fill="#14697f"/></svg>