<svg id="Layer_1" data-name="Layer 1" xmlns="http://www.w3.org/2000/svg" viewBox="0 0 189.94 165.5"><title>icon_1</title><path d="M82.2,85.2a6.52,6.52,0,0,1,1,2.4v58.6c0,3.3-1.7,5.5-4.4,5.9a5.19,5.19,0,0,1-5.9-4.3c0-.5-.2-.8,0-1.3V88.9a5.19,5.19,0,0,1,2.2-4.8,4.92,4.92,0,0,1,6.91.84Z" transform="translate(0 0)" fill="#14697f"/><path d="M104.2,100.4a10.47,10.47,0,0,1,.2,2.5v57.5a5,5,0,0,1-4.9,5.1h-.4a5.09,5.09,0,0,1-4.9-5.1V102.2c0-3.6,2.2-5.7,5.4-5.5A4.32,4.32,0,0,1,104.2,100.4Z" transform="translate(0 0)" fill="#14697f"/><path d="M125.6,117.8h0v28.8a5,5,0,0,1-3.2,5.1,5.08,5.08,0,0,1-5.4-.8,5.76,5.76,0,0,1-1.7-4.8v-57c0-3.3,1.7-5.5,4.4-5.9a5,5,0,0,1,5.85,4c0,.11,0,.22,0,.33Z" transform="translate(0 0)" fill="#14697f"/><path d="M189.7,90.1a44.88,44.88,0,0,1-19.3,33.7,38.71,38.71,0,0,1-22,7.1c-4.6.2-9.2,0-13.9,0V120.4c3.5,0,7-.2,10.3,0,22.8,1.6,37.1-19.5,34.8-39.3-1.4-12-7.1-21.5-17.6-27.7a1.11,1.11,0,0,0-.6-.3c-1.9-.5-2.4-1.6-2.4-3.6-.6-16.2-11.7-31.7-26.6-37.2-16.9-6.2-35.5.5-45.8,16.5a46.3,46.3,0,0,0-6.5,17.4c0,.5-.2.8-.3,1.6-8.4-4.6-16.6-5.1-24.4.8C48,54.1,45.1,62.1,45.7,71.1a41.73,41.73,0,0,0-7.9-2.2A22.29,22.29,0,0,0,17.5,76c-11.9,12.2-8.6,34.4,6.3,42.3a23.93,23.93,0,0,0,11.1,2.4H64.2v10.5H35.5a35.35,35.35,0,0,1-35.2-31A8.68,8.68,0,0,0,0,98.6V90.4c.3-1.7.8-3.5,1.1-5.2a34.62,34.62,0,0,1,34-26.9c1.4,0,1.6-.8,1.9-1.7A33.77,33.77,0,0,1,56.5,36.1a27.11,27.11,0,0,1,14.1-1.9A1.86,1.86,0,0,0,73,33a1.6,1.6,0,0,0,0-.21C79.2,17.6,89.8,7,105.5,2.1c22.3-7,46.6,4,57.7,25.7a57.79,57.79,0,0,1,5.4,16.6,3.29,3.29,0,0,0,1.4,2.1C185,57.2,191.3,71.9,189.7,90.1Z" transform="translate(0 0)" fill="#14697f"/></svg>