<svg id="Layer_1" data-name="Layer 1" xmlns="http://www.w3.org/2000/svg" viewBox="0 0 189.91 180.27"><title>icon_8</title><path d="M.9,27.41a2.84,2.84,0,0,1,0-4l.2-.2a2.81,2.81,0,0,1,3.8-.5.2.2,0,0,1,.2.2h0c2.5,2.2,4.7,4.7,7.1,7.1a5.49,5.49,0,0,1,.8,2.1c-.6.8-1.1,1.9-2.1,2.2A4,4,0,0,1,7.7,34,52.37,52.37,0,0,1,.9,27.41Z" transform="translate(0.01 0.01)" fill="#14697f"/><path d="M4.2,8.61a3.21,3.21,0,0,1,.2-4.3,2.78,2.78,0,0,1,3.91-.37,1.54,1.54,0,0,1,.19.17h0c4.4,4.1,8.5,8.5,12.8,12.8a12.4,12.4,0,0,1,1.1,2.4,11.39,11.39,0,0,1-2.4,2.5,2.77,2.77,0,0,1-3.5-.8L5.9,10.41A10,10,0,0,1,4.2,8.61Z" transform="translate(0.01 0.01)" fill="#14697f"/><path d="M16.3,40.21a29.49,29.49,0,0,1,2.5-2.5c.9.5,1.9,1.1,2.8,1.7,3,2.8,5.9,5.9,8.9,8.7,1.6,1.6,1.7,3.5.3,4.9s-3.2,1.3-4.9-.5L17,43.61A2.52,2.52,0,0,1,16.3,40.21Z" transform="translate(0.01 0.01)" fill="#14697f"/><path d="M26.4,30.61a4.21,4.21,0,0,1-.5-3.3c.3-.9,1.6-1.4,2.5-2.1a13.92,13.92,0,0,1,2.4,1.3,32.22,32.22,0,0,1,3.2,3.2,3.31,3.31,0,0,1-.8,4.4,3,3,0,0,1-3.6,0A15.23,15.23,0,0,1,26.4,30.61Z" transform="translate(0.01 0.01)" fill="#14697f"/><path d="M32.1,8.61a29.49,29.49,0,0,1,2.5-2.5c.9.5,1.9,1.1,2.8,1.7,6.2,6,12.3,12.2,18.3,18.3a3.17,3.17,0,0,1,.6,4.4l-.3.3a3,3,0,0,1-4.24.16,1.21,1.21,0,0,1-.16-.16c-.2,0-.2-.2-.3-.3C45.1,24.31,39,18.21,33,12a2.48,2.48,0,0,1-.92-3.37Z" transform="translate(0.01 0.01)" fill="#14697f"/><path d="M51.2,5.11a2.85,2.85,0,0,1,.2-4h0A2.71,2.71,0,0,1,55.18.5h0a.2.2,0,0,1,.2.2c2.5,2.4,4.9,4.9,7.4,7.3a4.86,4.86,0,0,1,.8,2.1c-.6.8-1.1,1.9-1.9,2.2a4.33,4.33,0,0,1-3.2-.2C56,9.81,53.6,7.51,51.2,5.11Z" transform="translate(0.01 0.01)" fill="#14697f"/><path d="M97.2,40.11c-2.2,2.2-4.4,4.4-6.8,6.6l.2.6h16.8a3.21,3.21,0,0,1,3.5,2.8v.2a3.12,3.12,0,0,1-3,3.2H82.5c-1.4,0-2.8-.6-3-2.1a4.57,4.57,0,0,1,.8-3.3c4-4.3,8.2-8.4,12.3-12.5a3.14,3.14,0,0,1,5,3.8C97.7,39.61,97.4,39.71,97.2,40.11Z" transform="translate(0.01 0.01)" fill="#14697f"/><path d="M133.2,30.61c0-7.1-.2-14.4.2-21.5a9.81,9.81,0,0,1,8.9-8.7,28.12,28.12,0,0,1,7.1,0,10.16,10.16,0,0,1,9.2,10.3c-.2,6.5-.2,13-.2,19.6v19a7.8,7.8,0,0,1-.2,2.1,3.16,3.16,0,0,1-4,1.9,3.41,3.41,0,0,1-2.1-2.4V11.61c0-3.8-1.3-5.1-5.2-5.1h-3.3a3.86,3.86,0,0,0-4.09,3.63,1,1,0,0,0,0,.17v20.4a2.84,2.84,0,0,1-3.14,2.51h-.06a2.66,2.66,0,0,1-3-2.29,1.49,1.49,0,0,1,0-.21.09.09,0,0,1-.1-.1Z" transform="translate(0.01 0.01)" fill="#14697f"/><path d="M17.7,82.31,91.6,8.61c2.8-2.8,4-2.8,6.8,0l73.4,72.9a13.53,13.53,0,0,1,1.6,1.7,2.87,2.87,0,0,1-.24,4.05l-.06,0h0a2.78,2.78,0,0,1-3.91.37,1.54,1.54,0,0,1-.19-.17,5.35,5.35,0,0,1-1.3-1.3q-35.4-35.4-71-70.7a22.33,22.33,0,0,1-1.6-1.9c-5.2,5.2-10,10.3-14.9,15.2-19.3,19.3-38.6,38.4-57.9,57.7a5.5,5.5,0,0,1-1.6,1.4,3.17,3.17,0,0,1-4-.5,2.89,2.89,0,0,1-.3-3.8A8,8,0,0,1,17.7,82.31Z" transform="translate(0.01 0.01)" fill="#14697f"/><path d="M161.5,142.11V96.41a8.13,8.13,0,0,0-.2-2.2,3.09,3.09,0,0,0-6.1.4v50.7a2.49,2.49,0,0,1-1.6,2.8,15.21,15.21,0,0,1-17.9-1.3,48.11,48.11,0,0,0-6.8-4.7,20.24,20.24,0,0,0-11.9-1.7v-41c0-3.2-1.1-4.3-4.3-4.3H77.2c-3.3,0-4.4.9-4.4,4.3v40.8c-8.4-.5-12.2.9-18.5,6.5a14.3,14.3,0,0,1-17.2,1.7,4.08,4.08,0,0,1-2.2-3.8V92.41c0-2.4-1.1-3.8-3-3.8s-3.3,1.4-3.3,3.8v49.7c-10.9-4.4-19.8-1.6-27,6.8-1.6,1.7-1.7,3.5-.3,4.9s3.2,1.1,4.9-.5a22.84,22.84,0,0,0,2.2-2.2,15.78,15.78,0,0,1,7.6-4.4c5.4-1.1,9.8.6,13.9,4.3a21.2,21.2,0,0,0,29.4-.2c6.3-6,14.6-6,21,0,8.9,8.1,20.6,8.1,29.6,0a22.86,22.86,0,0,1,7.1-4c5.5-1.6,10.1.5,14.2,4.3,7.8,7.4,20.4,8.1,29.6-.8a14.77,14.77,0,0,1,12-4c4.6.5,7.8,3.3,10.8,6.5,2.5,2.5,4.4,2.4,6.3-.6v-1.6C182.5,141.11,173.3,137.31,161.5,142.11Zm-50.6-1.3a2.52,2.52,0,0,1-1.3,2.4c-1.6,1.1-3.2,2.4-4.7,3.6a14.72,14.72,0,0,1-19.8,0c-1.6-1.4-3.3-2.5-4.9-4a2.17,2.17,0,0,1-.9-1.6v-39.9h31.6v39.5Z" transform="translate(0.01 0.01)" fill="#14697f"/><path d="M189.9,173.91l-.2,2.5c-2.5,2.5-3.8,2.5-6.3,0L181,174a14.51,14.51,0,0,0-20.2-.3,22.06,22.06,0,0,1-14.2,6.5,21,21,0,0,1-16.1-6.2,14.71,14.71,0,0,0-12.3-4.1,16.65,16.65,0,0,0-9.2,4.7,20.48,20.48,0,0,1-16,5.5,21.84,21.84,0,0,1-13.6-6.5,14.43,14.43,0,0,0-18.8-.8,17.43,17.43,0,0,0-2.5,2.2,20.62,20.62,0,0,1-25,1.9,29.49,29.49,0,0,1-4.3-3.5,14.53,14.53,0,0,0-19.9.3c-1.3,1.1-2.4,2.5-3.6,3.6a3,3,0,0,1-4.1,0l-.2-.2a2.78,2.78,0,0,1-.37-3.91A1.54,1.54,0,0,1,.8,173h0c5.4-6.3,11.7-10.4,20.4-9.5a21.48,21.48,0,0,1,13,6.2,14.17,14.17,0,0,0,16,3,18.61,18.61,0,0,0,4.7-3.2c9.2-8.2,20.7-8.2,29.7,0a14.67,14.67,0,0,0,20.7,0h0c9.2-8.4,20.7-8.2,29.9,0a14.73,14.73,0,0,0,20.6.2c9.8-8.9,21.7-8.5,31,.8C187.9,171.71,188.8,172.81,189.9,173.91Z" transform="translate(0.01 0.01)" fill="#14697f"/></svg>