<svg id="Layer_1" data-name="Layer 1" xmlns="http://www.w3.org/2000/svg" viewBox="0 0 228 228"><rect x="1.5" y="1.5" width="225" height="225" rx="85" fill="#041519" stroke="#666" stroke-miterlimit="10" stroke-width="3"/><path d="M143.66,113.35Z" transform="translate(1.5 1.5)" fill="#bdc3c7"/><path d="M132.06,78.28a2.21,2.21,0,0,1,.17-1.76A71.87,71.87,0,0,1,137.75,71a1.67,1.67,0,0,1,2.37.27,1.52,1.52,0,0,1,0,2.1c-1.76,1.93-3.7,3.81-5.52,5.52a3,3,0,0,1-1.21.55A3,3,0,0,1,132.06,78.28Z" transform="translate(1.5 1.5)" fill="#bdc3c7"/><path d="M144.38,101.64C138,86.79,127,77.79,111.08,74.7c-1.77-.34-3.7-.45-5.47-.72-.11-.11-.11-.17-.11-.17V70.89c0-1.33-.72-2.1-1.77-2.1s-1.76.77-1.76,2.1v3a69.36,69.36,0,0,0-7.84,1.21q-26.17,6.7-33,32.86c-.61,2.21-.77,4.58-1.16,6.84v7c.11.11.17.16.28.16a1.71,1.71,0,0,0,2.09.78,1.77,1.77,0,0,0,1.22-1.83v-1.82a1.89,1.89,0,0,1,.44-1.16,11,11,0,0,1,15.24-1.21c1.22,1,2.1,2,1.77,3.7v.88A1.66,1.66,0,0,0,82.81,123a1.7,1.7,0,0,0,1.65-1.66,5.06,5.06,0,0,0,0-1.82,1.93,1.93,0,0,1,.78-1.77,3.64,3.64,0,0,0,.44-.44,11,11,0,0,1,15.62.55,2.8,2.8,0,0,1,.72,1.6V133.5c-1.38.17-3.37-.44-3.42,1.66-.11,2.38,2,1.77,3.37,1.93v3.54H98.54v11.59c0,1.05-.33,1.94-1.32,2.21s-1.66-.27-2.1-1.16l-.11-.16a5.16,5.16,0,0,0-4.92-2.1,5.26,5.26,0,0,0-4.47,5.91,8.83,8.83,0,0,0,4.59,6,43.43,43.43,0,0,0,5.08,2h3.2a.64.64,0,0,1,.27-.16c6.69-1.38,10.5-6,10.5-12.87V140.35h-3.54V118.82a1.52,1.52,0,0,1,.44-1,11,11,0,0,1,15.41-1.16,3.45,3.45,0,0,1,1.6,3.43v1a1.71,1.71,0,0,0,1.38,1.38,1.74,1.74,0,0,0,2-1.38,14.82,14.82,0,0,1,0-2.21,1.9,1.9,0,0,1,.45-1.16,11,11,0,0,1,15-1.38c1.38,1,2.37,2.1,2,4v.6a1.77,1.77,0,1,0,3.53,0C147.74,114.4,147,107.83,144.38,101.64Zm-63.23,12c-5.74-3.82-11.43-4-17.28-.17A40.52,40.52,0,0,1,94.24,78.67C84.85,88.61,82.2,100.7,81.15,113.63Zm20.87,0a15.61,15.61,0,0,0-8.61-2.93,15.4,15.4,0,0,0-8.73,2.81c.11-1.49.17-2.81.33-4a55.11,55.11,0,0,1,5.75-20.21c2-4,4.58-7.45,8.45-9.83.88-.55,1.76-.88,2.92-1.49v35.68Zm3.59,30.31v4.92a27.59,27.59,0,0,1-.27,5.63,8.59,8.59,0,0,1-7,6.79,8.68,8.68,0,0,1-8.78-3.81,1.84,1.84,0,0,1,.17-2.65c.77-.72,1.82-.44,2.65.61a5.41,5.41,0,0,0,4.42,2.48,5.21,5.21,0,0,0,5.3-5.19V144Zm0-30.31-.11-35.51c.55.27,1,.33,1.49.61a19.49,19.49,0,0,1,7.89,7.4c3.81,5.74,5.8,12.14,7,18.77.44,2.82.72,5.63,1.16,8.78C117,109.76,111.35,109.76,105.56,113.63Zm20.92.05c-1-12.92-3.7-25-12.92-34.79,13.81,2.93,28.28,16.07,30.15,34.51C137.86,109.65,132.17,109.81,126.48,113.68Z" transform="translate(1.5 1.5)" fill="#bdc3c7"/><path d="M142.55,67.74a1.86,1.86,0,0,1,.17-1.77,75.65,75.65,0,0,1,5.52-5.52,1.69,1.69,0,0,1,2.38.27,1.54,1.54,0,0,1,0,2.1c-1.77,1.94-3.7,3.7-5.53,5.52a3.12,3.12,0,0,1-1.16.56C143.38,68.51,142.72,68.29,142.55,67.74Z" transform="translate(1.5 1.5)" fill="#bdc3c7"/><path d="M153,87.89a5.53,5.53,0,0,1-1,1.49c-1.61,1.66-3.26,3.26-4.86,4.86a1.77,1.77,0,0,1-2.82-2.15c.11-.11.17-.28.33-.33,1.66-1.66,3.26-3.37,4.92-4.92a1.68,1.68,0,0,1,2-.44A5.77,5.77,0,0,1,153,87.89Z" transform="translate(1.5 1.5)" fill="#bdc3c7"/><path d="M154.76,72.16a13.49,13.49,0,0,1-1,1.6c-1.6,1.65-3.26,3.25-4.86,4.86a1.71,1.71,0,0,1-2.48.33c-.11,0-.11-.11-.17-.17a1.74,1.74,0,0,1,.17-2.65c1.66-1.66,3.26-3.37,4.91-4.91a1.56,1.56,0,0,1,1.94-.45A6,6,0,0,1,154.76,72.16Z" transform="translate(1.5 1.5)" fill="#bdc3c7"/><path d="M156.52,67.74a1.86,1.86,0,0,1,.17-1.77,75.65,75.65,0,0,1,5.52-5.52,1.69,1.69,0,0,1,2.38.27,1.54,1.54,0,0,1,0,2.1c-1.77,1.94-3.7,3.7-5.53,5.52a3.12,3.12,0,0,1-1.16.56C157.41,68.51,156.69,68.29,156.52,67.74Z" transform="translate(1.5 1.5)" fill="#bdc3c7"/><path d="M164.59,74.75a1.74,1.74,0,0,1,0,2c-1.83,1.94-3.7,3.81-5.64,5.64a7.55,7.55,0,0,1-1.16.44c-.44-.33-1-.61-1.21-1.16a2,2,0,0,1,.11-1.77c1.77-1.93,3.59-3.81,5.52-5.63A1.86,1.86,0,0,1,164.59,74.75Z" transform="translate(1.5 1.5)" fill="#bdc3c7"/></svg>