<?xml version="1.0" encoding="utf-8"?>
<!-- Generator: Adobe Illustrator 24.3.0, SVG Export Plug-In . SVG Version: 6.00 Build 0)  -->
<svg version="1.1" id="Layer_1" xmlns="http://www.w3.org/2000/svg" xmlns:xlink="http://www.w3.org/1999/xlink" x="0px" y="0px"
	 viewBox="0 0 225 225" style="enable-background:new 0 0 225 225;" xml:space="preserve">
<style type="text/css">
	.st0{fill:#FFFFFF;}
</style>
<path class="st0" d="M140,0H85C38.1,0,0,38.1,0,85v55c0,46.9,38.1,85,85,85h55c46.9,0,85-38.1,85-85V85C225,38.1,186.9,0,140,0z
	 M67,126.2c0,1.9-1.5,3.5-3.4,3.5c-1,0-1.9-0.4-2.6-1.1c-0.6-0.7-1-1.5-1-2.5V98.8c0-1.9,1.5-3.5,3.5-3.5h0.1c1.8,0,3.4,1.5,3.4,3.3
	V126.2z M81,138.4c0,1.9-1.5,3.5-3.5,3.5c0,0,0,0,0,0c-1.9,0-3.5-1.6-3.5-3.5V86.6c0-1.9,1.6-3.5,3.5-3.5s3.5,1.6,3.5,3.5V138.4z
	 M95,149.8c0,1.9-1.6,3.5-3.5,3.5s-3.5-1.6-3.5-3.5V75.2c0-1.9,1.6-3.5,3.5-3.5s3.5,1.6,3.5,3.5V149.8z M109,143.2
	c0,1.9-1.5,3.5-3.4,3.5c-1,0-1.9-0.4-2.6-1.1c-0.6-0.7-1-1.5-1-2.5V81.6c0-1.9,1.6-3.5,3.5-3.5s3.5,1.6,3.5,3.5V143.2z M123,134.5
	c0,1.9-1.5,3.5-3.5,3.5c0,0,0,0,0,0c-1.9,0-3.5-1.6-3.5-3.5V90.4c0-1.9,1.6-3.5,3.5-3.5s3.5,1.6,3.5,3.5V134.5z M137,138.4
	c0,1.9-1.5,3.5-3.5,3.5c0,0,0,0,0,0c-1.9,0-3.5-1.6-3.5-3.5V86.6c0-1.9,1.6-3.5,3.5-3.5s3.5,1.6,3.5,3.5V138.4z M151,134.5
	c0,1.9-1.5,3.5-3.5,3.5c0,0,0,0,0,0c-1.9,0-3.5-1.6-3.5-3.5V90.4c0-1.9,1.6-3.5,3.5-3.5s3.5,1.6,3.5,3.5V134.5z M165,127.9
	c0,1.9-1.5,3.5-3.4,3.5c-1,0-1.9-0.4-2.6-1.1c-0.6-0.7-1-1.5-1-2.5V97c0-1.9,1.6-3.5,3.5-3.5s3.5,1.6,3.5,3.5V127.9z"/>
</svg>
