<?xml version="1.0" encoding="utf-8"?>
<!-- Generator: Adobe Illustrator 24.3.0, SVG Export Plug-In . SVG Version: 6.00 Build 0)  -->
<svg version="1.1" id="Layer_1" xmlns="http://www.w3.org/2000/svg" xmlns:xlink="http://www.w3.org/1999/xlink" x="0px" y="0px"
	 viewBox="0 0 225 225" style="enable-background:new 0 0 225 225;" xml:space="preserve">
<style type="text/css">
	.st0{fill:#FFFFFF;}
</style>
<path class="st0" d="M109.8,117c-1-1.8-3.3-2.4-5.1-1.3c-0.6,0.3-1,0.8-1.3,1.4c-0.9,1.6-1.3,3.5-1.3,5.3s0.4,3.6,1.3,5.3
	c1,1.8,3.3,2.4,5.1,1.3c0.6-0.3,1-0.8,1.4-1.4c1-1.6,1.4-3.5,1.3-5.3c0-0.2,0-0.3,0-0.5C111.2,120,110.7,118.4,109.8,117z
	 M109.8,117c-1-1.8-3.3-2.4-5.1-1.3c-0.6,0.3-1,0.8-1.3,1.4c-0.9,1.6-1.3,3.5-1.3,5.3s0.4,3.6,1.3,5.3c1,1.8,3.3,2.4,5.1,1.3
	c0.6-0.3,1-0.8,1.4-1.4c1-1.6,1.4-3.5,1.3-5.3c0-0.2,0-0.3,0-0.5C111.2,120,110.7,118.4,109.8,117z M109.8,117
	c-1-1.8-3.3-2.4-5.1-1.3c-0.6,0.3-1,0.8-1.3,1.4c-0.9,1.6-1.3,3.5-1.3,5.3s0.4,3.6,1.3,5.3c1,1.8,3.3,2.4,5.1,1.3
	c0.6-0.3,1-0.8,1.4-1.4c1-1.6,1.4-3.5,1.3-5.3c0-0.2,0-0.3,0-0.5C111.2,120,110.7,118.4,109.8,117z M109.8,117
	c-1-1.8-3.3-2.4-5.1-1.3c-0.6,0.3-1,0.8-1.3,1.4c-0.9,1.6-1.3,3.5-1.3,5.3s0.4,3.6,1.3,5.3c1,1.8,3.3,2.4,5.1,1.3
	c0.6-0.3,1-0.8,1.4-1.4c1-1.6,1.4-3.5,1.3-5.3c0-0.2,0-0.3,0-0.5C111.2,120,110.7,118.4,109.8,117z M109.8,117
	c-1-1.8-3.3-2.4-5.1-1.3c-0.6,0.3-1,0.8-1.3,1.4c-0.9,1.6-1.3,3.5-1.3,5.3s0.4,3.6,1.3,5.3c1,1.8,3.3,2.4,5.1,1.3
	c0.6-0.3,1-0.8,1.4-1.4c1-1.6,1.4-3.5,1.3-5.3c0-0.2,0-0.3,0-0.5C111.2,120,110.7,118.4,109.8,117z M109.8,117
	c-1-1.8-3.3-2.4-5.1-1.3c-0.6,0.3-1,0.8-1.3,1.4c-0.9,1.6-1.3,3.5-1.3,5.3s0.4,3.6,1.3,5.3c1,1.8,3.3,2.4,5.1,1.3
	c0.6-0.3,1-0.8,1.4-1.4c1-1.6,1.4-3.5,1.3-5.3c0-0.2,0-0.3,0-0.5C111.2,120,110.7,118.4,109.8,117z M109.8,117
	c-1-1.8-3.3-2.4-5.1-1.3c-0.6,0.3-1,0.8-1.3,1.4c-0.9,1.6-1.3,3.5-1.3,5.3s0.4,3.6,1.3,5.3c1,1.8,3.3,2.4,5.1,1.3
	c0.6-0.3,1-0.8,1.4-1.4c1-1.6,1.4-3.5,1.3-5.3c0-0.2,0-0.3,0-0.5C111.2,120,110.7,118.4,109.8,117z M109.8,117
	c-1-1.8-3.3-2.4-5.1-1.3c-0.6,0.3-1,0.8-1.3,1.4c-0.9,1.6-1.3,3.5-1.3,5.3s0.4,3.6,1.3,5.3c1,1.8,3.3,2.4,5.1,1.3
	c0.6-0.3,1-0.8,1.4-1.4c1-1.6,1.4-3.5,1.3-5.3c0-0.2,0-0.3,0-0.5C111.2,120,110.7,118.4,109.8,117z M140,0H85C38.1,0,0,38.1,0,85v55
	c0,46.9,38.1,85,85,85h55c46.9,0,85-38.1,85-85V85C225,38.1,186.9,0,140,0z M66.1,117.7h7.1v3.4h-7.1V117.7z M76.7,153.4H65
	c-1,0.1-2-0.4-2.5-1.2v-26.1c0.5-0.8,1.5-1.3,2.4-1.2h11.8V153.4z M85.7,153.3h-3.4v-28.4h3.4V153.3z M110.5,128.2
	c-1.4,2.1-4.2,2.8-6.3,1.5c-0.6-0.4-1.1-0.9-1.5-1.5c-2.2-3.7-2.2-8.3,0-12c1.4-2.1,4.2-2.8,6.3-1.5c0.6,0.4,1.1,0.9,1.5,1.5
	c1.1,1.8,1.7,3.9,1.6,6C112.2,124.3,111.7,126.4,110.5,128.2z M113.3,152.5h-1.1v-9.1h-9.8v9.1h-1.1v-19.2h1.1v9.1h9.8v-9.1h1.1
	V152.5z M114.7,130c-0.1,0.2-0.3,0.3-0.6,0.3h0c-0.2,0-0.4-0.1-0.6-0.3c-0.3-0.3-0.3-0.9,0-1.2c0.1-0.2,0.4-0.3,0.6-0.3
	c0.2,0.1,0.4,0.3,0.6,0.4C115,129.2,115,129.7,114.7,130z M123.9,152.5h-8.4l6.1-10.6h-6.1v-1.1h8l-6.1,10.5h6.6V152.5z
	 M118.3,120.7l-0.5-0.4l2.4-1.7v10.9h2.5v0.6h-5.6v-0.6h2.5v-9.6L118.3,120.7z M87.8,84.3c-9.2,7.4-14.2,17.3-15.8,29
	c0,0.3-0.1,0.5-0.2,0.7H68c0.5-2.3,0.7-4.6,1.3-6.8c3.1-11.8,9.4-21.4,19.5-28.3c7.9-5.5,17.5-8.1,27.1-7.3
	c14.4,1.3,25.3,8.5,33.3,20.4c4.2,6.4,6.8,13.7,7.6,21.4v0.5h-3.5c-0.2-1.8-0.6-3.5-1-5.2c-3.4-13.6-10.9-24.2-23.8-29.9
	C114,72.1,100.1,74.4,87.8,84.3z M158.9,117.8v3.4h-7.1v-3.4H158.9z M142.7,153.4h-3.4v-28.4h3.4V153.4z M162.5,152.2
	c-0.5,0.8-1.5,1.3-2.5,1.2c-3.5-0.1-7.2,0-10.7,0h-1v-28.5H160c1-0.1,2,0.4,2.5,1.2V152.2z M104.7,115.7c-0.6,0.3-1,0.8-1.3,1.4
	c-0.9,1.6-1.3,3.5-1.3,5.3s0.4,3.6,1.3,5.3c1,1.8,3.3,2.4,5.1,1.3c0.6-0.3,1-0.8,1.4-1.4c1-1.6,1.4-3.5,1.3-5.3c0-0.2,0-0.3,0-0.5
	c0-1.7-0.5-3.3-1.4-4.7C108.8,115.2,106.5,114.6,104.7,115.7z M109.8,117c-1-1.8-3.3-2.4-5.1-1.3c-0.6,0.3-1,0.8-1.3,1.4
	c-0.9,1.6-1.3,3.5-1.3,5.3s0.4,3.6,1.3,5.3c1,1.8,3.3,2.4,5.1,1.3c0.6-0.3,1-0.8,1.4-1.4c1-1.6,1.4-3.5,1.3-5.3c0-0.2,0-0.3,0-0.5
	C111.2,120,110.7,118.4,109.8,117z M109.8,117c-1-1.8-3.3-2.4-5.1-1.3c-0.6,0.3-1,0.8-1.3,1.4c-0.9,1.6-1.3,3.5-1.3,5.3
	s0.4,3.6,1.3,5.3c1,1.8,3.3,2.4,5.1,1.3c0.6-0.3,1-0.8,1.4-1.4c1-1.6,1.4-3.5,1.3-5.3c0-0.2,0-0.3,0-0.5
	C111.2,120,110.7,118.4,109.8,117z M109.8,117c-1-1.8-3.3-2.4-5.1-1.3c-0.6,0.3-1,0.8-1.3,1.4c-0.9,1.6-1.3,3.5-1.3,5.3
	s0.4,3.6,1.3,5.3c1,1.8,3.3,2.4,5.1,1.3c0.6-0.3,1-0.8,1.4-1.4c1-1.6,1.4-3.5,1.3-5.3c0-0.2,0-0.3,0-0.5
	C111.2,120,110.7,118.4,109.8,117z M109.8,117c-1-1.8-3.3-2.4-5.1-1.3c-0.6,0.3-1,0.8-1.3,1.4c-0.9,1.6-1.3,3.5-1.3,5.3
	s0.4,3.6,1.3,5.3c1,1.8,3.3,2.4,5.1,1.3c0.6-0.3,1-0.8,1.4-1.4c1-1.6,1.4-3.5,1.3-5.3c0-0.2,0-0.3,0-0.5
	C111.2,120,110.7,118.4,109.8,117z M109.8,117c-1-1.8-3.3-2.4-5.1-1.3c-0.6,0.3-1,0.8-1.3,1.4c-0.9,1.6-1.3,3.5-1.3,5.3
	s0.4,3.6,1.3,5.3c1,1.8,3.3,2.4,5.1,1.3c0.6-0.3,1-0.8,1.4-1.4c1-1.6,1.4-3.5,1.3-5.3c0-0.2,0-0.3,0-0.5
	C111.2,120,110.7,118.4,109.8,117z M109.8,117c-1-1.8-3.3-2.4-5.1-1.3c-0.6,0.3-1,0.8-1.3,1.4c-0.9,1.6-1.3,3.5-1.3,5.3
	s0.4,3.6,1.3,5.3c1,1.8,3.3,2.4,5.1,1.3c0.6-0.3,1-0.8,1.4-1.4c1-1.6,1.4-3.5,1.3-5.3c0-0.2,0-0.3,0-0.5
	C111.2,120,110.7,118.4,109.8,117z"/>
</svg>
