<?xml version="1.0" encoding="utf-8"?>
<!-- Generator: Adobe Illustrator 24.3.0, SVG Export Plug-In . SVG Version: 6.00 Build 0)  -->
<svg version="1.1" id="Layer_1" xmlns="http://www.w3.org/2000/svg" xmlns:xlink="http://www.w3.org/1999/xlink" x="0px" y="0px"
	 viewBox="0 0 225 225" style="enable-background:new 0 0 225 225;" xml:space="preserve">
<style type="text/css">
	.st0{fill:#FFFFFF;}
</style>
<path class="st0" d="M140,0H85C38.1,0,0,38.1,0,85v55c0,46.9,38.1,85,85,85h55c46.9,0,85-38.1,85-85V85C225,38.1,186.9,0,140,0z
	 M136.9,97.1c0,0-0.1,0.1-0.1,0.1c0,0.1-0.1,0.1-0.1,0.1c-0.3,0.4-0.6,0.7-0.9,1c-18.1,18-36.1,36.1-54.2,54.2
	c-0.3,0.5-0.6,1-0.9,1.5c-0.3,0.3-0.4,0.7-0.7,1c-2,2-4.1,4.2-6.3,6.3c-1.1,1.1-1.8,1-3-0.4c-2.1-2.3-4.4-4.6-6.8-6.8
	c-1.4-1.3-1.5-1.9-0.4-3l6.3-6.3c0.3-0.3,0.7-0.5,1.1-0.7c0.4-0.2,0.8-0.4,1.1-0.7c2.7-2.7,5.3-5.3,8-7.9c0.3-0.3,0.5-0.7,0.7-0.7
	c0.6,0,1.3-0.1,1.7,0.3c0.3,0.5,0.4,1.1,0.3,1.7c0,0.3-0.4,0.6-0.7,0.8l-8.3,8.5c0.3,0.3,0.6,0.6,0.9,1c0.5,0.4,0.6,1.2,0.2,1.7l0,0
	c0,0.1-0.1,0.1-0.1,0.2c-0.2,0.3-0.6,0.4-0.9,0.4c-0.3,0-0.6-0.1-0.8-0.3c-0.1-0.1-0.2-0.1-0.2-0.2c-0.5-0.4-0.9-0.8-1.4-1.3
	l-3.9,3.9c-0.6,0.6-0.6,1.6,0,2.2l3.5,3.4c0.7,0.7,1.8,0.7,2.5,0l3.5-3.4c-2.9-2.3-0.4-3.9,0.9-2.5c0.9,0.8,2-1.2,3-2l52.7-52.7
	c0.3-0.3,0.6-0.7,0.9-0.8c0.6-0.2,1.2-0.1,1.7,0.2C136.9,96,137.1,96.6,136.9,97.1z M93.1,130.9c0.1-0.7,0.7-1.2,1.3-1.1
	s1.2,0.7,1.1,1.3c0,0.6-0.5,1.1-1.1,1.1c-0.1,0-0.1,0-0.2,0C93.5,132.1,93,131.5,93.1,130.9z M101.5,122.1c0-0.8,0.6-1.4,1.4-1.5
	c0.8,0,1.4,0.6,1.5,1.3v0.1c-0.1,0.8-0.7,1.4-1.4,1.5C102.2,123.5,101.6,122.9,101.5,122.1z M110.4,113.2c0-0.8,0.6-1.4,1.4-1.4
	c0.8,0,1.4,0.6,1.4,1.4c0,0.8-0.7,1.4-1.4,1.4C111.1,114.6,110.4,114,110.4,113.2z M119.2,104.6v-0.2c0-0.8,0.5-1.4,1.3-1.5h0.1
	c0.8,0,1.4,0.6,1.5,1.4c0,0.8-0.6,1.4-1.4,1.5C120,105.9,119.3,105.3,119.2,104.6z M128,95.4c0-0.7,0.6-1.4,1.3-1.4
	c0.8-0.1,1.5,0.5,1.5,1.3c0,0.1,0,0.2,0,0.2c0,0.8-0.6,1.4-1.4,1.4c-0.8,0-1.4-0.6-1.5-1.4c0,0,0,0,0,0C128,95.5,128,95.4,128,95.4z
	 M162.2,70c-1,1.6-2,3.2-2.8,4.9c-0.8,1.8-1.9,3.4-3.4,4.6c-5.2,4.3-10.1,8.8-14.7,13.6c-0.5,0.6-1.4,0.8-2,0.3
	c-0.6-0.5-0.8-1.4-0.3-2l0.3-0.3l6.2-6.2c0.2-0.2,0.6-0.4,0.9-0.6l-5.5-5.5c-0.2,0.3-0.4,0.7-0.7,1c-17.4,17.5-34.9,34.9-52.2,52.3
	c-0.3,0.3-0.7,0.6-1,0.9c-0.5,0.3-1.1,0.3-1.6,0c-0.7-0.5-0.9-1.4-0.4-2c0.2-0.3,0.5-0.6,0.8-0.9c17.8-17.7,35.5-35.4,53.2-53.1
	c2.4-2.4,4.2-5,6.4-7.4c1.3-1.7,3-3,5-3.8c1.6-0.8,3.2-1.7,4.7-2.7h1.1l6.2,5.9V70z M143,76.5l5.4,5.4c0.8-0.6,1.7-1.3,2.6-2l0,0
	c3.7-2.6,6-6.2,7.6-10.4l-3.1-3C149.7,68.1,146.1,72.1,143,76.5z"/>
</svg>
