<?xml version="1.0" encoding="utf-8"?>
<!-- Generator: Adobe Illustrator 24.3.0, SVG Export Plug-In . SVG Version: 6.00 Build 0)  -->
<svg version="1.1" id="Layer_1" xmlns="http://www.w3.org/2000/svg" xmlns:xlink="http://www.w3.org/1999/xlink" x="0px" y="0px"
	 viewBox="0 0 225 225" style="enable-background:new 0 0 225 225;" xml:space="preserve">
<style type="text/css">
	.st0{fill:#FFFFFF;}
</style>
<path class="st0" d="M140,0H85C38.1,0,0,38.1,0,85v55c0,46.9,38.1,85,85,85h55c46.9,0,85-38.1,85-85V85C225,38.1,186.9,0,140,0z
	 M67,122.6c0,1.9-1.5,3.5-3.5,3.5c0,0,0,0,0,0c-1.9,0-3.5-1.6-3.5-3.5v-20.3c0-1.9,1.6-3.5,3.5-3.5s3.5,1.6,3.5,3.5V122.6z M81,95.1
	v34.5c0,1.9-1.5,3.5-3.5,3.5c0,0,0,0,0,0c-1.9,0-3.5-1.6-3.5-3.5V95.3c0-1.9,1.5-3.5,3.5-3.5h0.1C79.4,91.8,80.9,93.3,81,95.1
	C81,95.1,81,95.1,81,95.1z M95,125.7c0,1.9-1.5,3.5-3.4,3.5c-1,0-1.9-0.4-2.6-1.1c-0.6-0.7-1-1.5-1-2.5V99.2c0-1.9,1.6-3.5,3.5-3.5
	s3.5,1.6,3.5,3.5V125.7z M109,119.1c0,1.9-1.5,3.5-3.4,3.5c-1,0-1.9-0.4-2.6-1.1c-0.6-0.7-1-1.5-1-2.5v-13.3c0-1.9,1.6-3.5,3.5-3.5
	s3.5,1.6,3.5,3.5V119.1z M123,131.6c0,1.9-1.6,3.5-3.5,3.5s-3.5-1.6-3.5-3.5V93.4c0-1.9,1.6-3.5,3.5-3.5s3.5,1.6,3.5,3.5V131.6z
	 M137,117.9c0,1.9-1.6,3.5-3.5,3.5s-3.5-1.6-3.5-3.5v-10.8c0-1.9,1.6-3.5,3.5-3.5s3.5,1.6,3.5,3.5V117.9z M151,122.6
	c0,1.9-1.5,3.5-3.5,3.5c0,0,0,0,0,0c-1.9,0-3.5-1.6-3.5-3.5v-20.3c0-1.9,1.6-3.5,3.5-3.5s3.5,1.6,3.5,3.5V122.6z M165,130.3
	c0,1.9-1.5,3.5-3.5,3.5c0,0,0,0,0,0c-1.9,0-3.5-1.6-3.5-3.5V94.6c0-1.9,1.6-3.5,3.5-3.5s3.5,1.6,3.5,3.5V130.3z"/>
</svg>
