<?xml version="1.0" encoding="utf-8"?>
<!-- Generator: Adobe Illustrator 24.3.0, SVG Export Plug-In . SVG Version: 6.00 Build 0)  -->
<svg version="1.1" id="Layer_1" xmlns="http://www.w3.org/2000/svg" xmlns:xlink="http://www.w3.org/1999/xlink" x="0px" y="0px"
	 viewBox="0 0 225 225" style="enable-background:new 0 0 225 225;" xml:space="preserve">
<style type="text/css">
	.st0{fill:#FFFFFF;}
</style>
<path class="st0" d="M64.8,88.2c-0.8-0.8-1.9-1.7-2.7-2.7c-2.2-2.5-2.1-6.3,0.4-8.5c2.5-2.2,6.3-2.1,8.5,0.4
	c0.9,0.7,1.6,1.5,2.3,2.3C70.3,82.7,67.6,85.5,64.8,88.2z"/>
<path class="st0" d="M74.9,98.5c-2.7-2.8-5.5-5.6-8.2-8.3l8.4-8.4l15.8,15.8c-2.8,0-5.6-0.2-8.4,0.1c-2.2,0.2-4.5,0.6-6.7,1.1
	C75.5,98.7,75.1,98.7,74.9,98.5z"/>
<path class="st0" d="M61.6,118.4c0.5-3.8,2-7.4,4.5-10.4c4.1-5.4,10.6-8.5,17.4-8.3c19.5-0.1,39.2-0.1,58.8,0
	c10.5-0.1,19.6,7.3,21.7,17.6c0,0.4,0.1,0.8,0.2,1.1C130,104.5,95.9,104.4,61.6,118.4z"/>
<path class="st0" d="M109.3,142.2c-2.9,1.1-6.1,1-8.9-0.2l0,0c0-0.1,0-0.3-0.1-0.4c1.4-0.2,3-0.4,4.4-0.7
	C106.5,140.5,107.7,141.3,109.3,142.2z"/>
<path class="st0" d="M112.9,129.2c1.3,3.1,1.3,6.6,0.1,9.8C111.6,137.2,111.4,132,112.9,129.2z"/>
<path class="st0" d="M125.6,141.8c-2.8,1.3-6,1.4-8.9,0.4l0,0C119.3,140.4,122.8,140.3,125.6,141.8z"/>
<path class="st0" d="M163.7,120.8c-3.8-1.4-7.5-3-11.4-4.2c-14-4.6-28.7-6.7-43.4-6.3c-11,0.4-21.9,2.2-32.5,5.4
	c-4.8,1.5-9.5,3.3-14.2,5c-0.5,0.2-0.8,0.2-0.8,0.9c0.1,2.7-0.1,5.5,0.2,8.1c1.1,11.1,10.4,19.6,21.6,19.6h59.4
	c10.3,0,19.1-7.2,21.3-17.2h0c0.7-3.6,0.5-7.2,0.6-10.6C164.3,121.1,164,120.9,163.7,120.8z M114,143.8c-0.6-0.3-1.4-0.3-2,0
	c-5.6,2.5-11,1.8-16.1-1.7c-0.2,0-0.2,0-0.2-0.2c2.3-1.9,5.1-2.6,8.1-3.2c-2.3-2.5-3.8-5.7-4.3-9.1c3.4,0.5,6.6,2,9.1,4.4
	c-0.6,0.5-1.1,1-1.6,1.4c-1.3-0.9-2.6-1.7-4.2-2.7c0.3,2.7,4.7,6.8,7.9,7.6c-1.1-2.6-1.5-5.4-1.1-8.1c0.4-2.8,1.5-5.4,3.2-7.6
	c3.4,5,4.3,10.1,2.1,15.7c2.4,0,6.8-4.1,7.8-7.4c-1.4,0.9-2.7,1.8-4.2,2.7c-0.4-0.5-0.8-0.9-1.4-1.5c2.5-2.3,5.5-3.8,8.8-4.4
	c0.1,0.1,0.3,0.1,0.4,0.2c-0.5,1.6-1,3.1-1.7,4.6c-0.7,1.4-1.7,2.8-2.6,4.2c1.4,0.3,2.8,0.7,4.1,1.2c1.4,0.6,2.8,1.3,4.1,2.1
	C125.2,145.5,119.8,146.5,114,143.8z"/>
<path class="st0" d="M140,0H85C38.1,0,0,38.1,0,85v55c0,46.9,38.1,85,85,85h55c46.9,0,85-38.1,85-85V85C225,38.1,186.9,0,140,0z
	 M166,132c-1.9,10-9.8,17.7-19.8,19.4c-1.4,0.2-2.8,0.3-4.2,0.3H83c-12.1,0-22.2-9-23.7-21c-0.5-5.2-0.9-10.5,0.7-15.7
	c1.8-6.4,6.1-11.7,12-14.7c0.3-0.2,0.6-0.3,1.1-0.6c-0.4-0.2-0.7-0.4-1-0.7c-3.8-3.8-7.5-7.6-11.3-11.4c-3-3.1-3.2-7.9-0.5-11.2
	c2.8-3.3,7.5-3.9,11.1-1.5c0.4,0.2,0.8,0.5,1.1,0.9c6.7,6.7,13.3,13.4,20,20l0.2,0.2c0.9,1.4,2.1,1.6,3.7,1.6
	c15.3-0.1,30.4-0.1,45.7,0c9.7,0,16.9,4.5,21.7,12.9c1.8,3.2,2.7,6.8,2.7,10.4C166.8,124.5,166.6,128.3,166,132z"/>
</svg>
