<?xml version="1.0" encoding="utf-8"?>
<!-- Generator: Adobe Illustrator 24.3.0, SVG Export Plug-In . SVG Version: 6.00 Build 0)  -->
<svg version="1.1" id="Layer_1" xmlns="http://www.w3.org/2000/svg" xmlns:xlink="http://www.w3.org/1999/xlink" x="0px" y="0px"
	 viewBox="0 0 225 225" style="enable-background:new 0 0 225 225;" xml:space="preserve">
<style type="text/css">
	.st0{fill:#FFFFFF;}
</style>
<path class="st0" d="M140,0H85C38.1,0,0,38.1,0,85v55c0,46.9,38.1,85,85,85h55c46.9,0,85-38.1,85-85V85C225,38.1,186.9,0,140,0z
	 M67,137c0,1.9-1.5,3.5-3.4,3.5c-1,0-1.9-0.4-2.6-1.1c-0.6-0.7-1-1.5-1-2.5V88c0-1.9,1.6-3.5,3.5-3.5S67,86.1,67,88V137z M81,127.2
	c0,1.9-1.5,3.5-3.4,3.5c-1,0-1.9-0.4-2.6-1.1c-0.6-0.7-1-1.5-1-2.5V97.8c0-1.9,1.6-3.5,3.5-3.5s3.5,1.6,3.5,3.5V127.2z M95,142.6
	c0,1.9-1.5,3.5-3.5,3.5h0c-0.9,0-1.8-0.4-2.4-1c-0.6-0.7-1-1.5-1-2.5V82.4c0-1.9,1.5-3.5,3.4-3.5h0.1c1.9,0,3.4,1.5,3.4,3.4V142.6z
	 M109,130.3c0,1.9-1.5,3.5-3.4,3.5c-1,0-1.9-0.4-2.6-1.1c-0.6-0.7-1-1.5-1-2.5V94.6c0-1.9,1.6-3.5,3.5-3.5s3.5,1.6,3.5,3.5V130.3z
	 M123,122.6c0,1.9-1.5,3.5-3.4,3.5c-1,0-1.9-0.4-2.6-1.1c-0.6-0.7-1-1.5-1-2.5v-20.3c0-1.9,1.6-3.5,3.5-3.5s3.5,1.6,3.5,3.5V122.6z
	 M137,141.4c0,1.9-1.6,3.5-3.5,3.5s-3.5-1.6-3.5-3.5V83.7c0-1.9,1.5-3.5,3.5-3.5h0.1c1.8,0,3.3,1.4,3.4,3.3V141.4z M151,133.5
	c0,1.9-1.5,3.5-3.5,3.5c0,0,0,0,0,0c-1.9,0-3.5-1.6-3.5-3.5v-42c0-1.9,1.6-3.5,3.5-3.5c1.9,0,3.5,1.6,3.5,3.5V133.5z M165,122.6
	c0,1.9-1.5,3.5-3.4,3.5c-1,0-1.9-0.4-2.6-1.1c-0.6-0.7-1-1.5-1-2.5v-20.3c0-1.9,1.6-3.5,3.5-3.5s3.5,1.6,3.5,3.5V122.6z"/>
</svg>
