<?xml version="1.0" encoding="utf-8"?>
<!-- Generator: Adobe Illustrator 24.3.0, SVG Export Plug-In . SVG Version: 6.00 Build 0)  -->
<svg version="1.1" id="Layer_1" xmlns="http://www.w3.org/2000/svg" xmlns:xlink="http://www.w3.org/1999/xlink" x="0px" y="0px"
	 viewBox="0 0 225 225" style="enable-background:new 0 0 225 225;" xml:space="preserve">
<style type="text/css">
	.st0{fill:#FFFFFF;}
</style>
<path class="st0" d="M77.2,91c0,0.1,0,0.2,0,0.2s0,0.2,0,0.2v25.9c0,1.7-0.7,2.3-2.5,2.4s-2.7-0.7-2.7-2.4V91.6
	c-0.2-1.1,0.6-2.1,1.7-2.3c0.2,0,0.4,0,0.6,0h0.8C76.1,89.2,77,90,77.2,91z"/>
<path class="st0" d="M100.2,87.3L100.2,87.3c0.3,0.5,0.5,1.1,0.5,1.7c0.1,3.6,0,7.2,0,10.8v10.5c0,1.6-0.7,2.2-2.2,2.2h-1
	c-1,0-1.8-0.8-1.8-1.8V89.3c0-1,0.1-1.9,1.1-2.2C97.9,86.7,99.3,86.4,100.2,87.3z"/>
<path class="st0" d="M100.2,124L100.2,124c0.4,0.5,0.6,1.2,0.6,1.8c0.1,4.3,0,8.7,0,13v13.1c0,1.6-0.6,2.2-2.2,2.2h-1
	c-1,0-1.8-0.8-1.8-1.8c-0.1-1,0-1.8,0-2.8v-23.3c0-0.9,0-1.9,1-2.3C97.9,123.4,99.2,123.4,100.2,124z"/>
<path class="st0" d="M127.8,94.2c2.3,0,3.1,0,3,3l0,0.1c0,4.1,0,8.2,0,12.4v13.3c0,1.4-0.4,1.9-1.8,1.9c-3,0.1-3.3-0.2-3.3-3.1V96.4
	C125.6,94.8,126,94.2,127.8,94.2z"/>
<path class="st0" d="M155.7,101.2L155.7,101.2c0,0.5,0.1,0.9,0.1,1.2v26.4c0,1.6-0.5,2-2,2c-3,0-3.1-0.2-3.1-3.1v-25
	c0-0.5,0-1.1,0.2-1.6c0.6-1.3,1.9-0.8,3-0.8C154.7,100.3,155.4,100.4,155.7,101.2z"/>
<path class="st0" d="M163.4,73.2c0,0.1,0,0.1,0,0.2c0,0.5-0.2,1.1-0.5,1.5v0c-0.4,0.4-0.9,0.8-1.5,1c-0.3,0.1-0.7,0.1-1,0.1H64.5
	c-0.6,0-1.1,0-1.7-0.2c-1-0.4-1.3-1.9-1-3.5c0.3-0.9,1.1-1.5,2-1.5h96.8C162,70.8,163.2,71.8,163.4,73.2z"/>
<path class="st0" d="M140,0H85C38.1,0,0,38.1,0,85v55c0,46.9,38.1,85,85,85h55c46.9,0,85-38.1,85-85V85C225,38.1,186.9,0,140,0z
	 M164.7,76.6c-0.9,1.2-2.4,1.8-3.8,1.7h-6.3v19.6c0.1,0,0.3,0.1,0.5,0.1c2,0.3,3.4,2,3.3,4V129c0,0.2,0,0.3,0,0.5
	c-0.2,2.1-2,3.7-4.1,3.5H152c-1.9-0.1-3.4-1.6-3.5-3.5v-27.8c0-2,1.2-3.2,3.7-3.7V78.3h-22.7v13.5c0.4,0.2,0.9,0.2,1.3,0.4
	c1.5,0.6,2.4,2.1,2.3,3.7v27.5c-0.1,2.1-1.9,3.6-3.9,3.5c-0.8,0.1-1.7,0-2.5-0.1c-2-0.3-3.4-2-3.2-4V96.3c0-2.6,1.1-3.9,3.7-4.3
	V78.3H99.7v4.4c-0.1,1.1,0,1.8,1.4,2.2c1.5,0.5,2.5,2,2.4,3.6v22.1c0,2.1-1.2,3.3-3.7,4.1v6.5c1.9,0.2,3.3,1.6,3.6,3.5
	c0,0.3,0,0.7,0,1V152c0,2.8-1.7,4.3-4.5,4.5c-3.9,0.2-5.4-2-5.4-5.3c0.1-8.3,0.1-16.5,0.1-24.8c0-3.1,0.8-4.1,3.7-5.1v-6.5
	c-1.7-0.2-3.1-1.4-3.5-3.1c-0.1-0.4-0.2-0.8-0.2-1.3V89.2c0-2.7,1-4,3.7-4.7v-6.2H75.9V87c0.2,0,0.5,0.2,0.7,0.2
	c1.7,0.5,2.9,2.1,2.9,3.9v26.7c0,2.2-1.8,4.1-4,4.1h-1.6c-2.2,0-4.1-1.8-4.1-4V92.4c0-3.3,0.6-4.2,3.7-5.5v-8.7h-1.2c-3,0-6,0-9-0.1
	c-1.9-0.1-3.4-1.5-3.7-3.3c-0.2-1.1-0.2-2.2,0-3.2c0.4-1.7,1.8-2.9,3.5-3.1h97.6c1.5-0.1,2.9,0.5,3.9,1.6
	C165.8,72.1,165.8,74.6,164.7,76.6z"/>
</svg>
