<?xml version="1.0" encoding="utf-8"?>
<!-- Generator: Adobe Illustrator 24.3.0, SVG Export Plug-In . SVG Version: 6.00 Build 0)  -->
<svg version="1.1" id="Layer_1" xmlns="http://www.w3.org/2000/svg" xmlns:xlink="http://www.w3.org/1999/xlink" x="0px" y="0px"
	 viewBox="0 0 225 225" style="enable-background:new 0 0 225 225;" xml:space="preserve">
<style type="text/css">
	.st0{fill:#FFFFFF;}
</style>
<path class="st0" d="M151.3,140.6h4.9v16.7l-0.5,0H69v-16.7h4c0.1,0.3,0.1,0.7,0.1,1v8.6c0,1.2,0.9,2.2,2.1,2.2s2.2-0.9,2.2-2.1
	v-9.7h2.2v9.1c0,1.7,0.8,2.7,2.2,2.7s2.2-1,2.2-2.7v-9.1h2.2v9.4c-0.1,0.9,0.4,1.7,1.1,2.2c0.7,0.4,1.6,0.4,2.2-0.1
	c0.7-0.4,1.1-1.2,1.1-2v-9.4h6.2c0.1,0.3,0.1,0.7,0.1,1v8c0,0.4,0.1,0.9,0.2,1.3c0.3,0.9,1.2,1.4,2.1,1.3c1.2,0,2.1-1,2.2-2.1v-9.6
	h2.2v9.4c-0.1,0.9,0.4,1.7,1.2,2.2c1.1,0.6,2.4,0.2,3-0.9c0.2-0.4,0.3-0.8,0.2-1.3v-9.4h7.1c0,0.3,0.1,0.7,0.1,1v8.8
	c0.1,1.2,1.1,2.1,2.2,2c0.6,0,1.1-0.2,1.5-0.6s0.6-0.9,0.6-1.5v-9.6h2.3v9.8c0,1.2,1,2.2,2.3,2.2c1.2,0,2.2-1,2.2-2.3
	c0-0.1,0-0.2,0-0.3v-9.4h2.2v9.9c0.1,1.2,1.2,2.1,2.5,2c1.1-0.1,1.9-1,1.9-2.1c0-0.1,0-0.1,0-0.2v-9.5h6.9c0.1,0.3,0.1,0.7,0.1,1
	v8.1c0,1.7,0.8,2.6,2.2,2.6c1.4,0,2.2-1,2.2-2.7v-9.1h2.1v9.1c0,1.6,0.8,2.7,2.2,2.7c1.4,0,2.2-1,2.2-2.7V140.6z"/>
<path class="st0" d="M157.6,117.2c0.2,6.1,0,12.2-0.1,18.3c0,0.2-0.1,0.3-0.1,0.6H67.1v-1.2c0-13.6-0.1-27.4,0-40.9
	c0.1-10.2,4.8-17.8,13.7-22.7c15.2-8.4,33.3-1.2,39.5,15.4c2.7,7.1,7.8,11.4,15.2,13c2.1,0.5,4.3,0.4,6.5,0.9
	c6.5,1.4,11.7,4.9,14.4,11.2C157.1,113.5,157.5,115.3,157.6,117.2z"/>
<path class="st0" d="M140,0H85C38.1,0,0,38.1,0,85v55c0,46.9,38.1,85,85,85h55c46.9,0,85-38.1,85-85V85C225,38.1,186.9,0,140,0z
	 M162,138.3c-0.1,0.7-0.4,1.4-1,1.8c-0.4,0.3-0.7,0.8-0.7,1.3v17.5c0,2.1-0.7,2.8-2.8,2.8h-90c-2,0-2.7-0.7-2.7-2.7v-18.4l-0.3,0.2
	l-1.7-1.7V91.6c0-0.3,0.1-0.6,0.2-0.8c0.4-1.9,0.5-3.8,1.1-5.7c4.7-15.5,20.9-24.7,37.1-21.1c11.5,2.6,19.1,9.9,23.3,20.8
	c2.6,6.7,7.4,10.2,14.5,10.7c4.1,0.2,8.1,1.4,11.7,3.5c6.8,4,11,9.8,11.4,17.8C162.3,124,162.1,131.2,162,138.3z"/>
</svg>
