<svg id="Layer_1" data-name="Layer 1" xmlns="http://www.w3.org/2000/svg" xmlns:xlink="http://www.w3.org/1999/xlink" viewBox="0 0 228 228"><defs><linearGradient id="linear-gradient" x1="26.4" y1="26.4" x2="201.6" y2="201.6" gradientUnits="userSpaceOnUse"><stop offset="0" stop-color="#190707"/><stop offset="1" stop-color="#4c1616"/></linearGradient></defs><rect x="1.5" y="1.5" width="225" height="225" rx="85" stroke="#fff" stroke-miterlimit="10" stroke-width="3" fill="url(#linear-gradient)"/><path d="M139.57,134.42" fill="#fff"/><path d="M72,77.38a2,2,0,0,1,1.56-2.33H74.9v-.11a4.36,4.36,0,0,1,1.24.21,1.94,1.94,0,0,1-.21,3.69,8.66,8.66,0,0,1-1.61.1A1.94,1.94,0,0,1,72,77.46.19.19,0,0,1,72,77.38Z" fill="#fff"/><path d="M81.5,81.5c0,1.77-.57,2.6-1.82,2.7s-2-.78-2-2.54v-1A2,2,0,0,1,79.6,79C80.81,79,81.5,80,81.5,81.5Z" fill="#fff"/><path d="M77.59,72.35c0-1.66.58-2.44,1.77-2.55s2,.78,2,2.24c.11,1.81-.57,2.9-1.92,2.9S77.59,74,77.59,72.35Z" fill="#fff"/><path d="M81.75,77.69c-.57-1.45.46-2.59,2.54-2.59,1.82,0,2.91,1.09,2.44,2.54A1.89,1.89,0,0,1,84.6,79C83.41,78.84,82.27,78.94,81.75,77.69Z" fill="#fff"/><path d="M101.5,72a1.82,1.82,0,0,1,.1-2.34,1.73,1.73,0,0,1,2.43-.32h0c1.15,1.09,2.34,2.23,3.38,3.37a4.27,4.27,0,0,1,.46,1.25c-.36.47-.67,1.14-1.14,1.35a2.07,2.07,0,0,1-1.92-.11A28.76,28.76,0,0,1,101.5,72Z" fill="#fff"/><path d="M111.9,66.64a1.92,1.92,0,0,1,1.92-1.92h.11a1.88,1.88,0,0,1,1.81,1.92,1.92,1.92,0,0,1-1.9,1.92h0A2,2,0,0,1,111.9,66.64Z" fill="#fff"/><path d="M115.23,159.91a1.86,1.86,0,0,1,0,2.63l-.08.07-.1.1-.57.37H113.2c-.21-.11-.36-.32-.57-.37a1.89,1.89,0,0,1-.67-2.59h0a1.81,1.81,0,0,1,2.44-.77l.15.09A1,1,0,0,1,115.23,159.91Z" fill="#fff"/><path d="M115.9,73.8v5.14a1.9,1.9,0,0,1-3.79,0V73.8A1.8,1.8,0,0,1,113.88,72h.2A2,2,0,0,1,115.9,73.8Z" fill="#fff"/><path d="M120.26,72.76c.1-.21.31-.31.47-.46l2.9-2.91a1.64,1.64,0,0,1,2-.31A10.49,10.49,0,0,1,127,70.63a4.58,4.58,0,0,1-.89,1.56c-.88,1-1.76,1.82-2.69,2.7a1.92,1.92,0,0,1-2.67.49l0,0a1.72,1.72,0,0,1-.63-2.34A2.48,2.48,0,0,1,120.26,72.76Z" fill="#fff"/><path d="M141,76.91a1.79,1.79,0,0,1,1.56-1.76,5.2,5.2,0,0,1,1.76,0,1.81,1.81,0,0,1,1.82,1.8v.12a1.82,1.82,0,0,1-1.84,1.82h-.76a5.16,5.16,0,0,1-1.24-.11A1.7,1.7,0,0,1,141,76.91Z" fill="#fff"/><path d="M150.05,80.5a5.63,5.63,0,0,1,0,1.92,1.86,1.86,0,0,1-1.92,1.76H148a2,2,0,0,1-1.77-1.92v-.57h0v-1A2.1,2.1,0,0,1,148,78.93,2.25,2.25,0,0,1,150.05,80.5Z" fill="#fff"/><path d="M146.26,72.5c0-1,0-2,1.09-2.54a1.89,1.89,0,0,1,2.54.87h0c.1.1.1.31.2.36a2.59,2.59,0,0,1,.11,1c0,2.23-1.25,3.32-2.7,2.59A2.22,2.22,0,0,1,146.26,72.5Z" fill="#fff"/><path d="M150.31,76.6a2,2,0,0,1,1.92-1.55c1.82-.11,2.7.31,3,1.24.47,1.46-.46,2.55-2.44,2.55C151.09,78.84,150.05,78,150.31,76.6Z" fill="#fff"/><path d="M163,138.5a13.15,13.15,0,0,0-9.92-10.85c-1.81-.57-3.78-1-5.7-1.45a1.34,1.34,0,0,1-.78-.36,2.87,2.87,0,0,1,.78-2.91,11.68,11.68,0,0,0,4.93-8.72,76.88,76.88,0,0,0,0-9.6,16.59,16.59,0,0,0-.47-2.7,12.63,12.63,0,0,0-15.7-8.52h0a13.32,13.32,0,0,0-5.91,3.68,17.5,17.5,0,0,0-6-8.72,15.93,15.93,0,0,0-10-3.47c-8.31,0-13.76,4.36-16.66,12L97,96.5c-3.9-3.58-8.36-4.67-13.29-2.69a11.73,11.73,0,0,0-8.15,10.79c-.21,2.7-.1,5.5-.1,8.36a12.28,12.28,0,0,0,4.67,9.6,2.82,2.82,0,0,1,1.24,2.6,1,1,0,0,1-.88,1.09c-1.76.36-3.37.77-5,1.14A13.45,13.45,0,0,0,64.8,141v11.83c0,2,.58,2.7,2.7,2.7H82v5a2.37,2.37,0,0,0,1.35,2.6l22.11.1c1.14-.67,1.66-1.35,1.35-2.33s-1-1.46-2.44-1.46H96.5v-8.56a1.82,1.82,0,0,0-1.84-1.82H94.5a2,2,0,0,0-1.76,2.13v8.15H86c.1-3.79-.1-7.58.47-11.26,1-5.71,4.57-9.29,10.17-10.85,3.22-.88,6.39-1.56,9.71-2.34.46,1,.88,1.82,1.24,2.81,1.56,3.47,3.12,7,4.57,10.48.36.88.88,1.66,2,1.66a2,2,0,0,0,1.92-1.66c1.81-4.15,3.68-8.25,5.45-12.4a1,1,0,0,1,1.18-.78.79.79,0,0,1,.27.1c2.7.68,5.34,1.25,8,1.92A13.85,13.85,0,0,1,142,149.62c.21,3.22,0,6.39,0,9.71h-6.7v-8c0-1.34-.67-2.23-1.81-2.23s-1.92.78-1.92,2.23v8.17h-8.62c-1.09,0-2,.11-2.54,1.25-.37.88-.11,1.56,1.09,2.54h23a2.54,2.54,0,0,0,1.35-2.59v-5h14.74a2.5,2.5,0,0,0,2.6-1.35V139.1C163.13,138.78,163,138.68,163,138.5Zm-31.61-36.1A8.8,8.8,0,0,1,140,96.79,8.94,8.94,0,0,1,148.5,106a.36.36,0,0,1-.11.21v-.11c-5.71.32-11.37.21-16.5-2.69C131.42,103.28,131.21,103.07,131.42,102.4Zm-.47,4.88c5.61,2.91,11.52,3,17.55,2.8h0c.88,5.5-1.82,10.07-6.8,11.26a4.49,4.49,0,0,1-1.15.21,8.83,8.83,0,0,1-9.6-7.94C130.85,111.5,131,109.5,131,107.28ZM105.5,91.91a12.71,12.71,0,0,1,14.17-1.81A13.06,13.06,0,0,1,127,102l-6.39-3.69c-1.76-1.09-2.23-1-3.58.47a14.12,14.12,0,0,1-9.57,4.68c-2.13.1-4.25,0-6.49,0A12.83,12.83,0,0,1,105.5,91.91ZM85,97.36a8.78,8.78,0,0,1,11.39,4.93l0,.07c0,.1.11.1.11.21a.9.9,0,0,1-.47,1,22.87,22.87,0,0,1-11,2.81H79.36v-.11A8.84,8.84,0,0,1,85,97.36Zm-5.6,15.84v-3.12c6.12.21,12,.11,17.65-2.8-.21,3.22.46,6.12-.78,9a9,9,0,0,1-7.73,5.38,8.75,8.75,0,0,1-9.14-8.35Zm6.14,26.62a18.36,18.36,0,0,0-3.59,11.37.71.71,0,0,1-.1.47h-5.6v-8.93a1.92,1.92,0,1,0-3.79.67v8.26H68.67V141.07a9.43,9.43,0,0,1,7.68-9.71c1.82-.47,3.79-.88,5.71-1.35,1.24,3,2.54,6,3.68,9.14A1.1,1.1,0,0,1,85.5,139.82Zm2.68-5.32c-1-3.12-3.37-5.71-2.9-9.19H91C91.56,128.77,89.12,131.41,88.18,134.5Zm13.32-2.72-9,2.33,1.77-4.25,7.06,1.76v.21h.1Zm3.74-2.6c-3.12-1.76-6.49-2.13-9.71-3a1.6,1.6,0,0,1-.67-.78A2.32,2.32,0,0,1,96,122.7c1.09-.77,2.13-1.55,3.22-2.44v-.1a16.2,16.2,0,0,0,5.71,6,1.13,1.13,0,0,1,.31.78Zm12.82,4.47c-1.35,2.69-2.44,5.45-3.69,8.25-.1.31-.31.57-.46,1.09a4.39,4.39,0,0,1-.47-.88c-1.35-3.12-2.8-6.13-4-9.19-.57-1.35-.36-3-.57-4.78h0a18.09,18.09,0,0,0,9.71.11c0,1.81.33,3.63-.55,5.4Zm-5.35-8.72a13.13,13.13,0,0,1-11.83-12.82v-4.68h3c5.81.32,11-1.09,15.41-5.34,2.55,1.45,4.93,2.9,7.48,4.36a.64.64,0,0,1,.31.57c-.1,2.7.1,5.6-.47,8.25a13.13,13.13,0,0,1-13.93,9.66Zm9.92,3.84v-1.92c0-.32.2-.47.36-.68a16.76,16.76,0,0,0,5.92-6.28,41.24,41.24,0,0,1,3.78,3.58c.47.47.32,1.66.37,2.44Zm3.78,3.11v-.31l7.06-1.77,1.77,4.26Zm13.19,2.54c-.88-2.12-1.82-4.15-2.6-6.22a8.57,8.57,0,0,1-.2-2.81h5.81c.44,3.38-2,6-3,9Zm19.77,16.35c0,.21-.1.47-.1.78h-3.22c-.21,0-.47-.46-.47-.78v-7a4.36,4.36,0,0,0-.1-1.14,1.75,1.75,0,0,0-2-1.46h0a1.92,1.92,0,0,0-1.77,1.82v8.51H146c-.21-1.55-.21-3-.46-4.57a18,18,0,0,0-3-7,1.22,1.22,0,0,1-.31-1.09c1.25-3,2.55-6,3.79-9.19a68.26,68.26,0,0,1,7.68,2.13,8.81,8.81,0,0,1,5.71,8.46Z" fill="#fff"/></svg>