<svg id="Layer_1" data-name="Layer 1" xmlns="http://www.w3.org/2000/svg" xmlns:xlink="http://www.w3.org/1999/xlink" viewBox="0 0 228 228"><defs><linearGradient id="linear-gradient" x1="26.4" y1="26.4" x2="201.6" y2="201.6" gradientUnits="userSpaceOnUse"><stop offset="0" stop-color="#190707"/><stop offset="1" stop-color="#4c1616"/></linearGradient></defs><rect x="1.5" y="1.5" width="225" height="225" rx="85" stroke="#fff" stroke-miterlimit="10" stroke-width="3" fill="url(#linear-gradient)"/><path d="M88.8,115.24v.11a2.83,2.83,0,0,1-2.73,2.93h-.16a19.54,19.54,0,0,1-2.42,0,18,18,0,0,1-2.32,0,3,3,0,0,1-2.89-2.88v-.11a2.79,2.79,0,0,1,2.85-2.73h4.73A2.9,2.9,0,0,1,88.8,115.24Z" fill="#fff"/><path d="M88.8,126.74h0a2.81,2.81,0,0,1-2.61,3h-.12a22.21,22.21,0,0,1-2.58,0H81.17a3,3,0,0,1-2.89-2.89v-.1A2.86,2.86,0,0,1,81.17,124h4.74A2.93,2.93,0,0,1,88.8,126.74Z" fill="#fff"/><path d="M93.59,115.5h0a2.77,2.77,0,0,1,2.77-2.79h4.81a2.89,2.89,0,0,1,2.88,2.74,2.74,2.74,0,0,1-2.56,2.92h-.17a18.51,18.51,0,0,1-2.58,0h0a17.81,17.81,0,0,1-2.31,0,2.73,2.73,0,0,1-2.84-2.61A2.43,2.43,0,0,1,93.59,115.5Z" fill="#fff"/><path d="M95.86,129.67a2.54,2.54,0,0,1-2.29-2.77.88.88,0,0,1,0-.16v-.11a2.73,2.73,0,0,1,2.63-2.57h5.15a3,3,0,0,1,2.73,2.57,2.62,2.62,0,0,1-2.21,3h0A37.31,37.31,0,0,1,95.86,129.67Z" fill="#fff"/><path d="M108.74,115.4h0a3,3,0,0,1,2.94-2.79h4.64a2.86,2.86,0,0,1,2.89,2.79,2.92,2.92,0,0,1-2.74,2.88,18.37,18.37,0,0,1-2.57,0h0a18,18,0,0,1-2.32,0,2.84,2.84,0,0,1-2.84-2.84Z" fill="#fff"/><path d="M108.74,126.89h0a2.77,2.77,0,0,1,2.75-2.79h4.88a2.86,2.86,0,0,1,.16,5.72,19.7,19.7,0,0,1-2.43,0h-2.32A3.05,3.05,0,0,1,108.74,126.89Z" fill="#fff"/><path d="M131.94,140a2.88,2.88,0,0,1-3,2H99a2.85,2.85,0,0,1-.51-5.67H129a2.83,2.83,0,0,1,3.06,2.58A2.86,2.86,0,0,1,131.94,140Z" fill="#fff"/><path d="M134.41,126.63a2.62,2.62,0,0,1-2.21,3H132a36.07,36.07,0,0,1-5.88,0,2.67,2.67,0,0,1-2.26-3h0a2.78,2.78,0,0,1,2.73-2.57h5.15A2.73,2.73,0,0,1,134.41,126.63Z" fill="#fff"/><path d="M134.5,115.29v.21a2.84,2.84,0,0,1-2.73,2.94h-.1a20.52,20.52,0,0,1-2.48,0h-2.32a2.87,2.87,0,0,1-2.93-2.79v-.15a2.77,2.77,0,0,1,2.74-2.78h4.78a2.7,2.7,0,0,1,3,2.34A1.64,1.64,0,0,1,134.5,115.29Z" fill="#fff"/><path d="M149.72,115.29h0a2.9,2.9,0,0,1-2.79,3h0a19.54,19.54,0,0,1-2.42,0h-2.32a3,3,0,0,1-2.94-2.78h0a2.77,2.77,0,0,1,2.76-2.78h4.77a2.75,2.75,0,0,1,2.94,2.53Z" fill="#fff"/><path d="M149.72,126.5a2.54,2.54,0,0,1-2,3l-.13,0a44.72,44.72,0,0,1-6.34,0,2.58,2.58,0,0,1-2-3,2.73,2.73,0,0,1,2.58-2.48h5.31A3.13,3.13,0,0,1,149.72,126.5Z" fill="#fff"/><path d="M162.81,115.24a20,20,0,0,0-20.26-17.52H84.06c0-1.86-.11-3.71,0-5.52a2.8,2.8,0,0,1,2.62-2.57,6,6,0,0,1,1.4-.11H141a9.65,9.65,0,0,0,1.7-.1,8.18,8.18,0,0,0,7.52-6.49,30.72,30.72,0,0,0,.16-7.17A2.84,2.84,0,0,0,149,73.91c-1.86-1.19-4.13.26-4.18,2.58V81a2.77,2.77,0,0,1-2.76,2.78H87.92a10.39,10.39,0,0,0-1.85.11,8.21,8.21,0,0,0-7.57,6.9,52.73,52.73,0,0,0-.26,7,1.24,1.24,0,0,1-.92,1.39A20,20,0,0,0,65,117.4v17.31A20,20,0,0,0,84.88,154.5H143a20.17,20.17,0,0,0,19.32-15.36c.26-.93.42-1.86.62-2.79v-20.7C162.86,115.6,162.81,115.4,162.81,115.24Zm-5.57,19.18v.46A14.42,14.42,0,0,1,142.55,149H85.29a14.33,14.33,0,0,1-14.22-11.5,12.09,12.09,0,0,1-.31-3v-17a14.25,14.25,0,0,1,14.4-14.12h.13q28.77-.15,57.52,0h.41a14.32,14.32,0,0,1,14.12,14.52h0V134.5h-.1Z" fill="#fff"/></svg>