<svg id="Layer_1" data-name="Layer 1" xmlns="http://www.w3.org/2000/svg" xmlns:xlink="http://www.w3.org/1999/xlink" viewBox="0 0 228 228"><defs><linearGradient id="linear-gradient" x1="26.4" y1="26.4" x2="201.6" y2="201.6" gradientUnits="userSpaceOnUse"><stop offset="0" stop-color="#190707"/><stop offset="1" stop-color="#4c1616"/></linearGradient></defs><rect x="1.5" y="1.5" width="225" height="225" rx="85" stroke="#fff" stroke-miterlimit="10" stroke-width="3" fill="url(#linear-gradient)"/><path d="M98.73,85.26" fill="#fff"/><path d="M96,153.91c0-.17-.11-.28-.11-.45a68.71,68.71,0,0,1-1.55-16.37c.12-1.83-.71-2.55-2.54-2.55H76.44V123.09a5,5,0,0,0-4.65-4.92,1.73,1.73,0,0,0-1.93,1.38,1.62,1.62,0,0,0,1.33,1.77c1.66.45,1.93.72,1.93,2.44V143.5a4.55,4.55,0,0,1-.11,1.22c-.5,3-.94,5.92-1.49,8.9-.17,1.22.16,2,1.22,2.27s1.82-.44,2-1.66c.44-2.43.88-4.81,1.21-7.24.11-.72.34-.89,1-.89h13.6c.72,0,.94.28,1,.89.33,2.43.77,5,1.22,7.41v.1a1.64,1.64,0,0,0,1.82,1.33h.11A1.66,1.66,0,0,0,96,153.91ZM91.1,142.68H76.44v-4.82H91.16v4.82Z" fill="#fff"/><path d="M158.37,119.72a1.87,1.87,0,0,0-2-1.49,4.94,4.94,0,0,0-4.54,5V134.5h-15c-2.54,0-3,.5-3,3.05a50.69,50.69,0,0,1-.11,7.08c-.33,3-.94,6-1.49,9-.17,1.17.27,2,1.32,2.22s1.78-.45,1.94-1.66c.44-2.44.89-4.82,1.22-7.25.11-.72.33-.94,1.16-.94h13.28c.77,0,1,.17,1.16.94.33,2.43.77,4.92,1.21,7.36v.27a1.6,1.6,0,0,0,1.92,1.22h.1a1.75,1.75,0,0,0,1.22-2c-.11-.5-.17-1-.28-1.55-.44-2.82-1.21-5.59-1.21-8.41-.17-6.75-.12-13.55-.12-20.3,0-1.38.45-1.82,1.77-2.1a1.68,1.68,0,0,0,1.55-1.55A.44.44,0,0,1,158.37,119.72Zm-6.64,23h-14.6V137.9h14.6Z" fill="#fff"/><path d="M161.74,84.37c-13.27-3.6-26.61-7.25-39.88-11-3.6-1-7.25-1.77-11-1-2.43.44-4.92,1.16-7.36,1.82L65.28,84.7a4.82,4.82,0,0,0-3.78,4.93v1.93A4.88,4.88,0,0,0,66,96.82a5.08,5.08,0,0,0,.78,0c7.36,0,14.88.11,22.18,0,1,0,1.22-.72,2.27-.94a9.89,9.89,0,0,1,2.55,0,3.11,3.11,0,0,0,2.6.94h15.82V128H96.5c-1.33,0-2.1.72-2.1,1.66s.77,1.55,2.1,1.55h12.67v1.66a4.88,4.88,0,0,0,2.6,4.37,1.24,1.24,0,0,1,.72,1.22c0,2.26-.11,4.53,0,6.8,0,.72-.17.94-.89,1.22a8.25,8.25,0,0,0-5.69,6.75c0,.27-.11.49-.11.77a1.66,1.66,0,1,0,3.3.35.57.57,0,0,0,0-.13c.28-2.38,1.39-4,3.32-4.48v4c0,1.38.61,2.1,1.66,2.1s1.55-.72,1.55-2.1v-4.2a4.87,4.87,0,0,1,3.21,4.37c.11,1.32.72,1.93,1.77,1.82s1.55-.77,1.49-2.1a8,8,0,0,0-4.81-7c-.5-.28-1.16-.44-1.77-.72,0-2.71-.11-5.42,0-8a1.73,1.73,0,0,1,.61-.89,5,5,0,0,0,2.6-4.48V131h13.11a1.64,1.64,0,0,0,1.65-1.5h0a1.65,1.65,0,0,0-1.65-1.65H115.66v-31h1.22c4.92,0,9.79.11,14.77,0,1-.11,1.16-.61,2.21-.88a12.61,12.61,0,0,1,2.88,0c.88.27.88.88,1.77.88h23.07a4.94,4.94,0,0,0,4.64-3.32,3.37,3.37,0,0,1,.28-.61V88.41C165.78,86.14,164.12,85,161.74,84.37Zm-50.24-8a4.1,4.1,0,0,1,4.93-.27c4.48,3,8.9,5.92,13.55,9.07H98.79c3.15-2.1,6.14-4.09,9-6.2C109,78.23,110.19,77.29,111.5,76.4ZM91.1,92.06c0,.88-.72,1.38-1.77,1.38H67.2c-1.82,0-2.38-.44-2.38-2.27,0-2.6,0-2.6,2.6-2.6H91.05A27.1,27.1,0,0,1,91.1,92.06Zm1.22-6.92c-2.27.72-4.81.17-7.25.17h-9V85L104,77.4l.12.17c-1.83,1.21-3.77,2.54-5.59,3.76C96.5,82.71,94.5,84.5,92.32,85.14ZM115,134.21a1.75,1.75,0,0,1-1.66,0c-1.16-.61-.72-1.82-.78-2.87h3.21c-.11,1.1.33,2.37-.77,2.87Zm18.81-42.32v.17a1.54,1.54,0,0,1-1.56,1.5H96.8c-1.94,0-2.38-.44-2.38-2.38V88.63h39.33v3.26Zm29.43-.16c0,1.33-.61,1.93-1.94,1.93H139.17c-1.66,0-2.21-.49-2.21-2.1V88.74h1.77a1.49,1.49,0,0,0,1.49-1.49v-.06A1.52,1.52,0,0,0,139,85.5a1.6,1.6,0,0,0-.72-.11c-1.83.28-3.21-.44-4.7-1.49-2.6-1.94-5.32-3.65-8-5.42a3.23,3.23,0,0,1-.71-.72l27.27,7.41v.33H145.5c-1.16.11-1.94.78-1.94,1.77s.72,1.55,1.94,1.55h12.78c1.33,0,2.6.11,4,0,.71,0,.94.28.94.94V91.7Z" fill="#fff"/></svg>