<svg id="Layer_1" data-name="Layer 1" xmlns="http://www.w3.org/2000/svg" xmlns:xlink="http://www.w3.org/1999/xlink" viewBox="0 0 228 228"><defs><linearGradient id="linear-gradient" x1="26.4" y1="26.4" x2="201.6" y2="201.6" gradientUnits="userSpaceOnUse"><stop offset="0" stop-color="#190707"/><stop offset="1" stop-color="#4c1616"/></linearGradient></defs><rect x="1.5" y="1.5" width="225" height="225" rx="85" stroke="#fff" stroke-miterlimit="10" stroke-width="3" fill="url(#linear-gradient)"/><path d="M161.5,126.76a1.06,1.06,0,0,0-1.08-1c-2.52-.57-5-1.24-7.42-1.8-.82-.16-1.08-.47-1.08-1.39a38.42,38.42,0,0,0-5.92-22,36.48,36.48,0,0,0-6.74-7.87L135.5,97a32.49,32.49,0,0,1,10.81,25.33l-6.13-1.55a29.31,29.31,0,0,0-1.64-8.65,26.46,26.46,0,0,0-4.38-7.67L129.84,108a20.85,20.85,0,0,1,4.58,11.22c-1.86-.46-3.61-1-5.3-1.29a1.28,1.28,0,0,1-1.09-1,13.45,13.45,0,0,0-3.24-5.72,1.63,1.63,0,0,1-.41-2c2.93-10.24,5.92-20.54,8.85-30.68a1.12,1.12,0,0,0-.25-1.39,16.23,16.23,0,0,0-2.27-2.27,25.12,25.12,0,0,0-35.47,2.17l0,0a1.17,1.17,0,0,0-.31,1.44c.72,2.52,1.44,5,2.21,7.57.16.67.1.87-.46,1.23a37.65,37.65,0,0,0-15,14.11,35.73,35.73,0,0,0-3.76,8.39l5.35,1.7A32.06,32.06,0,0,1,98.86,92.73c.47,1.8.88,3.5,1.45,5.14,0,0,0,.11.1.11a.94.94,0,0,1-.47,1.24l-.1,0a26.13,26.13,0,0,0-5.3,4.48l4.17,3.76,3.5-3.09c.67,2.06,1.13,3.81,1.65,5.62a.8.8,0,0,1-.26.87,15.86,15.86,0,0,0-3.66,6.28,1.18,1.18,0,0,1-.41.57c-2,.46-3.81,1-5.76,1.44l-.26-.26,1.8-6.69-5-2.37a24.11,24.11,0,0,0-2.42,9.53v.1a1.13,1.13,0,0,1-1,1.28h-.18C80.42,122.33,74,124,67.6,125.52a1.26,1.26,0,0,0-1.1,1.08c-.46,2-.87,3.92-1.39,5.92l-.1,4.23c.31,1.69.67,3.39,1.13,5,3.09,9.47,9.47,15.4,19.2,17.51a1.54,1.54,0,0,0,1.14-.31c1.85-1.86,3.65-3.76,5.45-5.61a3.6,3.6,0,0,0,.57-.83,38.71,38.71,0,0,0,29.09,5.72,22.66,22.66,0,0,0-.57-2.84c-.15-.87-.41-1.8-.56-2.78a33.36,33.36,0,0,1-12.2.16,31.59,31.59,0,0,1-11.38-4.48c1.39-1.39,2.67-2.78,4-4.07a1.35,1.35,0,0,1,1.08,0,26.59,26.59,0,0,0,11.38,2.94H114V141.5a22.37,22.37,0,0,1-8.51-2,32.31,32.31,0,0,0,2.79-2.94,3.34,3.34,0,0,1,3.75-1.23,16.89,16.89,0,0,0,5.31-.16,1.74,1.74,0,0,1,1.7.57c7.41,7.67,14.72,15.29,22.08,23a1.7,1.7,0,0,0,1.8.57c11.18-2.22,18.8-11.9,19.88-22.09a1.77,1.77,0,0,1,.15-.46V132.5A51.33,51.33,0,0,1,161.5,126.76ZM101.13,80.27a1.29,1.29,0,0,1,.46-1.55,19.77,19.77,0,0,1,24.77.16,1.37,1.37,0,0,1,.41,1.08c-2.63,9.06-5.15,18.17-7.72,27.18a42.23,42.23,0,0,0-5.15-.56,31.29,31.29,0,0,0-5,.67,6.28,6.28,0,0,1-.25-.73C106.17,97.67,103.65,89,101.13,80.27ZM103.81,133c-6.34,6.54-12.62,13-18.9,19.56a1.27,1.27,0,0,1-1.65.31A19.78,19.78,0,0,1,71,131.75a1.43,1.43,0,0,1,1.23-1.39C81,128.25,89.8,126,98.66,123.82l.82-.15c1.08,3.81,1.08,3.81,4.89,8.65A7.72,7.72,0,0,0,103.81,133Zm10.09-3a8.9,8.9,0,0,1-8.81-8.85v-.11a8.89,8.89,0,1,1,8.81,9Zm30.37,23.07a.92.92,0,0,1-1.23-.26c-6.54-6.85-13-13.59-19.57-20.39-.1,0-.1-.1-.15-.26a14.72,14.72,0,0,0,4.89-8.54c1.29.31,2.63.67,3.91.87l23.48,5.87a1.23,1.23,0,0,1,1.13,1.24,19.64,19.64,0,0,1-12.46,21.43Z" fill="#fff"/></svg>