<svg id="Layer_1" data-name="Layer 1" xmlns="http://www.w3.org/2000/svg" xmlns:xlink="http://www.w3.org/1999/xlink" viewBox="0 0 228 228"><defs><linearGradient id="linear-gradient" x1="26.4" y1="26.4" x2="201.6" y2="201.6" gradientUnits="userSpaceOnUse"><stop offset="0" stop-color="#190707"/><stop offset="1" stop-color="#4c1616"/></linearGradient></defs><rect x="1.5" y="1.5" width="225" height="225" rx="85" stroke="#fff" stroke-miterlimit="10" stroke-width="3" fill="url(#linear-gradient)"/><path d="M126.36,109a1.69,1.69,0,0,1-1,1.16,4.12,4.12,0,0,1-1.16.11H90.28a1.32,1.32,0,0,1-1.22-1.41s0-.06,0-.08h0a1.32,1.32,0,0,1,1.21-1.38h35a1.3,1.3,0,0,1,1.1,1.49A.43.43,0,0,1,126.36,109Z" fill="#fff"/><path d="M161.55,108.59c-6.19-.77-12.49-1.49-18.67-2.37a4.57,4.57,0,0,1-1.77-.72c-5.58-4.64-11.16-9.34-16.69-14a10.43,10.43,0,0,0-7-2.54c-9.06.11-18.17.11-27.23,0a7.48,7.48,0,0,0-6.91,3.76c-2.37,3.86-4.8,7.62-7.24,11.38a3.62,3.62,0,0,1-1.49,1.16c-2.43.77-4.91,1.54-7.34,2.21-3,.71-5.09,2.37-5.75,5.3l.11,2.21a.77.77,0,0,1,.17.44c.44,2.6.88,5.14,1.21,7.79.72,4.92,3.87,7.63,8.84,7.63h9.72c.78,0,1.16.16,1.33.93a9.74,9.74,0,0,0,6.8,6.91,9.58,9.58,0,0,0,11.75-6.77v0c.17-.78.5-.94,1.33-.94h30.38l.11.44c1.33,4.69,4.92,7.62,9.45,7.62s8.12-2.82,9.45-7.4h0a.86.86,0,0,1,.94-.72,46.24,46.24,0,0,0,5.52-.11,6.56,6.56,0,0,0,6.19-5.58c.61-3.42,1.16-6.91,1.66-10.39v-.11A5.73,5.73,0,0,0,161.55,108.59ZM92,136.1h0a6.6,6.6,0,0,1-6.58-6.6h0v-.27A6.54,6.54,0,0,1,92,122.76h.44a6.59,6.59,0,0,1,6.35,6.82v.09a6.46,6.46,0,0,1-6.48,6.44Zm50.6,0a6.64,6.64,0,0,1-6.63-6.63h0v-.16a6.55,6.55,0,0,1,6.63-6.47h0a6.63,6.63,0,0,1,0,13.26Zm20.61-21.16c-.44,3.26-.94,6.47-1.49,9.73a3.73,3.73,0,0,1-4.09,3.31h-5.31c-1.38-5.25-4.69-8.28-10.33-8.12-4.25.11-7.23,2.87-9,8.12H102.66c-.78,0-1.16-.16-1.33-.94a9.51,9.51,0,0,0-6.9-6.9,9.61,9.61,0,0,0-11.72,6.79c-.11.33-.16.61-.27,1H71.55A5.26,5.26,0,0,1,66,123.29c-.44-2.82-.93-5.69-1.32-8.45-.33-2.21.44-3.48,2.6-4.2,3-.94,6.13-1.77,9.06-2.82a3.9,3.9,0,0,0,1.76-1.32c2.71-4.09,5.31-8.12,7.85-12.21a4.85,4.85,0,0,1,4.25-2.38H117.5a7.29,7.29,0,0,1,5.08,1.83c5.69,4.91,11.55,9.72,17.29,14.47a3.32,3.32,0,0,0,1.94.77c6.3.78,12.59,1.55,18.89,2.38a2.78,2.78,0,0,1,2.63,2.9A2.62,2.62,0,0,1,163.21,114.94Z" fill="#fff"/></svg>