<svg id="Layer_1" data-name="Layer 1" xmlns="http://www.w3.org/2000/svg" viewBox="0 0 162 190"><title>icon_5a</title><path d="M112.4,87.4a38.35,38.35,0,0,0-38.3,38.2v.8a38.25,38.25,0,1,0,38.3-39ZM79.6,125.6c.5-11.9,5.2-21.1,14.9-27.4,11.2-7.1,23-7.4,34.4-.6,10.5,6,15.5,15.5,16.1,28-.5-.2-1-.3-1.4-.5a14.15,14.15,0,0,0-13.5,1.1,8.72,8.72,0,0,1-10,0,14,14,0,0,0-15.7,0,8,8,0,0,1-9,.3,15.45,15.45,0,0,0-15.8-.9Zm64.5,7.7a32.56,32.56,0,0,1-27.4,24.5c-1.4.2-2.8.3-4.3.5a33.09,33.09,0,0,1-31.5-24.1V134a2.59,2.59,0,0,1,1.4-3.3,8.94,8.94,0,0,1,9.2,0,14.66,14.66,0,0,0,16.3,0,8.3,8.3,0,0,1,9.3,0,14.17,14.17,0,0,0,16,0,8.55,8.55,0,0,1,10,.3A2.18,2.18,0,0,1,144.1,133.3Z" transform="translate(-31.7 -17.6)" fill="#ef4836"/><path d="M61.6,131.8A50.43,50.43,0,0,1,72.2,94c1.6-2.1,3.6-2.2,4.9-.5a3.18,3.18,0,0,1-.5,4,44.68,44.68,0,0,0-9,20.1c-4.7,24.9,13.1,49.7,38.2,53A45.54,45.54,0,1,0,85.4,88.9c-1.3.9-2.5,1.6-4,.6-1.7-1.1-1.6-3.3.3-4.8a51,51,0,0,1,80.8,29.8c.2,1.1.5,2.1.6,3.2,4.6,27.9-15.5,54.8-43.4,58.4-2.4.3-4.8.5-7.1.6A51.17,51.17,0,0,1,61.6,131.8Z" transform="translate(-31.7 -17.6)" fill="#ef4836"/><path d="M62.1,30.9a11.7,11.7,0,0,0-.4,23.4h.2a11.7,11.7,0,1,0,.2-23.4Zm-.2,17.9a6.22,6.22,0,0,1-6.3-6,6.15,6.15,0,0,1,6-6.3h0a6.38,6.38,0,0,1,6.3,6.2A6.17,6.17,0,0,1,61.9,48.8ZM93.7,30.9h-.3a11.7,11.7,0,0,0,.1,23.4,11.7,11.7,0,1,0,.2-23.4Zm6,11.9a6.19,6.19,0,0,1-6,6.2h-.2a6.2,6.2,0,0,1,0-12.4,5.93,5.93,0,0,1,6.2,6.2Zm63.7-11.9H131.6a6.34,6.34,0,0,0-6,6.6V48.6a6.36,6.36,0,0,0,6.7,5.9h32.2a6.31,6.31,0,0,0,5.9-6.5V36.9A6.69,6.69,0,0,0,163.4,30.9Zm1.3,16c0,1.4-.5,1.9-1.9,1.9H133.2c-1.6,0-2.1-.5-2.1-2.1V38c0-1.3.5-1.7,1.7-1.7H163c1.3,0,1.6.5,1.6,1.6C164.7,41,164.7,43.9,164.7,46.9Zm-1.3-16H131.6a6.34,6.34,0,0,0-6,6.6V48.6a6.36,6.36,0,0,0,6.7,5.9h32.2a6.31,6.31,0,0,0,5.9-6.5V36.9A6.69,6.69,0,0,0,163.4,30.9Zm1.3,16c0,1.4-.5,1.9-1.9,1.9H133.2c-1.6,0-2.1-.5-2.1-2.1V38c0-1.3.5-1.7,1.7-1.7H163c1.3,0,1.6.5,1.6,1.6C164.7,41,164.7,43.9,164.7,46.9Zm-71-16h-.3a11.7,11.7,0,0,0,.1,23.4,11.7,11.7,0,1,0,.2-23.4Zm6,11.9a6.19,6.19,0,0,1-6,6.2h-.2a6.2,6.2,0,0,1,0-12.4,5.93,5.93,0,0,1,6.2,6.2ZM62.1,30.9a11.7,11.7,0,0,0-.4,23.4h.2a11.7,11.7,0,1,0,.2-23.4Zm-.2,17.9a6.22,6.22,0,0,1-6.3-6,6.15,6.15,0,0,1,6-6.3h0a6.38,6.38,0,0,1,6.3,6.2A6.17,6.17,0,0,1,61.9,48.8Zm131.6-9.2c-.2-12.7-9.3-22-21.7-22H53.4a20.53,20.53,0,0,0-7,1.1c-9.3,3-14.7,11.1-14.7,21.4V185.3c0,9.3,4.1,16.3,12.7,20.4a42.33,42.33,0,0,0,5.7,1.9H175.2c1.9-.5,3.6-1.1,5.4-1.7,8.9-4.1,13.1-11.2,13.1-20.9V67.3C193.5,58,193.5,48.8,193.5,39.6Zm-5.9,143.6H165.4c-2.2,0-3.6,1.1-3.6,2.9s1.3,2.7,3.6,2.7h21.9c-.8,6.8-7.3,12.7-14.6,13H53.2a15.87,15.87,0,0,1-15.8-12.2,5.63,5.63,0,0,1-.2-1H153.8a2.76,2.76,0,0,0,2.5-2.9v-.2a2.65,2.65,0,0,0-2.7-2.5H36.9V68H187.6Zm.2-123c0,.6-.2,1.1-.2,1.9H36.9a6.15,6.15,0,0,1-.2-1.9V39.8c.2-10.2,6.8-16.8,17-16.8H170.9c10.1,0,16.9,6.7,16.9,16.8V60.2ZM163.4,30.9H131.6a6.34,6.34,0,0,0-6,6.6V48.6a6.36,6.36,0,0,0,6.7,5.9h32.2a6.31,6.31,0,0,0,5.9-6.5V36.9A6.69,6.69,0,0,0,163.4,30.9Zm1.3,16c0,1.4-.5,1.9-1.9,1.9H133.2c-1.6,0-2.1-.5-2.1-2.1V38c0-1.3.5-1.7,1.7-1.7H163c1.3,0,1.6.5,1.6,1.6C164.7,41,164.7,43.9,164.7,46.9Zm-71-16h-.3a11.7,11.7,0,0,0,.1,23.4,11.7,11.7,0,1,0,.2-23.4Zm6,11.9a6.19,6.19,0,0,1-6,6.2h-.2a6.2,6.2,0,0,1,0-12.4,5.93,5.93,0,0,1,6.2,6.2ZM62.1,30.9a11.7,11.7,0,0,0-.4,23.4h.2a11.7,11.7,0,1,0,.2-23.4Zm-.2,17.9a6.22,6.22,0,0,1-6.3-6,6.15,6.15,0,0,1,6-6.3h0a6.38,6.38,0,0,1,6.3,6.2A6.17,6.17,0,0,1,61.9,48.8Zm.2-17.9a11.7,11.7,0,0,0-.4,23.4h.2a11.7,11.7,0,1,0,.2-23.4Zm-.2,17.9a6.22,6.22,0,0,1-6.3-6,6.15,6.15,0,0,1,6-6.3h0a6.38,6.38,0,0,1,6.3,6.2A6.17,6.17,0,0,1,61.9,48.8ZM93.7,30.9h-.3a11.7,11.7,0,0,0,.1,23.4,11.7,11.7,0,1,0,.2-23.4Zm6,11.9a6.19,6.19,0,0,1-6,6.2h-.2a6.2,6.2,0,0,1,0-12.4,5.93,5.93,0,0,1,6.2,6.2Zm63.7-11.9H131.6a6.34,6.34,0,0,0-6,6.6V48.6a6.36,6.36,0,0,0,6.7,5.9h32.2a6.31,6.31,0,0,0,5.9-6.5V36.9A6.69,6.69,0,0,0,163.4,30.9Zm1.3,16c0,1.4-.5,1.9-1.9,1.9H133.2c-1.6,0-2.1-.5-2.1-2.1V38c0-1.3.5-1.7,1.7-1.7H163c1.3,0,1.6.5,1.6,1.6C164.7,41,164.7,43.9,164.7,46.9Zm-1.3-16H131.6a6.34,6.34,0,0,0-6,6.6V48.6a6.36,6.36,0,0,0,6.7,5.9h32.2a6.31,6.31,0,0,0,5.9-6.5V36.9A6.69,6.69,0,0,0,163.4,30.9Zm1.3,16c0,1.4-.5,1.9-1.9,1.9H133.2c-1.6,0-2.1-.5-2.1-2.1V38c0-1.3.5-1.7,1.7-1.7H163c1.3,0,1.6.5,1.6,1.6C164.7,41,164.7,43.9,164.7,46.9Zm-71-16h-.3a11.7,11.7,0,0,0,.1,23.4,11.7,11.7,0,1,0,.2-23.4Zm6,11.9a6.19,6.19,0,0,1-6,6.2h-.2a6.2,6.2,0,0,1,0-12.4,5.93,5.93,0,0,1,6.2,6.2ZM62.1,30.9a11.7,11.7,0,0,0-.4,23.4h.2a11.7,11.7,0,1,0,.2-23.4Zm-.2,17.9a6.22,6.22,0,0,1-6.3-6,6.15,6.15,0,0,1,6-6.3h0a6.38,6.38,0,0,1,6.3,6.2A6.17,6.17,0,0,1,61.9,48.8Z" transform="translate(-31.7 -17.6)" fill="#ef4836"/></svg>