<svg id="Layer_1" data-name="Layer 1" xmlns="http://www.w3.org/2000/svg" xmlns:xlink="http://www.w3.org/1999/xlink" viewBox="0 0 228 228"><defs><linearGradient id="linear-gradient" x1="26.4" y1="26.4" x2="201.6" y2="201.6" gradientUnits="userSpaceOnUse"><stop offset="0" stop-color="#190707"/><stop offset="1" stop-color="#4c1616"/></linearGradient></defs><rect x="1.5" y="1.5" width="225" height="225" rx="85" stroke="#fff" stroke-miterlimit="10" stroke-width="3" fill="url(#linear-gradient)"/><path d="M69,140.5a1.88,1.88,0,0,1-.17-1.75c1.32-1.21,2.79-2.25,4.16-3.29.11-.11.33,0,.77-.11.27.17.87.44.93.88a1.92,1.92,0,0,1-.27,1.53,36.29,36.29,0,0,1-3.89,3A1.43,1.43,0,0,1,69,140.5Z" fill="#fff"/><path d="M79.82,152.86a9.67,9.67,0,0,1-.88,1.31c-1,.87-2.19,1.64-3.23,2.41a1.55,1.55,0,0,1-2.18,0l0,0a1.47,1.47,0,0,1,.3-2.06l0,0,.11-.11a36.12,36.12,0,0,1,3.23-2.41,2.17,2.17,0,0,1,1.64-.11C79.27,151.92,79.43,152.42,79.82,152.86Z" fill="#fff"/><path d="M76.09,135a1.69,1.69,0,0,1,.5-2.19h.11L93.06,120.5a1.65,1.65,0,0,1,1.92-.28,4.7,4.7,0,0,1,.93,1.15,7.49,7.49,0,0,1-.93,1.32c-5.53,4.16-11,8.37-16.53,12.53a1.51,1.51,0,0,1-2.08.11C76.15,135.12,76.15,135.12,76.09,135Z" fill="#fff"/><path d="M92,134l-27.2,20.69c-1.21.93-1.81.88-2.8-.27v-.89a11,11,0,0,1,.93-1q17.17-13.14,34.49-26.22a2.9,2.9,0,0,1,.6-.44,1.47,1.47,0,0,1,2,.27h0a1.4,1.4,0,0,1-.11,1.92.66.66,0,0,1-.28.16C97.22,130.08,94.6,132,92,134Z" fill="#fff"/><path d="M104.94,132.87a1.39,1.39,0,0,1-.33,1.92h0c-1.31,1-2.68,2.08-4,3.12-5.75,4.33-11.38,8.65-17.13,13a14.79,14.79,0,0,1-1.64.94,5.2,5.2,0,0,1-1.15-.94,2.85,2.85,0,0,1,.16-1.53c.11-.33.49-.49.88-.71l20.09-15.44a5,5,0,0,1,1-.71A1.58,1.58,0,0,1,104.94,132.87Z" fill="#fff"/><path d="M162.42,71.18a9.48,9.48,0,0,0-5.36.71c-2.85,1-5.09,3-7.34,4.93-2.79,2.35-5.53,4.76-8.32,7.17a2.79,2.79,0,0,1-3.23.77c-.44-.17-.93-.28-1.37-.44-6.35-2.36-12.64-4.76-19-7.12-3.45-1.31-6.85-2.41-10.3-3.61a4,4,0,0,0-3.55.49,13,13,0,0,0-4.16,4.49,3.16,3.16,0,0,0,.49,4.05,13.22,13.22,0,0,0,2.52,2.08c5.47,3.83,11,7.56,16.37,11.44a42.91,42.91,0,0,1,3.55,3.29c-4.16,4-8.15,7.77-12.15,11.49a1.1,1.1,0,0,1-1,0c-1.64-.76-3.23-1.53-4.87-2.35a4.32,4.32,0,0,0-4.93.6c-.71.6-1.31,1.21-1.91,1.81-1.37,1.48-1.48,2.84-.28,4.43.88,1.15,1.75,2.19,2.57,3.23,3.56,4.49,7.12,9,10.73,13.52a4.36,4.36,0,0,0,5.2,1.48,6.48,6.48,0,0,0,3.13-7.33c-.33-1.48-.77-3-1-4.44a1.24,1.24,0,0,1,.33-1.2c4.16-3.29,8.38-6.57,12.81-10,.88,1.65,1.75,3.23,2.41,4.77l7.56,19.21a11.93,11.93,0,0,0,1.15,2.25,3,3,0,0,0,3.44,1.36c3.56-1,6.52-3.39,6.68-7.55a20.5,20.5,0,0,0-.16-3.23c-1.37-10.07-2.79-20.09-4.16-30.16a2.74,2.74,0,0,1,1-2.85c3.39-2.85,6.84-5.64,10.13-8.59a19.78,19.78,0,0,0,6.36-9.38,1.82,1.82,0,0,0,.16-.76C166.42,73.81,164.78,71.5,162.42,71.18Zm.27,6.13A17.42,17.42,0,0,1,158,83.88L147.31,93a4.87,4.87,0,0,0-2,4.6c.49,4.32,1.15,8.59,1.75,12.91.88,6.52,1.81,12.92,2.58,19.38a4.87,4.87,0,0,1-3.62,5.7c-1.15.43-1.47.33-1.8-.77-2.08-5.47-4.16-10.84-6.13-16.26A46.74,46.74,0,0,0,132,106.82l-1.37,1c-4.93,3.83-9.8,7.55-14.72,11.27a2.08,2.08,0,0,0-.88,2.41c.49,1.92.93,3.83,1.37,5.7a3.42,3.42,0,0,1-.77,3.12c-1,1.2-2,1.15-3-.11L101.22,115.5a3.42,3.42,0,0,1-.44-.49c-.33-.6-1.2-1.53-1-1.81a9.15,9.15,0,0,1,2.41-2.19,1.54,1.54,0,0,1,1.31.28c1.92.87,3.84,1.8,5.7,2.79a2.09,2.09,0,0,0,2.52-.33c4.76-4.49,9.41-9,14.17-13.52a.11.11,0,0,0,.11-.11h0a19.16,19.16,0,0,0-6.73-7.34c-5.31-3.56-10.46-7.17-15.66-10.84-1.8-1.31-1.8-1.36-.43-3,2.24-2.79,2.79-3,6.13-1.64,9,3.4,18,6.73,26.93,10.07a9.46,9.46,0,0,0,3.45.72,5.17,5.17,0,0,0,3.61-1.54c3.61-3.23,7.34-6.35,11-9.41a11.33,11.33,0,0,1,5.6-2.64c.17,0,.28-.1.44-.1.93-.11,2-.28,2.68.49S163,76.5,162.69,77.31Z" fill="#fff"/></svg>