<svg id="Layer_1" data-name="Layer 1" xmlns="http://www.w3.org/2000/svg" viewBox="0 0 189.72 190.6"><title>icon_9a</title><path d="M161.9,151.9Zm0,0Zm0,0Zm0,0Zm0,0Z" transform="translate(-17.68 -17.4)" fill="#ef4836"/><path d="M31.4,41.9a3.89,3.89,0,0,1,3-4.5H37v-.2a8.6,8.6,0,0,1,2.4.4,3.73,3.73,0,0,1-.4,7.1,17.2,17.2,0,0,1-3.2.2A3.79,3.79,0,0,1,31.4,41.9Z" transform="translate(-17.68 -17.4)" fill="#ef4836"/><path d="M49.8,49.8c0,3.4-1.1,5.1-3.6,5.2-2.2.2-3.9-1.5-3.9-4.9V48.2A3.83,3.83,0,0,1,46,45C48.5,45.1,49.8,46.9,49.8,49.8Z" transform="translate(-17.68 -17.4)" fill="#ef4836"/><path d="M42.3,32.2c0-3.2,1.1-4.7,3.4-4.9s3.9,1.5,3.9,4.3c.2,3.6-1.1,5.6-3.7,5.6C43.4,37,42.3,35.3,42.3,32.2Z" transform="translate(-17.68 -17.4)" fill="#ef4836"/><path d="M50.3,42.5c-1.1-2.8.9-5.1,4.9-5.1,3.6,0,5.6,2.1,4.7,4.9a3.64,3.64,0,0,1-4.1,2.6C53.5,44.7,51.3,44.9,50.3,42.5Z" transform="translate(-17.68 -17.4)" fill="#ef4836"/><path d="M88.3,31.6a3.48,3.48,0,0,1,.2-4.5,3.34,3.34,0,0,1,4.7-.6c2.2,2.1,4.5,4.3,6.6,6.6a8.54,8.54,0,0,1,.9,2.4c-.7.9-1.3,2.2-2.2,2.6a4,4,0,0,1-3.7-.2A77.57,77.57,0,0,1,88.3,31.6Z" transform="translate(-17.68 -17.4)" fill="#ef4836"/><path d="M108.5,21.1a3.69,3.69,0,0,1,3.7-3.7h.2a3.73,3.73,0,0,1,3.6,3.7,3.69,3.69,0,0,1-3.7,3.7A3.65,3.65,0,0,1,108.5,21.1Z" transform="translate(-17.68 -17.4)" fill="#ef4836"/><path d="M114.9,201.2a3.57,3.57,0,0,1-.2,5.2l-.2.2-1.1.7H111c-.4-.2-.7-.6-1.1-.7a3.76,3.76,0,0,1-1.3-5.1,3.59,3.59,0,0,1,5.1-1.3A2,2,0,0,1,114.9,201.2Z" transform="translate(-17.68 -17.4)" fill="#ef4836"/><path d="M116.2,35V45a3.61,3.61,0,0,1-3.9,3.4,3.66,3.66,0,0,1-3.4-3.4V35a3.55,3.55,0,0,1,3.4-3.6h.4A4,4,0,0,1,116.2,35Z" transform="translate(-17.68 -17.4)" fill="#ef4836"/><path d="M124.6,32.9c.2-.4.6-.6.9-.9l5.6-5.6a3.16,3.16,0,0,1,3.9-.6,18.67,18.67,0,0,1,2.6,3,9,9,0,0,1-1.7,3,63.77,63.77,0,0,1-5.2,5.2,3.71,3.71,0,0,1-5.2.9A3.29,3.29,0,0,1,124.6,32.9Z" transform="translate(-17.68 -17.4)" fill="#ef4836"/><path d="M164.7,41a3.45,3.45,0,0,1,3-3.4,9.7,9.7,0,0,1,3.4,0,3.58,3.58,0,0,1,3.6,3.6v.2A3.61,3.61,0,0,1,171,45h-1.3a10.57,10.57,0,0,1-2.4-.2A3.78,3.78,0,0,1,164.7,41Z" transform="translate(-17.68 -17.4)" fill="#ef4836"/><path d="M182.1,47.9a11.48,11.48,0,0,1,0,3.7,3.57,3.57,0,0,1-3.7,3.4h-.2c-1.9-.2-3.6-1.9-3.4-3.7V50.2h0V48.3a4,4,0,0,1,3.4-3.4A4.33,4.33,0,0,1,182.1,47.9Z" transform="translate(-17.68 -17.4)" fill="#ef4836"/><path d="M174.8,32.3c0-1.9,0-3.9,2.1-4.9a3.66,3.66,0,0,1,4.9,1.7c.2.2.2.6.4.7a5.55,5.55,0,0,1,.2,1.9c0,4.3-2.4,6.4-5.2,5.1A4.44,4.44,0,0,1,174.8,32.3Z" transform="translate(-17.68 -17.4)" fill="#ef4836"/><path d="M182.7,40.4a3.85,3.85,0,0,1,3.7-3c3.6-.2,5.2.6,5.8,2.4.9,2.8-.9,4.9-4.7,4.9C184.1,44.7,182.1,43,182.7,40.4Z" transform="translate(-17.68 -17.4)" fill="#ef4836"/><path d="M207.2,159.8a25.58,25.58,0,0,0-19.1-21c-3.6-1.1-7.3-1.9-11-2.8a2.63,2.63,0,0,1-1.5-.7,5.54,5.54,0,0,1,1.5-5.6,22.43,22.43,0,0,0,9.5-16.8,142.75,142.75,0,0,0,0-18.5,29.75,29.75,0,0,0-.9-5.2,24.47,24.47,0,0,0-30.3-16.5A25.87,25.87,0,0,0,144,79.8,33.53,33.53,0,0,0,132.4,63a31,31,0,0,0-19.3-6.7c-16.1.2-26.6,8.6-32.2,23.4L79.8,79c-7.5-6.9-16.1-9-25.6-5.2a22.9,22.9,0,0,0-15.7,21c-.4,5.2-.2,10.7-.2,16.1a23.71,23.71,0,0,0,9,18.5,5.53,5.53,0,0,1,2.4,5.1,1.86,1.86,0,0,1-1.7,2.1c-3.4.7-6.6,1.5-9.7,2.2A25.82,25.82,0,0,0,17.7,165v22.8c0,3.9,1.1,5.2,5.2,5.2H51v9.7a4.76,4.76,0,0,0,2.6,5.1l42.7.2c2.2-1.3,3.2-2.6,2.6-4.5s-1.9-2.8-4.7-2.8H78.8V184.2a3.61,3.61,0,0,0-3.7-3.6h-.2a3.67,3.67,0,0,0-3.4,4.1v15.7H58.4c.2-7.3-.2-14.6.9-21.7,1.9-11,8.8-18,19.7-21,6.2-1.7,12.4-3,18.7-4.5.9,1.9,1.7,3.6,2.4,5.4,3,6.7,6,13.5,8.8,20.2.7,1.7,1.7,3.2,3.9,3.2s3.2-1.5,3.7-3.2c3.6-8,7.1-15.9,10.5-24a2,2,0,0,1,2.8-1.3c5.2,1.3,10.3,2.4,15.5,3.7,12.2,2.8,20.2,12,21.3,24.3.4,6.2,0,12.4,0,18.7H153.7V184.7c0-2.6-1.3-4.3-3.6-4.3s-3.7,1.5-3.7,4.3v15.7H129.7c-2.1,0-3.9.2-4.9,2.4-.7,1.7-.2,3,2.1,4.9h44.4a5,5,0,0,0,2.6-5.1v-9.7h28.4a5.05,5.05,0,0,0,5.1-2.6V160.9C207.4,160.4,207.2,160.2,207.2,159.8Zm-61-69.6a17.3,17.3,0,0,1,16.7-10.9,17.09,17.09,0,0,1,16.3,17.8.7.7,0,0,1-.2.4v-.2c-11,.6-21.9.4-31.8-5.2C146.2,91.9,145.8,91.5,146.2,90.2Zm-1,9.3c10.9,5.6,22.3,5.8,33.9,5.4h0c1.7,10.7-3.6,19.5-13.1,21.7a8.51,8.51,0,0,1-2.2.4,17,17,0,0,1-18.5-15.3C145,107.8,145.2,103.8,145.2,99.5ZM96.2,70a24.67,24.67,0,0,1,27.3-3.6,25.17,25.17,0,0,1,14.2,23l-12.4-7.1c-3.4-2.1-4.3-1.9-6.9.9a27.3,27.3,0,0,1-18.5,9c-4.1.2-8.2,0-12.5,0C86.6,83.4,89.3,75.8,96.2,70ZM56.5,80.5a17.06,17.06,0,0,1,22.1,9.7c0,.2.2.2.2.4a1.74,1.74,0,0,1-.9,1.9,43.59,43.59,0,0,1-21.1,5.4h-11v-.2A16.82,16.82,0,0,1,56.5,80.5ZM45.6,111v-6c11.8.4,23.2.2,34.1-5.4-.4,6.2.9,11.8-1.5,17.4a17.33,17.33,0,0,1-15,10.3A17,17,0,0,1,45.6,111Zm12,51.4a35.26,35.26,0,0,0-6.9,21.9,1.34,1.34,0,0,1-.2.9H39.7V167.9a3.71,3.71,0,0,0-7.3,1.3v15.9H25.1V164.7A18.16,18.16,0,0,1,39.9,146c3.6-.9,7.3-1.7,11-2.6,2.4,5.8,4.9,11.6,7.1,17.6A2.16,2.16,0,0,1,57.6,162.4Zm5.1-10.3c-1.9-6-6.6-11-5.6-17.8h11C69.2,141.1,64.5,146.1,62.7,152.1Zm25.6-5.2-17.2,4.5,3.4-8.2,13.7,3.4v.4h.1Zm7.3-5.1c-6-3.4-12.5-4.1-18.7-5.8a3.11,3.11,0,0,1-1.3-1.5,4.47,4.47,0,0,1,2.2-5.2c2.1-1.5,4.1-3,6.2-4.7v-.2A31.4,31.4,0,0,0,95,136a2,2,0,0,1,.6,1.5Zm24.7,8.7c-2.6,5.2-4.7,10.5-7.1,15.9-.2.6-.6,1.1-.9,2.1a9.47,9.47,0,0,1-.9-1.7c-2.6-6-5.4-11.8-7.7-17.8-1.1-2.6-.7-5.8-1.1-9.2h0a34.93,34.93,0,0,0,18.7.2C121.4,143.5,122,147.1,120.3,150.5ZM110,133.6a25.28,25.28,0,0,1-22.8-24.7v-9H93c11.2.6,21.3-2.1,29.8-10.3,4.9,2.8,9.5,5.6,14.4,8.4a1.25,1.25,0,0,1,.6,1.1c-.2,5.2.2,10.9-.9,15.9A25.38,25.38,0,0,1,110,133.6Zm19.1,7.5v-3.7c0-.6.4-.9.7-1.3a31.77,31.77,0,0,0,11.4-12.2,68.34,68.34,0,0,1,7.3,6.9c.9.9.6,3.2.7,4.7Zm7.3,6v-.6l13.7-3.4,3.4,8.2Zm25.5,4.8c-1.7-4.1-3.6-8-5.1-12a16.25,16.25,0,0,1-.4-5.4h11.2C168.6,141.1,163.9,146.1,161.9,151.9Zm38.2,31.7c0,.4-.2.9-.2,1.5h-6.2c-.4,0-.9-.9-.9-1.5V170.1a8.2,8.2,0,0,0-.2-2.2,3.36,3.36,0,0,0-3.9-2.8,3.68,3.68,0,0,0-3.4,3.6v16.5h-11c-.4-3-.4-5.8-.9-8.8a34.65,34.65,0,0,0-5.8-13.5,2.32,2.32,0,0,1-.6-2.1c2.4-5.8,4.9-11.6,7.3-17.8a124.59,124.59,0,0,1,14.8,4.1,17,17,0,0,1,11,16.3Z" transform="translate(-17.68 -17.4)" fill="#ef4836"/></svg>