<svg id="Layer_1" data-name="Layer 1" xmlns="http://www.w3.org/2000/svg" xmlns:xlink="http://www.w3.org/1999/xlink" viewBox="0 0 228 228"><defs><linearGradient id="linear-gradient" x1="26.4" y1="26.4" x2="201.6" y2="201.6" gradientUnits="userSpaceOnUse"><stop offset="0" stop-color="#190707"/><stop offset="1" stop-color="#4c1616"/></linearGradient></defs><rect x="1.5" y="1.5" width="225" height="225" rx="85" stroke="#fff" stroke-miterlimit="10" stroke-width="3" fill="url(#linear-gradient)"/><path d="M66.44,101.88A2,2,0,0,1,64.51,104h0a1.91,1.91,0,0,1-2-1.82V102a2,2,0,0,1,1.93-2.07h.07a1.87,1.87,0,0,1,1.94,1.82Z" fill="#fff"/><path d="M99.28,106.5a3.55,3.55,0,0,0-3.7-2.55H73c-1.8,0-2.83-.71-2.83-2s1-2.07,2.83-2.07H95.69a7.65,7.65,0,0,1,.71,15.28H64.11a2,2,0,0,1-1.76-2.22s0-.08,0-.12a2.28,2.28,0,0,1,1.74-1.74H95.5A3.52,3.52,0,0,0,99.42,108,3.58,3.58,0,0,0,99.28,106.5Z" fill="#fff"/><path d="M108.25,141.35h0a2,2,0,0,1-1.94,2.06h-.06a2.06,2.06,0,0,1-2.06-2.06,2,2,0,0,1,2-2h.06A2,2,0,0,1,108.25,141.35Z" fill="#fff"/><path d="M162.94,139.39H142.39l.27-4h9.57a18.8,18.8,0,0,0,3-.27,13.08,13.08,0,0,0,6.52-22c-6-6-12.07-12.12-18.05-18.16a34.38,34.38,0,0,0-25.2-10.37H65.25a4.4,4.4,0,0,0-1.2.11,1.92,1.92,0,0,0-1.55,1.8,2,2,0,0,0,1.81,2.17H118.5a30.49,30.49,0,0,1,17.18,5.06,40.46,40.46,0,0,1,7.07,6.19h-23a6.81,6.81,0,0,0-3.26.71,7.62,7.62,0,0,0-3.81,10.06,7.41,7.41,0,0,0,7.29,4.62h37.34a3.12,3.12,0,0,1,1.31.32,8.9,8.9,0,0,1,1.63,11.42,9.12,9.12,0,0,1-8.26,4.29H64.21a2,2,0,0,0,.38,4h8.7l.27,4H64.87a4.12,4.12,0,0,0-1.47.27,1.92,1.92,0,0,0-.87,2.23,2.23,2.23,0,0,0,2.23,1.46H97.81c1.52,0,2.39-.7,2.39-2s-.87-2.07-2.39-2.07H85.25l.27-4h44.8l.27,4H114.17a2,2,0,0,0-2.16,1.82.22.22,0,0,0,0,.08v.11a2.09,2.09,0,0,0,2.11,2.07h48.77a2.91,2.91,0,0,0,2.78-1.36v-1.2A2.66,2.66,0,0,0,162.94,139.39Zm-9.62-28.21H119.77a4.92,4.92,0,0,1-1.52-.28,3.62,3.62,0,0,1-2-4.69l0,0a3.43,3.43,0,0,1,3.37-2.22h26.7a1.59,1.59,0,0,1,.87.27c2.33,2.23,4.56,4.56,7,7ZM80.5,139a1.91,1.91,0,0,1-2.23,0c-1.3-.93-.76-2.34-.92-3.59h4C81.34,136.62,81.94,138,80.5,139Zm57,0a1.82,1.82,0,0,1-2.07,0c-1.35-.87-.87-2.34-.92-3.59h4c-.14,1.41.45,2.82-1,3.59Z" fill="#fff"/></svg>