<svg id="Layer_1" data-name="Layer 1" xmlns="http://www.w3.org/2000/svg" xmlns:xlink="http://www.w3.org/1999/xlink" viewBox="0 0 228 228"><defs><linearGradient id="linear-gradient" x1="26.4" y1="26.4" x2="201.6" y2="201.6" gradientUnits="userSpaceOnUse"><stop offset="0" stop-color="#190707"/><stop offset="1" stop-color="#4c1616"/></linearGradient></defs><rect x="1.5" y="1.5" width="225" height="225" rx="85" stroke="#fff" stroke-miterlimit="10" stroke-width="3" fill="url(#linear-gradient)"/><path d="M113.86,102.19a18,18,0,0,0-18,17.9v.41a17.93,17.93,0,1,0,18-18.28ZM98.5,120.09c.24-5.57,2.44-9.89,7-12.84a14.51,14.51,0,0,1,16.12-.28c4.93,2.81,7.27,7.26,7.55,13.12-.23-.09-.47-.14-.65-.23a6.64,6.64,0,0,0-6.33.52,4.11,4.11,0,0,1-4.69,0,6.58,6.58,0,0,0-7.36,0,3.76,3.76,0,0,1-4.22.14,7.25,7.25,0,0,0-7.41-.43Zm30.24,3.61a15.26,15.26,0,0,1-12.84,11.49c-.66.09-1.32.14-2,.23a15.52,15.52,0,0,1-14.77-11.29V124a1.24,1.24,0,0,1,.66-1.55,4.22,4.22,0,0,1,4.31,0,6.86,6.86,0,0,0,7.64,0,3.89,3.89,0,0,1,4.36,0,6.63,6.63,0,0,0,7.5,0,4,4,0,0,1,4.69.15,1,1,0,0,1,.43,1.07Z" fill="#fff"/><path d="M90.05,123a23.64,23.64,0,0,1,5-17.72c.75-1,1.69-1,2.3-.23a1.49,1.49,0,0,1-.23,1.87,21,21,0,0,0-4.22,9.42,21.33,21.33,0,1,0,8.34-13.45c-.61.42-1.17.75-1.87.28a1.36,1.36,0,0,1,.14-2.25,23.94,23.94,0,0,1,37.88,14c.09.52.23,1,.28,1.5a24,24,0,0,1-20.11,27.34l-.24,0c-1.12.14-2.25.23-3.33.28A24,24,0,0,1,90.05,123Z" fill="#fff"/><path d="M90.28,75.7a5.5,5.5,0,1,0-.19,11h.1a5.5,5.5,0,0,0,.09-11Zm-.09,8.39A2.91,2.91,0,0,1,90,78.28h0a3,3,0,0,1,3,2.9A2.9,2.9,0,0,1,90.19,84.09Zm14.9-8.39H105a5.49,5.49,0,1,0,5.63,5.49A5.56,5.56,0,0,0,105.09,75.7Zm2.82,5.58a2.91,2.91,0,0,1-2.82,2.91H105a2.91,2.91,0,0,1,0-5.82A2.79,2.79,0,0,1,107.91,81Zm29.86-5.58H122.86a3,3,0,0,0-2.81,3.09V84a3,3,0,0,0,3.14,2.76h15.09a3,3,0,0,0,2.77-3V78.5A3.14,3.14,0,0,0,137.77,75.7Zm.61,7.5c0,.66-.24.89-.89.89H123.61c-.75,0-1-.23-1-1V79c0-.61.23-.8.79-.8h14.16c.61,0,.75.24.75.75C138.38,80.44,138.38,81.8,138.38,83.2Zm-.61-7.5H122.86a3,3,0,0,0-2.81,3.09V84a3,3,0,0,0,3.14,2.76h15.09a3,3,0,0,0,2.77-3V78.5A3.14,3.14,0,0,0,137.77,75.7Zm.61,7.5c0,.66-.24.89-.89.89H123.61c-.75,0-1-.23-1-1V79c0-.61.23-.8.79-.8h14.16c.61,0,.75.24.75.75C138.38,80.44,138.38,81.8,138.38,83.2Zm-33.29-7.5H105a5.49,5.49,0,1,0,5.63,5.49A5.56,5.56,0,0,0,105.09,75.7Zm2.82,5.58a2.91,2.91,0,0,1-2.82,2.91H105a2.91,2.91,0,0,1,0-5.82A2.79,2.79,0,0,1,107.91,81ZM90.28,75.7a5.5,5.5,0,1,0-.19,11h.1a5.5,5.5,0,0,0,.09-11Zm-.09,8.39A2.91,2.91,0,0,1,90,78.28h0a3,3,0,0,1,3,2.9A2.9,2.9,0,0,1,90.19,84.09Zm61.69-4.31c-.1-6-4.38-10.28-10.18-10.28H86.2a9.66,9.66,0,0,0-3.28.51C78.56,71.42,76,75.22,76,80v68.07a9.85,9.85,0,0,0,6,9.56,19.44,19.44,0,0,0,2.67.89h58.6c.89-.23,1.69-.51,2.53-.79,4.17-1.93,6.14-5.25,6.14-9.8V92.76C151.88,88.4,151.88,84.09,151.88,79.78Zm-2.77,67.32H138.7c-1,0-1.68.51-1.68,1.36s.61,1.26,1.68,1.26H149a7.29,7.29,0,0,1-6.84,6.09h-56a7.43,7.43,0,0,1-7.41-5.71,3.55,3.55,0,0,1-.09-.47h54.66a1.31,1.31,0,0,0,1.17-1.36v-.1a1.25,1.25,0,0,0-1.27-1.17H78.5V93.09h70.64Zm.1-57.66c0,.28-.1.51-.1.89H78.5a2.68,2.68,0,0,1-.1-.89V79.87c.1-4.78,3.19-7.87,8-7.87h54.94c4.74,0,7.93,3.14,7.93,7.87v9.57ZM137.77,75.7H122.86a3,3,0,0,0-2.81,3.09V84a3,3,0,0,0,3.14,2.76h15.09a3,3,0,0,0,2.77-3V78.5A3.14,3.14,0,0,0,137.77,75.7Zm.61,7.5c0,.66-.24.89-.89.89H123.61c-.75,0-1-.23-1-1V79c0-.61.23-.8.79-.8h14.16c.61,0,.75.24.75.75C138.38,80.44,138.38,81.8,138.38,83.2Zm-33.29-7.5H105a5.49,5.49,0,1,0,5.63,5.49A5.56,5.56,0,0,0,105.09,75.7Zm2.82,5.58a2.91,2.91,0,0,1-2.82,2.91H105a2.91,2.91,0,0,1,0-5.82A2.79,2.79,0,0,1,107.91,81ZM90.28,75.7a5.5,5.5,0,1,0-.19,11h.1a5.5,5.5,0,0,0,.09-11Zm-.09,8.39A2.91,2.91,0,0,1,90,78.28h0a3,3,0,0,1,3,2.9A2.9,2.9,0,0,1,90.19,84.09Zm.09-8.39a5.5,5.5,0,1,0-.19,11h.1a5.5,5.5,0,0,0,.09-11Zm-.09,8.39A2.91,2.91,0,0,1,90,78.28h0a3,3,0,0,1,3,2.9A2.9,2.9,0,0,1,90.19,84.09Zm14.9-8.39H105a5.49,5.49,0,1,0,5.63,5.49A5.56,5.56,0,0,0,105.09,75.7Zm2.82,5.58a2.91,2.91,0,0,1-2.82,2.91H105a2.91,2.91,0,0,1,0-5.82A2.79,2.79,0,0,1,107.91,81Zm29.86-5.58H122.86a3,3,0,0,0-2.81,3.09V84a3,3,0,0,0,3.14,2.76h15.09a3,3,0,0,0,2.77-3V78.5A3.14,3.14,0,0,0,137.77,75.7Zm.61,7.5c0,.66-.24.89-.89.89H123.61c-.75,0-1-.23-1-1V79c0-.61.23-.8.79-.8h14.16c.61,0,.75.24.75.75C138.38,80.44,138.38,81.8,138.38,83.2Zm-.61-7.5H122.86a3,3,0,0,0-2.81,3.09V84a3,3,0,0,0,3.14,2.76h15.09a3,3,0,0,0,2.77-3V78.5A3.14,3.14,0,0,0,137.77,75.7Zm.61,7.5c0,.66-.24.89-.89.89H123.61c-.75,0-1-.23-1-1V79c0-.61.23-.8.79-.8h14.16c.61,0,.75.24.75.75C138.38,80.44,138.38,81.8,138.38,83.2Zm-33.29-7.5H105a5.49,5.49,0,1,0,5.63,5.49A5.56,5.56,0,0,0,105.09,75.7Zm2.82,5.58a2.91,2.91,0,0,1-2.82,2.91H105a2.91,2.91,0,0,1,0-5.82A2.79,2.79,0,0,1,107.91,81ZM90.28,75.7a5.5,5.5,0,1,0-.19,11h.1a5.5,5.5,0,0,0,.09-11Zm-.09,8.39A2.91,2.91,0,0,1,90,78.28h0a3,3,0,0,1,3,2.9A2.9,2.9,0,0,1,90.19,84.09Z" fill="#fff"/></svg>