<svg id="Layer_1" data-name="Layer 1" xmlns="http://www.w3.org/2000/svg" viewBox="0 0 190.04 108.21"><title>icon_1a</title><path d="M25,90.2A3.7,3.7,0,0,1,21.4,94h0a3.52,3.52,0,0,1-3.6-3.6,3.76,3.76,0,0,1,3.6-3.8A3.46,3.46,0,0,1,25,90.2Z" transform="translate(-17.46 -58.39)" fill="#ef4836"/><path d="M85.4,98.7A6.52,6.52,0,0,0,78.6,94H37c-3.3,0-5.2-1.3-5.2-3.6s1.9-3.8,5.2-3.8H78.8a14.07,14.07,0,0,1,1.3,28.1H20.7a3.75,3.75,0,0,1-3.2-4.3,4.19,4.19,0,0,1,3.2-3.2H78.5C83.5,107.4,86.9,103.2,85.4,98.7Z" transform="translate(-17.46 -58.39)" fill="#ef4836"/><path d="M101.9,162.8h0a3.7,3.7,0,0,1-3.6,3.8,3.8,3.8,0,0,1-3.8-3.8,3.76,3.76,0,0,1,3.8-3.6A3.59,3.59,0,0,1,101.9,162.8Z" transform="translate(-17.46 -58.39)" fill="#ef4836"/><path d="M202.5,159.2H164.7l.5-7.4h17.6a34.08,34.08,0,0,0,5.5-.5c9.2-2.1,15.3-7.6,18-16.6a23,23,0,0,0-6-23.9c-11.1-11.1-22.2-22.3-33.2-33.4a63.24,63.24,0,0,0-46.4-19H22.8a8.2,8.2,0,0,0-2.2.2,3.52,3.52,0,0,0-2.8,3.3,3.72,3.72,0,0,0,3.5,4h99.5a56.2,56.2,0,0,1,31.6,9.3,74.33,74.33,0,0,1,13,11.4H123a12.51,12.51,0,0,0-6,1.3,14,14,0,0,0-7,18.5,13.58,13.58,0,0,0,13.4,8.5h68.7a5.33,5.33,0,0,1,2.4.6,16.38,16.38,0,0,1,3,21c-3.5,5.5-8.7,7.9-15.2,7.9H20.9a3.67,3.67,0,0,0,.7,7.3h16l.5,7.4h-16a8.08,8.08,0,0,0-2.7.5,3.52,3.52,0,0,0-1.6,4.1,4.12,4.12,0,0,0,4.1,2.7H82.7c2.8,0,4.4-1.3,4.4-3.6s-1.6-3.8-4.4-3.8H59.6l.5-7.3h82.4l.5,7.3H112.8a3.72,3.72,0,0,0-4,3.5v.2a3.85,3.85,0,0,0,4,3.8h89.6a5.32,5.32,0,0,0,5.1-2.5v-2.2A4.83,4.83,0,0,0,202.5,159.2Zm-17.7-51.9H123.1a9.18,9.18,0,0,1-2.8-.5,6.62,6.62,0,0,1-3.6-8.7,6.28,6.28,0,0,1,6.2-4.1H172a3,3,0,0,1,1.6.5c4.3,4.1,8.4,8.4,12.8,12.8ZM50.9,158.4a3.45,3.45,0,0,1-4.1,0c-2.4-1.7-1.4-4.3-1.7-6.6h7.4C52.4,154.1,53.5,156.6,50.9,158.4Zm104.9,0a3.31,3.31,0,0,1-3.8,0c-2.5-1.6-1.6-4.3-1.7-6.6h7.4C157.3,154.4,158.4,157,155.8,158.4Z" transform="translate(-17.46 -58.39)" fill="#ef4836"/></svg>