<svg id="Layer_1" data-name="Layer 1" xmlns="http://www.w3.org/2000/svg" viewBox="0 0 190.06 90.63"><title>icon_4a</title><path d="M135,103.4a3,3,0,0,1-1.9,2.1,7.14,7.14,0,0,1-2.1.2H69.7a2.4,2.4,0,0,1-2.2-2.7h0a2.42,2.42,0,0,1,2.2-2.5h63.4C134.3,100.5,135.3,102,135,103.4Z" transform="translate(-17.6 -67.08)" fill="#ef4836"/><path d="M198.7,102.6c-11.2-1.4-22.6-2.7-33.8-4.3a8,8,0,0,1-3.2-1.3c-10.1-8.4-20.2-16.9-30.2-25.3a19,19,0,0,0-12.6-4.6c-16.4.2-32.9.2-49.3,0a13.57,13.57,0,0,0-12.5,6.8c-4.3,7-8.7,13.8-13.1,20.6a6.37,6.37,0,0,1-2.7,2.1c-4.4,1.4-8.9,2.8-13.3,4-5.4,1.3-9.2,4.3-10.4,9.6l.2,4a1.33,1.33,0,0,1,.3.8c.8,4.7,1.6,9.3,2.2,14.1,1.3,8.9,7,13.8,16,13.8H53.9c1.4,0,2.1.3,2.4,1.7a17.64,17.64,0,0,0,12.3,12.5,17.36,17.36,0,0,0,21.3-12.3c.3-1.4.9-1.7,2.4-1.7h55l.2.8c2.4,8.5,8.9,13.8,17.1,13.8s14.7-5.1,17.1-13.4h0a1.55,1.55,0,0,1,1.7-1.3,83.87,83.87,0,0,0,10-.2,11.85,11.85,0,0,0,11.2-10.1c1.1-6.2,2.1-12.5,3-18.8v-.2A10.39,10.39,0,0,0,198.7,102.6ZM72.8,152.4h0a12,12,0,0,1-11.9-12h0v-.5a11.82,11.82,0,0,1,11.9-11.7h.8a11.92,11.92,0,0,1,11.5,12.5A11.73,11.73,0,0,1,72.8,152.4Zm91.6,0a12,12,0,0,1-12-12h0v-.3a11.84,11.84,0,0,1,12-11.7h0a12,12,0,0,1,0,24Zm37.3-38.3c-.8,5.9-1.7,11.7-2.7,17.6a6.76,6.76,0,0,1-7.4,6H182c-2.5-9.5-8.5-15-18.7-14.7-7.7.2-13.1,5.2-16.3,14.7H92.1c-1.4,0-2.1-.3-2.4-1.7a17.43,17.43,0,0,0-33.7-.2c-.2.6-.3,1.1-.5,1.9H35.8a9.5,9.5,0,0,1-10.1-8.4c-.8-5.1-1.7-10.3-2.4-15.3-.6-4,.8-6.3,4.7-7.6,5.5-1.7,11.1-3.2,16.4-5.1a7,7,0,0,0,3.2-2.4c4.9-7.4,9.6-14.7,14.2-22.1a8.76,8.76,0,0,1,7.7-4.3H119a13.23,13.23,0,0,1,9.2,3.3c10.3,8.9,20.9,17.6,31.3,26.2a6.08,6.08,0,0,0,3.5,1.4c11.4,1.4,22.8,2.8,34.2,4.3C200.6,108.3,202.3,110.5,201.7,114.1Z" transform="translate(-17.6 -67.08)" fill="#ef4836"/></svg>