<svg id="Layer_1" data-name="Layer 1" xmlns="http://www.w3.org/2000/svg" viewBox="0 0 190 145.67"><title>icon_2a</title><path d="M192.8,113.7c-3-2.7-6-5.6-8.9-8.6a7.48,7.48,0,0,0-5.7-2.4H163.9c-3.1,0-5.3,1.2-6.3,3.4a8,8,0,0,0-.8,3.6v17.8c0,4.4,2.5,7,7.1,7H189a6.53,6.53,0,0,0,2-.5c.2-.1.3-.1.4-.2a6.54,6.54,0,0,0,3.7-6.4v-7.8A7.09,7.09,0,0,0,192.8,113.7ZM163.5,126V109h14.6a6.74,6.74,0,0,1,1.7.6Zm25.2,2.1h-17l13.2-12.8C190.4,117.9,188.5,123.2,188.7,128.1Z" transform="translate(-17.5 -39.63)" fill="#ef4836"/><path d="M102.4,102.9H81.3c-4.4,0-6.8,2.5-6.8,7v17.6c0,4.6,2.5,7.1,7.1,7.1h20.6c4.4,0,7.1-2.5,7.1-7V109.7C109.4,105.2,106.8,102.9,102.4,102.9Zm-21.6,23V109.4H97.3Zm22.1,2.2H89.6l13.3-13.3Z" transform="translate(-17.5 -39.63)" fill="#ef4836"/><path d="M202.8,105.9c-3.8-3.8-7.8-7.5-11.4-11.4a12.2,12.2,0,0,0-10.8-4.4,32.29,32.29,0,0,1-4.4,0c0-2.2.2-4.3,0-6.2v-.5a6.37,6.37,0,0,0-6.7-6h-4.3v-19h33.7a3.35,3.35,0,0,0,2.5-2.5,3.24,3.24,0,0,0-2.5-3.6H166.5a1.88,1.88,0,0,1-2.1-1.6,15.92,15.92,0,0,0-30.2-.2,2.14,2.14,0,0,1-2.5,1.7h-84c-3.2,0-4.8,1.1-4.8,3.2s1.6,3.2,4.8,3.2h85.6v3.3c-.3,4.9,1,6,3.2,6,1.9,0,3.5-.6,3.2-5.9V58.5h18.9V77.4H145.1c-4.4,0-7.1,2.5-7.1,7v5.7H43.3a10.31,10.31,0,0,0-8.4,3.5c-4.1,4.3-8.2,8.4-12.5,12.5a16.26,16.26,0,0,0-4.9,7v52c.3.5.5,1.1.8,1.6a9.24,9.24,0,0,0,8.6,5.9H42.8l.5,6.3H31.2c-2.9,0-4.3,1-4.3,3.2s1.4,3.2,4.3,3.2H194.9a3.22,3.22,0,0,0,3.2-3.2,3.16,3.16,0,0,0-3.2-3.2h-13l.5-6.3h15.2a8.21,8.21,0,0,0,7-2.9,32,32,0,0,0,2.9-5.1V113.1A14.43,14.43,0,0,0,202.8,105.9ZM141.1,52v.1a1.34,1.34,0,0,1-.8-.2,8.8,8.8,0,0,1,8.1-6.2,9.24,9.24,0,0,1,9.4,6.3Zm3.3,31.8h25.1v6H144.3ZM26.9,166.3h-.3a3.16,3.16,0,0,1-2.9-3.2V150.4h7.6a2,2,0,0,1,1.3.6l14.3,14.3a5.58,5.58,0,0,1,.5.8C40.4,166.1,33.7,166.3,26.9,166.3Zm27,11.9a4.41,4.41,0,0,1-3.2.2c-2.4-1.3-1.6-3.5-1.7-5.7h6.2C55.1,174.7,56.1,176.9,53.9,178.2ZM55.6,165c-4.4-4.3-8.7-8.7-13-13a17.88,17.88,0,0,1-1.4-1.3l.3-.5a4.4,4.4,0,0,0,1.6-.2H71.5a3.84,3.84,0,0,1,2.4.8c4.9,4.8,9.7,9.7,14.4,14.4.2.2.3.5.5.6H58.2A2.62,2.62,0,0,1,55.6,165Zm26.8-14.6,33.1-.2v15.9H99.4a3,3,0,0,1-2.1-.8c-4.8-4.6-9.4-9.4-14.1-14.1C82.9,150.9,82.6,150.8,82.4,150.4ZM61.5,178.7l.5-6H163.2l.5,6Zm76.9-34.8h5.7v22H122.2V109.1h21.9v28.4h-5.6c-2.2,0-3.6,1.1-3.6,3.2S136,143.9,138.4,143.9Zm36,34.3a3.6,3.6,0,0,1-3.2,0c-2.4-1.3-1.4-3.5-1.6-5.7h6.3l.2.2C176,174.9,176.6,177.1,174.4,178.2ZM150.6,166V150.3c3.3,0,6.5.3,9.7,0a9.64,9.64,0,0,1,8.2,3.3c3.8,4.3,7.9,8.1,12.4,12.4Zm50.8-2.5a3.22,3.22,0,0,1-3.6,2.7h-.2c-2.5,0-5.2.6-7.3-.2s-3.6-3.2-5.4-4.9c-3.5-3.5-7-6.8-10.6-10.6h27.1Zm0-19.6H150.6V110.3c0-5.2-2.4-7.5-7.5-7.5H123c-4.9,0-7.3,2.4-7.3,7.3v33.8H23.9c0-.2-.2-.3-.2-.6V115.1a3.63,3.63,0,0,1,1.1-2.5c4.9-4.9,9.7-10,14.7-14.7a5.24,5.24,0,0,1,3.2-1.3,24.37,24.37,0,0,1,5.4,0H181a6.23,6.23,0,0,1,5.4,2.2c4.3,4.4,8.7,8.9,13.3,13.3a5.66,5.66,0,0,1,1.7,4.1Z" transform="translate(-17.5 -39.63)" fill="#ef4836"/><path d="M68.2,108.7a6.36,6.36,0,0,0-6.7-5.9H46.4a7.74,7.74,0,0,0-5.1,2.1c-3,3.2-6.2,6.2-9.4,9.4a7,7,0,0,0-2.1,5.2v7.9c0,4.6,2.5,7.1,7.1,7.1H62a6.37,6.37,0,0,0,6-6.7c.2-6.1.2-12.2.2-18.3ZM36.4,128.6v-9.2a6.38,6.38,0,0,1,.8-1.4c2.7-2.7,5.4-5.2,8.1-7.9a2.25,2.25,0,0,1,1.6-.8H57c-.5.6-.6,1-1,1.3L39.3,127.3C38.3,127.8,37.4,128.2,36.4,128.6Zm25.1-.5H48.3l13.2-13.2Z" transform="translate(-17.5 -39.63)" fill="#ef4836"/></svg>