<svg id="Layer_1" data-name="Layer 1" xmlns="http://www.w3.org/2000/svg" viewBox="0 0 228 228"><rect x="1.5" y="1.5" width="225" height="225" rx="85" fill="#191007" stroke="#666" stroke-miterlimit="10" stroke-width="3"/><path d="M126.41,139.84a41.59,41.59,0,0,0-4.1-1.2c.85-1.36,1.82-2.73,2.56-4.15a40.74,40.74,0,0,0,1.65-4.62,1.51,1.51,0,0,0-.4-.23,17.1,17.1,0,0,0-8.83,4.39c.52.63,1,1.08,1.37,1.54,1.43-.91,2.79-1.82,4.16-2.74-.91,3.31-5.35,7.41-7.75,7.41,2.17-5.58,1.31-10.71-2.1-15.72a17.86,17.86,0,0,0-3.19,7.63,15.27,15.27,0,0,0,1.08,8.14c-3.19-.74-7.63-4.89-7.92-7.57,1.54,1,2.85,1.88,4.16,2.73.51-.45,1-.91,1.59-1.42a17.14,17.14,0,0,0-9.11-4.39,17.23,17.23,0,0,0,4.33,9.06c-3,.68-5.81,1.37-8.14,3.25,0,.17,0,.22.17.22,5.07,3.42,10.42,4.16,16.06,1.66a2.16,2.16,0,0,1,2,0c5.81,2.62,11.16,1.7,16.46-1.88A30.93,30.93,0,0,0,126.41,139.84Zm-26,2.11a.93.93,0,0,0-.06-.4c1.43-.23,3-.4,4.39-.69,1.71-.39,3,.4,4.55,1.37A12,12,0,0,1,100.38,142ZM113,139c-1.43-1.82-1.6-7-.06-9.79A13,13,0,0,1,113,139Zm3.7,3.25a8.44,8.44,0,0,1,8.88-.4A12,12,0,0,1,116.67,142.29Z" transform="translate(1.5 1.5)" fill="#bdc3c7"/><path d="M166.56,120.82a21.64,21.64,0,0,0-2.73-10.43c-4.73-8.42-12-12.92-21.65-12.92-15.26-.06-30.41-.06-45.67,0-1.6,0-2.85-.17-3.71-1.6l-.22-.23c-6.72-6.6-13.33-13.32-20-20a5.88,5.88,0,0,0-1.08-.85,8.42,8.42,0,0,0-11.11,1.54,8.32,8.32,0,0,0,.46,11.22c3.81,3.81,7.57,7.57,11.33,11.39a5.55,5.55,0,0,0,1,.68c-.51.28-.86.46-1.14.63a23.59,23.59,0,0,0-12,14.69c-1.54,5.18-1.19,10.48-.68,15.72a23.92,23.92,0,0,0,23.69,21h59a25.46,25.46,0,0,0,4.21-.29A24.18,24.18,0,0,0,166.05,132,52.94,52.94,0,0,0,166.56,120.82ZM62.11,85.56A6,6,0,0,1,71,77.42c.86.74,1.6,1.54,2.34,2.28-3,3-5.76,5.81-8.55,8.54C64,87.39,62.9,86.53,62.11,85.56Zm4.5,4.62L75,81.75,90.81,97.52c-2.85,0-5.58-.17-8.37.06a64.17,64.17,0,0,0-6.66,1.08,1.23,1.23,0,0,1-.92-.17C72.13,95.7,69.34,92.91,66.61,90.18ZM66.09,108a21.32,21.32,0,0,1,17.37-8.31c19.54-.06,39.19-.06,58.78,0A22,22,0,0,1,164,117.29a9.78,9.78,0,0,0,.17,1.13c-34.18-13.89-68.29-14-102.58,0A20.35,20.35,0,0,1,66.09,108Zm97.74,24.15a21.89,21.89,0,0,1-21.36,17.2H83.07A21.75,21.75,0,0,1,61.48,129.7c-.23-2.62-.06-5.35-.17-8.09,0-.68.4-.74.85-.91,4.73-1.65,9.46-3.53,14.24-5a125.66,125.66,0,0,1,32.47-5.36,127.67,127.67,0,0,1,43.39,6.27c3.88,1.2,7.64,2.73,11.39,4.16.29.05.74.45.74.74C164.28,125,164.57,128.56,163.83,132.15Z" transform="translate(1.5 1.5)" fill="#bdc3c7"/></svg>