<svg id="Layer_1" data-name="Layer 1" xmlns="http://www.w3.org/2000/svg" viewBox="0 0 228 228"><rect x="1.5" y="1.5" width="225" height="225" rx="85" fill="#191007" stroke="#666" stroke-miterlimit="10" stroke-width="3"/><path d="M67,88v49a3.49,3.49,0,0,1-6,2.47A3.57,3.57,0,0,1,60,137V88a3.5,3.5,0,1,1,7,0Z" transform="translate(1.5 1.5)" fill="#bdc3c7"/><path d="M81,97.77v29.4a3.49,3.49,0,0,1-6,2.47,3.58,3.58,0,0,1-1-2.47V97.77a3.5,3.5,0,0,1,7,0Z" transform="translate(1.5 1.5)" fill="#bdc3c7"/><path d="M95,82.41v60.18a3.48,3.48,0,0,1-3.49,3.5,3.43,3.43,0,0,1-2.47-1,3.55,3.55,0,0,1-1-2.46V82.41a3.48,3.48,0,0,1,3.5-3.5A3.44,3.44,0,0,1,95,82.41Z" transform="translate(1.5 1.5)" fill="#bdc3c7"/><path d="M109,94.62v35.7a3.49,3.49,0,0,1-6,2.47,3.57,3.57,0,0,1-1-2.47V94.62a3.5,3.5,0,1,1,7,0Z" transform="translate(1.5 1.5)" fill="#bdc3c7"/><path d="M123,102.36v20.28a3.49,3.49,0,0,1-6,2.47,3.57,3.57,0,0,1-1-2.47V102.36a3.5,3.5,0,1,1,7,0Z" transform="translate(1.5 1.5)" fill="#bdc3c7"/><path d="M137,83.67v57.77a3.5,3.5,0,0,1-7,0V83.67a3.48,3.48,0,0,1,3.49-3.5A3.41,3.41,0,0,1,137,83.67Z" transform="translate(1.5 1.5)" fill="#bdc3c7"/><path d="M151,91.47v42a3.49,3.49,0,0,1-6,2.46,3.57,3.57,0,0,1-1-2.46v-42a3.5,3.5,0,0,1,7,0Z" transform="translate(1.5 1.5)" fill="#bdc3c7"/><path d="M165,102.36v20.28a3.49,3.49,0,0,1-6,2.47,3.57,3.57,0,0,1-1-2.47V102.36a3.5,3.5,0,1,1,7,0Z" transform="translate(1.5 1.5)" fill="#bdc3c7"/></svg>