<svg id="Layer_1" data-name="Layer 1" xmlns="http://www.w3.org/2000/svg" viewBox="0 0 190.04 137.41"><title>icon_3</title><path d="M136.9,160.5a72.14,72.14,0,0,0-7.2-2.1c1.5-2.4,3.2-4.8,4.5-7.3a70.59,70.59,0,0,0,2.9-8.1,2.15,2.15,0,0,0-.7-.4,30,30,0,0,0-15.5,7.7c.9,1.1,1.7,1.9,2.4,2.7,2.5-1.6,4.9-3.2,7.3-4.8-1.6,5.8-9.4,13-13.6,13,3.8-9.8,2.3-18.8-3.7-27.6a31.72,31.72,0,0,0-5.6,13.4,27,27,0,0,0,1.9,14.3C104,160,96.2,152.7,95.7,148c2.7,1.7,5,3.3,7.3,4.8.9-.8,1.7-1.6,2.8-2.5a30,30,0,0,0-16-7.7,30.34,30.34,0,0,0,7.6,15.9c-5.3,1.2-10.2,2.4-14.3,5.7.1.3.1.4.3.4,8.9,6,18.3,7.3,28.2,2.9a3.82,3.82,0,0,1,3.6,0c10.2,4.6,19.6,3,28.9-3.3A55,55,0,0,0,136.9,160.5Zm-45.7,3.7a1.7,1.7,0,0,0-.1-.7c2.5-.4,5.2-.7,7.7-1.2,3-.7,5.3.7,8,2.4A21,21,0,0,1,91.2,164.2Zm22.1-5.1c-2.5-3.2-2.8-12.3-.1-17.2A22.76,22.76,0,0,1,113.3,159.1Zm6.5,5.7c4.1-3.2,10.9-3.4,15.6-.7A21.09,21.09,0,0,1,119.8,164.8Z" transform="translate(-17.46 -43.79)" fill="#7f571c"/><path d="M207.4,127.1a37.87,37.87,0,0,0-4.8-18.3c-8.3-14.8-21.1-22.7-38-22.7-26.8-.1-53.4-.1-80.2,0-2.8,0-5-.3-6.5-2.8l-.4-.4C65.7,71.3,54.1,59.5,42.3,47.8a9.68,9.68,0,0,0-1.9-1.5A14.78,14.78,0,0,0,20.9,49a14.61,14.61,0,0,0,.8,19.7C28.4,75.4,35,82,41.6,88.7a9.53,9.53,0,0,0,1.7,1.2c-.9.5-1.5.8-2,1.1-10.6,5.7-17.8,14.3-21.1,25.8-2.7,9.1-2.1,18.4-1.2,27.6,2.3,20.9,20.7,36.8,41.6,36.8H164.1a45.26,45.26,0,0,0,7.4-.5c17.4-2.5,31.9-16.7,35-33.9C207.8,140.2,207.5,133.6,207.4,127.1ZM24,65.2A10.59,10.59,0,0,1,39.6,50.9c1.5,1.3,2.8,2.7,4.1,4-5.2,5.2-10.1,10.2-15,15C27.3,68.4,25.4,66.9,24,65.2Zm7.9,8.1L46.7,58.5,74.4,86.2c-5,0-9.8-.3-14.7.1A114.07,114.07,0,0,0,48,88.2a2.13,2.13,0,0,1-1.6-.3C41.6,83,36.7,78.1,31.9,73.3ZM31,104.6A37.38,37.38,0,0,1,61.5,90c34.3-.1,68.8-.1,103.2,0,18.8,0,34.2,12.6,38.2,30.9.1.5.1,1.2.3,2q-90-36.6-180.1,0A35.6,35.6,0,0,1,31,104.6ZM202.6,147a38.41,38.41,0,0,1-37.5,30.2H60.8a38.19,38.19,0,0,1-37.9-34.5c-.4-4.6-.1-9.4-.3-14.2,0-1.2.7-1.3,1.5-1.6,8.3-2.9,16.6-6.2,25-8.7a220.65,220.65,0,0,1,57-9.4,224.14,224.14,0,0,1,76.2,11c6.8,2.1,13.4,4.8,20,7.3.5.1,1.3.8,1.3,1.3C203.4,134.5,203.9,140.7,202.6,147Z" transform="translate(-17.46 -43.79)" fill="#7f571c"/></svg>