<svg id="Layer_1" data-name="Layer 1" xmlns="http://www.w3.org/2000/svg" viewBox="0 0 228 228"><rect x="1.5" y="1.5" width="225" height="225" rx="85" fill="#191007" stroke="#666" stroke-miterlimit="10" stroke-width="3"/><path d="M162.07,116.93c-.32-8.06-4.55-13.86-11.35-17.83A26.45,26.45,0,0,0,139,95.59c-7.06-.57-11.93-4-14.49-10.72C120.29,74,112.65,66.62,101.2,64.06,85,60.4,68.78,69.6,64.13,85.13,63.55,87,63.4,88.85,63,90.78a4.15,4.15,0,0,0-.16.84v47.43l1.67,1.72.26-.16V159c0,2,.74,2.72,2.72,2.72h90.05c2.09,0,2.82-.73,2.82-2.82V141.4a1.5,1.5,0,0,1,.68-1.31,2.64,2.64,0,0,0,1-1.83C162.07,131.2,162.33,124,162.07,116.93Zm-6.38,40.31H69V140.56H73a3.11,3.11,0,0,1,.11,1v8.62a2.17,2.17,0,0,0,4.34.06v-9.68h2.25v9.1c0,1.67.83,2.67,2.25,2.67s2.24-1,2.24-2.67v-9.1H86.4v9.36a2.26,2.26,0,0,0,1.15,2.15A2,2,0,0,0,89.8,152a2.31,2.31,0,0,0,1.1-2v-9.36h6.22a3.11,3.11,0,0,1,.11,1v8a9.48,9.48,0,0,0,.15,1.31,2,2,0,0,0,2.09,1.3,2.14,2.14,0,0,0,2.15-2.24v-9.52h2.25v9.41a2.24,2.24,0,0,0,1.15,2.15,2.22,2.22,0,0,0,3.24-2.2v-9.36h7.11c0,.31.11.68.11,1v8.79a2.12,2.12,0,0,0,2.24,2h0a2.11,2.11,0,0,0,2.1-2.14v-9.52h2.3v9.78a2.21,2.21,0,1,0,4.39-.42v-9.36h2.25v9.89a2.27,2.27,0,0,0,2.51,2,2.13,2.13,0,0,0,1.88-2.51v-9.3H140a3.34,3.34,0,0,1,.1,1v8.1c0,1.68.84,2.57,2.25,2.57s2.25-1,2.25-2.67v-9.1h2.14v9.1c0,1.57.84,2.67,2.25,2.67s2.25-1,2.25-2.67v-9.1h4.91v16.68Zm1.83-21.75c0,.16-.11.31-.11.57H67.06v-1.25c0-13.6-.11-27.35,0-40.94.1-10.2,4.81-17.83,13.7-22.7C96,62.81,114.06,70,120.29,86.6c2.66,7.11,7.79,11.35,15.16,13,2.09.52,4.29.42,6.48.89,6.54,1.41,11.72,4.91,14.44,11.19a16.67,16.67,0,0,1,1.25,5.54C157.78,123.31,157.57,129.42,157.52,135.49Z" transform="translate(1.5 1.5)" fill="#bdc3c7"/></svg>