<svg id="Layer_1" data-name="Layer 1" xmlns="http://www.w3.org/2000/svg" viewBox="0 0 228 228"><rect x="1.5" y="1.5" width="225" height="225" rx="85" fill="#191007" stroke="#666" stroke-miterlimit="10" stroke-width="3"/><path d="M94.17,132.18a1.45,1.45,0,0,1-1.25-1.57,1.44,1.44,0,1,1,1.46,1.62A.89.89,0,0,0,94.17,132.18Z" transform="translate(1.5 1.5)" fill="#bdc3c7"/><path d="M103,123.45a1.5,1.5,0,0,1-1.47-1.42,1.45,1.45,0,0,1,1.41-1.46,1.48,1.48,0,0,1,1.47,1.31v.1A1.67,1.67,0,0,1,103,123.45Z" transform="translate(1.5 1.5)" fill="#bdc3c7"/><path d="M111.84,114.61a1.41,1.41,0,1,1,1.41-1.41A1.48,1.48,0,0,1,111.84,114.61Z" transform="translate(1.5 1.5)" fill="#bdc3c7"/><path d="M120.68,105.78a1.32,1.32,0,0,1-1.47-1.26v-.1a1.38,1.38,0,0,1,1.41-1.46h0a1.42,1.42,0,0,1,1.47,1.41A1.48,1.48,0,0,1,120.68,105.78Z" transform="translate(1.5 1.5)" fill="#bdc3c7"/><path d="M129.51,96.94a1.44,1.44,0,0,1-1.46-1.41,1.44,1.44,0,1,1,2.87,0A1.52,1.52,0,0,1,129.51,96.94Z" transform="translate(1.5 1.5)" fill="#bdc3c7"/><path d="M136.83,97.26c0,.1-.11.1-.11.15a13.33,13.33,0,0,1-.89,1c-18.08,18-36.06,36.07-54.15,54.15a11.52,11.52,0,0,0-.89,1.47c-.26.31-.42.68-.73,1-2,2-4.13,4.23-6.27,6.27-1.15,1.1-1.83,1-3-.42-2.14-2.3-4.39-4.6-6.79-6.79-1.41-1.26-1.46-1.88-.42-3l6.27-6.28a4,4,0,0,1,1.1-.73,4.21,4.21,0,0,0,1.15-.68c2.67-2.66,5.28-5.28,8-7.94.26-.26.47-.68.73-.68.58,0,1.31-.11,1.67.26a2,2,0,0,1,.26,1.67c0,.31-.41.58-.67.84l-8.26,8.41a6.38,6.38,0,0,1,.88,1,1.23,1.23,0,0,1,0,1.88h0A1.22,1.22,0,0,1,73,149c-.1-.11-.15-.11-.15-.16-.48-.42-.89-.84-1.42-1.31l-3.86,3.87a1.67,1.67,0,0,0,0,2.25h0l3.55,3.45a1.74,1.74,0,0,0,2.46,0h0l3.55-3.45c-2.87-2.3-.42-3.87.89-2.46.89.84,2-1.15,3-2l52.74-52.74c.32-.32.58-.73.89-.84a2.48,2.48,0,0,1,1.73.16A1,1,0,0,1,136.83,97.26Z" transform="translate(1.5 1.5)" fill="#bdc3c7"/><path d="M156,63h-1.1a50.73,50.73,0,0,1-4.7,2.71,12.57,12.57,0,0,0-5,3.82c-2.14,2.4-4,5-6.38,7.37C121.15,94.64,103.37,112.36,85.65,130a7,7,0,0,0-.83.89,1.48,1.48,0,0,0,2,2.09,13.33,13.33,0,0,0,1-.89Q113.9,106,140.07,79.8a11.79,11.79,0,0,0,.68-1l5.54,5.55a2.57,2.57,0,0,0-.89.57l-6.17,6.17-.26.26a1.45,1.45,0,1,0,2.3,1.78A181.49,181.49,0,0,1,156,79.48a12.26,12.26,0,0,0,3.4-4.6A37.14,37.14,0,0,1,162.18,70V68.93Zm-5.07,16.88c-.89.68-1.72,1.41-2.56,2L143,76.5c3.13-4.39,6.69-8.41,12.38-10.08l3.14,3C156.9,73.63,154.65,77.29,150.94,79.85Z" transform="translate(1.5 1.5)" fill="#bdc3c7"/></svg>