<svg id="Layer_1" data-name="Layer 1" xmlns="http://www.w3.org/2000/svg" viewBox="0 0 228 228"><rect x="1.5" y="1.5" width="225" height="225" rx="85" fill="#191007" stroke="#666" stroke-miterlimit="10" stroke-width="3"/><rect x="67.6" y="119.21" width="7.06" height="3.42" fill="#bdc3c7"/><path d="M76.69,124.87v28.54H65a2.72,2.72,0,0,1-2.53-1.21V126.08a2.5,2.5,0,0,1,2.42-1.21Z" transform="translate(1.5 1.5)" fill="#bdc3c7"/><rect x="83.77" y="126.37" width="3.42" height="28.39" fill="#bdc3c7"/><path d="M112.13,122.24a10.2,10.2,0,0,0-1.58-6,5,5,0,0,0-1.47-1.47,4.66,4.66,0,0,0-6.32,1.47,11.94,11.94,0,0,0,0,12,5.06,5.06,0,0,0,1.47,1.48,4.66,4.66,0,0,0,6.32-1.48A10.59,10.59,0,0,0,112.13,122.24Zm-.95,0h0a9.42,9.42,0,0,1-1.31,5.31,3.83,3.83,0,0,1-1.37,1.37,3.71,3.71,0,0,1-5.11-1.37,11.09,11.09,0,0,1,0-10.58,3.28,3.28,0,0,1,1.32-1.37,3.71,3.71,0,0,1,5.1,1.37A8.87,8.87,0,0,1,111.18,122.24Z" transform="translate(1.5 1.5)" fill="#bdc3c7"/><polygon points="113.79 134.74 114.84 134.74 114.84 153.96 113.79 153.96 113.79 144.85 103.94 144.85 103.94 153.96 102.84 153.96 102.84 134.74 103.94 134.74 103.94 143.85 113.79 143.85 113.79 134.74" fill="#bdc3c7"/><path d="M114.71,128.87a.86.86,0,0,1,0,1.11h0a.73.73,0,0,1-.58.26.79.79,0,0,1-.58-.26.89.89,0,0,1,0-1.21h0a.75.75,0,0,1,.58-.27A6.62,6.62,0,0,0,114.71,128.87Z" transform="translate(1.5 1.5)" fill="#bdc3c7"/><polygon points="121.06 131 121.06 121.42 119.85 122.16 119.37 121.79 121.74 120.1 121.74 131 124.22 131 124.22 131.63 118.58 131.63 118.58 131 121.06 131" fill="#bdc3c7"/><polygon points="118.84 152.86 125.43 152.86 125.43 153.96 117 153.96 123.11 143.38 117 143.38 117 142.32 124.95 142.32 118.84 152.86" fill="#bdc3c7"/><rect x="140.81" y="126.42" width="3.42" height="28.44" fill="#bdc3c7"/><path d="M128.56,78.84C114,72.1,100.12,74.37,87.75,84.32c-9.22,7.42-14.22,17.27-15.8,29a1.57,1.57,0,0,1-.21.73H68c.47-2.31.74-4.63,1.32-6.79C72.42,95.48,78.74,85.9,88.8,79a40.71,40.71,0,0,1,27.07-7.27c14.43,1.32,25.28,8.53,33.28,20.44a48,48,0,0,1,7.64,21.38V114h-3.48a52.77,52.77,0,0,0-1-5.21C148.94,95.17,141.41,84.58,128.56,78.84Z" transform="translate(1.5 1.5)" fill="#bdc3c7"/><rect x="153.34" y="119.26" width="7.06" height="3.42" fill="#bdc3c7"/><path d="M162.53,126.08V152.2a2.67,2.67,0,0,1-2.53,1.21c-3.53-.1-7.16,0-10.69,0h-1V124.87h11.74A2.64,2.64,0,0,1,162.53,126.08Z" transform="translate(1.5 1.5)" fill="#bdc3c7"/></svg>