<svg id="Layer_1" data-name="Layer 1" xmlns="http://www.w3.org/2000/svg" viewBox="0 0 189.9 78.8"><title>icon_8</title><path d="M32.5,94.8v35.4a6.08,6.08,0,0,1-10.4,4.3,6.22,6.22,0,0,1-1.8-4.3V94.8a6.1,6.1,0,0,1,12.2,0Z" transform="translate(-20.3 -73.2)" fill="#7f571c"/><path d="M56.9,82.6v59.9a6.08,6.08,0,0,1-10.4,4.3,6.22,6.22,0,0,1-1.8-4.3V82.6a6.06,6.06,0,0,1,6.1-6.1A5.94,5.94,0,0,1,56.9,82.6Z" transform="translate(-20.3 -73.2)" fill="#7f571c"/><path d="M81.3,89.3v46.4A6.08,6.08,0,0,1,70.9,140a6.22,6.22,0,0,1-1.8-4.3V89.3a6.1,6.1,0,1,1,12.2,0Z" transform="translate(-20.3 -73.2)" fill="#7f571c"/><path d="M105.8,100.9v23.2a6.08,6.08,0,0,1-10.4,4.3,6.22,6.22,0,0,1-1.8-4.3V100.9a6.1,6.1,0,1,1,12.2,0Z" transform="translate(-20.3 -73.2)" fill="#7f571c"/><path d="M130.2,79.3v66.6a6.1,6.1,0,0,1-12.2,0V79.3a6.06,6.06,0,0,1,6.1-6.1A6,6,0,0,1,130.2,79.3Z" transform="translate(-20.3 -73.2)" fill="#7f571c"/><path d="M154.7,103.1V122a6.1,6.1,0,0,1-12.2,0V103.1a6.1,6.1,0,0,1,12.2,0Z" transform="translate(-20.3 -73.2)" fill="#7f571c"/><path d="M179.1,94.8v35.4a6.08,6.08,0,0,1-10.4,4.3,6.22,6.22,0,0,1-1.8-4.3V94.8a6.1,6.1,0,0,1,12.2,0Z" transform="translate(-20.3 -73.2)" fill="#7f571c"/><path d="M203.5,81.3v62.3a6.08,6.08,0,0,1-10.4,4.3,6.22,6.22,0,0,1-1.8-4.3V81.3a6.1,6.1,0,1,1,12.2,0Z" transform="translate(-20.3 -73.2)" fill="#7f571c"/><circle cx="183.8" cy="8.1" r="6.1" fill="#394fff"/></svg>