<svg id="Layer_1" data-name="Layer 1" xmlns="http://www.w3.org/2000/svg" viewBox="0 0 190.02 188.33"><title>icon_1</title><path d="M207.4,120.9c-.6-15.4-8.7-26.5-21.7-34.1a50.74,50.74,0,0,0-22.4-6.7c-13.5-1.1-22.8-7.6-27.7-20.5C127.5,38.8,112.9,24.7,91,19.8c-30.9-7-62,10.6-70.9,40.3-1.1,3.5-1.4,7.1-2.2,10.8a9,9,0,0,0-.3,1.6v90.7l3.2,3.3.5-.3v35.2c0,3.8,1.4,5.2,5.2,5.2H198.7c4,0,5.4-1.4,5.4-5.4V167.7a2.86,2.86,0,0,1,1.3-2.5,5.11,5.11,0,0,0,1.9-3.5C207.4,148.2,207.9,134.5,207.4,120.9ZM195.2,198H29.5V166.1H37a6.15,6.15,0,0,1,.2,1.9v16.5a4.15,4.15,0,0,0,8.3.1V166.1h4.3v17.4c0,3.2,1.6,5.1,4.3,5.1s4.3-1.9,4.3-5.1V166.1h4.3V184a4.28,4.28,0,0,0,2.2,4.1,3.77,3.77,0,0,0,4.3-.2,4.41,4.41,0,0,0,2.1-3.8V166.2H83.2a6.15,6.15,0,0,1,.2,1.9v15.4a17.14,17.14,0,0,0,.3,2.5,3.84,3.84,0,0,0,4,2.5,4.1,4.1,0,0,0,4.1-4.3V166h4.3v18a4.28,4.28,0,0,0,2.2,4.1,4.24,4.24,0,0,0,6.2-4.2V166h13.6c0,.6.2,1.3.2,1.9v16.8a4.1,4.1,0,0,0,4.3,3.8h0a4,4,0,0,0,4-4.1V166.2H131v18.7a4.22,4.22,0,1,0,8.4-.8V166.2h4.3v18.9a4.36,4.36,0,0,0,4.8,3.8,4.08,4.08,0,0,0,3.6-4.8V166.3h13a6.15,6.15,0,0,1,.2,1.9v15.5c0,3.2,1.6,4.9,4.3,4.9s4.3-1.9,4.3-5.1V166.1H178v17.4c0,3,1.6,5.1,4.3,5.1s4.3-1.9,4.3-5.1V166.1H196V198Zm3.5-41.6c0,.3-.2.6-.2,1.1H25.7v-2.4c0-26-.2-52.3,0-78.3.2-19.5,9.2-34.1,26.2-43.4,29.2-16,63.7-2.2,75.6,29.5,5.1,13.6,14.9,21.7,29,24.9,4,1,8.2.8,12.4,1.7,12.5,2.7,22.4,9.4,27.6,21.4a32.07,32.07,0,0,1,2.4,10.6C199.2,133.1,198.8,144.8,198.7,156.4Z" transform="translate(-17.6 -18.27)" fill="#7f571c"/></svg>