<svg id="Layer_1" data-name="Layer 1" xmlns="http://www.w3.org/2000/svg" viewBox="0 0 228 228"><rect x="1.5" y="1.5" width="225" height="225" rx="85" fill="#191007" stroke="#666" stroke-miterlimit="10" stroke-width="3"/><path d="M164.56,70.1a4.56,4.56,0,0,0-3.9-1.62H64.37a11,11,0,0,0-1.28,0,4,4,0,0,0-3.46,3.13,10.29,10.29,0,0,0,0,3.23,3.86,3.86,0,0,0,3.68,3.29c3,.06,6,.06,9,.06h1.17v8.7c-3.07,1.23-3.68,2.18-3.68,5.47V118A4.08,4.08,0,0,0,73.91,122h1.56a4.1,4.1,0,0,0,4.07-4.13V91.13a4,4,0,0,0-2.9-3.91c-.22,0-.44-.17-.67-.22V78.35H97.34v6.14c-2.73.67-3.68,2-3.68,4.68v21.2a3.38,3.38,0,0,0,.17,1.29,4.09,4.09,0,0,0,3.51,3.12v6.53c-2.9.94-3.68,2-3.68,5.07,0,8.31,0,16.51-.06,24.83,0,3.29,1.45,5.52,5.36,5.3,2.79-.17,4.46-1.68,4.46-4.47V125.71a6.7,6.7,0,0,0,0-1,4.16,4.16,0,0,0-3.63-3.46v-6.47c2.51-.84,3.68-2.06,3.68-4.13V88.56a3.54,3.54,0,0,0-2.4-3.63c-1.39-.39-1.45-1.17-1.39-2.23.05-1.22,0-2.45,0-3.68,0-.22.05-.44.05-.67h27.45V92c-2.62.45-3.68,1.79-3.68,4.35V123a3.76,3.76,0,0,0,3.23,4,12.41,12.41,0,0,0,2.51.06,3.73,3.73,0,0,0,3.91-4V96a3.81,3.81,0,0,0-2.29-3.74c-.39-.16-.84-.22-1.28-.39V78.35h22.65V98c-2.46.56-3.69,1.78-3.69,3.74v27.78A3.61,3.61,0,0,0,152,133h2.17a3.8,3.8,0,0,0,4.08-4V101.89a3.88,3.88,0,0,0-3.29-4c-.17,0-.34-.06-.45-.06V78.24h6.3a4.45,4.45,0,0,0,3.85-1.67A6.38,6.38,0,0,0,164.56,70.1ZM77.15,91.46V117.4c0,1.67-.67,2.29-2.46,2.4S72,119.13,72,117.4V91.63a2,2,0,0,1,2.29-2.29h.78A1.9,1.9,0,0,1,77.15,91.46Zm23,32.52a2.49,2.49,0,0,1,.66,1.79c.06,4.35,0,8.7,0,13v13.06c0,1.56-.61,2.17-2.17,2.17H97.62a1.85,1.85,0,0,1-1.84-1.84c-.06-1,0-1.84,0-2.79V126.1c0-.94,0-1.89,1-2.28A4,4,0,0,1,100.19,124Zm0-36.65a2.59,2.59,0,0,1,.61,1.68c.06,3.62,0,7.19,0,10.76v10.55c0,1.56-.66,2.17-2.17,2.17H97.62a1.77,1.77,0,0,1-1.79-1.84V89.29c0-1,.06-1.9,1.06-2.24S99.29,86.44,100.24,87.33Zm30.57,9.88c-.05,4.13,0,8.2,0,12.38v13.28c0,1.39-.45,1.89-1.84,1.89-3,.06-3.29-.16-3.29-3.12V96.43c0-1.68.45-2.24,2.17-2.24C130.09,94.14,130.87,94.19,130.81,97.21Zm24.88,4.07a2.8,2.8,0,0,1,.17,1.17v26.44c0,1.56-.45,2-2,2-3,0-3.12-.17-3.12-3.07V102.9a3.7,3.7,0,0,1,.22-1.56c.61-1.29,1.9-.79,3-.84C154.69,100.39,155.36,100.44,155.69,101.28ZM162.89,75a5.49,5.49,0,0,1-1.45,1,2,2,0,0,1-1,.06H64.54a4.08,4.08,0,0,1-1.67-.22c-1-.39-1.29-1.9-.95-3.46a2.06,2.06,0,0,1,2-1.45H160.6A2.55,2.55,0,0,1,162.89,75Z" transform="translate(1.5 1.5)" fill="#bdc3c7"/></svg>