<svg id="Layer_1" data-name="Layer 1" xmlns="http://www.w3.org/2000/svg" viewBox="0 0 228 228"><rect x="1.5" y="1.5" width="225" height="225" rx="85" fill="#191007" stroke="#666" stroke-miterlimit="10" stroke-width="3"/><path d="M123,122.1Z" transform="translate(1.5 1.5)" fill="#bdc3c7"/><path d="M106,131.35a1.94,1.94,0,0,1-2.13,1.86h-.17a87.4,87.4,0,0,1-24-4.27,27.57,27.57,0,0,1-9.14-4.76A7.81,7.81,0,0,1,69.48,123c-.88-1-1-2.14,0-3a32.48,32.48,0,0,1,5.2-3.67c1.86-.87,3.83-1.69,5.8-2.4a2.06,2.06,0,0,1,2.79.82c.11.11.11.27.17.38.38,1.15-.17,2.13-1.59,2.57a34.52,34.52,0,0,0-7.77,3.56l-.11.44c1.86.87,3.77,1.86,5.63,2.57a68.84,68.84,0,0,0,17.74,4c2.24.28,4.49.39,6.73.55A2.14,2.14,0,0,1,106,131.35Z" transform="translate(1.5 1.5)" fill="#bdc3c7"/><path d="M115,131.13h0a1.9,1.9,0,0,1-1.86,2.08h-.11a2,2,0,0,1-2.13-1.86v-.11a2.05,2.05,0,0,1,4.1-.11Z" transform="translate(1.5 1.5)" fill="#bdc3c7"/><path d="M159.8,143.56a25.17,25.17,0,0,0-2.68-1.59,18.26,18.26,0,0,0,1.26-1.37,24.31,24.31,0,0,0,5.63-21,.51.51,0,0,0-.11-.38,2,2,0,0,0-2.51-1.43l-2.85.44a14.83,14.83,0,0,0-6.9-7.17c-2.84-1.59-6-3-8.92-4.38a19.32,19.32,0,0,0,2.24-2.08c3.23-3.28,3.23-7.44.11-10.73A14,14,0,0,0,142,91.33c-4.49-2.84-9.58-4.1-14.78-5.09l-2-.38a29.85,29.85,0,0,0,3.51-2.79,6.22,6.22,0,0,0-.11-9.58,16.76,16.76,0,0,0-5.09-3.23,42.63,42.63,0,0,0-29-.55,15,15,0,0,0-6.62,3.94c-2.79,3-2.68,6.52.11,9.42a15.74,15.74,0,0,0,5.25,3.39L94.6,87c-2.68,1.09-5.53,2.08-8.21,3.28a15,15,0,0,0-5.75,4.49,7,7,0,0,0,0,8.87c.44.6,1,1.15,1.43,1.7-2.52.87-5,1.58-7.45,2.41-3.94,1.53-7.72,3.28-10.73,6.35-4.49,4.54-4.54,10.12-.11,14.67,3.12,3.28,7.18,5.36,11.39,6.95,9.58,3.67,19.6,5.09,29.78,5.47a112.26,112.26,0,0,0,18.23-.6A2.57,2.57,0,0,1,126,142a26.89,26.89,0,0,0-3,1.86,5.21,5.21,0,0,0-.54,8.21,13.71,13.71,0,0,0,5.25,3.23,44,44,0,0,0,25.07.88,15.64,15.64,0,0,0,7.78-3.84C163.3,149.47,163,145.91,159.8,143.56Zm.55-21.35h0a18,18,0,0,1-.55,7.61c-2.25,7.6-7.23,12.37-14.84,14.5-.71.17-1.15.11-1.25-.82A20.33,20.33,0,0,1,160.35,122.21Zm-18.62,10h0c-1-1.42-1.8-2.84-2.57-4.21l-1.59-2.08c-1.15-1.37-1.25-1.37-.38-3.07a19,19,0,0,1,4.54-5.8,16.08,16.08,0,0,1,5.26,7.23c0,.27,0,.54-.27.71A25.16,25.16,0,0,0,141.73,132.22ZM91.21,80.49c-1.81-1.36-1.7-2.84-.11-4.37A14.78,14.78,0,0,1,97.34,73a40,40,0,0,1,23.1.43,19.74,19.74,0,0,1,4.76,2.41c2.25,1.53,2.14,3.29,0,4.93a15.94,15.94,0,0,1-8,3.28c-3,.55-5.92.71-8.87,1.15h0c-4.49-.27-8.76-.71-13-2.41A14.41,14.41,0,0,1,91.21,80.49ZM85.3,95.82c3-2.41,6.35-3.5,9.91-4.49a74.19,74.19,0,0,1,18.33-2.24h0c7.23.11,14.56.82,21.68,3.5a27.18,27.18,0,0,1,5.75,3c3.39,2.3,3.28,4.92,0,7.44a25.77,25.77,0,0,1-9.75,4.22,74.76,74.76,0,0,1-26.33,1.69,50.33,50.33,0,0,1-14-3.12,25.44,25.44,0,0,1-5.53-3.06C82.34,100.53,82.34,98.23,85.3,95.82Zm30.87,41.33a114.27,114.27,0,0,1-28.63-2,52.45,52.45,0,0,1-16.37-5.75,22,22,0,0,1-4.65-3.56c-2.79-2.79-2.57-5.91.11-8.7a23.41,23.41,0,0,1,9.2-5.47c3.28-1.15,6.78-2.08,10.18-3.07a1.83,1.83,0,0,1,1.42.17,55.44,55.44,0,0,0,16.21,4,83.33,83.33,0,0,0,20.58-.17,59.06,59.06,0,0,0,12-2.79,5.28,5.28,0,0,1,1.8-.11,43.73,43.73,0,0,1,12.7,5.47,10.9,10.9,0,0,1,3.83,4.22l-4,2.24c-1.42-2-2.79-4-4.27-5.8a31.55,31.55,0,0,0-3.5-3.12,2,2,0,0,0-2.85.17,26.09,26.09,0,0,0-7.17,8.86l-.87-.54a25.81,25.81,0,0,0-10.57-3.56h-.16a2,2,0,0,0-2.14,1.86,23.75,23.75,0,0,0,2.25,16.09,9.57,9.57,0,0,0,.54,1A46.65,46.65,0,0,1,116.17,137.15Zm6.62-13.36c0-.43.11-1,.17-1.58a20.76,20.76,0,0,1,13.36,8.86,20.2,20.2,0,0,1,3.28,12.38c0,.87-.38,1.15-1.26,1A20.54,20.54,0,0,1,122.79,123.79Zm34.87,25.68a13,13,0,0,1-3.5,2,36.13,36.13,0,0,1-12.59,2.08h-.11c-4.38-.11-8.87-.44-12.86-2.3a14.28,14.28,0,0,1-3.12-2c-.88-.71-.88-1.53.11-2.08a41.52,41.52,0,0,1,4.1-2.08c.17-.11.55.11.82.27a26.39,26.39,0,0,0,7.78,3.12,5.2,5.2,0,0,1,1.8,1.26c1.15,1,2.08,1.1,3.23,0a7.19,7.19,0,0,1,2.85-1.53c2.24-.71,4.38-1.81,6.62-2.68a1.9,1.9,0,0,1,1.37-.11,17.29,17.29,0,0,1,3.39,1.69C158.81,147.77,158.81,148.59,157.66,149.47Z" transform="translate(1.5 1.5)" fill="#bdc3c7"/></svg>