<svg id="Layer_1" data-name="Layer 1" xmlns="http://www.w3.org/2000/svg" viewBox="0 0 228 228"><rect x="1.5" y="1.5" width="225" height="225" rx="85" fill="#191007" stroke="#666" stroke-miterlimit="10" stroke-width="3"/><path d="M67,102.3v20.29a3.49,3.49,0,0,1-6,2.46,3.57,3.57,0,0,1-1-2.46V102.3a3.5,3.5,0,1,1,7,0Z" transform="translate(1.5 1.5)" fill="#bdc3c7"/><path d="M81,95.31v34.33a3.49,3.49,0,0,1-6,2.46,3.58,3.58,0,0,1-1-2.46V95.31a3.48,3.48,0,0,1,3.5-3.5A3.41,3.41,0,0,1,81,95.31Z" transform="translate(1.5 1.5)" fill="#bdc3c7"/><path d="M95,99.15v26.59a3.48,3.48,0,0,1-6,2.46,3.55,3.55,0,0,1-1-2.46V99.15a3.5,3.5,0,1,1,7,0Z" transform="translate(1.5 1.5)" fill="#bdc3c7"/><path d="M109,105.79v13.3a3.49,3.49,0,0,1-6,2.47,3.57,3.57,0,0,1-1-2.47v-13.3a3.5,3.5,0,0,1,7,0Z" transform="translate(1.5 1.5)" fill="#bdc3c7"/><path d="M123,93.41v38.18a3.5,3.5,0,0,1-7,0V93.41a3.5,3.5,0,0,1,7,0Z" transform="translate(1.5 1.5)" fill="#bdc3c7"/><path d="M137,107.06v10.83a3.5,3.5,0,0,1-7,0V107.06a3.5,3.5,0,1,1,7,0Z" transform="translate(1.5 1.5)" fill="#bdc3c7"/><path d="M151,102.3v20.29a3.49,3.49,0,0,1-6,2.46,3.57,3.57,0,0,1-1-2.46V102.3a3.5,3.5,0,1,1,7,0Z" transform="translate(1.5 1.5)" fill="#bdc3c7"/><path d="M165,94.56v35.71a3.49,3.49,0,0,1-6,2.46,3.57,3.57,0,0,1-1-2.46V94.56a3.5,3.5,0,1,1,7,0Z" transform="translate(1.5 1.5)" fill="#bdc3c7"/></svg>