<svg id="Layer_1" data-name="Layer 1" xmlns="http://www.w3.org/2000/svg" viewBox="0 0 228 228"><rect x="1.5" y="1.5" width="225" height="225" rx="85" fill="#190707" stroke="#666" stroke-miterlimit="10" stroke-width="3"/><path d="M64.94,100.38A2,2,0,0,1,63,102.45h0a1.91,1.91,0,0,1-2-2,2,2,0,0,1,2-2.07A1.88,1.88,0,0,1,64.94,100.38Z" transform="translate(1.5 1.5)" fill="#bdc3c7"/><path d="M97.78,105a3.54,3.54,0,0,0-3.7-2.55H71.47c-1.8,0-2.83-.71-2.83-2s1-2.07,2.83-2.07H94.19a7.65,7.65,0,0,1,.71,15.28H62.61a2,2,0,0,1-1.74-2.34,2.28,2.28,0,0,1,1.74-1.74H94A3.53,3.53,0,0,0,97.78,105Z" transform="translate(1.5 1.5)" fill="#bdc3c7"/><path d="M106.75,139.85h0a2,2,0,0,1-2,2.06,2.06,2.06,0,0,1-2.06-2.06,2,2,0,0,1,2.06-2A2,2,0,0,1,106.75,139.85Z" transform="translate(1.5 1.5)" fill="#bdc3c7"/><path d="M161.44,137.89H140.89l.27-4h9.57a18.88,18.88,0,0,0,3-.27,13.08,13.08,0,0,0,6.52-22c-6-6-12.07-12.12-18.05-18.16A34.4,34.4,0,0,0,117,83.09H63.75a4.44,4.44,0,0,0-1.2.11A1.91,1.91,0,0,0,61,85a2,2,0,0,0,1.9,2.18H117a30.5,30.5,0,0,1,17.18,5.06,40.1,40.1,0,0,1,7.07,6.19H118.22a6.84,6.84,0,0,0-3.26.71,7.62,7.62,0,0,0-3.81,10.06,7.4,7.4,0,0,0,7.29,4.62h37.34a3,3,0,0,1,1.31.32,8.91,8.91,0,0,1,1.63,11.42,9.12,9.12,0,0,1-8.26,4.29H62.71a2,2,0,0,0,.38,4h8.7l.27,4H63.37a4.21,4.21,0,0,0-1.47.27,1.92,1.92,0,0,0-.87,2.23,2.23,2.23,0,0,0,2.23,1.46H96.31c1.52,0,2.39-.7,2.39-2s-.87-2.07-2.39-2.07H83.75l.27-4h44.8l.27,4H112.67a2,2,0,0,0-2.17,1.9v.11a2.09,2.09,0,0,0,2.17,2.07h48.71a2.91,2.91,0,0,0,2.78-1.36v-1.2A2.65,2.65,0,0,0,161.44,137.89Zm-9.62-28.21H118.27a4.79,4.79,0,0,1-1.52-.28,3.61,3.61,0,0,1-2-4.73,3.43,3.43,0,0,1,3.37-2.22h26.7a1.59,1.59,0,0,1,.87.27c2.33,2.23,4.56,4.56,7,7ZM79,137.46a1.91,1.91,0,0,1-2.23,0c-1.3-.93-.76-2.34-.92-3.59h4C79.84,135.12,80.44,136.48,79,137.46Zm57,0a1.82,1.82,0,0,1-2.07,0c-1.35-.87-.87-2.34-.92-3.59h4C136.87,135.28,137.46,136.69,136.05,137.46Z" transform="translate(1.5 1.5)" fill="#bdc3c7"/></svg>