<svg id="Layer_1" data-name="Layer 1" xmlns="http://www.w3.org/2000/svg" viewBox="0 0 189.71 189.9"><title>icon_9</title><path d="M144.12,134.3" transform="translate(-0.01 0)" fill="#7f211f"/><path d="M13.92,24.4a3.89,3.89,0,0,1,3-4.5h2.6v-.2a8.56,8.56,0,0,1,2.4.4,3.73,3.73,0,0,1-.4,7.1,16.05,16.05,0,0,1-3.1.2A3.74,3.74,0,0,1,14,24.57Z" transform="translate(-0.01 0)" fill="#7f211f"/><path d="M32.22,32.3c0,3.4-1.1,5-3.5,5.2-2.2.2-3.9-1.5-3.9-4.9V30.7a3.83,3.83,0,0,1,3.7-3.2C30.92,27.6,32.22,29.5,32.22,32.3Z" transform="translate(-0.01 0)" fill="#7f211f"/><path d="M24.72,14.7c0-3.2,1.1-4.7,3.4-4.9S32,11.3,32,14.1c.2,3.5-1.1,5.6-3.7,5.6S24.72,17.9,24.72,14.7Z" transform="translate(-0.01 0)" fill="#7f211f"/><path d="M32.72,25c-1.1-2.8.9-5,4.9-5,3.5,0,5.6,2.1,4.7,4.9a3.65,3.65,0,0,1-4.1,2.6C35.92,27.2,33.72,27.4,32.72,25Z" transform="translate(-0.01 0)" fill="#7f211f"/><path d="M70.72,14.1a3.48,3.48,0,0,1,.2-4.5A3.33,3.33,0,0,1,75.6,9h0c2.2,2.1,4.5,4.3,6.5,6.5a8.59,8.59,0,0,1,.9,2.4c-.7.9-1.3,2.2-2.2,2.6a4,4,0,0,1-3.7-.2A53.55,53.55,0,0,1,70.72,14.1Z" transform="translate(-0.01 0)" fill="#7f211f"/><path d="M90.82,3.7A3.69,3.69,0,0,1,94.5,0h.22a3.64,3.64,0,0,1,3.5,3.7,3.69,3.69,0,0,1-3.68,3.7h0A3.76,3.76,0,0,1,90.82,3.7Z" transform="translate(-0.01 0)" fill="#7f211f"/><path d="M97.22,183.4a3.57,3.57,0,0,1,0,5l-.16.15-.2.2-1.1.7h-2.4c-.4-.2-.7-.6-1.1-.7a3.67,3.67,0,0,1-1.3-5,3.5,3.5,0,0,1,4.73-1.46l.27.16A1.93,1.93,0,0,1,97.22,183.4Z" transform="translate(-0.01 0)" fill="#7f211f"/><path d="M98.52,17.5v9.9a3.66,3.66,0,0,1-7.3,0V17.5a3.46,3.46,0,0,1,3.4-3.5H95A3.85,3.85,0,0,1,98.52,17.5Z" transform="translate(-0.01 0)" fill="#7f211f"/><path d="M106.92,15.5c.2-.4.6-.6.9-.9l5.6-5.6a3.15,3.15,0,0,1,3.9-.6,18.61,18.61,0,0,1,2.6,3,9.11,9.11,0,0,1-1.7,3c-1.7,1.9-3.4,3.5-5.2,5.2a3.69,3.69,0,0,1-5.13.95l-.07-.05a3.3,3.3,0,0,1-1.25-4.5A4.1,4.1,0,0,1,106.92,15.5Z" transform="translate(-0.01 0)" fill="#7f211f"/><path d="M146.92,23.5a3.45,3.45,0,0,1,3-3.4,9.71,9.71,0,0,1,3.4,0,3.48,3.48,0,0,1,3.5,3.46v.24a3.52,3.52,0,0,1-3.56,3.5h-1.44a10.71,10.71,0,0,1-2.4-.2A3.3,3.3,0,0,1,146.92,23.5Z" transform="translate(-0.01 0)" fill="#7f211f"/><path d="M164.32,30.4a11.48,11.48,0,0,1,0,3.7,3.57,3.57,0,0,1-3.7,3.4h-.3a3.77,3.77,0,0,1-3.4-3.7V32.7h0V30.8a4,4,0,0,1,3.4-3.4A4.36,4.36,0,0,1,164.32,30.4Z" transform="translate(-0.01 0)" fill="#7f211f"/><path d="M157,14.9c0-1.9,0-3.9,2.1-4.9A3.65,3.65,0,0,1,164,11.69h0c.2.2.2.6.4.7a5.55,5.55,0,0,1,.2,1.9c0,4.3-2.4,6.4-5.2,5A4.29,4.29,0,0,1,157,14.9Z" transform="translate(-0.01 0)" fill="#7f211f"/><path d="M164.82,22.9a3.86,3.86,0,0,1,3.7-3c3.5-.2,5.2.6,5.8,2.4.9,2.8-.9,4.9-4.7,4.9C166.32,27.2,164.32,25.5,164.82,22.9Z" transform="translate(-0.01 0)" fill="#7f211f"/><path d="M189.32,142.1a25.34,25.34,0,0,0-19.1-20.9c-3.5-1.1-7.3-1.9-11-2.8a2.65,2.65,0,0,1-1.5-.7,5.56,5.56,0,0,1,1.5-5.6,22.4,22.4,0,0,0,9.5-16.8,142.75,142.75,0,0,0,0-18.5,30.58,30.58,0,0,0-.9-5.2,24.34,24.34,0,0,0-30.24-16.42l-.06,0a25.84,25.84,0,0,0-11.4,7.1,33.55,33.55,0,0,0-11.6-16.8,30.7,30.7,0,0,0-19.2-6.7c-16,0-26.5,8.4-32.1,23.2l-1.1-.7c-7.5-6.9-16.1-9-25.6-5.2a22.64,22.64,0,0,0-15.7,20.8c-.4,5.2-.2,10.6-.2,16.1a23.72,23.72,0,0,0,9,18.5,5.46,5.46,0,0,1,2.4,5,1.86,1.86,0,0,1-1.6,2.09h-.1c-3.4.7-6.5,1.5-9.7,2.2A25.92,25.92,0,0,0,0,147v22.8c0,3.9,1.1,5.2,5.2,5.2h28v9.7a4.57,4.57,0,0,0,2.6,5l42.6.2c2.2-1.3,3.2-2.6,2.6-4.5s-1.9-2.8-4.7-2.8H61.12V166.1a3.52,3.52,0,0,0-3.56-3.5h-.34a3.74,3.74,0,0,0-3.4,4.05V182.4h-13c.2-7.3-.2-14.6.9-21.7,1.9-11,8.8-17.9,19.6-20.9,6.2-1.7,12.3-3,18.7-4.5.9,1.9,1.7,3.5,2.4,5.4,3,6.7,6,13.5,8.8,20.2.7,1.7,1.7,3.2,3.9,3.2s3.2-1.5,3.7-3.2c3.5-8,7.1-15.9,10.5-23.9a2,2,0,0,1,2.44-1.43,1.74,1.74,0,0,1,.36.13c5.2,1.3,10.3,2.4,15.5,3.7,12.1,2.8,20.2,12,21.3,24.3.4,6.2,0,12.3,0,18.7H136V166.9c0-2.6-1.3-4.3-3.5-4.3s-3.7,1.5-3.7,4.3v15.7h-16.6c-2.1,0-3.9.2-4.9,2.4-.7,1.7-.2,3,2.1,4.9h44.3a4.91,4.91,0,0,0,2.6-5v-9.7h28.4a4.83,4.83,0,0,0,5-2.6V143.3C189.52,142.7,189.32,142.5,189.32,142.1Zm-60.9-69.5A17,17,0,0,1,145,61.8a17.21,17.21,0,0,1,16.3,17.7.7.7,0,0,1-.2.4v-.2c-11,.6-21.9.4-31.8-5.2C128.42,74.3,128,73.9,128.42,72.6Zm-.9,9.4c10.8,5.6,22.2,5.8,33.8,5.4h0c1.7,10.6-3.5,19.4-13.1,21.7a8.62,8.62,0,0,1-2.2.4,17,17,0,0,1-18.5-15.3c-.2-4,0-7.9,0-12.2Zm-49-29.6a24.46,24.46,0,0,1,27.3-3.5,25.18,25.18,0,0,1,14.2,23l-12.3-7.1c-3.4-2.1-4.3-1.9-6.9.9a27.29,27.29,0,0,1-18.5,9c-4.1.2-8.2,0-12.5,0C69,65.9,71.62,58.2,78.52,52.4ZM38.92,62.9a16.9,16.9,0,0,1,21.93,9.53,1.22,1.22,0,0,1,.07.17c0,.2.2.2.2.4a1.74,1.74,0,0,1-.9,1.9,44.2,44.2,0,0,1-21.1,5.4h-11v-.2A17,17,0,0,1,38.92,62.9ZM28.12,93.4v-6c11.8.4,23.2.2,34-5.4-.4,6.2.9,11.8-1.5,17.4a17.29,17.29,0,0,1-14.9,10.3A16.85,16.85,0,0,1,28.13,93.63C28.13,93.55,28.12,93.48,28.12,93.4ZM40,144.7a35.24,35.24,0,0,0-6.9,21.9,1.37,1.37,0,0,1-.2.9H22.12V150.3a3.71,3.71,0,0,0-7.3,1.3v15.9H7.52V147.1a18.17,18.17,0,0,1,14.8-18.7c3.5-.9,7.3-1.7,11-2.6,2.4,5.8,4.9,11.6,7.1,17.6A2,2,0,0,1,40,144.7Zm5.1-10.2c-1.9-6-6.5-11-5.6-17.7h11C51.62,123.4,46.92,128.5,45.12,134.5Zm25.6-5.3-17.2,4.5,3.4-8.2,13.6,3.4v.4h.2Zm7.2-5c-6-3.4-12.5-4.1-18.7-5.8a3.07,3.07,0,0,1-1.3-1.5,4.47,4.47,0,0,1,2.2-5.2c2.1-1.5,4.1-3,6.2-4.7v-.2a31.32,31.32,0,0,0,11,11.6,2,2,0,0,1,.6,1.5Zm24.7,8.6c-2.6,5.2-4.7,10.5-7.1,15.9-.2.6-.6,1.1-.9,2.1a8.91,8.91,0,0,1-.9-1.7c-2.6-6-5.4-11.8-7.7-17.7-1.1-2.6-.7-5.8-1.1-9.2h0a34.92,34.92,0,0,0,18.7.2c.1,3.5.7,7-1,10.4ZM92.32,116a25.27,25.27,0,0,1-22.8-24.7v-9h5.8c11.2.6,21.3-2.1,29.7-10.3,4.9,2.8,9.5,5.6,14.4,8.4a1.25,1.25,0,0,1,.6,1.1c-.2,5.2.2,10.8-.9,15.9A25.3,25.3,0,0,1,92.32,116Zm19.1,7.4v-3.7c0-.6.4-.9.7-1.3a32.31,32.31,0,0,0,11.4-12.1,79.31,79.31,0,0,1,7.3,6.9c.9.9.6,3.2.7,4.7Zm7.3,6v-.6l13.6-3.4,3.4,8.2Zm25.4,4.9c-1.7-4.1-3.5-8-5-12a16.08,16.08,0,0,1-.4-5.4h11.2C150.82,123.4,146.12,128.5,144.12,134.3Zm38.1,31.5c0,.4-.2.9-.2,1.5h-6.2c-.4,0-.9-.9-.9-1.5V152.4a8.13,8.13,0,0,0-.2-2.2,3.36,3.36,0,0,0-3.83-2.81h-.07a3.67,3.67,0,0,0-3.4,3.5v16.4h-11c-.4-3-.4-5.8-.9-8.8a34.65,34.65,0,0,0-5.8-13.5,2.32,2.32,0,0,1-.6-2.1c2.4-5.8,4.9-11.6,7.3-17.7a128.72,128.72,0,0,1,14.8,4.1,17,17,0,0,1,11,16.3Z" transform="translate(-0.01 0)" fill="#7f211f"/></svg>