<svg id="Layer_1" data-name="Layer 1" xmlns="http://www.w3.org/2000/svg" viewBox="0 0 228 228"><rect x="1.5" y="1.5" width="225" height="225" rx="85" fill="#190707" stroke="#666" stroke-miterlimit="10" stroke-width="3"/><path d="M97.23,83.76Z" transform="translate(1.5 1.5)" fill="#bdc3c7"/><path d="M94.52,152.41c0-.17-.11-.28-.11-.45a68.29,68.29,0,0,1-1.55-16.37c.12-1.83-.71-2.55-2.54-2.55H74.94V121.59a5,5,0,0,0-4.65-4.92,1.73,1.73,0,0,0-1.93,1.38,1.63,1.63,0,0,0,1.33,1.77c1.66.45,1.93.72,1.93,2.44V142a4.62,4.62,0,0,1-.11,1.22c-.5,3-.94,5.92-1.49,8.9-.17,1.22.16,2,1.22,2.27s1.82-.44,2-1.66c.44-2.43.88-4.81,1.21-7.24.11-.72.34-.89,1-.89H89.05c.72,0,.94.28,1,.89.33,2.43.77,5,1.22,7.41V153a1.64,1.64,0,0,0,1.82,1.33h.11A1.66,1.66,0,0,0,94.52,152.41ZM89.6,141.18H74.94v-4.82H89.66v4.82Z" transform="translate(1.5 1.5)" fill="#bdc3c7"/><path d="M156.87,118.22a1.87,1.87,0,0,0-2-1.49,4.94,4.94,0,0,0-4.54,5V133H135.29c-2.54,0-3,.5-3,3.05a50.71,50.71,0,0,1-.11,7.08c-.33,3-.94,6-1.49,9-.17,1.17.27,2,1.32,2.22s1.78-.45,1.94-1.66c.44-2.44.89-4.82,1.22-7.25.11-.72.33-.94,1.16-.94h13.28c.77,0,1.05.17,1.16.94.33,2.43.77,4.92,1.21,7.36v.27a1.61,1.61,0,0,0,1.94,1.22H154a1.75,1.75,0,0,0,1.22-2c-.11-.5-.17-1-.28-1.55-.44-2.82-1.21-5.59-1.21-8.41-.17-6.75-.12-13.55-.12-20.3,0-1.38.45-1.82,1.77-2.1a1.67,1.67,0,0,0,1.55-1.55A.37.37,0,0,1,156.87,118.22Zm-6.64,23h-14.6v-4.82h14.6Z" transform="translate(1.5 1.5)" fill="#bdc3c7"/><path d="M160.24,82.87c-13.27-3.6-26.61-7.25-39.88-11-3.6-1-7.25-1.77-11-1-2.43.44-4.92,1.16-7.36,1.82-12.67,3.49-25.44,7-38.22,10.51A4.82,4.82,0,0,0,60,88.13v1.93a4.88,4.88,0,0,0,5.25,5.26c7.36,0,14.88.11,22.18,0,1,0,1.22-.72,2.27-.94a9.88,9.88,0,0,1,2.55,0,3.14,3.14,0,0,0,2.6.94h15.82v31.14H95c-1.33,0-2.1.72-2.1,1.66s.77,1.55,2.1,1.55h12.67v1.66a4.89,4.89,0,0,0,2.6,4.37,1.24,1.24,0,0,1,.72,1.22c0,2.26-.11,4.53,0,6.8,0,.72-.17.94-.89,1.22a8.24,8.24,0,0,0-5.69,6.75c0,.27-.11.49-.11.77a1.66,1.66,0,1,0,3.31.22c.28-2.38,1.39-4,3.32-4.48v4c0,1.38.61,2.1,1.66,2.1s1.55-.72,1.55-2.1V148a4.87,4.87,0,0,1,3.21,4.37c.11,1.32.72,1.93,1.77,1.82s1.55-.77,1.49-2.1a8,8,0,0,0-4.81-7c-.5-.28-1.16-.44-1.77-.72,0-2.71-.11-5.42,0-8a1.72,1.72,0,0,1,.61-.89,5,5,0,0,0,2.6-4.48V129.5h13.11A1.64,1.64,0,0,0,132,128h0a1.65,1.65,0,0,0-1.66-1.65H114.16V95.37h1.22c4.92,0,9.79.11,14.77,0,1-.11,1.16-.61,2.21-.88a12.61,12.61,0,0,1,2.88,0c.88.27.88.88,1.77.88h23.07a4.94,4.94,0,0,0,4.64-3.32,3.57,3.57,0,0,1,.28-.61V86.91C164.28,84.64,162.62,83.48,160.24,82.87ZM110,74.9a4.09,4.09,0,0,1,4.93-.27c4.48,3,8.9,5.92,13.55,9.07H97.29c3.15-2.1,6.14-4.09,9-6.2C107.52,76.73,108.69,75.79,110,74.9ZM89.6,90.56c0,.88-.72,1.38-1.77,1.38H65.7c-1.82,0-2.38-.44-2.38-2.27,0-2.6,0-2.6,2.6-2.6H89.55A26,26,0,0,1,89.6,90.56Zm1.22-6.92c-2.27.72-4.81.17-7.25.17h-9v-.28l27.88-7.63.12.17c-1.83,1.21-3.77,2.54-5.59,3.76C95,81.21,93,83,90.82,83.64Zm22.68,49.07a1.75,1.75,0,0,1-1.66,0c-1.16-.61-.72-1.82-.78-2.87h3.21C114.16,130.94,114.6,132.21,113.5,132.71Zm18.81-42.32v.17a1.53,1.53,0,0,1-1.66,1.49H95.3c-1.94,0-2.38-.44-2.38-2.38V87.13h39.33v3.26Zm29.43-.16c0,1.33-.61,1.93-1.94,1.93H137.67c-1.66,0-2.21-.49-2.21-2.1V87.24h1.77a1.49,1.49,0,0,0,1.49-1.55A1.52,1.52,0,0,0,137.51,84a1.67,1.67,0,0,0-.72-.11c-1.83.28-3.21-.44-4.7-1.49-2.6-1.94-5.32-3.65-8-5.42a3.24,3.24,0,0,1-.71-.72l27.27,7.41V84H144c-1.16.11-1.94.78-1.94,1.77s.72,1.55,1.94,1.55h12.78c1.33,0,2.6.11,4,0,.71,0,.94.28.94.94v1.94Z" transform="translate(1.5 1.5)" fill="#bdc3c7"/></svg>