<svg id="Layer_1" data-name="Layer 1" xmlns="http://www.w3.org/2000/svg" viewBox="0 0 228 228"><rect x="1.5" y="1.5" width="225" height="225" rx="85" fill="#190707" stroke="#666" stroke-miterlimit="10" stroke-width="3"/><path d="M87.3,113.74v.11a2.83,2.83,0,0,1-2.73,2.93h-.16a17.77,17.77,0,0,1-2.42,0,16.33,16.33,0,0,1-2.32,0,3,3,0,0,1-2.89-2.88v-.11a2.79,2.79,0,0,1,2.89-2.73h4.69A2.9,2.9,0,0,1,87.3,113.74Z" transform="translate(1.5 1.5)" fill="#bdc3c7"/><path d="M87.3,125.24h0a2.81,2.81,0,0,1-2.63,3h-.1a22.21,22.21,0,0,1-2.58,0H79.67a3,3,0,0,1-2.89-2.89v-.1a2.86,2.86,0,0,1,2.89-2.79h4.74A2.93,2.93,0,0,1,87.3,125.24Z" transform="translate(1.5 1.5)" fill="#bdc3c7"/><path d="M92.09,114v0a2.78,2.78,0,0,1,2.78-2.79h4.8a2.89,2.89,0,0,1,2.88,2.74,2.75,2.75,0,0,1-2.73,2.93h0a20.19,20.19,0,0,1-2.58,0h0a16.19,16.19,0,0,1-2.31,0A2.73,2.73,0,0,1,92.09,114Z" transform="translate(1.5 1.5)" fill="#bdc3c7"/><path d="M94.36,128.17a2.54,2.54,0,0,1-2.27-2.93v-.11a2.73,2.73,0,0,1,2.63-2.57h5.15a3,3,0,0,1,2.73,2.57,2.63,2.63,0,0,1-2.26,3h0A37.3,37.3,0,0,1,94.36,128.17Z" transform="translate(1.5 1.5)" fill="#bdc3c7"/><path d="M107.24,113.9h0a3,3,0,0,1,2.94-2.79h4.64a2.86,2.86,0,0,1,2.89,2.79,2.92,2.92,0,0,1-2.74,2.88,20,20,0,0,1-2.57,0h0a16.33,16.33,0,0,1-2.32,0A2.84,2.84,0,0,1,107.24,113.9Z" transform="translate(1.5 1.5)" fill="#bdc3c7"/><path d="M107.24,125.39h0a2.77,2.77,0,0,1,2.94-2.78h4.69a2.86,2.86,0,0,1,.16,5.72,19.7,19.7,0,0,1-2.43,0h-2.32A3.06,3.06,0,0,1,107.24,125.39Z" transform="translate(1.5 1.5)" fill="#bdc3c7"/><path d="M130.44,138.53a2.89,2.89,0,0,1-3,2H97.5a2.85,2.85,0,0,1-.51-5.67H127.5A2.83,2.83,0,0,1,130.44,138.53Z" transform="translate(1.5 1.5)" fill="#bdc3c7"/><path d="M132.91,125.13a2.63,2.63,0,0,1-2.27,3h-.1a36.07,36.07,0,0,1-5.88,0,2.66,2.66,0,0,1-2.26-3h0a2.78,2.78,0,0,1,2.73-2.57h5.15A2.73,2.73,0,0,1,132.91,125.13Z" transform="translate(1.5 1.5)" fill="#bdc3c7"/><path d="M133,113.79V114a2.84,2.84,0,0,1-2.73,2.94h-.1a20.52,20.52,0,0,1-2.48,0h-2.32a2.87,2.87,0,0,1-2.93-2.79V114a2.76,2.76,0,0,1,2.78-2.78h4.74A2.7,2.7,0,0,1,133,113.79Z" transform="translate(1.5 1.5)" fill="#bdc3c7"/><path d="M148.22,113.79h0a2.9,2.9,0,0,1-2.79,3h0a17.77,17.77,0,0,1-2.42,0h-2.32a3,3,0,0,1-2.94-2.78V114a2.77,2.77,0,0,1,2.79-2.78h4.74A2.74,2.74,0,0,1,148.22,113.79Z" transform="translate(1.5 1.5)" fill="#bdc3c7"/><path d="M148.22,125A2.53,2.53,0,0,1,146.1,128a44.72,44.72,0,0,1-6.34,0,2.57,2.57,0,0,1-2-3,2.73,2.73,0,0,1,2.58-2.48h5.31A3.13,3.13,0,0,1,148.22,125Z" transform="translate(1.5 1.5)" fill="#bdc3c7"/><path d="M161.31,113.74a20,20,0,0,0-20.26-17.52H82.56c0-1.86-.11-3.71,0-5.52a2.8,2.8,0,0,1,2.62-2.57,6,6,0,0,1,1.4-.11h52.93a9.48,9.48,0,0,0,1.7-.1,8.17,8.17,0,0,0,7.52-6.49,30.59,30.59,0,0,0,.16-7.17,2.85,2.85,0,0,0-1.39-1.85c-1.86-1.19-4.13.26-4.18,2.58v4.48a2.77,2.77,0,0,1-2.78,2.78H86.42a10.39,10.39,0,0,0-1.85.11A8.21,8.21,0,0,0,77,89.26a52.25,52.25,0,0,0-.26,7,1.24,1.24,0,0,1-.92,1.39,20,20,0,0,0-12.32,18.25v17.31A20,20,0,0,0,83.38,153h58.14a20.16,20.16,0,0,0,19.32-15.36c.26-.93.42-1.86.62-2.79V114.15C161.36,114.1,161.31,113.9,161.31,113.74Zm-5.57,19.18v.46a14.42,14.42,0,0,1-14.69,14.12H83.79A14.33,14.33,0,0,1,69.57,136a12.08,12.08,0,0,1-.31-3V116a14.26,14.26,0,0,1,14.53-14.12q28.77-.15,57.52,0h.41a14.32,14.32,0,0,1,14.12,14.53V133h-.1Z" transform="translate(1.5 1.5)" fill="#bdc3c7"/></svg>