<svg id="Layer_1" data-name="Layer 1" xmlns="http://www.w3.org/2000/svg" viewBox="0 0 228 228"><rect x="1.5" y="1.5" width="225" height="225" rx="85" fill="#190707" stroke="#666" stroke-miterlimit="10" stroke-width="3"/><path d="M138.07,132.92Zm0,0Zm0,0Zm0,0Zm0,0Z" transform="translate(1.5 1.5)" fill="#bdc3c7"/><path d="M70.49,75.88a2,2,0,0,1,1.56-2.33H73.4v-.11a4.58,4.58,0,0,1,1.24.21,1.94,1.94,0,0,1-.21,3.69,8.66,8.66,0,0,1-1.61.1A1.94,1.94,0,0,1,70.49,75.88Z" transform="translate(1.5 1.5)" fill="#bdc3c7"/><path d="M80,80c0,1.77-.57,2.6-1.82,2.7s-2-.78-2-2.54v-1a2,2,0,0,1,1.92-1.66C79.31,77.54,80,78.53,80,80Z" transform="translate(1.5 1.5)" fill="#bdc3c7"/><path d="M76.09,70.85c0-1.66.58-2.44,1.77-2.55s2,.78,2,2.24c.11,1.81-.57,2.9-1.92,2.9S76.09,72.51,76.09,70.85Z" transform="translate(1.5 1.5)" fill="#bdc3c7"/><path d="M80.25,76.19c-.57-1.45.46-2.59,2.54-2.59,1.82,0,2.91,1.09,2.44,2.54a1.89,1.89,0,0,1-2.13,1.35C81.91,77.34,80.77,77.44,80.25,76.19Z" transform="translate(1.5 1.5)" fill="#bdc3c7"/><path d="M100,70.54a1.81,1.81,0,0,1,.1-2.34,1.73,1.73,0,0,1,2.44-.31c1.15,1.09,2.34,2.23,3.38,3.37a4.31,4.31,0,0,1,.46,1.25c-.36.47-.67,1.14-1.14,1.35a2.06,2.06,0,0,1-1.92-.11A27.9,27.9,0,0,1,100,70.54Z" transform="translate(1.5 1.5)" fill="#bdc3c7"/><path d="M110.4,65.14a1.92,1.92,0,0,1,1.92-1.92h.11a1.88,1.88,0,0,1,1.81,1.92,1.91,1.91,0,0,1-1.92,1.92A2,2,0,0,1,110.4,65.14Z" transform="translate(1.5 1.5)" fill="#bdc3c7"/><path d="M113.73,158.41a1.86,1.86,0,0,1-.11,2.7l-.1.1-.57.37H111.7c-.21-.11-.36-.32-.57-.37a1.89,1.89,0,0,1-.67-2.59,1.81,1.81,0,0,1,2.59-.68A1,1,0,0,1,113.73,158.41Z" transform="translate(1.5 1.5)" fill="#bdc3c7"/><path d="M114.4,72.3v5.14a1.9,1.9,0,0,1-3.79,0V72.3a1.8,1.8,0,0,1,1.77-1.82h.2A2,2,0,0,1,114.4,72.3Z" transform="translate(1.5 1.5)" fill="#bdc3c7"/><path d="M118.76,71.26c.1-.21.31-.31.47-.46l2.9-2.91a1.64,1.64,0,0,1,2-.31,10.08,10.08,0,0,1,1.35,1.55,4.58,4.58,0,0,1-.89,1.56c-.88,1-1.76,1.82-2.69,2.7a1.92,1.92,0,0,1-2.7.47A1.71,1.71,0,0,1,118.76,71.26Z" transform="translate(1.5 1.5)" fill="#bdc3c7"/><path d="M139.52,75.41a1.79,1.79,0,0,1,1.56-1.76,5.2,5.2,0,0,1,1.76,0,1.81,1.81,0,0,1,1.82,1.82v.1a1.83,1.83,0,0,1-1.92,1.82h-.68a5.17,5.17,0,0,1-1.24-.11A1.71,1.71,0,0,1,139.52,75.41Z" transform="translate(1.5 1.5)" fill="#bdc3c7"/><path d="M148.55,79a5.63,5.63,0,0,1,0,1.92,1.85,1.85,0,0,1-1.92,1.76h-.15a2,2,0,0,1-1.77-1.92v-.57h0v-1a2.09,2.09,0,0,1,1.77-1.76A2.25,2.25,0,0,1,148.55,79Z" transform="translate(1.5 1.5)" fill="#bdc3c7"/><path d="M144.76,71c0-1,0-2,1.09-2.54a1.9,1.9,0,0,1,2.55.88c.1.1.1.31.2.36a2.73,2.73,0,0,1,.11,1c0,2.23-1.25,3.32-2.7,2.59A2.23,2.23,0,0,1,144.76,71Z" transform="translate(1.5 1.5)" fill="#bdc3c7"/><path d="M148.81,75.1a2,2,0,0,1,1.92-1.55c1.82-.11,2.7.31,3,1.24.47,1.46-.46,2.55-2.44,2.55C149.59,77.34,148.55,76.45,148.81,75.1Z" transform="translate(1.5 1.5)" fill="#bdc3c7"/><path d="M161.53,137a13.17,13.17,0,0,0-9.92-10.85c-1.81-.57-3.78-1-5.7-1.45a1.35,1.35,0,0,1-.78-.36,2.88,2.88,0,0,1,.78-2.91,11.65,11.65,0,0,0,4.93-8.72,76.88,76.88,0,0,0,0-9.6,17,17,0,0,0-.47-2.7,12.63,12.63,0,0,0-15.73-8.51,13.4,13.4,0,0,0-5.91,3.68,17.47,17.47,0,0,0-6-8.72,15.93,15.93,0,0,0-10-3.47c-8.31,0-13.76,4.36-16.66,12L95.51,95c-3.9-3.58-8.36-4.67-13.29-2.69a11.74,11.74,0,0,0-8.15,10.79c-.21,2.7-.1,5.5-.1,8.36a12.29,12.29,0,0,0,4.67,9.6,2.82,2.82,0,0,1,1.24,2.6,1,1,0,0,1-.88,1.09c-1.76.36-3.37.77-5,1.14a13.45,13.45,0,0,0-10.7,13.6v11.83c0,2,.58,2.7,2.7,2.7H80.51v5a2.37,2.37,0,0,0,1.35,2.6l22.11.1c1.14-.67,1.66-1.35,1.35-2.33s-1-1.46-2.44-1.46H95v-8.56a1.83,1.83,0,0,0-1.92-1.82H93a2,2,0,0,0-1.76,2.13v8.15H84.45c.1-3.79-.1-7.58.47-11.26,1-5.71,4.57-9.29,10.17-10.85,3.22-.88,6.39-1.56,9.71-2.34.46,1,.88,1.82,1.24,2.81,1.56,3.47,3.12,7,4.57,10.48.36.88.88,1.66,2,1.66a2,2,0,0,0,1.92-1.66c1.81-4.15,3.68-8.25,5.45-12.4a1,1,0,0,1,1.45-.68c2.7.68,5.34,1.25,8,1.92a13.85,13.85,0,0,1,11.06,12.61c.21,3.22,0,6.39,0,9.71h-6.7v-8c0-1.34-.67-2.23-1.81-2.23s-1.92.78-1.92,2.23V158h-8.62c-1.09,0-2,.11-2.54,1.25-.37.88-.11,1.56,1.09,2.54h23a2.53,2.53,0,0,0,1.35-2.59v-5h14.74a2.5,2.5,0,0,0,2.6-1.35V137.6C161.63,137.28,161.53,137.18,161.53,137ZM129.92,100.9a8.81,8.81,0,0,1,8.62-5.61,8.94,8.94,0,0,1,8.46,9.19.38.38,0,0,1-.11.21v-.11c-5.71.32-11.37.21-16.5-2.69C129.92,101.78,129.71,101.57,129.92,100.9Zm-.47,4.88c5.61,2.91,11.52,3,17.55,2.8h0c.88,5.5-1.82,10.07-6.8,11.26a4.23,4.23,0,0,1-1.15.21,8.83,8.83,0,0,1-9.6-7.94C129.35,110,129.45,108,129.45,105.78ZM104,90.41a12.7,12.7,0,0,1,14.17-1.81,13.06,13.06,0,0,1,7.37,11.94l-6.39-3.69c-1.76-1.09-2.23-1-3.58.47A14.16,14.16,0,0,1,106,102c-2.13.1-4.25,0-6.49,0A12.84,12.84,0,0,1,104,90.41ZM83.46,95.86a8.78,8.78,0,0,1,11.42,5c0,.1.11.1.11.21a.9.9,0,0,1-.47,1,22.87,22.87,0,0,1-11,2.81H77.86v-.11A8.84,8.84,0,0,1,83.46,95.86Zm-5.6,15.84v-3.12c6.12.21,12,.11,17.65-2.8-.21,3.22.46,6.12-.78,9A9,9,0,0,1,87,120.16,8.75,8.75,0,0,1,77.86,111.7ZM84,138.32a18.33,18.33,0,0,0-3.59,11.37.73.73,0,0,1-.1.47h-5.6v-8.93a1.92,1.92,0,1,0-3.79.67v8.26H67.17V139.57a9.43,9.43,0,0,1,7.68-9.71c1.82-.47,3.79-.88,5.71-1.35,1.24,3,2.54,6,3.68,9.14A1.09,1.09,0,0,1,84,138.32ZM86.68,133c-1-3.12-3.37-5.71-2.9-9.19h5.71C90.06,127.27,87.62,129.91,86.68,133ZM100,130.28,91,132.61l1.77-4.25,7.06,1.76v.21h.1Zm3.74-2.6c-3.12-1.76-6.49-2.13-9.71-3a1.61,1.61,0,0,1-.67-.78,2.32,2.32,0,0,1,1.14-2.7c1.09-.77,2.13-1.55,3.22-2.44v-.1a16.25,16.25,0,0,0,5.71,6,1.1,1.1,0,0,1,.31.78Zm12.82,4.47c-1.35,2.69-2.44,5.45-3.69,8.25-.1.31-.31.57-.46,1.09a4.51,4.51,0,0,1-.47-.88c-1.35-3.12-2.8-6.13-4-9.19-.57-1.35-.36-3-.57-4.78h0a18.09,18.09,0,0,0,9.71.11C117.1,128.56,117.41,130.38,116.53,132.15Zm-5.35-8.72a13.13,13.13,0,0,1-11.83-12.82v-4.68h3c5.81.32,11-1.09,15.41-5.34,2.55,1.45,4.93,2.9,7.48,4.36a.64.64,0,0,1,.31.57c-.1,2.7.1,5.6-.47,8.25A13.14,13.14,0,0,1,111.18,123.43Zm9.92,3.84v-1.92c0-.32.2-.47.36-.68a16.79,16.79,0,0,0,5.92-6.28,41.31,41.31,0,0,1,3.78,3.58c.47.47.32,1.66.37,2.44Zm3.78,3.11v-.31l7.06-1.77,1.77,4.26Zm13.19,2.54c-.88-2.12-1.82-4.15-2.6-6.22a8.42,8.42,0,0,1-.2-2.81h5.81C141.55,127.27,139.11,129.91,138.07,132.92Zm19.77,16.35c0,.21-.1.47-.1.78h-3.22c-.21,0-.47-.46-.47-.78v-7a4.4,4.4,0,0,0-.1-1.14,1.75,1.75,0,0,0-2-1.46,1.92,1.92,0,0,0-1.77,1.82v8.51h-5.71c-.21-1.55-.21-3-.46-4.57a17.89,17.89,0,0,0-3-7,1.22,1.22,0,0,1-.31-1.09c1.25-3,2.55-6,3.79-9.19a67.33,67.33,0,0,1,7.68,2.13,8.8,8.8,0,0,1,5.71,8.46Z" transform="translate(1.5 1.5)" fill="#bdc3c7"/></svg>