<svg id="Layer_1" data-name="Layer 1" xmlns="http://www.w3.org/2000/svg" viewBox="0 0 228 228"><rect x="1.5" y="1.5" width="225" height="225" rx="85" fill="#190707" stroke="#666" stroke-miterlimit="10" stroke-width="3"/><path d="M67.48,139a1.87,1.87,0,0,1-.17-1.75c1.32-1.21,2.79-2.25,4.16-3.29.11-.11.33,0,.77-.11.27.17.87.44.93.88a1.9,1.9,0,0,1-.27,1.53,35.56,35.56,0,0,1-3.89,3A1.45,1.45,0,0,1,67.48,139Z" transform="translate(1.5 1.5)" fill="#bdc3c7"/><path d="M78.32,151.36a10.73,10.73,0,0,1-.88,1.31c-1,.87-2.19,1.64-3.23,2.41A1.54,1.54,0,0,1,72,155a1.47,1.47,0,0,1,.33-2.08l.11-.11a35.19,35.19,0,0,1,3.23-2.41,2.18,2.18,0,0,1,1.64-.11C77.77,150.42,77.93,150.92,78.32,151.36Z" transform="translate(1.5 1.5)" fill="#bdc3c7"/><path d="M74.59,133.51a1.69,1.69,0,0,1,.5-2.19h.11L91.56,119a1.66,1.66,0,0,1,1.92-.28,4.94,4.94,0,0,1,.93,1.15,7.75,7.75,0,0,1-.93,1.32c-5.53,4.16-11,8.37-16.53,12.53a1.51,1.51,0,0,1-2.08.11C74.65,133.62,74.65,133.62,74.59,133.51Z" transform="translate(1.5 1.5)" fill="#bdc3c7"/><path d="M90.52,132.47l-27.2,20.69c-1.21.93-1.81.88-2.8-.27V152c.28-.33.61-.71.93-1q17.17-13.14,34.49-26.22a2.74,2.74,0,0,1,.6-.44,1.47,1.47,0,0,1,2,.27h0a1.39,1.39,0,0,1-.11,1.92.67.67,0,0,1-.28.16C95.72,128.58,93.1,130.5,90.52,132.47Z" transform="translate(1.5 1.5)" fill="#bdc3c7"/><path d="M103.44,131.37a1.39,1.39,0,0,1-.33,1.92h0c-1.31,1-2.68,2.08-4,3.12-5.75,4.33-11.38,8.65-17.13,13a14.94,14.94,0,0,1-1.64.94,5.27,5.27,0,0,1-1.15-.94,2.87,2.87,0,0,1,.16-1.53c.11-.33.49-.49.88-.71l20.09-15.44a5.13,5.13,0,0,1,1-.71A1.58,1.58,0,0,1,103.44,131.37Z" transform="translate(1.5 1.5)" fill="#bdc3c7"/><path d="M160.92,69.68a9.46,9.46,0,0,0-5.36.71c-2.85,1-5.09,3-7.34,4.93-2.79,2.35-5.53,4.76-8.32,7.17a2.79,2.79,0,0,1-3.23.77c-.44-.17-.93-.28-1.37-.44-6.35-2.36-12.64-4.76-19-7.12-3.45-1.31-6.85-2.41-10.3-3.61a4,4,0,0,0-3.55.49,13,13,0,0,0-4.16,4.49,3.15,3.15,0,0,0,.49,4.05,13.17,13.17,0,0,0,2.52,2.08c5.47,3.83,11,7.56,16.37,11.44,1.31,1,2.4,2.19,3.55,3.29-4.16,4-8.15,7.77-12.15,11.49a1.12,1.12,0,0,1-1,0c-1.64-.76-3.23-1.53-4.87-2.35a4.31,4.31,0,0,0-4.93.6c-.71.6-1.31,1.21-1.91,1.81-1.37,1.48-1.48,2.84-.28,4.43.88,1.15,1.75,2.19,2.57,3.23,3.56,4.49,7.12,9,10.73,13.52a4.37,4.37,0,0,0,5.2,1.48,6.49,6.49,0,0,0,3.13-7.33c-.33-1.48-.77-3-1.05-4.44a1.25,1.25,0,0,1,.33-1.2c4.16-3.29,8.38-6.57,12.81-10,.88,1.65,1.75,3.23,2.41,4.77l7.56,19.21a12.25,12.25,0,0,0,1.15,2.25,3,3,0,0,0,3.44,1.36c3.56-1,6.52-3.39,6.68-7.55a21.12,21.12,0,0,0-.16-3.23c-1.37-10.07-2.79-20.09-4.16-30.16a2.74,2.74,0,0,1,1-2.85c3.39-2.85,6.84-5.64,10.13-8.59A19.85,19.85,0,0,0,164.21,75a1.89,1.89,0,0,0,.16-.76C164.92,72.31,163.28,70,160.92,69.68Zm.27,6.13a17.39,17.39,0,0,1-4.65,6.57l-10.73,9.09a4.87,4.87,0,0,0-2,4.6c.49,4.32,1.15,8.59,1.75,12.91.88,6.52,1.81,12.92,2.58,19.38a4.87,4.87,0,0,1-3.62,5.7c-1.15.43-1.47.33-1.8-.77-2.08-5.47-4.16-10.84-6.13-16.26a46.62,46.62,0,0,0-6.08-11.71l-1.37,1c-4.93,3.83-9.8,7.55-14.72,11.27a2.08,2.08,0,0,0-.88,2.41c.49,1.92.93,3.83,1.37,5.7a3.41,3.41,0,0,1-.77,3.12c-1,1.2-2,1.15-3-.11L99.72,114a3.89,3.89,0,0,1-.44-.49c-.33-.6-1.2-1.53-1-1.81a9.26,9.26,0,0,1,2.41-2.19,1.53,1.53,0,0,1,1.31.28c1.92.87,3.84,1.8,5.7,2.79a2.09,2.09,0,0,0,2.52-.33c4.76-4.49,9.41-9,14.17-13.52a.11.11,0,0,0,.11-.11,19.22,19.22,0,0,0-6.73-7.34c-5.31-3.56-10.46-7.17-15.66-10.84-1.8-1.31-1.8-1.36-.43-3,2.24-2.79,2.79-3,6.13-1.64,9,3.4,18,6.73,26.93,10.07a9.43,9.43,0,0,0,3.45.72,5.19,5.19,0,0,0,3.61-1.54c3.61-3.23,7.34-6.35,11-9.41A11.33,11.33,0,0,1,158.4,73c.17,0,.28-.1.44-.1.93-.11,2-.28,2.68.49S161.52,75,161.19,75.81Z" transform="translate(1.5 1.5)" fill="#bdc3c7"/></svg>