<svg id="Layer_1" data-name="Layer 1" xmlns="http://www.w3.org/2000/svg" viewBox="0 0 228 228"><rect x="1.5" y="1.5" width="225" height="225" rx="85" fill="#190707" stroke="#666" stroke-miterlimit="10" stroke-width="3"/><path d="M112.36,100.69a18,18,0,0,0-18,17.9V119a17.93,17.93,0,1,0,18-18.28ZM97,118.59c.24-5.57,2.44-9.89,7-12.84a14.51,14.51,0,0,1,16.12-.28c4.93,2.81,7.27,7.26,7.55,13.12-.23-.09-.47-.14-.65-.23a6.63,6.63,0,0,0-6.33.52,4.11,4.11,0,0,1-4.69,0,6.58,6.58,0,0,0-7.36,0,3.76,3.76,0,0,1-4.22.14,7.25,7.25,0,0,0-7.41-.43Zm30.24,3.61a15.26,15.26,0,0,1-12.84,11.49c-.66.09-1.32.14-2,.23a15.51,15.51,0,0,1-14.77-11.29v-.1a1.23,1.23,0,0,1,.66-1.55,4.22,4.22,0,0,1,4.31,0,6.86,6.86,0,0,0,7.64,0,3.89,3.89,0,0,1,4.36,0,6.63,6.63,0,0,0,7.5,0,4,4,0,0,1,4.69.15A1,1,0,0,1,127.22,122.2Z" transform="translate(1.5 1.5)" fill="#bdc3c7"/><path d="M88.55,121.5a23.64,23.64,0,0,1,5-17.72c.75-1,1.69-1,2.3-.23a1.48,1.48,0,0,1-.23,1.87,20.9,20.9,0,0,0-4.22,9.42,21.34,21.34,0,1,0,8.34-13.45c-.61.42-1.17.75-1.87.28s-.75-1.55.14-2.25a23.94,23.94,0,0,1,37.88,14c.09.52.23,1,.28,1.5a24,24,0,0,1-20.35,27.38c-1.12.14-2.25.23-3.33.28A24,24,0,0,1,88.55,121.5Z" transform="translate(1.5 1.5)" fill="#bdc3c7"/><path d="M88.78,74.2a5.49,5.49,0,0,0-.19,11h.1a5.49,5.49,0,1,0,.09-11Zm-.09,8.39a2.92,2.92,0,0,1-3-2.81,2.89,2.89,0,0,1,2.82-3h0a3,3,0,0,1,3,2.9A2.9,2.9,0,0,1,88.69,82.59Zm14.9-8.39h-.14a5.49,5.49,0,1,0,5.63,5.49A5.56,5.56,0,0,0,103.59,74.2Zm2.82,5.58a2.91,2.91,0,0,1-2.82,2.91h-.09a2.91,2.91,0,0,1,0-5.82,2.79,2.79,0,0,1,2.91,2.91Zm29.86-5.58H121.36a3,3,0,0,0-2.81,3.09V82.5a3,3,0,0,0,3.14,2.76h15.09a3,3,0,0,0,2.77-3V77A3.14,3.14,0,0,0,136.27,74.2Zm.61,7.5c0,.66-.24.89-.89.89H122.11c-.75,0-1-.23-1-1V77.53c0-.61.23-.8.79-.8h14.16c.61,0,.75.24.75.75C136.88,78.94,136.88,80.3,136.88,81.7Zm-.61-7.5H121.36a3,3,0,0,0-2.81,3.09V82.5a3,3,0,0,0,3.14,2.76h15.09a3,3,0,0,0,2.77-3V77A3.14,3.14,0,0,0,136.27,74.2Zm.61,7.5c0,.66-.24.89-.89.89H122.11c-.75,0-1-.23-1-1V77.53c0-.61.23-.8.79-.8h14.16c.61,0,.75.24.75.75C136.88,78.94,136.88,80.3,136.88,81.7Zm-33.29-7.5h-.14a5.49,5.49,0,1,0,5.63,5.49A5.56,5.56,0,0,0,103.59,74.2Zm2.82,5.58a2.91,2.91,0,0,1-2.82,2.91h-.09a2.91,2.91,0,0,1,0-5.82,2.79,2.79,0,0,1,2.91,2.91ZM88.78,74.2a5.49,5.49,0,0,0-.19,11h.1a5.49,5.49,0,1,0,.09-11Zm-.09,8.39a2.92,2.92,0,0,1-3-2.81,2.89,2.89,0,0,1,2.82-3h0a3,3,0,0,1,3,2.9A2.9,2.9,0,0,1,88.69,82.59Zm61.69-4.31C150.28,72.33,146,68,140.2,68H84.7a9.75,9.75,0,0,0-3.28.51c-4.36,1.41-6.89,5.21-6.89,10v68.07a9.86,9.86,0,0,0,6,9.56,18.58,18.58,0,0,0,2.67.89H141.8c.89-.23,1.69-.51,2.53-.79,4.17-1.93,6.14-5.25,6.14-9.8V91.26C150.38,86.9,150.38,82.59,150.38,78.28Zm-2.77,67.32H137.2c-1,0-1.68.51-1.68,1.36s.61,1.26,1.68,1.26h10.27a7.3,7.3,0,0,1-6.84,6.09h-56a7.43,7.43,0,0,1-7.41-5.71,3,3,0,0,1-.09-.47h54.66a1.31,1.31,0,0,0,1.17-1.36v-.1a1.25,1.25,0,0,0-1.27-1.17H77V91.59h70.64Zm.1-57.66c0,.28-.1.51-.1.89H77a2.71,2.71,0,0,1-.1-.89V78.37c.1-4.78,3.19-7.87,8-7.87h54.94c4.74,0,7.93,3.14,7.93,7.87v9.57ZM136.27,74.2H121.36a3,3,0,0,0-2.81,3.09V82.5a3,3,0,0,0,3.14,2.76h15.09a3,3,0,0,0,2.77-3V77A3.14,3.14,0,0,0,136.27,74.2Zm.61,7.5c0,.66-.24.89-.89.89H122.11c-.75,0-1-.23-1-1V77.53c0-.61.23-.8.79-.8h14.16c.61,0,.75.24.75.75C136.88,78.94,136.88,80.3,136.88,81.7Zm-33.29-7.5h-.14a5.49,5.49,0,1,0,5.63,5.49A5.56,5.56,0,0,0,103.59,74.2Zm2.82,5.58a2.91,2.91,0,0,1-2.82,2.91h-.09a2.91,2.91,0,0,1,0-5.82,2.79,2.79,0,0,1,2.91,2.91ZM88.78,74.2a5.49,5.49,0,0,0-.19,11h.1a5.49,5.49,0,1,0,.09-11Zm-.09,8.39a2.92,2.92,0,0,1-3-2.81,2.89,2.89,0,0,1,2.82-3h0a3,3,0,0,1,3,2.9A2.9,2.9,0,0,1,88.69,82.59Zm.09-8.39a5.49,5.49,0,0,0-.19,11h.1a5.49,5.49,0,1,0,.09-11Zm-.09,8.39a2.92,2.92,0,0,1-3-2.81,2.89,2.89,0,0,1,2.82-3h0a3,3,0,0,1,3,2.9A2.9,2.9,0,0,1,88.69,82.59Zm14.9-8.39h-.14a5.49,5.49,0,1,0,5.63,5.49A5.56,5.56,0,0,0,103.59,74.2Zm2.82,5.58a2.91,2.91,0,0,1-2.82,2.91h-.09a2.91,2.91,0,0,1,0-5.82,2.79,2.79,0,0,1,2.91,2.91Zm29.86-5.58H121.36a3,3,0,0,0-2.81,3.09V82.5a3,3,0,0,0,3.14,2.76h15.09a3,3,0,0,0,2.77-3V77A3.14,3.14,0,0,0,136.27,74.2Zm.61,7.5c0,.66-.24.89-.89.89H122.11c-.75,0-1-.23-1-1V77.53c0-.61.23-.8.79-.8h14.16c.61,0,.75.24.75.75C136.88,78.94,136.88,80.3,136.88,81.7Zm-.61-7.5H121.36a3,3,0,0,0-2.81,3.09V82.5a3,3,0,0,0,3.14,2.76h15.09a3,3,0,0,0,2.77-3V77A3.14,3.14,0,0,0,136.27,74.2Zm.61,7.5c0,.66-.24.89-.89.89H122.11c-.75,0-1-.23-1-1V77.53c0-.61.23-.8.79-.8h14.16c.61,0,.75.24.75.75C136.88,78.94,136.88,80.3,136.88,81.7Zm-33.29-7.5h-.14a5.49,5.49,0,1,0,5.63,5.49A5.56,5.56,0,0,0,103.59,74.2Zm2.82,5.58a2.91,2.91,0,0,1-2.82,2.91h-.09a2.91,2.91,0,0,1,0-5.82,2.79,2.79,0,0,1,2.91,2.91ZM88.78,74.2a5.49,5.49,0,0,0-.19,11h.1a5.49,5.49,0,1,0,.09-11Zm-.09,8.39a2.92,2.92,0,0,1-3-2.81,2.89,2.89,0,0,1,2.82-3h0a3,3,0,0,1,3,2.9A2.9,2.9,0,0,1,88.69,82.59Z" transform="translate(1.5 1.5)" fill="#bdc3c7"/></svg>