<svg id="Layer_1" data-name="Layer 1" xmlns="http://www.w3.org/2000/svg" viewBox="0 0 190.2 176.2"><title>icon_7</title><path d="M187.3,112.87a2.08,2.08,0,0,0-2.1-1.9c-4.9-1.1-9.7-2.4-14.4-3.5-1.6-.3-2.1-.9-2.1-2.7a74.62,74.62,0,0,0-11.5-42.7,71.24,71.24,0,0,0-13.1-15.3L136.8,55a63.12,63.12,0,0,1,21,49.2l-11.9-3a56.68,56.68,0,0,0-3.2-16.8,51.41,51.41,0,0,0-8.5-14.9l-8.4,7a40.49,40.49,0,0,1,8.9,21.8c-3.6-.9-7-1.9-10.3-2.5a2.47,2.47,0,0,1-2.1-1.9,26.36,26.36,0,0,0-6.3-11.1,3.18,3.18,0,0,1-.8-3.8c5.7-19.9,11.5-39.9,17.2-59.6a2.19,2.19,0,0,0-.5-2.7,30.5,30.5,0,0,0-4.4-4.4,48.8,48.8,0,0,0-68.9,4.19l-.1.11a2.29,2.29,0,0,0-.6,2.8c1.4,4.9,2.8,9.8,4.3,14.7.3,1.3.2,1.7-.9,2.4a73,73,0,0,0-29.1,27.4,70.15,70.15,0,0,0-7.3,16.3l10.4,3.3a62.28,62.28,0,0,1,30.4-36.7c.9,3.5,1.7,6.8,2.8,10a.2.2,0,0,0,.2.2,1.86,1.86,0,0,1-.94,2.44l-.16.06a50.46,50.46,0,0,0-10.3,8.7l8.1,7.3,6.8-6c1.3,4,2.2,7.4,3.2,10.9a1.57,1.57,0,0,1-.5,1.7,30.78,30.78,0,0,0-7.1,12.2,2.39,2.39,0,0,1-.8,1.1c-3.8.9-7.4,1.9-11.2,2.8l-.5-.5,3.5-13-9.7-4.6a46.86,46.86,0,0,0-4.7,18.5v.2a2.19,2.19,0,0,1-1.86,2.48l-.34,0c-12.3,3-24.8,6.2-37.2,9.2a2.44,2.44,0,0,0-2.1,2.1c-.9,3.8-1.7,7.6-2.7,11.5l-.2,8.2c.6,3.3,1.3,6.6,2.2,9.8,6,18.4,18.4,29.9,37.3,34a2.87,2.87,0,0,0,2.2-.6c3.6-3.6,7.1-7.3,10.6-10.9a7.7,7.7,0,0,0,1.1-1.6,75.2,75.2,0,0,0,56.5,11.1,45,45,0,0,0-1.1-5.5c-.3-1.7-.8-3.5-1.1-5.4a65.11,65.11,0,0,1-23.7.3,61.18,61.18,0,0,1-22.1-8.7c2.7-2.7,5.2-5.4,7.8-7.9a2.56,2.56,0,0,1,2.1,0,51.45,51.45,0,0,0,22.1,5.7h1.3v-11.1a43.27,43.27,0,0,1-16.6-3.8A59.36,59.36,0,0,0,84,132c1.9-2.5,4.1-3,7.3-2.4a32.37,32.37,0,0,0,10.3-.3,3.35,3.35,0,0,1,3.3,1.1c14.4,14.9,28.6,29.7,42.9,44.6a3.3,3.3,0,0,0,3.5,1.1c21.7-4.3,36.5-23.1,38.6-42.9a3.18,3.18,0,0,1,.3-.9v-8.2A100.61,100.61,0,0,1,187.3,112.87ZM70.1,22.57a2.48,2.48,0,0,1,.9-3c13.4-11.2,34.8-11.1,48.1.3a2.67,2.67,0,0,1,.8,2.1c-5.1,17.6-10,35.3-15,52.8a82,82,0,0,0-10-1.1A64.77,64.77,0,0,0,85.2,75a9.71,9.71,0,0,1-.5-1.4C79.9,56.37,75,39.47,70.1,22.57Zm5.2,102.5c-12.3,12.7-24.5,25.3-36.7,38a2.48,2.48,0,0,1-3.2.6,38.44,38.44,0,0,1-23.9-41.1,2.79,2.79,0,0,1,2.4-2.7c17.1-4.1,34.2-8.4,51.4-12.7l1.6-.3c2.1,7.4,2.1,7.4,9.5,16.8A16.52,16.52,0,0,0,75.3,125.07Zm19.6-5.9A17.3,17.3,0,0,1,77.8,102v-.2a17.25,17.25,0,1,1,17.1,17.4Zm59,44.8a1.8,1.8,0,0,1-2.4-.5c-12.7-13.3-25.3-26.4-38-39.6-.2,0-.2-.2-.3-.5a28.6,28.6,0,0,0,9.5-16.6c2.5.6,5.1,1.3,7.6,1.7l45.6,11.4a2.4,2.4,0,0,1,2.2,2.4C181.3,139.57,170.4,158.27,153.9,164Z" transform="translate(0 0)" fill="#7f211f"/></svg>