<svg id="Layer_1" data-name="Layer 1" xmlns="http://www.w3.org/2000/svg" viewBox="0 0 228 228"><rect x="1.5" y="1.5" width="225" height="225" rx="85" fill="#190707" stroke="#666" stroke-miterlimit="10" stroke-width="3"/><path d="M157.05,113.19c-1.67-1.5-3.33-3.11-4.94-4.78a4.17,4.17,0,0,0-3.16-1.33H141a3.51,3.51,0,0,0-3.49,1.89,4.37,4.37,0,0,0-.45,2v9.87c0,2.44,1.39,3.88,3.94,3.88h13.93a3.69,3.69,0,0,0,1.11-.27,1.47,1.47,0,0,0,.22-.11,3.64,3.64,0,0,0,2-3.55v-4.33A3.93,3.93,0,0,0,157.05,113.19ZM140.79,120v-9.43h8.1a3.56,3.56,0,0,1,.94.33Zm14,1.16h-9.43l7.32-7.1C155.71,115.52,154.66,118.46,154.77,121.17Z" transform="translate(1.5 1.5)" fill="#bdc3c7"/><path d="M106.9,107.19H95.19c-2.44,0-3.77,1.39-3.77,3.89v9.76c0,2.55,1.39,3.94,3.94,3.94h11.43a3.57,3.57,0,0,0,3.93-3.88V111C110.78,108.47,109.34,107.19,106.9,107.19ZM94.91,120V110.8h9.16Zm12.26,1.22H99.8l7.37-7.37Z" transform="translate(1.5 1.5)" fill="#bdc3c7"/><path d="M162.59,108.86c-2.11-2.11-4.32-4.16-6.32-6.33a6.81,6.81,0,0,0-6-2.44,18.06,18.06,0,0,1-2.44,0c0-1.22.11-2.38,0-3.44v-.27a3.54,3.54,0,0,0-3.72-3.33h-2.39V82.51h18.7a1.87,1.87,0,0,0,1.39-1.39,1.81,1.81,0,0,0-1.39-2h-18a1,1,0,0,1-1.17-.88,8.83,8.83,0,0,0-16.75-.11,1.19,1.19,0,0,1-1.39.94H76.55c-1.77,0-2.66.61-2.66,1.77s.89,1.78,2.66,1.78H124v1.83c-.17,2.72.55,3.33,1.77,3.33,1.06,0,2-.33,1.78-3.27v-2h10.48V93.05h-7.49a3.57,3.57,0,0,0-3.93,3.88v3.16H74.11a5.71,5.71,0,0,0-4.66,2c-2.27,2.38-4.55,4.65-6.93,6.93a9,9,0,0,0-2.72,3.88V141.7c.17.28.28.61.44.89A5.13,5.13,0,0,0,65,145.86h8.82l.28,3.49H67.4c-1.61,0-2.39.56-2.39,1.78s.78,1.77,2.39,1.77h90.81a1.79,1.79,0,0,0,1.78-1.77,1.76,1.76,0,0,0-1.78-1.78H151l.28-3.49h8.43a4.54,4.54,0,0,0,3.88-1.61,17.52,17.52,0,0,0,1.61-2.83V112.85A8,8,0,0,0,162.59,108.86ZM128.37,79V79a.76.76,0,0,1-.45-.11,4.9,4.9,0,0,1,4.5-3.44,5.13,5.13,0,0,1,5.21,3.5ZM130.2,96.6h13.92v3.33h-14ZM65,142.36h-.16a1.75,1.75,0,0,1-1.61-1.77v-7.05h4.22a1.11,1.11,0,0,1,.72.34l7.93,7.93a3.37,3.37,0,0,1,.28.44C72.5,142.25,68.79,142.36,65,142.36ZM80,149a2.5,2.5,0,0,1-1.77.11c-1.33-.72-.89-1.94-1-3.17h3.44C80.66,147,81.21,148.24,80,149Zm1-7.33c-2.45-2.38-4.83-4.82-7.22-7.21-.27-.28-.55-.44-.77-.72l.16-.28a2.48,2.48,0,0,0,.89-.11H89.76a2.11,2.11,0,0,1,1.33.45c2.72,2.66,5.38,5.38,8,8,.11.12.16.28.27.34h-17A1.46,1.46,0,0,1,80.94,141.64Zm14.86-8.1,18.36-.11v8.82h-8.93a1.67,1.67,0,0,1-1.16-.44c-2.66-2.55-5.22-5.21-7.82-7.82C96.08,133.82,95.91,133.77,95.8,133.54Zm-11.59,15.7.28-3.33h56.14l.27,3.33Zm42.66-19.3H130v12.2H117.88V110.63H130v15.76h-3.11c-1.22,0-2,.61-2,1.77S125.54,129.94,126.87,129.94Zm20,19a2.06,2.06,0,0,1-1.78,0c-1.33-.73-.77-1.95-.88-3.17h3.49l.11.11C147.73,147.14,148.06,148.36,146.84,149Zm-13.2-6.77v-8.71c1.83,0,3.6.17,5.38,0a5.34,5.34,0,0,1,4.55,1.83c2.1,2.38,4.38,4.49,6.87,6.88Zm28.18-1.39a1.8,1.8,0,0,1-2,1.5h-.11c-1.39,0-2.89.33-4.05-.11s-2-1.78-3-2.72c-1.94-1.94-3.88-3.77-5.88-5.88h15Zm0-10.87H133.64V111.3c0-2.89-1.34-4.16-4.17-4.16H118.32c-2.71,0-4,1.33-4,4v18.75H63.35c0-.11-.11-.17-.11-.33V114a2,2,0,0,1,.61-1.38c2.72-2.72,5.38-5.55,8.15-8.16a3,3,0,0,1,1.78-.72,13.58,13.58,0,0,1,3,0H150.5a3.47,3.47,0,0,1,3,1.22c2.38,2.44,4.82,4.94,7.37,7.38a3.13,3.13,0,0,1,.95,2.27Z" transform="translate(1.5 1.5)" fill="#bdc3c7"/><path d="M87.93,110.41a3.53,3.53,0,0,0-3.72-3.27H75.83A4.3,4.3,0,0,0,73,108.3c-1.66,1.78-3.44,3.44-5.21,5.22a3.87,3.87,0,0,0-1.17,2.88v4.39c0,2.55,1.39,3.93,3.94,3.93H84.49A3.52,3.52,0,0,0,87.81,121c.12-3.39.12-6.77.12-10.15Zm-17.65,11v-5.1a3.7,3.7,0,0,1,.45-.78c1.5-1.5,3-2.88,4.49-4.38a1.26,1.26,0,0,1,.89-.45h5.6c-.28.34-.33.56-.55.73l-9.27,9.26A17.63,17.63,0,0,1,70.28,121.45Zm13.93-.28H76.89l7.32-7.32Z" transform="translate(1.5 1.5)" fill="#bdc3c7"/></svg>