<svg id="Layer_1" data-name="Layer 1" xmlns="http://www.w3.org/2000/svg" viewBox="0 0 162 190"><title>icon_5</title><path d="M80.7,69.8A38.35,38.35,0,0,0,42.4,108v.8a38.25,38.25,0,1,0,38.3-39ZM47.9,108c.5-11.9,5.2-21.1,14.9-27.4,11.2-7.1,23-7.4,34.4-.6,10.5,6,15.5,15.5,16.1,28-.5-.2-1-.3-1.4-.5a14.14,14.14,0,0,0-13.5,1.1,8.72,8.72,0,0,1-10,0,14,14,0,0,0-15.7,0,8,8,0,0,1-9,.3A15.46,15.46,0,0,0,47.9,108Zm64.5,7.7A32.57,32.57,0,0,1,85,140.2c-1.4.2-2.8.3-4.3.5a33.09,33.09,0,0,1-31.5-24.1v-.2a2.59,2.59,0,0,1,1.4-3.3,8.94,8.94,0,0,1,9.2,0,14.66,14.66,0,0,0,16.3,0,8.3,8.3,0,0,1,9.3,0,14.17,14.17,0,0,0,16,0,8.56,8.56,0,0,1,10,.3A2.17,2.17,0,0,1,112.4,115.7Z" transform="translate(0 0)" fill="#7f211f"/><path d="M29.9,114.2A50.44,50.44,0,0,1,40.5,76.4c1.6-2.1,3.6-2.2,4.9-.5a3.17,3.17,0,0,1-.5,4,44.69,44.69,0,0,0-9,20.1c-4.7,24.9,13.1,49.7,38.2,53A45.54,45.54,0,1,0,53.7,71.3c-1.3.9-2.5,1.6-4,.6-1.7-1.1-1.6-3.3.3-4.8a51,51,0,0,1,80.8,29.8c.2,1.1.5,2.1.6,3.2C136,128,115.9,154.9,88,158.5c-2.4.3-4.8.5-7.1.6A51.17,51.17,0,0,1,29.9,114.2Z" transform="translate(0 0)" fill="#7f211f"/><path d="M30.4,13.3A11.7,11.7,0,1,0,30,36.7h.2a11.7,11.7,0,1,0,.2-23.4Zm-.2,17.9a6.22,6.22,0,0,1-6.3-6,6.15,6.15,0,0,1,6-6.3h0a6.39,6.39,0,0,1,6.3,6.2A6.17,6.17,0,0,1,30.2,31.2ZM62,13.3h-.3a11.75,11.75,0,1,0,.3,0Zm6,11.9a6.18,6.18,0,0,1-6,6.2h-.2a6.2,6.2,0,1,1,0-12.4A5.93,5.93,0,0,1,68,24.65,5,5,0,0,1,68,25.2Zm63.7-11.9H99.9a6.34,6.34,0,0,0-6,6.6V31a6.36,6.36,0,0,0,6.7,5.9h32.2a6.31,6.31,0,0,0,5.9-6.5V19.3A6.69,6.69,0,0,0,131.7,13.3Zm1.3,16c0,1.4-.5,1.9-1.9,1.9H101.5c-1.6,0-2.1-.5-2.1-2.1V20.4c0-1.3.5-1.7,1.7-1.7h30.2c1.3,0,1.6.5,1.6,1.6C133,23.4,133,26.3,133,29.3Zm-1.3-16H99.9a6.34,6.34,0,0,0-6,6.6V31a6.36,6.36,0,0,0,6.7,5.9h32.2a6.31,6.31,0,0,0,5.9-6.5V19.3A6.69,6.69,0,0,0,131.7,13.3Zm1.3,16c0,1.4-.5,1.9-1.9,1.9H101.5c-1.6,0-2.1-.5-2.1-2.1V20.4c0-1.3.5-1.7,1.7-1.7h30.2c1.3,0,1.6.5,1.6,1.6C133,23.4,133,26.3,133,29.3Zm-71-16h-.3a11.75,11.75,0,1,0,.3,0Zm6,11.9a6.18,6.18,0,0,1-6,6.2h-.2a6.2,6.2,0,1,1,0-12.4A5.93,5.93,0,0,1,68,24.65,5,5,0,0,1,68,25.2ZM30.4,13.3A11.7,11.7,0,1,0,30,36.7h.2a11.7,11.7,0,1,0,.2-23.4Zm-.2,17.9a6.22,6.22,0,0,1-6.3-6,6.15,6.15,0,0,1,6-6.3h0a6.39,6.39,0,0,1,6.3,6.2A6.17,6.17,0,0,1,30.2,31.2ZM161.8,22c-.2-12.7-9.3-22-21.7-22H21.7a20.56,20.56,0,0,0-7,1.1C5.4,4.1,0,12.2,0,22.5V167.7C0,177,4.1,184,12.7,188.1a42.33,42.33,0,0,0,5.7,1.9H143.5c1.9-.5,3.6-1.1,5.4-1.7,8.9-4.1,13.1-11.2,13.1-20.9V49.7C161.8,40.4,161.8,31.2,161.8,22Zm-5.9,143.6H133.7c-2.2,0-3.6,1.1-3.6,2.9s1.3,2.7,3.6,2.7h21.9c-.8,6.8-7.3,12.7-14.6,13H21.5A15.87,15.87,0,0,1,5.7,172a5.71,5.71,0,0,1-.2-1H122.1a2.76,2.76,0,0,0,2.5-2.9v-.2a2.65,2.65,0,0,0-2.7-2.5H5.2V50.4H155.9Zm.2-123c0,.6-.2,1.1-.2,1.9H5.2A6.09,6.09,0,0,1,5,42.6V22.2C5.2,12,11.8,5.4,22,5.4H139.2c10.1,0,16.9,6.7,16.9,16.8V42.6ZM131.7,13.3H99.9a6.34,6.34,0,0,0-6,6.6V31a6.36,6.36,0,0,0,6.7,5.9h32.2a6.31,6.31,0,0,0,5.9-6.5V19.3A6.69,6.69,0,0,0,131.7,13.3Zm1.3,16c0,1.4-.5,1.9-1.9,1.9H101.5c-1.6,0-2.1-.5-2.1-2.1V20.4c0-1.3.5-1.7,1.7-1.7h30.2c1.3,0,1.6.5,1.6,1.6C133,23.4,133,26.3,133,29.3Zm-71-16h-.3a11.75,11.75,0,1,0,.3,0Zm6,11.9a6.18,6.18,0,0,1-6,6.2h-.2a6.2,6.2,0,1,1,0-12.4A5.93,5.93,0,0,1,68,24.65,5,5,0,0,1,68,25.2ZM30.4,13.3A11.7,11.7,0,1,0,30,36.7h.2a11.7,11.7,0,1,0,.2-23.4Zm-.2,17.9a6.22,6.22,0,0,1-6.3-6,6.15,6.15,0,0,1,6-6.3h0a6.39,6.39,0,0,1,6.3,6.2A6.17,6.17,0,0,1,30.2,31.2Zm.2-17.9A11.7,11.7,0,1,0,30,36.7h.2a11.7,11.7,0,1,0,.2-23.4Zm-.2,17.9a6.22,6.22,0,0,1-6.3-6,6.15,6.15,0,0,1,6-6.3h0a6.39,6.39,0,0,1,6.3,6.2A6.17,6.17,0,0,1,30.2,31.2ZM62,13.3h-.3a11.75,11.75,0,1,0,.3,0Zm6,11.9a6.18,6.18,0,0,1-6,6.2h-.2a6.2,6.2,0,1,1,0-12.4A5.93,5.93,0,0,1,68,24.65,5,5,0,0,1,68,25.2Zm63.7-11.9H99.9a6.34,6.34,0,0,0-6,6.6V31a6.36,6.36,0,0,0,6.7,5.9h32.2a6.31,6.31,0,0,0,5.9-6.5V19.3A6.69,6.69,0,0,0,131.7,13.3Zm1.3,16c0,1.4-.5,1.9-1.9,1.9H101.5c-1.6,0-2.1-.5-2.1-2.1V20.4c0-1.3.5-1.7,1.7-1.7h30.2c1.3,0,1.6.5,1.6,1.6C133,23.4,133,26.3,133,29.3Zm-1.3-16H99.9a6.34,6.34,0,0,0-6,6.6V31a6.36,6.36,0,0,0,6.7,5.9h32.2a6.31,6.31,0,0,0,5.9-6.5V19.3A6.69,6.69,0,0,0,131.7,13.3Zm1.3,16c0,1.4-.5,1.9-1.9,1.9H101.5c-1.6,0-2.1-.5-2.1-2.1V20.4c0-1.3.5-1.7,1.7-1.7h30.2c1.3,0,1.6.5,1.6,1.6C133,23.4,133,26.3,133,29.3Zm-71-16h-.3a11.75,11.75,0,1,0,.3,0Zm6,11.9a6.18,6.18,0,0,1-6,6.2h-.2a6.2,6.2,0,1,1,0-12.4A5.93,5.93,0,0,1,68,24.65,5,5,0,0,1,68,25.2ZM30.4,13.3A11.7,11.7,0,1,0,30,36.7h.2a11.7,11.7,0,1,0,.2-23.4Zm-.2,17.9a6.22,6.22,0,0,1-6.3-6,6.15,6.15,0,0,1,6-6.3h0a6.39,6.39,0,0,1,6.3,6.2A6.17,6.17,0,0,1,30.2,31.2Z" transform="translate(0 0)" fill="#7f211f"/></svg>