<svg id="Layer_1" data-name="Layer 1" xmlns="http://www.w3.org/2000/svg" viewBox="0 0 190 157.22"><title>icon_6</title><path d="M46.1,81v.2a5.49,5.49,0,0,1-5.27,5.7H40.5a36.85,36.85,0,0,1-4.7,0,33.79,33.79,0,0,1-4.5,0,5.71,5.71,0,0,1-5.6-5.6v-.2a5.39,5.39,0,0,1,5.5-5.3h9.2A5.61,5.61,0,0,1,46.1,81Z" transform="translate(0 0)" fill="#7f211f"/><path d="M46.1,103.32h0a5.45,5.45,0,0,1-5,5.89H40.8a41.7,41.7,0,0,1-5,0H31.3a5.71,5.71,0,0,1-5.6-5.6v-.2A5.54,5.54,0,0,1,31.3,98h9.2A5.66,5.66,0,0,1,46.1,103.32Z" transform="translate(0 0)" fill="#7f211f"/><path d="M55.4,81.42v-.1a5.38,5.38,0,0,1,5.36-5.4H70.1a5.6,5.6,0,0,1,5.6,5.3,5.36,5.36,0,0,1-5,5.69H70.4a41.7,41.7,0,0,1-5,0h0a33.79,33.79,0,0,1-4.5,0,5.3,5.3,0,0,1-5.5-5.09A2.81,2.81,0,0,1,55.4,81.42Z" transform="translate(0 0)" fill="#7f211f"/><path d="M59.8,109a5,5,0,0,1-4.42-5.52,1.1,1.1,0,0,1,0-.18v-.2a5.31,5.31,0,0,1,5.1-5h10a5.76,5.76,0,0,1,5.3,5A5.13,5.13,0,0,1,71.57,109l-.17,0h0A74.87,74.87,0,0,1,59.8,109Z" transform="translate(0 0)" fill="#7f211f"/><path d="M84.8,81.32h0a5.79,5.79,0,0,1,5.7-5.4h9a5.54,5.54,0,0,1,5.6,5.4,5.66,5.66,0,0,1-5.3,5.6,41.7,41.7,0,0,1-5,0h0a33.79,33.79,0,0,1-4.5,0,5.51,5.51,0,0,1-5.5-5.52Z" transform="translate(0 0)" fill="#7f211f"/><path d="M84.8,103.62h0a5.38,5.38,0,0,1,5.35-5.41H99.6a5.55,5.55,0,1,1,.3,11.1h0a36.85,36.85,0,0,1-4.7,0H90.7A6,6,0,0,1,84.8,103.62Z" transform="translate(0 0)" fill="#7f211f"/><path d="M129.8,129.12a5.59,5.59,0,0,1-5.9,3.8h-58a5.52,5.52,0,1,1-1-11h59.2C128.3,121.92,131.1,125.42,129.8,129.12Z" transform="translate(0 0)" fill="#7f211f"/><path d="M134.6,103.12a5.13,5.13,0,0,1-4.23,5.88l-.17,0H130a72.31,72.31,0,0,1-11.4,0,5.18,5.18,0,0,1-4.4-5.87v0h0a5.42,5.42,0,0,1,5.3-5h10A5.31,5.31,0,0,1,134.6,103.12Z" transform="translate(0 0)" fill="#7f211f"/><path d="M134.7,81.12v.3a5.49,5.49,0,0,1-5.27,5.7h-.23a38.44,38.44,0,0,1-4.8,0h-4.5a5.58,5.58,0,0,1-5.7-5.4v-.2a5.38,5.38,0,0,1,5.36-5.4h9.24a5.25,5.25,0,0,1,5.86,4.58C134.68,80.84,134.69,81,134.7,81.12Z" transform="translate(0 0)" fill="#7f211f"/><path d="M164.3,81.12h0A5.62,5.62,0,0,1,159,87h-.07a36.85,36.85,0,0,1-4.7,0h-4.5a5.71,5.71,0,0,1-5.7-5.4v-.2a5.38,5.38,0,0,1,5.36-5.4h9.24A5.33,5.33,0,0,1,164.29,81C164.29,81,164.3,81.07,164.3,81.12Z" transform="translate(0 0)" fill="#7f211f"/><path d="M164.3,102.92c.3,2.7-1.4,5.6-4.1,5.7a84.16,84.16,0,0,1-12.3,0c-2.7-.3-4.2-3-3.9-5.9a5.26,5.26,0,0,1,5-4.8h10.3A6.05,6.05,0,0,1,164.3,102.92Z" transform="translate(0 0)" fill="#7f211f"/><path d="M189.7,81c-3-20.2-19-34-39.3-34H36.9c0-3.6-.2-7.2,0-10.7a5.47,5.47,0,0,1,5.1-5,12.24,12.24,0,0,1,2.7-.2H147.4a17.37,17.37,0,0,0,3.3-.2,15.87,15.87,0,0,0,14.6-12.6,58.76,58.76,0,0,0,.3-13.9,5.52,5.52,0,0,0-2.7-3.6c-3.6-2.3-8,.5-8.1,5v8.7a5.38,5.38,0,0,1-5.36,5.4H44.4a21.68,21.68,0,0,0-3.6.2,16,16,0,0,0-14.6,13.4A101.38,101.38,0,0,0,25.7,47a2.42,2.42,0,0,1-1.8,2.7A38.69,38.69,0,0,0,0,85.12v33.6a38.78,38.78,0,0,0,38.5,38.5H151.3a39.11,39.11,0,0,0,37.5-29.8c.5-1.8.8-3.6,1.2-5.4V81.82C189.8,81.72,189.7,81.32,189.7,81Zm-10.8,37.2v.9a28,28,0,0,1-28.5,27.4H39.3a27.8,27.8,0,0,1-27.6-22.4,23.42,23.42,0,0,1-.6-5.9V85.42A27.67,27.67,0,0,1,39.05,58h.25q55.8-.3,111.6,0h.8a27.81,27.81,0,0,1,27.4,28.2v32.1h-.2Z" transform="translate(0 0)" fill="#7f211f"/></svg>