<svg id="Layer_1" data-name="Layer 1" xmlns="http://www.w3.org/2000/svg" viewBox="0 0 228 228"><rect x="1.5" y="1.5" width="225" height="225" rx="85" fill="#190707" stroke="#666" stroke-miterlimit="10" stroke-width="3"/><path d="M160,125.26a1.06,1.06,0,0,0-1.08-1c-2.52-.57-5-1.24-7.42-1.8-.82-.16-1.08-.47-1.08-1.39a38.44,38.44,0,0,0-5.92-22,36.6,36.6,0,0,0-6.74-7.87L134,95.45a32.47,32.47,0,0,1,10.81,25.33l-6.13-1.55a29.12,29.12,0,0,0-1.64-8.65,26.62,26.62,0,0,0-4.38-7.67l-4.32,3.61a20.87,20.87,0,0,1,4.58,11.22c-1.86-.46-3.61-1-5.3-1.29a1.27,1.27,0,0,1-1.09-1,13.49,13.49,0,0,0-3.24-5.72,1.63,1.63,0,0,1-.41-2c2.93-10.24,5.92-20.54,8.85-30.68a1.12,1.12,0,0,0-.25-1.39,16.23,16.23,0,0,0-2.27-2.27,25.13,25.13,0,0,0-35.52,2.22,1.17,1.17,0,0,0-.31,1.44c.72,2.52,1.44,5,2.21,7.57.16.67.1.87-.46,1.23a37.65,37.65,0,0,0-15,14.11,35.87,35.87,0,0,0-3.76,8.39l5.35,1.7A32.06,32.06,0,0,1,97.36,91.23c.47,1.8.88,3.5,1.45,5.14,0,0,0,.11.1.11a.94.94,0,0,1-.57,1.28,26.5,26.5,0,0,0-5.3,4.48L97.21,106l3.5-3.09c.67,2.06,1.13,3.81,1.65,5.62a.81.81,0,0,1-.26.87,15.86,15.86,0,0,0-3.66,6.28,1.17,1.17,0,0,1-.41.57c-2,.46-3.81,1-5.76,1.44l-.26-.26,1.8-6.69-5-2.37a24.1,24.1,0,0,0-2.42,9.53v.1a1.13,1.13,0,0,1-1.14,1.29c-6.33,1.54-12.76,3.19-19.15,4.73A1.27,1.27,0,0,0,65,125.1c-.46,2-.87,3.92-1.39,5.92l-.1,4.23c.31,1.69.67,3.39,1.13,5,3.09,9.47,9.47,15.4,19.2,17.51a1.52,1.52,0,0,0,1.14-.31c1.85-1.86,3.65-3.76,5.45-5.61a3.74,3.74,0,0,0,.57-.83,38.74,38.74,0,0,0,29.09,5.72,22,22,0,0,0-.57-2.84c-.15-.87-.41-1.8-.56-2.78a33.37,33.37,0,0,1-12.2.16,31.55,31.55,0,0,1-11.38-4.48c1.39-1.39,2.67-2.78,4-4.07a1.35,1.35,0,0,1,1.08,0,26.62,26.62,0,0,0,11.38,2.94h.67V140A22.37,22.37,0,0,1,104,138a31.5,31.5,0,0,0,2.79-2.94c1-1.29,2.11-1.54,3.75-1.23a16.91,16.91,0,0,0,5.31-.16,1.73,1.73,0,0,1,1.7.57c7.41,7.67,14.72,15.29,22.08,23a1.7,1.7,0,0,0,1.8.57c11.18-2.22,18.8-11.9,19.88-22.09a1.55,1.55,0,0,1,.15-.46V131A51.71,51.71,0,0,1,160,125.26ZM99.63,78.77a1.28,1.28,0,0,1,.46-1.55,19.77,19.77,0,0,1,24.77.16,1.35,1.35,0,0,1,.41,1.08c-2.63,9.06-5.15,18.17-7.72,27.18a41.81,41.81,0,0,0-5.15-.56,31.75,31.75,0,0,0-5,.67,6.08,6.08,0,0,1-.25-.73C104.67,96.17,102.15,87.47,99.63,78.77Zm2.68,52.77c-6.34,6.54-12.62,13-18.9,19.56a1.27,1.27,0,0,1-1.65.31,19.78,19.78,0,0,1-12.3-21.16,1.43,1.43,0,0,1,1.23-1.39c8.81-2.11,17.61-4.32,26.47-6.54l.82-.15c1.08,3.81,1.08,3.81,4.89,8.65A7.52,7.52,0,0,0,102.31,131.54Zm10.09-3a8.91,8.91,0,0,1-8.81-8.85v-.11a8.89,8.89,0,1,1,8.81,9Zm30.37,23.07a.92.92,0,0,1-1.23-.26c-6.54-6.85-13-13.59-19.57-20.39-.1,0-.1-.1-.15-.26a14.75,14.75,0,0,0,4.89-8.54c1.29.31,2.63.67,3.91.87l23.48,5.87a1.23,1.23,0,0,1,1.13,1.24C156.88,139,151.27,148.63,142.77,151.57Z" transform="translate(1.5 1.5)" fill="#bdc3c7"/></svg>