<svg id="Layer_1" data-name="Layer 1" xmlns="http://www.w3.org/2000/svg" viewBox="0 0 190 145.58"><title>icon_2</title><path d="M175.3,74.07c-3-2.7-6-5.6-8.9-8.6a7.48,7.48,0,0,0-5.7-2.4H146.4c-3.1,0-5.3,1.2-6.3,3.4a8,8,0,0,0-.8,3.6v17.8c0,4.4,2.5,7,7.1,7h25.1a6.6,6.6,0,0,0,2-.5c.2-.1.3-.1.4-.2a6.53,6.53,0,0,0,3.7-6.4V80A7.11,7.11,0,0,0,175.3,74.07ZM146,86.37v-17h14.6a6.5,6.5,0,0,1,1.7.6Zm25.2,2.1h-17l13.2-12.8C172.9,78.27,171,83.57,171.2,88.47Z" transform="translate(0 -0.09)" fill="#7f2020"/><path d="M84.9,63.27H63.8c-4.4,0-6.8,2.5-6.8,7v17.6c0,4.6,2.5,7.1,7.1,7.1H84.7c4.4,0,7.1-2.5,7.1-7V70.07C91.9,65.57,89.3,63.27,84.9,63.27Zm-21.6,23V69.77H79.8Zm22.1,2.2H72.1l13.3-13.3Z" transform="translate(0 -0.09)" fill="#7f2020"/><path d="M185.3,66.27c-3.8-3.8-7.8-7.5-11.4-11.4a12.21,12.21,0,0,0-10.8-4.4,32.3,32.3,0,0,1-4.4,0c0-2.2.2-4.3,0-6.2v-.5a6.37,6.37,0,0,0-6.7-6h-4.3v-19h33.7a3.35,3.35,0,0,0,2.5-2.5,3.24,3.24,0,0,0-2.5-3.6H149a1.88,1.88,0,0,1-2.1-1.6,15.92,15.92,0,0,0-30.2-.2,2.14,2.14,0,0,1-2.5,1.7h-84c-3.2,0-4.8,1.1-4.8,3.2S27,19,30.2,19h85.6v3.3c-.3,4.9,1,6,3.2,6,1.9,0,3.5-.6,3.2-5.9v-3.5h18.9v18.9H127.6c-4.4,0-7.1,2.5-7.1,7v5.7H25.8A10.3,10.3,0,0,0,17.4,54c-4.1,4.3-8.2,8.4-12.5,12.5a16.21,16.21,0,0,0-4.9,7v52c.3.5.5,1.1.8,1.6A9.25,9.25,0,0,0,9.4,133H25.3l.5,6.3H13.7c-2.9,0-4.3,1-4.3,3.2s1.4,3.2,4.3,3.2H177.4a3.22,3.22,0,0,0,3.2-3.2,3.15,3.15,0,0,0-3.12-3.2H164.4l.5-6.3h15.2a8.21,8.21,0,0,0,7-2.9A32.08,32.08,0,0,0,190,125V73.47A14.47,14.47,0,0,0,185.3,66.27Zm-61.7-53.9v.1a1.33,1.33,0,0,1-.8-.2,8.8,8.8,0,0,1,8.1-6.2,9.24,9.24,0,0,1,9.4,6.3Zm3.3,31.8H152v6H126.8ZM9.4,126.67H9.1a3.16,3.16,0,0,1-2.9-3.2v-12.7h7.6a2,2,0,0,1,1.3.6l14.3,14.3a5.1,5.1,0,0,1,.5.8C22.9,126.47,16.2,126.67,9.4,126.67Zm27,11.9a4.37,4.37,0,0,1-3.2.2c-2.4-1.3-1.6-3.5-1.7-5.7h6.2C37.6,135.07,38.6,137.27,36.4,138.57Zm1.7-13.2c-4.4-4.3-8.7-8.7-13-13a17.23,17.23,0,0,1-1.4-1.3l.3-.5a4.57,4.57,0,0,0,1.6-.2H54a3.85,3.85,0,0,1,2.4.8c4.9,4.8,9.7,9.7,14.4,14.4.2.2.3.5.5.6H40.7A2.62,2.62,0,0,1,38.1,125.37Zm26.8-14.6,33.1-.2v15.9H81.9a3,3,0,0,1-2.1-.8c-4.8-4.6-9.4-9.4-14.1-14.1C65.4,111.27,65.1,111.17,64.9,110.77ZM44,139.07l.5-6H145.7l.5,6Zm76.9-34.8h5.7v22H104.7V69.47h21.9v28.4H121c-2.2,0-3.6,1.1-3.6,3.2S118.5,104.27,120.9,104.27Zm36,34.3a3.6,3.6,0,0,1-3.2,0c-2.4-1.3-1.4-3.5-1.6-5.7h6.3l.2.2C158.5,135.27,159.1,137.47,156.9,138.57Zm-23.8-12.2v-15.7c3.3,0,6.5.3,9.7,0A9.65,9.65,0,0,1,151,114c3.8,4.3,7.9,8.1,12.4,12.4Zm50.8-2.5a3.22,3.22,0,0,1-3.6,2.7h-.2c-2.5,0-5.2.6-7.3-.2s-3.6-3.2-5.4-4.9c-3.5-3.5-7-6.8-10.6-10.6h27.1Zm0-19.6H133.1V70.67c0-5.2-2.4-7.5-7.5-7.5H105.5c-4.9,0-7.3,2.4-7.3,7.3v33.8H6.4c0-.2-.2-.3-.2-.6V75.47A3.65,3.65,0,0,1,7.3,73c4.9-4.9,9.7-10,14.7-14.7A5.27,5.27,0,0,1,25.2,57a24.38,24.38,0,0,1,5.4,0H163.5a6.23,6.23,0,0,1,5.4,2.2c4.3,4.4,8.7,8.9,13.3,13.3a5.65,5.65,0,0,1,1.7,4.1Z" transform="translate(0 -0.09)" fill="#7f2020"/><path d="M50.7,69.07a6.36,6.36,0,0,0-6.7-5.9H28.9a7.74,7.74,0,0,0-5.1,2.1c-3,3.2-6.2,6.2-9.4,9.4a7,7,0,0,0-2.1,5.2v7.9c0,4.6,2.5,7.1,7.1,7.1H44.5a6.37,6.37,0,0,0,6-6.7c.2-6.1.2-12.2.2-18.3ZM18.9,89v-9.2a6.68,6.68,0,0,1,.8-1.4c2.7-2.7,5.4-5.2,8.1-7.9a2.22,2.22,0,0,1,1.6-.8H39.5c-.5.6-.6,1-1,1.3L21.8,87.67C20.8,88.17,19.9,88.57,18.9,89Zm25.1-.5H30.8L44,75.27Z" transform="translate(0 -0.09)" fill="#7f2020"/></svg>