<svg id="Layer_1" data-name="Layer 1" xmlns="http://www.w3.org/2000/svg" viewBox="0 0 190.05 108.21"><title>icon_1</title><path d="M7.54,31.81a3.7,3.7,0,0,1-3.6,3.8h0a3.52,3.52,0,0,1-3.6-3.44V32a3.77,3.77,0,0,1,3.6-3.8,3.46,3.46,0,0,1,3.6,3.31Z" transform="translate(0.01 0)" fill="#7f211f"/><path d="M67.94,40.31a6.52,6.52,0,0,0-6.8-4.7H19.54c-3.3,0-5.2-1.3-5.2-3.6s1.9-3.8,5.2-3.8h41.8a14.07,14.07,0,0,1,1.3,28.1H3.24A3.75,3.75,0,0,1,0,52.09S0,52,0,52a4.19,4.19,0,0,1,3.2-3.2H61C66,49,69.44,44.81,67.94,40.31Z" transform="translate(0.01 0)" fill="#7f211f"/><path d="M84.44,104.41h0a3.7,3.7,0,0,1-3.6,3.8h0a3.8,3.8,0,0,1-3.8-3.8h0a3.77,3.77,0,0,1,3.8-3.6,3.59,3.59,0,0,1,3.6,3.58Z" transform="translate(0.01 0)" fill="#7f211f"/><path d="M185,100.81h-37.8l.5-7.4h17.6a33.88,33.88,0,0,0,5.5-.5c9.2-2.1,15.3-7.6,18-16.6a23,23,0,0,0-6-23.9c-11.1-11.1-22.2-22.3-33.2-33.4a63.24,63.24,0,0,0-46.4-19H5.34a8.13,8.13,0,0,0-2.2.2,3.53,3.53,0,0,0-2.8,3.3,3.71,3.71,0,0,0,3.42,4h99.58a56.14,56.14,0,0,1,31.6,9.3,74.64,74.64,0,0,1,13,11.4h-42.4a12.58,12.58,0,0,0-6,1.3,14,14,0,0,0-7,18.5,13.58,13.58,0,0,0,13.4,8.5h68.7a5.27,5.27,0,0,1,2.4.6,16.38,16.38,0,0,1,3,21c-3.5,5.5-8.7,7.9-15.2,7.9H3.44a3.67,3.67,0,0,0,.7,7.3h16l.5,7.4h-16a8,8,0,0,0-2.7.5,3.52,3.52,0,0,0-1.6,4.1,4.13,4.13,0,0,0,4.1,2.7h60.8c2.8,0,4.4-1.3,4.4-3.6s-1.6-3.8-4.4-3.8H42.14l.5-7.3H125l.5,7.3H95.34a3.71,3.71,0,0,0-4,3.42.22.22,0,0,0,0,.08v.2a3.85,3.85,0,0,0,3.9,3.8h89.7a5.32,5.32,0,0,0,5.1-2.5v-2.2A4.83,4.83,0,0,0,185,100.81Zm-17.7-51.9h-61.7a9.22,9.22,0,0,1-2.8-.5,6.62,6.62,0,0,1-3.63-8.63l0-.07a6.29,6.29,0,0,1,6.2-4.1h49.1a2.94,2.94,0,0,1,1.6.5c4.3,4.1,8.4,8.4,12.8,12.8ZM33.44,100a3.45,3.45,0,0,1-4.1,0c-2.4-1.7-1.4-4.3-1.7-6.6H35C34.94,95.71,36,98.21,33.44,100Zm104.9,0a3.31,3.31,0,0,1-3.8,0c-2.5-1.6-1.6-4.3-1.7-6.6h7.4C139.84,96,140.94,98.61,138.34,100Z" transform="translate(0.01 0)" fill="#7f211f"/></svg>