<svg id="Layer_1" data-name="Layer 1" xmlns="http://www.w3.org/2000/svg" viewBox="0 0 190.03 90.62"><title>icon_4</title><path d="M117.4,36.32a3,3,0,0,1-1.9,2.1,7.07,7.07,0,0,1-2.1.2H52.1a2.4,2.4,0,0,1-2.21-2.57.53.53,0,0,1,0-.13h0a2.42,2.42,0,0,1,2.2-2.5h63.4C116.7,33.42,117.7,34.92,117.4,36.32Z" transform="translate(0 0)" fill="#7f211f"/><path d="M181.1,35.52c-11.2-1.4-22.6-2.7-33.8-4.3a8.08,8.08,0,0,1-3.2-1.3C134,21.52,123.9,13,113.9,4.62A19,19,0,0,0,101.3,0C84.9.22,68.4.22,52,0a13.59,13.59,0,0,0-12.5,6.8c-4.3,7-8.7,13.8-13.1,20.6a6.41,6.41,0,0,1-2.7,2.1c-4.4,1.4-8.9,2.8-13.3,4C5,34.82,1.2,37.82,0,43.12l.2,4a1.32,1.32,0,0,1,.3.8c.8,4.7,1.6,9.3,2.2,14.1,1.3,8.9,7,13.8,16,13.8H36.3c1.4,0,2.1.3,2.4,1.7A17.64,17.64,0,0,0,51,90,17.35,17.35,0,0,0,72.28,77.78l0-.06c.3-1.4.9-1.7,2.4-1.7h55l.2.8c2.4,8.5,8.9,13.8,17.1,13.8s14.7-5.1,17.1-13.4h0a1.55,1.55,0,0,1,1.7-1.3,83.46,83.46,0,0,0,10-.2A11.85,11.85,0,0,0,187,65.62c1.1-6.2,2.1-12.5,3-18.8v-.2A10.39,10.39,0,0,0,181.1,35.52ZM55.2,85.32h0a12,12,0,0,1-11.9-12h0v-.5a11.83,11.83,0,0,1,11.9-11.7H56A11.92,11.92,0,0,1,67.51,73.44c0,.06,0,.12,0,.18A11.73,11.73,0,0,1,55.75,85.33Zm91.6,0a12,12,0,0,1-12-12h0V73a11.84,11.84,0,0,1,12-11.7h0a12,12,0,1,1,0,24ZM184.1,47c-.8,5.9-1.7,11.7-2.7,17.6a6.76,6.76,0,0,1-7.4,6h-9.6c-2.5-9.5-8.5-15-18.7-14.7-7.7.2-13.1,5.2-16.3,14.7H74.5c-1.4,0-2.1-.3-2.4-1.7a17.43,17.43,0,0,0-33.7-.2c-.2.6-.3,1.1-.5,1.9H18.2a9.51,9.51,0,0,1-10.1-8.4c-.8-5.1-1.7-10.3-2.4-15.3-.6-4,.8-6.3,4.7-7.6,5.5-1.7,11.1-3.2,16.4-5.1a7,7,0,0,0,3.2-2.4c4.9-7.4,9.6-14.7,14.2-22.1a8.75,8.75,0,0,1,7.7-4.3h49.5a13.26,13.26,0,0,1,9.2,3.3c10.3,8.9,20.9,17.6,31.3,26.2a6,6,0,0,0,3.5,1.4c11.4,1.4,22.8,2.8,34.2,4.3C183,41.22,184.7,43.42,184.1,47Z" transform="translate(0 0)" fill="#7f211f"/></svg>