<svg id="Layer_1" data-name="Layer 1" xmlns="http://www.w3.org/2000/svg" viewBox="0 0 190.03 121.2"><title>icon_8</title><path d="M99.1,161H26a1.9,1.9,0,1,1,0-3.8H99.2a1.9,1.9,0,0,1,1.9,1.9A1.87,1.87,0,0,1,99.1,161Z" transform="translate(-17.4 -51.9)" fill="#bf55ec"/><path d="M127.5,67.3a2,2,0,0,0-1.9,1.9v63.3a1.84,1.84,0,0,0,1.9,1.9,2,2,0,0,0,1.9-1.9V69.2A2,2,0,0,0,127.5,67.3Zm0,0a2,2,0,0,0-1.9,1.9v63.3a1.84,1.84,0,0,0,1.9,1.9,2,2,0,0,0,1.9-1.9V69.2A2,2,0,0,0,127.5,67.3Zm0,0a2,2,0,0,0-1.9,1.9v63.3a1.84,1.84,0,0,0,1.9,1.9,2,2,0,0,0,1.9-1.9V69.2A2,2,0,0,0,127.5,67.3Zm0,0a2,2,0,0,0-1.9,1.9v63.3a1.84,1.84,0,0,0,1.9,1.9,2,2,0,0,0,1.9-1.9V69.2A2,2,0,0,0,127.5,67.3Zm0,0a2,2,0,0,0-1.9,1.9v63.3a1.84,1.84,0,0,0,1.9,1.9,2,2,0,0,0,1.9-1.9V69.2A2,2,0,0,0,127.5,67.3Zm0,0a2,2,0,0,0-1.9,1.9v63.3a1.84,1.84,0,0,0,1.9,1.9,2,2,0,0,0,1.9-1.9V69.2A2,2,0,0,0,127.5,67.3Zm79.9,99.5V59.3a2,2,0,0,0-1.9-1.9H200V53.8a2,2,0,0,0-1.9-1.9H133.7a23.13,23.13,0,0,0-15.1,5.7H19.3a1.84,1.84,0,0,0-1.9,1.9V166.8a1.84,1.84,0,0,0,1.9,1.9h84.2c1.4,2.8,5.4,4.4,9,4.4,4.2,0,7.9-1.7,9-4.4h84.2a1.59,1.59,0,0,0,1.7-1.9Zm-73.6-111h62.5V91.7l-38.4,32.6a2,2,0,0,0,1.3,3.5,12.29,12.29,0,0,1,3.8.8,14,14,0,0,1,6.6,5,10.47,10.47,0,0,1,2,5.8,8.4,8.4,0,0,1-.3,1.9H136.7a28.23,28.23,0,0,0-22.2,11.2V75.2A19.27,19.27,0,0,1,133.8,55.8Zm62.5,89.4v12.9H115.6a23.67,23.67,0,0,1,21.1-12.9Zm-23.5-13.8a15.93,15.93,0,0,0-9.3-6.8L192,100.4l-17.5,34.5A14.08,14.08,0,0,0,172.8,131.4Zm2.8,9.9,20.6-40.6v40.6Zm27.9,23.6H119.8a2,2,0,0,0-1.9,1.9c0,.9-2.2,2.4-5.5,2.4a7.51,7.51,0,0,1-4.7-1.4v-5.4a1.9,1.9,0,1,0-3.8,0v2.5H21.4V61.3h82.9v89.4a1.9,1.9,0,1,0,3.8,0V61.3h7.2A23,23,0,0,0,110.7,75v85a1.92,1.92,0,0,0,1.6,1.9h85.9a1.84,1.84,0,0,0,1.9-1.9V61.3h3.3V164.9Zm-69.7-13.5a1.84,1.84,0,0,0,1.9,1.9h55.9a1.84,1.84,0,0,0,1.9-1.9,2,2,0,0,0-1.9-1.9H135.7A1.9,1.9,0,0,0,133.8,151.4Zm-6.3-17a2,2,0,0,0,1.9-1.9V69.2a1.9,1.9,0,1,0-3.8,0v63.3A1.84,1.84,0,0,0,127.5,134.4Zm0-67.1a2,2,0,0,0-1.9,1.9v63.3a1.84,1.84,0,0,0,1.9,1.9,2,2,0,0,0,1.9-1.9V69.2A2,2,0,0,0,127.5,67.3Zm0,0a2,2,0,0,0-1.9,1.9v63.3a1.84,1.84,0,0,0,1.9,1.9,2,2,0,0,0,1.9-1.9V69.2A2,2,0,0,0,127.5,67.3Zm0,0a2,2,0,0,0-1.9,1.9v63.3a1.84,1.84,0,0,0,1.9,1.9,2,2,0,0,0,1.9-1.9V69.2A2,2,0,0,0,127.5,67.3Zm0,0a2,2,0,0,0-1.9,1.9v63.3a1.84,1.84,0,0,0,1.9,1.9,2,2,0,0,0,1.9-1.9V69.2A2,2,0,0,0,127.5,67.3Zm0,0a2,2,0,0,0-1.9,1.9v63.3a1.84,1.84,0,0,0,1.9,1.9,2,2,0,0,0,1.9-1.9V69.2A2,2,0,0,0,127.5,67.3Zm0,0a2,2,0,0,0-1.9,1.9v63.3a1.84,1.84,0,0,0,1.9,1.9,2,2,0,0,0,1.9-1.9V69.2A2,2,0,0,0,127.5,67.3Z" transform="translate(-17.4 -51.9)" fill="#bf55ec"/></svg>