<svg id="Layer_1" data-name="Layer 1" xmlns="http://www.w3.org/2000/svg" viewBox="0 0 189.96 163.3"><title>icon_6</title><path d="M206.8,58.1c-8.9-14.5-27.2-16-35-16a15.72,15.72,0,0,0-15.2-11.3H151a26.05,26.05,0,0,0-26.1,26.1V71.7L18.6,178.1a4.52,4.52,0,0,0-.9,4.4,4.21,4.21,0,0,0,3.7,2.4H35.7A26.68,26.68,0,0,0,62,162.4H87.1L80.5,172a4.09,4.09,0,0,0,0,4.5l11.2,15.9a4,4,0,0,0,3.3,1.7h10.3a4,4,0,0,0,0-8H97l-8.4-11.9L97,162.3h15.3l-6.6,9.6a4.09,4.09,0,0,0,0,4.5l11.2,15.9a4,4,0,0,0,3.3,1.7h10.3a4,4,0,0,0,0-8h-8.2l-8.4-11.9,8.4-12a54.66,54.66,0,0,0,50.6-54.4V64.2h31a3.85,3.85,0,0,0,3.5-2.1A7.16,7.16,0,0,0,206.8,58.1ZM35.5,176.9H30.8l14.6-14.6h8.2A18.47,18.47,0,0,1,35.5,176.9Zm129-116.7v47.6h0A46.6,46.6,0,0,1,118,154.3H53.4l12.7-12.7H100a32.76,32.76,0,0,0,32.8-32.8,4,4,0,0,0-8,0A24.8,24.8,0,0,1,100,133.6H74.2l57.5-57.5h0l.2-.2a11941971885985,11941971885985,0,0,0,.6-.6,2653771530219.11,2653771530219.11,0,0,1,.4-.4V57.1A18.1,18.1,0,0,1,151,39h5.6a7.75,7.75,0,0,1,7.8,7.5v.3l.1,13.4Zm7.8-4V50c5.2,0,14.8,1,22,6.3h-22Z" transform="translate(-17.48 -30.8)" fill="#bf55ec"/><path d="M152.6,46.6a3.89,3.89,0,0,0-4,4v5.2a4,4,0,0,0,8,0V50.6A4,4,0,0,0,152.6,46.6Z" transform="translate(-17.48 -30.8)" fill="#bf55ec"/><path d="M128.9,89.2a3.89,3.89,0,0,0-4,4v2.4a4,4,0,0,0,8,0V93.2A4.08,4.08,0,0,0,128.9,89.2Z" transform="translate(-17.48 -30.8)" fill="#bf55ec"/></svg>