<svg id="Layer_1" data-name="Layer 1" xmlns="http://www.w3.org/2000/svg" viewBox="0 0 143.31 189.94"><title>icon_5</title><path d="M14.69,32.23" transform="translate(0.02 0.01)" fill="#137f60"/><path d="M134.09,32.23h0C134.09,32,133.89,32,134.09,32.23Z" transform="translate(0.02 0.01)" fill="#137f60"/><path d="M118.49,185.13c.6,2.6.2,3.5-2.1,4.8h-1.1a4.2,4.2,0,0,1-2.6-3.3,16.07,16.07,0,0,0-5.7-8.9,126,126,0,0,0-11-8.1c-4.3-2.9-8.9-5.3-13.2-8-2.1-1.3-2.4-3.2-1.1-4.6a2.75,2.75,0,0,1,3.7-.6c8.3,4.9,16.9,9.2,24.2,15.6C113.69,175.43,117,179.53,118.49,185.13Z" transform="translate(0.02 0.01)" fill="#137f60"/><path d="M141.69,35.33c-4.5-11.8-10.7-22.6-17.2-33.5a2.55,2.55,0,0,0-1.6-1.6,3.08,3.08,0,0,0-4,1.6c-2.2,3.7-4.5,7.5-6.7,11.3-4.5,8.1-8.9,16.4-11.6,25.4-2.4,8-.3,14.8,5.3,20.9a21.37,21.37,0,0,0,12.8,6.7v3.5H29.79v-3.5c7.5-2.1,11.3-4.3,14.7-8.8,4.8-6.7,5.3-13.9,2.4-21.4-4.5-12-10.8-23.1-17.4-34a3.16,3.16,0,0,0-1.4-1.4,2.94,2.94,0,0,0-3.8,1.4c-1.1,1.8-2.2,3.5-3.2,5.3-5.4,9.4-10.7,18.8-14.4,29-4,11.3-.3,21.8,9.6,27.4a63,63,0,0,0,7.5,3v4a9,9,0,0,1,.2,2.2c0,2.1,1.4,3,4.6,3h37.2a2.9,2.9,0,0,1,2.4.5,33.54,33.54,0,0,1,5.7,6.2,10.23,10.23,0,0,1-2.7,13.7,23.7,23.7,0,0,1-5.4,3.5c-5.1,2.4-10,4.6-15.3,6.7-9.9,4-19.8,8-28.9,13.7a44,44,0,0,0-17.7,56,36.9,36.9,0,0,0,10,13.7h1.3c2.9-1.9,3-3.3.6-5.9a35.76,35.76,0,0,1-10-23.4c-.3-11.6,2.9-21.8,11.6-29.8a62.65,62.65,0,0,1,17.4-11.2c8.5-3.7,17.1-7,25.5-10.8a86.3,86.3,0,0,0,13.7-7.5,14.44,14.44,0,0,0,6.5-15.1,64.1,64.1,0,0,0-1.9-7.2,24.39,24.39,0,0,1,12,7.8c3.5,4.9,4.6,12-2.4,16.9-2.9,2.1-6.1,3.8-8.9,6.1a61.33,61.33,0,0,0-10.5,8.5c-9.1,9.6-11.6,24.6,3.3,36.4h0a2.87,2.87,0,0,0,4.06-.15l0,0h0a3,3,0,0,0-.4-4.22l-.1-.08c-.8-.8-1.8-1.6-2.6-2.4-2.9-2.9-5.3-5.9-5.7-9.9a18.88,18.88,0,0,1,6.4-16.6,91.67,91.67,0,0,1,9.4-7c3.5-2.6,7.3-4.8,10.5-7.5a14.58,14.58,0,0,0,4.9-15.1c-1.3-6.4-5.1-10.7-10.2-14.2a11,11,0,0,1-1.8-1.3H120a4.64,4.64,0,0,0,4.3-1.9v-1.9c0-.5.2-1,.2-1.4v-4.5a19.84,19.84,0,0,0,3.7-1A22.09,22.09,0,0,0,143,48.33a1.68,1.68,0,0,0,.3-1v-4.8A25.05,25.05,0,0,0,141.69,35.33ZM23.29,14.83l.3.2V30l-6.7-3.3Zm.4,44.9c-11.5-.2-16.4-15.3-9.1-27.6,2.9,1.4,5.4,2.7,8.3,4.1a1.59,1.59,0,0,1,.8,1.4ZM30,14.83l.5-.2L42,38.23l-12,7.2Zm-.4,45.1V53a1.44,1.44,0,0,1,.5-1.1c4.1-2.6,8.1-4.9,12.3-7.3C43.49,51.13,37,58.93,29.59,59.93Zm78.8-25c3.2-6.9,6.4-13.6,9.7-20.3l.6.3v29.3a5.12,5.12,0,0,1-1.4-1c-2.7-2.2-5.6-4.3-8.3-6.5a3.23,3.23,0,0,1-.6-1.8Zm10.4,24.8h0c-7.7-.3-14.5-9.9-12.4-17.7l6.5,5.3a12.78,12.78,0,0,0,1.8,1.4C119.29,52.43,119.69,53.43,118.79,59.73Zm6.2-44.8.3-.2c2.1,3.8,4.1,7.8,6.4,11.8l-6.5,3.3v-15H125Zm12.1,34.2a16.46,16.46,0,0,1-12.3,11.2V38.43a2.16,2.16,0,0,1,1.4-2.4c2.6-1.1,5.1-2.6,7.8-3.8,2.2,5.4,5.2,10.6,3.1,16.9Z" transform="translate(0.02 0.01)" fill="#137f60"/></svg>