<svg id="Layer_1" data-name="Layer 1" xmlns="http://www.w3.org/2000/svg" viewBox="0 0 228 228"><rect x="1.5" y="1.5" width="225" height="225" rx="85" fill="#051911" stroke="#666" stroke-miterlimit="10" stroke-width="3"/><path d="M120.65,89.45a3.1,3.1,0,0,1,.54,1.13c0,1.34-.92,1.93-1.94,1.56a20.45,20.45,0,0,1-2.2-1.35c-1.29-.91-2.58-1.93-3.92-3a1.32,1.32,0,0,1-.54-1.72.11.11,0,0,1,.11-.11,1.3,1.3,0,0,1,1.77-.43,16.57,16.57,0,0,1,1.77.59,8.57,8.57,0,0,1,2.05,1.18C119.09,88,119.84,88.7,120.65,89.45Z" transform="translate(1.5 1.5)" fill="#bdc3c7"/><path d="M157.08,105.3a8.78,8.78,0,0,0-2.2-2.63,24.7,24.7,0,0,0-4.41-2.74c-2.74-1.19-5.43-2.37-8.27-3.33A26.3,26.3,0,0,1,132,90c-1.88-1.93-3.81-3.92-5.8-5.8-2.8-2.47-5.81-4.68-9.73-4.84-2.63-.11-5.26-.11-7.84-.11a2.15,2.15,0,0,1-1.88-.69C103,75.1,98.67,72.52,93.51,72a6.25,6.25,0,0,1-3.92-1.93c-1.45-1.46-2.9-2.91-4.35-4.25A19.07,19.07,0,0,0,79,61.45H77.29A5.86,5.86,0,0,0,73,66.13c-.16.59-.16,1.29-.32,1.88A3.43,3.43,0,0,1,72,69.3c-1.18,1.13-2.47,2.15-3.66,3.38s-1.12,2.37-.1,3.82l4.24-2.36,3.17,6.12a16.27,16.27,0,0,0-1.93-.54,16.81,16.81,0,0,0-3.6-.59,2.28,2.28,0,0,0-2.15,3.6A127.48,127.48,0,0,0,89.16,111.1a16.18,16.18,0,0,1,4.09,6.72A42.15,42.15,0,0,1,95,129c.26,9.51-1.13,18.91-2.8,28.26-.32,1.88-.75,3.81-1.18,5.86l.86-.43c3.76-1.72,7.58-3.6,11.39-5.11,5.1-1.93,10.37-3.38,15.91-3.17a11.22,11.22,0,0,1,8.32,3.6,17,17,0,0,0,6.4,4.41c1.29.53,2.58.75,3.81,1.13h3.5l.69-.27a13.62,13.62,0,0,0,6.56-3.17c-.11-.11-.11-.16-.11-.16a.62.62,0,0,0-.32-.17,3.86,3.86,0,0,1-3.22-3.49,79.89,79.89,0,0,1-1.72-8.11,83.55,83.55,0,0,1-.76-11.66,72.14,72.14,0,0,0-1.29-16c-.53-2.37-1.34-4.68-2-7.1a4.73,4.73,0,0,1,.92-.32c4.24-1.29,8.43-2.58,12.68-3.81,1.18-.43,2.36-.86,3.6-1.45C157.67,107.34,157.94,106.64,157.08,105.3Zm-2.63.91-19.35,6c.86,1.88,1.62,3.49,2.21,5.21,2.15,6.23,2.31,12.68,2.31,19.24a89.5,89.5,0,0,0,.86,12c.53,2.95,1.12,6,1.93,8.92a24.27,24.27,0,0,0,1.13,2.74,10,10,0,0,1-5.43.75,13.52,13.52,0,0,1-6.23-2.58,19.36,19.36,0,0,1-1.93-1.61c-4.09-4.78-9.52-5.37-15.26-4.78-6.56.7-12.63,2.95-18.54,5.64l-1.56.7c.43-2.64.91-5.11,1.29-7.69,1.34-8.59,2.2-17.19,1.34-25.9-.43-4.35-1.18-8.7-3.6-12.41a23.76,23.76,0,0,0-1.93-2.47,128.05,128.05,0,0,1-20.8-27.19c-.16-.27-.26-.59-.59-1.13,1.61.43,2.8.76,4.09,1,1.88.42,3.22-.17,3.6-1.72a2.31,2.31,0,0,0-.11-1.46c-.59-1.34-1.29-2.79-1.94-4.08a6.3,6.3,0,0,1-.86-4.08c.27-1.56.27-3.23.43-4.84a4.44,4.44,0,0,1,.54-1.29.64.64,0,0,0,.16-.27,2.35,2.35,0,0,1,3.17-.53c1.35,1,2.74,2,4,3.17,1.56,1.34,3,2.79,4.35,4.24a8,8,0,0,0,5.21,2.63c5,.54,9,3,12.52,6.4a2.79,2.79,0,0,0,2.58.91c1.72-.16,3.39-.11,5.11-.16a15.33,15.33,0,0,1,11.66,4.78c1.77,1.78,3.76,3.6,5.42,5.43a28.38,28.38,0,0,0,11.34,7.31,89.09,89.09,0,0,1,9.62,4.19,23.13,23.13,0,0,1,3.49,2.58Z" transform="translate(1.5 1.5)" fill="#bdc3c7"/></svg>