<svg id="Layer_1" data-name="Layer 1" xmlns="http://www.w3.org/2000/svg" viewBox="0 0 189.9 186.32"><title>icon_6</title><path d="M23.7,169.53v2.2a1.74,1.74,0,0,1-1.77,1.71H19.6a1.69,1.69,0,0,1-1.7-1.68v-2.22a1.69,1.69,0,0,1,1.68-1.7H21.8a1.59,1.59,0,0,1,1.87,1.24A1.43,1.43,0,0,1,23.7,169.53Z" transform="translate(0 0)" fill="#137f60"/><path d="M42.6,156.33v-2.5a1.69,1.69,0,0,1,1.68-1.7H46.8a1.69,1.69,0,0,1,1.7,1.68v2.52a1.69,1.69,0,0,1-1.68,1.7H44.3a1.63,1.63,0,0,1-1.7-1.56Z" transform="translate(0 0)" fill="#137f60"/><path d="M67.1,166.33h0V175l-3,4.9-2.9,1.9a1.82,1.82,0,0,1-2.2-.2,6,6,0,0,0-8.49,0l-.21.22a5.91,5.91,0,0,0-1.6,2.9,2,2,0,0,1-1.7,1.4H44.1a1.72,1.72,0,0,1-1.7-1.4,12.23,12.23,0,0,0-10.8-10.8,1.9,1.9,0,0,1-1.4-1.7v-2.6a1.87,1.87,0,0,1,1.7-1.9h.2a19,19,0,0,1,13.2,7.9,1.78,1.78,0,0,0,2.4.5,12.16,12.16,0,0,1,10.9-1.6,1.75,1.75,0,0,0,2.17-1.19l0-.11v-6.6a1.69,1.69,0,0,1,1.68-1.7H65a1.55,1.55,0,0,1,2,.9A1.71,1.71,0,0,1,67.1,166.33Z" transform="translate(0 0)" fill="#137f60"/><path d="M73.6,137.53v-17.4a2.18,2.18,0,0,1,2.1-2.1h2.1a2.18,2.18,0,0,1,2.1,2.1v17.4a2,2,0,0,1-1.89,2.1H75.7A2.11,2.11,0,0,1,73.6,137.53Z" transform="translate(0 0)" fill="#137f60"/><path d="M77.9,170.43H75a1.7,1.7,0,0,1-1.6-1.4v-.3a12.11,12.11,0,0,0-11.7-10.5H56.8a1.69,1.69,0,0,1-1.7-1.68v0h0v-2.9a1.6,1.6,0,0,1,1.5-1.7h.1c9.2-.8,17,1.6,21.4,10.8a20.31,20.31,0,0,1,1.6,5.5,1.84,1.84,0,0,1-1.3,2.1A.87.87,0,0,1,77.9,170.43Z" transform="translate(0 0)" fill="#137f60"/><path d="M81.7,148.73A1.84,1.84,0,0,1,79.8,147v-2.32a1.84,1.84,0,0,1,1.78-1.9H83.9a1.84,1.84,0,0,1,1.9,1.78v2.32a1.9,1.9,0,0,1-1.9,1.9Z" transform="translate(0 0)" fill="#137f60"/><path d="M92,104.73v1.4a2.16,2.16,0,0,1-2.12,2.2H88.2a2.16,2.16,0,0,1-2.2-2.12v-1.48a2.16,2.16,0,0,1,2.12-2.2H89.8A2.29,2.29,0,0,1,92,104.73Z" transform="translate(0 0)" fill="#137f60"/><path d="M86,117.83a3,3,0,1,1,6,0v3a3,3,0,0,1-6,0Z" transform="translate(0 0)" fill="#137f60"/><path d="M92.2,155.43v10.8a2.16,2.16,0,0,1-2.12,2.2H88.4a2.16,2.16,0,0,1-2.2-2.12V155.43a2.16,2.16,0,0,1,2.12-2.2H90a2.16,2.16,0,0,1,2.2,2.12Z" transform="translate(0 0)" fill="#137f60"/><path d="M101.1,114.53v1a2.48,2.48,0,0,1-2.46,2.5h-1a2.48,2.48,0,0,1-2.5-2.46v-1a2.48,2.48,0,0,1,2.46-2.5h1A2.54,2.54,0,0,1,101.1,114.53Z" transform="translate(0 0)" fill="#137f60"/><path d="M99.3,154.93H97.4a2.18,2.18,0,0,1-2.1-2.1v-8.1a2.18,2.18,0,0,1,2.1-2.1h1.9a2.18,2.18,0,0,1,2.1,2.1v8.1A2.34,2.34,0,0,1,99.3,154.93Z" transform="translate(0 0)" fill="#137f60"/><path d="M101.4,132.63v1.7a2.18,2.18,0,0,1-2.1,2.1H97.4a2.18,2.18,0,0,1-2.1-2.1v-1.7a2.18,2.18,0,0,1,2.1-2.1h1.7a2,2,0,0,1,2.28,1.67A2.07,2.07,0,0,1,101.4,132.63Z" transform="translate(0 0)" fill="#137f60"/><path d="M3.8,51.63,0,47.53v-.3a6.47,6.47,0,0,0,1.6-1.3C16.1,31.33,30.9,16.63,45.4,2c2.7-2.7,3.8-2.7,6.5,0l14.7,14.7a.78.78,0,0,0,1.1,0l1-.8L80.1,4.53c1.9-1.7,3.5-1.9,5.2-.2,7,6.8,13.9,13.8,20.8,20.8.2.2.3.3.3.5s0,.5-.2.6h0l-3.3,3.2a.78.78,0,0,1-1.1,0c-6-6-11.9-12-17.9-18.1a.78.78,0,0,0-1.1,0L72.7,21.53a.78.78,0,0,0,0,1.1h0l5.5,5.2a.78.78,0,0,1,0,1.1h0l-3.2,3a.78.78,0,0,1-1.1,0l-.2-.2L49.5,8.23a.78.78,0,0,0-1.1,0L4.9,51.63a.66.66,0,0,1-.9.2A.64.64,0,0,1,3.8,51.63Z" transform="translate(0 0)" fill="#137f60"/><path d="M98.7,164.63V164c1.1-4.8,6-8.4,12-8.9a2.73,2.73,0,0,1,3,2.44v.86a3,3,0,0,1-2.7,2.9,6.12,6.12,0,0,0-6.2,4.3,2.66,2.66,0,0,1-2.5,1.9h-.8A2.88,2.88,0,0,1,98.7,164.63Z" transform="translate(0 0)" fill="#137f60"/><path d="M116.7,169.33v6a1.58,1.58,0,0,1-1.56,1.6H111.6a9.6,9.6,0,0,0-9.2,4.8,3.14,3.14,0,0,1-4.1,1.3,2.74,2.74,0,0,1-1.3-1.3c-4.4-6.3-10.9-6.7-15.8-.8a1.6,1.6,0,0,1-1.9.5L76.6,180a1.54,1.54,0,0,1-.66-2.09l.06-.11h0c4.1-7.8,14.7-9.3,23-3.5a1.66,1.66,0,0,0,2.1,0,15,15,0,0,1,8.6-3.5,1.83,1.83,0,0,0,1.4-1.4,1.55,1.55,0,0,1,1.6-1.4h2.9C116.1,167.73,116.7,168.43,116.7,169.33Z" transform="translate(0 0)" fill="#137f60"/><path d="M121.8,161.13a1.69,1.69,0,0,1-1.7-1.68v-2.52a1.69,1.69,0,0,1,1.68-1.7h2.42a1.69,1.69,0,0,1,1.7,1.68v2.52a1.69,1.69,0,0,1-1.68,1.7H121.8Z" transform="translate(0 0)" fill="#137f60"/><path d="M144.9,174.13l1.4,6a6.76,6.76,0,0,0-4.8,6,.2.2,0,0,1-.2.2h-5.1a2.13,2.13,0,0,1-1-.8c-1.9-5.9-6.3-7.1-11.3-2.9h-.2l-4.6-3.3v-.2c4-6.3,12.4-6.8,19-1.1h.2A15.16,15.16,0,0,1,144.9,174.13Z" transform="translate(0 0)" fill="#137f60"/><path d="M159,175.33V178a1.58,1.58,0,0,1-1.56,1.6H154.7a1.58,1.58,0,0,1-1.6-1.56v-2.74a1.58,1.58,0,0,1,1.56-1.6h2.74a1.58,1.58,0,0,1,1.6,1.56Z" transform="translate(0 0)" fill="#137f60"/><path d="M188.8,77.13a1.82,1.82,0,0,1,.13,2.57l-.13.13h0l-1.7,1.6a2,2,0,0,1-2.7-.2l-3.8-4.3a2,2,0,0,0-2.7-.2h0L160.6,94c-2.7,2.7-3.8,2.7-6.5,0l-10.9-10.9a1.82,1.82,0,0,0-2.57-.13.8.8,0,0,0-.13.13l-.2.2a2.91,2.91,0,0,1-1.1,1.1l-9.5,9.5a7.53,7.53,0,0,1-5.4,2.2,10.47,10.47,0,0,0-2.5.2c-3.2.6-4.8,3.2-4.8,7v43.6a1.9,1.9,0,0,1-1.9,1.9h-2.4a1.84,1.84,0,0,1-1.9-1.78v-.12h0v-40.1a27.9,27.9,0,0,1,.6-8.2,2,2,0,0,0-1.3-2.4c-.2,0-.3-.2-.6-.2H77.1a17.41,17.41,0,0,0-5.5.8,5.34,5.34,0,0,0-4.4,6v40.7a1.84,1.84,0,0,1-1.78,1.9H62.8a1.84,1.84,0,0,1-1.9-1.78v-.12h0v-40.1a32.19,32.19,0,0,1,1.3-6.3,2,2,0,0,0-.3-1.7c-4-4.1-7.9-8.1-12-12.2a1.82,1.82,0,0,0-2.57-.13l-.13.13L36.3,94.13c-2.7,2.7-4.1,2.7-6.5-.2C25,88.53,20.5,83,15.7,77.63a1.82,1.82,0,0,0-2.55-.33l-.15.13-.4.2-7,7.3A1.82,1.82,0,0,1,3,85.06a.8.8,0,0,1-.13-.13L1,83l.2-3c2.7-2.5,5.2-5.1,7.9-7.6l2.5-2.5c2.1-2.1,3.6-2.1,5.7.2,4.9,5.5,9.7,11.3,14.6,17l.2.2a2,2,0,0,0,2.7.2H35l9.7-9.7,1.6-1.6c1.9-1.7,3.5-1.7,5.2,0l14.7,14.7a2.65,2.65,0,0,0,3.2.8,27.06,27.06,0,0,1,7.4-1.4c15.5-.2,30.9,0,46.4,0a4,4,0,0,0,3-1.3l12.4-12.4c2.5-2.5,3.8-2.5,6.2,0l11.1,11.1a1.82,1.82,0,0,0,2.57.13.8.8,0,0,0,.13-.13l.2-.2,17.3-17.4c2.2-2.2,3.5-2.2,5.7,0Z" transform="translate(0 0)" fill="#137f60"/><path d="M81.7,61.93l44.4-44.4c2.4-2.4,3.6-2.4,6,0l13.3,13.3a3,3,0,0,0,4.24.16l.16-.16.2-.2c3.5-3.6,7-7.1,10.6-10.6a3.07,3.07,0,0,1,4.3-.67l.1.07.5.5,24.2,24.2c0,.2.2.2.2.3l-2.1,2.1a3,3,0,0,1-4.24.16,1.21,1.21,0,0,1-.16-.16l-17.9-17.9a2.85,2.85,0,0,0-4-.26l-.26.26h0l-6.8,6.8a3,3,0,0,0-.26,4.23l.06.07h.2l2.4,2.2a3,3,0,0,1,.16,4.24,1.21,1.21,0,0,1-.16.16h0l-.2.2a3.1,3.1,0,0,1-4.3-.2l-22.2-22.2a1.57,1.57,0,0,0-2.2,0h0L87,65a3.21,3.21,0,0,1-4.3,0l-1.1-1.1A1.52,1.52,0,0,1,81.7,61.93Z" transform="translate(0 0)" fill="#137f60"/></svg>