<svg id="Layer_1" data-name="Layer 1" xmlns="http://www.w3.org/2000/svg"
    viewBox="0 0 189.95 150.04">
    <title>icon_1</title>
    <path
        d="M177.9,54.27a7.5,7.5,0,0,1-3-5.6A33.76,33.76,0,0,0,145.6,19a28.63,28.63,0,0,0-18.4,4,3.45,3.45,0,0,0-1.3,1.1,3.06,3.06,0,0,0,.77,4.26l.23.14A3.85,3.85,0,0,0,131,28a24.56,24.56,0,0,1,27.6,2.9,28.78,28.78,0,0,1,10.5,22.2,3.86,3.86,0,0,0,1.9,3.8c9.2,5.2,13,13.5,12.7,23.8a23.7,23.7,0,0,1-17.9,22.2,4.52,4.52,0,0,0-3.5,2.9,22.64,22.64,0,0,1-12.5,11.1,29.34,29.34,0,0,1-3.2.8,2.75,2.75,0,0,1-.2-1.1V91.17a4.86,4.86,0,0,1,1.1-2.4c4.6-4.3,9.2-8.4,13.8-12.7,1.7-1.6,1.9-3.3.6-4.8s-3.2-1.4-4.9.2c-2.9,2.5-5.6,5.1-8.4,7.6l-2.4,2.2V61.07c0-2.7-1.9-4.3-4-3.5-1.7.6-2.2,2.1-2.2,3.8v37.1c-1-.8-1.4-1.3-1.9-1.7-3-2.7-5.9-5.6-9-8.2a4,4,0,0,0-3.3-.8,3.3,3.3,0,0,0-1.9,2.4,4.52,4.52,0,0,0,1.4,3.2c4.4,4.3,9,8.4,13.6,12.7.5.5,1.1,1.1,1.1,1.6v10.2c-.2,0-.5.2-.6.2a2,2,0,0,1-1-.2,23,23,0,0,1-15.4-12.1,5.13,5.13,0,0,0-3.2-2.7c-10.3-3.2-15.9-10.3-17.1-20.6-1.3-10,2.2-18.4,10.6-24.3a6,6,0,0,0,2.9-4.9A28.48,28.48,0,0,1,121.4,37c1.3-2.1,1.1-3.8-.5-4.9s-3.3-.5-4.6,1.4a35.76,35.76,0,0,0-6.2,18.1,2.73,2.73,0,0,1-1,1.9,30.69,30.69,0,0,0-12.7,23c-1.3,14,6.8,27.6,20,32a3,3,0,0,1,1.7,1.3,29.65,29.65,0,0,0,22,14.8v18.7c-1.4.6-1.9.2-2.1-1.3a19.58,19.58,0,0,0-12.4-15.7,4.41,4.41,0,0,1-1.9-1.7,19.32,19.32,0,0,0-10.8-8.6,3.15,3.15,0,0,1-1.7-1.7c-2.7-7.5-7.8-11.9-15.5-13-7.5-1-13.3,2.1-17.8,8.1a2.89,2.89,0,0,1-1.9,1.1,19.61,19.61,0,0,0-13.5,7.6,11.54,11.54,0,0,0-1,1.1A16.54,16.54,0,0,0,48.2,109v-7.9a1.22,1.22,0,0,1,.5-.3,1.68,1.68,0,0,1,1-.3A26.88,26.88,0,0,0,67,88.77a7.1,7.1,0,0,1,4.3-3.3c20.5-7.1,25.7-35.7,9.2-50.3A14.87,14.87,0,0,1,75.3,26C71.7,11.07,58.3-1,42,.07a28.78,28.78,0,0,0-15.5,5.7.2.2,0,0,0-.2.2h0a3.17,3.17,0,0,0-.8,4.3l.2.2a3.07,3.07,0,0,0,4.3.67l.1-.07a3.29,3.29,0,0,1,1-.6,23.25,23.25,0,0,1,27.4.8,27.22,27.22,0,0,1,10.9,21.6A4.12,4.12,0,0,0,71.5,37c9.4,5.6,13,14.1,11.7,24.6a22.4,22.4,0,0,1-17,19.2,5.84,5.84,0,0,0-3.2,2.4,22.12,22.12,0,0,1-7.8,8.6c-2.2,1.3-4.6,2.2-7.1,3.5a3.5,3.5,0,0,1-.2-1.4V69.77a3.87,3.87,0,0,1,1.1-2.1c4.1-3.8,8.2-7.6,12.4-11.4,2.4-2.2,2.9-4,1.3-5.6-1.4-1.6-3.2-1.3-5.6,1l-9.2,8.4V41.17a6.5,6.5,0,0,0-.3-2.4,3.11,3.11,0,0,0-5.9.5v36.6c-.8-.8-1.3-1.1-1.7-1.6-2.7-2.4-5.4-4.9-8.1-7.3a6.92,6.92,0,0,0-1.7-1.3A2.92,2.92,0,0,0,26.6,67a3.08,3.08,0,0,0,.78,4.29h0c4.4,4.1,8.9,8.1,13.3,12.2.5.5,1.1,1.1,1.1,1.6v9.5h-.6a1.19,1.19,0,0,1-.8-.2A21.07,21.07,0,0,1,26,83a6.69,6.69,0,0,0-3.6-3,20.92,20.92,0,0,1-6.2-2.9C2.7,67.87,3,46.27,17,37.37A4.46,4.46,0,0,0,19.5,33a28.68,28.68,0,0,1,3.2-13c1.1-2.1.6-3.8-1.1-4.8s-3.3-.3-4.4,1.9a39.17,39.17,0,0,0-4,13.8,3.59,3.59,0,0,1-1.3,2.2A28.63,28.63,0,0,0,1.1,49.27,41.67,41.67,0,0,0,0,54.07v6.8A109.68,109.68,0,0,0,4.1,73a26.87,26.87,0,0,0,15.1,12.8,2.29,2.29,0,0,1,1.7,1.3,28.11,28.11,0,0,0,20.9,14.1c0,2.7.2,5.4,0,8.1a2.53,2.53,0,0,1-1,1.3,17.54,17.54,0,0,0-6.7,5.4,2.74,2.74,0,0,1-1.7,1,16.4,16.4,0,0,0-13.5,12.1,2.7,2.7,0,0,1-1.6,1.7,19.8,19.8,0,0,0-9.4,11.1c-.5,1.4-.3,1.1-.5,1.4a18.18,18.18,0,0,0-.8,2.5c-.2.6,0,.8.2,2.1a4.45,4.45,0,0,0,4.6,2.1H146.1l-.2-6.2v-19a1.22,1.22,0,0,1,.5-.3,28.64,28.64,0,0,0,20.3-14.3,3.31,3.31,0,0,1,1.6-1.1c12.1-3.8,18.9-12.2,20.9-24.3A29.66,29.66,0,0,0,177.9,54.27ZM13.7,143.47A12.85,12.85,0,0,1,21,136a4.92,4.92,0,0,0,3.6-4.6,9.34,9.34,0,0,1,9.4-8.2,4.46,4.46,0,0,0,4.6-2.9,9.3,9.3,0,0,1,17.3,3.2,3.69,3.69,0,0,0,3.5,3.6,10.18,10.18,0,0,1,7.6,5.7,5.73,5.73,0,0,0,2.7,2.4,10.76,10.76,0,0,1,7.5,8.4H13.7Zm115.8.2H85.7c-1.6,0-2.1-.5-2.4-2.1a16.64,16.64,0,0,0-9.7-11.9,11.09,11.09,0,0,1-2.1-1.7q-2.4-2.55-4.8-5.4a11.81,11.81,0,0,1,10.6-5.7,4.7,4.7,0,0,0,4.9-3,12,12,0,0,1,12.5-6.3,12.42,12.42,0,0,1,10.3,10.2c.5,3,1,3.5,4,4a11.73,11.73,0,0,1,9.2,7,5.23,5.23,0,0,0,3.6,3.2,13.07,13.07,0,0,1,9.4,11.6A8.05,8.05,0,0,1,129.5,143.67Z"
        transform="translate(0 0)" fill="#177f57" />
</svg>