<svg id="Layer_1" data-name="Layer 1" xmlns="http://www.w3.org/2000/svg" viewBox="0 0 228 228"><rect x="1.5" y="1.5" width="225" height="225" rx="85" fill="#051911" stroke="#666" stroke-miterlimit="10" stroke-width="3"/><path d="M149.46,115.77a54.13,54.13,0,0,0-9.24-21.36c-3-4.3-6.22-8.5-9.19-12.86-3.45-5-5.79-10.62-5.79-16.84a2.66,2.66,0,0,0-1.6-2.71l-1.27.11-.74.58a53.89,53.89,0,0,0-17.69,22.9c-2.61,6.38-3.35,13.12-3.78,19.92-.16,2.18-.16,4.47-.26,6.75a10,10,0,0,1-4.2-2A15.66,15.66,0,0,1,91.34,104c-.74-2-1.32-4-1.86-6.06s-1.91-2.71-3.71-1.59c-.27.16-.59.42-.85.58a19.62,19.62,0,0,0-6,7.6,44.11,44.11,0,0,0-3.14,29.27c3.61,14.66,13,24,27.52,28,2.13.58,4.36.74,6.59,1.17h5.15l2.55-.32c12.81-2,22.21-8.66,28.37-19.92C150.69,134,151.16,125,149.46,115.77ZM124.6,149.13a12.46,12.46,0,0,1-11.21,9.35,11.21,11.21,0,0,1-8-2.34c-6.16-4.51-6.37-12.85-4-18.33.31.59.69,1.12,1,1.6a7.25,7.25,0,0,0,5.32,3.29,2.25,2.25,0,0,0,2.76-2.44c.16-2.76.27-5.63.69-8.4.48-3.29,2.18-6.05,4.3-8.76.16.42.27.74.43,1.17.9,1.7,1.86,3.45,2.87,5.15,1.17,1.86,2.55,3.61,3.61,5.47C124.81,139.3,126,144.08,124.6,149.13ZM146,128c-1.28,12.7-8,21.89-19.45,27.52a.21.21,0,0,0-.16.1,54.65,54.65,0,0,0,2.45-6.37A21.77,21.77,0,0,0,125.93,133,68,68,0,0,0,122,127a15,15,0,0,1-3-8.18,2.08,2.08,0,0,0-.58-1.54,1.93,1.93,0,0,0-2.87,0,23.46,23.46,0,0,0-8.82,15c-.27,1.6-.32,3.3-.75,5-.31-.74-.85-1.54-1.11-2.34a10.68,10.68,0,0,1-.48-1.91,2.9,2.9,0,0,0-.42-1,2.11,2.11,0,0,0-2.93-.42,10.16,10.16,0,0,0-3.87,5.47c-2,6.37-1.92,12.69,2.12,18.59-.27-.11-.48-.16-.74-.26-10.84-5.48-17.43-14-19-26.09a40.15,40.15,0,0,1,3.34-22.95,45.82,45.82,0,0,1,3.14-5c1,2.29,1.75,4.31,2.76,6.22A16.92,16.92,0,0,0,95.81,115a12.41,12.41,0,0,0,6,1.54c1.75,0,2.44-.69,2.55-2.44.1-3.61.16-7.22.32-10.78.58-13.66,6-25,16-34.32.26-.27.53-.43.69-.59.69,2.34,1.17,4.62,2,6.91,1.75,4.78,4.72,8.92,7.65,13.12,3.13,4.36,6.32,8.66,9.08,13.23A43.1,43.1,0,0,1,146,128Z" transform="translate(1.5 1.5)" fill="#bdc3c7"/></svg>