<svg id="Layer_1" data-name="Layer 1" xmlns="http://www.w3.org/2000/svg" viewBox="0 0 228 228"><rect x="1.5" y="1.5" width="225" height="225" rx="85" fill="#051911" stroke="#666" stroke-miterlimit="10" stroke-width="3"/><path d="M109.27,63.42h0a2,2,0,1,1,4,0,2,2,0,0,1-2,2A1.9,1.9,0,0,1,109.27,63.42Z" transform="translate(1.5 1.5)" fill="#bdc3c7"/><path d="M121.08,123.29a2,2,0,1,1-2,2,2,2,0,0,1,2-2Z" transform="translate(1.5 1.5)" fill="#bdc3c7"/><path d="M132.45,79.86a2.05,2.05,0,0,1-2.21-1.93v-.28a2.1,2.1,0,0,1,2.21-1.93,2.13,2.13,0,0,1,1.93,1.93A2.17,2.17,0,0,1,132.45,79.86Z" transform="translate(1.5 1.5)" fill="#bdc3c7"/><path d="M160.14,84.94a11.1,11.1,0,0,0-3.47-5.69,20.13,20.13,0,0,0-12.25-5.07A1.47,1.47,0,0,1,142.93,73a18.51,18.51,0,0,0-9.71-10.59,28.91,28.91,0,0,0-13.3-2.38c-1.6.11-2.43.89-2.43,2.1s.94,2,2.43,2c1.82.11,3.7.11,5.41.27,7.5.77,12.58,5.13,14.51,12.14,1.16,4.3.72,8.66.33,13-.61,8.11-1.16,16.17-1.65,24.28a39.1,39.1,0,0,1-.78,6.12c-1.76,7.45-6.4,12.86-12.85,16.72C114.4,143,103,144.75,91,142.82c-2.2-.33-4.36-1.16-6.73-1.77.77-1.05,1.33-1.93,1.93-2.65a3.13,3.13,0,0,1,1.33-.71c3.25-.28,6.56-.33,9.76-.72a53.45,53.45,0,0,0,17.49-5.08c.11,0,.11,0,.17-.11a2,2,0,0,0,1-2.7c-.55-1.16-1.66-1.38-3-.88-1,.55-2,.93-3,1.38a57.65,57.65,0,0,1-19.2,3.86A41.68,41.68,0,0,1,80,133a15.2,15.2,0,0,1-6.84-3.15c.17-.11.44-.16.61-.27,5.4-1.6,9.32-5.08,12.58-9.61a2.06,2.06,0,0,0,.27-2.37,1.92,1.92,0,0,0-2-1,12.48,12.48,0,0,1-8.22-2.81c-.34-.28-.61-.55-.89-.77l.17-.17,2-.33A25.83,25.83,0,0,0,92,106.07a55.52,55.52,0,0,0,6-6.46c3.47-3.91,7.55-6.73,13.07-7.22a15.19,15.19,0,0,1,16.17,11.2c1.21,5.07.16,9.71-2.37,14.18-.78,1.32-.61,2.54.44,3.14s2.26.28,3-1.16a23.37,23.37,0,0,0,3.31-10.2C133,94.54,119.87,86,108,88.63c-.77.17-1.65.45-2.65.72.11-.55.17-.88.28-1.32a43.82,43.82,0,0,1,4-11.2c.77-1.49.71-2.38-.61-3.31-1.93-1.49-3.92-2.71-6-4a6.38,6.38,0,0,1-.77-.55c.77-.45,1.49-.78,2.21-1.16a2.1,2.1,0,0,0,.88-2.71h0a2.16,2.16,0,0,0-2.7-.88,19,19,0,0,0-2.82,1.49,14.47,14.47,0,0,0-3,2.81,2,2,0,0,0,.94,3.15c.33.17.77.28,1.16.44a25.48,25.48,0,0,1,6.62,3.75A45.46,45.46,0,0,0,101,91.12a.84.84,0,0,1-.44.71c-2.87,1.94-5,4.53-7.17,7.18-3.14,3.86-6.84,7-11.7,8.27a45.63,45.63,0,0,1-8.38,1.6c-3.48.34-3.7,2.27-2.43,4.64a8.64,8.64,0,0,0,1.93,2.54,47.1,47.1,0,0,0,5,3.25,18.84,18.84,0,0,0,3,1.16,5.74,5.74,0,0,1-.55.72c-2.81,3-6.45,4.52-10.48,5.35-2.37.44-2.87,1.93-1.6,3.86a14.44,14.44,0,0,0,6.29,5.08c2.26.88,4.74,1.6,7.06,2.26-.11.17-.33.44-.55.77L65.52,159.76c-1.38,1.93-1,3.25,1.21,3.91,1.66.56,3.31.89,5.08,1.33h4.36c2.37-.44,4.63-1.05,6.89-1.66,7.89-2.81,13.63-8.05,18.38-14.78a2.34,2.34,0,0,1,1.76-1.05,51.85,51.85,0,0,0,19.87-5.08c6.84-3.31,12.47-7.94,16.16-14.79,2.54-4.8,3.31-10,3.48-15.28.27-6.18.77-12.41,1.21-18.59a1.09,1.09,0,0,1,.94-1.16c4.52-1.49,9-3,13.57-4.53C160.14,87.48,160.59,86.7,160.14,84.94ZM70.21,160.53a3.58,3.58,0,0,1,.55-.77l10.65-14.68c.33-.44.55-.77,1.21-.44a36.69,36.69,0,0,0,13.3,3,5.16,5.16,0,0,1,.94.17C90.29,156.83,79.2,162.63,70.21,160.53Zm74.37-72.12V78.21c4.53.71,8.56,2.2,11.26,6.4Z" transform="translate(1.5 1.5)" fill="#bdc3c7"/></svg>