<svg id="Layer_1" data-name="Layer 1" xmlns="http://www.w3.org/2000/svg" viewBox="0 0 145.78 190.04"><title>icon_8</title><path d="M142.76,98.34a36.36,36.36,0,0,0-22.1,2.2c-2.1,1-4,2.1-6,3-7.3-7.1-14.4-14.4-21.6-21.7a3.25,3.25,0,0,1-.8-2.1c-.2-5.2,0-10.6-.2-15.9a1.74,1.74,0,0,1,1.3-1.9c2.4-1,4.6-2.1,7-3,6-2.7,12.1-5.4,18.1-8.1,2.9-1.3,3.2-3.8.8-5.9-.8-.6-1.6-1.3-2.4-1.9l-10.2-8.1,1.3-1.4,8.7-8.7h0a3,3,0,0,0,.16-4.24,1.21,1.21,0,0,0-.16-.16l-.2-.2a3.1,3.1,0,0,0-4.3.2c-4.3,4.1-8.4,8.4-12.5,12.5l-.5.5a3.09,3.09,0,0,0,.8,4.3h0a18.17,18.17,0,0,0,2.1,1.6l9.7,7.8-20.3,8.7c-.6-3-1-5.7-1.7-8.4-1.7-6.3-4-12.2-9.5-16.3a1.69,1.69,0,0,1-.5-1.6,28.26,28.26,0,0,1,4.8-12.4,10.09,10.09,0,0,1,6-4.1c7.8-2.1,15.6-4.1,23.3-6.2,3-.8,4.1-2.5,3.5-4.4S115,0,112.16.84q-11.4,3.15-22.8,6a15.44,15.44,0,0,0-7.8,4.3c-4.3,4.4-6.2,9.8-7.5,15.7a12.7,12.7,0,0,1-.6,1.9,5.11,5.11,0,0,1-1-2.1A116.66,116.66,0,0,0,68.06,15a15.67,15.67,0,0,0-10-8.3c-8.3-2.2-16.5-4.4-24.6-6.5a5.28,5.28,0,0,0-2.2-.2,2.77,2.77,0,0,0-2.2,2.7,3.22,3.22,0,0,0,2.7,3.2c7.8,2.2,15.7,4.3,23.6,6.3a10.52,10.52,0,0,1,6.8,4.6,29,29,0,0,1,4.4,12.1,2.41,2.41,0,0,1-.6,1.6A23.72,23.72,0,0,0,57.66,43a116.09,116.09,0,0,0-3,12.2L35,46.84l2.2-1.9c3.2-2.5,6.2-4.9,9.2-7.5.2-.2.5-.3.6-.5a3,3,0,0,0-.13-4.24l-.07-.06c-4.1-4.3-8.4-8.6-12.7-12.7l-.2-.2a3.25,3.25,0,0,0-2.1-.8,2.85,2.85,0,0,0-2.2,1,3,3,0,0,0-.16,4.24l.16.16c1.6,1.7,3.3,3.3,5.1,5.1s3.5,3.3,5.2,5.1l-12.4,9.8c-3,2.5-2.7,4.9.8,6.5,8.4,3.9,16.5,7.4,24.4,11a2.06,2.06,0,0,1,1.4,2.4c-.2,5.2,0,10.3-.2,15.6a3.65,3.65,0,0,1-1.1,2.5c-6.3,6.5-12.9,13-19.4,19.5a11.09,11.09,0,0,0-1.7,2.1l-1.9-1.1A36.48,36.48,0,0,0,10,97.64a61.11,61.11,0,0,0-7.5,1h-.3a3.1,3.1,0,0,0-2.1,3.6,3.21,3.21,0,0,0,3.5,2.4c.5,0,1-.2,1.4-.2a30.11,30.11,0,0,1,23.8,5.4c2.5,1.7,3.6,1.7,5.7-.5L52,91.84c.5-.5,1-.8,1.6-1.4.5,3.5.8,6.7-2.4,9a7.7,7.7,0,0,0-1.6,1.9c-7.8,11.4-9.4,23.6-5.7,36.8,1.9,6.8,5.7,12.7,9,18.7,2.4,4.1,4.9,8.1,7.5,12.4-.6-.2-1.3-.3-1.7-.5l-12.2-3.5c-3.5-1-4.9-.2-5.4,3.3-1,5.6-1.7,11.1-2.9,16.7a4,4,0,0,0,1.9,4.8h1.7c1.9-.8,2.2-2.5,2.5-4.4.6-4,1.3-8.1,1.9-12.1.2-.5.3-1.1.5-1.7,5.1,1.4,10.2,2.9,15.1,4.4a1.79,1.79,0,0,1,1.1,1.3c.2,4.1,0,8.3,0,12.4h19.2v-12.4a1.81,1.81,0,0,1,1.1-1.3c5.1-1.6,10-2.9,15.2-4.4.8,4.6,1.6,9.2,2.2,13.8.3,1.7.6,3.5,2.5,4.4H105c1.3-.8,2.4-1.9,2.2-3.6-1-6.3-2.1-12.9-3.2-19.2a.54.54,0,0,0-.2-.5,3,3,0,0,0-3.6-2.1,12.61,12.61,0,0,0-2.1.6L84.56,169c.3-.5.3-.8.5-1,4.1-7,8.1-13.8,12.1-20.8a42.7,42.7,0,0,0,5.9-19.7c.5-11.6-2.5-22.1-10.9-30.6a2,2,0,0,1-.6-1.3v-5.9l1.9,1.7,17.6,17.6c1.9,1.9,3.2,2.1,5.1.6a31.21,31.21,0,0,1,25.1-5.7c2.4.5,4-.5,4.3-2.4C146.26,100.24,145.16,98.84,142.76,98.34Zm-79.2,63a17.77,17.77,0,0,0-1.3-1.7c-3.8-7-8.1-14-11.1-21.3a34.3,34.3,0,0,1,1.9-29.8c.5-.8,1-1.7,1.7-2.9.6,3.6,1.1,6.8,1.7,9.8,1.6,8.1,3.6,16.2,5.1,24.3,1.1,6.5,1.3,13.3,1.9,19.8A2.26,2.26,0,0,1,63.56,161.34Zm17.8-37.8a157.54,157.54,0,0,0-4.9,40.5v19.8h-6.2v-2.2c-.2-7.8,0-15.6-.2-23.3a180,180,0,0,0-6-40.1,112,112,0,0,1-3.3-25.9c0-8.6-.2-17.3,0-25.9a61.68,61.68,0,0,1,3.3-21.3,24.6,24.6,0,0,1,4-7c3.2-4,7.5-3.8,10.8,0a23.48,23.48,0,0,1,4.6,9.2A72.8,72.8,0,0,1,86,66.54v25.2a132,132,0,0,1-4.6,31.8Zm15.6-4.6a35.84,35.84,0,0,1-3.3,23.2c-3,6-6.5,11.9-9.8,17.8-.2.3-.5.6-1,1.3-.6-19.4,5.4-37.1,8.6-55.7a34.07,34.07,0,0,1,5.5,13.4Z" transform="translate(0.01 0)" fill="#137f60"/></svg>