<svg id="Layer_1" data-name="Layer 1" xmlns="http://www.w3.org/2000/svg" viewBox="0 0 190.17 185.34"><title>icon_2</title><path d="M133.19,37.3a20.65,20.65,0,0,0-19.8-21.4,2.19,2.19,0,0,1-1.6-.9,17.58,17.58,0,0,0-19.9-8,2,2,0,0,1-1.5-.4,14.38,14.38,0,0,0-9-6.6H77a13.25,13.25,0,0,0-9.3,7.6,14,14,0,0,0-12.9.7,14.62,14.62,0,0,0-7.2,10.8,15,15,0,0,0-11.7,4.2,14.49,14.49,0,0,0-4,11.5c-.7,0-1.1.2-1.6.2a15.73,15.73,0,0,0-13.7,11.3,2.57,2.57,0,0,1-2.1,1.9,19.17,19.17,0,0,0-9,32c-3.7,7.9-3,14.5,2.3,19.8h0a2,2,0,0,1,.4,2.8h0l-.2.4a19,19,0,0,0,9.2,25.1,67.25,67.25,0,0,1,7.3,5.6,25.55,25.55,0,0,0,16.2,8.7V184c2.1,1.9,4.1,1.6,6.7.2V144c0-.5.8-1.2,1.4-1.4a50.12,50.12,0,0,0,5.5-1.6c3-1.5,5.8-3.3,8.6-4.9a63.72,63.72,0,0,0,7.6,4.6c14.1,6.2,27.1-1.1,30.3-12.7a2.63,2.63,0,0,1,1.6-1.3,19.31,19.31,0,0,0,4.6-1.6,19.11,19.11,0,0,0,8.4-25.7h0a3.58,3.58,0,0,1,0-2.5,18.85,18.85,0,0,0,2-9,2.61,2.61,0,0,1,1-2,15.66,15.66,0,0,0,2.4-1.9,19.16,19.16,0,0,0,1-27.09l-.1-.11h0a10.63,10.63,0,0,1-.8-1.1l.5-.4A20.89,20.89,0,0,0,133.19,37.3Zm-20.8,13.5h-1.8a3.13,3.13,0,0,0-.9,5.9,12.7,12.7,0,0,0,1.9.6,13,13,0,0,1,8.9,11.9,12.61,12.61,0,0,1-7.5,12c-2.7,1.3-3.1,2.1-2.4,5a9.76,9.76,0,0,1-2,8.7c-1.7,2.1-1.7,3-.1,5.3a12.74,12.74,0,0,1-9.8,20.2c-2.4.1-3.3.9-3.7,3.2-1.6,9.4-9.4,14.3-18.7,12A19.72,19.72,0,0,1,66,129.2c-2.4-2.8-4-2.8-6.4,0a19.14,19.14,0,0,1-12.3,6.7c.6-2.7,1.3-5.4,2.1-8a39.06,39.06,0,0,1,23.2-23c.4-.2.9-.3,1.3-.5h.2a3.2,3.2,0,0,0-1.6-6.2,3.64,3.64,0,0,0-.9.4A45.6,45.6,0,0,0,51,112.8l-1.8,2.1c.5-4.2.8-8,1.3-11.6.7-4.8,1.6-9.6,2.1-14.3a14,14,0,0,1,3.3-7.3,68.56,68.56,0,0,1,17.3-14.9,9.27,9.27,0,0,0,1.6-1.1,3,3,0,0,0,.8-4.1h0a3,3,0,0,0-4.1-1.1h0a64.93,64.93,0,0,0-6.4,4.1c-2.9,2.1-5.6,4.3-8.8,6.9,1.2-3.7,2-6.9,3.1-10A79.28,79.28,0,0,1,72,37c.2-.2.4-.5.6-.7a3.18,3.18,0,0,0-5.5-3.2,72.68,72.68,0,0,0-10.8,18.7,181.87,181.87,0,0,0-10.7,40.3c-.7,4.2-1.2,8.3-1.9,13.1a9.41,9.41,0,0,1-1.2-2.2c-1.5-4.6-2.9-9.1-4.4-13.7a1.23,1.23,0,0,1-.1-.6h0a3.26,3.26,0,0,0-3.58-2.9H34a3.1,3.1,0,0,0-2.3,3.7c1.4,8.7,4.1,16.8,9.9,23.6a3.81,3.81,0,0,1,1,3.2c-.5,5.9-.9,11.9-1.3,17.8a14.77,14.77,0,0,0-.1,2.1,17.66,17.66,0,0,1-13.5-9,7.25,7.25,0,0,0-5.4-4,12.6,12.6,0,0,1-7.1-19.9h0c2.4-3.1,2.2-4.3-1.2-6.4a8.64,8.64,0,0,1-1.2-.8,9.38,9.38,0,0,1-1.31-13.19h0c2.4-3,2.3-4-.7-6.4a12.81,12.81,0,0,1-1.6-18,13,13,0,0,1,9-4.6c2.7-.2,3.6-1,3.9-3.7a7.6,7.6,0,0,1,.6-2.9,9.42,9.42,0,0,1,12-5.6,3.47,3.47,0,0,0,4-.7,3.3,3.3,0,0,0,.2-4,7.92,7.92,0,0,1,3.2-10.7,7.74,7.74,0,0,1,7.1-.2c3.2,1.2,5.2-.4,4.8-3.8a8,8,0,0,1,3.8-8.6c3-1.7,6.2-1.2,9.4,1.1a5,5,0,0,0,3.6.8c1.6-.3,1.9-1.9,2.1-3.5a4.08,4.08,0,0,1,.5-1.9A6.2,6.2,0,0,1,81.5,6.86l.09,0a6,6,0,0,1,3.7,4.7c.7,3.5,2.5,4.4,5.7,2.7a8,8,0,0,1,1.6-.8,11,11,0,0,1,14.2,6.1v.1a3.85,3.85,0,0,0,4.5,2.6h1.6a14.25,14.25,0,1,1,.1,28.5Z" transform="translate(-0.02 0)" fill="#137f60"/><path d="M145.69,117.7a10,10,0,0,1,3.1,7.9,10.61,10.61,0,0,1-10.4,10.8h-31.5a1.55,1.55,0,0,1-1.7-.9,1.47,1.47,0,0,1,.7-1.9l.3-.1h.9c10.2,0,20.4-.1,30.5,0a8.15,8.15,0,0,0,8.3-8h0a7.36,7.36,0,0,0-.8-3.6,6,6,0,0,0-7.8-2.9l-.5.3a3.55,3.55,0,0,0-1.8,3.9,3.28,3.28,0,0,0,2.9,2.6,4.83,4.83,0,0,0,1.2.1c.2,0,.4-.2.6-.3-.2-.2-.3-.5-.5-.5a1.45,1.45,0,0,1-1.4-1.5h0v-.1h0a1.6,1.6,0,0,1,1.76-1.41h.14a3.51,3.51,0,0,1,2.9,3.3,3.41,3.41,0,0,1-2.8,3.3,6.86,6.86,0,0,1-7.7-4.8,6.61,6.61,0,0,1,4.1-7.7A8.55,8.55,0,0,1,145.69,117.7Z" transform="translate(-0.02 0)" fill="#137f60"/><path d="M136.39,12.6c0-2,1.4-3.2,3.8-3.2h23.9c2.5,0,3.9,1.2,3.9,3.2s-1.5,3.2-4,3.2h-23.7C137.79,15.8,136.39,14.6,136.39,12.6Z" transform="translate(-0.02 0)" fill="#137f60"/><path d="M169.29,68.6a41.47,41.47,0,0,0-2.4-8.3,17.56,17.56,0,0,0-12.2-10.6,25.57,25.57,0,0,0-15.2,1.1,4.18,4.18,0,0,0-3,4.6,36,36,0,0,0,1.3,6.5,19.8,19.8,0,0,0,18.7,14.5c3.1-.6,5.9-1.1,9-1.9S169.89,71.7,169.29,68.6Zm-26.4-12.1h0c9.7-3.6,18.6,1.6,19.7,12.1C154.49,71.8,144.79,68.3,142.89,56.5Z" transform="translate(-0.02 0)" fill="#137f60"/><path d="M134.19,85.6h33c2.5,0,4,1.2,4,3.2s-1.5,3.2-3.9,3.2h-33.2c-2.6,0-3.9-1.1-4-3.2S131.59,85.6,134.19,85.6Z" transform="translate(-0.02 0)" fill="#137f60"/><path d="M146.19,28.5h39.6a5.11,5.11,0,0,1,4.2,1.6v3.2a5.57,5.57,0,0,1-4.2,1.6h-38.9c-2.4,0-3.7-.9-4-2.7a3.1,3.1,0,0,1,2.54-3.58l.16,0C145.79,28.6,146,28.5,146.19,28.5Z" transform="translate(-0.02 0)" fill="#137f60"/><path d="M174.89,96.6c-8.1-1-14,3-18.6,9.3-4.2,5.7-3.7,8,2.2,11.8,10.5,6.9,21.3,5.1,28.9-5,1-1.4,1.9-2.9,2.8-4.3v-3.6A22.87,22.87,0,0,0,174.89,96.6Zm-14.5,14.6c5.4-9.8,15.6-10.7,22.9-4.1C178.49,116.2,168.69,118.4,160.39,111.2Z" transform="translate(-0.02 0)" fill="#137f60"/></svg>