<svg id="Layer_1" data-name="Layer 1" xmlns="http://www.w3.org/2000/svg" viewBox="0 0 142.54 190.1"><title>icon_9</title><path d="M140.85,101.2A101.89,101.89,0,0,0,123.45,61c-5.7-8.1-11.7-16-17.3-24.2-6.5-9.5-10.9-20-10.9-31.7a5,5,0,0,0-3-5.1l-2.4.2-1.4,1.1a101.57,101.57,0,0,0-33.3,43.1c-4.9,12-6.3,24.7-7.1,37.5-.3,4.1-.3,8.4-.5,12.7a18.74,18.74,0,0,1-7.9-3.8,29.26,29.26,0,0,1-8.2-11.7c-1.4-3.8-2.5-7.6-3.5-11.4s-3.6-5.1-7-3c-.5.3-1.1.8-1.6,1.1A37.24,37.24,0,0,0,8.15,80.1a83.15,83.15,0,0,0-5.9,55.1c6.8,27.6,24.5,45.1,51.8,52.7,4,1.1,8.2,1.4,12.4,2.2h9.7l4.8-.6c24.1-3.8,41.8-16.3,53.4-37.5C143.15,135.5,144.05,118.6,140.85,101.2ZM94.05,164A23.48,23.48,0,0,1,73,181.6a21.21,21.21,0,0,1-15-4.4c-11.6-8.5-12-24.2-7.6-34.5.6,1.1,1.3,2.1,1.9,3a13.66,13.66,0,0,0,10,6.2c3.3.3,5.1-1.3,5.2-4.6.3-5.2.5-10.6,1.3-15.8.9-6.2,4.1-11.4,8.1-16.5.3.8.5,1.4.8,2.2,1.7,3.2,3.5,6.5,5.4,9.7,2.2,3.5,4.8,6.8,6.8,10.3C94.45,145.5,96.75,154.5,94.05,164Zm40.2-39.7c-2.4,23.9-15,41.2-36.6,51.8a.38.38,0,0,0-.3.2c1.4-3.8,3.6-7.8,4.6-12,2.5-10.9.2-21.2-5.4-30.7a128.24,128.24,0,0,0-7.4-11.2c-3.2-4.6-5.5-9.5-5.7-15.4a3.9,3.9,0,0,0-1.1-2.9,3.64,3.64,0,0,0-5.14-.26l-.26.26a44.21,44.21,0,0,0-16.6,28.3c-.5,3-.6,6.2-1.4,9.5-.6-1.4-1.6-2.9-2.1-4.4a20.39,20.39,0,0,1-.9-3.6,5.24,5.24,0,0,0-.8-1.9,4,4,0,0,0-5.5-.8,19.28,19.28,0,0,0-7.3,10.3c-3.8,12-3.6,23.9,4,35-.5-.2-.9-.3-1.4-.5-20.4-10.3-32.8-26.4-35.8-49.1a75.49,75.49,0,0,1,6.3-43.2,83.06,83.06,0,0,1,5.9-9.5c1.9,4.3,3.3,8.1,5.2,11.7a31.89,31.89,0,0,0,13.3,13.9,23.33,23.33,0,0,0,11.2,2.9c3.3,0,4.6-1.3,4.8-4.6.2-6.8.3-13.6.6-20.3,1.1-25.7,11.2-47,30.1-64.6.5-.5,1-.8,1.3-1.1,1.3,4.4,2.2,8.7,3.8,13,3.3,9,8.9,16.8,14.4,24.7C112,58,118,66.1,123.15,74.7a81.09,81.09,0,0,1,11.1,49.6Z" transform="translate(0 0)" fill="#137f60"/></svg>