<svg id="Layer_1" data-name="Layer 1" xmlns="http://www.w3.org/2000/svg" viewBox="0 0 190.09 176.4"><title>icon_3</title><path d="M29.4,75.7a2,2,0,0,1,1.91,2.09s0,.07,0,.11a1.92,1.92,0,0,1-1.92,1.92l-.28,0A2.19,2.19,0,0,1,27,77.6,2.58,2.58,0,0,1,29.4,75.7Z" transform="translate(0.01 0)" fill="#137f60"/><path d="M63.8,69A2.18,2.18,0,0,1,66,70.9h0A2.27,2.27,0,0,1,63.8,73a2.15,2.15,0,0,1-2.1-1.9A2.18,2.18,0,0,1,63.8,69Z" transform="translate(0.01 0)" fill="#137f60"/><circle cx="68.81" cy="75.8" r="2.1" fill="#137f60"/><path d="M75.4,25.2a2,2,0,0,1,2.1,1.7v.3a2,2,0,0,1-2.1,1.9h0A2.19,2.19,0,0,1,73.2,27h0A2.28,2.28,0,0,1,75.4,25.2Z" transform="translate(0.01 0)" fill="#137f60"/><path d="M78,23.6a1.88,1.88,0,0,1-2.18-1.53.88.88,0,0,1,0-.17v-.2a2.1,2.1,0,0,1,4.2,0h0A2.14,2.14,0,0,1,78,23.6Z" transform="translate(0.01 0)" fill="#137f60"/><path d="M19.9,62.2c0-.2,0-.2.2-.2,2.1-4.6,4.1-9.2,6.5-13.6a51.12,51.12,0,0,1,4.1-6.3c1.3-1.9,2.7-1.9,4,0l1.1,1.6a24.44,24.44,0,0,0,.5-4.6c-.3-3.7,1.6-6.2,4.1-8.7a110.79,110.79,0,0,1,28.7-19c3.3-1.7,7-3,10.5-4.6,1.6-.6,2.9-.3,3.3.8.5,1.3-.2,2.2-1.7,2.9A119.86,119.86,0,0,0,49.6,27.7a104.17,104.17,0,0,0-7.9,7.1A3.86,3.86,0,0,0,40.6,37c-.5,3.5-.6,7.1-1,10.6l-.2,1.3c-.2,1.1-.5,2.1-1.6,2.2a2.09,2.09,0,0,1-2.4-1.3c-1-1.4-1.9-2.7-2.9-4a94,94,0,0,0-8.3,15.6,12.7,12.7,0,0,0-.6,1.7,2,2,0,0,1-2.5,1.3h-.2C20,64.4,19.6,63.3,19.9,62.2Z" transform="translate(0.01 0)" fill="#137f60"/><path d="M86.2,24.7a2.18,2.18,0,0,1,2.1-2.1h0a2,2,0,0,1,2.1,1.9h0v.2a2,2,0,0,1-2.09,1.91H88.2A2,2,0,0,1,86.2,24.7Z" transform="translate(0.01 0)" fill="#137f60"/><path d="M105.6,37.6a2.09,2.09,0,0,1-2.4-1.6,2.06,2.06,0,0,1,1.6-2.4h.5a2.18,2.18,0,0,1,2.2,1.9h0a2,2,0,0,1-1.9,2.1Z" transform="translate(0.01 0)" fill="#137f60"/><path d="M32.7,109c-5.2,1.7-11,3.3-16.3,4.9-.5.2-1,.5-1.1,1-3.7,6.8-7.3,13.6-11,20.3a6.41,6.41,0,0,0-.5,1.1,1.8,1.8,0,0,1-2.33,1l-.07,0H1.2a1.69,1.69,0,0,1-1.14-2.09s0-.07,0-.11c0-.2,0-.2.2-.3A49.5,49.5,0,0,1,2.5,130c3.5-6.2,7-12.5,10.3-18.7a4,4,0,0,0,.5-2.2,119.68,119.68,0,0,1,3.3-36.8c.5-1.6,1.3-2.4,2.5-2.1s1.7,1.4,1.3,3a107.21,107.21,0,0,0-3.5,29.4v1.9l1.4-2.1A261,261,0,0,1,89.1,31.5c5.1-3.3,10.5-6.5,15.7-9.7a1.22,1.22,0,0,1,.5-.3,2.2,2.2,0,0,1,2.9.6h0a2,2,0,0,1-.8,2.7.2.2,0,0,0-.2.2c-2.9,1.7-5.9,3.3-8.7,5.2A246.83,246.83,0,0,0,40.9,79.6a278.88,278.88,0,0,0-21.1,27.9,9.65,9.65,0,0,0-.8,1.3l.3.5,26.3-8.7a18.34,18.34,0,0,1-1.9-4,2.92,2.92,0,0,1,.2-2.4c.5-1,1.4-1,2.4-.6,2.2.8,4.4,1.4,6.7,2.4a3.63,3.63,0,0,0,3.5-.2,14.07,14.07,0,0,1,2.4-1.1c-1.4-1.1-2.9-2.2-4.3-3.3a2,2,0,0,1-1.15-2.58l0-.12c.5-1.3,1.4-1.4,2.5-1.3,4.6.3,9.4.6,14,.8a7.6,7.6,0,0,0,2.9-.6C78.5,84.1,84,80.5,89.6,77l.3-.3c1.4-1,2.5-1,3.3.2.8,1,.5,2.2-1,3.2-2.4,1.6-4.6,3.3-7.1,4.9-3.7,2.4-7.5,4.6-11.3,6.8a4.56,4.56,0,0,1-3,.6c-3,0-5.9-.3-9.2-.5a12.76,12.76,0,0,0,1.9,1.7,1.85,1.85,0,0,1,.59,2.56.67.67,0,0,1-.09.14,2.69,2.69,0,0,1-1,.8,50.06,50.06,0,0,1-7.5,3.3,4.11,4.11,0,0,1-2.2,0,27.09,27.09,0,0,1-4-1.4,9.33,9.33,0,0,0,.5,1c.8,1.7.5,2.7-1.4,3.5C43.4,105.3,38.1,107.4,32.7,109Z" transform="translate(0.01 0)" fill="#137f60"/><path d="M88.1,6a2,2,0,0,1,1.2-2.47l.1,0c.2,0,.5-.2.6-.2,4.8-1,9.4-1.9,14.1-2.7,1.6-.3,3.2-.3,4.6-.6l9.5.2c2.7.3,5.6.6,8.3,1.1,2.2.5,4.3,1.1,6.5,1.6a3.22,3.22,0,0,1,2.7,3.2,40.35,40.35,0,0,1-5.2,27.6,38.89,38.89,0,0,1-19,16.8,4.05,4.05,0,0,1-1.1.5l4.8,1.6c2.5.8,3,2.1,1.3,4.1a124,124,0,0,1-15.9,16.5l-.3.3c-1.1,1-2.2,1-3,0a2,2,0,0,1,.24-2.82,2,2,0,0,1,.26-.18c2.4-2.1,4.8-4.3,7-6.3,2.5-2.5,4.9-5.2,7.6-8.1l-7.9-2.4-1.6-.5A2.24,2.24,0,0,1,101,51c.2-1.3,1-1.6,1.9-1.9a63.79,63.79,0,0,0,7-2.2A37.14,37.14,0,0,0,132,10.1c-.3-4,.2-3.2-3.7-4-11.6-2.7-23-1.9-34.6.6-1,.2-1.9.5-2.9.8C89.4,7.6,88.4,7.1,88.1,6Z" transform="translate(0.01 0)" fill="#137f60"/><path d="M189.4,127.6a89.79,89.79,0,0,0-15.2-11.4c-3.5-1.9-7-4.1-10.5-5.9-3.7-1.7-7.3-3.2-11.1-4.8a80.68,80.68,0,0,0-12.7-4,84.17,84.17,0,0,0-13.2-2.1,67.54,67.54,0,0,0-16.2.2c-3,.5-6,1-8.9,1.4a53.91,53.91,0,0,0-12.5,4c-9.5,4-17.3,9.8-22.7,18.7a76.81,76.81,0,0,0-4.4,9.2,1.65,1.65,0,0,0-.2,1c-.6,2.9-1.1,5.9-1.7,8.9a28.21,28.21,0,0,1-4.9-1,99.75,99.75,0,0,1-11.6-5.1,68,68,0,0,1-7.6-5.2l-.2-.2a1.84,1.84,0,0,0-2.5.2c-.8.8-1.1,1.9-.2,2.7,2.9,2.1,5.7,4.1,8.6,6a21.49,21.49,0,0,0,4.9,2.7c3.7,1.3,7.5,2.4,11.1,3.7a11,11,0,0,0,1.6.3c.5.2.8.3,1,.8a50.12,50.12,0,0,0,1.9,4.9,31.28,31.28,0,0,0,9,11.1,59,59,0,0,0,13.5,7.9,78.71,78.71,0,0,0,12.5,3.8,36.9,36.9,0,0,0,16.2.2,48.41,48.41,0,0,0,9.8-2.9,59.85,59.85,0,0,0,19.2-13,143.74,143.74,0,0,0,10.3-11.9A52.87,52.87,0,0,1,164,137c6.8-4.8,14.9-5.9,23-5.4,1.3,0,2.1,0,2.7-1.3S190.2,128.2,189.4,127.6ZM64.3,142.8a38.54,38.54,0,0,1,5.2-16.5,46.43,46.43,0,0,1,11.6-12.2,47.16,47.16,0,0,1,15.6-7.6c2.9-.8,5.9-1.4,8.7-2.1a59.79,59.79,0,0,1,17.9-1.1,86.25,86.25,0,0,1,13.3,1.7c4.4,1.1,8.7,2.2,13,3.7,3.8,1.3,7.5,3,11.1,4.6a88.11,88.11,0,0,1,16.2,9.4l-19-4.1a26.8,26.8,0,0,1,3.2-1.3c.8-.3,1.7-.5,1.3-1.6s-1-1.1-2.1-.8a12,12,0,0,0-5.7,3.5,2.85,2.85,0,0,1-1.7.5c-4,.5-8.1.8-12.2,1.3-1.9.5-3.8,1-5.7,1.6l-.3-.3,4.1-5.6c.3-.3.8-.8.8-1.1a2.37,2.37,0,0,0-.5-1.4c-.2-.2-.8,0-1.1.2a3.28,3.28,0,0,0-1.3,1c-1.6,2.5-4,4.4-4.9,7.5a3,3,0,0,1-1.7,1.6c-4.9,2.2-9.8,4.3-14.8,6.3-2.9,1.3-5.6,2.5-8.6,3.7a19.78,19.78,0,0,1,3.3-8.1c1.4-1.9,3-3.7,4.4-5.4.6-.8,1.1-1.7.2-2.5s-1.4,0-2.1.5a25.6,25.6,0,0,0-5.9,7.5,39.52,39.52,0,0,0-2.9,8.1c-.5,1.9-2.1,1.9-3.2,2.5-3.2,1.4-6.3,2.4-9.5,3.7l-7.3,2.5-.5-.5c1-2.5,2.1-4.9,3.3-7.3,1.9-3.2,4.3-6.2,6.5-9.4a1.72,1.72,0,0,0,0-1.7c-.2-.2-.2-.3-.3-.3a1.2,1.2,0,0,0-1.6.3,64,64,0,0,0-6,8.7c-1.9,3.3-3.2,7.1-4.9,10.5a3.39,3.39,0,0,1-2.7,1.3,38.14,38.14,0,0,1-12.2.5C64.5,144.4,64.2,143.7,64.3,142.8Zm110.2-14.4a37.37,37.37,0,0,0-16,8.1,73.73,73.73,0,0,0-6.3,6.2c-3,3.5-5.9,7.1-8.9,10.6a36.51,36.51,0,0,1-5.2,5.2c-4.3,3.5-8.4,7.1-13.6,9.4a48.18,48.18,0,0,1-12.9,4,37.79,37.79,0,0,1-17-1.3c-3.8-1.3-7.8-2.9-11.4-4.4a37,37,0,0,1-14.9-11.3,17.93,17.93,0,0,1-3.5-7.8H75.1a1.89,1.89,0,0,1,1.3.5c2.2,1.9,4.3,3.8,6.5,5.6a45.6,45.6,0,0,0,11.7,6.3c1.3.5,2.5.6,3.8,1,1,.3,1.6.2,1.9-.8s-.3-1.4-1.3-1.7c-1.7-.5-3.5-1-5.2-1.6a54.89,54.89,0,0,1-14.1-8.9,2,2,0,0,0-1.1-.6l.2-.5a30,30,0,0,0,3.5-.8c5.1-1.7,10-3.5,15.1-5.2a1.81,1.81,0,0,1,1.3.3c1.6,1.1,3,2.1,4.6,3.2a34.86,34.86,0,0,0,9,3.7,10.38,10.38,0,0,0,4,.3c.5,0,1-.8,1.4-1.1a7.86,7.86,0,0,0-1.4-1.3c-5.2-.8-10.2-2.2-14.3-5.6a6,6,0,0,1-.8-.8,2.37,2.37,0,0,1,.8-.6c6.7-2.9,13.2-5.6,19.8-8.4a1.8,1.8,0,0,1,2.4.5,20.32,20.32,0,0,0,11.9,4.9c1,0,1.6-.2,1.7-1.3s-.5-1.4-1.6-1.4a8.74,8.74,0,0,1-3.2-.6c-2.5-1-5.4-1.4-7.5-3.8q3.15-1.2,5.7-2.4a57.59,57.59,0,0,1,13.6-4,6.7,6.7,0,0,1,4.3,1c3.3,1.4,6.5,2.9,9.8,4.3.8.3,1.7.3,2.1-.8s-.3-1.6-1.3-1.9c-2.4-1-4.8-1.7-7.1-2.7,4.6-1.6,23.2,2.4,27.6,5.6-1.8.4-3.8.4-5.7.9Z" transform="translate(0.01 0)" fill="#137f60"/></svg>