<svg id="Layer_1" data-name="Layer 1" xmlns="http://www.w3.org/2000/svg" viewBox="0 0 173.28 190.29"><title>icon_4</title><path d="M80.79,6.19h0a3.6,3.6,0,0,1,7.2,0h0a3.59,3.59,0,0,1-3.58,3.6h0a3.47,3.47,0,0,1-3.6-3.33Z" transform="translate(0 0)" fill="#137f60"/><path d="M102.19,114.69a3.6,3.6,0,1,1-3.6,3.6,3.6,3.6,0,0,1,3.6-3.6Z" transform="translate(0 0)" fill="#137f60"/><path d="M122.79,36a3.71,3.71,0,0,1-4-3.42.22.22,0,0,1,0-.08V32a3.77,3.77,0,0,1,4-3.5,3.85,3.85,0,0,1,3.5,3.5A3.93,3.93,0,0,1,122.79,36Z" transform="translate(0 0)" fill="#137f60"/><path d="M173,45.19a20.18,20.18,0,0,0-6.3-10.3,36.5,36.5,0,0,0-22.2-9.2,2.68,2.68,0,0,1-2.7-2.1,33.59,33.59,0,0,0-17.6-19.2,52.47,52.47,0,0,0-24.1-4.3c-2.9.2-4.4,1.6-4.4,3.8s1.7,3.6,4.4,3.6c3.3.2,6.7.2,9.8.5,13.6,1.4,22.8,9.3,26.3,22,2.1,7.8,1.3,15.7.6,23.6-1.1,14.7-2.1,29.3-3,44a68.07,68.07,0,0,1-1.4,11.1c-3.2,13.5-11.6,23.3-23.3,30.3-19,11.4-39.6,14.6-61.5,11.1-4-.6-7.9-2.1-12.2-3.2,1.4-1.9,2.4-3.5,3.5-4.8a5.69,5.69,0,0,1,2.4-1.3c5.9-.5,11.9-.6,17.7-1.3a97.3,97.3,0,0,0,31.7-9.2c.2,0,.2,0,.3-.2a3.7,3.7,0,0,0,1.91-4.87v0c-1-2.1-3-2.5-5.4-1.6-1.9,1-3.6,1.7-5.5,2.5a104.22,104.22,0,0,1-34.8,7c-6.5.3-13.1.6-19.5-.8a27.79,27.79,0,0,1-12.4-5.7c.3-.2.8-.3,1.1-.5,9.8-2.9,16.9-9.2,22.8-17.4a3.79,3.79,0,0,0,.5-4.3,3.5,3.5,0,0,0-3.6-1.9,22.67,22.67,0,0,1-14.9-5.1c-.6-.5-1.1-1-1.6-1.4l.3-.3,3.6-.6c9.7-1.4,18.7-4.8,26-11.6a100.55,100.55,0,0,0,10.9-11.7c6.3-7.1,13.7-12.2,23.7-13.1A27.54,27.54,0,0,1,113.39,79c2.2,9.2.3,17.6-4.3,25.7-1.4,2.4-1.1,4.6.8,5.7,2.1,1.1,4.1.5,5.5-2.1a42.49,42.49,0,0,0,6-18.5c2.4-27.2-21.4-42.6-42.9-37.9-1.4.3-3,.8-4.8,1.3.2-1,.3-1.6.5-2.4a79.59,79.59,0,0,1,7.3-20.3c1.4-2.7,1.3-4.3-1.1-6-3.5-2.7-7.1-4.9-10.8-7.3a9.15,9.15,0,0,1-1.4-1c1.4-.8,2.7-1.4,4-2.1a3.8,3.8,0,0,0,1.6-4.9h0a3.9,3.9,0,0,0-4.9-1.6,35,35,0,0,0-5.1,2.7,26.12,26.12,0,0,0-5.4,5.1c-1.7,2.1-.8,4.6,1.7,5.7.6.3,1.4.5,2.1.8a45.79,45.79,0,0,1,12,6.8,82.32,82.32,0,0,0-8.4,27.7,1.56,1.56,0,0,1-.8,1.3c-5.2,3.5-9,8.2-13,13-5.7,7-12.4,12.7-21.2,15a84.61,84.61,0,0,1-15.2,2.9c-6.3.6-6.7,4.1-4.4,8.4a15.6,15.6,0,0,0,3.5,4.6,87.62,87.62,0,0,0,9,5.9,35.09,35.09,0,0,0,5.4,2.1,11.5,11.5,0,0,1-1,1.3c-5.1,5.5-11.7,8.2-19,9.7-4.3.8-5.2,3.5-2.9,7a26.18,26.18,0,0,0,11.4,9.2c4.1,1.6,8.6,2.9,12.8,4.1-.2.3-.6.8-1,1.4l-27.9,38.5c-2.5,3.5-1.9,5.9,2.2,7.1,3,1,6,1.6,9.2,2.4h7.9c4.3-.8,8.4-1.9,12.5-3,14.3-5.1,24.7-14.6,33.3-26.8a4.27,4.27,0,0,1,3.2-1.9,94,94,0,0,0,36-9.2c12.4-6,22.6-14.4,29.3-26.8,4.6-8.7,6-18.1,6.3-27.7.5-11.2,1.4-22.5,2.2-33.7a2,2,0,0,1,1.7-2.1c8.2-2.7,16.3-5.5,24.6-8.2C173,49.79,173.79,48.39,173,45.19Zm-163,137a7,7,0,0,1,1-1.4l19.3-26.6c.6-.8,1-1.4,2.2-.8a66.75,66.75,0,0,0,24.1,5.5,9.93,9.93,0,0,1,1.7.3C46.39,175.49,26.29,186,10,182.19Zm134.8-130.7V33c8.2,1.3,15.5,4,20.4,11.6Z" transform="translate(0 0)" fill="#137f60"/></svg>