<svg id="Layer_1" data-name="Layer 1" xmlns="http://www.w3.org/2000/svg" viewBox="0 0 228 228"><rect x="1.5" y="1.5" width="225" height="225" rx="85" fill="#051911" stroke="#666" stroke-miterlimit="10" stroke-width="3"/><path d="M138.4,162.35c.33,1.43.11,1.93-1.16,2.65h-.61a2.32,2.32,0,0,1-1.44-1.83,8.88,8.88,0,0,0-3.15-4.92,68.35,68.35,0,0,0-6.08-4.47c-2.38-1.61-4.92-2.93-7.3-4.43-1.16-.71-1.33-1.77-.61-2.54a1.53,1.53,0,0,1,2-.33c4.59,2.71,9.34,5.09,13.38,8.62A14,14,0,0,1,138.4,162.35Z" transform="translate(1.5 1.5)" fill="#bdc3c7"/><path d="M151.22,79.53A118.64,118.64,0,0,0,141.71,61a1.38,1.38,0,0,0-.88-.88,1.71,1.71,0,0,0-2.21.88c-1.22,2.05-2.49,4.15-3.71,6.25a71.86,71.86,0,0,0-6.41,14c-1.32,4.42-.16,8.18,2.93,11.55a11.78,11.78,0,0,0,7.08,3.71v1.93H89.36V96.56c4.15-1.16,6.25-2.38,8.13-4.87a11.83,11.83,0,0,0,1.32-11.83A113.54,113.54,0,0,0,89.2,61.07a1.83,1.83,0,0,0-.78-.78,1.63,1.63,0,0,0-2.1.78c-.61,1-1.22,1.93-1.77,2.93a103.55,103.55,0,0,0-8,16c-2.21,6.25-.16,12,5.31,15.15A36.84,36.84,0,0,0,86,96.84v2.21a4.93,4.93,0,0,1,.11,1.21c0,1.16.78,1.66,2.55,1.66h20.56a1.59,1.59,0,0,1,1.33.28,18.51,18.51,0,0,1,3.15,3.43,5.65,5.65,0,0,1-1.49,7.57,13.17,13.17,0,0,1-3,1.93c-2.82,1.33-5.53,2.55-8.46,3.71a100.51,100.51,0,0,0-16,7.57,24.36,24.36,0,0,0-9.79,31,20.32,20.32,0,0,0,5.53,7.57h.72c1.6-1.05,1.66-1.82.33-3.26a19.8,19.8,0,0,1-5.53-12.93c-.16-6.42,1.61-12.06,6.42-16.48a34.51,34.51,0,0,1,9.62-6.19c4.69-2,9.45-3.87,14.09-6A47.14,47.14,0,0,0,113.8,116a8,8,0,0,0,3.59-8.34,36.7,36.7,0,0,0-1-4A13.53,13.53,0,0,1,123,108c1.94,2.71,2.55,6.63-1.32,9.34-1.61,1.16-3.38,2.1-4.92,3.37a34,34,0,0,0-5.81,4.7c-5,5.31-6.41,13.6,1.83,20.12h0a1.57,1.57,0,0,0,2.26-.11h0a1.68,1.68,0,0,0-.27-2.37c-.45-.45-1-.89-1.44-1.33-1.6-1.6-2.93-3.26-3.15-5.47a10.42,10.42,0,0,1,3.54-9.18,50.31,50.31,0,0,1,5.19-3.87c1.94-1.44,4-2.65,5.81-4.15a8,8,0,0,0,2.71-8.34c-.72-3.54-2.82-5.92-5.64-7.85a6.44,6.44,0,0,1-1-.72h18.47a2.56,2.56,0,0,0,2.37-1V100c0-.28.11-.56.11-.78V96.72a10.42,10.42,0,0,0,2-.55,12.21,12.21,0,0,0,8.18-9.45.94.94,0,0,0,.17-.55V83.51A13.78,13.78,0,0,0,151.22,79.53ZM85.77,68.2l.16.11V76.6l-3.7-1.82ZM86,93c-6.36-.11-9.07-8.46-5-15.26,1.6.78,3,1.49,4.59,2.27a.88.88,0,0,1,.44.77ZM89.47,68.2l.28-.11,6.36,13-6.64,4Zm-.22,24.93V89.32a.77.77,0,0,1,.28-.61c2.26-1.44,4.48-2.71,6.8-4,.61,3.6-3,7.91-7.08,8.46Zm43.56-13.82c1.77-3.81,3.54-7.52,5.37-11.22l.33.16v16.2a2.86,2.86,0,0,1-.78-.55c-1.49-1.22-3.09-2.38-4.58-3.59A1.85,1.85,0,0,1,132.81,79.31ZM138.56,93h0c-4.25-.17-8-5.47-6.85-9.78l3.59,2.93a7,7,0,0,0,1,.77C138.84,89,139.06,89.54,138.56,93ZM142,68.25l.17-.11c1.16,2.1,2.26,4.32,3.53,6.53l-3.59,1.82V68.2H142Zm6.69,18.91a9.07,9.07,0,0,1-6.8,6.19V81.25a1.2,1.2,0,0,1,.77-1.33c1.44-.61,2.82-1.44,4.32-2.1C148.18,80.8,149.84,83.68,148.68,87.16Z" transform="translate(1.5 1.5)" fill="#bdc3c7"/></svg>