<svg id="Layer_1" data-name="Layer 1" xmlns="http://www.w3.org/2000/svg" viewBox="0 0 189.9 142.3"><title>icon_7a</title><path d="M32.5,88.7v47.7a6.08,6.08,0,0,1-10.4,4.3,6.22,6.22,0,0,1-1.8-4.3V88.7a6.06,6.06,0,0,1,6.1-6.1A6,6,0,0,1,32.5,88.7Z" transform="translate(-20.3 -41.4)" fill="#f5ab35"/><path d="M56.9,67.3v90.4A6.08,6.08,0,0,1,46.5,162a6.22,6.22,0,0,1-1.8-4.3V67.3a6.1,6.1,0,0,1,12.2,0Z" transform="translate(-20.3 -41.4)" fill="#f5ab35"/><path d="M81.3,47.5V177.6a6.1,6.1,0,0,1-12.2,0V47.5a6.1,6.1,0,1,1,12.2,0Z" transform="translate(-20.3 -41.4)" fill="#f5ab35"/><path d="M105.8,58.7V166.2a6.08,6.08,0,0,1-10.4,4.3,6.22,6.22,0,0,1-1.8-4.3V58.7a6.1,6.1,0,1,1,12.2,0Z" transform="translate(-20.3 -41.4)" fill="#f5ab35"/><path d="M130.2,74v77a6.08,6.08,0,0,1-10.4,4.3A6.22,6.22,0,0,1,118,151V74a6.1,6.1,0,0,1,12.2,0Z" transform="translate(-20.3 -41.4)" fill="#f5ab35"/><path d="M154.7,67.3v90.4a6.08,6.08,0,0,1-10.4,4.3,6.22,6.22,0,0,1-1.8-4.3V67.3a6.1,6.1,0,1,1,12.2,0Z" transform="translate(-20.3 -41.4)" fill="#f5ab35"/><path d="M179.1,74v77a6.08,6.08,0,0,1-10.4,4.3,6.22,6.22,0,0,1-1.8-4.3V74a6.1,6.1,0,0,1,12.2,0Z" transform="translate(-20.3 -41.4)" fill="#f5ab35"/><path d="M203.5,85.6v53.8a6.08,6.08,0,0,1-10.4,4.3,6.22,6.22,0,0,1-1.8-4.3V85.6a6.1,6.1,0,0,1,12.2,0Z" transform="translate(-20.3 -41.4)" fill="#f5ab35"/><circle cx="183.8" cy="39.9" r="6.1" fill="#cc51ff"/></svg>