<svg id="Layer_1" data-name="Layer 1" xmlns="http://www.w3.org/2000/svg" xmlns:xlink="http://www.w3.org/1999/xlink" viewBox="0 0 228 228"><defs><linearGradient id="linear-gradient" x1="26.4" y1="26.4" x2="201.6" y2="201.6" gradientUnits="userSpaceOnUse"><stop offset="0" stop-color="#191007"/><stop offset="1" stop-color="#4c3016"/></linearGradient></defs><rect x="1.5" y="1.5" width="225" height="225" rx="85" stroke="#fff" stroke-miterlimit="10" stroke-width="3" fill="url(#linear-gradient)"/><path d="M124.5,123.6" fill="#fff"/><path d="M107.5,132.85a1.94,1.94,0,0,1-2,1.87h-.29a87.48,87.48,0,0,1-24-4.27,27.53,27.53,0,0,1-9.14-4.76A8,8,0,0,1,71,124.5c-.88-1-1-2.14,0-3a32.52,32.52,0,0,1,5.2-3.67C78,117,80,116.14,82,115.43a2.06,2.06,0,0,1,2.79.82c.11.11.11.27.17.38.38,1.15-.17,2.13-1.59,2.57a34.58,34.58,0,0,0-7.77,3.56l-.11.44c1.86.87,3.77,1.86,5.63,2.57a68.83,68.83,0,0,0,17.74,4c2.24.28,4.49.39,6.73.55a2.14,2.14,0,0,1,2,2.31Z" fill="#fff"/><path d="M116.5,132.63h0a1.9,1.9,0,0,1-1.71,2.07h-.26a2,2,0,0,1-2.13-1.86v-.11a2.05,2.05,0,0,1,4.1-.11Z" fill="#fff"/><path d="M161.3,145.06a24.86,24.86,0,0,0-2.68-1.59,18.26,18.26,0,0,0,1.26-1.37,24.3,24.3,0,0,0,5.63-21,.48.48,0,0,0-.11-.38,2,2,0,0,0-2.43-1.45l-.08,0-2.85.44a14.83,14.83,0,0,0-6.9-7.17c-2.84-1.59-6-3-8.92-4.38a19.16,19.16,0,0,0,2.24-2.08c3.23-3.28,3.23-7.44.11-10.73a14.13,14.13,0,0,0-3.07-2.54c-4.49-2.84-9.58-4.1-14.78-5.09l-2-.38a29.43,29.43,0,0,0,3.51-2.79A6.23,6.23,0,0,0,131,75.8a6.35,6.35,0,0,0-.83-.81A16.68,16.68,0,0,0,125,71.76a42.63,42.63,0,0,0-29-.55,15,15,0,0,0-6.62,3.94c-2.79,3-2.68,6.52.11,9.42A15.8,15.8,0,0,0,94.77,88l1.33.54c-2.68,1.09-5.53,2.08-8.21,3.28a15,15,0,0,0-5.75,4.49,7,7,0,0,0,0,8.87c.44.6,1,1.15,1.43,1.7-2.52.87-5,1.58-7.45,2.41-3.94,1.53-7.72,3.28-10.73,6.35-4.49,4.54-4.54,10.12-.11,14.67,3.12,3.28,7.18,5.36,11.39,6.95,9.58,3.67,19.6,5.09,29.78,5.47a113.29,113.29,0,0,0,18.23-.6,2.57,2.57,0,0,1,2.82,1.41,25.8,25.8,0,0,0-3,1.86,5.2,5.2,0,0,0-1.39,7.23,5.3,5.3,0,0,0,.85,1,13.68,13.68,0,0,0,5.25,3.23,44,44,0,0,0,25.07.88,15.64,15.64,0,0,0,7.78-3.84C164.8,151,164.5,147.41,161.3,145.06Zm.55-21.35h0a18,18,0,0,1-.55,7.61c-2.25,7.6-7.23,12.37-14.84,14.5-.71.17-1.15.11-1.25-.82A20.34,20.34,0,0,1,161.85,123.71Zm-18.62,10h0a47.63,47.63,0,0,1-2.57-4.21l-1.59-2.08c-1.15-1.37-1.25-1.37-.38-3.07a19,19,0,0,1,4.54-5.8,16,16,0,0,1,5.26,7.23c0,.27,0,.54-.27.71a25.39,25.39,0,0,0-5,7.23ZM92.71,82c-1.81-1.36-1.7-2.84-.11-4.37a14.84,14.84,0,0,1,6.24-3.12,40,40,0,0,1,23.1.43,19.38,19.38,0,0,1,4.76,2.41c2.25,1.53,2.14,3.29,0,4.93a16,16,0,0,1-8,3.28c-3,.55-5.92.71-8.87,1.15h0c-4.49-.27-8.76-.71-13-2.41A14.51,14.51,0,0,1,92.71,82ZM86.8,97.32c3-2.41,6.35-3.5,9.91-4.49A74,74,0,0,1,115,90.59h0c7.23.11,14.56.82,21.68,3.5a27.12,27.12,0,0,1,5.75,3c3.39,2.3,3.28,4.92,0,7.44a25.66,25.66,0,0,1-9.75,4.22,74.81,74.81,0,0,1-26.33,1.69,50.55,50.55,0,0,1-14-3.12,25.53,25.53,0,0,1-5.53-3.06C83.84,102,83.84,99.73,86.8,97.32Zm30.87,41.33a114.1,114.1,0,0,1-28.63-2,52.37,52.37,0,0,1-16.37-5.75A21.75,21.75,0,0,1,68,127.34c-2.79-2.79-2.57-5.91.11-8.7a23.38,23.38,0,0,1,9.2-5.47c3.28-1.15,6.78-2.08,10.18-3.07a1.81,1.81,0,0,1,1.42.17,55.68,55.68,0,0,0,16.21,4,83.37,83.37,0,0,0,20.58-.17,58.76,58.76,0,0,0,12-2.79,5.2,5.2,0,0,1,1.8-.11,43.65,43.65,0,0,1,12.7,5.47,10.88,10.88,0,0,1,3.83,4.22l-4,2.24c-1.42-2-2.79-4-4.27-5.8a31.34,31.34,0,0,0-3.5-3.12,2,2,0,0,0-2.82.14l0,0a26.13,26.13,0,0,0-7.17,8.86l-.87-.54a25.82,25.82,0,0,0-10.57-3.56h-.16a2,2,0,0,0-2.14,1.85h0a23.77,23.77,0,0,0,2.25,16.09,9.64,9.64,0,0,0,.54,1A46.43,46.43,0,0,1,117.67,138.65Zm6.62-13.36c0-.43.11-1,.17-1.58a20.79,20.79,0,0,1,13.36,8.86A20.17,20.17,0,0,1,141.1,145c0,.87-.38,1.15-1.26,1A20.54,20.54,0,0,1,124.29,125.29ZM159.16,151a13.23,13.23,0,0,1-3.5,2,36.21,36.21,0,0,1-12.59,2.08H143c-4.38-.11-8.87-.44-12.86-2.3a14.41,14.41,0,0,1-3.12-2c-.88-.71-.88-1.53.11-2.08a42.62,42.62,0,0,1,4.1-2.08c.17-.11.55.11.82.27a26.39,26.39,0,0,0,7.78,3.12,5.28,5.28,0,0,1,1.8,1.26c1.15,1,2.08,1.1,3.23,0a7.24,7.24,0,0,1,2.85-1.53c2.24-.71,4.38-1.81,6.62-2.68a1.86,1.86,0,0,1,1.37-.11,17,17,0,0,1,3.39,1.69C160.31,149.27,160.31,150.09,159.16,151Z" fill="#fff"/></svg>