<svg id="Layer_1" data-name="Layer 1" xmlns="http://www.w3.org/2000/svg" xmlns:xlink="http://www.w3.org/1999/xlink" viewBox="0 0 228 228"><defs><linearGradient id="linear-gradient" x1="26.4" y1="26.4" x2="201.6" y2="201.6" gradientUnits="userSpaceOnUse"><stop offset="0" stop-color="#191007"/><stop offset="1" stop-color="#4c3016"/></linearGradient></defs><rect x="1.5" y="1.5" width="225" height="225" rx="85" stroke="#fff" stroke-miterlimit="10" stroke-width="3" fill="url(#linear-gradient)"/><path d="M127.91,141.34a41.81,41.81,0,0,0-4.1-1.2c.85-1.36,1.82-2.73,2.56-4.15a42.33,42.33,0,0,0,1.65-4.62,1.6,1.6,0,0,0-.4-.23,17.06,17.06,0,0,0-8.83,4.39c.52.63,1,1.08,1.37,1.54,1.43-.91,2.79-1.82,4.16-2.74-.91,3.31-5.35,7.41-7.75,7.41,2.17-5.58,1.31-10.71-2.1-15.72a17.78,17.78,0,0,0-3.19,7.63,15.23,15.23,0,0,0,1.08,8.14c-3.19-.74-7.63-4.89-7.92-7.57,1.54,1,2.85,1.88,4.16,2.73.51-.45,1-.91,1.59-1.42a17.1,17.1,0,0,0-9.11-4.39,17.22,17.22,0,0,0,4.33,9.06c-3,.68-5.81,1.37-8.14,3.25,0,.17,0,.22.17.22,5.07,3.42,10.42,4.16,16.06,1.66a2.14,2.14,0,0,1,2,0c5.81,2.62,11.16,1.7,16.46-1.88A31.13,31.13,0,0,0,127.91,141.34Zm-26,2.11a.91.91,0,0,0-.06-.4c1.43-.23,3-.4,4.39-.69,1.71-.39,3,.4,4.55,1.37a12,12,0,0,1-8.91-.23Zm12.59-2.95c-1.43-1.82-1.6-7-.06-9.79A13,13,0,0,1,114.5,140.5Zm3.7,3.25a8.44,8.44,0,0,1,8.88-.4,12,12,0,0,1-8.91.44Z" fill="#fff"/><path d="M168.06,122.32a21.64,21.64,0,0,0-2.73-10.43c-4.73-8.42-12-12.92-21.65-12.92-15.26-.06-30.41-.06-45.67,0-1.6,0-2.85-.17-3.71-1.6l-.22-.23c-6.72-6.6-13.33-13.32-20-20A6.32,6.32,0,0,0,73,76.29a8.42,8.42,0,0,0-11.11,1.54,8.33,8.33,0,0,0,.46,11.22c3.81,3.81,7.57,7.57,11.33,11.39a5.68,5.68,0,0,0,1,.68c-.51.28-.86.46-1.14.63a23.59,23.59,0,0,0-12,14.69c-1.54,5.18-1.19,10.48-.68,15.72a23.92,23.92,0,0,0,23.69,21h59a25.76,25.76,0,0,0,4.21-.29,24.18,24.18,0,0,0,19.79-19.37A53,53,0,0,0,168.06,122.32ZM63.61,87.06a6,6,0,1,1,8.89-8.14h0c.86.74,1.6,1.54,2.34,2.28-3,3-5.76,5.81-8.55,8.54C65.5,88.89,64.4,88,63.61,87.06Zm4.5,4.62,8.39-8.43L92.31,99c-2.85,0-5.58-.17-8.37.06a62.41,62.41,0,0,0-6.66,1.08,1.19,1.19,0,0,1-.92-.17C73.63,97.2,70.84,94.41,68.11,91.68Zm-.52,17.82A21.32,21.32,0,0,1,85,101.19c19.54-.06,39.19-.06,58.78,0a22,22,0,0,1,21.76,17.6,8.56,8.56,0,0,0,.17,1.13c-34.18-13.89-68.29-14-102.58,0A20.33,20.33,0,0,1,67.59,109.5Zm97.74,24.15A21.89,21.89,0,0,1,144,150.85H84.57A21.75,21.75,0,0,1,63,131.2c-.23-2.62-.06-5.35-.17-8.09,0-.68.4-.74.85-.91,4.73-1.65,9.46-3.53,14.24-5a126,126,0,0,1,32.47-5.36,127.49,127.49,0,0,1,43.39,6.27c3.88,1.2,7.64,2.73,11.39,4.16.29,0,.74.45.74.74-.11,3.49.18,7-.56,10.64Z" fill="#fff"/></svg>