<svg id="Layer_1" data-name="Layer 1" xmlns="http://www.w3.org/2000/svg" xmlns:xlink="http://www.w3.org/1999/xlink" viewBox="0 0 228 228"><defs><linearGradient id="linear-gradient" x1="26.4" y1="26.4" x2="201.6" y2="201.6" gradientUnits="userSpaceOnUse"><stop offset="0" stop-color="#191007"/><stop offset="1" stop-color="#4c3016"/></linearGradient></defs><rect x="1.5" y="1.5" width="225" height="225" rx="85" stroke="#fff" stroke-miterlimit="10" stroke-width="3" fill="url(#linear-gradient)"/><path d="M68.5,100.33v27.34a3.48,3.48,0,0,1-6,2.46,3.53,3.53,0,0,1-1-2.46V100.33A3.48,3.48,0,0,1,65,96.83h0a3.44,3.44,0,0,1,3.5,3.38Z" fill="#fff"/><path d="M82.5,88.07v51.81a3.49,3.49,0,0,1-3.45,3.53,3.53,3.53,0,0,1-3.55-3.53V88.07a3.5,3.5,0,0,1,7,0Z" fill="#fff"/><path d="M96.5,76.72v74.56a3.5,3.5,0,0,1-7,0V76.72a3.5,3.5,0,0,1,7,0Z" fill="#fff"/><path d="M110.5,83.14v61.61a3.48,3.48,0,0,1-6,2.46,3.53,3.53,0,0,1-1-2.46V83.14a3.5,3.5,0,1,1,7,0Z" fill="#fff"/><path d="M124.5,91.91V136a3.49,3.49,0,0,1-3.45,3.53A3.53,3.53,0,0,1,117.5,136V91.91a3.5,3.5,0,0,1,7,0Z" fill="#fff"/><path d="M138.5,88.07v51.81a3.49,3.49,0,0,1-3.45,3.53,3.53,3.53,0,0,1-3.55-3.53V88.07a3.5,3.5,0,0,1,7,0Z" fill="#fff"/><path d="M152.5,91.91V136a3.49,3.49,0,0,1-3.45,3.53A3.53,3.53,0,0,1,145.5,136V91.91a3.5,3.5,0,0,1,7,0Z" fill="#fff"/><path d="M166.5,98.55v30.84a3.48,3.48,0,0,1-6,2.46,3.53,3.53,0,0,1-1-2.46V98.55a3.5,3.5,0,0,1,7,0Z" fill="#fff"/></svg>