<svg id="Layer_1" data-name="Layer 1" xmlns="http://www.w3.org/2000/svg" xmlns:xlink="http://www.w3.org/1999/xlink" viewBox="0 0 228 228"><defs><linearGradient id="linear-gradient" x1="26.4" y1="26.4" x2="201.6" y2="201.6" gradientUnits="userSpaceOnUse"><stop offset="0" stop-color="#191007"/><stop offset="1" stop-color="#4c3016"/></linearGradient></defs><rect x="1.5" y="1.5" width="225" height="225" rx="85" stroke="#fff" stroke-miterlimit="10" stroke-width="3" fill="url(#linear-gradient)"/><path d="M68.5,103.8v20.29a3.49,3.49,0,0,1-3.45,3.53,3.53,3.53,0,0,1-3.55-3.53V103.8a3.5,3.5,0,0,1,7,0Z" fill="#fff"/><path d="M82.5,96.81v34.33a3.49,3.49,0,0,1-3.45,3.53,3.53,3.53,0,0,1-3.55-3.53V96.81A3.48,3.48,0,0,1,79,93.31h0a3.41,3.41,0,0,1,3.5,3.32Z" fill="#fff"/><path d="M96.5,100.65v26.59a3.48,3.48,0,0,1-6,2.46,3.53,3.53,0,0,1-1-2.46V100.65a3.5,3.5,0,0,1,7,0Z" fill="#fff"/><path d="M110.5,107.29v13.3a3.49,3.49,0,0,1-6,2.47,3.56,3.56,0,0,1-1-2.47v-13.3a3.5,3.5,0,0,1,7,0Z" fill="#fff"/><path d="M124.5,94.91v38.18a3.5,3.5,0,0,1-7,0V94.91a3.5,3.5,0,0,1,7,0Z" fill="#fff"/><path d="M138.5,108.56v10.83a3.5,3.5,0,0,1-7,0h0V108.56a3.5,3.5,0,0,1,7,0Z" fill="#fff"/><path d="M152.5,103.8v20.29a3.49,3.49,0,0,1-3.45,3.53,3.53,3.53,0,0,1-3.55-3.53V103.8a3.5,3.5,0,0,1,7,0Z" fill="#fff"/><path d="M166.5,96.06v35.71a3.49,3.49,0,0,1-3.45,3.53,3.53,3.53,0,0,1-3.55-3.53V96.06a3.5,3.5,0,0,1,7,0Z" fill="#fff"/></svg>