<svg id="Layer_1" data-name="Layer 1" xmlns="http://www.w3.org/2000/svg" xmlns:xlink="http://www.w3.org/1999/xlink" viewBox="0 0 228 228"><defs><linearGradient id="linear-gradient" x1="26.4" y1="26.4" x2="201.6" y2="201.6" gradientUnits="userSpaceOnUse"><stop offset="0" stop-color="#191007"/><stop offset="1" stop-color="#4c3016"/></linearGradient></defs><rect x="1.5" y="1.5" width="225" height="225" rx="85" stroke="#fff" stroke-miterlimit="10" stroke-width="3" fill="url(#linear-gradient)"/><rect x="67.6" y="119.21" width="7.06" height="3.42" fill="#fff"/><path d="M78.19,126.37v28.54H66.5A2.71,2.71,0,0,1,64,153.7V127.58a2.5,2.5,0,0,1,2.42-1.21Z" fill="#fff"/><rect x="83.77" y="126.37" width="3.42" height="28.39" fill="#fff"/><path d="M113.63,123.74a10.17,10.17,0,0,0-1.58-6,4.91,4.91,0,0,0-1.47-1.47,4.65,4.65,0,0,0-6.32,1.47,11.92,11.92,0,0,0,0,12,5.06,5.06,0,0,0,1.47,1.48,4.66,4.66,0,0,0,6.32-1.48A10.67,10.67,0,0,0,113.63,123.74Zm-.95,0h0a9.42,9.42,0,0,1-1.31,5.31,3.75,3.75,0,0,1-1.37,1.37,3.71,3.71,0,0,1-5.08-1.32l0,0a11.09,11.09,0,0,1,0-10.58,3.23,3.23,0,0,1,1.32-1.37,3.72,3.72,0,0,1,5.08,1.33l0,0A8.83,8.83,0,0,1,112.68,123.74Z" fill="#fff"/><polygon points="113.79 134.74 114.84 134.74 114.84 153.96 113.79 153.96 113.79 144.85 103.94 144.85 103.94 153.96 102.84 153.96 102.84 134.74 103.94 134.74 103.94 143.85 113.79 143.85 113.79 134.74" fill="#fff"/><path d="M116.21,130.37a.86.86,0,0,1,0,1.11h0a.72.72,0,0,1-.58.26.8.8,0,0,1-.58-.26.88.88,0,0,1,0-1.21h0a.76.76,0,0,1,.58-.27C115.82,130.13,116,130.26,116.21,130.37Z" fill="#fff"/><polygon points="121.06 131 121.06 121.42 119.85 122.16 119.37 121.79 121.74 120.1 121.74 131 124.22 131 124.22 131.63 118.58 131.63 118.58 131 121.06 131" fill="#fff"/><polygon points="118.84 152.86 125.43 152.86 125.43 153.96 117 153.96 123.11 143.38 117 143.38 117 142.32 124.95 142.32 118.84 152.86" fill="#fff"/><rect x="140.81" y="126.42" width="3.42" height="28.44" fill="#fff"/><path d="M130.06,80.34c-14.56-6.74-28.44-4.47-40.81,5.48-9.22,7.42-14.22,17.27-15.8,29a1.55,1.55,0,0,1-.21.73H69.5c.47-2.31.74-4.63,1.32-6.79C73.92,97,80.24,87.4,90.3,80.5a40.7,40.7,0,0,1,27.07-7.27c14.43,1.32,25.28,8.53,33.28,20.44a48,48,0,0,1,7.64,21.38v.45h-3.48q-.37-2.62-1-5.21C150.44,96.67,142.91,86.08,130.06,80.34Z" fill="#fff"/><rect x="153.34" y="119.26" width="7.06" height="3.42" fill="#fff"/><path d="M164,127.58V153.7a2.67,2.67,0,0,1-2.53,1.21c-3.53-.1-7.16,0-10.69,0h-1V126.37h11.74A2.62,2.62,0,0,1,164,127.58Z" fill="#fff"/></svg>