<svg id="Layer_1" data-name="Layer 1" xmlns="http://www.w3.org/2000/svg" xmlns:xlink="http://www.w3.org/1999/xlink" viewBox="0 0 228 228"><defs><linearGradient id="linear-gradient" x1="26.4" y1="26.4" x2="201.6" y2="201.6" gradientUnits="userSpaceOnUse"><stop offset="0" stop-color="#191007"/><stop offset="1" stop-color="#4c3016"/></linearGradient></defs><rect x="1.5" y="1.5" width="225" height="225" rx="85" stroke="#fff" stroke-miterlimit="10" stroke-width="3" fill="url(#linear-gradient)"/><path d="M163.57,118.43c-.32-8.06-4.55-13.86-11.35-17.83a26.47,26.47,0,0,0-11.72-3.51c-7.06-.57-11.93-4-14.49-10.72-4.22-10.87-11.86-18.25-23.31-20.81C86.5,61.9,70.28,71.1,65.63,86.63c-.58,1.87-.73,3.72-1.13,5.65a4,4,0,0,0-.16.84v47.43L66,142.27l.26-.16V160.5c0,2,.74,2.72,2.72,2.72H159c2.09,0,2.82-.73,2.82-2.82V142.9a1.5,1.5,0,0,1,.68-1.31,2.66,2.66,0,0,0,1-1.83C163.57,132.7,163.83,125.5,163.57,118.43Zm-6.38,40.31H70.5V142.06h4a3.08,3.08,0,0,1,.11,1v8.62a2.17,2.17,0,1,0,4.34.06v-9.68H81.2v9.1c0,1.67.83,2.67,2.25,2.67s2.24-1,2.24-2.67v-9.1H87.9v9.36a2.26,2.26,0,0,0,1.15,2.15,2,2,0,0,0,2.25-.07,2.33,2.33,0,0,0,1.1-2v-9.36h6.22a3.08,3.08,0,0,1,.11,1v8a9.55,9.55,0,0,0,.15,1.31,2,2,0,0,0,2.09,1.3,2.14,2.14,0,0,0,2.15-2.13V142h2.25v9.41a2.26,2.26,0,0,0,1.15,2.15,2.22,2.22,0,0,0,3.24-2.2V142h7.11c0,.31.11.68.11,1v8.79a2.12,2.12,0,0,0,2.23,2h0a2.1,2.1,0,0,0,2.1-2.12v-9.54h2.3v9.78a2.21,2.21,0,0,0,4.42-.12,1.53,1.53,0,0,0,0-.3v-9.36h2.25V152a2.26,2.26,0,0,0,2.51,2,2.14,2.14,0,0,0,1.91-2.33l0-.18v-9.3h6.85a3.37,3.37,0,0,1,.1,1v8.1c0,1.68.84,2.57,2.25,2.57s2.25-1,2.25-2.67v-9.1h2.14v9.1c0,1.57.84,2.67,2.25,2.67s2.25-1,2.25-2.67v-9.1h4.91v16.68ZM159,137c0,.16-.11.31-.11.57H68.56v-1.25c0-13.6-.11-27.35,0-40.94.1-10.2,4.81-17.83,13.7-22.7,15.24-8.36,33.3-1.17,39.53,15.43,2.66,7.11,7.79,11.35,15.16,13,2.09.52,4.29.42,6.48.89,6.54,1.41,11.72,4.91,14.44,11.19a16.78,16.78,0,0,1,1.25,5.54C159.28,124.81,159.07,130.92,159,137Z" fill="#fff"/></svg>