<svg id="Layer_1" data-name="Layer 1" xmlns="http://www.w3.org/2000/svg" viewBox="0 0 190 157.83"><title>icon_4a</title><path d="M206.1,43.8c-1.8-2.3-4.3-2.9-7-2.9H26.5a17.7,17.7,0,0,0-2.3.1A7.24,7.24,0,0,0,18,46.6a18.8,18.8,0,0,0,0,5.8,6.94,6.94,0,0,0,6.6,5.9c5.4.1,10.7.1,16.2.1h2.1V74c-5.5,2.2-6.6,3.9-6.6,9.8v45.8a7.34,7.34,0,0,0,7.3,7.3h2.8a7.36,7.36,0,0,0,7.3-7.4v-48a7.2,7.2,0,0,0-5.2-7c-.4-.1-.8-.3-1.2-.4V58.6H85.6v11C80.7,70.8,79,73.1,79,78v38a6.08,6.08,0,0,0,.3,2.3c.8,3.3,3.2,5,6.3,5.6v11.7c-5.2,1.7-6.6,3.6-6.6,9.1,0,14.9.1,29.6-.1,44.5-.1,5.9,2.6,9.9,9.6,9.5,5-.3,8-3,8-8V143.5a10.87,10.87,0,0,0-.1-1.8c-.7-3.6-3-5.5-6.5-6.2V123.9c4.5-1.5,6.6-3.7,6.6-7.4V76.9c0-3-1.4-5.6-4.3-6.5-2.5-.7-2.6-2.1-2.5-4,.1-2.2,0-4.4,0-6.6,0-.4.1-.8.1-1.2H139V83c-4.7.8-6.6,3.2-6.6,7.8v47.9c0,3.9,2.2,6.6,5.8,7.2a22.57,22.57,0,0,0,4.5.1c4.3,0,7-2.9,7-7.2V90.2a6.82,6.82,0,0,0-4.1-6.7c-.7-.3-1.5-.4-2.3-.7V58.6h40.6V93.8c-4.4,1-6.6,3.2-6.6,6.7v49.8a6.47,6.47,0,0,0,6.3,6.3h3.9c4.4,0,7.3-2.8,7.3-7.2V100.8c0-3.9-2.2-6.3-5.9-7.2-.3,0-.6-.1-.8-.1V58.4h11.3c2.8,0,5.1-.7,6.9-3C208.3,52.6,208.3,46.6,206.1,43.8ZM49.4,82.1v46.5c0,3-1.2,4.1-4.4,4.3-3.4,0-4.8-1.2-4.8-4.3V82.4c0-2.9,1.4-4.1,4.1-4.1h1.4C48.1,78.4,49.4,79.6,49.4,82.1Zm41.3,58.3a4.38,4.38,0,0,1,1.2,3.2c.1,7.8,0,15.6,0,23.4v23.4c0,2.8-1.1,3.9-3.9,3.9H86.1a3.33,3.33,0,0,1-3.3-3.3c-.1-1.7,0-3.3,0-5V144.2c0-1.7,0-3.4,1.8-4.1C86.7,139.5,88.9,139.2,90.7,140.4Zm.1-65.7a4.62,4.62,0,0,1,1.1,3c.1,6.5,0,12.9,0,19.3v18.9c0,2.8-1.2,3.9-3.9,3.9H86.1a3.18,3.18,0,0,1-3.2-3.3V78.2c0-1.7.1-3.4,1.9-4C86.8,73.6,89.1,73.1,90.8,74.7Zm54.8,17.7c-.1,7.4,0,14.7,0,22.2v23.8c0,2.5-.8,3.4-3.3,3.4-5.4.1-5.9-.3-5.9-5.6V91c0-3,.8-4,3.9-4C144.3,86.9,145.7,87,145.6,92.4Zm44.6,7.3a5.11,5.11,0,0,1,.3,2.1v47.4c0,2.8-.8,3.6-3.6,3.6-5.4,0-5.6-.3-5.6-5.5V102.6a6.58,6.58,0,0,1,.4-2.8c1.1-2.3,3.4-1.4,5.4-1.5C188.4,98.1,189.6,98.2,190.2,99.7Zm12.9-47.2a10,10,0,0,1-2.6,1.8,3.67,3.67,0,0,1-1.8.1H26.8a7.29,7.29,0,0,1-3-.4c-1.8-.7-2.3-3.4-1.7-6.2a3.72,3.72,0,0,1,3.6-2.6H199C203,45.1,205.3,48.8,203.1,52.5Z" transform="translate(-17.78 -40.9)" fill="#f5ab35"/></svg>