<svg id="Layer_1" data-name="Layer 1" xmlns="http://www.w3.org/2000/svg" xmlns:xlink="http://www.w3.org/1999/xlink" viewBox="0 0 228 228"><defs><linearGradient id="linear-gradient" x1="26.4" y1="26.4" x2="201.6" y2="201.6" gradientUnits="userSpaceOnUse"><stop offset="0" stop-color="#191007"/><stop offset="1" stop-color="#4c3016"/></linearGradient></defs><rect x="1.5" y="1.5" width="225" height="225" rx="85" stroke="#fff" stroke-miterlimit="10" stroke-width="3" fill="url(#linear-gradient)"/><path d="M68.5,89.5v49a3.49,3.49,0,0,1-6,2.47,3.56,3.56,0,0,1-1-2.47v-49a3.5,3.5,0,0,1,7,0Z" fill="#fff"/><path d="M82.5,99.27v29.4a3.49,3.49,0,0,1-6,2.47,3.56,3.56,0,0,1-1-2.47V99.27a3.5,3.5,0,1,1,7,0Z" fill="#fff"/><path d="M96.5,83.91v60.18a3.48,3.48,0,0,1-3.46,3.5h0a3.45,3.45,0,0,1-2.47-1,3.53,3.53,0,0,1-1-2.46V83.91A3.48,3.48,0,0,1,93,80.41h0a3.44,3.44,0,0,1,3.46,3.42Z" fill="#fff"/><path d="M110.5,96.12v35.7a3.49,3.49,0,0,1-6,2.47,3.56,3.56,0,0,1-1-2.47V96.12a3.5,3.5,0,0,1,7,0Z" fill="#fff"/><path d="M124.5,103.86v20.28a3.49,3.49,0,0,1-6,2.47,3.56,3.56,0,0,1-1-2.47V103.86a3.5,3.5,0,0,1,7,0Z" fill="#fff"/><path d="M138.5,85.17v57.77a3.5,3.5,0,0,1-7,0V85.17a3.48,3.48,0,0,1,3.46-3.5h0A3.41,3.41,0,0,1,138.5,85Z" fill="#fff"/><path d="M152.5,93v42a3.49,3.49,0,0,1-3.45,3.53A3.53,3.53,0,0,1,145.5,135V93a3.5,3.5,0,0,1,7,0Z" fill="#fff"/><path d="M166.5,103.86v20.28a3.49,3.49,0,0,1-6,2.47,3.56,3.56,0,0,1-1-2.47V103.86a3.5,3.5,0,0,1,7,0Z" fill="#fff"/></svg>