<svg id="Layer_1" data-name="Layer 1" xmlns="http://www.w3.org/2000/svg" viewBox="0 0 190.08 189.52"><title>icon_2a</title><path d="M77.6,150.1a2.76,2.76,0,0,1-2.4-3,2.76,2.76,0,1,1,2.8,3.1A1.58,1.58,0,0,0,77.6,150.1Z" transform="translate(-17.62 -17.7)" fill="#f5ab35"/><path d="M94.5,133.4a2.84,2.84,0,0,1-2.8-2.7,2.78,2.78,0,0,1,2.7-2.8,2.82,2.82,0,0,1,2.8,2.5v.2A3.18,3.18,0,0,1,94.5,133.4Z" transform="translate(-17.62 -17.7)" fill="#f5ab35"/><path d="M111.4,116.5a2.7,2.7,0,1,1,2.7-2.7A2.83,2.83,0,0,1,111.4,116.5Z" transform="translate(-17.62 -17.7)" fill="#f5ab35"/><path d="M128.3,99.6a2.52,2.52,0,0,1-2.8-2.4V97a2.65,2.65,0,0,1,2.7-2.8h0a2.71,2.71,0,0,1,2.8,2.7A2.83,2.83,0,0,1,128.3,99.6Z" transform="translate(-17.62 -17.7)" fill="#f5ab35"/><path d="M145.2,82.7a2.77,2.77,0,0,1-2.8-2.7,2.75,2.75,0,1,1,5.5-.1A2.92,2.92,0,0,1,145.2,82.7Z" transform="translate(-17.62 -17.7)" fill="#f5ab35"/><path d="M159.2,83.3c0,.2-.2.2-.2.3-.5.6-1.1,1.3-1.7,1.9-34.6,34.4-69,69-103.6,103.6a20.94,20.94,0,0,0-1.7,2.8,23.07,23.07,0,0,1-1.4,1.9c-3.9,3.9-7.9,8.1-12,12-2.2,2.1-3.5,1.9-5.8-.8-4.1-4.4-8.4-8.8-13-13-2.7-2.4-2.8-3.6-.8-5.8l12-12a7,7,0,0,1,2.1-1.4,8,8,0,0,0,2.2-1.3c5.1-5.1,10.1-10.1,15.3-15.2.5-.5.9-1.3,1.4-1.3,1.1,0,2.5-.2,3.2.5a4,4,0,0,1,.5,3.2c0,.6-.8,1.1-1.3,1.6L38.6,176.4a13,13,0,0,1,1.7,1.9,2.38,2.38,0,0,1,0,3.6h0a2.33,2.33,0,0,1-3.2.3c-.2-.2-.3-.2-.3-.3-.9-.8-1.7-1.6-2.7-2.5l-7.4,7.4a3.21,3.21,0,0,0,0,4.3h0l6.8,6.6a3.32,3.32,0,0,0,4.7,0h0l6.8-6.6c-5.5-4.4-.8-7.4,1.7-4.7,1.7,1.6,3.9-2.2,5.7-3.9L153.3,81.6c.6-.6,1.1-1.4,1.7-1.6a4.64,4.64,0,0,1,3.3.3A1.91,1.91,0,0,1,159.2,83.3Z" transform="translate(-17.62 -17.7)" fill="#f5ab35"/><path d="M195.9,17.7h-2.1a100.16,100.16,0,0,1-9,5.2,23.92,23.92,0,0,0-9.6,7.3c-4.1,4.6-7.7,9.6-12.2,14.1Q112.3,95.3,61.3,146a12.88,12.88,0,0,0-1.6,1.7,2.83,2.83,0,0,0,3.8,4c.6-.5,1.3-1.1,1.9-1.7q49.95-49.95,100-100.1a21.41,21.41,0,0,0,1.3-1.9l10.6,10.6a5,5,0,0,0-1.7,1.1L163.8,71.5l-.5.5a2.78,2.78,0,1,0,4.4,3.4,348.46,348.46,0,0,1,28.1-26.1,23.51,23.51,0,0,0,6.5-8.8,72.45,72.45,0,0,1,5.4-9.3V29.1ZM186.2,50c-1.7,1.3-3.3,2.7-4.9,3.9L171,43.6c6-8.4,12.8-16.1,23.7-19.3l6,5.8C197.6,38.1,193.3,45.1,186.2,50Z" transform="translate(-17.62 -17.7)" fill="#f5ab35"/></svg>