<svg id="Layer_1" data-name="Layer 1" xmlns="http://www.w3.org/2000/svg" xmlns:xlink="http://www.w3.org/1999/xlink" viewBox="0 0 228 228"><defs><linearGradient id="linear-gradient" x1="26.4" y1="26.4" x2="201.6" y2="201.6" gradientUnits="userSpaceOnUse"><stop offset="0" stop-color="#191007"/><stop offset="1" stop-color="#4c3016"/></linearGradient></defs><rect x="1.5" y="1.5" width="225" height="225" rx="85" stroke="#fff" stroke-miterlimit="10" stroke-width="3" fill="url(#linear-gradient)"/><path d="M166.06,71.6a4.55,4.55,0,0,0-3.9-1.62H65.87c-.43,0-.85,0-1.28,0a4,4,0,0,0-3.46,3.13,10.29,10.29,0,0,0,0,3.23,3.86,3.86,0,0,0,3.68,3.29c3,.06,6,.06,9,.06H75v8.7c-3.07,1.23-3.68,2.18-3.68,5.47V119.5a4.08,4.08,0,0,0,4.11,4H77A4.11,4.11,0,0,0,81,119.37h0V92.63a4,4,0,0,0-2.9-3.91c-.22,0-.44-.17-.67-.22V79.85H98.84V86c-2.73.67-3.68,2-3.68,4.68v21.2a3.3,3.3,0,0,0,.17,1.29,4.09,4.09,0,0,0,3.51,3.12v6.53c-2.9.94-3.68,2-3.68,5.07,0,8.31,0,16.51-.06,24.83,0,3.29,1.45,5.52,5.36,5.3,2.79-.17,4.46-1.68,4.46-4.47V127.21a8.34,8.34,0,0,0,0-1,4.16,4.16,0,0,0-3.63-3.46v-6.47c2.51-.84,3.68-2.06,3.68-4.13V90.06a3.53,3.53,0,0,0-2.4-3.63c-1.39-.39-1.45-1.17-1.39-2.23,0-1.22,0-2.45,0-3.68,0-.22,0-.44,0-.67h27.45V93.5c-2.62.45-3.68,1.79-3.68,4.35V124.5a3.75,3.75,0,0,0,3.23,4,13.15,13.15,0,0,0,2.51.06,3.73,3.73,0,0,0,3.92-3.54c0-.15,0-.31,0-.46V97.5a3.81,3.81,0,0,0-2.29-3.74c-.39-.16-.84-.22-1.28-.39V79.85h22.65V99.5c-2.46.56-3.69,1.78-3.69,3.74V131a3.61,3.61,0,0,0,3.46,3.48h2.17a3.81,3.81,0,0,0,4.08-3.5,4.17,4.17,0,0,0,0-.5V103.39a3.88,3.88,0,0,0-3.29-4c-.17,0-.34-.06-.45-.06V79.74h6.3a4.46,4.46,0,0,0,3.85-1.67A6.38,6.38,0,0,0,166.06,71.6ZM78.65,93V118.9c0,1.67-.67,2.29-2.46,2.4s-2.69-.67-2.69-2.4V93.13a2,2,0,0,1,1.66-2.29,2.22,2.22,0,0,1,.63,0h.78a1.89,1.89,0,0,1,2.08,1.7A1.48,1.48,0,0,1,78.65,93Zm23,32.52a2.48,2.48,0,0,1,.66,1.79c.06,4.35,0,8.7,0,13v13.06c0,1.56-.61,2.17-2.17,2.17h-1a1.86,1.86,0,0,1-1.84-1.84c-.06-1,0-1.84,0-2.79V127.6c0-.94,0-1.89,1-2.28a4,4,0,0,1,3.41.18Zm0-36.65a2.59,2.59,0,0,1,.61,1.68c.06,3.62,0,7.19,0,10.76v10.55c0,1.56-.66,2.17-2.17,2.17h-1a1.77,1.77,0,0,1-1.79-1.75V90.79c0-1,.06-1.9,1.06-2.24s2.4-.61,3.35.28Zm30.57,9.88c-.05,4.13,0,8.2,0,12.38v13.28c0,1.39-.45,1.89-1.84,1.89-3,.06-3.29-.16-3.29-3.12V97.93c0-1.68.45-2.24,2.17-2.24,2.33,0,3.11,0,3.05,3Zm24.88,4.07a2.73,2.73,0,0,1,.17,1.17v26.44c0,1.56-.45,2-2,2-3,0-3.12-.17-3.12-3.07V104.4a3.77,3.77,0,0,1,.22-1.56c.61-1.29,1.9-.79,3-.84.82-.11,1.49-.06,1.82.78Zm7.29-26.28a5.52,5.52,0,0,1-1.45,1,2,2,0,0,1-1,.06H66a4.12,4.12,0,0,1-1.67-.22c-1-.39-1.29-1.9-1-3.46a2.07,2.07,0,0,1,2-1.45H162.1a2.55,2.55,0,0,1,2.79,2.29A2.58,2.58,0,0,1,164.39,76.5Z" fill="#fff"/></svg>