<svg id="Layer_1" data-name="Layer 1" xmlns="http://www.w3.org/2000/svg" viewBox="0 0 161.6 190.06"><title>icon_5a</title><path d="M183.4,18.4l-15.7-.8c-15.4-.8-29,7.1-37.6,13.8-4.3,3.1-8,7.5-11.6,12.8-6.1,9.1-21,19.1-27,22.9l-2.5-4a5.85,5.85,0,0,0-8.1-1.7L59,75.7a5.72,5.72,0,0,0-2.5,3.6,6.34,6.34,0,0,0,.8,4.5l1.5,2.3L51,91.3a5,5,0,0,0-2.2,3.1,5.07,5.07,0,0,0,.7,3.8l7.3,11.3a5,5,0,0,0,3.1,2.2,1.8,1.8,0,0,0,1,.2,5.92,5.92,0,0,0,2.7-.8l6.6-4.3a101.78,101.78,0,0,1,6.1,18.4H66.5V160c0,29-18.7,39.3-22.5,41.1l-.2.2h-12v6.3H164.4v-6.3H152.5c-3.1-1.7-19.6-11.8-19.6-41.1V125.4H121.5a37.65,37.65,0,0,0,8.8-17.6l.5-2.2-2.5-1.5a98.28,98.28,0,0,1-21.7-16.9c1.2-.8,2.2-1.7,3.3-2.5A89.7,89.7,0,0,0,126,67.1c11.4-16.2,32.8-25.4,39.1-27.8a11.25,11.25,0,0,1,4-.7l13.3.7a9.85,9.85,0,0,0,7.5-2.7,10.42,10.42,0,0,0-6.5-18.2ZM61.3,105.2l-6-9.1,6.6-4.3.3.3.3.3a80.5,80.5,0,0,1,5,8.6Zm65.5,26.5v28.5c0,22,8.6,34.6,15.4,41.1H126.8v-9.4a3.11,3.11,0,0,0-3.1-3.1,3.18,3.18,0,0,0-3.1,3.1v9.4H111V182.2a3.18,3.18,0,0,0-3.1-3.1,3,3,0,0,0-3.1,3.1v19.1H95.2V195a3.1,3.1,0,0,0-6.2,0v6.3H79.6v-9.4a3.11,3.11,0,0,0-3.1-3.1,3.26,3.26,0,0,0-3.1,3.1v9.4H55.3c7.8-6.5,17.6-19.1,17.6-41.1V131.7h28.5V138a3.18,3.18,0,0,0,3.1,3.1,3.11,3.11,0,0,0,3.1-3.1v-6.3h6.3v9.4a3.18,3.18,0,0,0,3.1,3.1,3.11,3.11,0,0,0,3.1-3.1v-9.4Zm-3-23.2A35.6,35.6,0,0,1,113,125.2H86.5a35.53,35.53,0,0,0,17.1-5.1,33.78,33.78,0,0,0,12.8-16.6A79.73,79.73,0,0,0,123.8,108.5ZM111,99.4a26,26,0,0,1-11.1,15.2,27.91,27.91,0,0,1-18.6,4,104.93,104.93,0,0,0-5.6-15.4l-.5-1c-1.2-2.5-2.5-5-3.8-7.5-.2-.2-.2-.3-.3-.7-1.2-1.8-2.2-3.8-3.5-5.6l-5-7.6L83.6,67l2.2,3.3,2.8,4.3c1,1.5,2,3,3,4.3.5.5.8,1.2,1.3,1.7a19.5,19.5,0,0,1,1.8,2.5c.5.7,1.2,1.3,1.7,2l2.2,2.5a14.88,14.88,0,0,0,1.7,1.8l1.3,1.3A85.74,85.74,0,0,0,111,99.4ZM185.4,32a3.39,3.39,0,0,1-2.8,1l-13.3-.7a14.34,14.34,0,0,0-6.5,1c-8.6,3.3-29.8,12.8-42.1,30a73.72,73.72,0,0,1-14.9,16.2c-1.2,1-2.5,2-3.6,2.8l-.3-.3c-1-1.2-1.8-2.3-2.8-3.5A15.76,15.76,0,0,0,97.9,77c-.8-1-1.5-2-2.2-3-.3-.5-.8-1-1.2-1.7,6.6-4.1,22-14.6,28.8-24.7a45.07,45.07,0,0,1,10.1-11.3c7.8-6,20.1-13.1,33.5-12.4l15.7.8a4.19,4.19,0,0,1,4,4.3A3.65,3.65,0,0,1,185.4,32Z" transform="translate(-31.8 -17.54)" fill="#642f7f"/></svg>