<svg id="Layer_1" data-name="Layer 1" xmlns="http://www.w3.org/2000/svg" viewBox="0 0 190 190"><title>icon_1a</title><path d="M112.5,17.5a95,95,0,1,0,95,95A95.09,95.09,0,0,0,112.5,17.5Zm7.8,16.3a79.24,79.24,0,0,1,70.9,70.7H126.1c0-.2-.2-.2-.2-.3s-.2-.2-.3-.3a14.43,14.43,0,0,0-4.6-4.6l-.2-.2a1.33,1.33,0,0,0-.5-.3v-65Zm5.6,86.5h33.2a47.53,47.53,0,1,1-54.8-54.8l.2,33.4a15.71,15.71,0,1,0,21.4,21.4Zm-13.4,71.4a79.15,79.15,0,0,1-8-157.9v16a63.3,63.3,0,1,0,70.7,70.7h16A79.2,79.2,0,0,1,112.5,191.7Z" transform="translate(-17.5 -17.5)" fill="#642f7f"/></svg>