<svg id="Layer_1" data-name="Layer 1" xmlns="http://www.w3.org/2000/svg" viewBox="0 0 190.11 144.65"><title>icon_2a</title><path d="M46.7,72.2a10.32,10.32,0,0,0-10.4-9.5c-1,.1-9.1,1.5-7.4,14.5C30.5,90,42.6,95.8,42.6,95.8,38.5,83.2,47.8,81.2,46.7,72.2Z" transform="translate(-17.39 -40.16)" fill="#642f7f"/><path d="M67.4,53.1C66.9,40,58.6,40,57.6,40.2a10.5,10.5,0,0,0-8.7,11.2c.4,9,10,9.4,8.1,22.6C57,74,67.9,66.2,67.4,53.1Z" transform="translate(-17.39 -40.16)" fill="#642f7f"/><path d="M200.7,107.3c-4.4,0-14,2.5-14,2.5s-5.2-11.7-9.8-15-4.6,1-4.6,7-6.5,27.4-26.3,27.4-78.4-23.5-93.7-23.7c-35.1-.6-33.8,27.7-33.8,27.7v18.3H43.8s8.8-.4,10.7,5.3a12.08,12.08,0,0,0,2.9,2.1c5.5,2.7,15.3,4.4,27.7,4.9a1.21,1.21,0,0,0-.7-.7,6.75,6.75,0,0,1-1.4-6.5l.3-1c.7-1.3,4.6-1.5,16.6-1.5a40.43,40.43,0,0,1,11.9,1.4l.4.1,9.8,6.2a179,179,0,0,0,46.3-12.4c5.8-10.1,22.6-24.6,22.6-24.6,5.5-5.5,16.6-10.4,16.6-13.5S205.1,107.3,200.7,107.3ZM52.6,144.4c-3.5,0-6.3-2-6.3-4.5s2.8-4.5,6.3-4.5,6.3,2,6.3,4.5S56.1,144.4,52.6,144.4Z" transform="translate(-17.39 -40.16)" fill="#642f7f"/><path d="M117.4,180.9c-3.4-1.1-6.7-2.4-10.1-3.8-4.8.4-9.5.7-14,.7-26.3,0-46.8-6.9-57.4-12.9-3.5-2-6.6-4.4-8.1-7.9H24c-4.6,0-8.3-.3-5.8,2.1C45.8,186,85.4,188.9,117.4,180.9Z" transform="translate(-17.39 -40.16)" fill="#642f7f"/><path d="M165,154.2c-12.2,4.8-25.7,8-38.8,10.1l7.4,4.6a171.09,171.09,0,0,0,27.2-10.1A25.39,25.39,0,0,0,165,154.2Z" transform="translate(-17.39 -40.16)" fill="#642f7f"/><path d="M151,166.7c-4.5,1.8-9,3.2-13.5,4.6l2.5,1.5A55,55,0,0,0,151,166.7Z" transform="translate(-17.39 -40.16)" fill="#642f7f"/><path d="M50.7,157.2h-19c.6,1,2.2,3.1,7.3,5.8,11.9,6.3,34.3,12.8,61.8,11.4A81.16,81.16,0,0,1,88.4,167c-14.6-.3-26.4-2.2-32.6-5.2C53.1,160.4,51.4,159,50.7,157.2Z" transform="translate(-17.39 -40.16)" fill="#642f7f"/><path d="M116.6,162.4l-6-3.8a41.23,41.23,0,0,0-10.8-1.1A92.48,92.48,0,0,0,86,158.6a5,5,0,0,0,1.1,2.4,18.48,18.48,0,0,0,2.8,2.8,32.46,32.46,0,0,0,4.5,3.2,99.77,99.77,0,0,0,13.5,6.9c2.1.8,4.4,1.8,6.6,2.5,3.1,1.1,6.2,2.1,9,2.9a52.12,52.12,0,0,0,12.5,2.2c1,0,1.5-.1,1.8-.1,4.2-1.1,4.5-2.2,4.5-2.4a2.27,2.27,0,0,0-.7-1.1l-5.3-3.4-3.2-2-3.9-2.5-8.1-5.1Z" transform="translate(-17.39 -40.16)" fill="#642f7f"/></svg>