<svg id="Layer_1" data-name="Layer 1" xmlns="http://www.w3.org/2000/svg" viewBox="0 0 225 225"><rect width="225" height="225" rx="85" fill="#3e4487"/><path d="M133.06,82.61a11.14,11.14,0,0,0-10.69-11.55,1.18,1.18,0,0,1-.86-.48,9.46,9.46,0,0,0-10.74-4.32A1.14,1.14,0,0,1,110,66a7.75,7.75,0,0,0-4.86-3.56h-2.37a7.11,7.11,0,0,0-5,4.1,7.6,7.6,0,0,0-7,.38,7.89,7.89,0,0,0-3.88,5.83A8.09,8.09,0,0,0,80.57,75a7.86,7.86,0,0,0-2.16,6.2c-.38,0-.59.11-.86.11a8.48,8.48,0,0,0-7.4,6.1,1.39,1.39,0,0,1-1.13,1,10.3,10.3,0,0,0-7.52,12.47V101a10.32,10.32,0,0,0,2.64,4.75c-2,4.26-1.62,7.83,1.24,10.69h0a1,1,0,0,1,.32,1.38h0a.64.64,0,0,1-.1.13h0l-.11.21a10.24,10.24,0,0,0,5,13.55,35.89,35.89,0,0,1,3.94,3,13.72,13.72,0,0,0,8.74,4.69v22.4c1.14,1,2.21.86,3.62.11v-21.7c0-.27.43-.65.75-.76a25.71,25.71,0,0,0,3-.86c1.62-.81,3.13-1.78,4.65-2.65a33.68,33.68,0,0,0,4.1,2.49c7.61,3.34,14.63-.6,16.35-6.86a1.48,1.48,0,0,1,.87-.7,10.24,10.24,0,0,0,7.93-12.12h0a10,10,0,0,0-.93-2.61h0a2,2,0,0,1,0-1.35,10.07,10.07,0,0,0,1.08-4.85,1.43,1.43,0,0,1,.54-1.08,9,9,0,0,0,1.3-1,10.33,10.33,0,0,0,.55-14.6h0l-.06-.07h0a5,5,0,0,1-.43-.6l.27-.21A11.27,11.27,0,0,0,133.06,82.61ZM121.83,89.9h-1a1.71,1.71,0,0,0-1.4,1.94,1.68,1.68,0,0,0,.92,1.24,5.86,5.86,0,0,0,1,.33,7,7,0,0,1,4.81,6.42,6.81,6.81,0,0,1-4,6.48c-1.46.7-1.67,1.13-1.3,2.7a5.24,5.24,0,0,1-1.08,4.69c-.91,1.14-.91,1.62,0,2.87a6.89,6.89,0,0,1-1.55,9.61,7,7,0,0,1-3.73,1.32c-1.3,0-1.78.48-2,1.73-.86,5.07-5.07,7.72-10.09,6.47a10.55,10.55,0,0,1-5.56-3.45c-1.3-1.51-2.16-1.51-3.46,0a10.34,10.34,0,0,1-6.64,3.62c.33-1.46.71-2.92,1.14-4.32A21.08,21.08,0,0,1,100.4,119.1c.22-.11.49-.16.7-.27h.11a1.72,1.72,0,1,0-1.35-3.13,24.65,24.65,0,0,0-11.12,7.67l-1,1.13c.27-2.27.43-4.32.7-6.26.38-2.59.87-5.18,1.14-7.72a7.45,7.45,0,0,1,1.78-3.94,36.87,36.87,0,0,1,9.33-8,5.18,5.18,0,0,0,.87-.6,1.61,1.61,0,0,0,.43-2.21h0a1.62,1.62,0,0,0-2.21-.59,32.16,32.16,0,0,0-3.46,2.21c-1.56,1.13-3,2.32-4.75,3.72.65-2,1.08-3.72,1.68-5.39A42.54,42.54,0,0,1,100,82.5c.11-.11.21-.27.32-.38a1.73,1.73,0,0,0-2.87-1.93l-.07.11-.06.1a39,39,0,0,0-5.82,10,97.91,97.91,0,0,0-5.77,21.75c-.38,2.27-.65,4.48-1,7.07a4.85,4.85,0,0,1-.65-1.18c-.81-2.49-1.56-4.92-2.37-7.4a.59.59,0,0,1-.06-.32h0a1.74,1.74,0,0,0-1.89-1.57H79.5a1.68,1.68,0,0,0-1.25,2c.75,4.71,2.25,9.07,5.34,12.71a2,2,0,0,1,.54,1.73c-.27,3.18-.49,6.42-.7,9.6a7.23,7.23,0,0,0,0,1.14,9.58,9.58,0,0,1-7.29-4.86A4,4,0,0,0,73.23,129a6.8,6.8,0,0,1-3.83-10.74h0c1.29-1.67,1.18-2.32-.65-3.46a4.07,4.07,0,0,1-.65-.43,5,5,0,0,1-.78-7l.07-.08h0c1.3-1.62,1.24-2.16-.38-3.46a6.91,6.91,0,0,1-.86-9.71A7,7,0,0,1,71,91.55c1.45-.11,1.94-.54,2.1-2A4,4,0,0,1,73.44,88a5.08,5.08,0,0,1,6.47-3,1.89,1.89,0,0,0,2.16-.38,1.79,1.79,0,0,0,.09-2.1,4.3,4.3,0,0,1,1.73-5.78,4.18,4.18,0,0,1,3.83-.1c1.73.64,2.81-.22,2.59-2a4.32,4.32,0,0,1,2-4.65c1.62-.91,3.35-.64,5.08.6a2.67,2.67,0,0,0,1.94.43c.86-.16,1-1,1.13-1.89a2.2,2.2,0,0,1,.27-1,3.36,3.36,0,0,1,4.4-1.79h0a3.25,3.25,0,0,1,2,2.54c.37,1.89,1.35,2.37,3.07,1.46a3.92,3.92,0,0,1,.87-.43,5.91,5.91,0,0,1,7.66,3.29h0a2.09,2.09,0,0,0,2.43,1.41H122A7.7,7.7,0,1,1,122.08,90h0Z" fill="#fff"/><path d="M139.81,126a5.44,5.44,0,0,1,1.67,4.27,5.73,5.73,0,0,1-5.61,5.83h-17a.84.84,0,0,1-.92-.49.8.8,0,0,1,.38-1l.16-.05h17a4.41,4.41,0,0,0,4.48-4.32,4.08,4.08,0,0,0-.43-1.94,3.23,3.23,0,0,0-4.21-1.57l-.27.17a1.91,1.91,0,0,0-1,2.1,1.77,1.77,0,0,0,1.57,1.4,2.35,2.35,0,0,0,.65.06c.11,0,.21-.11.32-.16-.11-.11-.16-.27-.27-.27a.78.78,0,0,1-.75-.81h0v-.06h0a.84.84,0,0,1,.91-.76h.09a1.89,1.89,0,0,1,1.57,1.78,1.85,1.85,0,0,1-1.52,1.78,3.7,3.7,0,0,1-4.15-2.59,3.58,3.58,0,0,1,2.21-4.16A4.61,4.61,0,0,1,139.81,126Z" fill="#fff"/><path d="M134.79,69.28c0-1.08.76-1.73,2.05-1.73h12.9c1.35,0,2.11.65,2.11,1.73S151,71,149.69,71h-12.8C135.55,71,134.79,70.36,134.79,69.28Z" fill="#fff"/><path d="M152.55,99.5a21.7,21.7,0,0,0-1.3-4.48,9.47,9.47,0,0,0-6.58-5.72,13.72,13.72,0,0,0-8.21.59,2.25,2.25,0,0,0-1.62,2.48,18.21,18.21,0,0,0,.71,3.51,10.67,10.67,0,0,0,10.09,7.83c1.67-.33,3.18-.6,4.86-1a2.48,2.48,0,0,0,2.15-2.75A2.36,2.36,0,0,0,152.55,99.5ZM138.3,93h0c5.23-2,10,.86,10.63,6.53C144.56,101.24,139.32,99.35,138.3,93Z" fill="#fff"/><path d="M133.6,108.68h17.82c1.34,0,2.15.65,2.15,1.73s-.81,1.73-2.1,1.73H133.55c-1.41,0-2.11-.59-2.16-1.73S132.2,108.68,133.6,108.68Z" fill="#fff"/><path d="M140.08,77.86H161.5a2.75,2.75,0,0,1,2.26.87V80.5a3,3,0,0,1-2.26.87h-21c-1.3,0-2-.49-2.16-1.46A1.66,1.66,0,0,1,139.69,78h.11A.42.42,0,0,1,140.08,77.86Z" fill="#fff"/><path d="M155.57,114.62c-4.37-.54-7.56,1.62-10,5-2.27,3.08-2,4.32,1.19,6.37,5.67,3.73,11.5,2.75,15.6-2.7.54-.75,1-1.56,1.51-2.32v-2A12.44,12.44,0,0,0,155.57,114.62Zm-7.83,7.88c2.92-5.29,8.43-5.77,12.37-2.21C157.5,125.2,152.22,126.39,147.74,122.5Z" fill="#fff"/></svg>