<svg id="Layer_1" data-name="Layer 1" xmlns="http://www.w3.org/2000/svg" viewBox="0 0 225 225"><rect width="225" height="225" rx="85" fill="#3e4487"/><path d="M73.4,154.41v1.21a1,1,0,0,1-1,.93H71.15a.93.93,0,0,1-.94-.92h0v-1.21a.93.93,0,0,1,.92-.94h1.23a.88.88,0,0,1,1,.7A.85.85,0,0,1,73.4,154.41Z" fill="#fff"/><path d="M83.77,147.16v-1.37a.92.92,0,0,1,.91-.93h1.4a.93.93,0,0,1,.93.93v1.37a.93.93,0,0,1-.92.94H84.7a.9.9,0,0,1-.93-.87h0Z" fill="#fff"/><path d="M97.22,152.65h0v4.78l-1.65,2.69-1.59,1a1,1,0,0,1-1.21-.11,3.27,3.27,0,0,0-4.61,0h0l-.15.15a3.18,3.18,0,0,0-.88,1.59,1.11,1.11,0,0,1-.94.77h-1.6a.94.94,0,0,1-.93-.77,6.72,6.72,0,0,0-5.93-5.93,1,1,0,0,1-.76-.93v-1.43a1,1,0,0,1,.93-1H78a10.42,10.42,0,0,1,7.24,4.34,1,1,0,0,0,1.32.27,6.65,6.65,0,0,1,6-.88,1,1,0,0,0,1.21-.71v-3.62a.93.93,0,0,1,.92-.94h1.38a.86.86,0,0,1,1.1.52h0A.8.8,0,0,1,97.22,152.65Z" fill="#fff"/><path d="M100.78,136.85V127.3a1.2,1.2,0,0,1,1.16-1.16h1.15a1.2,1.2,0,0,1,1.15,1.16v9.55a1.12,1.12,0,0,1-1.09,1.15h-1.21A1.16,1.16,0,0,1,100.78,136.85Z" fill="#fff"/><path d="M103.14,154.9h-1.59a.94.94,0,0,1-.88-.77V154a6.63,6.63,0,0,0-6.42-5.76H91.56a.92.92,0,0,1-.93-.91h0v-1.59a.88.88,0,0,1,.81-.93h.06c5-.44,9.33.88,11.74,5.93a11.14,11.14,0,0,1,.88,3,1,1,0,0,1-.71,1.16A.61.61,0,0,1,103.14,154.9Z" fill="#fff"/><path d="M105.23,143a1,1,0,0,1-1-1v-1.21a1,1,0,0,1,1-1h1.21a1,1,0,0,1,1,1V142a1,1,0,0,1-1,1Z" fill="#fff"/><path d="M110.88,118.85v.76a1.18,1.18,0,0,1-1.15,1.21h-.93a1.18,1.18,0,0,1-1.21-1.15h0v-.82a1.18,1.18,0,0,1,1.15-1.21h.93A1.25,1.25,0,0,1,110.88,118.85Z" fill="#fff"/><path d="M107.59,126a1.65,1.65,0,0,1,3.29,0v1.65a1.65,1.65,0,1,1-3.29.26,1.13,1.13,0,0,1,0-.26Z" fill="#fff"/><path d="M111,146.67v5.93a1.18,1.18,0,0,1-1.16,1.2h-.92a1.17,1.17,0,0,1-1.21-1.13h0v-6a1.19,1.19,0,0,1,1.17-1.21h.91a1.19,1.19,0,0,1,1.21,1.17h0Z" fill="#fff"/><path d="M115.88,124.22v.55a1.36,1.36,0,0,1-1.35,1.37H114a1.36,1.36,0,0,1-1.37-1.35h0v-.57a1.37,1.37,0,0,1,1.37-1.37h.55A1.4,1.4,0,0,1,115.88,124.22Z" fill="#fff"/><path d="M114.89,146.4h-1a1.2,1.2,0,0,1-1.15-1.16V140.8a1.18,1.18,0,0,1,1.15-1.15h1A1.19,1.19,0,0,1,116,140.8v4.44A1.29,1.29,0,0,1,114.89,146.4Z" fill="#fff"/><path d="M116,134.16v.93a1.21,1.21,0,0,1-1.15,1.15h-1a1.21,1.21,0,0,1-1.15-1.15v-.93a1.2,1.2,0,0,1,1.15-1.16h.94a1.11,1.11,0,0,1,1.21,1Z" fill="#fff"/><path d="M62.5,89.7l-2.11-2.2v-.16a3.76,3.76,0,0,0,.88-.71c8-8,16.08-16.08,24-24.1,1.48-1.48,2.08-1.48,3.56,0L96.9,70.6a.43.43,0,0,0,.61,0h0l.54-.44,6.26-6.25c1-.94,1.92-1,2.85-.11,3.85,3.73,7.63,7.57,11.42,11.41.11.11.16.17.16.28s0,.27-.11.32h0l-1.81,1.69a.41.41,0,0,1-.58,0h0c-3.29-3.29-6.53-6.58-9.82-9.93a.43.43,0,0,0-.61,0h0l-5.54,5.6a.41.41,0,0,0,0,.58h0l3,2.85a.45.45,0,0,1,0,.61h0l-1.76,1.67a.41.41,0,0,1-.58,0h0l-.11-.11L87.56,65.89a.43.43,0,0,0-.61,0h0L63.08,89.7a.35.35,0,0,1-.6,0Z" fill="#fff"/><path d="M114.56,151.72v-.33c.6-2.63,3.29-4.61,6.58-4.88a1.5,1.5,0,0,1,1.65,1.33h0v.47a1.65,1.65,0,0,1-1.48,1.59,3.35,3.35,0,0,0-3.4,2.36,1.48,1.48,0,0,1-1.38,1h-.44A1.57,1.57,0,0,1,114.56,151.72Z" fill="#fff"/><path d="M124.44,154.3v3.29a.87.87,0,0,1-.86.88h-1.94a5.24,5.24,0,0,0-5,2.63,1.72,1.72,0,0,1-2.25.72,1.39,1.39,0,0,1-.71-.72c-2.42-3.45-6-3.67-8.68-.44a.89.89,0,0,1-1,.28l-1.48-.77a.86.86,0,0,1-.36-1.16h0c2.25-4.28,8.07-5.1,12.62-1.92a.91.91,0,0,0,1.16,0,8.28,8.28,0,0,1,4.71-1.92,1,1,0,0,0,.77-.77.85.85,0,0,1,.88-.77h1.59C124.11,153.42,124.44,153.8,124.44,154.3Z" fill="#fff"/><path d="M127.24,149.8a.93.93,0,0,1-.94-.92h0V147.5a.92.92,0,0,1,.91-.93h1.34a.93.93,0,0,1,.94.92h0v1.37a.93.93,0,0,1-.92.94h-1.33Z" fill="#fff"/><path d="M139.91,156.93l.77,3.3a3.68,3.68,0,0,0-2.63,3.29.11.11,0,0,1-.11.11h-2.8a1.19,1.19,0,0,1-.55-.44c-1-3.24-3.46-3.9-6.2-1.59h-.11l-2.53-1.81v-.11c2.2-3.46,6.81-3.74,10.43-.61h.11A8.45,8.45,0,0,1,139.91,156.93Z" fill="#fff"/><path d="M147.65,157.59v1.48a.87.87,0,0,1-.86.88h-1.5a.87.87,0,0,1-.88-.86h0v-1.5a.87.87,0,0,1,.86-.88h1.5a.87.87,0,0,1,.88.86h0Z" fill="#fff"/><path d="M164,103.7a1,1,0,0,1,.07,1.41.23.23,0,0,1-.07.07h0l-.94.88a1.11,1.11,0,0,1-1.48-.11l-2.08-2.36a1.09,1.09,0,0,0-1.48-.11h0L148.5,113c-1.48,1.49-2.09,1.49-3.57,0l-6-6a1,1,0,0,0-1.41-.07l-.07.07-.11.11a1.53,1.53,0,0,1-.61.6l-5.21,5.22a4.17,4.17,0,0,1-3,1.21,5.72,5.72,0,0,0-1.37.11c-1.76.32-2.64,1.75-2.64,3.84V142a1,1,0,0,1-1,1.05h-1.47a1,1,0,0,1-1-1V142h0V120a15.47,15.47,0,0,1,.33-4.5,1.1,1.1,0,0,0-.72-1.32c-.11,0-.16-.11-.32-.11H102.7a9.52,9.52,0,0,0-3,.44,2.93,2.93,0,0,0-2.42,3.29v22.34a1,1,0,0,1-1,1H94.86a1,1,0,0,1-1-1h0v-22a17,17,0,0,1,.72-3.46,1.07,1.07,0,0,0-.17-.93c-2.19-2.25-4.33-4.44-6.58-6.69a1,1,0,0,0-1.41-.08.3.3,0,0,0-.08.08l-6,6c-1.48,1.48-2.25,1.48-3.56-.11-2.64-3-5.11-6-7.74-9a1,1,0,0,0-1.4-.18l-.08.07-.22.11-3.85,4a1,1,0,0,1-1.41.13h0L62,108l-1-1,.11-1.65c1.48-1.37,2.85-2.8,4.34-4.17l1.37-1.37c1.15-1.16,2-1.16,3.13.11,2.68,3,5.32,6.2,8,9.33l.11.11a1.1,1.1,0,0,0,1.44.14h.11l5.32-5.33.88-.88a1.8,1.8,0,0,1,2.52-.33,1.72,1.72,0,0,1,.33.33l8.07,8.07a1.45,1.45,0,0,0,1.76.44,15.19,15.19,0,0,1,4.06-.77c8.51-.11,17,0,25.46,0a2.19,2.19,0,0,0,1.65-.71l6.84-6.82c1.37-1.37,2.08-1.37,3.4,0l6.09,6.1a1,1,0,0,0,1.41.07l.07-.07.11-.11,9.5-9.55c1.2-1.21,1.92-1.21,3.12,0Z" fill="#fff"/><path d="M105.23,95.36,129.6,71c1.31-1.32,2-1.32,3.29,0l7.3,7.3a1.64,1.64,0,0,0,2.3.11.57.57,0,0,0,.11-.11l.11-.11c1.92-2,3.84-3.9,5.82-5.82a1.69,1.69,0,0,1,2.36-.37h.05l.28.28L164.5,85.59c0,.11.11.11.11.16l-1.11,1.16a1.64,1.64,0,0,1-2.32.1h0a.47.47,0,0,1-.1-.1l-9.82-9.83a1.57,1.57,0,0,0-2.22-.14h0a.93.93,0,0,0-.14.14h0l-3.73,3.73a1.66,1.66,0,0,0-.14,2.33h.11l1.31,1.21a1.63,1.63,0,0,1,.12,2.3l-.12.12h0l-.11.11a1.71,1.71,0,0,1-2.33-.11L131.79,74.61a.86.86,0,0,0-1.21,0h0L108.14,97.06a1.77,1.77,0,0,1-2.36,0l-.61-.61A.82.82,0,0,1,105.23,95.36Z" fill="#fff"/></svg>