<svg id="Layer_1" data-name="Layer 1" xmlns="http://www.w3.org/2000/svg" viewBox="0 0 225 225"><rect width="225" height="225" rx="85" fill="#3e4487"/><path d="M109.27,63.42h0a2,2,0,1,1,2,2,1.89,1.89,0,0,1-2-1.77v-.23Z" fill="#fff"/><path d="M121.08,123.29a2,2,0,1,1-2,2A2,2,0,0,1,121.08,123.29Z" fill="#fff"/><path d="M132.5,79.86A2.05,2.05,0,0,1,130.29,78h0v-.33a2.07,2.07,0,1,1,4.14,0h0A2.17,2.17,0,0,1,132.5,79.86Z" fill="#fff"/><path d="M160.14,84.94a11.14,11.14,0,0,0-3.47-5.69,20.16,20.16,0,0,0-12.25-5.07A1.48,1.48,0,0,1,142.93,73a18.53,18.53,0,0,0-9.71-10.59A28.94,28.94,0,0,0,119.92,60c-1.6.11-2.43.89-2.43,2.1s.94,2,2.43,2c1.82.11,3.7.11,5.41.27,7.5.77,12.58,5.13,14.51,12.14,1.16,4.3.72,8.66.33,13-.61,8.11-1.16,16.17-1.65,24.28a39.4,39.4,0,0,1-.78,6.12c-1.76,7.45-6.4,12.86-12.85,16.72C114.4,143,103,144.75,91,142.82c-2.2-.33-4.36-1.16-6.73-1.77.77-1.05,1.33-1.93,1.93-2.65a3.13,3.13,0,0,1,1.33-.71c3.25-.28,6.56-.33,9.76-.72a53.49,53.49,0,0,0,17.49-5.08c.11,0,.11,0,.17-.11a2,2,0,0,0,1-2.63v-.07c-.55-1.16-1.66-1.38-3-.88-1,.55-2,.93-3,1.38a57.65,57.65,0,0,1-19.2,3.86A41.63,41.63,0,0,1,80,133a15.17,15.17,0,0,1-6.84-3.15c.17-.11.44-.16.61-.27,5.4-1.6,9.32-5.08,12.58-9.61a2.07,2.07,0,0,0,.27-2.37,1.91,1.91,0,0,0-2-1,12.48,12.48,0,0,1-8.22-2.81c-.34-.28-.61-.55-.89-.77l.17-.17,2-.33A25.85,25.85,0,0,0,92,106.07a55.58,55.58,0,0,0,6-6.46c3.47-3.91,7.55-6.73,13.07-7.22a15.19,15.19,0,0,1,16.17,11.2c1.21,5.07.16,9.71-2.37,14.18-.78,1.32-.61,2.54.44,3.14s2.26.28,3-1.16a23.4,23.4,0,0,0,3.31-10.2C133,94.55,119.87,86,108,88.63c-.77.17-1.65.45-2.65.72.11-.55.17-.88.28-1.32a43.66,43.66,0,0,1,4-11.2c.77-1.49.71-2.38-.61-3.31a68.72,68.72,0,0,0-6-4,6,6,0,0,1-.77-.55c.77-.45,1.49-.78,2.21-1.16a2.1,2.1,0,0,0,.88-2.71h0a2.16,2.16,0,0,0-2.7-.88,20,20,0,0,0-2.82,1.49,14.55,14.55,0,0,0-3,2.81,2,2,0,0,0,.31,2.81,1.93,1.93,0,0,0,.63.34c.33.17.77.28,1.16.44a25.7,25.7,0,0,1,6.58,3.75A45.32,45.32,0,0,0,101,91.12a.84.84,0,0,1-.44.71A34.75,34.75,0,0,0,93.35,99c-3.14,3.86-6.84,7-11.7,8.27a45.92,45.92,0,0,1-8.38,1.6c-3.48.34-3.7,2.27-2.43,4.64a8.56,8.56,0,0,0,1.93,2.54,48.05,48.05,0,0,0,5,3.25,19.17,19.17,0,0,0,3,1.16,7.61,7.61,0,0,1-.55.72c-2.81,3-6.45,4.52-10.48,5.35-2.37.44-2.87,1.93-1.6,3.86a14.33,14.33,0,0,0,6.36,5.1c2.26.88,4.74,1.6,7.06,2.26-.11.17-.33.44-.55.77L65.5,159.76c-1.38,1.93-1,3.25,1.21,3.91,1.66.56,3.31.89,5.08,1.33h4.36c2.37-.44,4.63-1.05,6.89-1.66,7.89-2.81,13.63-8.05,18.38-14.78a2.33,2.33,0,0,1,1.78-1.06,51.76,51.76,0,0,0,19.87-5.08c6.84-3.31,12.47-7.94,16.16-14.79,2.54-4.8,3.31-10,3.48-15.28.27-6.18.77-12.41,1.21-18.59a1.1,1.1,0,0,1,.94-1.16c4.52-1.49,9-3,13.57-4.53C160.14,87.5,160.59,86.7,160.14,84.94ZM70.21,160.5a3.49,3.49,0,0,1,.55-.77l10.65-14.68c.33-.44.55-.77,1.21-.44a36.75,36.75,0,0,0,13.3,3,5,5,0,0,1,.94.17C90.29,156.83,79.2,162.63,70.21,160.5Zm74.37-72.12V78.21c4.53.71,8.56,2.2,11.26,6.4Z" fill="#fff"/></svg>