<svg id="Layer_1" data-name="Layer 1" xmlns="http://www.w3.org/2000/svg" viewBox="0 0 225 225"><rect width="225" height="225" rx="85" fill="#3e4487"/><path d="M158.33,101a4.16,4.16,0,0,1-1.66-3.09A18.68,18.68,0,0,0,140.5,81.5a15.84,15.84,0,0,0-10.17,2.21,1.86,1.86,0,0,0-.72.61,1.7,1.7,0,0,0,.44,2.36l.11.07a2.13,2.13,0,0,0,2.27-.27,13.58,13.58,0,0,1,15.25,1.6,15.88,15.88,0,0,1,5.82,12.26,2.13,2.13,0,0,0,1.05,2.1c5.08,2.87,7.18,7.46,7,13.15a13.12,13.12,0,0,1-9.9,12.28,2.44,2.44,0,0,0-1.93,1.6,12.53,12.53,0,0,1-6.91,6.13,13.5,13.5,0,0,1-1.77.45,1.57,1.57,0,0,1-.11-.61v-14a2.75,2.75,0,0,1,.61-1.33c2.54-2.37,5.08-4.64,7.63-7a1.75,1.75,0,0,0,.51-2.42l-.18-.19a1.8,1.8,0,0,0-2.54-.07l-.17.18c-1.6,1.38-3.1,2.82-4.64,4.2L140.84,116V104.79c0-1.49-1.05-2.38-2.21-1.93a2,2,0,0,0-1.22,2.1V125.5a8.9,8.9,0,0,1-1-.94c-1.66-1.49-3.26-3.09-5-4.53a2.23,2.23,0,0,0-1.83-.44,1.81,1.81,0,0,0-1.05,1.33,2.54,2.54,0,0,0,.78,1.76c2.43,2.38,5,4.65,7.51,7,.28.28.61.61.61.89v5.64c-.11,0-.27.11-.33.11a1.15,1.15,0,0,1-.55-.11A12.76,12.76,0,0,1,128,129.5a2.8,2.8,0,0,0-1.77-1.49,12.62,12.62,0,0,1-9.45-11.39,13.38,13.38,0,0,1,5.85-13.43,3.29,3.29,0,0,0,1.61-2.71,15.85,15.85,0,0,1,2.87-9c.72-1.16.61-2.1-.27-2.71s-1.83-.27-2.55.78a19.72,19.72,0,0,0-3.42,10,1.54,1.54,0,0,1-.56,1,17,17,0,0,0-7,12.71c-.75,7.74,3.69,15.3,11,17.74a1.65,1.65,0,0,1,.94.72,16.37,16.37,0,0,0,12.16,8.18v10.34c-.78.33-1,.11-1.16-.72a10.83,10.83,0,0,0-6.86-8.68,2.51,2.51,0,0,1-1-.94,10.63,10.63,0,0,0-6-4.75,1.8,1.8,0,0,1-.94-.94c-1.49-4.15-4.31-6.58-8.56-7.19s-7.35,1.16-9.84,4.48a1.62,1.62,0,0,1-1,.61,10.78,10.78,0,0,0-7.46,4.2,5.4,5.4,0,0,0-.56.61,9.11,9.11,0,0,0-7.35-5.64V126.9a1,1,0,0,1,.28-.17.89.89,0,0,1,.55-.16A14.85,14.85,0,0,0,97,120.1a3.93,3.93,0,0,1,2.38-1.82c11.33-3.93,14.2-19.73,5.08-27.8a8.21,8.21,0,0,1-2.87-5.09c-2-8.24-9.4-14.92-18.41-14.32a15.83,15.83,0,0,0-8.56,3.16.11.11,0,0,0-.11.11h0A1.74,1.74,0,0,0,74,76.71l.12.11a1.68,1.68,0,0,0,2.33.39h.09a1.92,1.92,0,0,1,.55-.33,12.85,12.85,0,0,1,15.14.45,15,15,0,0,1,6,11.93A2.26,2.26,0,0,0,99.5,91.5c5.2,3.1,7.19,7.79,6.47,13.6a12.38,12.38,0,0,1-9.47,10.58A3.25,3.25,0,0,0,94.79,117a12.12,12.12,0,0,1-4.29,4.75c-1.22.72-2.54,1.22-3.92,1.93a2,2,0,0,1-.11-.77V109.6a2.24,2.24,0,0,1,.6-1.16c2.27-2.1,4.54-4.2,6.86-6.3,1.32-1.22,1.6-2.21.72-3.1s-1.77-.72-3.1.56l-5,4.64V93.79a3.51,3.51,0,0,0-.19-1.29,1.72,1.72,0,0,0-3.26.27V113c-.44-.44-.72-.61-.94-.88-1.49-1.33-3-2.71-4.48-4a4.12,4.12,0,0,0-.94-.72,1.63,1.63,0,0,0-2,.72,1.71,1.71,0,0,0,.44,2.38h0c2.44,2.27,4.92,4.48,7.36,6.74.27.28.6.61.6.89v5.25h-.33a.62.62,0,0,1-.44-.11,11.69,11.69,0,0,1-8-6.3,3.64,3.64,0,0,0-2-1.66,11.55,11.55,0,0,1-3.43-1.6c-7.46-5.09-7.29-17,.45-22a2.45,2.45,0,0,0,1.38-2.43,15.93,15.93,0,0,1,1.78-7.19,1.78,1.78,0,0,0-.37-2.49h0a1.64,1.64,0,0,0-.22-.14c-.94-.55-1.83-.16-2.43,1A21.34,21.34,0,0,0,67.3,88.1a2,2,0,0,1-.72,1.21,15.84,15.84,0,0,0-6,9A22.19,22.19,0,0,0,60,101v3.76a58.51,58.51,0,0,0,2.27,6.69,14.74,14.74,0,0,0,8.34,7.09,1.28,1.28,0,0,1,.94.72A15.6,15.6,0,0,0,83.1,127c0,1.49.11,3,0,4.47a1.32,1.32,0,0,1-.55.72,9.81,9.81,0,0,0-3.7,3,1.6,1.6,0,0,1-.94.55,9,9,0,0,0-7.41,6.67,1.53,1.53,0,0,1-.89.94,10.89,10.89,0,0,0-5.24,6.13c-.28.78-.17.61-.28.78a9.62,9.62,0,0,0-.44,1.38c-.11.33,0,.44.11,1.16A2.43,2.43,0,0,0,66.3,154h74.45l-.11-3.43V140a1,1,0,0,1,.28-.17,15.81,15.81,0,0,0,11.22-7.9,1.81,1.81,0,0,1,.88-.61c6.69-2.1,10.45-6.74,11.56-13.43A16.41,16.41,0,0,0,158.33,101ZM67.57,150.34a7.11,7.11,0,0,1,4-4.15,2.73,2.73,0,0,0,2-2.54,5.15,5.15,0,0,1,5.19-4.53,2.48,2.48,0,0,0,2.55-1.62,5.14,5.14,0,0,1,9.56,1.77,2,2,0,0,0,1.93,2,5.6,5.6,0,0,1,4.2,3.15,3.18,3.18,0,0,0,1.5,1.33,6,6,0,0,1,4.14,4.64H67.57Zm64,.11h-24.2c-.89,0-1.16-.28-1.33-1.16a9.2,9.2,0,0,0-5.36-6.58,6.54,6.54,0,0,1-1.16-.94c-.88-.94-1.77-1.94-2.65-3a6.53,6.53,0,0,1,5.86-3.15,2.6,2.6,0,0,0,2.7-1.65,6.65,6.65,0,0,1,6.91-3.49,6.87,6.87,0,0,1,5.7,5.64c.27,1.66.55,1.94,2.21,2.21a6.5,6.5,0,0,1,5.08,3.87,2.89,2.89,0,0,0,2,1.77,7.23,7.23,0,0,1,5.2,6.41,4.3,4.3,0,0,1-.95.07Z" fill="#fff"/></svg>