<svg id="Layer_1" data-name="Layer 1" xmlns="http://www.w3.org/2000/svg" viewBox="0 0 225 225"><rect width="225" height="225" rx="85" fill="#3e4487"/><path d="M138.4,162.35c.33,1.43.11,1.93-1.16,2.65h-.61a2.34,2.34,0,0,1-1.44-1.83,8.93,8.93,0,0,0-3.15-4.92,68.35,68.35,0,0,0-6.08-4.47c-2.38-1.61-4.92-2.93-7.3-4.43-1.16-.71-1.33-1.77-.61-2.54a1.53,1.53,0,0,1,2-.33c4.59,2.71,9.34,5.09,13.38,8.62A14,14,0,0,1,138.4,162.35Z" fill="#fff"/><path d="M151.22,79.5A118.37,118.37,0,0,0,141.71,61a1.38,1.38,0,0,0-.88-.88,1.71,1.71,0,0,0-2.21.88c-1.22,2-2.49,4.15-3.71,6.25a72,72,0,0,0-6.41,14c-1.32,4.42-.16,8.18,2.93,11.55a11.77,11.77,0,0,0,7.07,3.73v1.93H89.36v-1.9c4.14-1.16,6.25-2.38,8.14-4.87a11.82,11.82,0,0,0,1.32-11.83A112.45,112.45,0,0,0,89.2,61.07a1.83,1.83,0,0,0-.78-.78,1.62,1.62,0,0,0-2.1.78c-.61,1-1.22,1.93-1.77,2.93a103.89,103.89,0,0,0-8,16c-2.21,6.25-.16,12,5.31,15.15A36.29,36.29,0,0,0,86,96.84v2.21a4.92,4.92,0,0,1,.11,1.21c0,1.16.78,1.66,2.55,1.66h20.56a1.59,1.59,0,0,1,1.33.28,18.64,18.64,0,0,1,3.15,3.43,5.65,5.65,0,0,1-1.49,7.57,13,13,0,0,1-3,1.93c-2.82,1.33-5.53,2.55-8.46,3.71a100.41,100.41,0,0,0-16,7.57,24.36,24.36,0,0,0-9.79,31A20.35,20.35,0,0,0,80.5,165h.72c1.6-1,1.66-1.82.33-3.26a19.83,19.83,0,0,1-5.55-13c-.16-6.42,1.61-12.06,6.42-16.48A34.5,34.5,0,0,1,92,126.12c4.69-2,9.45-3.87,14.09-6a46.3,46.3,0,0,0,7.66-4.12,8,8,0,0,0,3.59-8.34,36.54,36.54,0,0,0-1-4A13.62,13.62,0,0,1,123,108c1.94,2.71,2.55,6.63-1.32,9.34-1.61,1.16-3.38,2.1-4.92,3.37a34.06,34.06,0,0,0-5.81,4.7c-5,5.31-6.41,13.6,1.83,20.12h0a1.58,1.58,0,0,0,2.22-.07h0a1.68,1.68,0,0,0-.26-2.36h0c-.45-.45-1-.89-1.44-1.33-1.6-1.6-2.93-3.26-3.15-5.47a10.43,10.43,0,0,1,3.54-9.18,51.41,51.41,0,0,1,5.19-3.87c1.94-1.44,4-2.65,5.81-4.15a8,8,0,0,0,2.71-8.34c-.72-3.54-2.82-5.92-5.64-7.85a6.51,6.51,0,0,1-1-.72h18.47a2.56,2.56,0,0,0,2.37-1V100c0-.28.11-.56.11-.78v-2.5a10.78,10.78,0,0,0,2-.55,12.23,12.23,0,0,0,8.18-9.45,1,1,0,0,0,.17-.55V83.5A13.66,13.66,0,0,0,151.22,79.5ZM85.77,68.2l.16.11V76.6l-3.7-1.82ZM86,93c-6.36-.11-9.07-8.46-5-15.26,1.6.78,3,1.49,4.59,2.27a.89.89,0,0,1,.44.77Zm3.5-24.8.28-.11,6.36,13-6.64,4Zm-.22,24.93V89.32a.78.78,0,0,1,.28-.61c2.26-1.44,4.48-2.71,6.8-4,.61,3.6-3,7.91-7.08,8.46Zm43.56-13.82c1.77-3.81,3.54-7.52,5.37-11.22l.33.16V84.5a2.83,2.83,0,0,1-.78-.55c-1.49-1.22-3.09-2.38-4.58-3.59a1.83,1.83,0,0,1-.37-1ZM138.59,93h0c-4.25-.17-8-5.47-6.85-9.78l3.59,2.93a6.82,6.82,0,0,0,1,.77c2.51,2.08,2.73,2.58,2.23,6.08ZM142,68.25l.17-.11c1.16,2.1,2.26,4.32,3.53,6.53l-3.62,1.83V68.2H142Zm6.69,18.91a9.1,9.1,0,0,1-6.8,6.19V81.25a1.2,1.2,0,0,1,.77-1.33c1.44-.61,2.82-1.44,4.32-2.1,1.2,3,2.86,5.86,1.7,9.34Z" fill="#fff"/></svg>