<svg id="Layer_1" data-name="Layer 1" xmlns="http://www.w3.org/2000/svg" viewBox="0 0 225 225"><rect width="225" height="225" rx="85" fill="#3e4487"/><path d="M77.05,105.75a1.07,1.07,0,0,1,1,1.11v.08a1,1,0,0,1-1,1h-.21a1.19,1.19,0,0,1-1.13-1.19A1.4,1.4,0,0,1,77.05,105.75Z" fill="#fff"/><path d="M95.63,102.13a1.15,1.15,0,0,1,1.18,1h0a1.23,1.23,0,0,1-1.18,1.13,1.15,1.15,0,0,1-1.14-1A1.18,1.18,0,0,1,95.63,102.13Z" fill="#fff"/><circle cx="98.33" cy="105.8" r="1.13" fill="#fff"/><path d="M101.89,78.5a1.09,1.09,0,0,1,1.13.92v.16a1.08,1.08,0,0,1-1.13,1,1.19,1.19,0,0,1-1.19-1.13h0a1.24,1.24,0,0,1,1.19-1Z" fill="#fff"/><path d="M103.29,77.61a1,1,0,0,1-1.17-.8h0v-.23a1.13,1.13,0,1,1,2.26,0,1.15,1.15,0,0,1-1.08,1Z" fill="#fff"/><path d="M71.92,98.5c0-.11,0-.11.1-.11,1.14-2.48,2.22-5,3.51-7.35a29.17,29.17,0,0,1,2.22-3.4c.7-1,1.46-1,2.16,0l.59.86a13.1,13.1,0,0,0,.27-2.5c-.16-2,.87-3.35,2.22-4.7A60.14,60.14,0,0,1,98.5,71c1.78-.92,3.78-1.62,5.67-2.48.86-.33,1.57-.17,1.78.43s-.11,1.19-.92,1.57a64.22,64.22,0,0,0-17,9.3q-2.23,1.82-4.27,3.84a2.08,2.08,0,0,0-.59,1.19c-.27,1.89-.33,3.83-.54,5.72l-.11.7c-.11.6-.27,1.14-.87,1.19a1.13,1.13,0,0,1-1.29-.7c-.54-.76-1-1.46-1.57-2.16A50.32,50.32,0,0,0,74.27,98a7.62,7.62,0,0,0-.33.91,1.09,1.09,0,0,1-1.35.71H72.5C72,99.65,71.75,99.05,71.92,98.5Z" fill="#fff"/><path d="M107.72,78.2a1.18,1.18,0,0,1,1.14-1.13h0a1.08,1.08,0,0,1,1.13,1v.1a1.07,1.07,0,0,1-1.11,1h-.08A1.06,1.06,0,0,1,107.72,78.2Z" fill="#fff"/><path d="M118.2,85.17a1.15,1.15,0,0,1-1.3-.86,1.1,1.1,0,0,1,.86-1.3H118a1.19,1.19,0,0,1,1.19,1h0a1.06,1.06,0,0,1-.93,1.16Z" fill="#fff"/><path d="M78.83,123.73c-2.81.92-5.94,1.79-8.8,2.65-.27.11-.54.27-.6.54-2,3.67-3.94,7.34-5.94,11a3.24,3.24,0,0,0-.27.6,1,1,0,0,1-1.3.54h-.1a.91.91,0,0,1-.62-1.13h0v-.06c0-.06,0-.11.11-.16a27.52,27.52,0,0,1,1.19-2.59c1.89-3.35,3.78-6.76,5.56-10.1a2.15,2.15,0,0,0,.27-1.19A64.59,64.59,0,0,1,70.11,104c.27-.86.71-1.29,1.35-1.13s.92.75.71,1.62a57.84,57.84,0,0,0-1.89,15.88v1l.75-1.13A140.73,140.73,0,0,1,109.29,81.9c2.75-1.79,5.67-3.51,8.48-5.24a.74.74,0,0,1,.27-.16,1.18,1.18,0,0,1,1.57.32h0a1.07,1.07,0,0,1-.43,1.45h0a.09.09,0,0,0-.1.08h0c-1.57.91-3.19,1.78-4.7,2.8a133.69,133.69,0,0,0-31.11,26.68,150.42,150.42,0,0,0-11.4,15.07,4.63,4.63,0,0,0-.43.71l.16.27,14.21-4.7a9.63,9.63,0,0,1-1-2.16,1.6,1.6,0,0,1,.11-1.3c.27-.54.75-.54,1.29-.32,1.19.43,2.38.75,3.62,1.29a2,2,0,0,0,1.89-.11A7.74,7.74,0,0,1,93,116c-.76-.59-1.57-1.19-2.32-1.78a1.1,1.1,0,0,1-.61-1.43h0c.27-.7.76-.76,1.35-.7,2.49.16,5.08.32,7.56.43a4,4,0,0,0,1.57-.32c3-1.89,6-3.84,9-5.73l.16-.16c.76-.54,1.35-.54,1.78.11s.27,1.18-.54,1.72c-1.29.87-2.48,1.79-3.83,2.65-2,1.3-4,2.49-6.1,3.67a2.49,2.49,0,0,1-1.62.33c-1.62,0-3.19-.16-5-.27a6.7,6.7,0,0,0,1,.92,1,1,0,0,1,.32,1.38h0v.07a1.44,1.44,0,0,1-.54.44,26.49,26.49,0,0,1-4,1.78,2.19,2.19,0,0,1-1.19,0,13.84,13.84,0,0,1-2.16-.76c.11.27.17.33.27.54.44.92.27,1.46-.75,1.89C84.61,121.74,81.75,122.87,78.83,123.73Z" fill="#fff"/><path d="M108.75,68.1a1.07,1.07,0,0,1,.67-1.34h0c.11,0,.27-.1.33-.1,2.59-.54,5.07-1,7.61-1.46.87-.16,1.73-.16,2.49-.33L125,65c1.45.16,3,.33,4.48.6,1.19.27,2.32.59,3.51.86a1.73,1.73,0,0,1,1.54,1.72,21.8,21.8,0,0,1-2.81,14.91,21,21,0,0,1-10.26,9.07,2.3,2.3,0,0,1-.6.27l2.6.86c1.35.43,1.62,1.14.7,2.22a67,67,0,0,1-8.59,8.91l-.16.16c-.6.54-1.19.54-1.62,0a1.07,1.07,0,0,1,.11-1.51h0l.1-.07c1.29-1.13,2.59-2.32,3.78-3.4,1.35-1.35,2.65-2.81,4.1-4.38L117.6,93.9l-.87-.27a1.2,1.2,0,0,1-1-1.19c.1-.7.54-.87,1-1a31.11,31.11,0,0,0,3.77-1.19,20,20,0,0,0,12-19.87c-.16-2.16.11-1.73-2-2.16-6.26-1.46-12.42-1-18.69.32-.54.11-1,.27-1.56.43A1.28,1.28,0,0,1,108.75,68.1Z" fill="#fff"/><path d="M163.5,133.78a48.37,48.37,0,0,0-8.21-6.16c-1.89-1-3.78-2.21-5.67-3.18s-3.94-1.73-6-2.6a43.23,43.23,0,0,0-6.85-2.16,45.23,45.23,0,0,0-7.13-1.13,36.08,36.08,0,0,0-8.75.11c-1.62.27-3.24.54-4.81.75a29,29,0,0,0-6.75,2.16A25.07,25.07,0,0,0,97,131.67a41.61,41.61,0,0,0-2.38,5,1,1,0,0,0-.1.54c-.33,1.57-.6,3.19-.92,4.81a15,15,0,0,1-2.65-.54,55.32,55.32,0,0,1-6.26-2.76,38.15,38.15,0,0,1-4.11-2.8l-.11-.11a1,1,0,0,0-1.35.11.94.94,0,0,0-.22,1.31.53.53,0,0,0,.12.14c1.56,1.14,3.07,2.22,4.64,3.24A11.45,11.45,0,0,0,86.38,142c2,.7,4,1.3,6,2a5.31,5.31,0,0,0,.87.16c.27.11.43.16.54.43a24.85,24.85,0,0,0,1,2.65,17,17,0,0,0,4.86,6,32.4,32.4,0,0,0,7.25,4.26,42,42,0,0,0,6.75,2.05,19.73,19.73,0,0,0,8.75.11,25.79,25.79,0,0,0,5.3-1.56,32.52,32.52,0,0,0,10.37-7,82.91,82.91,0,0,0,5.56-6.43,28.35,28.35,0,0,1,6.1-5.83c3.67-2.6,8-3.19,12.42-2.92.71,0,1.14,0,1.46-.7S163.89,134.1,163.5,133.78ZM95.9,142a20.69,20.69,0,0,1,2.8-8.91,24.85,24.85,0,0,1,6.3-6.59,25.48,25.48,0,0,1,8.42-4.11c1.57-.43,3.19-.75,4.7-1.13a32.36,32.36,0,0,1,9.67-.6,47,47,0,0,1,7.18.92c2.38.6,4.7,1.19,7,2,2.06.7,4.06,1.62,6,2.49a47.12,47.12,0,0,1,8.75,5.07l-10.26-2.21a13.61,13.61,0,0,1,1.73-.7c.43-.17.91-.27.7-.87s-.54-.59-1.14-.43a6.47,6.47,0,0,0-3.07,1.89,1.58,1.58,0,0,1-.92.27c-2.16.27-4.38.43-6.59.7-1,.27-2,.54-3.08.87l-.16-.17,2.21-3c.16-.16.43-.43.43-.59a1.24,1.24,0,0,0-.27-.76c-.1-.11-.43,0-.59.11a1.7,1.7,0,0,0-.7.54c-.87,1.35-2.16,2.37-2.65,4a1.62,1.62,0,0,1-.92.86c-2.64,1.19-5.29,2.32-8,3.41-1.57.7-3,1.35-4.64,2a10.73,10.73,0,0,1,1.78-4.37c.75-1,1.62-2,2.37-2.92.33-.43.6-.92.11-1.35s-.75,0-1.13.27a13.79,13.79,0,0,0-3.19,4.05,21.39,21.39,0,0,0-1.57,4.38c-.27,1-1.13,1-1.72,1.35-1.73.75-3.41,1.29-5.13,2l-4,1.35-.27-.27c.54-1.35,1.14-2.65,1.79-4,1-1.72,2.32-3.35,3.51-5.07a.94.94,0,0,0,0-.92c-.11-.11-.11-.16-.17-.16a.64.64,0,0,0-.86.16,35,35,0,0,0-3.24,4.7c-1,1.78-1.73,3.83-2.65,5.67a1.81,1.81,0,0,1-1.46.7,20.76,20.76,0,0,1-6.58.27C96,142.85,95.84,142.5,95.9,142Zm59.51-7.78a20.39,20.39,0,0,0-8.64,4.38,39.68,39.68,0,0,0-3.4,3.34c-1.62,1.89-3.19,3.84-4.81,5.73a19.64,19.64,0,0,1-2.81,2.81,32.57,32.57,0,0,1-7.34,5.07,25.72,25.72,0,0,1-7,2.16,20.39,20.39,0,0,1-9.18-.7c-2-.7-4.21-1.56-6.16-2.37a20,20,0,0,1-8-6.11,9.64,9.64,0,0,1-1.89-4.21h5.56a1,1,0,0,1,.7.27c1.19,1,2.32,2,3.51,3a24.61,24.61,0,0,0,6.32,3.41c.7.27,1.35.32,2,.54s.87.11,1-.43-.16-.76-.7-.92c-.92-.27-1.89-.54-2.81-.87a29.52,29.52,0,0,1-7.62-4.8,1,1,0,0,0-.59-.33l.11-.27a17.24,17.24,0,0,0,1.89-.43c2.75-.92,5.4-1.89,8.15-2.81a1,1,0,0,1,.7.16c.87.6,1.62,1.14,2.49,1.73a18.94,18.94,0,0,0,4.86,2,5.62,5.62,0,0,0,2.16.16c.27,0,.54-.43.76-.59a3.88,3.88,0,0,0-.76-.7,15.3,15.3,0,0,1-7.72-3,3,3,0,0,1-.44-.43,1.16,1.16,0,0,1,.44-.32c3.62-1.57,7.13-3,10.69-4.54a1,1,0,0,1,1.3.27,11,11,0,0,0,6.42,2.65c.54,0,.87-.11.92-.71s-.27-.75-.86-.75a4.67,4.67,0,0,1-1.73-.33c-1.35-.54-2.92-.75-4.05-2,1.13-.43,2.16-.86,3.08-1.3a31.9,31.9,0,0,1,7.34-2.16,3.71,3.71,0,0,1,2.32.54c1.79.76,3.52,1.57,5.3,2.33.43.16.92.16,1.13-.44s-.16-.86-.7-1c-1.3-.54-2.59-.92-3.84-1.46,2.49-.86,12.53,1.3,14.91,3a30.06,30.06,0,0,0-3,.42Z" fill="#fff"/></svg>