<svg id="Layer_1" data-name="Layer 1" xmlns="http://www.w3.org/2000/svg" viewBox="0 0 225 225"><rect width="225" height="225" rx="85" fill="#3e4487"/><path d="M148.8,114.22a18.92,18.92,0,0,0-11.48,1.15c-1.09.52-2.08,1.09-3.12,1.56-3.79-3.69-7.48-7.48-11.22-11.28a1.68,1.68,0,0,1-.41-1.09c-.11-2.7,0-5.5-.11-8.26a.92.92,0,0,1,.68-1c1.24-.51,2.39-1.09,3.63-1.55,3.12-1.41,6.29-2.81,9.41-4.21,1.5-.68,1.66-2,.41-3.07-.41-.31-.83-.67-1.24-1l-5.3-4.21.67-.73L135.24,76h0a1.53,1.53,0,0,0,.12-2.16l-.12-.12-.1-.11a1.62,1.62,0,0,0-2.24.11c-2.23,2.13-4.36,4.36-6.49,6.49l-.26.26a1.59,1.59,0,0,0,.4,2.21h0a9.79,9.79,0,0,0,1.09.83l5,4.06L122.1,92.1c-.31-1.56-.52-3-.88-4.37-.89-3.27-2.08-6.34-4.94-8.47a.86.86,0,0,1-.26-.83A14.83,14.83,0,0,1,118.5,72a5.27,5.27,0,0,1,3.11-2.13c4.06-1.09,8.11-2.13,12.11-3.22,1.56-.42,2.13-1.3,1.82-2.29s-1.25-1.24-2.71-.83q-5.91,1.64-11.84,3.12a8,8,0,0,0-4,2.23c-2.24,2.29-3.22,5.1-3.9,8.16a6.82,6.82,0,0,1-.31,1,2.62,2.62,0,0,1-.52-1.09A60.13,60.13,0,0,0,110,71a8.11,8.11,0,0,0-5.19-4.31C100.5,65.55,96.24,64.4,92,63.31a2.75,2.75,0,0,0-1.14-.1,1.42,1.42,0,0,0-1.15,1.4,1.69,1.69,0,0,0,1.41,1.66c4,1.15,8.15,2.24,12.26,3.28a5.5,5.5,0,0,1,3.53,2.39,15.23,15.23,0,0,1,2.29,6.28,1.26,1.26,0,0,1-.32.83,12.42,12.42,0,0,0-4.31,6.5,61.44,61.44,0,0,0-1.6,6.28L92.8,87.5l1.14-1c1.66-1.3,3.22-2.54,4.78-3.89.11-.11.26-.16.31-.26a1.58,1.58,0,0,0-.09-2.23h0c-2.13-2.23-4.36-4.46-6.6-6.59l-.1-.11A1.63,1.63,0,0,0,91.15,73a1.46,1.46,0,0,0-1.14.5,1.54,1.54,0,0,0-.1,2.18h0a.47.47,0,0,0,.1.1c.84.88,1.72,1.72,2.65,2.65s1.82,1.72,2.7,2.65l-6.46,5c-1.56,1.3-1.4,2.55.42,3.38,4.36,2,8.57,3.84,12.67,5.71a1.07,1.07,0,0,1,.73,1.25c-.1,2.7,0,5.35-.1,8.1a1.88,1.88,0,0,1-.57,1.3c-3.28,3.38-6.71,6.76-10,10.09a5.81,5.81,0,0,0-.89,1.09l-1-.57a19,19,0,0,0-10.29-2.7,29.8,29.8,0,0,0-3.89.52h-.16a1.61,1.61,0,0,0-1.09,1.87,1.67,1.67,0,0,0,1.77,1.29c.26,0,.52-.11.72-.11a15.65,15.65,0,0,1,12.37,2.81c1.3.88,1.87.88,3-.26l9.09-9.09c.26-.26.52-.42.83-.73.26,1.82.42,3.48-1.24,4.68a3.86,3.86,0,0,0-.84,1,22.09,22.09,0,0,0-3,19.12c1,3.53,3,6.6,4.68,9.72,1.24,2.13,2.54,4.2,3.89,6.44-.31-.11-.67-.16-.88-.26L98.77,149c-1.81-.52-2.54-.11-2.8,1.71-.52,2.91-.89,5.77-1.51,8.68a2.06,2.06,0,0,0,1,2.49h.88c1-.41,1.14-1.3,1.3-2.28.31-2.08.68-4.21,1-6.29.1-.26.15-.57.26-.88,2.65.72,5.3,1.5,7.84,2.28a.94.94,0,0,1,.57.68c.11,2.13,0,4.31,0,6.44h10v-6.44a1,1,0,0,1,.57-.68c2.65-.83,5.19-1.5,7.9-2.28.41,2.39.83,4.78,1.14,7.17a2.64,2.64,0,0,0,1.3,2.28h1a1.93,1.93,0,0,0,1.15-1.87c-.52-3.27-1.09-6.7-1.67-10a.26.26,0,0,0-.1-.26,1.55,1.55,0,0,0-1.87-1.09,5.89,5.89,0,0,0-1.09.31l-7,2c.15-.26.15-.41.26-.52,2.13-3.63,4.2-7.17,6.28-10.8a22.3,22.3,0,0,0,3.07-10.24c.26-6-1.3-11.48-5.67-15.89a1.07,1.07,0,0,1-.31-.68v-3.06l1,.88,9.14,9.14c1,1,1.67,1.09,2.65.31a16.3,16.3,0,0,1,13-3c1.25.26,2.08-.26,2.24-1.24C150.62,115.21,150.05,114.5,148.8,114.22ZM107.66,147a9.8,9.8,0,0,0-.68-.88A115.8,115.8,0,0,1,101.22,135a17.81,17.81,0,0,1,1-15.48c.26-.41.52-.88.89-1.5.31,1.87.57,3.53.88,5.09.83,4.21,1.87,8.41,2.65,12.62.57,3.38.67,6.91,1,10.29A1.16,1.16,0,0,1,107.66,147Zm9.24-19.63a81.7,81.7,0,0,0-2.54,21v10.28h-3.22V157.5c-.11-4.05,0-8.11-.11-12.11a94,94,0,0,0-3.11-20.83,58.06,58.06,0,0,1-1.72-13.45c0-4.47-.1-9,0-13.46a32,32,0,0,1,1.72-11.06A13.15,13.15,0,0,1,110,83c1.67-2.08,3.9-2,5.62,0A12.22,12.22,0,0,1,118,87.73a37.5,37.5,0,0,1,1.3,10v13.1a68.15,68.15,0,0,1-2.4,16.49ZM125,125a18.67,18.67,0,0,1-1.72,12c-1.55,3.12-3.37,6.18-5.09,9.25-.1.15-.26.31-.52.67-.31-10.08,2.81-19.27,4.47-28.94a17.67,17.67,0,0,1,2.85,7Z" fill="#fff"/></svg>