<svg id="Layer_1" data-name="Layer 1" xmlns="http://www.w3.org/2000/svg" viewBox="0 0 225 225"><rect width="225" height="225" rx="85" fill="#3e4487"/><path d="M140.6,89.2a1.63,1.63,0,1,0,.7,2.2h0A1.64,1.64,0,0,0,140.6,89.2Zm16.9-5.3a1.63,1.63,0,1,0,.7,2.2h0a1.61,1.61,0,0,0-.5-2.1C157.6,84,157.6,84,157.5,83.9Zm0,0a1.63,1.63,0,1,0,.7,2.2h0a1.61,1.61,0,0,0-.5-2.1C157.6,84,157.6,84,157.5,83.9Zm-16.9,5.3a1.63,1.63,0,1,0,.7,2.2h0A1.64,1.64,0,0,0,140.6,89.2Zm22.3-5.9L161.6,79l-28.4,8.8-38,11.7h0l-5.9,1.8,1.5,1.2a12,12,0,0,0,2.6,1.8c7.9,4.2,22.3,3.1,43-3.3l1-.3-1.8-5.9a20.16,20.16,0,0,0,9.1.6,45.22,45.22,0,0,0,12.8-4.9h.2c.1,0,1.1-.7,2.7.6l.4.3.4-.1a3.26,3.26,0,0,0,2-1.4c.7-1.3.7-3.6-.3-6.6Zm-31.1,7.2,1.1,3.6.6,1.9c-18.6,5.4-25.4,6.1-34.1,4.5ZM93.7,102.3l1.7-.5a52.18,52.18,0,0,0,5.4,1.1c.2,0,.5.1.8.1,8.5,1.1,16.3-.2,32.9-4.9l.5,1.4C114.7,105.6,100.7,106.6,93.7,102.3Zm67.8-14.7h0V88h0c0,.2-.1.2-.1.4s-.1.2-.1.2h0v.2c0,.2-.2.2-.2.3-2.1-1.5-4-.9-4.7-.2-4.9,3-12.1,4.6-12.1,4.6a20.45,20.45,0,0,1-9.5-1l-.9-2.6,26.4-8.1.6,2.3a15.34,15.34,0,0,1,.6,3Zm-4-3.7a1.63,1.63,0,1,0,.7,2.2h0a1.61,1.61,0,0,0-.5-2.1h0Zm-16.9,5.3a1.63,1.63,0,1,0,.7,2.2h0A1.64,1.64,0,0,0,140.6,89.2Zm-18.3,47.1a41.3,41.3,0,0,0-5.1-10.6A135.16,135.16,0,0,0,104,107.8a1.24,1.24,0,0,0-1.7-.1,1.15,1.15,0,0,0-.08,1.62l.08.08a12,12,0,0,0,.9,1.1l-2.5,2.5a1,1,0,0,0-.2,1.4,1,1,0,0,0,.2.2h0a1,1,0,0,0,.9.4,1.88,1.88,0,0,0,.9-.4l2.4-2.4a138.35,138.35,0,0,1,10.5,14.6,6,6,0,0,0,.8,1.3l-2.9,2.9a1.22,1.22,0,0,0,0,1.6v.1a1.27,1.27,0,0,0,.9.4,1.88,1.88,0,0,0,.9-.4l2.4-2.4c3.3,6.2,4.2,10.5,2.4,12.3a3.32,3.32,0,0,1-2.7.9c-3.4,0-8.8-2.4-15.9-7.1l2.5-2.5a1.2,1.2,0,0,0-1.7-1.7l-2.9,2.9A160.51,160.51,0,0,1,80,119.5l-.2-.2,3.4-3.5a1.12,1.12,0,0,0,.12-1.58l0,0-.1-.1a1.15,1.15,0,0,0-1.62-.08.6.6,0,0,0-.08.08h0l-3.3,3.3a11,11,0,0,1-2.3-6.2c0-2.9,1.4-5.6,4.2-8.3,4.1-4.2,8.3-5.2,12.6-3.1a1.19,1.19,0,0,0,1.29-2l-.19-.1h0A11.8,11.8,0,0,0,88,96.4a24,24,0,0,0-1.9-7.9c-1.3-2.7-3.1-4.2-5-4.2-2.6.2-4.6,2.5-5.9,6.3-3.5-1.9-6.5-2.1-8.2-.4s-1.5,4.7.3,8.2c-3.9,1.2-6.1,3.3-6.1,5.7,0,2,1.5,3.7,4.2,5a25.83,25.83,0,0,0,7.8,1.8v.4c0,3.4,1.6,6.8,4.8,10a180.5,180.5,0,0,0,20.4,16.6,59.37,59.37,0,0,0,12.8,7,15,15,0,0,0,5.5,1.1,6,6,0,0,0,4.4-1.6C123,142.6,123.3,139.8,122.3,136.3ZM63.7,104.1c0-1.1,1.8-2.8,5.8-3.8a1.28,1.28,0,0,0,.9-.7,1.08,1.08,0,0,0,0-1.1c-2.2-3.5-2.2-5.9-1.5-6.7s3.2-.7,6.7,1.4a1.08,1.08,0,0,0,1.1,0,1.28,1.28,0,0,0,.7-.9c1-4,2.6-5.8,3.8-5.8,1.8,0,4,4,4.4,10a15.32,15.32,0,0,0-7.2,4.4,16.35,16.35,0,0,0-4.4,7.2C67.8,108,63.7,105.9,63.7,104.1Zm42.1,15.2a1,1,0,0,0-1.4-.2,1,1,0,0,0-.2.2h0l-3.2,3.1a1.12,1.12,0,0,0-.12,1.58l0,0,.1.1a1.27,1.27,0,0,0,.9.4,1.88,1.88,0,0,0,.9-.4l3.1-3.1a1.09,1.09,0,0,0,.08-1.54A.93.93,0,0,0,105.8,119.3Zm-11.5-7.1a1,1,0,0,0-1.4-.2,1,1,0,0,0-.2.2h0l-3.2,3.2a1.22,1.22,0,0,0,0,1.6h0a1.27,1.27,0,0,0,.9.4,1.88,1.88,0,0,0,.9-.4l3.2-3.2A1.84,1.84,0,0,0,94.3,112.2Z" fill="#fff"/></svg>