<svg id="Layer_1" data-name="Layer 1" xmlns="http://www.w3.org/2000/svg" viewBox="0 0 225 225"><rect width="225" height="225" rx="85" fill="#3e4487"/><path d="M78.3,91.6a5.6,5.6,0,0,0-5.4-5c-.5.1-4.8.8-3.9,7.5s7.1,9.7,7.1,9.7C74,97.3,78.9,96.2,78.3,91.6Z" fill="#fff"/><path d="M89.1,81.6c-.4-6.7-4.7-6.7-5.2-6.7a5.42,5.42,0,0,0-4.5,5.9c.2,4.7,5.2,4.9,4.3,11.8C83.7,92.5,89.3,88.4,89.1,81.6Z" fill="#fff"/><path d="M158.4,109.8a44,44,0,0,0-7.3,1.3s-2.7-6.1-5.2-7.8-2.4.5-2.4,3.7-3.4,14.3-13.6,14.3S89,109.1,81.1,109c-18.2-.4-17.5,14.3-17.5,14.3v9.5H76.7s4.6-.2,5.6,2.8a9.27,9.27,0,0,0,1.6,1.1c2.9,1.4,7.9,2.3,14.4,2.6a.78.78,0,0,0-.4-.4,3.48,3.48,0,0,1-.7-3.4l.2-.5c.4-.7,2.4-.8,8.6-.8a21.6,21.6,0,0,1,6.2.7h.2l5.2,3.2a95.35,95.35,0,0,0,24.1-6.4c3-5.3,11.8-12.8,11.8-12.8,2.9-2.9,8.6-5.4,8.6-7S160.6,109.8,158.4,109.8Zm-77,19.3c-1.8,0-3.3-1-3.3-2.4s1.5-2.4,3.3-2.4,3.3,1,3.3,2.4S83.2,129.1,81.4,129.1Z" fill="#fff"/><path d="M115.1,148.1a46.08,46.08,0,0,1-5.2-2c-2.5.2-5,.4-7.3.4-13.7,0-24.3-3.6-29.9-6.7a10,10,0,0,1-4.3-4.1H66.5c-2.4,0-4.3-.2-3,1.1C77.8,150.7,98.4,152.3,115.1,148.1Z" fill="#fff"/><path d="M139.9,134.2a100,100,0,0,1-20.2,5.3l3.9,2.4a90.15,90.15,0,0,0,14.2-5.3A21.74,21.74,0,0,0,139.9,134.2Z" fill="#fff"/><path d="M132.5,140.7c-2.3.9-4.7,1.7-7,2.4l1.3.8A32.24,32.24,0,0,0,132.5,140.7Z" fill="#fff"/><path d="M80.4,135.7H70.5c.3.5,1.2,1.6,3.8,3,6.2,3.3,17.9,6.6,32.1,5.9a37.36,37.36,0,0,1-6.4-3.9c-7.6-.1-13.8-1.2-17-2.7A4.85,4.85,0,0,1,80.4,135.7Z" fill="#fff"/><path d="M114.7,138.5l-3.2-2a26.38,26.38,0,0,0-5.6-.6,42.27,42.27,0,0,0-7.1.6,2.29,2.29,0,0,0,.6,1.2,10.63,10.63,0,0,0,1.5,1.5,13.9,13.9,0,0,0,2.4,1.7,46.27,46.27,0,0,0,7,3.6c1.1.4,2.3.9,3.4,1.3,1.6.6,3.2,1.1,4.7,1.6a28.66,28.66,0,0,0,6.5,1.2,5.51,5.51,0,0,0,.9-.1c2.2-.6,2.4-1.2,2.4-1.2a2.17,2.17,0,0,0-.4-.6l-2.9-1.8-1.7-1.1-2-1.3-4.3-2.7Z" fill="#fff"/></svg>