<svg id="Layer_1" data-name="Layer 1" xmlns="http://www.w3.org/2000/svg" viewBox="0 0 225 225"><rect width="225" height="225" rx="85" fill="#3e4487"/><path d="M164.6,82.5c-4.9-8-15-8.8-19.4-8.8a8.78,8.78,0,0,0-8.4-6.3h-3.1a14.49,14.49,0,0,0-14.5,14.4v8.3L60.5,148.9a2.38,2.38,0,0,0-.5,2.4,2.19,2.19,0,0,0,2,1.3h7.9a14.74,14.74,0,0,0,14.6-12.4h14l-3.6,5.3a2.27,2.27,0,0,0,0,2.5l6.2,8.7a1.92,1.92,0,0,0,1.8.9h5.6a2.2,2.2,0,0,0,0-4.4H104l-4.7-6.5,4.7-6.6h8.5l-3.6,5.3a2.27,2.27,0,0,0,0,2.5l6.2,8.7a1.92,1.92,0,0,0,1.8.9h5.6a2.2,2.2,0,0,0,0-4.4H118l-4.7-6.6,4.7-6.7a30.2,30.2,0,0,0,28-30v-24h17.1a2,2,0,0,0,1.9-1.2A2.78,2.78,0,0,0,164.6,82.5ZM69.9,148.1H67.3l8.1-8.1H80A10.19,10.19,0,0,1,69.9,148.1Zm71.4-64.4V110h0a25.69,25.69,0,0,1-25.68,25.7H79.9l7.1-7.1h18.7a18,18,0,0,0,18.1-17.9v-.2a2.2,2.2,0,1,0-4.4,0h0a13.69,13.69,0,0,1-13.6,13.7H91.3l31.8-31.8h0l.1-.1c0-.1,0-.1.1-.1h0a.09.09,0,0,1,.1-.1h0c0-.1,0-.1.1-.1h0c0-.1,0-.1.1-.1h0c0-.1,0-.1.1-.1h0V82a10,10,0,0,1,10-10h3.1a4.31,4.31,0,0,1,4.3,4.2v.2Zm4.3-2.3V78c2.9,0,8.2.6,12.2,3.5Z" fill="#fff"/><path d="M134.7,76.1a2.22,2.22,0,0,0-2.2,2.2v3a2.2,2.2,0,0,0,4.4,0h0V78.4a2.18,2.18,0,0,0-2.06-2.3Z" fill="#fff"/><path d="M121.6,99.6a2.22,2.22,0,0,0-2.2,2.2h0v1.4a2.2,2.2,0,0,0,4.4,0h0v-1.3A2.38,2.38,0,0,0,121.6,99.6Z" fill="#fff"/></svg>