<svg id="Layer_1" data-name="Layer 1" xmlns="http://www.w3.org/2000/svg" viewBox="0 0 225 225"><rect width="225" height="225" rx="85" fill="#3e4487"/><path d="M160.4,109.5h-8.3c3.5-8,3.2-14.2,1.8-18.7-2.2-7.8-9.9-16.1-21.2-16.1a25.76,25.76,0,0,0-9.1,1.7A42.23,42.23,0,0,0,113,81.8a45.71,45.71,0,0,0-10.6-5.3,25.76,25.76,0,0,0-9.1-1.7c-11.3,0-18.9,8.3-21.2,16.1-1.3,4.6-1.8,11.6,2.7,20.3H64.5a1.51,1.51,0,0,0-1.5,1.3h0v.1a1.6,1.6,0,0,0,1.5,1.5H76.4c.5.9,1.1,1.7,1.7,2.6,9.8,14.1,31.1,29.6,35,30.4v.1c.1,0,.1,0,.2-.1h.3V147c3.3-1.6,23.7-14.8,34.4-30.4a30.32,30.32,0,0,0,2.7-4.2h9.9a1.35,1.35,0,0,0,1.4-1.3h0V111a1.44,1.44,0,0,0-1.37-1.51ZM145.3,115c-10,14.6-28.4,26.4-32.3,28.9-4-2.6-22.4-14.4-32.4-28.9l-.6-.9H93.8a1.29,1.29,0,0,0,1.3-.9l6.3-12.5,9.9,25.4a1.52,1.52,0,0,0,1.3,1h.1a1.51,1.51,0,0,0,1.4-1.1l8.7-29.6,4.6,15a2,2,0,0,0,1.1,1.1,1.58,1.58,0,0,0,1.5-.7l3.6-5.4,3.1,5.3a1.4,1.4,0,0,0,1.2.8h8.4a3.11,3.11,0,0,1-1,2.5Zm3.4-5.5h-9.2l-3.8-6.6a1.4,1.4,0,0,0-1.2-.8,1.09,1.09,0,0,0-1.2.7l-3.2,4.7-5.2-16.9a1.64,1.64,0,0,0-1.5-1.1,1.59,1.59,0,0,0-1.5,1.2l-8.8,30.2-9.6-24.3a1.71,1.71,0,0,0-1.2-1,1.21,1.21,0,0,0-1.3.9l-7.5,14.6H78.2c-3.7-6.9-4.8-13.5-3.2-19.4A19.26,19.26,0,0,1,93.2,77.9a27.55,27.55,0,0,1,8.1,1.4,38.49,38.49,0,0,1,10.6,5.6,1.39,1.39,0,0,0,1.9,0,39.74,39.74,0,0,1,10.6-5.5,20.75,20.75,0,0,1,8.1-1.4c9.7,0,16.3,7.2,18.2,13.8,1.8,5.5.9,11.5-2,17.9Z" fill="#fff"/></svg>