<svg id="Layer_1" data-name="Layer 1" xmlns="http://www.w3.org/2000/svg" viewBox="0 0 225 225"><rect width="225" height="225" rx="85" fill="#3e4487"/><path d="M160.7,92.6l-4.8-9.5a11.94,11.94,0,0,0-20.3-1.9l-5.3,6a11.05,11.05,0,0,0-6-4.2l-9.6-2.7c-7.3-2.1-14.5-7.7-19.6-15.4a2.33,2.33,0,0,0-2.1-.8,2.17,2.17,0,0,0-1.4,1.8V76.1A46.8,46.8,0,0,0,93.7,90c-1.5.3-3,.7-4.4.9a64.84,64.84,0,0,1-8.8.6H66a1.69,1.69,0,0,0-1.6.9,1.85,1.85,0,0,0,.1,1.9l11.3,18.2a28,28,0,0,0,22.3,13L79.9,146.2a5.71,5.71,0,0,0,.17,8.07l0,0a4.54,4.54,0,0,0,1.7,1.1l10,5a.09.09,0,0,1,.1.1h0a5.73,5.73,0,0,0,7.3-3.1l7-16.5H120c16,0,29.5-13,29.5-28.3V101.3a5.76,5.76,0,0,1,5.7-5.7H159a1.69,1.69,0,0,0,1.6-.9A2.23,2.23,0,0,0,160.7,92.6ZM95.4,71.5a38.5,38.5,0,0,0,18.3,12.4l9.6,2.7a7,7,0,0,1,4.3,3.6l-5,5.7-8.8-5.2a19.69,19.69,0,0,0-13-2.5,10,10,0,0,0-3.4.9,42.78,42.78,0,0,1-2-12.8Zm59.8,20a9.56,9.56,0,0,0-9.5,9.5v11.3c0,13.3-11.8,24.5-25.7,24.5H104.8a14.2,14.2,0,0,0-12.6,7.7l-.4.8a2,2,0,0,0,1.2,2.4,1.9,1.9,0,0,0,2.2-.7,10.8,10.8,0,0,1,6.6-6.1l-6.1,14.8h0a1.88,1.88,0,0,1-2.3,1.1h-.1c-10.7-5.2-10-4.9-10.2-4.9A1.8,1.8,0,0,1,82,149.61s0-.07,0-.11a1.64,1.64,0,0,1,.4-.7c.1-.1,4-4.5,20.5-23.2a27.43,27.43,0,0,0,18.3-8,1.91,1.91,0,0,0-.08-2.69h0a1.87,1.87,0,0,0-2.6,0c-8.4,8.4-18.4,6.8-19.5,7a23.86,23.86,0,0,1-20.3-11.2l-1.3-1.9,1.4.6c8.7,3.3,19.5,2.2,26.9-2.8a1.87,1.87,0,0,0-2.1-3.1h0a26.05,26.05,0,0,1-23.5,2.4l-6.2-2.4-5-7.8H80.2a60.44,60.44,0,0,0,9.4-.8c6.4-1,9-2.4,11.5-2.8a14.84,14.84,0,0,1,10.3,2l14.8,8.9a1.87,1.87,0,0,0,2.1-3.1h0l-.2-.1-2.7-1.7c13.4-14.9,12.5-14.1,12.7-14.2a8.1,8.1,0,0,1,6.6-3.3,8.34,8.34,0,0,1,7.4,4.6l3.3,6.8H155v-.2h.1Z" fill="#fff"/></svg>