<svg id="Layer_1" data-name="Layer 1" xmlns="http://www.w3.org/2000/svg" viewBox="0 0 225 225"><rect width="225" height="225" rx="85" fill="#3e4487"/><path d="M105.2,139.3H64.7a.94.94,0,0,1-1-.88v-.22a1.09,1.09,0,0,1,1-1.1h40.4a.94.94,0,0,1,1,.88v.22a.94.94,0,0,1-.77,1.09Z" fill="#fff"/><path d="M120.8,87.6a1.08,1.08,0,0,0-1,1v34.9a.94.94,0,0,0,.88,1h.12a1.08,1.08,0,0,0,1-1V88.6a.94.94,0,0,0-.88-1Zm0,0a1.08,1.08,0,0,0-1,1v34.9a.94.94,0,0,0,.88,1h.12a1.08,1.08,0,0,0,1-1V88.6a.94.94,0,0,0-.88-1Zm0,0a1.08,1.08,0,0,0-1,1v34.9a.94.94,0,0,0,.88,1h.12a1.08,1.08,0,0,0,1-1V88.6a.94.94,0,0,0-.88-1Zm0,0a1.08,1.08,0,0,0-1,1v34.9a.94.94,0,0,0,.88,1h.12a1.08,1.08,0,0,0,1-1V88.6a.94.94,0,0,0-.88-1Zm0,0a1.08,1.08,0,0,0-1,1v34.9a.94.94,0,0,0,.88,1h.12a1.08,1.08,0,0,0,1-1V88.6a.94.94,0,0,0-.88-1Zm0,0a1.08,1.08,0,0,0-1,1v34.9a.94.94,0,0,0,.88,1h.12a1.08,1.08,0,0,0,1-1V88.6a.94.94,0,0,0-.88-1ZM165,142.5V83.1a1.09,1.09,0,0,0-1-1.1h-3V80a1.28,1.28,0,0,0-1-1H124.3a12.55,12.55,0,0,0-8.3,3.1H61A.94.94,0,0,0,60,83V142.5a.93.93,0,0,0,.84,1H107.6c.8,1.6,3,2.4,4.9,2.4,2.4,0,4.4-.9,4.9-2.4h46.5a1.17,1.17,0,0,0,1.1-.9c.1,0,.1-.1,0-.1ZM124.3,81.1h34.5V101l-21.2,18a1.11,1.11,0,0,0-.2,1.5,1,1,0,0,0,.9.4,7.88,7.88,0,0,1,2.1.4,6.77,6.77,0,0,1,3.6,2.8,6.25,6.25,0,0,1,1.2,3.3,3.78,3.78,0,0,1-.2,1H125.9a16,16,0,0,0-12.3,6.1V91.9a10.48,10.48,0,0,1,10.26-10.7h.44Zm34.5,49.4v7.1H114.2a13,13,0,0,1,11.7-7.1Zm-12.9-7.6a9.31,9.31,0,0,0-5.1-3.8l15.7-13.4-9.7,19.1C146.5,124.2,146.3,123.6,145.9,122.9Zm1.5,5.4,11.4-22.4v22.4Zm15.4,13H116.6a1.08,1.08,0,0,0-1,1c0,.5-1.2,1.3-3,1.3a3.54,3.54,0,0,1-2.6-.8v-3a1.05,1.05,0,0,0-2.1-.1h0v1.4H62.2v-57H108v49.4a1.11,1.11,0,0,0,1.1,1.1,1,1,0,0,0,1-1s0-.08,0-.11V84.2h4a13.59,13.59,0,0,0-2.6,7.6v47a1.06,1.06,0,0,0,.9,1H160a.93.93,0,0,0,1-.84v-.06h0V84.2h1.8v57.1ZM124.3,134a.93.93,0,0,0,.84,1H156.3a.93.93,0,0,0,1-.84v-.26a1.18,1.18,0,0,0-1.1-1.1H125.3a.93.93,0,0,0-1,.84V134Zm-3.5-9.4a1.08,1.08,0,0,0,1-1v-35a1,1,0,0,0-1-1h-.11a1,1,0,0,0-1,1v34.9a1,1,0,0,0,.9,1C120.7,124.5,120.8,124.5,120.8,124.6Zm0-37a1.08,1.08,0,0,0-1,1v34.9a.94.94,0,0,0,.88,1h.12a1.08,1.08,0,0,0,1-1V88.6a.94.94,0,0,0-.88-1Zm0,0a1.08,1.08,0,0,0-1,1v34.9a.94.94,0,0,0,.88,1h.12a1.08,1.08,0,0,0,1-1V88.6a.94.94,0,0,0-.88-1Zm0,0a1.08,1.08,0,0,0-1,1v34.9a.94.94,0,0,0,.88,1h.12a1.08,1.08,0,0,0,1-1V88.6a.94.94,0,0,0-.88-1Zm0,0a1.08,1.08,0,0,0-1,1v34.9a.94.94,0,0,0,.88,1h.12a1.08,1.08,0,0,0,1-1V88.6a.94.94,0,0,0-.88-1Zm0,0a1.08,1.08,0,0,0-1,1v34.9a.94.94,0,0,0,.88,1h.12a1.08,1.08,0,0,0,1-1V88.6a.94.94,0,0,0-.88-1Zm0,0a1.08,1.08,0,0,0-1,1v34.9a.94.94,0,0,0,.88,1h.12a1.08,1.08,0,0,0,1-1V88.6a.94.94,0,0,0-.88-1Z" fill="#fff"/></svg>