<svg id="Layer_1" data-name="Layer 1" xmlns="http://www.w3.org/2000/svg" viewBox="0 0 225 225"><rect width="225" height="225" rx="85" fill="#3e4487"/><path d="M112.5,64.3a48.2,48.2,0,1,0,48.2,48.2h0A48.24,48.24,0,0,0,112.5,64.3Zm4,8.3a40.15,40.15,0,0,1,36,35.9H119.3c0-.1-.1-.1-.1-.2s-.1-.1-.2-.2a6.89,6.89,0,0,0-2.4-2.4l-.1-.1c-.1-.1-.2-.1-.3-.2v-33Zm2.8,44h16.8a24.09,24.09,0,1,1-27.7-27.8l.1,17a8,8,0,1,0,7.7,14.1A8.21,8.21,0,0,0,119.3,116.6Zm-6.8,36.1a40.2,40.2,0,0,1-4-80.2v8.1a32.11,32.11,0,1,0,35.9,35.8h8.1A40.39,40.39,0,0,1,112.5,152.7Z" fill="#fff"/></svg>