<svg id="Layer_1" data-name="Layer 1" xmlns="http://www.w3.org/2000/svg" viewBox="0 0 225 225"><rect width="225" height="225" rx="85" fill="#3e4487"/><path d="M112.8,85.6a4.61,4.61,0,0,0,.37-9.21,3.62,3.62,0,0,0-.57,0,4.76,4.76,0,0,0-4.5,4.5,4.61,4.61,0,0,0,4.52,4.7h.18Zm0-6.2a1.56,1.56,0,1,1-.3,0Z" fill="#fff"/><rect x="111.3" y="63.6" width="3.2" height="3.2" fill="#fff"/><rect x="111.3" y="69.9" width="3.2" height="3.2" fill="#fff"/><rect x="63.9" y="87.2" width="3.2" height="3.2" fill="#fff"/><rect x="63.9" y="93.6" width="3.2" height="3.2" fill="#fff"/><path d="M105,136.1a4.7,4.7,0,1,0,4.7-4.7h0a4.69,4.69,0,0,0-4.7,4.68Zm4.7-1.6a1.55,1.55,0,1,1-.1,3.1h0a1.47,1.47,0,0,1-1.5-1.44v-.06a1.52,1.52,0,0,1,1.44-1.6Z" fill="#fff"/><rect x="108.1" y="118.8" width="3.2" height="3.2" fill="#fff"/><rect x="108.1" y="125.1" width="3.2" height="3.2" fill="#fff"/><path d="M157,95.2a4.7,4.7,0,1,0,.4-9.4H157a4.7,4.7,0,0,0-4.5,4.89h0A4.76,4.76,0,0,0,157,95.2Zm0-6.3a1.55,1.55,0,1,1-1.5,1.6h0A1.71,1.71,0,0,1,157,88.9Z" fill="#fff"/><rect x="155.4" y="73" width="3.2" height="3.2" fill="#fff"/><rect x="155.4" y="79.3" width="3.2" height="3.2" fill="#fff"/><path d="M142.3,138.8l2.3-2.7a26.78,26.78,0,0,0,2.5-3.4l.8-.2a38.49,38.49,0,0,1,9-1.1v-3.2a36.1,36.1,0,0,0-7.4.7,40,40,0,0,0,3.2-8.1,11.6,11.6,0,0,1,7.4-2.5v-3.2a13.67,13.67,0,0,0-6.6,1.6,37,37,0,0,0,.3-4.7v-.5l.5-.9A19.72,19.72,0,0,1,161,103l-1.8-2.5a25.42,25.42,0,0,0-6,5.8,51.08,51.08,0,0,0-1.3-5.6l-2.9-9-3.1,1,2.9,8.8c.3.9.6,1.9.8,2.8a35.7,35.7,0,0,0-5.1-3.5l-1.2-.6-1.4,2.8,1.2.6a20.16,20.16,0,0,1,7.3,6.3c0,.7.1,1.3.1,2.1a32.57,32.57,0,0,1-.5,5.4,20.59,20.59,0,0,0-8.3-7.7l-1.5,2.8a17.82,17.82,0,0,1,8.2,8.9l.3.9a41.91,41.91,0,0,1-2.4,5.8,16.14,16.14,0,0,0-4.3-6.9l-2.2,2.2a14.16,14.16,0,0,1,3.8,6.7l.5,1.6c-.7.9-1.4,1.8-2,2.5l-3.2,3.5a21.91,21.91,0,0,0-6.2-1.2c-.3-1.2-.8-2.5-1.1-3.8l.5-3.1a26.63,26.63,0,0,1,3.8-9.8l-2.6-1.7a29,29,0,0,0-3.5,7.3c-.9-4.4-1.6-8.9-2.2-13.4a12.88,12.88,0,0,1,6.5-3.9l.8-.2-.8-3.1-.8.2a14.3,14.3,0,0,0-6.2,3c-.2-2.1-.3-4.3-.5-6.3l.3-.7a19.17,19.17,0,0,1,6.8-7.6l-1.8-2.5a20.7,20.7,0,0,0-5.4,5.2h0V94a14.6,14.6,0,0,1,4.3-10.4l-2.2-2.2a17.3,17.3,0,0,0-4.7,8.7,26.59,26.59,0,0,0-5.8-5.8l-1.8,2.5a18.92,18.92,0,0,1,6.7,7.6l.5.9v3.2a17,17,0,0,0-5.9-3.6l-1,3.1a12.45,12.45,0,0,1,6.6,5.1l.3.6q.15,3.3.6,6.6a38.09,38.09,0,0,0-8-5.8l-1.4,2.9a26.92,26.92,0,0,1,10,8.3v.1c.3,2.2.7,4.5,1.1,6.7a18.65,18.65,0,0,0-4.3-2.5l-2.3-1.1-1.5,2.9,2.3,1.1a31.4,31.4,0,0,1,6.7,4.8c.7,2.9,1.4,5.6,2.2,8.4a23.58,23.58,0,0,0-12.7,4.8l-8.7,6.7a22.63,22.63,0,0,0-9.6-7.1V123.9l8-8a5,5,0,0,0-.07-7.07l0,0a4.92,4.92,0,0,0-3.4-1.4,5,5,0,0,0-3.5,1.4L95.7,112a.64.64,0,0,1-.89-.08v0h0a.37.37,0,0,1-.1-.3v-5.7a1.25,1.25,0,0,1,.6-1.1l12-10.9a4.88,4.88,0,0,0-3.3-8.4h-.2a4.75,4.75,0,0,0-3.4,1.4l-4.7,4.7a.64.64,0,0,1-.89-.08v0c-.1-.1-.1-.2-.2-.3V68.3a4.7,4.7,0,0,0-4.89-4.5h0a4.76,4.76,0,0,0-4.5,4.5V81.8a.66.66,0,0,1-.7.6h0c-.1,0-.2-.1-.3-.1l-6.4-6.2A5,5,0,0,0,70.5,83L80.8,94.4A4.72,4.72,0,0,1,82,97.6v19c0,.4-.4.6-.8.6-.1,0-.2-.1-.3-.1l-9.5-9.5a5,5,0,0,0-7.07.26l0,0a4.89,4.89,0,0,0-.2,6.5l14.1,15.5a3.13,3.13,0,0,1,.5,1v11.2a22.21,22.21,0,0,0-7.4,6.9l-7.7,12.4h97.9l-10.9-15.3A21.73,21.73,0,0,0,142.3,138.8ZM81.6,127.9,67.5,112.4a1.85,1.85,0,0,1-.5-1.2,1.69,1.69,0,0,1,1.68-1.7h0a1.64,1.64,0,0,1,1.3.6l9.5,9.5a3.84,3.84,0,0,0,2.7,1.1,3.71,3.71,0,0,0,3.8-3.62V117h0V106.6h3.2v-3.2H86v-3.2h6.3V97.1H86a8.35,8.35,0,0,0-1.9-4.4L73.9,81a1.77,1.77,0,0,1,1.2-3h0a1.64,1.64,0,0,1,1.3.6l6.3,6.3A3.84,3.84,0,0,0,85.4,86a3.8,3.8,0,0,0,3.8-3.8h0V68.7A1.57,1.57,0,0,1,90.6,67a1.64,1.64,0,0,1,1.7,1.4h0V91.6a3.8,3.8,0,0,0,3.8,3.8h.1a3.84,3.84,0,0,0,2.7-1.1l4.7-4.7a2.06,2.06,0,0,1,1.3-.5,1.77,1.77,0,0,1,1.7,1.8h0a1.44,1.44,0,0,1-.6,1.2L94,102.7a4.78,4.78,0,0,0-1.6,3.5V112a3.8,3.8,0,0,0,3.8,3.8h0a3.84,3.84,0,0,0,2.7-1.1l3.2-3.2a2.73,2.73,0,0,1,1.2-.6,1.69,1.69,0,0,1,1.7,1.68v0a1.64,1.64,0,0,1-.6,1.3l-7.9,7.9a3.12,3.12,0,0,0-.9,2.2v2.4H89.5v3.2h6.3v3.2H92.7V136h3.2v3.7a37,37,0,0,0-4.7-.6,22.83,22.83,0,0,0-7.8,1.4v-9.9A16.27,16.27,0,0,0,81.6,127.9ZM70,158.2l4.8-7.3a20.84,20.84,0,0,1,3.1-3.6,19.71,19.71,0,0,0,10.6,2.9h2.2V147H88.5a17.05,17.05,0,0,1-7.7-1.9,20.73,20.73,0,0,1,10-2.9,19.44,19.44,0,0,1,15.1,7.4A27.23,27.23,0,0,0,94,146.9v3.2a24.52,24.52,0,0,1,13.6,4.2l2.5,1.8,1.3,2Zm45.4,0-5.2-7.8,7.5-5.9a17.63,17.63,0,0,0,11.4,4.2h1.2v-3.1h-1.2a14.54,14.54,0,0,1-8.8-2.9,21.6,21.6,0,0,1,11.2-3.4,20.66,20.66,0,0,1,16.5,8.3l-1.8-.5a61.34,61.34,0,0,0-12.8-1.6v3.2a54.42,54.42,0,0,1,12,1.4l5.4,1.4,4.7,6.6-40.1.1Z" fill="#fff"/><rect x="78.1" y="152" width="3.2" height="3.2" fill="#fff"/><rect x="95.5" y="153.6" width="3.2" height="3.2" fill="#fff"/><rect x="116.1" y="148.8" width="3.2" height="3.2" fill="#fff"/><rect x="139.6" y="152" width="3.2" height="3.2" fill="#fff"/><rect x="125.4" y="152" width="3.2" height="3.2" fill="#fff"/></svg>