<svg id="Layer_1" data-name="Layer 1" xmlns="http://www.w3.org/2000/svg" viewBox="0 0 225 225"><rect width="225" height="225" rx="85" fill="#3e4487"/><path d="M148.6,64.6l-8-.4c-7.8-.4-14.8,3.7-19.1,7a26.29,26.29,0,0,0-5.9,6.5c-3.1,4.6-10.7,9.7-13.8,11.6l-1.3-1.9a3.12,3.12,0,0,0-4.1-.9L85.2,93.8a3,3,0,0,0-.94,4.14l0,.06.8,1.2-4,2.6a2.27,2.27,0,0,0-1.1,1.6,3.05,3.05,0,0,0,.3,1.9l3.7,5.8a2.49,2.49,0,0,0,1.6,1,.87.87,0,0,0,.5.1,3.28,3.28,0,0,0,1.4-.4l3.4-2.2A51.75,51.75,0,0,1,94,119H89v17.7c0,14.8-9.5,20-11.4,20.9l-.1.1H71.4v3.2h67.4v-3.2h-6c-1.6-.9-9.9-6-9.9-20.9V119h-5.8a18.82,18.82,0,0,0,4.5-8.9l.2-1.1-1.3-.8a46.09,46.09,0,0,1-11-8.6c.6-.4,1.1-.9,1.7-1.3a49.45,49.45,0,0,0,8.2-8.9c5.8-8.2,16.7-12.9,19.9-14.2a6.47,6.47,0,0,1,2-.3l6.8.3a4.91,4.91,0,0,0,3.8-1.4,5.69,5.69,0,0,0,1.8-3.8,5.39,5.39,0,0,0-5.1-5.4ZM86.5,108.8l-3-4.6,3.4-2.2.2.2.2.2a39.7,39.7,0,0,1,2.6,4.4Zm33.3,13.5v14.5c0,11.2,4.4,17.7,7.8,20.9h-7.8v-4.8a1.63,1.63,0,0,0-1.5-1.6h0a1.65,1.65,0,0,0-1.6,1.6v4.8h-4.8V148a1.72,1.72,0,0,0-1.6-1.6,1.62,1.62,0,0,0-1.6,1.4v9.8h-5v-3.1a1.56,1.56,0,0,0-3.08-.48,1.1,1.1,0,0,0,0,.18h0v3.4H95.8v-4.7a1.54,1.54,0,0,0-1.5-1.5h0a1.72,1.72,0,0,0-1.6,1.6v4.8H83.5c4-3.2,8.9-9.7,8.9-20.9V122.3h14.5v3.2a1.71,1.71,0,0,0,1.5,1.6,1.63,1.63,0,0,0,1.6-1.5h0v-3.2h3.2v4.8a1.57,1.57,0,0,0,1.6,1.5,1.47,1.47,0,0,0,1.5-1.44v-.06h0v-4.8Zm-1.5-11.7a18.52,18.52,0,0,1-5.5,8.5H99.2a18,18,0,0,0,8.7-2.6,17.2,17.2,0,0,0,6.5-8.5C115.8,108.8,116.9,109.7,118.3,110.6Zm-6.5-4.7a13.33,13.33,0,0,1-15.1,9.7,42.52,42.52,0,0,0-2.9-7.8l-.2-.5c-.6-1.3-1.3-2.6-1.9-3.8-.1-.1-.1-.2-.2-.3a16.48,16.48,0,0,0-1.8-2.8l-2.6-3.9,10.7-7L99,91.2l1.4,2.2c.5.8,1,1.5,1.5,2.2.2.3.5.6.7.9l1,1.3a7.75,7.75,0,0,0,.9,1,15.11,15.11,0,0,1,1.1,1.3l.9,1,.7.7c1.4,1.3,3,2.7,4.6,4.1Zm37.9-34.3a2.37,2.37,0,0,1-1.4.5l-6.8-.3a7,7,0,0,0-3.2.5c-4.4,1.7-15.2,6.5-21.4,15.3a37,37,0,0,1-7.6,8.2c-.58.5-1.18,1-1.8,1.4l-.2-.2c-.5-.58-1-1.18-1.4-1.8a6.68,6.68,0,0,1-.6-.8,9.27,9.27,0,0,1-1.1-1.6l-.6-.9c3.4-2.1,11.2-7.4,14.7-12.6a25.67,25.67,0,0,1,5.1-5.8c4-3,10.2-6.7,17-6.4l8,.4a2,2,0,0,1,2,2v.2a5.88,5.88,0,0,1-.7,1.9Z" fill="#fff"/></svg>