<svg id="Layer_1" data-name="Layer 1" xmlns="http://www.w3.org/2000/svg" viewBox="0 0 189.81 151.57"><title>icon_8a</title><path d="M84.7,60.5Z" transform="translate(-17.39 -36.68)" fill="#7f211f"/><path d="M79.8,184.6c0-.3-.2-.5-.2-.8-1.9-9.8-3.3-19.6-2.8-29.6.2-3.3-1.3-4.6-4.6-4.6H44.4V128.9A9,9,0,0,0,36,120a3.13,3.13,0,0,0-3.5,2.5,3,3,0,0,0,2.4,3.2c3,.8,3.5,1.3,3.5,4.4v35.6a8.2,8.2,0,0,1-.2,2.2c-.9,5.4-1.7,10.7-2.7,16.1-.3,2.2.3,3.6,2.2,4.1,1.9.3,3.3-.8,3.6-3,.8-4.4,1.6-8.7,2.2-13.1.2-1.3.6-1.6,1.9-1.6H69.9c1.3,0,1.7.5,1.9,1.6.6,4.4,1.4,9,2.2,13.4v.3a3,3,0,0,0,3.3,2.4h.2A3,3,0,0,0,79.8,184.6Zm-8.9-20.3H44.4v-8.7H71v8.7Z" transform="translate(-17.39 -36.68)" fill="#7f211f"/><path d="M192.5,122.8a3.39,3.39,0,0,0-3.6-2.7,9,9,0,0,0-8.2,9v20.5H153.5c-4.6,0-5.5.9-5.5,5.5a91.17,91.17,0,0,1-.2,12.8c-.6,5.4-1.7,10.9-2.7,16.3-.3,2.1.5,3.6,2.4,4s3.2-.8,3.5-3c.8-4.4,1.6-8.7,2.2-13.1.2-1.3.6-1.7,2.1-1.7h24c1.4,0,1.9.3,2.1,1.7.6,4.4,1.4,8.9,2.2,13.3v.5a2.91,2.91,0,0,0,3.5,2.2h.2a3.17,3.17,0,0,0,2.2-3.6c-.2-.9-.3-1.9-.5-2.8-.8-5.1-2.2-10.1-2.2-15.2-.3-12.2-.2-24.5-.2-36.7,0-2.5.8-3.3,3.2-3.8,1.7-.3,2.8-1.4,2.8-2.8A.6.6,0,0,1,192.5,122.8Zm-12,41.5H154.1v-8.7h26.4Z" transform="translate(-17.39 -36.68)" fill="#7f211f"/><path d="M198.6,58.9c-24-6.5-48.1-13.1-72.1-19.8-6.5-1.9-13.1-3.2-19.9-1.9-4.4.8-8.9,2.1-13.3,3.3-22.9,6.3-46,12.6-69.1,19a8.73,8.73,0,0,0-6.8,8.9v3.5c0,5.8,3.6,9.5,9.5,9.5,13.3,0,26.9.2,40.1,0,1.9,0,2.2-1.3,4.1-1.7a17.69,17.69,0,0,1,4.6,0,5.67,5.67,0,0,0,4.7,1.7H109v56.3H80.7c-2.4,0-3.8,1.3-3.8,3s1.4,2.8,3.8,2.8h22.9v3a8.82,8.82,0,0,0,4.7,7.9,2.22,2.22,0,0,1,1.3,2.2c0,4.1-.2,8.2,0,12.3,0,1.3-.3,1.7-1.6,2.2a14.93,14.93,0,0,0-10.3,12.2c0,.5-.2.9-.2,1.4a3,3,0,0,0,6,.4c.5-4.3,2.5-7.3,6-8.1v7.3c0,2.5,1.1,3.8,3,3.8s2.8-1.3,2.8-3.8v-7.6a8.86,8.86,0,0,1,5.8,7.9c.2,2.4,1.3,3.5,3.2,3.3,1.7-.2,2.8-1.4,2.7-3.8a14.51,14.51,0,0,0-8.7-12.6c-.9-.5-2.1-.8-3.2-1.3,0-4.9-.2-9.8,0-14.5a3.09,3.09,0,0,1,1.1-1.6,9,9,0,0,0,4.7-8.1v-2.8h23.7a3,3,0,0,0,3-2.8h0a3,3,0,0,0-3-3H115.3V81.5h2.2c8.9,0,17.7.2,26.7,0,1.9-.2,2.1-1.1,4-1.6a22.61,22.61,0,0,1,5.2,0c1.6.5,1.6,1.6,3.2,1.6h41.7a8.93,8.93,0,0,0,8.4-6,5.82,5.82,0,0,1,.5-1.1V66.2C205.9,62.1,202.9,60,198.6,58.9ZM107.8,44.5a7.36,7.36,0,0,1,8.9-.5c8.1,5.4,16.1,10.7,24.5,16.4H84.8c5.7-3.8,11.1-7.4,16.3-11.2C103.3,47.8,105.4,46.1,107.8,44.5ZM70.9,72.8c0,1.6-1.3,2.5-3.2,2.5h-40c-3.3,0-4.3-.8-4.3-4.1,0-4.7,0-4.7,4.7-4.7H70.8A45.21,45.21,0,0,1,70.9,72.8Zm2.2-12.5c-4.1,1.3-8.7.3-13.1.3H43.7v-.5L94.1,46.3l.2.3c-3.3,2.2-6.8,4.6-10.1,6.8C80.6,55.9,77.1,59.2,73.1,60.3Zm41,88.7a3.19,3.19,0,0,1-3,0c-2.1-1.1-1.3-3.3-1.4-5.2h5.8C115.3,145.8,116.1,148.1,114.1,149Zm34-76.5v.3a2.76,2.76,0,0,1-3,2.7H81.2c-3.5,0-4.3-.8-4.3-4.3V66.6H148v5.9Zm53.2-.3c0,2.4-1.1,3.5-3.5,3.5h-40c-3,0-4-.9-4-3.8V66.8H157a2.71,2.71,0,0,0,2.7-2.8,2.74,2.74,0,0,0-2.2-3,3,3,0,0,0-1.3-.2c-3.3.5-5.8-.8-8.5-2.7-4.7-3.5-9.6-6.6-14.5-9.8a5.35,5.35,0,0,1-1.3-1.3l49.3,13.4V61h-12c-2.1.2-3.5,1.4-3.5,3.2S167,67,169.2,67h23.1c2.4,0,4.7.2,7.3,0,1.3,0,1.7.5,1.7,1.7v3.5Z" transform="translate(-17.39 -36.68)" fill="#7f211f"/></svg>