<svg id="Layer_1" data-name="Layer 1" xmlns="http://www.w3.org/2000/svg" viewBox="0 0 190.2 176.18"><title>icon_7a</title><path d="M204.7,137.2a2.08,2.08,0,0,0-2.1-1.9c-4.9-1.1-9.7-2.4-14.4-3.5-1.6-.3-2.1-.9-2.1-2.7a74.68,74.68,0,0,0-11.5-42.7,71.2,71.2,0,0,0-13.1-15.3l-7.3,8.2a63.11,63.11,0,0,1,21,49.2l-11.9-3a56.81,56.81,0,0,0-3.2-16.8,51.38,51.38,0,0,0-8.5-14.9l-8.4,7a40.52,40.52,0,0,1,8.9,21.8c-3.6-.9-7-1.9-10.3-2.5a2.46,2.46,0,0,1-2.1-1.9,26.29,26.29,0,0,0-6.3-11.1,3.18,3.18,0,0,1-.8-3.8c5.7-19.9,11.5-39.9,17.2-59.6a2.18,2.18,0,0,0-.5-2.7,30.49,30.49,0,0,0-4.4-4.4,48.81,48.81,0,0,0-69,4.3,2.3,2.3,0,0,0-.6,2.8c1.4,4.9,2.8,9.8,4.3,14.7.3,1.3.2,1.7-.9,2.4A73,73,0,0,0,49.6,88.2a70.1,70.1,0,0,0-7.3,16.3l10.4,3.3A62.27,62.27,0,0,1,83.1,71.1c.9,3.5,1.7,6.8,2.8,10a.2.2,0,0,0,.2.2A1.85,1.85,0,0,1,85,83.8a50.56,50.56,0,0,0-10.3,8.7l8.1,7.3,6.8-6c1.3,4,2.2,7.4,3.2,10.9a1.57,1.57,0,0,1-.5,1.7,30.66,30.66,0,0,0-7.1,12.2,2.42,2.42,0,0,1-.8,1.1c-3.8.9-7.4,1.9-11.2,2.8l-.5-.5,3.5-13-9.7-4.6a46.84,46.84,0,0,0-4.7,18.5v.2a2.19,2.19,0,0,1-2.2,2.5c-12.3,3-24.8,6.2-37.2,9.2a2.44,2.44,0,0,0-2.1,2.1c-.9,3.8-1.7,7.6-2.7,11.5l-.2,8.2c.6,3.3,1.3,6.6,2.2,9.8,6,18.4,18.4,29.9,37.3,34a2.86,2.86,0,0,0,2.2-.6c3.6-3.6,7.1-7.3,10.6-10.9a7.64,7.64,0,0,0,1.1-1.6,75.2,75.2,0,0,0,56.5,11.1,44.58,44.58,0,0,0-1.1-5.5c-.3-1.7-.8-3.5-1.1-5.4a65.12,65.12,0,0,1-23.7.3,61.21,61.21,0,0,1-22.1-8.7c2.7-2.7,5.2-5.4,7.8-7.9a2.56,2.56,0,0,1,2.1,0,51.41,51.41,0,0,0,22.1,5.7h1.3V165.8A43.27,43.27,0,0,1,96,162a59.14,59.14,0,0,0,5.4-5.7c1.9-2.5,4.1-3,7.3-2.4a32.4,32.4,0,0,0,10.3-.3,3.35,3.35,0,0,1,3.3,1.1c14.4,14.9,28.6,29.7,42.9,44.6a3.3,3.3,0,0,0,3.5,1.1c21.7-4.3,36.5-23.1,38.6-42.9a3.18,3.18,0,0,1,.3-.9v-8.2A102.09,102.09,0,0,1,204.7,137.2ZM87.5,46.9a2.48,2.48,0,0,1,.9-3c13.4-11.2,34.8-11.1,48.1.3a2.65,2.65,0,0,1,.8,2.1c-5.1,17.6-10,35.3-15,52.8a82.65,82.65,0,0,0-10-1.1,64.52,64.52,0,0,0-9.7,1.3,10.87,10.87,0,0,1-.5-1.4C97.3,80.7,92.4,63.8,87.5,46.9Zm5.2,102.5c-12.3,12.7-24.5,25.3-36.7,38a2.48,2.48,0,0,1-3.2.6,38.44,38.44,0,0,1-23.9-41.1,2.79,2.79,0,0,1,2.4-2.7c17.1-4.1,34.2-8.4,51.4-12.7l1.6-.3c2.1,7.4,2.1,7.4,9.5,16.8A17.1,17.1,0,0,0,92.7,149.4Zm19.6-5.9a17.31,17.31,0,0,1-17.1-17.2v-.2a17.25,17.25,0,1,1,17.1,17.4Zm59,44.8a1.79,1.79,0,0,1-2.4-.5c-12.7-13.3-25.3-26.4-38-39.6-.2,0-.2-.2-.3-.5a28.59,28.59,0,0,0,9.5-16.6c2.5.6,5.1,1.3,7.6,1.7l45.6,11.4a2.4,2.4,0,0,1,2.2,2.4C198.7,163.9,187.8,182.6,171.3,188.3Z" transform="translate(-17.4 -24.33)" fill="#7f211f"/></svg>