<svg id="Layer_1" data-name="Layer 1" xmlns="http://www.w3.org/2000/svg" viewBox="0 0 190 157.83"><title>icon_4</title><path d="M205.8,36.5c-1.8-2.3-4.3-2.9-7-2.9H26.2a17.7,17.7,0,0,0-2.3.1,7.24,7.24,0,0,0-6.2,5.6,18.8,18.8,0,0,0,0,5.8A6.94,6.94,0,0,0,24.3,51c5.4.1,10.7.1,16.2.1h2.1V66.7c-5.5,2.3-6.6,4-6.6,9.9v45.8a7.34,7.34,0,0,0,7.3,7.3h2.8a7.36,7.36,0,0,0,7.3-7.4v-48a7.2,7.2,0,0,0-5.2-7c-.4-.1-.8-.3-1.2-.4V51.3H85.3v11c-4.7,1.2-6.5,3.6-6.5,8.4v38a6.08,6.08,0,0,0,.3,2.3c.8,3.3,3.2,5,6.3,5.6v11.7c-5.2,1.7-6.6,3.6-6.6,9.1,0,14.9.1,29.6-.1,44.5-.1,5.9,2.6,9.9,9.6,9.5,5-.3,8-3,8-8V136.2a10.87,10.87,0,0,0-.1-1.8c-.7-3.6-3-5.5-6.5-6.2V116.6c4.5-1.5,6.6-3.7,6.6-7.4V69.6c0-3-1.4-5.6-4.3-6.5-2.5-.7-2.6-2.1-2.5-4,.1-2.2,0-4.4,0-6.6,0-.4.1-.8.1-1.2h49.1V75.7c-4.7.8-6.6,3.2-6.6,7.8v47.9c0,3.9,2.2,6.6,5.8,7.2a22.57,22.57,0,0,0,4.5.1c4.3,0,7-2.9,7-7.2V82.9a6.82,6.82,0,0,0-4.1-6.7c-.7-.3-1.5-.4-2.3-.7V51.3h40.6V86.5c-4.4,1-6.6,3.2-6.6,6.7V143a6.47,6.47,0,0,0,6.3,6.3h3.9c4.4,0,7.3-2.8,7.3-7.2V93.5c0-3.9-2.2-6.3-5.9-7.2-.3,0-.6-.1-.8-.1V51.1h11.3c2.8,0,5.1-.7,6.9-3C208,45.3,208,39.3,205.8,36.5ZM49.1,74.8v46.5c0,3-1.2,4.1-4.4,4.3-3.4,0-4.8-1.2-4.8-4.3V75.1c0-2.9,1.4-4.1,4.1-4.1h1.4C47.8,71.1,49.1,72.3,49.1,74.8Zm41.3,58.3a4.38,4.38,0,0,1,1.2,3.2c.1,7.8,0,15.6,0,23.4v23.4c0,2.8-1.1,3.9-3.9,3.9H85.8a3.33,3.33,0,0,1-3.3-3.3c-.1-1.7,0-3.3,0-5V136.9c0-1.7,0-3.4,1.8-4.1C86.4,132.2,88.6,131.9,90.4,133.1Zm.1-65.7a4.62,4.62,0,0,1,1.1,3c.1,6.5,0,12.9,0,19.3v18.9c0,2.8-1.2,3.9-3.9,3.9H85.8a3.18,3.18,0,0,1-3.2-3.3V70.9c0-1.7.1-3.4,1.9-4C86.5,66.3,88.8,65.8,90.5,67.4Zm54.8,17.7c-.1,7.4,0,14.7,0,22.2v23.8c0,2.5-.8,3.4-3.3,3.4-5.4.1-5.9-.3-5.9-5.6V83.7c0-3,.8-4,3.9-4C144,79.6,145.4,79.7,145.3,85.1Zm44.6,7.3a5.11,5.11,0,0,1,.3,2.1v47.4c0,2.8-.8,3.6-3.6,3.6-5.4,0-5.6-.3-5.6-5.5V95.3a6.58,6.58,0,0,1,.4-2.8c1.1-2.3,3.4-1.4,5.4-1.5C188.1,90.8,189.3,90.9,189.9,92.4Zm12.9-47.2a10,10,0,0,1-2.6,1.8,3.67,3.67,0,0,1-1.8.1H26.5a7.29,7.29,0,0,1-3-.4c-1.8-.7-2.3-3.4-1.7-6.2a3.72,3.72,0,0,1,3.6-2.6H198.7C202.7,37.8,205,41.5,202.8,45.2Z" transform="translate(-17.47 -33.6)" fill="#f5ab35"/></svg>