<svg id="Layer_1" data-name="Layer 1" xmlns="http://www.w3.org/2000/svg" viewBox="0 0 190.01 164.65"><title>icon_5</title><path d="M131.6,129.8Z" transform="translate(-17.49 -30.04)" fill="#f5ab35"/><path d="M100.7,146.7a3.55,3.55,0,0,1-3.9,3.4h-.3c-14.9-.8-29.6-2.9-43.8-7.8A50.38,50.38,0,0,1,36,133.6a13.89,13.89,0,0,1-2.1-2.1c-1.6-1.8-1.8-3.9,0-5.4a59.84,59.84,0,0,1,9.5-6.7c3.4-1.6,7-3.1,10.6-4.4a3.78,3.78,0,0,1,5.1,1.5c.2.2.2.5.3.7.7,2.1-.3,3.9-2.9,4.7a63.18,63.18,0,0,0-14.2,6.5l-.2.8c3.4,1.6,6.9,3.4,10.3,4.7a125.84,125.84,0,0,0,32.4,7.4c4.1.5,8.2.7,12.3,1C99.4,142.7,100.9,144.2,100.7,146.7Z" transform="translate(-17.49 -30.04)" fill="#f5ab35"/><path d="M117.1,146.3h0a3.48,3.48,0,0,1-3.4,3.8h-.2a3.68,3.68,0,0,1-3.9-3.4v-.2a3.75,3.75,0,0,1,7.5-.2Z" transform="translate(-17.49 -30.04)" fill="#f5ab35"/><path d="M198.9,169.1a48.49,48.49,0,0,0-4.9-2.9,27.25,27.25,0,0,0,2.3-2.5,44.44,44.44,0,0,0,10.3-38.4,1,1,0,0,0-.2-.7,3.59,3.59,0,0,0-4.6-2.6l-5.2.8A27.17,27.17,0,0,0,184,109.7c-5.2-2.9-11-5.4-16.3-8a35.51,35.51,0,0,0,4.1-3.8c5.9-6,5.9-13.6.2-19.6a25.57,25.57,0,0,0-5.7-4.6c-8.2-5.2-17.5-7.5-27-9.3l-3.6-.7a53,53,0,0,0,6.4-5.1c5.4-5.2,5.4-12.4-.2-17.5a30.54,30.54,0,0,0-9.3-5.9c-17.5-6.7-35.3-6.7-53-1a27.22,27.22,0,0,0-12.1,7.2c-5.1,5.4-4.9,11.9.2,17.2a28.81,28.81,0,0,0,9.6,6.2l2.5,1c-4.9,2-10.1,3.8-15,6A27.08,27.08,0,0,0,54.3,80a12.68,12.68,0,0,0,0,16.2c.8,1.1,1.8,2.1,2.6,3.1-4.6,1.6-9.2,2.9-13.6,4.4-7.2,2.8-14.1,6-19.6,11.6-8.2,8.3-8.3,18.5-.2,26.8,5.7,6,13.1,9.8,20.8,12.7,17.5,6.7,35.8,9.3,54.4,10a206,206,0,0,0,33.3-1.1,4.7,4.7,0,0,1,5.1,2.5,49.26,49.26,0,0,0-5.4,3.4c-5.2,4.1-5.6,10.3-1,15a25,25,0,0,0,9.6,5.9,80.25,80.25,0,0,0,45.8,1.6,28.45,28.45,0,0,0,14.2-7C205.3,179.8,204.8,173.3,198.9,169.1Zm1-39.1h0a32.71,32.71,0,0,1-1,13.9c-4.1,13.9-13.2,22.6-27.1,26.5-1.3.3-2.1.2-2.3-1.5A37.18,37.18,0,0,1,199.9,130Zm-34,18.3h0c-1.8-2.6-3.3-5.2-4.7-7.7-1-1.3-2-2.6-2.9-3.8-2.1-2.5-2.3-2.5-.7-5.6a34.59,34.59,0,0,1,8.3-10.6,29.4,29.4,0,0,1,9.6,13.2c0,.5,0,1-.5,1.3A45.81,45.81,0,0,0,165.9,148.3ZM73.6,53.8c-3.3-2.5-3.1-5.2-.2-8a27.28,27.28,0,0,1,11.4-5.7,73.1,73.1,0,0,1,42.2.8,35.59,35.59,0,0,1,8.7,4.4c4.1,2.8,3.9,6,0,9a29,29,0,0,1-14.7,6c-5.4,1-10.8,1.3-16.2,2.1h0c-8.2-.5-16-1.3-23.7-4.4A26.6,26.6,0,0,1,73.6,53.8Zm-10.8,28c5.4-4.4,11.6-6.4,18.1-8.2a135.37,135.37,0,0,1,33.5-4.1h0c13.2.2,26.6,1.5,39.6,6.4a49.61,49.61,0,0,1,10.5,5.4c6.2,4.2,6,9,0,13.6a47.09,47.09,0,0,1-17.8,7.7,136.6,136.6,0,0,1-48.1,3.1A92.49,92.49,0,0,1,73.1,100,47.36,47.36,0,0,1,63,94.4C57.4,90.4,57.4,86.2,62.8,81.8Zm56.4,75.5a208.87,208.87,0,0,1-52.3-3.6c-10.5-2.1-20.6-5.1-29.9-10.5a40.81,40.81,0,0,1-8.5-6.5c-5.1-5.1-4.7-10.8.2-15.9a43,43,0,0,1,16.8-10c6-2.1,12.4-3.8,18.6-5.6a3.41,3.41,0,0,1,2.6.3,100.54,100.54,0,0,0,29.6,7.4,152.53,152.53,0,0,0,37.6-.3,107.35,107.35,0,0,0,21.9-5.1,9.33,9.33,0,0,1,3.3-.2,79.54,79.54,0,0,1,23.2,10,20,20,0,0,1,7,7.7l-7.4,4.1c-2.6-3.6-5.1-7.4-7.8-10.6a57.88,57.88,0,0,0-6.4-5.7c-1.6-1.3-3.3-1.3-5.2.3a47.61,47.61,0,0,0-13.1,16.2l-1.6-1a47.06,47.06,0,0,0-19.3-6.5h-.3a3.62,3.62,0,0,0-3.9,3.4,43.44,43.44,0,0,0,4.1,29.4,18,18,0,0,0,1,1.8A85.9,85.9,0,0,1,119.2,157.3Zm12.1-24.4c0-.8.2-1.8.3-2.9A37.9,37.9,0,0,1,156,146.2a36.72,36.72,0,0,1,6,22.6c0,1.6-.7,2.1-2.3,1.8A37.51,37.51,0,0,1,131.3,132.9ZM195,179.8a23.88,23.88,0,0,1-6.4,3.6c-7.4,2.9-15,3.6-23,3.8h-.2c-8-.2-16.2-.8-23.5-4.2a26.1,26.1,0,0,1-5.7-3.6c-1.6-1.3-1.6-2.8.2-3.8a75.39,75.39,0,0,1,7.5-3.8c.3-.2,1,.2,1.5.5a48.61,48.61,0,0,0,14.2,5.7,9.38,9.38,0,0,1,3.3,2.3c2.1,1.8,3.8,2,5.9,0a13.17,13.17,0,0,1,5.2-2.8c4.1-1.3,8-3.3,12.1-4.9a3.57,3.57,0,0,1,2.5-.2,32.64,32.64,0,0,1,6.2,3.1C197.1,176.7,197.1,178.2,195,179.8Z" transform="translate(-17.49 -30.04)" fill="#f5ab35"/></svg>