<svg id="Layer_1" data-name="Layer 1" xmlns="http://www.w3.org/2000/svg" viewBox="0 0 190.09 185.44"><title>icon_2a</title><path d="M150.5,57.2a20.48,20.48,0,0,0-19.7-21.3,1.72,1.72,0,0,1-1.6-1,17.64,17.64,0,0,0-19.9-8,1.15,1.15,0,0,1-1.4-.5,13.87,13.87,0,0,0-9.1-6.5H94.3a14.12,14.12,0,0,0-9.4,7.6,14.33,14.33,0,0,0-12.9.6,14,14,0,0,0-7.2,10.8,14.36,14.36,0,0,0-11.6,4.3,14,14,0,0,0-4,11.5c-.6,0-1.1.2-1.6.2A15.86,15.86,0,0,0,33.9,66.2a2.45,2.45,0,0,1-2.1,1.9A19,19,0,0,0,18,91.3a18.77,18.77,0,0,0,4.9,8.8c-3.7,7.8-3,14.5,2.2,19.7h0a2.06,2.06,0,0,1,.5,2.9h0l-.2.5a18.84,18.84,0,0,0,9.2,25c2.5,1.8,4.9,3.5,7.3,5.6a25.67,25.67,0,0,0,16.2,8.8V204c2.1,1.9,4.1,1.6,6.7.2V164a2,2,0,0,1,1.3-1.4c1.9-.5,3.7-1,5.4-1.6,3-1.4,5.9-3.3,8.6-4.9a58,58,0,0,0,7.5,4.6c14,6.2,27.1-1.1,30.2-12.7a2.93,2.93,0,0,1,1.6-1.3,14.8,14.8,0,0,0,4.6-1.6,18.89,18.89,0,0,0,8.3-25.6h0a3.31,3.31,0,0,1,0-2.4,19.74,19.74,0,0,0,2.1-8.9,2.79,2.79,0,0,1,1-2.1c.8-.6,1.6-1.3,2.4-1.9a19.36,19.36,0,0,0,1-27.2h0a5.22,5.22,0,0,1-.8-1.1l.6-.8A20.59,20.59,0,0,0,150.5,57.2ZM129.8,70.7H128a3.27,3.27,0,0,0-2.7,3.7,3.37,3.37,0,0,0,1.8,2.4,7,7,0,0,0,1.9.6,13.1,13.1,0,0,1,8.9,11.9,12.77,12.77,0,0,1-7.5,12.1c-2.7,1.3-3,2.1-2.4,4.9a9.77,9.77,0,0,1-2.1,8.8c-1.8,2.1-1.8,3-.2,5.3a11.88,11.88,0,0,1,1.1,12.9,12.34,12.34,0,0,1-11,7.3c-2.4.2-3.3,1-3.7,3.2-1.6,9.4-9.4,14.3-18.6,11.9a19.67,19.67,0,0,1-10.3-6.4c-2.4-2.7-4-2.7-6.4,0A19.87,19.87,0,0,1,64.5,156c.6-2.7,1.3-5.4,2.1-8a38.47,38.47,0,0,1,23.1-22.9,8.93,8.93,0,0,0,1.3-.5h.2a3,3,0,0,0,2.2-3.8,3.16,3.16,0,0,0-3.8-2.2,1.91,1.91,0,0,0-.8.3,44.59,44.59,0,0,0-20.5,14.2l-1.8,2.1c.5-4.1.8-8,1.3-11.6.6-4.8,1.6-9.6,2.1-14.3a14,14,0,0,1,3.3-7.3A65.62,65.62,0,0,1,90.4,87.2,7.64,7.64,0,0,0,92,86.1a3.12,3.12,0,0,0,.8-4.1h0a3.06,3.06,0,0,0-4.1-1.1A62.87,62.87,0,0,0,82.3,85c-2.9,2.1-5.6,4.3-8.8,6.8,1.4-4,2.2-7.2,3.3-10.3A77,77,0,0,1,89.4,57a2.41,2.41,0,0,0,.6-.8,3.22,3.22,0,0,0-1.3-4.3A3.06,3.06,0,0,0,84.6,53,73.51,73.51,0,0,0,73.8,71.6a184.21,184.21,0,0,0-10.7,40.3c-.6,4.1-1.3,8.3-1.9,13.1a21.36,21.36,0,0,1-1.3-2.2c-1.4-4.6-2.9-9.1-4.5-13.7,0-.2-.2-.3-.2-.6h0a3.37,3.37,0,0,0-3.7-2.9h-.3a3,3,0,0,0-2.2,3.7c1.4,8.6,4.1,16.9,9.9,23.6a4.13,4.13,0,0,1,1,3.2c-.5,5.9-1,11.8-1.3,17.8a7.14,7.14,0,0,0-.2,2.1,17.78,17.78,0,0,1-13.5-8.9,7.2,7.2,0,0,0-5.4-4,14,14,0,0,1-4.8-2.2,12.67,12.67,0,0,1-2.2-17.7h0c2.4-3,2.1-4.3-1.1-6.4l-1.3-.8a9.37,9.37,0,0,1-1.3-13.2h0c2.4-3,2.2-4-.6-6.4a12.83,12.83,0,0,1,7.3-22.6c2.7-.2,3.7-1,3.8-3.7a9.82,9.82,0,0,1,.5-2.9,9.58,9.58,0,0,1,12.1-5.6,3.54,3.54,0,0,0,4-.8,3.31,3.31,0,0,0,.2-4,7.92,7.92,0,0,1,3.2-10.7,8.26,8.26,0,0,1,7.2-.2c3.2,1.3,5.3-.3,4.8-3.8a8,8,0,0,1,3.8-8.6c3-1.8,6.2-1.3,9.4,1.1a5.65,5.65,0,0,0,3.5.8c1.6-.3,1.9-1.9,2.1-3.5a4.49,4.49,0,0,1,.5-1.9,6.4,6.4,0,0,1,8.3-3.3,6.21,6.21,0,0,1,3.7,4.8c.6,3.5,2.5,4.3,5.7,2.7a11.94,11.94,0,0,1,1.6-.8,11,11,0,0,1,14.2,6v.2a4,4,0,0,0,4.5,2.7h1.6a14.25,14.25,0,1,1,.1,28.5c0-.1-.3-.1-.5-.1Z" transform="translate(-17.41 -19.9)" fill="#177f57"/><path d="M162.9,137.4a9.68,9.68,0,0,1,3,7.8A10.56,10.56,0,0,1,155.4,156H123.9a1.62,1.62,0,0,1-1.8-1,1.5,1.5,0,0,1,.6-1.9l.3-.2h1c10.2,0,20.4-.2,30.6,0a8.15,8.15,0,0,0,8.3-8,8,8,0,0,0-.8-3.7,5.89,5.89,0,0,0-7.8-2.9l-.5.3a3.62,3.62,0,0,0-1.8,3.8,3.4,3.4,0,0,0,2.9,2.7,2.15,2.15,0,0,0,1.1.2c.2,0,.3-.2.6-.3-.2-.2-.3-.5-.5-.5a1.55,1.55,0,0,1-1.4-1.6h0a1.92,1.92,0,0,1,1.8-1.4h.2a3.42,3.42,0,0,1,2.9,3.3,3.33,3.33,0,0,1-2.7,3.3,6.65,6.65,0,0,1-7.6-4.8,6.44,6.44,0,0,1,4.1-7.6A9.79,9.79,0,0,1,162.9,137.4Z" transform="translate(-17.41 -19.9)" fill="#177f57"/><path d="M153.7,32.5c0-2.1,1.4-3.2,3.8-3.2h23.9c2.5,0,4,1.3,3.8,3.2s-1.4,3.2-4,3.2H157.5C155.1,35.7,153.7,34.6,153.7,32.5Z" transform="translate(-17.41 -19.9)" fill="#177f57"/><path d="M186.5,88.4a39.49,39.49,0,0,0-2.4-8.3,18.12,18.12,0,0,0-12.3-10.7,25.92,25.92,0,0,0-15.1,1.1,4.08,4.08,0,0,0-3,4.6,27.76,27.76,0,0,0,1.3,6.5,19.87,19.87,0,0,0,18.6,14.5c3-.6,5.9-1.1,9.1-1.9S187.1,91.6,186.5,88.4ZM160.2,76.3h0c9.7-3.7,18.6,1.6,19.7,12.1C171.9,91.7,162.2,88.2,160.2,76.3Z" transform="translate(-17.41 -19.9)" fill="#177f57"/><path d="M151.6,105.4h33c2.5,0,4,1.1,4,3.2s-1.4,3.2-3.8,3.2H151.5c-2.5,0-4-1.1-4-3.2S148.9,105.4,151.6,105.4Z" transform="translate(-17.41 -19.9)" fill="#177f57"/><path d="M163.6,48.4h39.6a4.68,4.68,0,0,1,4.1,1.6v3.2a5.3,5.3,0,0,1-4.3,1.6H164.2c-2.4,0-3.8-1-4-2.7a3.32,3.32,0,0,1,2.7-3.7Z" transform="translate(-17.41 -19.9)" fill="#177f57"/><path d="M192.2,116.4c-8.1-1-14,3-18.6,9.4-4.1,5.7-3.7,8,2.2,11.8,10.5,7,21.3,5.1,28.8-5.1,1-1.4,1.9-2.9,2.9-4.3v-3.5A23.2,23.2,0,0,0,192.2,116.4Zm-14.4,14.7c5.4-9.7,15.6-10.7,22.9-4.1-5,9-14.7,11.2-22.9,4.1Z" transform="translate(-17.41 -19.9)" fill="#177f57"/></svg>