<svg id="Layer_1" data-name="Layer 1" xmlns="http://www.w3.org/2000/svg" viewBox="0 0 145.77 190.04"><title>icon_8a</title><path d="M182.3,115.8a36.4,36.4,0,0,0-22.1,2.2c-2.1,1-4,2.1-6,3-7.3-7.1-14.4-14.4-21.6-21.7a3.23,3.23,0,0,1-.8-2.1c-.2-5.2,0-10.6-.2-15.9a1.74,1.74,0,0,1,1.3-1.9c2.4-1,4.6-2.1,7-3,6-2.7,12.1-5.4,18.1-8.1,2.9-1.3,3.2-3.8.8-5.9-.8-.6-1.6-1.3-2.4-1.9l-10.2-8.1,1.3-1.4,8.7-8.7h0a3,3,0,0,0,0-4.4l-.2-.2a3.11,3.11,0,0,0-4.3.2c-4.3,4.1-8.4,8.4-12.5,12.5l-.5.5a3.09,3.09,0,0,0,.8,4.3,19.15,19.15,0,0,0,2.1,1.6l9.7,7.8L131,73.3c-.6-3-1-5.7-1.7-8.4-1.7-6.3-4-12.2-9.5-16.3a1.67,1.67,0,0,1-.5-1.6,28.22,28.22,0,0,1,4.8-12.4,10.1,10.1,0,0,1,6-4.1c7.8-2.1,15.6-4.1,23.3-6.2,3-.8,4.1-2.5,3.5-4.4s-2.4-2.4-5.2-1.6q-11.4,3.15-22.8,6a15.45,15.45,0,0,0-7.8,4.3c-4.3,4.4-6.2,9.8-7.5,15.7a13.89,13.89,0,0,1-.6,1.9,5.12,5.12,0,0,1-1-2.1,115.4,115.4,0,0,0-4.4-11.6,15.66,15.66,0,0,0-10-8.3C89.3,22,81.1,19.8,73,17.8a5.18,5.18,0,0,0-2.2-.2,2.77,2.77,0,0,0-2.2,2.7,3.22,3.22,0,0,0,2.7,3.2c7.8,2.2,15.7,4.3,23.6,6.3a10.54,10.54,0,0,1,6.8,4.6,29,29,0,0,1,4.4,12.1,2.45,2.45,0,0,1-.6,1.6,23.74,23.74,0,0,0-8.3,12.5,114.43,114.43,0,0,0-3,12.2L74.5,64.4l2.2-1.9C80,60,83,57.6,86,55c.2-.2.5-.3.6-.5a3,3,0,0,0-.2-4.3c-4.1-4.3-8.4-8.6-12.7-12.7l-.2-.2a3.23,3.23,0,0,0-2.1-.8,2.84,2.84,0,0,0-2.2,1,3,3,0,0,0,0,4.4c1.6,1.7,3.3,3.3,5.1,5.1s3.5,3.3,5.2,5.1L67.3,62c-3,2.5-2.7,4.9.8,6.5,8.1,3.6,16.2,7.1,24.1,10.8a2.06,2.06,0,0,1,1.4,2.4c-.2,5.2,0,10.3-.2,15.6a3.63,3.63,0,0,1-1.1,2.5c-6.3,6.5-12.9,13-19.4,19.5a11.18,11.18,0,0,0-1.7,2.1l-1.9-1.1a36.51,36.51,0,0,0-19.8-5.2,61.5,61.5,0,0,0-7.5,1h-.3a3.1,3.1,0,0,0-2.1,3.6,3.21,3.21,0,0,0,3.5,2.4c.5,0,1-.2,1.4-.2a30.11,30.11,0,0,1,23.8,5.4c2.5,1.7,3.6,1.7,5.7-.5l17.5-17.5c.5-.5,1-.8,1.6-1.4.5,3.5.8,6.7-2.4,9a7.66,7.66,0,0,0-1.6,1.9c-7.8,11.4-9.4,23.6-5.7,36.8,1.9,6.8,5.7,12.7,9,18.7,2.4,4.1,4.9,8.1,7.5,12.4-.6-.2-1.3-.3-1.7-.5L86,182.8c-3.5-1-4.9-.2-5.4,3.3-1,5.6-1.7,11.1-2.9,16.7a4,4,0,0,0,1.9,4.8h1.7c1.9-.8,2.2-2.5,2.5-4.4.6-4,1.3-8.1,1.9-12.1.2-.5.3-1.1.5-1.7,5.1,1.4,10.2,2.9,15.1,4.4a1.79,1.79,0,0,1,1.1,1.3c.2,4.1,0,8.3,0,12.4h19.2V195a1.82,1.82,0,0,1,1.1-1.3c5.1-1.6,10-2.9,15.2-4.4.8,4.6,1.6,9.2,2.2,13.8.3,1.7.6,3.5,2.5,4.4h1.9c1.3-.8,2.4-1.9,2.2-3.6-1-6.3-2.1-12.9-3.2-19.2a.55.55,0,0,0-.2-.5,3,3,0,0,0-3.6-2.1,12.88,12.88,0,0,0-2.1.6l-13.5,3.8c.3-.5.3-.8.5-1,4.1-7,8.1-13.8,12.1-20.8a42.68,42.68,0,0,0,5.9-19.7c.5-11.6-2.5-22.1-10.9-30.6a2,2,0,0,1-.6-1.3v-5.9l1.9,1.7,17.6,17.6c1.9,1.9,3.2,2.1,5.1.6a31.24,31.24,0,0,1,25.1-5.7c2.4.5,4-.5,4.3-2.4C185.8,117.7,184.7,116.3,182.3,115.8Zm-79.2,63a17.74,17.74,0,0,0-1.3-1.7c-3.8-7-8.1-14-11.1-21.3A34.28,34.28,0,0,1,92.6,126c.5-.8,1-1.7,1.7-2.9.6,3.6,1.1,6.8,1.7,9.8,1.6,8.1,3.6,16.2,5.1,24.3,1.1,6.5,1.3,13.3,1.9,19.8A2.24,2.24,0,0,1,103.1,178.8ZM120.9,141a157.61,157.61,0,0,0-4.9,40.5v19.8h-6.2v-2.2c-.2-7.8,0-15.6-.2-23.3a179.91,179.91,0,0,0-6-40.1,112.07,112.07,0,0,1-3.3-25.9c0-8.6-.2-17.3,0-25.9a61.64,61.64,0,0,1,3.3-21.3,24.43,24.43,0,0,1,4-7c3.2-4,7.5-3.8,10.8,0a23.48,23.48,0,0,1,4.6,9.2A72.79,72.79,0,0,1,125.5,84v25.2A132,132,0,0,1,120.9,141Zm15.6-4.6a35.87,35.87,0,0,1-3.3,23.2c-3,6-6.5,11.9-9.8,17.8-.2.3-.5.6-1,1.3-.6-19.4,5.4-37.1,8.6-55.7A34,34,0,0,1,136.5,136.4Z" transform="translate(-39.54 -17.56)" fill="#177f57"/></svg>