<svg id="Layer_1" data-name="Layer 1" xmlns="http://www.w3.org/2000/svg" viewBox="0 0 189.92 150.03"><title>icon_1a</title><path d="M195.3,91.9a7.5,7.5,0,0,1-3-5.6A33.77,33.77,0,0,0,163,56.6a28.59,28.59,0,0,0-18.4,4,3.48,3.48,0,0,0-1.3,1.1,3.06,3.06,0,0,0,1,4.4,3.85,3.85,0,0,0,4.1-.5A24.56,24.56,0,0,1,176,68.5a28.77,28.77,0,0,1,10.5,22.2,3.86,3.86,0,0,0,1.9,3.8c9.2,5.2,13,13.5,12.7,23.8a23.71,23.71,0,0,1-17.9,22.2,4.51,4.51,0,0,0-3.5,2.9,22.66,22.66,0,0,1-12.5,11.1,29.92,29.92,0,0,1-3.2.8,2.8,2.8,0,0,1-.2-1.1V128.8a4.84,4.84,0,0,1,1.1-2.4c4.6-4.3,9.2-8.4,13.8-12.7,1.7-1.6,1.9-3.3.6-4.8s-3.2-1.4-4.9.2c-2.9,2.5-5.6,5.1-8.4,7.6l-2.4,2.2V98.7c0-2.7-1.9-4.3-4-3.5-1.7.6-2.2,2.1-2.2,3.8v37.1c-1-.8-1.4-1.3-1.9-1.7-3-2.7-5.9-5.6-9-8.2a4,4,0,0,0-3.3-.8,3.31,3.31,0,0,0-1.9,2.4,4.53,4.53,0,0,0,1.4,3.2c4.4,4.3,9,8.4,13.6,12.7.5.5,1.1,1.1,1.1,1.6v10.2c-.2,0-.5.2-.6.2a2,2,0,0,1-1-.2,23,23,0,0,1-15.4-12.1,5.12,5.12,0,0,0-3.2-2.7c-10.3-3.2-15.9-10.3-17.1-20.6-1.3-10,2.2-18.4,10.6-24.3a6,6,0,0,0,2.9-4.9,28.47,28.47,0,0,1,5.2-16.3c1.3-2.1,1.1-3.8-.5-4.9s-3.3-.5-4.6,1.4a35.73,35.73,0,0,0-6.2,18.1,2.75,2.75,0,0,1-1,1.9,30.69,30.69,0,0,0-12.7,23c-1.3,14,6.8,27.6,20,32a3,3,0,0,1,1.7,1.3,29.64,29.64,0,0,0,22,14.8v18.7c-1.4.6-1.9.2-2.1-1.3A19.59,19.59,0,0,0,143,163.9a4.44,4.44,0,0,1-1.9-1.7,19.3,19.3,0,0,0-10.8-8.6,3.15,3.15,0,0,1-1.7-1.7c-2.7-7.5-7.8-11.9-15.5-13-7.5-1-13.3,2.1-17.8,8.1a2.87,2.87,0,0,1-1.9,1.1,19.6,19.6,0,0,0-13.5,7.6,12,12,0,0,0-1,1.1,16.54,16.54,0,0,0-13.3-10.2v-7.9a1.33,1.33,0,0,1,.5-.3,1.69,1.69,0,0,1,1-.3,26.88,26.88,0,0,0,17.3-11.7,7.07,7.07,0,0,1,4.3-3.3c20.5-7.1,25.7-35.7,9.2-50.3a14.84,14.84,0,0,1-5.2-9.2c-3.6-14.9-17-27-33.3-25.9A26.53,26.53,0,0,0,44,43.2a.2.2,0,0,0-.2.2,3.17,3.17,0,0,0-.8,4.3l.2.2a3.08,3.08,0,0,0,4.4.6,3.33,3.33,0,0,1,1-.6,23,23,0,0,1,27.4.7A27.23,27.23,0,0,1,86.9,70.2,4.12,4.12,0,0,0,89,74.3c9.4,5.6,13,14.1,11.7,24.6a22.39,22.39,0,0,1-17,19.2,5.85,5.85,0,0,0-3.2,2.4,22.14,22.14,0,0,1-7.8,8.6c-2.2,1.3-4.6,2.2-7.1,3.5a3.64,3.64,0,0,1-.2-1.4V107.1a3.89,3.89,0,0,1,1.1-2.1c4.1-3.8,8.2-7.6,12.4-11.4,2.4-2.2,2.9-4,1.3-5.6-1.4-1.6-3.2-1.3-5.6,1l-9.2,8.4V78.8a6.61,6.61,0,0,0-.3-2.4,3.11,3.11,0,0,0-5.9.5v36.6c-.8-.8-1.3-1.1-1.7-1.6-2.7-2.4-5.4-4.9-8.1-7.3a7,7,0,0,0-1.7-1.3,2.93,2.93,0,0,0-3.6,1.3,3.08,3.08,0,0,0,.8,4.3c4.4,4.1,8.9,8.1,13.3,12.2.5.5,1.1,1.1,1.1,1.6v9.5h-.6a1.2,1.2,0,0,1-.8-.2,21.05,21.05,0,0,1-14.4-11.4,6.64,6.64,0,0,0-3.6-3,20.66,20.66,0,0,1-6.2-2.9c-13.5-9.2-13.2-30.8.8-39.7A4.46,4.46,0,0,0,37,70.6a28.7,28.7,0,0,1,3.2-13c1.1-2.1.6-3.8-1.1-4.8s-3.3-.3-4.4,1.9a39.17,39.17,0,0,0-4,13.8,3.63,3.63,0,0,1-1.3,2.2A28.63,28.63,0,0,0,18.6,86.9a41.5,41.5,0,0,0-1.1,4.8v6.8a107.69,107.69,0,0,0,4.1,12.1,26.9,26.9,0,0,0,15.1,12.8,2.31,2.31,0,0,1,1.7,1.3,28.11,28.11,0,0,0,20.9,14.1c0,2.7.2,5.4,0,8.1a2.56,2.56,0,0,1-1,1.3,17.63,17.63,0,0,0-6.7,5.4,2.77,2.77,0,0,1-1.7,1,16.39,16.39,0,0,0-13.5,12.1,2.7,2.7,0,0,1-1.6,1.7,19.82,19.82,0,0,0-9.4,11.1c-.5,1.4-.3,1.1-.5,1.4a18.29,18.29,0,0,0-.8,2.5c-.2.6,0,.8.2,2.1a4.45,4.45,0,0,0,4.6,2.1H163.6l-.2-6.2v-19a1.33,1.33,0,0,1,.5-.3,28.65,28.65,0,0,0,20.3-14.3,3.32,3.32,0,0,1,1.6-1.1c12.1-3.8,18.9-12.2,20.9-24.3A29.91,29.91,0,0,0,195.3,91.9ZM31.1,181.1a12.86,12.86,0,0,1,7.3-7.5A4.92,4.92,0,0,0,42,169a9.33,9.33,0,0,1,9.4-8.2,4.45,4.45,0,0,0,4.6-2.9,8.93,8.93,0,0,1,9.7-4.6,9,9,0,0,1,7.6,7.8,3.7,3.7,0,0,0,3.5,3.6,10.17,10.17,0,0,1,7.6,5.7,5.72,5.72,0,0,0,2.7,2.4,10.76,10.76,0,0,1,7.5,8.4H31.1Zm115.8.2H103.1c-1.6,0-2.1-.5-2.4-2.1A16.66,16.66,0,0,0,91,167.3a11.18,11.18,0,0,1-2.1-1.7q-2.4-2.55-4.8-5.4a11.82,11.82,0,0,1,10.6-5.7,4.71,4.71,0,0,0,4.9-3,12,12,0,0,1,12.5-6.3,12.42,12.42,0,0,1,10.3,10.2c.5,3,1,3.5,4,4a11.73,11.73,0,0,1,9.2,7,5.22,5.22,0,0,0,3.6,3.2,13.06,13.06,0,0,1,9.4,11.6A8.12,8.12,0,0,1,146.9,181.3Z" transform="translate(-17.5 -37.63)" fill="#177f57"/></svg>