<svg id="Layer_1" data-name="Layer 1" xmlns="http://www.w3.org/2000/svg" viewBox="0 0 1080 675"><path d="M1080,0V167.36c-1.21.09-2.57.11-4.1.09-20.82-.31-41.68,1.34-62.49-1.28-6.93-.88-14.15.71-21,.45-19.3-.76-38.54,2.44-57.81.35-13.67-1.48-27.4.38-41.13-.42-5.7-.34-11.54.75-17.42-.3-9.7-1.73-19.25,1.41-29,1.4-29.09,0-58.25,1-87.27-.44-19.87-1-39.86,0-59.67-2.8a42,42,0,0,0-16.64.82c-8.59,2.26-15.59-.29-21.25-7-6.25-7.42-11.61-15.49-17.06-23.5-8.72-12.82-18.71-24-31.37-31.92l-.07,0q-2.55-1.59-5.26-3c-.2-.11-.39-.21-.59-.3a77.59,77.59,0,0,0-13.14-5.24c-4.25-1.26-8.66-1.5-12.84-2.9l-.07-.07a10,10,0,0,0-.85-.77c-2.2-1.79-4.79-2.26-7.82-2.16-28.66,1-52.08,12.05-70,34.8-6.54,8.31-12.56,16.92-18.52,25.63-5.06,7.38-11.76,12.06-21.33,11.82-7.64-.19-15.15,1.57-22.67,2.74-3.23.5-6.82,1.48-9.58.32-16.17-6.78-32.68-1.08-48.74-.57-19.35.61-38.65-.7-57.89-.83-13.06-.09-26.2,1.18-39.29.16a50.31,50.31,0,0,0-17.45,1.79c-8.22,2.29-16.27-.86-24.11-2.07A111.31,111.31,0,0,0,222,160.55c-32.31,1.3-64.51-2.46-96.81-1.85a351.94,351.94,0,0,0-38.54,3c-8.75,1.12-17.58.75-26.39.09-16.57-1.25-33-2.81-49.77-.15A70.92,70.92,0,0,1,0,163V0Z" fill="#1f3147"/><path d="M1074.09,639.7c-10.22-3.73-19.94-8.54-29.9-12.85-8.08-3.5-17.31-6.54-21.67-14.35-8-14.39-19.82-24.34-33-33.39-5.43-3.72-11.19-7.73-13.07-14.87C973.76,554.12,972.18,553,962,553c-19.38.13-38.76.06-58.15,0-4.13,0-8.86.56-11.89-2.23-4.28-3.94-8.82-5.5-12.32-5.52,5.71-.27,13.45,1.78,21.24,1.08,30.45-2.75,60.94-2.15,91.41-.39a23.76,23.76,0,0,0,13.6-2.81c6.9-4,7-11.31.19-15.38a53.73,53.73,0,0,0-10.47-4.57c-11.59-3.89-22-9.59-29.83-19.33-2.8-3.46-6.75-5.5-10.92-7.17-20.5-8.22-41.73-13.81-63.34-18.13-3.26-.65-6.39-.85-9.4.85a6.06,6.06,0,0,0-2.13,2h0a13.51,13.51,0,0,0-1.1,2.18c-.09.23-.18.45-.26.67-2.44,6.36-6.7,8.33-13.51,9.61-7.43,1.4-15.36,3.33-21.93,8l-.3.2v.12c0,5.54,4.09,6.43,8.24,7,3.79.5,7.65.08,11.45.35,3.37.23,8.17-.64,8.58,4s.13,10.28-5.88,12.48c-2.76,1-5.68,1.69-8.11,3.38-16,11.17-35.11,13.65-53.15,19.13l-.76.1a38.44,38.44,0,0,1-5.68.21l-.55-.11c-6.86-1.35-13.49,3.08-20.3,1.09a21.64,21.64,0,0,0-2.15-.52,3.4,3.4,0,0,1-.46-.09c-7.63-1.35-15,.92-22.53,1.7-3,.31-5.91,1.93-6.05,5.39-.17,4.14,3.22,5.16,6.5,5.78s6.48.47,8.78,3.32a14.79,14.79,0,0,0,5.75,4.45c-4.47-.86-9.38-1.11-11.69,3-3.79,6.7-8.29,6.66-14.29,5.29-1.63-.38-3.4.71-5.19.71a11.64,11.64,0,0,0-1.71.13,7.14,7.14,0,0,0-4.1,1.86h0a6.27,6.27,0,0,0-1.71,4.74c.06,5,4.08,8.11,8.23,7.12,7.43-1.78,14.58-.13,21.73.27-4.05.31-7.43,2.77-11.23,4.15-9.06,3.29-18.69,4.95-27,10.44-.82.55-2.3.09-3.47.11-9.25.16-18.48-.26-27.69,1.26-1,.2-2,.38-2.94.55s-1.69.38-2.54.6a31.35,31.35,0,0,1-9.09,1h0a37.52,37.52,0,0,1-5.66-.61,44.51,44.51,0,0,1-4.36-1c-5.26.09-10.57,1.27-15.66,1.13-8.91-.26-15.82,6.18-24.41,6-7.07-.18-13.92,1.42-20.9,2a8.86,8.86,0,0,0-4.06,1.13,2.7,2.7,0,0,0-.33.22h0a4.63,4.63,0,0,0-1.62,4.48c.41,4,2.36,6.66,7.2,5.12-1.82,1.4-4.22,1.2-6.52,1.4a8.94,8.94,0,0,0-2.91.66h0a5.36,5.36,0,0,0-2.21,1.84,20,20,0,0,1-5.3,1.73h0c-4.79.86-9.71.2-14.59.18h0c-.71,0-1.43,0-2.14,0a24.4,24.4,0,0,1-3.71-2.61c-.27-.21-.55-.42-.84-.62l-.26-.19a10.5,10.5,0,0,0-1.48-.88h0a7.28,7.28,0,0,0-3.05-.83c-4,.14-7.78-1.1-11.68-1.66-5.89-.33-11.16-3.31-16.79-4.76a21.78,21.78,0,0,0-6.77-.77l-.92,0a29.31,29.31,0,0,1-3.09-.39c-12,1.52-23.28.07-33.32-7.35-1.87-1.38-4.37-1.59-6.67-2.13-9.62-2.25-19.54-2.14-27.32-3.53,11.5-1,24.95,1.76,38.33-1.16,3-.66,6.61-.91,6.68-4.37.08-4.11-3.86-4.55-7.13-4.88-5.24-.54-10.56-1-15.76-1.22-13.7-.55-27.63-3.51-41.12,0-9.63,2.53-18.42,2.28-28.11-1.83,9.33-.08,17.66-2.17,26.2-2.32,2.63,0,5.75-1.13,5.82-4.25s-3.06-3.9-5.7-4.38a36.14,36.14,0,0,0-6.16-.34c-9.7-.06-19.4,0-29.1,0-4.78,0-9.31,2.12-13.18-4.25-2.73-4.49-10.15-4.67-16-5.11,16.31-.8,32.47-.35,48.63-.77,4-.11,8.85.44,9.27-5.41v0c0-.22,0-.44,0-.68a5.85,5.85,0,0,0-3.59-1.9l-1.13-.22-.82-.12c-6.94-1-13.8-2.25-19.36-2.41,2.48-.13,8.59.78,8.74-4,.17-5.78-6.25-4.59-10.4-4.95a86.5,86.5,0,0,0-10.56-.08c-6.69.24-13.35-.2-19.51-.53a79.36,79.36,0,0,1,8,.11,4,4,0,0,0,4.53-3.37c.3-2.86-2.4-2.85-4.29-3.66,8.45.78,16.86,1.48,25.29.9h.07c2.42-.93,4.16-1.59,5.3-2.19h0c2.69-1.36,2-2.29-.71-5.22l-.42-.45-.78-.31c-3.52-1.26-7.25-1.12-10.92-1.49-8.88,1.8-17.85,1.57-26.8,1.5.76,0,1.52-.07,2.28-.14,2.31-.21,5.38-.34,5.43-3.21a3.1,3.1,0,0,0-.63-2.12c-.91-1.13-2.67-1.31-4.32-1.42h0l-.85,0c-2.44-.17-4.88-.1-7.32-.22h0c-.88,0-1.74-.12-2.61-.24h0c-.46-.06-.92-.14-1.38-.23-10.9,1-21.14-3.36-31.31-4.56,1.5.08,2.76-.3,3-2.66.3-3.51-2.76-5.52-6.25-6.31a57,57,0,0,0-7.82-1.1c-3.22-.26-6.89,1.59-10.25-1.75,2.83-1.72,5.54-1.12,8-1.64,2.63-.56,5.87-1.34,5.67-4.45s-3.48-3.38-6.22-3.39l2.27,0c3.12,0,6.32-.51,6.4-4.36.07-3.65-3-4.74-6.07-5.14a24.53,24.53,0,0,0-7.87.25c-1.16.22-2.33.43-3.48.62,1.21-.6,2-1.76,2.19-3.84a4,4,0,0,0-.07-1.18h0c-.32-1.46-1.53-2-3.1-2.17a46.34,46.34,0,0,1,7.29.93c.55.12,1.11.25,1.66.39s.88.24,1.32.37c4.93-.49,10.22,1.5,14.76-2a3.67,3.67,0,0,0,.26-.47,4.69,4.69,0,0,0,.36-1,4,4,0,0,0,0-1.79,3.52,3.52,0,0,0-.23-.81,4.69,4.69,0,0,0-.21-.46c-1.6-2-3.88-2.09-6.07-2.46h0a11.56,11.56,0,0,1-2.1-.54l-.6-.18c-4.82-1.34-9.3.3-14.47,1.66a3.14,3.14,0,0,0,.46-1.25c.57-3.3-2.21-4.54-4.8-5.29-3.13-.9-6.41-.5-9.63-.65-7.13-.33-14.35.72-21.73-.72,1.51-3.63,4.25-6,3-9.65-1.17-3.4-4.25-4.82-7.7-6.73,6.42-.05,12,.44,17.56-.33,3.12-.44,7.79-.19,6.68-5.18,0,0,0,0,0,0a7.86,7.86,0,0,0-.35-1.24,7.68,7.68,0,0,0-3.5-1.45l-.43-.09c-.77-.21-1.55-.42-2.34-.58a15.93,15.93,0,0,0-3.71-.42c-12.64.19-25.19.44-36-8.05-2.07-1.62-5.45-2-8.39-2.32-12.65-1.51-25.36-2-38.07-2.72h-.16c-7.65-.41-15.3-.87-22.93-1.63-4.4-.44-8.8-.7-13.22-.89h-1c-14.78-.67-29.7-.61-44.3-3.58-33.43-.14-66.38-5.6-99.53-8.84a16.76,16.76,0,0,1-4.68.65h0a20.32,20.32,0,0,1-5-.69A35.15,35.15,0,0,1,2.42,421,16.72,16.72,0,0,1,0,420.75v22.17c7.26.74,14.58,1,21.78,1.95,23.5,3.18,47.11,5.36,70.64,8.2,25.44,3.08,51,5.22,76.66,9.46-3.16,3.8-8.63,6.06-7.1,11.68,1.67,6.11,7.68,6.54,12.62,8.14A21.26,21.26,0,0,0,179,483c12.81,1.39,25.47,3.44,37.19,9.23,2,1,5.06,1,5.16,4,.09,2.38-2.34,3.12-4,4.22-5.88,3.86-12,7.29-18,11-4.09,2.54-8.24,5.7-8.41,10.66-.25,7.12-4.86,9.68-10.19,11.54-21.95,7.66-40.67,20.09-57.54,36.08-7.93,7.52-11.18,15-9.49,25.59,1.43,9-.83,17.19-7.64,24.09-9.63,9.78-21.29,16.33-33.09,22.94-15.28,8.54-31.61,15.83-42.06,31-.39.56-.79,1.1-1.17,1.65H1080V642.23A57.07,57.07,0,0,0,1074.09,639.7ZM774.6,571.39c1.37,0,2.72-.07,4-.17A13.13,13.13,0,0,1,774.6,571.39ZM363.19,540.15c-.79,0-.78-.08,0,0Zm1.09,0H364C364.14,540,363.6,539.68,364.28,540.14ZM304,490.75c-2.2,0-4.75.37-6.58.06l-.21,0h.82C299.87,490.72,301.89,490.67,304,490.75Zm-4.1-4.87a14.32,14.32,0,0,1,1.77-.2C301.12,485.76,300.53,485.83,299.93,485.88ZM296,498.73a23.61,23.61,0,0,1,5.56-.07A28.85,28.85,0,0,1,296,498.73Zm6.82,8a48.78,48.78,0,0,1-7.95-.56A59,59,0,0,0,302.82,506.7Zm24.8,21.11c-.74-.06-1.48-.11-2.22-.13A9.47,9.47,0,0,1,327.62,527.81Z" fill="#0c1325"/><path d="M223.44,501.53c-7.74,4.77-15.66,9.24-23.45,13.93-4.18,2.51-7.9,5.28-5.64,11.22,1.51,4-1,5.89-4.35,7.25-5.44,2.19-10.71,4.85-16.25,6.73-21.11,7.15-36.89,22-53.08,36.3-4.1,3.6-5,8.88-3.74,13.85,4.62,17.91-4.25,29.59-17.29,39.78C86.36,641,70.85,647.52,56.5,656a92,92,0,0,0-22.24,19H0V439.29c17,1,33.83,3.27,50.72,5.39,25,3.12,50,5.45,75,8.23,16.56,1.84,33.11,3.86,49.65,5.88,1,.13,1.9,1,3.06,1.72-2.89,4.07-7.2,5.58-10.62,8.21-1.61,1.24-4,2.14-3.75,4.46.34,2.73,3.12,3.38,5.32,3.89,6,1.37,12.12,3.67,18.08,3.39,13-.62,23.39,6.82,35.15,9.85,2.46.63,5.55,1.5,5.88,4.58C228.83,498.29,225.86,500,223.44,501.53Z" fill="#040b19"/><path d="M1080,417.32V646.85c-18.27-9-38.24-14.5-55.26-26.1a19.83,19.83,0,0,1-7.72-9.12c-4.88-11.57-14.83-18.82-24.61-25.7-5-3.56-9.67-7.54-14.51-11.29-4-3.09-6.48-6.67-5.45-12,1.08-5.65-2.37-6.21-6.8-6.16-21.43.24-42.85.45-64.28.36-6.25,0-13,.56-16.65-6.85-1.32-2.68-4.72-1.7-7.29-1.86-5.39-.33-10.91.7-16.3-2.5,7.24-.89,14.45-2.21,21.71-2.61,36.87-2,73.76-3.57,110.67-.66a11.62,11.62,0,0,0,4.33-.26c4-1.24,9.9-.75,10.56-6.22.68-5.74-5.44-5.36-8.86-6.62-14.7-5.43-28.83-11.42-38.54-24.71-2.68-3.67-7.64-4.26-11.73-5.73-21.82-7.84-44-14.31-67-17.67a12.5,12.5,0,0,1-3.33,2.55c-4.33,2.26-9.15,1.16-13.81-.31-4.44-1.4-8.89-2.85-13.31-4.34-.72,0-1.44-.1-2.15-.19-4-.48-7.84-1.67-11.82-2.14l-.8-.05h0s0,0,0,0,0,0-.06,0c-4.61-.36-9.08-1.61-13.59-2.63a55.67,55.67,0,0,0-8.51-1.37c-.72-.05-1.46-.07-2.19-.07-8.08-.61-16-2.33-24.16-2.5-.93-.29-1.86-.57-2.79-.83A28.46,28.46,0,0,0,778,467.8h0l-.89-.08a8,8,0,0,1-2.94-.76,4.14,4.14,0,0,1-1.2-.85,4.52,4.52,0,0,1-1.27-2.74.28.28,0,0,1,0-.09,6.17,6.17,0,0,1-.06-1.07c4.18-9.44,13.78-8.62,21.53-11l2.69-.8h0a21.61,21.61,0,0,0,4.85-1.88,9.82,9.82,0,0,0,3.57-3.41c5.18-3.74,10.9-5.33,16.76-6h0c5.33-.67,10.8-.63,16.12-.85,11.15-.47,22-2.19,33-3.55,8.69-1.09,17.41-2,26.13-3h0c15.34-1.65,30.7-3.22,46-5.32,8.74-1.2,17.53-2.47,26.34-3.2a152.17,152.17,0,0,1,20.59-.48,62.15,62.15,0,0,0,18.45-1.47h0a44.29,44.29,0,0,0,9.29-3.45C1038,416.72,1059,417.32,1080,417.32Z" fill="#040b19"/><path d="M1080,301.94V409.16h0c-4.7-.09-9.41.09-14.11.09H553.48c-4.41,0-8.82.09-13.22-.15-10.07-.55-11.82-2.39-11.69-12.61,0,0,0,0,0,0v-.38a23.88,23.88,0,0,1-.18-3.47c.13-6.15,2.53-12,3.88-17.87.58-2.51,1.62-4.23,3-5.16h0a5.25,5.25,0,0,1,3.28-.77h0a11.5,11.5,0,0,1,5,1.84c3.13,1.89,5.45,3.6,9.37,1.2s6.64.88,8.35,4a69.27,69.27,0,0,0,5.83,9.36,141,141,0,0,0,6.63-19.42c.24-.88.46-1.76.66-2.65.09-.34.17-.69.25-1,1.59-3.7,4-5.89,8.36-4.78a12.77,12.77,0,0,1,2.3,1.53,14.35,14.35,0,0,1,2.42,2.64c2.09,2.94,3.27,6.53,5,9.83,2.09-4.06,3.64-8.3,6.06-12a22.59,22.59,0,0,1,2.52-3.22c.21-.24.44-.47.68-.7a5,5,0,0,1,1.44-.49,3.82,3.82,0,0,1,.59-.09,2.69,2.69,0,0,1,.4,0c5.74,1.48,7.22,6.14,8.39,11.11,1.28,5.43,2.47,10.52,10.34,6.76,4.24-2,6.9,1.75,9,5,2.41,3.76,4.33,3.59,5.72-.64,1.46-4.43,2.68-8.92,3.88-13.42,1.76-6.59,4.13-12.79,12.14-14.45,3.88-.81,4.73-4.37,5.59-7.68,0-.14.06-.28.1-.42l.16-.31.28-.53c.39-.75.77-1.41,1.13-2h0c3.56-6.07,5.56-5.41,11.52,1.33.56,1.12,1,2.27,1.52,3.43l.72,1.8a44,44,0,0,0,2.24,5,38.33,38.33,0,0,1,4.59-1.78c2.59-.73,4.15-.34,5.87,1.75a44.82,44.82,0,0,1,4.21,6.94c2.4-1.4,3.29-4.47,5.57-6a4.76,4.76,0,0,1,1.4-.66h0a3.45,3.45,0,0,1,.46-.12,3.52,3.52,0,0,1,2.2.65l.13.09a8.58,8.58,0,0,1,1.61,2.24,15.49,15.49,0,0,0,3,4.48,15.21,15.21,0,0,0,3.31-3.55,7.8,7.8,0,0,1,2.16-2,5,5,0,0,1,.77-.37,5.08,5.08,0,0,1,2.48,0,15.4,15.4,0,0,1,3.71,3.69,0,0,0,0,1,0,0c2.82,4,3.67,8.86,4.93,13.23,6.41-1.83,13.32-3,16.29-9.36a15.23,15.23,0,0,0,.6-1.48c.16-.52.31-1.06.44-1.64,4.74-4.74,7.86-1.81,10.75,2.25a9.61,9.61,0,0,0,.15,1.91,7.63,7.63,0,0,0,.68,2.18c2.41,5,9.56,5.51,13.12,9.53.77.87,2.82-2,5-4.76.6-.76,1.19-1.5,1.76-2.15q.51-.57,1-1c2-7.49,2.49-15.41,6.46-22.35,1.56-2.73,2.3-6.54,5.81-7,3.16-.42,4.22,1.88,5.37,4.1h0a11,11,0,0,0,1.65,2.52c.28.36.56.71.84,1.08,1.75,2.24,3.44,4.63,3.26,7.47-.37,5.94,3.27,8.67,7.55,11.19a8.8,8.8,0,0,0,.78-.58c3.67-3.52,5.77-10.91,11.36-9.53,5.06,1.25,5.18,8.44,6.75,13.36l.21.71c.22.78.45,1.55.68,2.33h0A169,169,0,0,0,830,383.71c6.62-4.57,7.43-11.45,9.14-17.78.2-.75.42-1.5.65-2.23s.43-1.24.67-1.84c.82-5.68,5-9.61,7.49-14.43.52-1,1.81-2.4,2.56-2.05l.47.21.17.07c5.82,2.36,5.5-3.19,7.25-6a4,4,0,0,1,.37-.52,13.11,13.11,0,0,1,1.53-1.54c3.81-3.2,6.8-.91,9.5,3.2,3.47,5.28,3.12,11.81,5.68,17.34l0,.09c.23.48.7,1.05,1.09.88a1.56,1.56,0,0,0,1-1.32c.09-.7-.14-1.51-.06-2.22.81-5,1.82-9.86,8.33-10.21,1.63-.23,2.8,2,4.57.81a21.8,21.8,0,0,1,.91-4.38c1.35-3.67,3-7.31,7.49-7.67,4.09-.33,6.13,2.82,7.93,5.94.7,1.23,1.09,2.67,2.51,3.56,2.82-2.69,4.45-7.92,9.48-6.22,5.5,1.86,7.69,6.78,8.57,12.26a2.77,2.77,0,0,1,.1.26,14,14,0,0,1,.64,2.45c.44,2.22.78,4.6,2.9,6.87.7-2.8,2.25-5.09,3.35-7.49a13.4,13.4,0,0,0,1.09-3.33,9.12,9.12,0,0,0,.05-2.77c.89-4.46,1.51-9.08,6.17-11.53l.43-.05h0a7.21,7.21,0,0,1,.79,0c3.69,0,5.59,2.57,7.07,5.79a21.6,21.6,0,0,0,1.18,4c.5,1.29,1.09,2.53,1.7,3.78h0a46.65,46.65,0,0,1,4,9.52A91.15,91.15,0,0,1,960,346.52c.21-.63.42-1.26.62-1.89a46.81,46.81,0,0,0,1.41-5.54,28.17,28.17,0,0,1,2.72-8.56,14.8,14.8,0,0,1,1.09-1.7c.07-.1.14-.21.22-.31a10.36,10.36,0,0,1,2-2.85l.15-.14a10.74,10.74,0,0,0,1.74-1.16c2.66-2.16,3.71-5.25,4.35-8.56.1-.52.19-1,.28-1.57h0c.73-1.25,1.21-2.63,1.89-3.89,5.07-9.44,12.78-9.84,18.55-.82a28.55,28.55,0,0,1,4.68,11.86c.47-.24.53-.54.32-1.09a4.89,4.89,0,0,1-.2-.69c-.59-6.56,2.56-8.51,8.54-7.09,13.75,3.27,15.87,5.41,18.28,18.51,2.35-6.7,1.75-15.85,13-15.32,1.68.08,2-2.68,2.54-4.27.94-2.58,1.61-5.28,3.08-7.61a11.1,11.1,0,0,1,1.4-1.83l.11-.09a5.79,5.79,0,0,1,4.67-1.47c.16.09.32.18.48.29a9.94,9.94,0,0,1,1.38,1c6.38,5.13,4.07,14.11,7.88,20.81,2.26-2.71,2.82-7.45,7.25-7.4,3.06,0,4.25,2.69,5.3,5.53.54-5.54,1.42-11,4.15-15.9A9.62,9.62,0,0,1,1080,301.94Z" fill="#121c2f"/><path d="M1080,405.13v15.95c-8.09-.42-16.23.36-24.32.17-13.1-.31-26.22,0-39.33,0-11.12,3.41-22.59,2-33.9,2.15-4.6.06-9.2-.05-13.8-.24-12.94-.55-25.86-1.76-38.84-1.61-9.9.13-19.25,2.06-27.57,7.62a18.31,18.31,0,0,1-5.93,2.51h0c-2.07.52-4.21.82-6.4,1.2C867,436.9,844,438.52,821,439h0c-20.84.47-41.71,0-62.58-.37-11.13-.21-22.25-.87-33.39-.76a31.62,31.62,0,0,0-9.38,1h0a13.8,13.8,0,0,0-3,1.32l-.33.19c-5.08,1.39-10.15.21-15.23,0-.64,0-1.28,0-1.91,0h-.46a138.9,138.9,0,0,1-24.13,0l-.25,0-2.38.18a136.36,136.36,0,0,1-20.11-.18h-.16c-.72.1-1.45.18-2.17.23-4.54.38-9.08-.08-13.63-.14-1,0-2,0-3,0l-1.14.05c-39.58.47-79.16.91-118.73-.21l-1.32,0c-.81,0-1.62,0-2.43.08-4.71.23-9.41.71-14.12.29-.76-.06-1.53-.15-2.29-.27l-.64,0a291.24,291.24,0,0,1-31-.11h-.05l-1.9,0c-3.11.07-6.21.1-9.32.11h-.08l-7.86,0h-.05l-8.88-.06h-7a218.61,218.61,0,0,1-33.17-.2h0l-1.62.15a79,79,0,0,1-16.13-.05h-.24c-.83.06-1.67.11-2.5.14a68.74,68.74,0,0,1-7.73,0c-.69,0-1.39-.1-2.08-.17h-.16c-9.13-.17-18.15,2-27.28,1.66h0c-.75,0-1.49-.06-2.25-.12a13.47,13.47,0,0,0-1.9-.07c-2.53,0-5,.64-7.56.73-5.1.18-9.38,1-7.05,8a4.55,4.55,0,0,1-.44,4,5.52,5.52,0,0,1-2.33,2,6,6,0,0,1-.58.26c-4,0-8.24,1.09-12.2.39a11.83,11.83,0,0,1-1.9-.5,11.31,11.31,0,0,1-3.61-2.08h-3.5c-1-1.09-2.47-2.09-3.19-3.35a3.27,3.27,0,0,1-.44-1.47c-.33-8.62-5.78-8.76-12.57-9.08-24.39-1.13-48.77-2.16-73.17-3h-.16c-26.09-.86-52.19-1.46-78.3-1.65a5.58,5.58,0,0,1-3.33-.85c-27.36.81-54.31-3.47-81.35-6.68-6.39-.75-13,.21-19.17-2.17C11.58,424.1,6.82,424,2,424.67l-2-.24V412.6c19,1.56,38.05,2.77,57.07,2.68,40.53-.18,81,1.66,121.5,2.53,29,.62,58.15-.32,87.12,1.51,40.52,2.57,81,.58,121.53,1.45a94,94,0,0,1,14,1.25c5.92,1,11.15-.14,14.48-5.75a17.22,17.22,0,0,0,3-2.91h0a19,19,0,0,0,1.93-2.85v0a30.44,30.44,0,0,0,1.91-4.11c2.49-6.4,6.23-7.33,11.16-2.53,4.35,4.24,7.71,1.79,10.7-.67,3.46-2.83,6.3-5,10.86-2.22,3.61,2.24,4.62-1.06,5.46-3.48,1.34-3.87,1.84-8,3.65-11.76,3.7-7.66,8-8.26,12.7-1.41,3.21,4.68,5,9.31,10.73,1.59,4.26-5.73,10-2,12.22,8.07.26-4.89,3-5.82,7.06-7.87,8.48-4.28,13.26-3,17.57,4.91.7,1.29,2.18,1.52,3.74,1.63a16.79,16.79,0,0,1,2.83.31c.91,12.35.91,12.35,14.87,12.35q260.8,0,521.62,0C1071.82,405.31,1075.92,405.34,1080,405.13Z" fill="#1a273e"/><path d="M1080,236.83v27.61c-45.4-.17-90.81,1.3-136.23-1-13.93-.71-28.15,2.08-42.18,1.1-26-1.82-52.1,1.85-78-.31-26.74-2.22-53.44-1.35-80.14-1.19-37.85.22-75.68-.74-113.53-.24a53.72,53.72,0,0,1-7.92-.35c-15.49-2.14-21.1-14.34-11.55-26.69,8.48-11,13.68-23.31,17.51-36.26,6.47-21.89,3.19-42.52-10.82-60.78-27.83-36.31-79.65-30.41-100.32,10.15-10.07,19.78-9.74,40.12-1.38,60.47a193.29,193.29,0,0,0,16,30.34c7.11,11.14,3.48,18.63-9.69,21.35-7.89,1.63-15.54.77-23.49.21a292.81,292.81,0,0,0-39.62.34,561.36,561.36,0,0,1-65,.19c-26.08-1.35-52.26-2-78.35.4a112.1,112.1,0,0,1-13.19.63c-100.4-2.64-200.82-1.45-301.22-1.76H0v-27c54.3,1,108.62-1.3,162.9.29,83.14,2.44,166.28,1.46,249.42,1.56,25.26,0,50.54,1.07,75.8-.32,11.77-.64,13.51-2.89,13.13-14.59-.26-7.94-2-15.66-3.06-23.47a108.44,108.44,0,0,1-.95-16.2c.47-24.48,10.13-45.5,30.23-62.39a62.92,62.92,0,0,1,13.14-8.56l.21-.1c.9-.42,1.82-.83,2.75-1.22l1.17-.48.55-.21c.35-.14.71-.28,1.07-.4a60.4,60.4,0,0,1,17.26-3.41c19.38-1,36.52,3.59,51.45,16.28,18.09,15.37,26.63,35.18,28.15,58.45a115.36,115.36,0,0,1-.71,19.94c-.81,7.65-2,15.28-2.56,23-.73,9.59.6,11.93,10,14.07a21.67,21.67,0,0,0,4.32.83c31.74.41,63.48,1.08,95.19-.44,6-.29,11.62,1,17.48,1,99.35-.31,198.69-.12,298-.18,3.82,0,7.65.14,11.46-.13A26.88,26.88,0,0,0,1080,236.83Z" fill="#374662"/><path d="M1080,260.72v14.34c-3.2.12-6.41.32-9.6.17-26.39-1.18-52.75.95-79.15.62-14-.18-28-.39-42-.67-13.55-.27-27,2.15-40.44,1.6-54.92-2.21-109.89.09-164.75-2-45.84-1.75-91.55,2.51-137.33.54-7.92-.34-15.85-.08-23.67-1.76a56.62,56.62,0,0,0-21-.43c-14.25,2.23-28.65,2.23-43.06,2.18-40.26-.13-80.54.82-120.78-.2-131.61-3.34-263.23-.66-394.85-1.67-1.13,0-2.29,0-3.45.07V257.2q113.85,0,227.68.08c20.41.05,40.82,1.65,61.23,1.52,19-.11,38.1-2.8,57.06-2.08,17.84.69,35.8-1.41,53.55,1.87a35,35,0,0,0,7,.35c27.47-.56,55,0,82.38-2.31,10.63-.88,20.21,4.37,31.2,1.06,12.4-3.74,14.59-6,7.57-16.36-11.3-16.72-20.36-34.67-22.35-54.88-2.62-26.64,10.39-57.77,41.59-71,25.75-10.9,56.53-1.93,73.86,21.25,14.15,18.93,17.69,40.06,11.54,62.45-3.8,13.79-9,27.15-18.51,38.57-8.77,10.51-5.33,18.44,8.26,20.89a49.48,49.48,0,0,0,8.79.32c53.11,0,106.21.29,159.31-.12,20-.16,39.81,3.05,59.8,1.92,11.32-.64,22.67-1.74,34-1.42,8.38.24,16.73,1.53,25.21,1.5q83.57-.29,167.15-.06C1077.56,260.77,1078.79,260.77,1080,260.72Z" fill="#3d4d6b"/><path d="M1080,278.67v22.55c-2.45.24-5.49.3-9.32.34-5.77.06-11.56.59-17.33.12-.63-.05-1.26-.11-1.89-.19l-2.87,1.8a20.93,20.93,0,0,1-3.28.53c-7.1.55-14-2.4-21.11-2.27-19.32.36-38.61,1.52-57.93,1.93-22.92.49-45.72-2.19-68.67-1.94-53.76.6-107.52.15-161.29.16-98.71,0-197.44.55-296.14-.37-25.16-.24-50.33.63-75.57-.73-24.13-1.29-48.68.82-72.85.28-36.66-.83-73.42,1-110-2.44-8.86-.83-17.59,1.2-26.34,1.21-24.36,0-48.7.59-73.11-.83-17.44-1-35.14,1.31-52.72,1.93-9.95.34-19.9-.08-29.55-2.42v-22c26.69.05,53.43-2.42,80-1.35,33.79,1.35,67.53.92,101.28,1.07,79.61.36,159.23-.05,238.85.15,44,.11,87.92,2,131.89,1.67,24.89-.16,49.79-2.88,74.63-1.49,56.08,3.14,112.17.75,168.25,1.48,26.15.34,52.35-.95,78.44.33,27.3,1.35,54.58-1.7,81.75.07,38.47,2.51,76.93.46,115.37,1.52A28.34,28.34,0,0,0,1080,278.67Z" fill="#445373"/><path d="M420.63,410.48v0a21.31,21.31,0,0,1-.53,5.26c-2.31,8.87-7.5,12.55-17,10.76-19.76-3.72-39.78-1.42-59.68-1.76-19.66-.35-39.39.91-59-.31-30.72-1.91-61.51.07-92.12-1.93-24.65-1.61-49.3.37-73.79-1.63C93,418.8,67.49,421,42.12,419,28.1,418,14,418.39,0,417.29V362.4c2.2-1.24,3.5-4.65,5.91-5.1,6.8-1.26,11.51,1,13.21,8.66,3-3.94,4.87-11,11-3.65,2.79,3.34,5.25.48,7.46-1.23,1.16-.9,1.43-2.49,2-3.86,1.95-5,4.13-10.63,10.11-10.86,6.28-.25,5.91,6.85,8.61,10.93,5.19-4.69,3.59-11.39,5.75-16.77.07-.17.14-.33.22-.5.43-1.1,1.11-2.07,1.54-3.17l0-.07c3.35-8.53,5.16-8.81,11.67-1.9l.17.24a6.89,6.89,0,0,1,1,2.12,34.27,34.27,0,0,0,1.13,4.06,5.74,5.74,0,0,0,.5.95,16.86,16.86,0,0,1,.76,2h0c.33,1.09.59,2.19.94,3.28a13.64,13.64,0,0,0,.93,2.28c.1.2.22.4.34.6,1.1,1.49-1.24,4.35,2.11,5,3.93.73,6.83,3.21,9.49,6,1.52,1.59,3,3,5,.69,4.55-5.24,8-2.94,11.16,1.59,1.84,2.64,5.26,3.81,6.54,7a14.36,14.36,0,0,0,.76,1.31,18.3,18.3,0,0,0,2.91,3.45c5.15,4.79,13.12,7.12,19.52,5.05,2-.64,4.34-1.91,5.79-.47,5.92,5.86,7.88,2,9.85-1.9.4-.8.8-1.6,1.23-2.33a4,4,0,0,1,.23-.34c.25-.36.53-.7.79-1.07,5.92-2.64,11.7-3.88,16.8,1.7.16.61.34,1.21.52,1.81s.44,1.3.67,1.93c3,8,8.32,14.82,13.89,22.6,1-7.91,1.91-15,4.28-21.6.22-.61.45-1.22.7-1.83q.24-.62.51-1.23c2.28-2.88,4.71-4.22,7.57-.7.29.56.58,1.13.85,1.69.46.9.9,1.8,1.33,2.71h0A126.7,126.7,0,0,1,212.38,398c.63,2,.55,5.21,3.89,5,2.85-.19,4.77-2,5.67-4.81.72-2.22,1.19-4.55,2.64-6.47s4.48-4.26,5.73-2.26c4.76,7.6,15.33,2.1,19.33,10.19,4.11-4.15,2-12.54,9.15-12.38,6.07.14,6.34,6.78,8.77,10.92,1.75,3,5.14,4.84,6.05,8.47.14-8.94,1.23-17.37,10.42-22.14,1.76-.92,2.68-3.06,4-4.66,4.76-6,4.77-5.95,12.86-2.54.84-6.19,2.76-11.72,6.88-15.75a20.6,20.6,0,0,1,3-2.42h0a22.85,22.85,0,0,1,3-1.63c6.13-5.67,6.84-5.53,11.71,2.24.13.6.28,1.19.44,1.78.27,1.05.58,2.08.92,3.12h0c2.36,7.25,6,14.12,8.76,22,2.77-2.29,4.29-6.42,8.33-5.11,3.71,1.2,5.2,4.51,6.5,7.79,1.39,3.5,2.15,7.35,6.17,9.51,5.38-4.09,8.46-13.07,18.19-9.12,2.55,1,3-2.33,3.77-3.92a92.73,92.73,0,0,0,5-13.71q.36-1.17.75-2.34c.13-.42.27-.83.41-1.25,4.1-5.07,7.73-3.91,11.12.8.57,1.1,1.1,2.22,1.6,3.36.34.8.67,1.62,1,2.45a59.09,59.09,0,0,1,2.58,9c7.18-5.09,11.24-1.13,13.24,5C416.48,396.17,420.46,402.92,420.63,410.48Z" fill="#162137"/><path d="M582.37,89.72a9.77,9.77,0,0,1-.54,1.53,7,7,0,0,1-1.32,2,7.1,7.1,0,0,1-3.13,1.88,18.93,18.93,0,0,1-5.11.74c-4.88.21-9.82-.36-14.55,1.3-17.32,4.3-33.22,11.33-45.41,24.89a115.15,115.15,0,0,0-22.43,36.28c-1.44,3-2.5,6.18-4.15,9.07h0c-.24.44-.5.85-.78,1.27a44.47,44.47,0,0,1-7.19,8.72,26.07,26.07,0,0,1-14.24,6.68,37.37,37.37,0,0,1-6.32.36c-16.23-.37-32.46-.41-48.7-.31-26.77.17-53.56.74-80.35.91h-.4c-13,.07-25.93.05-38.9-.15-19.75-.3-39.49-.53-59.24-.51-2.56,0-5.1,0-7.66,0-1.73,0-3.47,0-5.22-.07-7.63-.21-15.34-.87-23-1.13-2.72-.09-5.45-.13-8.16-.08l-1.29,0c-6.95.21-13.9.21-20.85.13-18.12-.18-36.25-.87-54.34.29q-6.57.42-13.14,1.21a35.79,35.79,0,0,1-5.28.14c-4-.08-7.93-.16-11.89-.21-11.89-.17-23.77-.17-35.65.18l-1.7,0a30.18,30.18,0,0,1-8.07-1.3l-.54-.13a37.15,37.15,0,0,0-10.55-1.32A16.39,16.39,0,0,0,16,183.75a16.11,16.11,0,0,0-2,1.11,8.16,8.16,0,0,1-4.67.94,16.71,16.71,0,0,0-3.65-1.5h0A39.16,39.16,0,0,0,0,183.21V157.8c6.7-.61,13.36-1.46,20-1.88,12-.76,24.72-.87,36.74,1.27,14.85,2.64,29.23.23,43.77-.94a489.77,489.77,0,0,1,72.88-.06,425.25,425.25,0,0,0,56.33-.12,38.9,38.9,0,0,1,10.89,1.11c9.26,1.91,18.65,5.22,28.34,2.49a41.34,41.34,0,0,1,11.33-1.19c23.25,0,46.62-1.37,69.73.43,18.47,1.44,36.82-3.11,55.12.66,2.22.46,4.74.08,5.17-2.14,1.67-8.71,5-5.63,9.4-2,9.43,7.87,20.17,3.35,30.48,2.53,1.44-.11,2.94-1.15,4.27-.91,18.49,3.31,26.51-9.16,35-22.08a134.73,134.73,0,0,1,30.7-33.56c15.93-12.2,34.19-16.1,53.54-17C577.64,84.29,581.5,84.6,582.37,89.72Z" fill="#26374f"/><path d="M1080,186v19c-7.64,1.2-15.27,1.83-22.87-.59-6.3-2-12.35-1.24-18.85-.25-25.95,3.94-52.08,2.85-78.16.94-3.23-.24-6.45-.45-9.68-.44-39.38.09-78.76-.66-118.12.12-30.51.61-61-.25-91.49-.39-21.1-.1-42.2.28-63.29.46-11.75.11-20.22-7.21-24.78-19.72-.08-.21-.15-.42-.22-.63-4.57-12.73-7.13-26.12-13.42-38.31-13.79-26.73-34.83-43.58-65.23-45.83-17.63-1.31-34.5,3.35-48.15,15.64a146.93,146.93,0,0,0-11.51,11.22c-.28.31-.56.61-.83.92l-.16.18a59.54,59.54,0,0,0-7.62,10.87,17.52,17.52,0,0,1-1.71,2.64,67.65,67.65,0,0,0-7.72,15.51.06.06,0,0,0,0,0c-.75,2.06-1.43,4.14-2.08,6.24-1.44,4.67-2.69,9.41-4.09,14.11a.06.06,0,0,1,0,0,1.09,1.09,0,0,1-.05.17s0,0,0,.06c-.4,1.35-.82,2.69-1.25,4-.91,2.79-1.77,5.56-2.95,8.27-4.47,10.3-11.63,15.26-23.41,14.51-22.3-1.42-44.77,1.43-67-.52-20.32-1.78-40.42.77-60.62.1-8.51-.29-17,0-25.42-1.85-7.59-1.73-15.09-.84-22.74,0a230.47,230.47,0,0,1-40.37.68c-17.86-1.17-35.88.42-53.78-.5-29.27-1.5-58.51.12-87.73.57-34.92.53-69.8-1.54-104.7-.46V182.46c3,.44,6.06,1.07,9,.7h3.53a30.2,30.2,0,0,1,9.71-1,88.82,88.82,0,0,1,11.09,1.45,81.09,81.09,0,0,0,9.77,1.26l.73,0c11.65.37,23.29.17,34.92-.21,10.11-.32,20.21-.79,30.31-1.14,10.76-.37,21.53-.62,32.3-.43,5.58.1,11.15.05,16.71.55,1.46.13,3.4,1.06,4.3.34.34-.27.69-.52,1-.75,7.28-4.92,14.75-1.26,22.14-.16a22.4,22.4,0,0,0,4.32.27l3.84-.19c7.65-.39,15.37-.76,23,1.13l1.14.29c3.85,1.06,7.79.29,11.74-.24a35,35,0,0,1,4.89-.39c31.09.1,62.17.9,93.25,1.05h.4c7.81,0,15.62,0,23.43,0,19-.17,37.94-.59,56.92-.87,18.34-.28,36.68-.42,55-.05l2.38,0c5.82.13,9-3.08,11.86-6.72.84-1.09,1.66-2.22,2.5-3.31,4.36-5.63,6-12.64,8.6-19.13,12.59-30.88,33.22-52.77,67-59.94a141.57,141.57,0,0,1,24.61-1.78c9.51.28,18.71,2,27.37,6.23.2.09.39.19.59.3a53.58,53.58,0,0,1,5.26,3l.07,0a59.39,59.39,0,0,1,7.23,5.51c14.59,13,26.3,28.24,33.26,46.67,2.49,6.57,5.29,13,8.14,19.39,1.85,4.61,3.33,7.84,5.07,10.08h0c3.25,4.18,7.38,4.94,16.34,4.81l5.66-.09c7.86-.1,15.72-.21,23.58-.37,7.13-.15,14.27-.36,21.4-.67h0q3.48-.15,7-.33a61.52,61.52,0,0,1,11.24.76h0c2.94.39,5.88.8,8.85.91,11.62.44,23.2-.42,34.78-1.17h0c9.17-.58,18.34-1.1,27.55-.84,5.73.16,11.61,2.62,17.29-.46,9.48-2.64,18.93-2.22,28.7-1.24a164.91,164.91,0,0,0,35.1-.51c17.52-2,35.17-.24,52.77-.69,27.56-.69,55.09,1.17,82.62,1.43C1053.57,186.13,1066.82,187.33,1080,186Z" fill="#293952"/><path d="M1080,271.38v12.2c-1.56.05-3.36.06-5.43.06q-50.27,0-100.51,0c-11.72,0-23.32-1.9-35.1-1.87-92.17.24-184.34,0-276.5.24-20.27.06-40.41-3.33-60.67-1.81-33.32,2.49-66.72,2.39-100,1.51-92.12-2.46-184.23-1.17-276.35-1.54-36.39-.15-72.8.86-109.16-.26-38.77-1.19-77.5.68-116.24.39V269.54c116.48-.05,233-.7,349.43.39,44.92.42,89.85,1.4,134.77,1.26,23.76-.08,47.71,2.5,71.23-1.86,15.81-2.93,30.85,2.06,46.28,1.92,35.22-.32,70.5-1.23,105.66-1.1,55.5.21,111,.36,166.52,1.56,18.76.4,37.38.47,56.13-.14,26.16-.84,52.44,1.31,78.54.78C1032.35,271.86,1056.18,272.05,1080,271.38Z" fill="#3e4d6c"/><path d="M1080,211.85v20.63a31.18,31.18,0,0,1-16.86,1.17c-15-2.8-30.2-.8-45.3-1.23-13.65-.39-27.56,3.1-40.82-2.87a5.92,5.92,0,0,0-4.3.11c-17.56,5.5-35.37,2.84-53.2,2-22.56-1-45.17-1.48-67.74.39-1.74.15-3.48.57-5.24.58-32.57.21-65.21,1.6-97.7-.26-27.9-1.59-55.74-.67-83.59-1.3-19-.44-25.53-8.22-23.24-27.05.2-1.62.37-3.23.5-4.83,2.34-26.3-2.78-50.83-21.55-71.19-24.34-26.4-64.18-31.11-93.62-7.52-19.51,15.63-27.24,36.72-30.06,60.45,0,.12,0,.24,0,.36a125.42,125.42,0,0,0-.49,13.56v0c0,5,.18,10.08,0,15.11-.32,10.2-7.91,18.61-18.19,18.81h-.74c-3.9.08-7.81.19-11.72.27-6,.12-12.05.16-18.08-.11-3-.14-6.05-.36-9.07-.68-6.54-.7-13.05-.08-19.57.35-2.85.19-5.71.34-8.56.33q-7.68,0-15.36,0h0c-31.23,0-62.45,0-93.68-.58l-5.45-.11c-3.42-.07-6.83-.1-10.25-.1-6.23,0-12.47,0-18.7.06-6.05,0-12.09-.06-18.12-.33h-.39c-6.56-.29-13.16-1.48-19.71-1.74a47.84,47.84,0,0,0-9.11.42c-18.45,2.83-37,2.38-55.32,1.15-1.07-.07-2.13-.14-3.2-.19-10.69-.67-21.38-1-32.06-1.12-14.12-.17-28.22,0-42.33.13l-3.2,0c-24.36.25-48.73.88-73.09.47h-.35c-3.44,0-7,.23-10.48.1V210.48c30.07-.19,60.16.51,90.22.55h.08c9,0,18,0,27.08-.17,1.31,0,2.64,0,3.94,0h0c6.59,0,13.15.11,19.7.34h.16l4.35.17h.07l2.51.1a15.93,15.93,0,0,0,5-.6h0a28.67,28.67,0,0,0,5.67-2.39l.87-.47a7.28,7.28,0,0,1,3.25.13,17.91,17.91,0,0,0,2,1.18c3.72,1.89,7.73,2.22,12.12,2.24h1.51c22.67.08,45.34.12,68,.34q6.08.06,12.15.06h.18q17.07,0,34.15-.26h0q15.36-.24,30.73-.64,3.1-.07,6.23-.12h.16c14.49-.24,29.09,0,43.64,1h.2a380.12,380.12,0,0,0,50.85,0l.89-.05h0a255.62,255.62,0,0,1,26.7.09h.07c4.53.18,9.06.37,13.59.48,8.31.2,14.55-2,18.09-7.17l.06-.08a20.72,20.72,0,0,0,3.2-10.67c.14-2.43.39-4.83.73-7.21.43-3.14,1-6.23,1.69-9.31,0,0,0,0,0-.06.05-.19.08-.38.13-.57,0,0,0,0,0,0,.67-3,1.42-6,2.18-9h0c.54-2.14,1.09-4.29,1.63-6.44.9-8.43,4.73-15.71,9.07-22.78h0a108.8,108.8,0,0,1,23.92-25.55c30.3-23,72.89-17.79,98.4,10.37,16,17.59,22,38.72,27.24,60.6l.27,1.14c1.57,6.52,2.62,13.2,5.9,19.24,2.35,4.31,5.53,6.41,10.58,6.3,24.35-.54,48.69,3.56,73,1.42,28.47-2.52,56.81.94,85.22.23,30.11-.75,60.23-1.76,90.36-1.9,12.64-.05,25.08,2.56,37.76,1.91,20.78-1.06,41.58.12,62.36-.1,17.55-.19,35.11-1.46,52.61.15C1073.81,213.2,1076.91,212.49,1080,211.85Z" fill="#2f3f59"/><path d="M1080,228.76v12.5c-2.11.08-4.64.08-7.68.08H661a56.19,56.19,0,0,1-12.25-1c-13.71-3-15-5.29-12.93-19.22,2.71-17.87,6.75-35.55,3.12-54-9.74-49.51-62.54-77.52-106.38-48.54-17.75,11.74-27.56,29.68-31.49,51.07-3.24,17.67,1,34.35,3.93,51.29,2.47,14.19-1.09,18.63-15.87,18.64q-102.28,0-204.56,0c-31.77,0-63.62,1.41-95.29-.36-38.19-2.13-76.32-.79-114.48-1.32-24.93-.34-49.87-.16-74.81-.1V226.56q5.25.3,10.48.49h.12c25.51.92,51,0,76.52-.5,9.48-.2,18.95-.34,28.43-.32q7,0,13.9.19c10.69.25,21.38.71,32.06,1.12,13.63.51,27.25.93,40.9.72,9-.13,17.82-3.07,26.73-2.1.7.07,1.39.17,2.08.29a110.06,110.06,0,0,0,17.63,1.45h.39c6,.1,12.09,0,18.12.33q2.92.13,5.85.45c4.34.46,8.58-.21,12.85-.51a40.75,40.75,0,0,1,4.69-.13q5.5.19,11,.34c31.22.91,62.46,1,93.68.58h0l11.48-.2q6.23-.12,12.44-.1c9.55,0,19.09.2,28.64.33,6,.08,12,.14,18.08.11q4.26,0,8.54-.09,1.66,0,3.18-.18c12.42-1.11,17.73-7.67,18.21-21.3.32-9.32-2.72-18.6-.13-27.91,1.09-30.49,18.84-57,44.69-69.25l.21-.1c.9-.42,1.82-.83,2.75-1.22l1.17-.48.55-.21c.35-.14.71-.28,1.07-.4a71.61,71.61,0,0,1,11.31-3.25c30-6.06,61.3,10.21,77,40.27,10.24,19.6,12.69,40.59,9.92,62.26-1.46,11.47,5.51,19.93,17.31,20,19.39.06,38.82-.81,58.16.2,33.71,1.76,67.42,1.43,101.14,1.59,25.82.13,51.55-2.44,77.4-2,19.07.35,38,3.11,57.13,2,6-.33,11.75-.56,16.6-4.57,1.67-1.38,3.62-2.67,5.48-.91,11.08,10.5,24.55,4.42,36.84,4.82,6.58.21,13.5.73,19.89.06,14-1.46,27.71,1.83,41.62.79A32.41,32.41,0,0,0,1080,228.76Z" fill="#31425d"/><path d="M1048.59,303.29c-1.25,4.48-2.61,8.94-3.71,13.45-.69,2.82-.78,6.14-4.07,7.11-4.37,1.28-2.39-4.68-5.74-5.42-3.21,4.7-3.93,10.08-4.27,15.53-.17,2.77-1.53,4.88-4.09,4.6-2.11-.22-3.76-1.87-3.7-4.92.08-3.92.24-8-2.46-11.58-2.13-2.82-3.46-6.66-7.86-3-2,1.66-3,.47-4.13-1.11-6.22-8.61-5.68-1-6.7,2.82-.91,3.53-.51,8.79-6.83,5.14,2.08-5.26-4-19.27-8.73-20.35-2.68-.61-3.18,2-4.72,3-2.64,1.81-1.41,6.55-5.57,7.07a7,7,0,0,1-1.69.12,6.33,6.33,0,0,1-2.35-.57,36.34,36.34,0,0,0-4.05-2.34,18,18,0,0,0-2.49-1,35.1,35.1,0,0,0-7.54-.92c-2.76-.1-5.53,0-8.29,0h-8.87c-98.47,0-196.94.2-295.41-.13-33.12-.1-66.23-1.26-99.36-1.7-11.23-.16-22.46-.23-33.7-.15-3,0-6,.13-9,.28-12.24.62-24.42,2-36.72,1.74q-14.55-.36-29.09-.63-47.7-.91-95.39-1.17h-.83c-112-.69-223.9.6-335.85,0-1.8,0-3.6,0-5.37-.17V294.67c6.43.48,12.84,1.28,19.29,2.08,12.9,1.62,26.33.42,39.38-1,12.35-1.34,24.46-.38,36.73-.14,23.43.45,47.06-1.12,70.34-.56,36.91.88,73.94-1.26,110.77,2.52,10.38,1.07,20.45-1.78,30.69-1.52,28.64.72,57.32,1.09,85.94,1.34,103,.91,206.07.3,309.1.38,56.07.05,112.14.37,168.2.52,5,0,10-.33,15-.54,30.84-1.29,61.58,2.24,92.4,1.83,17-.22,33.92-3,51-1.84,6.3.42,12.68.46,18,4.16A17.09,17.09,0,0,1,1048.59,303.29Z" fill="#4c5a7b"/><path d="M942.85,334a10.77,10.77,0,0,1-.38,1.48L938.57,347a12.64,12.64,0,0,1-4.26,4.76,7.34,7.34,0,0,1-6.25.62,14.11,14.11,0,0,1-3.49-1.67c-.2-.85-.11-2-.64-2.52-2.68-2.59-3-8.52-6.88-8.24-4.15.3-3.94,5.7-4.72,9.24-.4,1.86-.77,3.62-2.92,3.71-2.46.11-2.2-2.21-2.82-3.74-.76-1.9-1.57-3.79-2.5-5.62-1.37-2.67-1.19-7.84-5.16-6.89-3.46.83-5.19,5.07-4.63,9.32.14,1-.43,2.17-.67,3.26-3,2.13-4.6-.21-6.36-2-7.64-.15-4,7.3-6.95,10.3-1.73,2.58-4.13,2.94-6.89,2.06-5.19-2.61-2.32-8.43-4.79-12-2-2.93-.45-9.72-7.58-7.58-.9-.12-1.81-.22-2.71-.32-18.63-2-37.33-.39-56-1-3.66-.13-6.13,2.21-8.89,3.72a8.45,8.45,0,0,1-4.65,1.22c-1.31-2.19-.23-5.29-2.68-7-3.91,6.75-6.4,14.07-8.54,21.5-.81,2.83-1.83,6.2,2,8.11-3,.41-6,.84-9,1-6.46.42-12.68-.27-18.07-4.77a23,23,0,0,1-2.77-2.74c-2.52.45-3.28-5.89-6.77-1.76a22.64,22.64,0,0,1-3.08,1.28c-7.77,2.58-14.58-.13-21.22-3.87a0,0,0,0,0,0,0c-1.43-.8-2.85-1.66-4.27-2.52a4.92,4.92,0,0,0-1.38-.11,15.54,15.54,0,0,1-3.47,1.26,8.38,8.38,0,0,1-6.31-.93,10.54,10.54,0,0,1-2.7-2.35v0c-1.05.09-2.09.15-3.12.17a40.49,40.49,0,0,1-9.78-.95,41.64,41.64,0,0,1-5.87-1.75,46.64,46.64,0,0,1-6.83-3.23,53.16,53.16,0,0,1-4.49-2.88l-4.77-5.62c-2.64,1.23-2.37,4.12-4,5.76l-1.4-.74-.12-.06-.42-.46a7.08,7.08,0,0,0-1.15-.94c-3-2-6.69-1-10-1.07-73.78-1.14-147.58.89-221.33-.86-76.11-1.81-152.21-1-228.31-1.39-36.73-.2-73.47-.06-110.2-.13-3.4,0-6.75.76-10.13.78a19.27,19.27,0,0,1-3-.22c-2.23-1.15-2.3-4.54-5.62-5.21-.9,3.48-1.79,6.88-2.67,10.28a36.44,36.44,0,0,0-3.29-1.57c-11.57-4.87-24-3.54-36.13-3.61-9.31-.07-18.62,0-27.93-.06V323.32c17.72,0,35.45-.3,53.17-.32,14.44,0,28.87.14,43.28.69l6.72.28c16,.72,31.91,1.66,47.8.82,3.46-.18,6.91-.34,10.37-.48,12.08-.48,24.15-.74,36.23-1.11a157.21,157.21,0,0,1,19.42,1,167,167,0,0,0,17.48,1c5.73-.05,11.42-.62,17.11-1.17,7.16-.68,14.32-1.31,21.55-.81,16.68,1.17,33.4-.37,50.06.15q23.73.74,47.48,1.13,29.79.51,59.6.62c31.23.14,62.47,0,93.7-.07q28-.09,56-.17h.05q31.95,0,63.88.14c48.7.34,97.4-.75,146.08.3,20.81.45,41.63-1.45,62.31,0q6.2.44,12.37.56h0c4.38.1,8.75.1,13.11,0,10.19-.13,20.35-.6,30.54-1a102.39,102.39,0,0,1,16,1.21,106.34,106.34,0,0,0,11.15,1c2.67.05,5.38.74,6.65,2.69A5.52,5.52,0,0,1,942.85,334Z" fill="#556286"/><path d="M970.43,327.28a14,14,0,0,0-2.35-1.61c-4.45-2.44-9.59-2.14-14.43-2.28-56-1.61-112.1-.91-168.16-.92-47.26,0-94.53-.81-141.77.2-31.09.66-62.08-1.55-93.14-1.19-14.09.16-28.17.77-42.25.86-33.76.23-67.54-.56-101.3-.55-40.2,0-80.37-1.69-120.58-1.21-69.54.83-139.09.14-208.64-.09-25.93-.09-51.87-.62-77.81-.69V307.9c47.73,1,95.46.26,143.19.38l20.5.05h.85q49.64.12,99.29.05,10.16,0,20.3-.07c45.53-.23,91.05.83,136.58,1.18,26,.2,51.93.06,77.9-.16l2.21,0,2.43,0q21.36-.18,42.71-.13c22.17,0,44.35.19,66.52.37,42.09.36,84.19.81,126.29.65q42.66-.17,85.32-.13h.33q22,0,44,0,20.61,0,41.2,0c8.54,0,17.07.45,25.6.78,1.85.08,3.7.15,5.55.2,5.72.17,11.44.23,17.16,0,2.38-.1,4.77-.26,7.15-.47,3.54-.32,5.92,2.25,9,3.11.2.2.39.41.6.61h0l1.41,1.45C980.32,322.52,977.4,325.87,970.43,327.28Z" fill="#4f5c7e"/><path d="M970.43,327.28h0l-1.81,2.16a39.38,39.38,0,0,1-3.84,1.08,45.37,45.37,0,0,1-22.54-.65c-.42-.1-.85-.22-1.27-.34-11.66-3.33-23.82-2.72-35.8-2.6-16.37.16-32.73.14-49.1.15-60.19.05-120.37-.73-180.55-.21-31.68.27-63.35-.31-95-.79-39.6-.59-79.21.78-118.82.83-21.72,0-43.44-1.91-65.14-.86-26.72,1.29-53.34-1.79-80-1-14.4.41-28.81.72-43.22.85-3.88,0-7.77.07-11.65.07q-16.94.06-33.84-.33c-36.73-.87-73.39,1.06-110.08.32-39.23-.8-78.45-2-117.7-1.79v-7c68,0,135.94-.33,203.91.26,19.54.17,39.26.94,58.67.67,26.09-.36,52.29-1.61,78.33-.64,84,3.16,168,.65,252.07,1.41,47.22.43,94.44.08,141.66.08,62.51,0,125-.45,187.51.34,13.89.18,28-1.2,41.84,1.29,3,.55,5.11,1.59,6,3.83A7.83,7.83,0,0,1,970.43,327.28Z" fill="#536083"/><path d="M503,139.09c-1.47,6.35-5.68,11.79-6.78,18.26a.06.06,0,0,0,0,0,17.76,17.76,0,0,0-.26,2.85,203.7,203.7,0,0,0-7.23,33.33,24.52,24.52,0,0,1-4.37,11.63l-.06.08c-3.95,5.14-10.29,7.37-18.89,7.06q-6.39-.22-12.79-.37h-.07c-8.89-.21-17.79-.26-26.7-.09h0c-2,0-4.07.07-6.11.13-15.21.44-30.42.27-45.63-.08h0c-14.61-.32-29.22-.79-43.82-1H330c-1.23,0-2.45,0-3.68-.06-11-.14-22.17.3-33.28.82h0l-4.39.21c-9.88.47-19.82.31-29.76.05h-.18c-6.41-.16-12.81-.35-19.21-.44-20.31-.29-40.63-.46-60.95,0h-.15l-5,.14c-3.94.12-7.56.13-10.92-2.07l-1.81-.06c-2.51.54-5,1-7.53,1.29h0a63,63,0,0,1-7.51.5h-.07c-1.45,0-2.9,0-4.35-.17H141a47.83,47.83,0,0,1-7.31-1.15c-4.13-1-8.21,0-12.39.81h0a33.71,33.71,0,0,1-7.38.8q-11.82-.34-23.64-.6h-.08q-45.1-1-90.22-.58V199c21.51-.14,43-.51,64.52.21C95.29,200.25,126,198,156.75,199c5.57.17,11.14.35,16.36-2.42,1.42-.75,3.8-1.15,5.06-.46,9.45,5.14,19.64,2.93,29.42,2.72,24.28-.52,48.74,3.39,72.77-.21,19.68-3,38.43,3.42,57.73,2.22,9.34-.58,18.81.77,28-1.75,9.77-2.68,19.09,1.78,28.71,1.72,22.63-.13,45.25,0,67.88,0,13.05,0,18.89-4.53,22.57-17.29,3.5-12.11,6.26-24.47,11.73-35.93C498.5,144.44,499.58,140.93,503,139.09Z" fill="#2c3d55"/><path d="M497.8,212c-.59,11.61-7.67,20.18-19.48,20.28-14,.12-28.14,1.58-42.13-1.31-8.52-1.77-16.84,1.66-25.37,1.59-28.48-.21-57,1.27-85.42-.47-26.31-1.61-52.73,1.58-78.76-1.77-21.57-2.77-42.66,1.68-64,.6-28-1.41-56.06-1.52-84.1-1.92-23.74-.34-47.4,2.34-71.19,2-9.14-.15-18.22-1-27.31-1.57v-5.71c44.41,0,88.81.12,133.22-.08,20.83-.1,41.54,3.05,62.39,1.86,12.57-.73,25.2-2.2,37.72-1.63,79.52,3.64,159.08.58,238.61,1.56,17.59.22,22-4.66,22.32-22.42.16-7.79-1.92-15.81,1.66-23.38a91.59,91.59,0,0,0,.83,15.26v0C497.39,200.59,498.1,206.27,497.8,212Z" fill="#31415b"/><path d="M965.47,340a5.5,5.5,0,0,1-.71,3.89c-1,1.52-2.9,2.14-4.73,2.65a19.82,19.82,0,0,0-3,1,4.54,4.54,0,0,1-4.24.07h0c-2.12-1.07-3.67-3.73-5.27-5.72-.11-3.37-3.56-4.08-5.06-6.34a8.93,8.93,0,0,0-.41-1.44h0a6.27,6.27,0,0,0-6.43-4.25c-12.56.58-24.79-2.59-37.65-1.31-12.22,1.21-25,2.64-37.48,0a44.47,44.47,0,0,0-10.5-.75c-56,1.93-111.9-.48-167.86-.2-106.52.52-213.06.27-319.59,0-13.44,0-26.87-2.41-40.37-1.58-16,1-31.93,1.6-47.89,0-.34,0-.67-.07-1-.09a73.07,73.07,0,0,0-11.65.07c-7.18.53-14.33,1.69-21.54,1.95-14.73.53-29.25-1.76-43.9-2.06-23.21-.47-46.26,3.06-69.47,1.92C84.5,325.66,42.25,326,0,326v-3.6c12.42-.11,24.84-.28,37.23.14q8,.27,15.94.49,25,.69,50,1,29.08.36,58.17.34,27.82,0,55.65-.1l34.59-.13c37.28-.11,74.56-.12,111.83.46q3.63.06,7.26,0c17.75-.15,35.48-1.63,53.26.08,2.11.2,4.23.38,6.34.54,26,1.94,52.1.63,78.14.7,5.2,0,10.38-.36,15.56-.77a202.25,202.25,0,0,1,21.33-1q17.36.48,34.72.81h.05c94.87,1.86,189.76.85,284.64,1h0q6.56,0,13.11,0,23.29.06,46.58.26l4,0c12.37.12,25,0,37.38,2.57.92.19,1.84.4,2.75.62Z" fill="#546184"/><path d="M66.22,353.48c.24.62,3.39,7.17-3.95,4.48-2.68-1-1.22,6.36-5.11,8.77-3.84-5.57-2.69-13.19-7.2-19.26-7.05,8-8.53,20-20.71,23.15-1.67-1.66-.09-6.75-4.14-9.5-2.79,4.51-1.79,10.43-6.08,15.57-1.13-3.22-2.13-5.67-2.86-8.2-1-3.27-1.3-8.65-4.23-8.65-4,0-9.76,1.25-9,8.14.11,1-.86,2.12-1.63,3.85-.43-.9-.85-1.77-1.27-2.66V333c16,0,32.06.06,48.09-.09,5.37-.05,10.22,1.55,15.29,2.74a5.81,5.81,0,0,1,2.47,1.11c1.58,1.3,1.28,3.28,1.5,5.31C67.12,345.86,64.68,349.36,66.22,353.48Z" fill="#5a678c"/><path d="M974,313.62a22.62,22.62,0,0,0-6.08-.72c-4.68,0-9.35,1-14,.73-45.77-2.78-91.62-2.49-137.39-1.36-21.59.53-43.2-2.71-64.83.83-6.34,1-13.28-1.31-20.07-1.31-124.92.09-249.85.42-374.77-.25-23.43-.13-46.91-1.43-70.38-1.44q-143.23,0-286.45,0v-2.91a24.49,24.49,0,0,0,4.15.4c37.9-.25,75.81-.13,113.72-.13q92.58,0,185.14,0c38.18,0,76.39.22,114.53,1.19,59.34,1.5,118.59-3.22,177.89-1.15,111,3.88,222,.44,333,2,14,.19,28-.28,42,.64C971.65,311.27,972.83,312.44,974,313.62Z" fill="#4d5b7d"/><path d="M970.47,310.09c-11.76.49-23.53.68-35.29.7-22.27,0-44.53-.49-66.8-.75-10-.12-19.92-.18-29.88-.1l-14.08.11h-.33c-66.64.48-133.28.72-199.91-.29q-5.85-.09-11.7-.23c-29.87-.67-59.75-2-89.57-1q-12.15.42-24.3.76-30.58.85-61.17,1.07-32.61.21-65.19-.54-15.11-.36-30.2-.63h-.83q-38.7-.68-77.39-.84-49.65-.25-99.29-.05h-.85c-54.57.12-109.13.38-163.69.07v-3.07c79.32,3.16,158.67.45,238,1.14,54.94.48,109.89.34,164.83,0,18.22-.13,36.26,3,54.49,1.92,42.52-2.46,85.12-2.72,127.64-1.59,125.41,3.32,250.82.57,376.22,1.58C964.36,308.37,967.71,307.77,970.47,310.09Z" fill="#4d5b7c"/><path d="M160.68,209.55c-7.07,7.88-15.84,5.74-24.48,4.09-2-.37-4.15-2.31-5.67-1.81-22.24,7.29-44.69,1.06-67,1.25-21.18.18-42.35.09-63.52.06v-5.3H106.65c14.91,0,29.82,0,44.73,0,2.5,0,5.09-.36,7.44.59A6.9,6.9,0,0,1,160.68,209.55Z" fill="#2c3d56"/><path d="M1080,297.57v12c-2.5,7.12-4.25,13.67-3.36,21.1-4-.15-4-3.61-5.12-5.92s-.54-5.31-3.37-7.4c-3.2,2.89-3.73,6.77-3.75,10.76,0,1.84.1,3.76-2.09,4.16-3,.54-3-1.94-3.49-3.9-2.41-9-4.9-17.9-7.36-26.86a6,6,0,0,1,.51-.77c1.85-2.54,4.64-3,7.71-3,3.77.06,7.54,0,11.31,0S1077.71,297.75,1080,297.57Z" fill="#4b5979"/><path d="M9,183.16a17.9,17.9,0,0,1-3.27,1.14h0A25.3,25.3,0,0,1,0,185v-4.94A23.9,23.9,0,0,1,9,183.16Z" fill="#273850"/><path d="M1075.58,163.91a25,25,0,0,0,4.42-.29v26.46a38.5,38.5,0,0,1-4.71.18c-37.15-.68-74.3-1.4-111.46-1.75-26.61-.26-53.22-.25-79.81,1.6-7.55.53-15.17.46-22.72-1.38-6.84-1.68-13.26,1-19.61,3.24-14.34-4.49-29.06-2.69-43.62-2.25-17.29.51-34.56,0-51.83.12-11,.06-22.11-.7-33.15-1a208.34,208.34,0,0,0-23.58.37q-3.1.24-6.2.65c-11,1.43-17.16-2.73-22.31-11-.93-1.5-1.86-3-2.78-4.48-4.77-10.72-8.72-21.9-14.48-32-13.37-23.57-31.59-41.47-59.71-46.44a57.83,57.83,0,0,0-6.65-.75c-7.15-.41-14.33.23-21.48-.1,3.85-2.89,8.33-1.74,12.52-1.66A26,26,0,0,0,581,90.48c.47-.24.93-.49,1.39-.76,3.64-2.16,7.2-1.3,11-.2,23.1,6.65,40.16,21.08,53.54,40.56,6.63,9.65,12.68,19.75,20.88,28.24,2.48,2.57,5.21,5.17,9.17,4.05,11.91-3.38,23.77-1,35.76-.61,40.3,1.21,80.64,1.7,121,1.89,20.69.09,41.42-2,62.07-1.34,17.75.57,35.51.12,53.29,1.11s35.83-1.78,53.7-1.18C1027,163.06,1051.3,163.56,1075.58,163.91Z" fill="#273850"/><path d="M663.49,613.27c-10.44,1.37-21,.3-31,6.08-6.46,3.71-15.82-.53-23.26,2.56-3.62,1.5-6.35,2.21-10.9-2.87,1.62,5.3-.9,10.31,5.51,7.59,3.05-1.29,5.06-.08,6.92,2.09-6,5.75-13.06,3.36-19.72,2-2-.4-4-2.22-6.34-2.33A39.31,39.31,0,0,0,567,631.54a5.52,5.52,0,0,1-2.33.79c-5.2-.58-10.39-1.17-15.54.25-8.92,1.08-14.86-7.64-23.6-7.16a1.93,1.93,0,0,1,1.85-2.27,6.88,6.88,0,0,0-4.37,2.14c-12.18,3.23-23.46,2.56-34.12-5.47-5.67-4.27-13.29-4-20.3-4.83a194.39,194.39,0,0,1-29-5.59c18.87-6.91,38.76-1.12,59.11-5.81-11.29-.94-21.3-2.33-31.32-2.49-13.63-.22-27.16-1.54-40.86,2.62-8.53,2.6-17.74-2.22-26.35-5-1.87-.6-4-2.22-3.41-4.54.64-2.59,3.34-2.06,5.25-1.93,11.68.77,22.95-3.08,34.6-2.73-17.27-.11-34.53-2.48-51.74.4a18.69,18.69,0,0,1-3.5.33c-1.73,0-4,.1-4.31-2.07-.43-3.08,2.29-2.77,4.23-3,1.42-.18,2.86-.18,5.55-.33-6.85-3.52-12.67-5.54-19.25-5.18a9.54,9.54,0,0,1-5.75-1.59c-1.71-1.27-4.34-2.91-3.39-5.54.84-2.36,3.57-1.48,5.5-1.48,17.64-.09,35.28-.05,52.92-.13,3.46,0,7.12.75,10.21-1.67,5.83-4.5,12.58-3.25,19.14-2.95a4.5,4.5,0,0,1,3,1.8c3.64,4.38,7.25,7,13.9,7.35a39.29,39.29,0,0,1,22.32,8.13c7.61,5.58,18.45,5.72,28,6A91.89,91.89,0,0,1,534,592.82c1.25.12,2.5.21,3.76.28,5.7,1.83,11,7.33,17.51,1.9,2.77,0,5.53-.69,8.3,0,3.44,2.19,9.12.07,10.84,5.58-.84,6.33-6,6.08-10,5.43-5-.81-10-.22-14.4-.65,4,.6,8.71-1,13.17.88-3.34,5.07,3.06,3.1,3.79,5.24a2.87,2.87,0,0,1-1.46,3.08,10.87,10.87,0,0,1-4.2.51,12.92,12.92,0,0,0,3.34,0c3.79-1,8-.06,11.4-2.78,5.87-3.47,12.95-.29,18.88-3.46,5.71-1.83,12-.07,17.59-3,1.91-1.81,4.1-1,6.21-1.09-11.09,1.42-22.25-.07-33.35,1.26-3.88.46-7.7.69-10.29-3.12-.07-6.55,4.61-5.87,9.17-5.62-3.25-.66-6.84,0-7.65-4.33,6-6.46,13.54-2.34,20.37-3.08,4.08,3.73,8-.14,12-.28,5.9.08,11.79.06,17.51-1.59,9.23-1.36,18.5-2.18,25-10.56,4.79-6.2,12.19-4.62,18.85-4.84,5.95-.2,12.68,1.49,14.21-7.56.45-2.7,3.58-3.81,6.43-3.61,4.34.31,7.93-1.64,11.59-3.48,5.82-.55,11.68.35,17.52-.7,3.94-.7,8.62-.2,8.89,4.52s-4,7-8.54,6.65c-4.2-.35-7.39,1-8.86,2.83,6.48-5,14.71-2.63,22.88.09a4.55,4.55,0,0,1,3.31,3.77c.17,2.08-1.57,2.81-3.2,3.62-9.19,4.55-18.63,7.62-29.14,5.16,3.57.39,7.09.21,10.58.43,4.56.3,7.93,2.67,9,7.08,1.19,4.91-2,8-6.12,9.31-13,4.31-26.21,8.18-39.87,9.91C673.71,611.24,668.44,611.3,663.49,613.27Z" fill="#1c253c"/><path d="M663.49,613.27c9.9-7.22,22.5-5.73,33.3-10.3,6.42-2.72,13.58-3.62,20.36-5.53,2.43-.69,5.73-1.26,5.5-4.64-.19-2.95-3.18-4.57-5.56-5-4.56-.82-9.3-.71-14-.92-2-.09-4.13.15-6.16-.08s-5.47,1-5.37-2.57c.07-2.4,2.93-2.48,5-2.56,2.94-.11,6-.58,8.79,0C716,583.88,724.9,578,734.56,575c-7.22-.5-14-6.75-21.89-.22-4.08,3.37-6.89-3.53-11.09-2.86l25.3-9.12-.09-2.36H702.24c-3.7,2.51-7.87,1.79-11.89,1.5-3-.21-5-2.1-4.58-5.23.37-2.94,2.79-3.49,5.31-3,5.44,1.08,10.92.11,15.18.5-2.89,0-7,.16-11,0-5-.25-5.45-2.47-2.24-6,8.78-2.74,17.41.47,26.1.62,9.45-.18,18.92,1.11,28.37-.18-8.55.61-8.55.61-12-2.39,1.72-2.86,4.66-2.41,7.32-2.69,2.24-.3,4.49-1.32,6.72-.87,5.66,1.14,8.15-2,9.68-6.68a6.88,6.88,0,0,1,2.53-1.17c11.35-3.1,22.56,2.18,33.86.5,12.44,2,24.28,1.49,33.14-8.27-5.39-.32-11.55.5-17.68-.27-2.35-1-5.15-.2-7.36-1.78-3.69-5.11.88-7.56,4-8.08,6.84-1.16,10.14-6,14-10.6,4.78-.68,10.12,0,12.94-5.42,3.26-1.6,6.35-2,8.91,1.29,1.91,3.32,5.09,3.54,8.42,3.51,3.81,0,7.64-.24,11.43.07,5,.4,11.66-1.32,13.15,5.55a16.34,16.34,0,0,1-10.31,18.78C854.51,534.31,845,543.41,832,544.6c-9.46.87-17.14,8.93-27.36,7-2.35-2.11-4.7-2.76-7,0-13.17,4.24-26.76-1.28-40,1.7-3.32.74-7.12-.38-9.64,3.1,1.39,3.46,4.55,1.53,6.77,2.32,4.16,1.5,10.87-1.67,11.3,7.23.11,2.12,6.71,4.65,11.47,3.9s9.69-1.56,15.8,1.34c-13.74,4.63-28.19-3.19-39.66,6.27.65,4.27,5.68.63,6.77,4.45-6.36,2.81-12.52.9-18.78,0-3.59-.52-7.74-1.65-10.72,1.81-1.35,1.56-.82,3.33.65,4.67,3.68,3.34,6.9,0,10.46-.43,9.89-1.28,18.94,3.68,29.29,4.43-2.84,3.73-5.94,3.08-8.77,3.28-4.92.34-9.9-1.37-12.74,5.86-1.51,3.86-8.1,3.21-13,2-2.23-.55-8.91-3.7-4.29,4.09.91,1.53-1,2.56-2.39,3a15.84,15.84,0,0,1-5.15.88C704.42,610.33,684,614,663.49,613.27Z" fill="#131931"/><path d="M310.71,454.62c-.36-1.37-.35-3-1.12-4.06-5.67-7.78-5.26-9.35,4.14-11.12,4.18-.78,8.57-.45,12.87-.63,5.06,4.76,11.89,6.12,17.75,9.33,4.18,2.3,12.67,3.93,3.48,11.17-1.39,1.09.27,6,2,7.18,9.63,6.94,19.86,12.65,32.52,8.91,4.31.35,8.87-.53,12.7,2.31,1.45,1.07,2.7,2.56,2.29,4.43-.45,2-2.37,2.37-4.18,2.41-6.92.16-13.85,0-18.38.06,9.83,1.09,21.93-1.1,34.12-1.23,8.94,1.1,18-.61,26.88,1.09a5,5,0,0,1,2.36,2.23c-1.37,5.33-5.7,5.19-9.68,4.76a59,59,0,0,0-14.6-.24c-8.81-.08-17.39,2.81-26.24,2-5.66.36-11.29,1.59-17,.77-2.45-.5-4.12-2.54-6.46-3.31a2,2,0,0,0-.77-.25c-.67-.09-.67.22.11.75,7.75,7,10.68,17.55,18.74,24.45,3.11,2.67,6.55,7,4.46,12.37-12.19,8.48-24.49,5.38-37.19,1-7.71-2.65-14.72-6.46-22-10-6.75-3.26-7.84-7.26-1.59-11.15,4.74-3,4.67-7.75,7.49-12a32.12,32.12,0,0,1-16.11.52c-2.69-.56-8.3-1.51-3.07-6.56l15.84-.05a5.21,5.21,0,0,1,3.8-1.54,6.82,6.82,0,0,1-3.84-1.88l-8.71-.11c-.32-7.14,5.24-6.09,8.34-6.93a13.11,13.11,0,0,1-8-2.49c-6.68-5.28-14.5-8.52-21.88-12.54-2.83-1.53-6.17-3.62-5-7.25,1-3.11,4.58-1.35,7-1.54a59,59,0,0,1,8.72,0c.22,0,.46-.27.69-.41Z" fill="#222b45"/><path d="M283.81,546.66l-47.05-4.8c.39-3.8,2.84-4.19,4.61-4.06,19.42,1.43,38.43-2.93,57.68-3.83,5.46-.25,10.39,1.6,15.37,3.37,1.87.67,4.42,1.17,3.72,3.94-.57,2.26-2.93,2.94-4.95,2.94-2.59,0-5.17-.75-7.78-1-5.69-.51-11.56-1.57-16.37,3.51,11.17,6.66,11.23,10.16-.11,18,5.34,1.45,9.58,1.66,13.27-2.08,3.43-3.47,7.42-5.23,13.69-5.11-3.62,5-6.46,8.79-7.5,14-.86,4.35-16.72,6.1-20.69,2.33-4.31-4.09-9.18-5-14.57-4.6-15,1.11-29.79-2.26-44.76-1.88-3.23.09-7.14-.09-6.9-4.67.21-3.86,3.76-4,6.73-4,6.7-.08,13.41,0,22.31,0-6-4.76-10.95-5.21-16-5.29-7.34-.11-14.68,0-22-.16-4.76-.11-7.74-2.49-8-7.5-.32-5.59,4.14-5.89,7.75-6.24a54.92,54.92,0,0,1,11.36.58,9.13,9.13,0,0,1,3.74,1.72c-4.07,12.15,7.63,7,10,7.18,14.59,1.13,29.3.64,44,.6C282.35,549.58,283.65,549.17,283.81,546.66Z" fill="#040b19"/><path d="M535,595.55c-13.89-3.26-28.39-1.23-42.28-5-5.69-1.54-11.71-1.64-14.61-8a4,4,0,0,0-4.25-2.56c-10.17,1.6-19.3-4.35-29.33-3.87-3,.14-8.12,1.15-8.12-2.73,0-4.31,5.12-1.57,7.87-2.4a3.38,3.38,0,0,0,2.59-1.75H427.08l-5.22-.06c-1.36-2.12,2-6.15-3.22-7-1.45-.24,0-3.11,1.27-4.25a15,15,0,0,1,12-3.91c5.43.53,11.1,1.08,15.79-2.94,4.47-2,9.23-1.79,13.81-1.06,4,.64,8.65,1.45,4.63,7.79-2.7,4.26,1.88,4.79,4.31,5.3,5.45,1.14,11.07.58,16.62.58s10.54,1.89,15.73,4.31a52.26,52.26,0,0,0,34,3.63,33.83,33.83,0,0,0,11.44-.43,7.94,7.94,0,0,1,5.28.51c1.56.78,2.71,2.14,4.3,2.9,2.46,1.17,6.74.36,6.91,4,.19,4.32-4.39,4.64-7.27,6.26-4,.55-8.07-.44-12,.88-4.4,1.58-9.13.63-12.25,1.73,3.48-1,8.61-.13,13.33-2.08,4.74-.31,9.47-1.06,14.13.5,2.18,6.61-4.16,4.48-6.55,6.4C548.22,596.23,540.93,591.85,535,595.55Z" fill="#2a3450"/><path d="M314.22,489.93c-.56,5.56,3.74,3.17,6,3.4,6.59.69,13.5-1.27,20.21,2.58-2.82,1.55-7.44.89-4.85,6.78,1.63,3.7-3.43,6-6.53,8-1.55,1-4.8-.14-4.63,2.81.15,2.49,2.79,2.53,4.83,2.8,7.85,1,13,10.28,22.17,7.3,5.16,8.95,14.14,5.73,21.77,6.84,5,.73,8.55-3.81,13.39-3.58,1.74-2.79,4.48-3.66,7.51-3.59,9.33.21,18.55-1.38,27.85-1.64,9.36.35,19-2.37,27.87,2.91.81,4.32-2.2,4-4.77,3.64-5.55-.74-11.12-.06-16.66-.45,5.43.46,11-.59,16.59.73-1.2,5.15-4.78,5.59-8.25,5.66-16.38.32-32.75.34-49.1,1.87-6.67.63-13.08-2.94-19.94-2.07-3.17.41-6.48-.2-9.33,1.78-10.07-.23-20.29,1.41-29.18-6.14-2.52-2.13-7.86-.94-12-2.3l13-.71c-4.42-7.25-10.95-5.57-15.92-4.21-7.28,2-10.5-2.86-14.07-6.59-3.19-3.33.4-4.44,3.18-4.56,4.93-.21,9.87-.06,14.82-1.9-10.6,0-21.19.06-31.79-.05-2.16,0-5.5,1-6-2.06s3-3.06,5.07-3.82c4.59-1.65,9.16-.95,13.86,0,7.2,1.42,14.47.75,21.75-.8-11.4-3.76-23.54-.39-37.58-3.57,8.79-3.64,16.71.05,24.94-6H284.17c0-.87,0-1.73,0-2.6C294,487,304,487.17,314.22,489.93Z" fill="#162137"/><path d="M538,574.64c-10.63,6.05-23,3.38-31.3-1.09-12.7-6.87-25.2-5-37.88-6.48-2.17-.25-4.29-1.79-6.21-3.08-2.59-1.74-6.54-3.35-5.73-6.92s5.28-.82,9.24-3.66H448.24c-5.81,2.26-11.14,3-17-1.06-5.45-3.85-12.44-1.56-18.72-2.29-4-.47-9.23,1-10-5.44,1.66-.84,4.62,1.88,5.22-1.89-1.46-6.78,3.54-6.78,7.78-7.12,12.84-1,25.48,1.88,38.25,2.15,13.31,8.37,28.47,11.59,43.43,15.34,4.65,1.17,9.14,2.25,11.47,7,3.47,3.36,7.47.35,11.17.82,5-1.28,9.88-2,14.64.71,4.51,2,9.31,1.26,14,1.45,6.45,1.13,12.38,4.12,18.82,5.34A12.76,12.76,0,0,1,570,569c3.29,2.54,10.29-1.59,10.78,6a5.36,5.36,0,0,1-3.71,2c-8.49-.28-17.4,2-24.88-4.23l-3.11,1.83A9.2,9.2,0,0,0,538,574.64Z" fill="#333d5b"/><path d="M455.43,541.11c-13.17-.59-26.35-1.25-39.53-1.71-3.06-.11-6.73-.94-8.13,3.33l-12.42,0c-8.87-1.83-17.84-.37-26.76-.86-3-.17-6.85.78-6.7-4.34h12.75l0-1.86H358.37c2.65-4.44,7.08-3.5,11.05-3.41,24.22.61,48.26-3.63,72.51-3.5H423.05c8.82-3.57,18.31.34,27-3.61a7.5,7.5,0,0,1,4-4.43c9.05-2.51,17.92.85,26.91.87,5.47,3.91,11.61,4.72,18.18,4.49,9-.31,18,.06,27-.19a6.84,6.84,0,0,1,4.15,1.86c3.38,6.54-1.37,7-5.64,7-8.78,0-17.54.13-26.33-.56-11.66-.9-23.42.28-33.53-1.24,10.42,2.65,22.79-.91,34.72,2.48-.24,6.07-5,4.35-8.35,4.63-8.28.68-16.93-1.58-24.67,3.24C462.5,544,458.9,542.89,455.43,541.11Z" fill="#222b45"/><path d="M310.71,454.62h5.81l.07,2H296.85l-.24,1.75,43,23.07c-6.82,3.27-14-1.45-18.27,4.94H293.14c4.32-3.32,9,0,13.05-4-5.19-2.19-10.1-1-14.75-1.22-5.85-.22-11.73.13-17.57-.13-3.67-.17-9.11,2-10.6-1.5-1.84-4.24,4.3-5.2,6.8-7.63,3.5-3.41,3.17-5.18-1.19-6.75a6.28,6.28,0,0,1-.83-.29c-3.94-2.16-12.41-2.23-11.45-5.66,1.61-5.78,9.06-2,14-2.72,6.85-1,14,1.58,20.69-1.82Z" fill="#162137"/><path d="M843.47,502.26c-3,.15-6.25-.62-8.84,1.75a5.5,5.5,0,0,1-5.6,1.54c-6.4-5.76-14-4.94-21.43-3.34-4.69,1-9.27.83-13.91.77-2.75,0-5.52-.79-5.59-4.21-.06-3.2,2.61-4.24,5.18-5.09a3.54,3.54,0,0,1,1.72-.24c10.45,2,18.21-3.82,24.64-10.24,6.78-6.77,14.21-7.15,22.49-6.2,3.49.4,6.94,1.34,10.08-1.11,10.21.59,19.31,7.58,30,5.23.39,4.12-3.08,7.43-2.31,11.75.31,1.77-1.55,3.74-3.19,3.49C864.93,494.52,855.39,505.16,843.47,502.26Z" fill="#161d33"/><path d="M116.59,435.28c45.47,0,90.93-.12,136.39.07,9.92,0,19.86,1,29.74,2,2.78.28,8.65-.6,4.35,6.28-1.59,2.54.35,7.3.68,11-7.9,0-15.8,0-23.7,0-3.56,0-7.46.28-10.13-2.08-11.09-9.79-25.06-8.71-38.15-10.16-30.15-3.32-60.41-5.49-90.78-5.42C122.08,437,119.08,437.35,116.59,435.28Z" fill="#162137"/><path d="M402.55,544.62c9.11,3.92,19.69-1.35,28.12,3.47,5.76,3.29,10.76,6.57,17.57,5.32-1.9,5.07-6.35,3.35-9.85,3.38-6.18.05-12.28-.14-17.68,5l15.34.83c-3.49,6.26-11.92-.37-14.19,6.6-9.14,1.15-18-2.53-27.09-1.81-1.87.14-4.6.59-4.77-2.39-.15-2.71,1.63-4.37,4.39-4.43a106.17,106.17,0,0,0,13.89-.74c-19.31-2.15-39.14.6-57.76-8.15h29.6c-4.17-3-9.17-.54-13.86-3.3A103,103,0,0,1,402.55,544.62Z" fill="#1c253c"/><ellipse cx="969.59" cy="620.36" rx="53.34" ry="1.24" fill="#040b19"/><path d="M566.31,630.61c0-.4.05-.79.06-1.18,5.44-3,12-.26,17.4-3.41,4-.28,7-.24,10.75,3.09,4.14,3.69,10.8,2.54,16.19-.39,1.46.31,3.14,1,3.06,2.47-.1,1.82-2,1.37-3.4,1.59-5.34.85-11.56-2-15.8,3.64-8.88-.17-17.81-1-26.52,1.65-4,.66-2.33-4.63-5.31-5C562.88,630.7,566.4,633.3,566.31,630.61Z" fill="#4e5363"/><path d="M361.89,537.56c2.4,4.06,6.44,3.19,10.17,3.5,7.76.66,15.75-1.8,23.29,1.7-15.25-.61-30.7,2-46.77-2.75C353.09,535.8,357.78,538.18,361.89,537.56Z" fill="#1c253c"/><path d="M568.05,638.07c8.43-7.27,17.59-2.66,26.52-1.65C586,640.4,576.92,637.93,568.05,638.07Z" fill="#f7faf8"/><path d="M330,486.46c4,0,8,0,12,.16,1.48.05,2.95.76,2.89,2.49s-1.57,2.15-3,2.39c-4.12.68-7.95-.69-11.84-1.62C330.05,488.74,330,487.6,330,486.46Z" fill="#162137"/><path d="M599.11,644.42c6.89-1.34,13.92-2.1,20.77,1.12C612.93,648.19,606.14,643.9,599.11,644.42Z" fill="#686f7e"/><path d="M556.29,641.25h19c-9.61,3.61-19.33,2.06-29.34,2,1-2.6,3.16-1.21,4.47-1.93C552.36,640.12,554.3,639.52,556.29,641.25Z" fill="#a9acb4"/><path d="M2,424.67c5.08-2.46,10-3.4,14.11,1.76A37.91,37.91,0,0,1,2,424.67Z" fill="#162137"/><path d="M566.31,630.61c1,.34,2.88.61,2.92,1,.17,1.8-1.48.81-2.31,1a34.19,34.19,0,0,1-4.18.4l-13.61-.47C554.5,628.85,560.69,632.21,566.31,630.61Z" fill="#969dab"/><path d="M797.59,551.6c-.6-1.65-1.23-3.72.92-4.28,3.33-.87,5.28,1.12,6.13,4.27Z" fill="#161d33"/><path d="M556.29,641.25l-5.86.12c.86-3.21,2.93-4.91,6.24-4.39,1.13.18,3.43.13,3,2C559.47,640,557.47,640.52,556.29,641.25Z" fill="#6e7480"/><path d="M523,625.29c2.48-3.71,2.48-3.71,13-2.33l-10.45,2.46Z" fill="#c7cbda"/><path d="M621.43,641.05a18.14,18.14,0,0,1,13.23,0Z" fill="#6d7383"/><path d="M711.22,438.53c2.12-4.88,6.53-3.12,10-3.13q65.67-.19,131.33-.07c13.32,0,26.23-2.22,39.08-5.42,7.29-1.82,12.23-7.91,19.5-9.94,13.63-3.82,27.52-3,41.15-2,21.34,1.58,42.63,3.39,64,3.23-5.43,5.39-13,4.51-19.18,4.56-29,.19-57.38,6.33-86.1,8.51-21.8,1.65-43.47,4.55-65.25,6-11.18.73-21.9,3.73-33,4.5-2.85.2-5.79,1.43-6.66,4.88-18.89,2.6-37.18-2.31-55.68-4.53a43.58,43.58,0,0,0-7.81-.33c-8.66-1.72-17.51-1.87-26.23-3.2C714.24,441.38,712.28,440.73,711.22,438.53Z" fill="#0b1526"/><path d="M852.21,475.89c-1.4,4.25-5.05,3.1-8.12,3.41-7.59.75-14.75-1.59-21.37,7.28-5.72,7.66-16.28,13.83-28.28,10.51-1.2-.34-2.93-.26-4.12,2.25,5.73,2,11.23.42,16.8.28,7.56-.18,16.46-5.31,22.18,4.35-9.44,4.76-19.38,1.73-29.09,1.81h-1.72c2.54.18,5.18-.5,7.57.88,1.4,7.65-4.07,7.95-8.88,7.34-3.43-.44-6.76-1.4-9.69-1,2.38.25,6.42-1.53,7.23,3,.68,3.89-2.87,4.59-5.76,5-8.22,1.23-16.47,2.87-24.72,0-2.33-4.2-6.34-4.7-10.54-4.75-6.46-.08-12.93.26-19.37-.69-7.56-.19-14.63,3.87-22.31,2.45-5.29-2.11-11,.76-16.28-1.32-2.64-1-6.17-1.84-5.45-5.42.6-2.94,3.9-2.94,6.56-2.95,7.53-.05,15.06,0,22.56,0a170.52,170.52,0,0,1,31.47-.8c.82.07,2.38.52,2.37.07-.36-13.6,10-2.91,14.21-6.21.82-.65,2.55-.06,3.86-.11-2.93,0-5.87.19-8.77-.05-2.07-.16-5.28,1.42-5.77-2-.36-2.56,1.9-4.69,4.21-4.9a17.33,17.33,0,0,0,14-8.53c2.15-3.32,6.7-2.94,10.53-3.25,3.19-.25,7.14.91,9.23-4-10.79-2-21.39.7-31.62-1.81-1.94-.31-3.79-.74-5-2.45a4.39,4.39,0,0,1,.25-4.4c4.88-3.68,10.53-1.55,15.83-2,4.27-.37,8.62.39,12.82-1,8.91-1.16,17.47,2.43,26.33,2,4.23,5.89,10.89,2.52,16.25,4.16,2.71.84,5.84-.7,8.57.94Z" fill="#202943"/><path d="M787,467c-1.36,4.17-4.93,3.43-8,3.49-6.71.13-13.43.12-20.14.16-6.43,4.6-13.72,1.85-20.61,2.41a5.49,5.49,0,0,1-3.25-1c-2.45-2.35-7.93-1.76-7.93-5.78,0-4.23,5-4,8-5.31s4.55-4.11,5.31-7.42c1-4.21.84-8.63,2.51-12.69,21.18,2.29,42.42,4.22,63.27,8.85L773,461.79c-3.48,3.52-2.5,4.47,2.14,4.41,3.93,0,8-1.05,11.85.76Z" fill="#3c4769"/><path d="M838.19,474c-6.09,0-12.19-.06-18.28,0-3.62.05-6.33-.88-6.54-5.11Z" fill="#161d33"/><path d="M787,467H763.44c3.27-1.88,7.26-1.83,9.58-5.17C775.89,468.37,783.21,462.92,787,467Z" fill="#202943"/><path d="M115,371.53c-7.4,0-5.75-7.86-9.6-11.06-.4.11-1,.09-1.33.4-2.52,2.63-.15,8.51-4.87,9.12-4.45.58-6.08-3.7-7.27-7.32-1.14-3.44-5.09-3-7-3.67-4.91-1.64-5.14-4-4-7.87.12-5.43,4.25-5.7,8-5.95a734.29,734.29,0,0,1,87-.78c6.8.35,13.45-.91,20.22-.88,25.21.1,50.42.62,75.64.14,37-.69,73.92,1.73,110.9,1.7q97.77-.09,195.54,0c5.29,0,10.58,0,15.86.19,4.9.18,9.45,1.27,10.58,7.18a5,5,0,0,1-1.3,3.08v0c-6.22,5.9-13.06,8.18-21.07,3.62-3-.76-3.76,2-5.37,3.48a13.43,13.43,0,0,1-10.7,5.24c-8.71-.18-17.39,6.5-26.1.18-19.44,6.52-36.15-5.37-54.16-8.34-14.43-2.38-27.16,1.56-40.11,6.14A305.59,305.59,0,0,1,415,375.66c-7.88,1.89-15,1.82-21.47-3.61-2.14-1.43-2.31-9.41-7.06-2.12-2.63,2.92-5.86,3.15-9.58,2.67-14.73-1.89-29.28-5-44.1-6.3-3.64-.32-7.51-1.47-9.69-5.14-1.76-1.75-1.75-5.09-4.56-5.63-.54-.1-1.64,2.67-2.48,4.12-30.79,6.86-60.7,17.41-92,22.06-7.69,1.14-15.76,3.16-22.49-3.23-1.82-4.24-2.45.5-3.71.49q-12.47,8.58-24.79-1.84c-.86-1-2.11-3.55-2.84-2.49-3.17,4.59-6.31,1.68-9.53.61-5.38,5.39-12.16,3.5-18.31,2.89C133,377.22,123,378.59,115,371.53Z" fill="#616c94"/><path d="M393.52,372.05c20.74,4.05,38.79-5.38,57.23-12,15.43-5.5,30.4-6.38,46-1.3,10.81,3.5,21.82,7,33,8.56,12.57,1.8,25.28-.34,37.72-3.17,3.1-.7,6.32-.86,9.49-1.27,1,7.64-2.46,14.29-5.46,20.75-1.52,3.24-1,5,.48,7.75-5.07-2.76-10.52-4.91-12.58-11.06-.9-2.71-1.09-6.79-4.3-6.93-3.93-.16-1.93,4.89-4.56,7.35-2.61-2-5.77-3.2-7.49-6.85-.69-1.45-3.38-2.81-5.07-2.7-2.16.13-3.08,2.83-3,4.78.17,6-2.29,11.35-3.79,16.94-2.91,1-2.78,7.15-4.9,5.69-4.61-3.16-9.06-7.4-9.91-13.72-3.35,1.79-2.92,12.84-10.75,4.18-1.39-1.54-2.31,1.59-2.92,3.13-1.15,2.86-.9,6.45-4.72,8.73-1-3.52.29-7.14-1.52-10.13-1.19-2-1.84-4.85-4.52-4.88-2.36,0-2.72,2.71-3.63,4.45-1.45,2.78-2.79,5.62-4.35,8.8-5.86-5-9.09-11.06-12.61-17.79-4.12,3.22-4.16,7.9-5.79,11.72a10,10,0,0,0-1,3.36c-.16,5.21-2.8,10.29-6.55,12.13s-3.23-6-8.06-6.95c-.61,6.19-6.61,6.69-10.7,9.59S435.54,414.33,429,403c-5.55,2.49-1.76,11.53-8.85,12.76-5.5-8.39-5.22-18.9-10.11-27.53-.94-1.66-.63-4.56-3.45-4.28-2.12.21-2.1,2.48-2.42,4.2s-.14,3.91-2.77,3.45c-1.84-.32-2.86-2-3.56-3.62C395.62,382.87,397,376.82,393.52,372.05Z" fill="#2e3b5e"/><path d="M788.84,343.55c1.83-7,6.23-9.19,13.48-8.95,16.36.54,32.76.16,49.14.19,4.08,0,8.54-.52,9.6,5.17-.93,3.64-1.65,7.35-2.87,10.88-.58,1.68-.07,4.61-3,4.59s-2-3-2.76-4.6c-.44-1-.55-2.1-1.46-5.75-.31,8.82-6.42,12.14-7.43,18-7.34,5.17-14.8,8.8-23.07,1.74-1.24-4.07-6.1-6.81-3.92-12.14-3.35,4.33-7.45,7.41-9.37,12.47-1.16,3.07-5,2.44-7.74,1.25-3.43-1.51-.88-2.95.27-4.47.41-.54.25-1.5.35-2.27C789.09,359.31,797.22,345.7,788.84,343.55Z" fill="#5a668c"/><path d="M603.44,355.79c0-.51.07-1,.14-1.53,7.19-6.94,16.85-6.85,25.74-8.72,2.76-.58,5.7-.47,8.4-1.62,7.85-2.42,15.46-6.86,24.08-2.92a3,3,0,0,1-.06,1.11c.71,4.06-1.94,7.2-2.9,10.8-.3,1.13-.29,2-1.94,2.16-9,.64-11,3.8-12.58,13.23-1,5.93-.8,12.86-7.84,16.84-4.91,2.77-5.52,1.53-6.75-3.05-1.11-4.17-1.85-13.29-8.72-2.91-1.77,2.68-9.81-2.08-10.53-6.22C609.41,366.7,609.5,360,603.44,355.79Z" fill="#2d3b5e"/><path d="M714.42,352.76c9.88-.27,18.82,4.69,28.58,5.12-.74,2.49-1.38,5-2.23,7.46-1.21,3.52-3.5,6.31-7.33,6.56-6.72.43-6.73.21-10.16,6.36C717.53,370.23,719.37,360.17,714.42,352.76Z" fill="#2c3a5c"/><path d="M820.46,364.82c7.78.54,15.44-.41,23.07-1.74-.6,1.3-2.06,3-1.67,3.83,3.33,7.11-3.05,10.91-5.29,16-2.41,5.54-7.13,6.65-13.25,5.09C828.82,379.64,819.58,373,820.46,364.82Z" fill="#2d3b5d"/><path d="M670.48,342l30.09,8.64-8.36,14.53c-5-2.33-4-7.36-5.36-11.21-.59-1.63-1.16-3.57-3.15-3.84-2.35-.32-2.45,2-3.24,3.42-1.07,2-1.46,5.17-4.35,4.7-3.28-.53-3.14-3.54-2.86-6.28C673.62,348.28,671.86,345.17,670.48,342Z" fill="#2c3a5c"/><path d="M749.77,359.64c9.85,2.65,19.71,5.22,29.86,6.48-4.86,1.84-8.42,4.84-10.29,9.95-2.51,6.82-5.55,2.72-7.81-.18-1.7-2.2-.42-8.44-6.37-3.57-1.07.87-2.39-2-3.16-3.49A19.83,19.83,0,0,1,749.77,359.64Z" fill="#2d3a5c"/><path d="M582.38,359.43l21.07-3.62c-2.27,8.07-7.64,15-8.82,24.6C586.62,375.06,588.58,364.73,582.38,359.43Z" fill="#2c3a5b"/><path d="M947.53,341.83c6.44,3.84,12.73,6.28,17.94-1.85a53.1,53.1,0,0,1-3.86,14c-1.73,3.75-.94,8.65-1.36,14.33C952.67,360.22,950.5,350.82,947.53,341.83Z" fill="#2c3958"/><path d="M924.57,350.68c4.55-1.69,9.73-1,14-3.71.31,6.37-6.4,11.54-2.22,18.64C927.65,363.53,923.3,359.17,924.57,350.68Z" fill="#293756"/><path d="M700.56,350.63c4.24.15,8.61-.45,12.48,2-.26.83-.25,2-.8,2.42-3.6,2.69-.86,8.79-5.83,10.65C704.57,360.65,698.46,357.23,700.56,350.63Z" fill="#2b3959"/><path d="M873.43,359.55c1.89-2,4.5-1.69,6.89-2.06a8.65,8.65,0,0,1-.06,2.6c-.88,2.56-.3,7-3.9,6.74S873.81,362.29,873.43,359.55Z" fill="#2a3655"/><path d="M995,326c4,.54,5.25-2.5,6.83-5.14.06,3.11,1.2,6.89-2.15,8.6C998.11,330.23,995.52,328.61,995,326Z" fill="#445373"/><path d="M887.27,347.19l6.36,2-1.35,6.47C889,353.17,888.32,350.06,887.27,347.19Z" fill="#4f5c7e"/><path d="M457.18,437.2l31.7-.05c1.91,1.65,2.41,3.87,2.67,6.26,1.62,14.74,10.59,24.29,22.82,31.12,9.66,5.4,19.76,9.94,30.75,12.21,5.84,1.2,10.7,4.47,15.07,8.45,2.49,1.36,6,.75,7.61,3.82a4.82,4.82,0,0,1-.3,4.76,3.23,3.23,0,0,1-1.81,1c3-1.31,6.72-1.81,9.89-3.78,3.51-1.89,6.7-4.73,11.21-3.52.53.14,2.12.86,1.76-.45-2.72-10,6-7.12,10.05-8.39a13.51,13.51,0,0,0,7.4-5.28,6.27,6.27,0,0,1,2.47-1.14c3.95-.05,6.95-2.91,10.7-3.59,8.22-.33,16.43-.08,24.65-.16,4.61.33,9.34-.82,13.82,1.14,4.37,5.41.47,8.78-3.41,11.32-3.37,2.2-6.86,4.28-10.27,6.45-7.67.4-15.15,3.14-22.82,2.08-.94-.46.39.24-.73-.11-.33-.1-.09.08.79.2,2.35.31,5.26.56,5.28,3.44,0,3.2-3.06,3.92-5.65,4.41-3.15.58-6.41.31-9.54,1.12-1.86.49-4.49-.05-4.88,2.73-1,7.54-7.16,6.66-11.45,5.67-5.78-1.32-11.57-.93-17.29-1.86a52.16,52.16,0,0,0-24.53,0c-6.38.9-11.12-3.14-16.1-5.83-13.6-7.35-29.17-10.26-42.11-19-5.31-3.6-10.58-7.1-14.39-12.45-2.21-3.11-3.62-6-.67-9.36,1.61-.64,3.32-.38,4.66-.44-3.6-1-6.89,2-10.75,1.77-3.48-.22-7.12.37-9.91-2.39-2.95-2.9-6-6.09-4.64-10.62,1.46-4.85,5.94-2.1,8.69-2.87-9.41,0-9.41,0-11.06-8.6a5.81,5.81,0,0,1-1.45-2.05A5.36,5.36,0,0,1,457.18,437.2Z" fill="#7685b6"/><path d="M508.29,437.17H628.21c4.9,3.07,6.45,7.93,4.36,12.74-3.41,7.86-2.31,19.23-14.63,21-7.23-1.65-14.45-1.93-21.69.14a15.28,15.28,0,0,1-5.19.74c-3.92-.27-8.53-1.12-8.57-5.65,0-4.32,4.59-3.34,7.66-3.54,4.35-.27,8.64-1.52,12-.87a694.2,694.2,0,0,1-69.46.44c4.46,1.2,8.77-1.24,13.08.33,4.51,3.13,9.75,1.25,14.58,2.12,2.54.46,4.68,1.89,4.54,4.57-.18,3.43-3.28,1.73-5,2.23a26.93,26.93,0,0,0,5.9-.68c3.5-.78,7.17.4,7.71,3.88.61,3.93-3.09,5.32-6.52,5.47-6.74.3-13.54.52-20.21-.51a38.29,38.29,0,0,0-9.62-.14C521.6,476.71,513,465.67,506,452.92,503,447.39,502.43,441.69,508.29,437.17Z" fill="#8fa2dc"/><path d="M508.29,437.17c-3.06,11.55,2,19.78,10.84,26.45,1.64,1.24,4.32,2.46,3.87,4.4-1.18,5.12,2.06,4.44,4.91,4.34,4-.13,6.66,1.84,8.55,5.14,9.5.61,19.06.15,28.49,1.73,4,.66,7.33-1.45,11-2.13,8.11,2.1,16.39,1.14,24.6,1.35,5.68.91,12-2.2,17.05,2.7-2.05,3.65-5.52,3.53-9,3.39-4.85-1.76-9.78-.79-14.62-.18-9.52,1.2-19,.28-26.27-.56,11.61,3.93,25.59-1.84,39.38,1-.73,5.35-4.18,6.8-9.14,7.15s-4.93.77-5.41,5.54c-.28,2.71-2.78,2.72-4.61,2.91-4,.4-8.17.29-11.1,3.82-3.5.86-7,1.46-10.37-.43,0-1.65,0-3.3,0-4.95-2.22-3.34-4.57-1.79-6.93-.2-9.13-9.82-22.75-9-33.92-14.12-13-6-25-12.55-32.89-25-4.42-7-6.15-14.33-3.87-22.42Z" fill="#8494ca"/><path d="M381.26,479.31c-5.83,0-11.68.21-17.5-.06-4.15-.2-10.3,1.89-8.72-6.58.42-2.23-2.38-1.89-4-2.13-3.33-.48-6.9.94-10-1-.4-4.05,4.71-3.14,5.26-6.32-2.28-2.87-8-.24-8.93-5.56,3.5-2.72,8,0,12.26-2.27-4.57-4.68-11.12-4.54-16-7.66-3.52-2.24-7.42-3.73-7-8.89,10.6-.32,21.09-2.92,31.78-1.69,4,5.25,5.45,12.88,13.48,14.53a2.41,2.41,0,0,1,1.39,3c-3.54,6.58,2.47,2.86,4.08,3.83,5.61.59,11.33-1.83,16.86.66a7.81,7.81,0,0,1,2.65,1.14,4.48,4.48,0,0,1,1.54,3.83,4.59,4.59,0,0,1-1.17,2.37c-5,4.12-11.34,1.34-17,3.18C378.94,473,383.84,475.83,381.26,479.31Z" fill="#2f3956"/><path d="M670.53,437.16l24.69.06c7.13,11.23,2.91,17.34-13.12,19-1.16.21.74,1,.08,0-.31-.44-.16-.79.4-.69,3.53.6,8.21-2,10.38,2.39,2.92,5.9-1.52,9.8-5,13.77a7.14,7.14,0,0,1-3.77,1.29c-2.34.23-4.56-.78-6.89-.77a4.36,4.36,0,0,1,3.19,2.68,5.68,5.68,0,0,1-2.89,6.16c-7,1.45-13.92,1.54-20.74-.82-4.51-.58-7.6-3.49-6.27-7.63,1.51-4.68-2.9-12.07,5.36-13.91,7.61-1.69,10.33-7,10.89-13.9A10.5,10.5,0,0,1,670.53,437.16Z" fill="#6776a4"/><path d="M670.53,437.16c-.69,5.61.2,11.12-1.44,17-2.56,9.12-10.43,6.61-16,8.84,1,3,3.14,1.84,4.57,2.43,1,.41,2.37.91,2.64,1.69.62,1.74-.92,2.82-2.31,3-7.71.7-4.57,5.27-3.4,9.17-3.33,2-7,.6-10.45,1-5.47,0-10.93.06-16.39,0-4.67-2.47-3-6.3-.71-8.57,9.2-9.24,15.82-19.78,18.83-32.53.18-.74,1.15-1.28,1.76-1.89Z" fill="#7988bb"/><path d="M397.13,461.69l-1.74,0c-8.73-8.75-10.86-16.24-7-24.43h33.5c6.8,5.81,14.94,2.54,22.48,3.24,4.51.42,9.36-.78,12.73,3.56h0c.09,5.11-3.94,4.89-7.19,5.31-4.62.6-9.29-.08-13.94,0,1.06.49-.71-.05-.46,0,8.66,3.09,8.35,6.53-.19,8.41-4.06.89-6.91,2.25-9.23,5.4a6.91,6.91,0,0,1-2.75.93C414.62,463.42,405.47,466.89,397.13,461.69Z" fill="#4c587f"/><path d="M647.61,437.17c1.19,12.63-4.06,22.56-12.75,31.22-3.24,3.23-7.5,5.78-8.45,10.84-1.88,1.54-3.95,1-6,.53-6.88-1-13.9.18-20.77-1.31-3-.64-5.93-1.17-6.1-4.89-.17-4.07,3.13-4.32,6-4.72,6-.84,12-1.94,18-.15,8.14-3.74,13.64-20,10.68-31.51Z" fill="#8596cc"/><path d="M686.43,470.5c.4-.78.79-1.56,1.18-2.35,5.54-11.07,5.54-11.06-6.56-11.79a17.1,17.1,0,0,1-2.88-.76c16.55-2.59,16.55-2.59,17.05-18.38,5.41-.48,10.8-.77,16,1.31l5.16.5c5.29,7.12,5.26,17.75-.18,25.53a75.92,75.92,0,0,1-6.06,7.26,7.94,7.94,0,0,1-3.06,1.11C700.17,472.32,692.81,475.58,686.43,470.5Z" fill="#5c6994"/><path d="M388.42,437.24c.65,8.62,5.48,16.05,7,24.43l-19.41,0c-1.3-4.5-1.57-9.08-5.67-12.83-3.16-2.9-3.62-7.86.36-11.63Z" fill="#3b4768"/><path d="M370.67,437.18c.05,5.6,1.06,11,5.43,14.86,3.92,3.48,2.31,6.44-.12,9.6a45.94,45.94,0,0,0-7,.47c-3.12.67-6.45,1.08-7-2.77-.6-4.45,3.58-2.21,5.64-3,1-.37,2.09-.64,4.06-1.24-3.71-3.87-9.62-.5-12-5.13-2.12-4.16-1.24-8.56-1.38-12.89Z" fill="#3b4667"/><path d="M457.13,444c-8.69,0-17.38-.1-26.07.1-5.06.11-8.5-1.41-9.14-6.9l35.26,0Z" fill="#5d6b96"/><path d="M1080,200.87v15.47a41.82,41.82,0,0,1-5.62.49c-14.3.44-28.51-1.07-42.87-.52-29.54,1.14-59.2,1.34-88.72,0-19.64-.9-39.31-2.27-58.87-1.14-29.22,1.71-58.48,2.15-87.61,1.08-29.33-1.08-58.53,1.65-87.8.49-14.57-.58-29-3.7-43.8-.78-4.44.88-6.73-4-8.82-7.53-7.38-12.58-6.95-27.09-9.72-40.76-7.19-35.53-34.61-62.9-70.29-66.89C550.82,98,531.25,109,515.07,126.33c-.56.6-1.13,1.2-1.67,1.82l-.16.18c-1,1.09-1.94,2.21-2.89,3.34-2.28,2.71-4.25,5.6-7.37,7.42,10.88-19.91,26.56-34.14,49-39.44,27.17-6.42,51.36.25,71.2,19.71,14,13.77,23.09,30.79,27.85,50.11,2.14,8.71,5,17.19,11.11,24.53,4.05,4.86,7.89,7.2,14.05,6.85,15.21-.87,30.73-1.78,45.64-1,29.62,1.62,59.26-1.1,88.81,1.84,5.14.51,10.44-.88,15.67-.89,42.53-.09,85.08-.94,127.57.33q31.22.95,62.43,1.37c10,.12,19.88-.62,29.23-4.8,6.16-2.76,10.49,3.28,16.35,3.85A73.7,73.7,0,0,0,1080,200.87Z" fill="#2c3d55"/><path d="M515.32,176.22c-.92-33.73,25.91-58.13,54.16-57.58,32.07.61,55,22,56.09,58.83.91,29.59-25.62,56.82-54.68,56.82C539.36,234.28,515.31,209.15,515.32,176.22Z" fill="#4f6183"/><path d="M661.8,341l-23,5.9c-14.8-3.06-29.79-1.13-44.65-1.3-55.21-.62-110.42,0-165.63-.31-56-.28-112-2.38-168-1.58-26.41.38-52.8-.17-79.22.34-20.77.4-41.64-.16-62.46-.33-13.71-.12-27.4,2.13-41.11.1-2.21-1.81-1.5-4.49-2-6.8,3.7-4.45,8.81-4,13.81-4,104.54,0,209.11-1.5,313.61.48,82.48,1.56,164.93.21,247.39,1.31C655.22,334.87,661.07,333.37,661.8,341Z" fill="#5a678c"/><path d="M77.67,343.82c2-3.74,5.78-4.54,9.15-3.62,9.78,2.65,19.39-.21,29.06-.2,80.4.1,160.82-1.44,241.17.46,89.28,2.11,178.53.35,267.79,1.41,5.11.06,10.82-.85,13.94,5-11.75,2.37-23.09,6.72-35.2,7.36-1.08-4.44-4.36-4.69-8.19-4.72-19.35-.11-38.7-.57-58-.63-36.73-.11-73.45,0-110.18,0-35.72,0-71.48,1-107.13-.49-19.07-.82-38.14-1.67-57.14-1.05-40.75,1.32-81.49-1.94-122.19,0-17.48.85-35-1.85-52.43,1.46-2.59.49-5.29.22-7.33,2.32A7.75,7.75,0,0,1,77.67,343.82Z" fill="#5c688e"/><path d="M201.56,378.48c24.26,2.19,46.8-6,69.75-11.59,14.72-3.62,29.07-9.51,44.74-7.24-.62,2.21-1.25,4.42-1.86,6.62-2.6-.25-1.93-4.3-4.7-3.47-2,.6-1.93,2.63-2.32,4.34-1,4.53-2.2,9-3.31,13.54-.54,2.21-.3,5.47-3.19,5.58-3.21.12-2-3.68-3.22-5.47a47.37,47.37,0,0,1-2.44-4.41c-2.51,3.42-4.47,6.49-6.85,9.19-1.72,2-.84,8-6.79,4.39-1.2-.73-1.68,3.15-2.53,4.89-3,6.32.3,14-4.93,21.67-1.55-10.83-12.27-14.95-12.92-25a3.21,3.21,0,0,0-2.29-2.14c-.73,0-1.7,1.27-2.23,2.18a9,9,0,0,0-.44,2.57c-.91,4.41,0,10.51-6.17,11.18-5.44.59-4.1-6.27-7.16-8.71-6.29,7.43-6.29,7.43-13.39-5.33-2.74.33-3.35,2.84-3,4.52,1.59,8.74-7.05,9.85-10.81,14.45-1.9,2.33-3.13-1.17-3.76-2.94C208.27,397.74,204.93,388.1,201.56,378.48Z" fill="#2e3b5e"/><path d="M323.09,361.16q28.2,4.06,56.4,8.12c2.31.33,4.64.44,7,.65,1.15,10-5.76,17.53-8.12,26.47-.84,3.2-3.22,3.21-4.76.07a49.39,49.39,0,0,1-2-5.65c-9.65,1.48-9.75,10.81-13.35,17.2-8.26-7-10.77-16.34-14.38-24.93-1.55.73-2.2.84-2.53,1.22-2.8,3.27-.73,10.56-5.65,10.81-6.23.33-1.93-6.47-3.84-9.91C327.67,377.81,323.06,370.21,323.09,361.16Z" fill="#2d3b5e"/><path d="M115,371.53c15.18,1.74,30.26,4.71,45.66,3.72-.88,2.78-1.65,5.59-2.67,8.31-1.12,3-2.6,5.4-6.3,6.11-5,1-2.9-3.31-4-5-4.7-7.15-6.8,5.29-10.92,1.31-3.61,8.14-4.57,2.2-6.08-1.13-.7-1.54-1.54-3-2.23-4.37-4.19.39-1.81,6.47-5.54,5.95s-4.23-4.41-5.31-7.41C116.72,376.51,115.89,374,115,371.53Z" fill="#2d3b5d"/><path d="M173.06,377.13c8.14,2.31,16.5,1.61,24.79,1.84,0,7.84-4,15.19-2.7,23.28a4.71,4.71,0,0,1-3.81,5.25c-2.06.31-4.78-.41-5.2-2.45C184,394.67,172.54,388.68,173.06,377.13Z" fill="#2d3b5d"/><path d="M488.86,155c-.64,6.53-2.92,12.6-5.76,18.39-4.28,8.73-10.37,14-21.33,13.56-18.78-.78-37.61-.13-56.42-.24-13.52-.09-26.85,1.93-40.26,3-6.91.55-14-1-21-1.14-13.81-.21-27.64-.36-41.44,0-21.45.57-42.79-3.49-64.19-1.71-19.94,1.65-39.69.37-59.47-1.7-5.29-.56-10.88-4.66-15.4,2.11-.72,1.08-3.91.91-5.89.7-37.84-4-75.62,2.41-113.44.57-10.82-.53-21.15-3.69-31.76-5.33,5.36-5.33,12.26-4,18.42-3.27,20,2.31,40.24,1.44,60.19.88,19.34-.55,38.73-1.37,58-.79,10.65.32,21.13-1,31.8-.62,94.25,3.67,188.56,1.52,282.85,2,12,.07,15.62-9.88,20.59-18C486.07,160.73,486.23,157.18,488.86,155Z" fill="#273850"/><path d="M658.22,174.35c1.54,1.72,3.19,3.35,4.59,5.18,5.17,6.76,10.81,9.86,20.29,8,9.87-2,20.47-1.55,30.62-.65,38.56,3.38,77.18.68,115.76,1.58,4.42.1,8.86-.12,12.21,3.54-26-4.42-52.08,1.55-78.08-.12-16.29-1.06-32.57.23-48.93-1.08-10.53-.84-21.54,1.32-32.39,1.23C667.46,191.88,663.28,188.91,658.22,174.35Z" fill="#293952"/><path d="M162.49,209.61c22.19-3.09,44.55-2.36,66.75-1.42,16,.68,32-2,48,1.21,4.77,1,9.87.28,14.84-.8,8-1.74,16-1.44,24.27-1.11,34.26,1.35,68.6,2.55,102.85,1.63,15.23-.41,30.31-.21,45.48.38,13,.5,18.81-4.5,22.4-17.28,3-10.65,2.81-22.17,8.84-32-1.51,12.76-3.93,25.47-6.49,38-3.27,16-10.17,22.17-24.28,17.14-2.89-1-6.4-.43-9.62-.43q-55.42,0-110.86,0-83.76,0-167.53,0C171.75,214.84,165.75,215.85,162.49,209.61Z" fill="#2c3d56"/><path d="M693.5,549.89c-1.3,4.15,2,3.27,3.93,3.32,6,.17,11.91.06,17.84,2-7.78,0-15.56,0-23.35,0-1.68,0-4-.07-4,2.23,0,2,2.11,2.6,3.88,2.7,3.47.18,7,.18,10.44.26-2.36,4.19-6.48,3.1-10.18,3.58-2.94.37-8.26-1.19-4.16,5.61,3,5-2.82,5.78-5.61,6.1-6.39.73-12.9.37-19.36.54-2.86.07-6.27-.7-8,2.45-5.78,10.82-16.81,11-26.72,13.41-6.91-.68-13.8-3.51-20.75-.21-3.3,1.12-3.36,5.27-6.35,6.9-3.11-1.29-.95-4.86-2.88-6.56-5.13-2.67-11.2,1.08-16.21-2.36-.31-3.78,4-2.61,5.07-4.69-1.14,1.35-2.89,1.47-4.62,1.71-5.33.8-10.67,2-15.75-1-1.55-3.67,1.1-4.62,3.65-5a18.06,18.06,0,0,0,7.87-3.11c7.63-.17,15.2,2.3,22,.93-4.51-.94-10.34,2.63-15.28-2.11,1.11-6.58,7.24-8,11.29-7,6.53,1.63,12.65-.46,18.25.54-4.3-2.68-10.71,4.42-15-2.57,1.45-2.82,4.31-1.5,6.35-2.17-2.79-4.18-2.72-5.09,1.48-5.58,3.84-.44,7.36-1.18,10.52-3.44,1.73-.54,3.29-1.56,5.16-1.68,10.2-2.65,20.4-4.13,31-2,6.14,1.21,12.08-.34,17.8-3.18,6.77-3.35,13.87-5.86,21.68-3.7A3.06,3.06,0,0,1,693.5,549.89Z" fill="#2c3652"/><path d="M596.53,611.51a49.4,49.4,0,0,1-13.42,2c-2.4-.06-5.4-.61-5.93,3.14-4.12-1.37-9.34,1.56-12.59-3.21l1.76-1.57c4.42-2.15,8.86-1.18,13.24-.73-5.33-1.64-12,1.49-16.77-3.44-6.22-3.44-13.12-.55-20.87-2.37,11.38-1.57,22.15,1.23,31.62-4.38a1.2,1.2,0,0,1,1.82.2c9.64,2.64,19.53,1.75,29.29,1.49,7.9-.22,15.4,1.29,23.84,2.52-5.66,2.67-11.28-.64-16,2.44C607.51,610.15,600.53,604.77,596.53,611.51Z" fill="#5f6574"/><path d="M583.9,585.31c1.32-.43,3.65-.6,3.58.43-.18,2.68-2.8,2.69-4.93,2.89-1.85,3.42-7.51,2.4-8.28,7.09-3.51,2.82-7.76,1.2-11.61,1.95l-8.53.23c-2.57.32-1.72-2.86-3.49-3.38-1.86-2.32,1.66-2.76,1.53-4.47,2.38-2.63,6.09-1,8.76-2.77C568.49,585.49,576.45,588.38,583.9,585.31Z" fill="#7f8493"/><path d="M562.66,597.67c2.89-3.17,7.72-1,10.7-3.9a3.41,3.41,0,0,1,4.18-.07c5.18,1.55,10.88,1.45,16.48,5.47-6.82.4-12.89.06-18.63,2l-1.82-.2C570.69,597.32,565.45,601.58,562.66,597.67Z" fill="#cdd0d6"/><path d="M596.53,611.51c-1.6-4-7-1.86-9.86-6.38,9.48-1.08,17.63,1.26,25.85,2.45l6.35,1.19C611.45,610.88,603.77,609,596.53,611.51Z" fill="#f1f3f5"/><path d="M550.5,593.81l5.73.29c1.42,2.65-5.46.09-2.1,3.8-6.85,8.52-11.59,3.08-16.32-2.46C541.57,591.22,546.07,592.74,550.5,593.81Z" fill="#2a3450"/><path d="M564.59,613.42c3.75,2.8,9-.11,12.59,3.21-8,2.51-16-.62-25.16.15C555.82,610.77,560.78,614.4,564.59,613.42Z" fill="#edeef2"/><path d="M583.77,626l4.61,2.06,0,1.35h-22c-.25-.12-.62-.17-.75-.37a4.63,4.63,0,0,1-.38-1.14Z" fill="#b3b8be"/><path d="M562.82,607.68a115.8,115.8,0,0,0,18.88,3c-5,2.06-10.2,1.36-15.35,1.2l-8.47-.72C558.63,608,561,608.28,562.82,607.68Z" fill="#edeff4"/><path d="M550.5,593.81c-4.24.42-8.63-.26-12.69,1.63l-2.81.11c-1.7-3.74-.71-5.87,3.5-4.53,4.82,1.54,9.17,0,13.67-1C557.45,593.88,549,591.66,550.5,593.81Z" fill="#eef0f1"/><path d="M577.54,593.7l-4.18.07c1.5-4.5,6.54-2.68,9.19-5.14,2.33,3.27,5.65,1.24,8.53,1.63,2.47.34,5.76-2,7.19,2C591.46,594.2,584.22,589.83,577.54,593.7Z" fill="#b1b8c1"/><path d="M607.5,592c7-6.85,13.86-2.18,20.75.21Z" fill="#f7f9fb"/><path d="M573.86,621.34c6.37.4,12.55-6.79,20.43,0Z" fill="#e4e7ec"/><path d="M517.9,602.43l-15.74,1.2C507,599.71,512.37,601.26,517.9,602.43Z" fill="#959aaa"/><path d="M735.73,513c9.33-.14,18.7-.76,27.87,1.67,1.51.4,4-.1,3.61,2.48-.17,1-2.09,1.79-3.21,2.68-1.61,2.2-4,1.69-6.22,1.83-2.7,0-5.42,0-8.13,0,6.1,0,12.2,0,18.3,0,2.66,0,5.5-.07,6.23,3.32s-1.22,5.7-4.16,6.74c-3.62,1.28-7,2.65-9.48,5.79l-1.73,0c-2.42,3.85-6.34,4.11-10.07,3.47-6.94-1.2-13.91-.54-20.83-1-5.22-1.13-8.79-5.15-8.42-9.64.45-5.66,4.12-10.79,9.45-13.72C731.18,515.42,733.93,515.09,735.73,513Z" fill="#2c3653"/><path d="M760.54,537.51c-.23-4.92.87-8.74,6.91-8.87,1.94,0,4.72,0,4.31-2.92-.36-2.55-3.09-2.21-5.06-2.24-7-.09-14,.07-21-.15-2.66-.08-5.75,1.15-8.56-2.18,6.87-2.33,13.46-.84,19.88-1.27a183.65,183.65,0,0,0,36.54.65c3.69-.32,7-.69,9.33,2.86l8.76,0c.06,9.93-3.6,14-14.08,15.83C785.15,540.33,772.92,537.43,760.54,537.51Z" fill="#202943"/><path d="M802.89,523.39c-15.39.17-30.73-.46-45.87-3.51l7-.08c9.65.28,19.21-.11,28.52-3.23-5.95-2-12.49.62-18.57-4,7.33-3,14.53-.93,21.46-1.53,4-.35,8.34.86,11-3.53a16.45,16.45,0,0,1,15.91,0c.2,2.57-2.67,4.34-1.57,7.3,1.69,4.57-1.57,5.12-4.61,4.29C810.59,517.62,806.74,520.26,802.89,523.39Z" fill="#161d33"/><path d="M797.57,539.26c8-2.33,8.63-11.22,14.08-15.83,7.58,0,15.16-.08,22.74,0,2.15,0,5.26-.53,5.49,2.72.17,2.42-2.54,2.95-4.39,3.57-4.67,1.56-10.78,1-11.42,8.27,0,.51-2.52,1.14-3.88,1.16C812.65,539.31,805.11,539.25,797.57,539.26Z" fill="#161d33"/><path d="M693.5,549.89v-3.56c.72-1.78,2.28-2.53,4.3-3.3-4.14-.58-8,.4-11.7-.31-3.31-.63-8.38-.2-6.29-6.43a6.35,6.35,0,0,1,2.6-1.25c10.54-2.53,21.2-1.26,31.82-1.1,8.93,2,16.79,7.94,26.72,6.56,2.87-.4,5.65,1.8,3.67,5.78l-8.73.07c-1.81,2.87-4.7,2.67-7.53,2.62-3.09-.06-6.28-.4-8.4,2.64Z" fill="#2c3653"/><path d="M744.62,546.28c-.92-3.32-3.6-3.45-6.32-3.44-8.27,0-15.7-3.69-23.6-5.3,3.41-3.92,6.9-3.06,10.43-.18l33.67.17c1,3.06,5,3.88,5.74,8.75Z" fill="#202943"/><path d="M822.29,507.54l-15.91,0-8.75-.07a2.13,2.13,0,0,1,0-3.37L829.3,504l5.33,0C832.49,512.07,826.9,508.09,822.29,507.54Z" fill="#0c1325"/><path d="M720,551.61c-.36-2.27-3.46-5.62,2.36-5.32,4.52.23,9,.05,13.57.06,4.42,3.29,9.77.62,15.48,2.58C740.35,551,730.24,552.17,720,551.61Z" fill="#202943"/><path d="M771.83,548.41c2.84-2.53,5-2.24,8.56-1.17C777.41,549.4,775.4,550.3,771.83,548.41Z" fill="#0c1325"/><path d="M529.36,528.8l-3.39-.26c-12.43-3.91-25.33-1.66-38-2.95-9.84-3.75-17.57-11-26.72-16-2.13-1.16-3.82-3.09-3.27-5.68.79-3.75,4.06-2.18,6.34-2.55-5.43-1.21-11.78,5.73-16.67-1.65-1.75-2.58-5.2-1.59-7.32-3.39-3.4-2.56-1.95-6.57-2.94-9.86l-.77,0-.77-.06c-1.92-5.39,2-5.86,5.48-6.06a200.91,200.91,0,0,1,20.68,0c.85.14,1.89.13,2.48.72,15.34,15.4,35.71,21.15,55.1,28.82,7,2.77,13.43,7.09,21.38,6.73a26.51,26.51,0,0,1,3.42.63c4.13,1.61,8.81-3.35,12.47.77,3.26,3.66-.71,8.44,1.23,12.48a5.17,5.17,0,0,1-1.74,1.86c-2.52.71-5,1.79-7.66,1.65C542.54,531.37,535.07,533.28,529.36,528.8Z" fill="#58658e"/><path d="M421.91,525.05c-11.68,2.47-23.52,1.7-35.31,1.81-6.08-7.43-11.38-15.7-21.82-18.55,2-3.53,5.43-1.53,7.87-4.09-8.36-.63-10-6.22-10.71-12.46,2.29-2.26,4.61-2,7-.1,5.87-.8,11.65-2.52,17.67-1.72,7.22,3.68,14.16,7,18.22,15.23,2.6,5.25,9.1,7.77,15.12,9.82S426.24,519.65,421.91,525.05Z" fill="#35405f"/><path d="M421.91,525.05c1.48-3.33,2.2-5.89-2.88-7-9.77-2.08-17.5-6.56-21-17.13-1.64-5-10.43-4.3-11.49-11,8.92.71,17.56-3.08,26.52-1.65,2.21,2.33,5.1,2.35,8,2.65,2.56.26,5.52.86,4,4.8-6.15.86-12.4,0-18.57.55,4.65-.62,9.34,0,14-.18,11.38,8.72,23.77,16.21,33.13,27.37l-3.63,1.7Z" fill="#3e4a6c"/><path d="M464.28,483c-6.86,0-13.72-.1-20.59-.06-3.08,0-6.52-.53-7.79,3.55l-28.07-.23c-2.29-3.67.1-4.7,3.05-5,3.4-.36,6.85-.08,9.3-.12-5.06-.78-13,2.88-16.6-1.1-2.93-3.26-6.86-8.76-6.44-14.76h0c4.8-3.3,10.23-1.17,15.34-1.77,4.26-.49,8.8,1.19,12.75-1.66l.23-.21c7.52-5.79,16.05-3.36,24.29-2.82a4,4,0,0,1,3.93,4c-.08,2.22-2,3.48-3.89,4.31a9,9,0,0,1-8.37-.56c3.05,2,6.23,1,9.49.67,4.83-.44,9.91-1.6,14.24,2,2.65,5.22-2.12,4.88-4.64,6.24-3.72,1.42-6.6-1.21-9.94-2.23-.5-.87-.36,1.18.28.2.33-.5.64-.41.78.29.63,3.18,1.21,5.54,5.76,4a15.61,15.61,0,0,1,9.44.28c3.48.69,7,.2,10.47.58,2.13.24,4.34,1.21,4.35,3.45s-2.12,3.39-4.17,3.91C472.61,487.2,468.34,485.49,464.28,483Z" fill="#4c587f"/><path d="M397.14,465.24c2.92,6.79,9.89,1.3,14,4.6-.06.52.08,1.34-.21,1.53-2.53,1.7-7.73,1.78-6.9,5.51,1,4.33,5.95,2.26,9.12,2.3,6.18.08,12.2.63,18.08,3.71-5.36,0-10.73-.06-16.09,0-2.86,0-6.1-.51-7.27,3.32H360.26l-.08-2.94H395l.13-2.56c-4.25-2.47-9.23-.84-13.82-1.42-1.61-2-3.12-4.15-4.88-6.05-1.43-1.54-5.48-.8-4.7-4s4.5-3.49,7.23-3.68C385,465.17,391.06,465.32,397.14,465.24Z" fill="#3b4768"/><path d="M425.44,495.11c-3.47-3.45-11.23.86-12.35-6.82,8.09-1,16.42,1.29,24.35-1.82,7,.29.63,6.59,3.87,8.57C436,499.15,430.75,499.08,425.44,495.11Z" fill="#4c587f"/><path d="M368.9,491.66l-7,.1-4.31-.32C361.44,490.31,365.47,483.71,368.9,491.66Z" fill="#162137"/><path d="M265.87,565.11c-2.93-.46-6.67-1.12-6-3.2,1.42-4.39,6.43-4.09,10.22-4.63,2.47-.35,6.45.61,5.66,3.64C274.42,566.09,268.46,562.62,265.87,565.11Z" fill="#0c1325"/><path d="M578.82,579.86c-2.45,5.77-8.46,2.64-12.31,4.91-3.68,2.88-6.36.88-8.89-1.83.45-2.31,2.35-2.94,6.5-4.36-6.27-.32-11.15-.06-11.92-5.82,8.25,2.6,16.85.78,25.21,2C577.42,576.56,579.89,577.73,578.82,579.86Z" fill="#3f4b6b"/><path d="M557.62,582.94c3,.69,5.66,2.53,8.89,1.83l17.39.54a27.83,27.83,0,0,1-23,2l-15.36-.68c-.74-.19-1.05-.48-.92-.89s.33-.68.53-.68C549,582.1,553.56,584.14,557.62,582.94Z" fill="#e3e6e9"/><path d="M545.18,585a2.31,2.31,0,0,1,.39,1.57c-5.34,3.8-11.2,1.44-16.89,1.38A44,44,0,0,1,545.18,585Z" fill="#6e768a"/><path d="M538,574.64c3.68-5.78,7.4-4.31,11.13,0Z" fill="#3f4b6b"/><path d="M617.72,558.9c-1.63,7.41-8.11.55-11.56,4.59,2.54.2,4.8.34,7.06.58,1,.1,2.7,0,1.55,1.73-.53.79-2,1-3,1.4-3.72-1.28-7.56-.32-11.33-.58-.77-.06-1.05,0-.82,0a3.49,3.49,0,0,0,.45,1.27c6.48,3.06,13.72-.45,22.82,2.73-14.14,1.09-26,.68-37,5.64-2.27,1.63-4.25,2-5.38-1.25-3.14-4.21-9-.26-12.25-4,2-1.63,4.44-.53,6.64-.93-2.2.4-4.61-.7-6.65.92-6.79-.94-14-.42-19.58-5.57-5.23-.64-10.46-1.48-15.76-1.46-4.21-2.63-8.22.63-12.34.45-3.66-3.13-8.68.62-12.35-2.44s-8-4.28-12.67-5.35c-14.09-3.23-28.46-5.93-40.12-15.51l10.46-.12c4.83-3.15,10.26-1.09,15.38-1.75,18.49-2.39,37.16-2.15,55.68-4,1-.1,2-.17,3.08-.26,2.51-.14,5-.11,7.54-.07,2.89,1,9.37-1,5.08,6.06-2.59,1.37-5.37.86-7.61.82a5.63,5.63,0,0,1,3.43,2.71,6,6,0,0,1,.31,4.14c5,1.16,10.11-.33,15.09.71,4,2,8.86.37,12.79,2.81,2.09,5.78-2.38,5.37-5.6,5.59-7.82.55-15.59.12-22.32-2.49,5.65,4.48,15.3-1.11,20.64,6.78,1.13-.89,2.13-2,3.66-2.26,9.83-3.08,19.94-1.68,29.94-2C607.94,557.55,613.09,555,617.72,558.9Z" fill="#3f4b6b"/><path d="M580.51,575l5.38,1.25c6.86,4.81,14.1-1.14,21.85.93-9.72,5-19.58,1.36-28.92,2.66-2.16-2.58-5.76.4-8.06-2,1.11-3.61,4.91-1.17,6.65-3.12Z" fill="#c9d0d5"/><path d="M532.91,564c5.64-3.65,10.57.31,15.77,1.46C543.38,565.42,537.89,567.42,532.91,564Z" fill="#7b849a"/><path d="M508.22,562c3.95,1.62,9-2.33,12.35,2.44-4.51-.2-9-.39-13.51-.62a3.2,3.2,0,0,1-1.44-.43C505.8,561.7,507.34,562.46,508.22,562Z" fill="#858faa"/><path d="M453.67,523.48c-12.83-6.12-24.88-13.18-31.76-26.44a75.82,75.82,0,0,1,26.41,0c6.12,6.89,14.5,1.49,21.5,4.05.28,1.11-.74.91-1.37,1.11-2.76.85-7.69-1.75-7.9,2.62-.16,3.4,4.53,2.38,7.28,2.79,1.13.17,3.11.32,3.23.83,2,8.68,11.58,9,16.18,14.76-2.34,2.55-4.85,1.93-7.41.41C471.09,527.54,462.4,522.29,453.67,523.48Z" fill="#4b587e"/><path d="M529.36,528.8c6.58.12,13.36-1.07,19.37,2.88-.83,4.89-7,1.58-8.46,5.52l-.87.63c-13.47.63-27,1.95-40.22-1.94l-46.34-2,0-1.73c23.15,0,46.31.09,69.46-.14C524.71,532,529.29,534.74,529.36,528.8Z" fill="#3f4b6b"/><path d="M479.83,523.59l7.41-.41c13,.86,26.62-2.15,38.73,5.36-11,0-22,.31-33,0C488.26,528.34,483,528.39,479.83,523.59Z" fill="#3e4a6c"/><path d="M499.18,535.89l40.22,1.94c-2.89,2.12-6.24,1.43-9.39,1.33-21.41-.74-42.75,1.12-64.12,1.83,1.71-4.56,5.71-3.08,9-3.43C483,536.71,491.29,539.28,499.18,535.89Z" fill="#333d5b"/><path d="M709.37,470.5c5.31-9.83,8.9-20,7-31.47,9-1.29,17.71.79,26.52,1.77,2.34,1.74,6.45,2.68,2.85,7a6.47,6.47,0,0,0-1.59,3.94c.39,10-4.8,14.17-14.87,13.74,2.15,2.41,6.3,1.31,6.54,5.07l-1.07,1.26C726.2,473.29,717.61,475.38,709.37,470.5Z" fill="#4d5b81"/><path d="M681.14,537.5h-1.75c-7.36,5.52-18.57,5.35-28.23-.43,5.6,5.82,5,9.84-2.5,12.65-8,3-16.56,3.31-24.87,4.63a29.65,29.65,0,0,0-8.86,3.16c-3.26,2.73-7.18,1.91-10.92,2a26.6,26.6,0,0,1-10.53-1.62c-3.2-2.86,3.49-4.19,1.11-7,3.11-2.8,7.77-2.16,10-4.31-6,2.12-12.57,5.91-20.34,2.92-1.92-2.45-6.13-4.15-2.79-8.36a53.44,53.44,0,0,1,10.89-2.36c4.54.78,9.12,2.12,13.39-.93,8.48-6,18.36-7.36,28.15-9.91,8.2-2.13,16.64-6.51,24.06-11.16a280.31,280.31,0,0,1,24.88-13.44c11.41-.54,22.81-.39,34.2-.11,4.81.12,9.83,1.08,4.51,7.63H690.47c8.69,3.91,15.52,3.68,22.28,3.82-.91,6.43-9.59,14.66-18,15.3C688.59,530.5,684.49,532.88,681.14,537.5Z" fill="#465276"/><path d="M721.58,510.92c1.62-5.26-1.9-5-5.31-5-11.71,0-23.43,0-35.15-.08-1.07.56-2.28.91-3-.23s0-2.21,1-2.87c3.21-2,6.82-1.1,10.27-1.35H701c5.15-.16,10.32.32,15.39-.29a5.88,5.88,0,0,0,.45-2.6,4.78,4.78,0,0,1,1.67-3c2.36-1.68,5.08-.95,7.64-1.21,4.42-1.4,8.55,1.9,12.94.77-2.46-1-5.77-1.51-5.27-5.26.41-3.06,3.28-3.62,5.66-4.82,3.92-2,8-.75,11.1-1.16-5.76-1.82-11.68,2.53-18.14,2.06-9.63.53-19.16-.54-28.71-1.41-3.46-.65-6.86.54-10.31.24-3.3-.29-6.29-1-7.37-4.71a4.74,4.74,0,0,1,3.66-3c5.34-.55,10.71-.19,16.07-.29h15.72c13.21,1.35,26.26-3.25,39.51-1.19,1.11.17,2.14-.72,3.06-1.44h38.21c-2.24,11.95-9.87,13.73-19.44,12.4a7.42,7.42,0,0,0-7.67,3.32c-2.27,3.54,4,3,2.9,6.42-5.88,2.23-12.94-1-18.78,4h21.29c-8.31,3.08-17,.85-25.77,3,2.47,4.46,10.24,1.15,9.21,5.36-1.23,5-7.58,2.14-11.6,2.29C742.14,511.26,731.85,511,721.58,510.92Z" fill="#2e3958"/><path d="M681.14,537.5c-1.16-8.51,2.66-10.92,11-10.85,8.61.07,14.37-6.82,20.65-11.91,7.67-.33,15.19-2.81,23-1.77.11,2.53-.66,4.58-3.1,5.71-2.28,1.06-6.83.86-2.85,5.34.19.22-.63,2-1,2-10.81.77-5.37,6.62-3.6,11.31l-10.43.18Z" fill="#384363"/><path d="M764.05,474.06c-.78,2.7-2.83,3.51-5.33,3.43-12.4-.43-24.63,3.08-37.08,1.66,2.41-6.74,9.41-4.09,13.81-6.75,7.79.54,15.78-1.86,23.35,1.62Z" fill="#3c4769"/><path d="M758.8,474l-24.75,0c-.12-.36-.24-.71-.37-1.07.31-1.18,1.29-1.78,2.16-2.48h0l23,.1C758.85,471.75,758.83,472.88,758.8,474Z" fill="#2e3958"/><path d="M797.67,504.12c0,1.12,0,2.25,0,3.37-7-.44-14.21,1.23-23.19-1.74C783.45,502.86,790.63,504.46,797.67,504.12Z" fill="#161d33"/><path d="M459.11,472.45c1.73-.63,4.41,1.23,5.14-2,4.8-5,10.44-2.18,15.83-1.67,2.26,11.28,12,15.21,20.44,19.89,16.66,9.23,35.28,14.35,51.69,24.19,4.51-1.83,9.18-.73,13.79-.68.67,6.47-4,5.74-7.64,5.09a23.67,23.67,0,0,0-16.46,2.51c-10.21,2.88-17.83-4-26.27-7.32-13.9-5.4-28.42-9.51-40.95-18.1A32.77,32.77,0,0,1,464.28,483h14.58l.05-2H464.29c-.9-6.63,4.07-4.82,6.23-6.25-1-.68-3.16,1.1-5.38,1.4C462.22,476.51,459.08,477,459.11,472.45Z" fill="#6877a5"/><path d="M578.47,512.65l25,1.65c.71-3.71-6.18-4-3.58-7.71,2.26-3.21,5.8-1.6,8.95-1.68,5-.11,9.88-.85,15.77-1.42l-13.16-5.64c2.86-1.63,5.69-.63,8.43-.68,8.64,1.9,17.17-.6,25.76-.72,4.59-.06,9.18-1.08,13.62.85,3.74,5.94-1.13,8.37-4.75,11-9.31,6.74-20.35,6.4-31.09,7.15a22.46,22.46,0,0,1-4.29.1c3.13-.2,7.59-.12,12-.79,3.47-.52,8-.68,9.07,3.33,1.29,4.94-4,4.56-6.85,5.94-4.62.3-9,.29-13.46-1.92-5.3-2.62-11.32-1.87-17-.51a35.41,35.41,0,0,1-8.55.85c-3.72-.07-6.82-3.09-10.75-2.26-1.83-.35-3.49-1.24-5.32-1.64-2.26-1.44-5.55-2-5.14-5.79A5,5,0,0,1,578.47,512.65Z" fill="#64729e"/><path d="M480.08,468.79c-5.29.5-10.83-1.49-15.83,1.67-12.12,2-23.53-3.17-35.52-3.5,7-3.39,15.51.51,24.12-5.36H425.46c1.14-7.71,7.64-6.52,12.81-8.36-2.66-.12-5.32-.15-8-.39-2.14-.2-5.37.71-5.43-2.68-.06-3.18,2.69-4.22,5.56-4.26,7.28-.11,14.57-.05,21.85-.29,1.64-.05,3.25-1,4.87-1.57,1.63.14,4.42-.83,4.59,1.06.66,7.62.42,7.63,8.08,7.72,2.63,0,5.26.07,7.89.2.45,0,.89.51,3,1.81-6.31,0-10.92-.21-15.5.06-4.11.25-5.17,2.33-2.5,5.75,3.13,4,6.43,7.1,12.34,6.45A44.29,44.29,0,0,1,493,468.79Z" fill="#5d6b96"/><path d="M644,495.07c3.08-6.24,12.27-6.32,14-13.89,7.55-2.45,15.53.28,23.15-1.86a3.66,3.66,0,0,1,4.16,2.48c1.11,2.75,0,5.19-1.85,7.14-3.4,3.52-7.77,6-11,9.75C662.72,500,653.28,498.29,644,495.07Z" fill="#5d6b96"/><path d="M672.32,496.65c.87-4.36,4.39-6.63,7.37-9.31,1.44-1.28,4.28-2,3.53-4.32-.89-2.79-3.9-1.84-6.07-1.87-6.36-.1-12.73,0-19.09,0l-13.95-.12c-1.18-.55-1.18-1.09,0-1.63l10.46-.21,23,.05c3.09-1.64,6.18-3.19,9.17.19,5.52,2.93,11.55,1,17.29,1.76,3.16,5.28-.68,8.22-4.22,10.33-3.28,1.95-5.52,4.73-8.18,7.2-1.91.85-4,.78-6,.84C681.12,498.9,675.91,501.43,672.32,496.65Z" fill="#5c6994"/><path d="M607.11,484.81c-6.35-.23-12.71-.48-18.6,2.61a3,3,0,0,1-1.66.47c-10.9-1.59-21.8-3.07-33.34-1.92,1.14-3.73,3.19-3.36,4.76-3.36,15.18,0,30.37.12,45.55.23,1.76,0,3.51.25,4.8,1.7A12.54,12.54,0,0,0,607.11,484.81Z" fill="#ccd2ea"/><path d="M672.32,496.65l14.12.32c-.71,6-6,3.46-9.16,4.84-6,.47-12.41,2.73-17.4-3-13.32-1.09-26.8,1.44-40-1.67l24.18-2.1A94.59,94.59,0,0,0,672.32,496.65Z" fill="#3a4668"/><path d="M644.11,479.42v1.63l-26.5.1-17.3-.37a1.39,1.39,0,0,1,.43-2.32,4.69,4.69,0,0,1,2.84-.29c5.77,1,11.69-.69,17.42,1l5.41.06Z" fill="#5d6b96"/><path d="M559.56,498.65c2.8-4.3,7.1-4.82,16.64-1.9-2.48,4.72-6.37,2.23-9.71,2.1Z" fill="#d7ddec"/><path d="M578.47,512.65l-4.59.49q-3.87,3.24-7.73,0l-13.94-.27C560.93,509.42,569.69,510.14,578.47,512.65Z" fill="#ccd2e1"/><path d="M566.48,503.8l10.38.43c-4.8,3.38-10.08.73-15.57,1.95C562.6,502.82,565,504.6,566.48,503.8Z" fill="#dce0ef"/><path d="M621,479.17l-19.39,0c-11,0-21.93.48-30.63-8.41-4.34-4.43-10.35-4.89-16.42-4.71-3.07.08-6.4,1.18-9.33-.9-5.4-3.9-10.78.41-16.18,0-2-.15-4.71,0-5.08-2.46-.48-3.21,2.53-2.64,4.34-2.64q41.54-.11,83.09,0l.3,2.21-27.45,3.64c4.43,3.15,8.34,2.69,12.67,2,6.85-1.06,13.88-2.55,20.61.84-5.79.3-11.64-.12-17.27,1.78-1.8.6-4.7,0-4.49,2.89.18,2.65,3.11,1.88,4.84,2.67C607.14,479,614.59,475.7,621,479.17Z" fill="#a6b4e2"/><path d="M545.23,465.11l21.79.13c5,0,4.16,3.05,7.37,3.91,4.85,1.28,5.79,7.26,11.22,6.75s10.86,1.19,16,3.23c-.5.15-1,.28-1.52.39-8.11,1.38-16.25.61-24.38.42-13.23,1.5-26.23-.49-39.25-2.44,6.2-3.34,12.55-.37,18.81-.36,5.43,0,10.91,1.14,16.77-1.72-6.73-5-14.1-2-20.58-4.64l12.83-.82c-7.09-4.32-13.19-2.06-18.79-3-.28-.05-.65,0-.85-.15C543.34,465.77,544.56,465.52,545.23,465.11Z" fill="#c2cceb"/><path d="M587.58,453.83H550.13l0-.48,37.4-1.94C587.53,452.22,587.56,453,587.58,453.83Z" fill="#c1cbed"/><path d="M578.06,491.48l-22,1C563.29,488.53,570.72,489.85,578.06,491.48Z" fill="#e7ebf4"/><path d="M575.71,479.94l24.38-.42a5.37,5.37,0,0,0,.22,1.26C592.1,480.77,583.85,482.17,575.71,479.94Z" fill="#7685b6"/><path d="M425.23,461.81c-1.36,4.25-5,3.27-8,3.34-6.68.14-13.37.07-20.06.09,0-1.18,0-2.36,0-3.55Z" fill="#3b4768"/><path d="M734.05,474.06c-2.63,5.35-8.85,2-12.41,5.09l-15.86,0c-4.41-4.47-10-1.75-15-2.51-2.84-.11-5.86.52-8.1-2a3.28,3.28,0,0,1,.32-4.14l3.48-.05,21.21,0c3.73,3.27,8.23,1.14,12.34,1.74,4.68.68,9.74-1.59,14.08,1.78Z" fill="#4d5b81"/><path d="M683,474l8.74.08c2.07,2.65.13,4-1.77,5.29l-3.26.08-9.16-.19c.59-1.73,1.19-3.45,1.78-5.17A2.6,2.6,0,0,1,683,474Z" fill="#5d6b96"/><path d="M683,474l-3.67.09H667.46c4.77-4.84,10.29-3.12,15.49-3.54C683,471.7,683,472.85,683,474Z" fill="#5c6994"/><path d="M616.5,472.76c-4.12,1.47-8,1.71-11.88,0Z" fill="#a6b4e2"/><path d="M734.06,474.06c-7,.07-14-.05-20.91.28-3.14.15-5.14-.41-5.51-3.81l1.73,0h26.47C735.24,471.69,734.65,472.88,734.06,474.06Z" fill="#3c4769"/><path d="M615.88,173.73c-.06,25.62-20.62,47.06-45.11,47.06-25.07,0-46.88-21.9-46.6-46.8s22.19-47.68,45.47-47.19A47,47,0,0,1,615.88,173.73Z" fill="#5c7197"/><path d="M614.14,556.77c1.92-3.28,4.65-5.28,8.59-5.11,9,.38,17.1-3.78,25.65-5.65,5.53-1.21,5.7-3,1.78-8.5h29.23c6.67,3.45,13.83,1.1,20.74,1.76,3.16.3,7.58-.39,7.75,3.77.22,5.17-4.65,2.69-7.35,3.16a43.3,43.3,0,0,1-7,.13c-12.22,2.44-22.75,10.77-35.74,10.44-4.07-.11-8.12-1-12.19-1.47a46.93,46.93,0,0,0-23.08,3.17C620,556.67,616.57,559.09,614.14,556.77Z" fill="#384363"/><path d="M614.14,556.77c2.79.54,6-.78,8.35,1.7l-4.77.43c-4.8.7-9.51,2.39-14.47,1.23,0-.37,0-.73-.07-1.09C606.88,558.51,610.92,559.62,614.14,556.77Z" fill="#8890a2"/><path d="M600.07,567.9l-4.88-.77c5.59-1.64,11.13-2.74,16.58.07Z" fill="#bfc3ce"/><path d="M566.15,513.14h7.73l5,3.18c-3.52,3.8-7.37.31-10.36.68,4.73,1,10.14,2.08,15.48-.54,3.74-.6,6.33,1.74,9.12,3.56.87.41-.92,2.27,1.12,2,3.38-.39,6.77-1.13,10.09.39a4.39,4.39,0,0,1,1.52,4.83c-2.56,2.86-5.93,4.38-9.41,5.72-4.5.28-9-.21-13.49.86-6.94-1.5-13.67-4.8-21.08-1.91a3.34,3.34,0,0,1-4.38-1.91l-7-3.47c2.16-2.21,6.65-3,5.42-6-1.65-4-4.88-.52-7.27.21s-4.42-1-6.68-1c.71-4.91,4.38-5.18,8.26-5.5C555.48,513.84,561,515.63,566.15,513.14Z" fill="#939cb9"/><path d="M557.47,530c8.7-3.66,17.18-4.66,25,2l.27,1.34c-1.82,4.23-5.7,5-9.47,4.76-4.39-.28-8.71.43-13.06.15a7.88,7.88,0,0,1-3.8-.93c-2.57-2.11-2.05-4.43-.46-6.82A12.58,12.58,0,0,0,557.47,530Z" fill="#f5f6f8"/><path d="M448.32,497l-26.41,0H403.78l0-1.93h21.68l15.86-.06c2.57.12,5.14.23,7.7.39.19,0,.36.39.54.6Z" fill="#35405f"/><path d="M556,530.57c1,1.66.68,3.32,0,5-2.68,2.26-6.36-.37-9,1.85l-6.69-.21c-2-9.2,6-3.2,8.46-5.52C551.06,530.77,553.41,529.94,556,530.57Z" fill="#bec2d2"/><path d="M459.11,472.45c4.51,3.11,9.81.61,16.12,2.44-5.05,1.24-9.24,1.87-10.94,6.08H439.56c2.86-4.62,7.11-2.42,10.47-4.37-.41-3.91-4.32-1.52-6.61-4.15Z" fill="#5d6b96"/><path d="M594.88,551.7c.39,2.65,3.69.72,4.47,2.84-1.79,1.4-4.78-.56-6.07,2.16s-4,2.24-6.08,1.78c-5.82-1.29-10.6.89-15.28,3.8-4,3.33-3.84,3.3-5.2-1.11-.54-1.75-2.52-1.33-3.84-1.3-7.7.16-14.66-2.12-21.3-6,11.72-2,23.3,3.28,34.88-.09C582.1,548.74,588.32,548.68,594.88,551.7Z" fill="#d1d4db"/><path d="M580.83,543c.94,1.77,5.72.64,3.6,4.74-6.26,6-14,3.58-21.35,3.85-6.85.11-13.72,1.26-20.74-.25,1.1-2.16,3.18-1.18,4.54-2,3.81-3.72,9.3-1.11,13.43-3.58,3.48-2.7,6.08-6.8,11.11-7.08C574.66,539.93,578.71,539.35,580.83,543Z" fill="#b6bcca"/><path d="M563.08,551.6l21.35-3.85c9.29,1.13,18.19-1.87,27.36-2.49l-16.91,6.44c-6.35-1.1-12.23,1.87-18.42,2.08C572,553.18,567,555.55,563.08,551.6Z" fill="#eff0f3"/><path d="M571.92,562.28c5.1-9.57,13.78-5.48,21.36-5.58,3.68-.8,6.36,2.56,9.9,2.34,0,.36.05.72.07,1.09C592.78,560.45,582.25,560,571.92,562.28Z" fill="#eff0f3"/><path d="M547.12,544.49c-4.67-1.85-9.67.24-16.42-1a36.27,36.27,0,0,1,19.59-4c3,1.73,6.75-2.27,9.45,1.34.27,4.07-3.21,4.55-5.71,6C551.24,547.49,549,546.45,547.12,544.49Z" fill="#bbc0ce"/><path d="M547.12,544.49l7.13-.08c2.86,1,7.58-2.47,8.41,3.46-5,3.56-10.48,1.47-15.78,1.51Z" fill="#656e8c"/><path d="M559.48,541.32c-3-.79-6.51.83-9.18-1.75l1.58-1.58-4.92-.58c2.37-3.74,5.89-1.9,9-1.85l3.25.36c1.47,1.68,5.26,1.82,3.72,5.53A2.84,2.84,0,0,1,559.48,541.32Z" fill="#64708f"/><path d="M568.25,571c4.72-2.69,9.61-3.75,14.75-2.33l.19,2.34H568.25Z" fill="#eef0f4"/><path d="M582.5,532.07c4.45-2.66,9.47-.67,14.11-1.72,7.88-2.12,15.91,0,23.48-.85-3.24-.6-7.76,2-10.05-3.06.56-3.58,3.7-3.57,6.17-4.51,5.75-.89,11.73,4.64,17.34-.61l4.74-2.37c-8.17-3.27-16.6-2.72-24.93-3.26,13.46-1.41,26.42-4.23,38.54-10.27,3.17-1.58,6.28-3.22,8-6.58l17.64.09c3.65,1.48,7.34.39,11,.16a4.33,4.33,0,0,1,2.06,1.35,2.69,2.69,0,0,1-.77,3.36c-3.14.14-6.28.27-9.43.45-.19,0-.37.39-.55.6l1.27,1c-.46,1.35-.77,3.78-1.39,3.87-12.57,1.65-20.92,11.73-32.12,16.53-10,4.3-20,5.44-30,7.92-1.42.35-3.73.56-3.57,1.92.9,7.51-4.65,4.56-8,5.2-6.21.31-11.74-3-17.92-3.23-3.23-.09-4.94-2.81-5.8-5.83Z" fill="#58658d"/><path d="M582.39,532.2c7.42,4.3,16.91,3.19,23.72,9.06-4.32,2.63-9,.32-13.5,1.1-7.57-.05-14.91-2.91-22.58-2-2.3,1.23-4.58,2.68-7.15.56l-3.62-5.05C566.76,533.4,575.4,537.89,582.39,532.2Z" fill="#b6bcca"/><path d="M570.17,539.9c8.09-4.69,15,1.55,22.44,2.46l-11.78.65L570,540.85Z" fill="#f7f7f8"/><path d="M691.65,496.9c-.1-3.89,1.89-6.29,5.32-7.88s6.56-3.53,7-7.81c10.06-1.4,19.79,2.45,29.8,1.85a3.58,3.58,0,0,1-1.52,5.26c-4,1.77-6.86,3.68-5.28,8.62l-8.77.05c-7.69,4.71-16,2.28-24.07,2A5.44,5.44,0,0,1,691.65,496.9Z" fill="#4a577c"/><path d="M727,496.94c-.1-4.08-3.68-4.65-6.55-6.15,5.08-1.87,10-3.49,13.35-7.73,8.59-2.43,17.39-2.08,26.17-1.89,1.65,0,4.06-.32,4.27,2,.25,2.81-2.37,3-4.34,3.09-5,.22-10,0-14.94.37-3.11.22-6.34.76-9.39,3.88,3.85,2,7.64.81,11.14,1.28,1.75.24,3.93.29,4,2.51s-2.18,2.26-3.85,2.73C740.22,498.88,733.61,499.34,727,496.94Z" fill="#3a4668"/><path d="M693.57,497.05l24.66-.06c0,1.15,0,2.3,0,3.45a47.55,47.55,0,0,1-28.29.07h0C688.92,497,692.62,498.47,693.57,497.05Z" fill="#3a4668"/><path d="M690,500.51l28.29-.07c2.28.85,5.48-1.86,7,1.82-7.53,2.33-15.42-.5-23,1.59l-12.46-.05C689.87,502.7,689.91,501.61,690,500.51Z" fill="#465276"/><path d="M690,479.37l1.77-5.29c4.78,1.44,12-3.89,14,5.11Z" fill="#5c6994"/><path d="M702.3,503.85c7.47-3.16,15.31-1,23-1.59C717.8,505.61,710,503.35,702.3,503.85Z" fill="#3a4668"/><path d="M633.55,521.32c2.13,2.76.53,3.61-2,3.64-4.65.07-9.3,0-13.95-.07-4.75-2-10,2.1-14.64-1.22l-13.61.83L593.1,520c8-.49,15.87-2.92,24-2.13C622.77,518.44,627.44,523.31,633.55,521.32Z" fill="#edf0f3"/><path d="M584,516.46c-5.35,5.46-11.08,2.79-18.14,1.07,5.13-2.08,9.13-.89,13-1.21Z" fill="#c8cddc"/><path d="M693.57,497.05l-3.63,3.45c-4.17-.24-8.53,1-12.42-1.57,3-.41,6.35.53,8.92-2l5.21-.07Z" fill="#465276"/><path d="M568.76,216.62c-25.43-2.23-40.51-20.68-40.57-43.87-.07-25.24,21-41.24,41.58-41.95,22.65-.78,43.78,20.9,42.27,42.86C610.44,196.89,593.52,215,568.76,216.62Z" fill="#607399"/><path d="M610.92,526.8c4.4,2.57,9.52,1.39,14.21,2.68-9.49,1.88-18.91,4.69-28.52.87a10.4,10.4,0,0,1,7.94-3.71A5.27,5.27,0,0,1,610.92,526.8Z" fill="#edf0f3"/><path d="M610.92,526.8l-6.37-.16c-.53-1-1.07-2-1.6-3,4.91,0,9.95-1.46,14.64,1.23C615.44,525.78,612.38,523.51,610.92,526.8Z" fill="#e5e8ed"/><path d="M570.17,539.9c0,.32-.09.64-.15,1-.88,1.85-4,2-3.29,5.35.45,2.24-1.58,3.76-4.07,1.67s-6.4-.37-8.41-3.46l5.23-3.09,3.4-.35Z" fill="#e7e9ee"/><path d="M607.06,174.93c.14,19.74-16.21,36.06-36.48,36.42-21,.36-37.39-16.38-37.67-38.11-.3-23.34,16-39,35.79-38.74C590.41,134.76,606,144.93,607.06,174.93Z" fill="#7084ae"/><path d="M600.05,171.31a29.43,29.43,0,0,1-29.52,29.78A29.79,29.79,0,0,1,540.1,171.2a30.38,30.38,0,0,1,29.67-30A30,30,0,0,1,600.05,171.31Z" fill="#fdfdfd"/></svg>