<svg id="Layer_1" data-name="Layer 1" xmlns="http://www.w3.org/2000/svg" viewBox="0 0 1080 675"><path d="M1080,630.66V675H0V569.78a20.36,20.36,0,0,1,3.87-.32c10.64.12,16.74,7.08,17.59,20.37.46,7.2.24,14.42.36,21.63s3.4,11.53,10.72,13c7.09,1.43,12.21,0,14.94-7.36,4.16-11.2,13.2-14.71,24.19-14.18,11.86.56,16.52-5,15.94-16.52-.41-8.15.17-16.35,0-24.51-.27-13.61,7.31-22.72,17.49-29.72,12.22-8.41,27.83.79,31.17,18.23,2,10.43,1.3,21.13.8,31.65-.57,12,1.81,19.82,16.28,18.44,6.32-.6,11.85,3.46,18.39,6.46,4.68-11.56,2.13-23,2.38-34.14.52-22.38,3.46-28.8,20.14-28.71h0c3.19,0,6.87.27,11.14.7l.8.08c4.26,2.5,7.86,5.3,8.26,8.29,1.84-12.41-1.07-27.45,1.06-42.34.15-1.09.34-2.19.55-3.28.13-.65.27-1.29.42-1.94,5.8-12.18,15.53-16.31,32.77-13.77.93.13,1.89.29,2.87.47.23.07.46.13.68.21,6,1.95,9.12,6.36,10.23,12.48a23.1,23.1,0,0,1-.16,4,30.49,30.49,0,0,0-.22,4.58,50.45,50.45,0,0,1-.11,6.26v0c-.36,5.66-1,11.35,1.65,16.42,4.26,8.22,13.28,2.63,19.64,5.06,7.6,2.91,15.39,5.08,23.13,7.47,9.05,2.8,11.73,11.07,11.77,19.58,0,9.6,2.31,16.71,12.77,19.45,4.68,1.23,8.09,5.13,10.89,9.08,6.71,9.45,11.13,7.06,14.4-2.53,2.72-8,8.14-12.72,16.71-13.73,12-1.43,18.33,2.71,23.4,16,1.37,3.57,1.75,8.2,6.72,7.92,4.76-.26,5.18-5.08,6.54-8.51a19.1,19.1,0,0,0,1.08-8.51c-.77-9.93,2.06-18,8.43-24.39a36.66,36.66,0,0,1,5.16-4.28l.86-.58a11.19,11.19,0,0,1,3.82-2.18,29.67,29.67,0,0,1,2.94-.41c2.59-.23,5.19-.17,7.78-.17h.22a46.89,46.89,0,0,1,6.83,1.65,20.3,20.3,0,0,1,9.85,6.3h0c4.28,5.21,6.1,13.44,6.78,26.83,3-9.06,8.39-12.57,16.33-11.83,8.17.76,9.79,3.37,18.27,29.12,8.33-10.25,3.39-22.76,6.4-33.08a18.14,18.14,0,0,1,1.5-3.71,16.08,16.08,0,0,1,.9-1.47c20.07-11,37.32-3.76,39.86,15.75.77-14.63-1.9-30.21,1.09-45.72a.43.43,0,0,1,0-.11,23.56,23.56,0,0,1,.5-2.7c2-7.78,7.64-11.38,16-11.49,8.9-.12,17.94-1.59,26.62,1.15a26.39,26.39,0,0,1,3,1.1,15.38,15.38,0,0,1,2.16,1.56c7.13,6.17,2.94,15.28,4.23,23,.79,4.81-2.4,11.31,3.32,14.15a11.8,11.8,0,0,0,2.77.93c.59.07,1.17.16,1.72.26,14.81,2.61,17.17,14.17,17.29,28.2,3.54-5.27,1.77-10.24,3.18-14.64,2.14-6.71,6.16-10.82,13.38-10.93,8-.13,12.34,4.36,14,11.84,1.32,6.16.56,12.44,1,18.65.31,3.87.43,8.68,4.76,9.63,10.72,2.34,21.59,3.71,32.1,7.29,5.2,1.77,5.77-3.68,6.82-7.23,2.94-10,9.59-15.12,20-15.42,10-.29,17.87,3,22.16,12.67s11.35,13.32,22,11.46c15.51-2.71,29.77,6.18,45.38,5.46,6.44-.3,8-1,8.39-7.31.24-4.59,0-9.43,1.22-13.93a18.59,18.59,0,0,1,2.27-5.31,17,17,0,0,1,1.93-2.49c17.87-4.39,23.5-.69,26.43,17.33,2.26,13.89,8.68,16.84,20.65,8.9,5.77-3.82,11.51-6.67,18.58-6.83,10.82-.23,19,3.09,21.27,14.83,2,10.3,9.68,13.73,16.74,8.27,9.61-7.42,21.78-8.18,30.69-13.75a46.67,46.67,0,0,1,14.86-6h0a76.6,76.6,0,0,1,16.7-1.54H992c7,0,14.06.45,21.08-.1a14.25,14.25,0,0,1,5.46.63,14.85,14.85,0,0,1,1.57.59c8,4.42,5.56,15.17,13.22,20.94,4.49-2.16,5.31-8.23,9.58-11a29.92,29.92,0,0,1,5.87-3h0c4.31-1.56,8.74-1.82,11.76.67a31.49,31.49,0,0,0,2.66,2A21.38,21.38,0,0,0,1080,630.66Z" fill="#1a1211"/><path d="M1004,253.45c-9.16-41.42-31.24-78.16-58.43-109.8C909.79,102,868.35,66,817.91,41.79,783.83,25.46,750,8.72,713.32,0H358.66C315.48,12.58,274.6,30.41,237.29,56.52c-9.48,6.63-18,14.45-26.93,21.64-27.8,22.23-54.93,45.86-74.94,75.33-22.44,33-37.48,70-48.28,108.7a84.87,84.87,0,0,0-2.82,34c1.37,11.24,2.61,23-6,33-2.63,3.06-2.92,7.19-1.42,11.13.15.4.31.8.5,1.19s.59.48.87.73c8,7,9.12,16.71,10.74,26.19h0c.2,1.19.41,2.37.65,3.55.19.94.39,1.87.61,2.79,4.56,11.86,2.7,24.3,3.34,36.52,0,1,.12,2,.21,3s.18,1.87.31,2.81c-1.27,14.76-1.78,29.51.14,44.25.18,1.47.4,2.94.64,4.41h0c0,4.38.16,9.14,3.83,11.8,7.9,5.73,9.62,13.53,9.33,22.48a18.08,18.08,0,0,0,2.6,9.9q.26.44.54.87a11.29,11.29,0,0,0,1.6,1.71,10.47,10.47,0,0,0,2,1.4l.14.08c1.57.68,3.24,1.19,4.76,2h0a9.47,9.47,0,0,1,2.68,1.93,20,20,0,0,0,1.58,1.49h0a15,15,0,0,0,3.3,2.17l0,0a12.09,12.09,0,0,0,10.54,0c6.48-2.93,7.52-9.14,7.81-15.54.17-3.59-.64-7.12-.77-10.7a19.37,19.37,0,0,1,.05-2.85c0-.2,0-.41.06-.61,1.38-5.67.45-11.44.93-17.13.33-3.89.81-9.11,5.28-8.93,11.47.46,22.61-7.74,34.5-.17,5.65,3.61,11,3.2,14.86-.84a14.84,14.84,0,0,0,2.14-2.81,1,1,0,0,0,.12-.19,21.3,21.3,0,0,0,1.34-2.66c.44-7.14.64-14.28.72-21.43h0c0-.44,0-.87,0-1.3.09-11.4-.12-22.79-.19-34.21h0c0-.29,0-.58,0-.86,0-3.75,0-7.51,0-11.26l-1.08-7,0,0v-.1c-1.06-7-2.08-14-2.91-21v0c-2.39-20.19-3.21-40.4,1-61.1,6.52-31.9,10.91-63.47,30.47-91.71a379.51,379.51,0,0,1,48.93-57.86c2.4-2.31,5.1-5.19,8.74-3.69,3.85,1.59,2.82,5.7,3,8.91.28,6.74.28,13.49,3.6,19.64a20,20,0,0,1,2.3,4.51c2.55,7.08,1,14.75,1.53,22.12.19,2.84.41,5.75,1.41,8v0c1.12,2.56,3.23,4.31,7.41,4.19,3.16-.09,5.09-1.22,6.3-2.91h0a11,11,0,0,0,1.68-4.77,0,0,0,0,1,0,0,48.56,48.56,0,0,0,.39-5c.14-3.35.11-6.72.08-10.08-.27-27.49,1-55-1.33-82.45,7.37,10.88,17,4.5,25.41.33C364,98.94,385.69,86.3,409.83,79.52c29.12-8.17,58.46-15.37,88.46-20.16,9.68-1.54,17.09-1.35,23.62,4.28a2.91,2.91,0,0,1,.27.24,27,27,0,0,1,2.54,2.58c10,2.84,19-1.78,28.06-4.28,85.77-23.65,165.14-8.53,240.56,31.15h0q7,3.68,13.93,7.64h0q3.09,1.74,6.17,3.56c31.14,17.7,52.95,45.23,76.15,71.31q1.57,1.77,3.16,3.53l.7.78c22.25,30.74,39.86,63.65,47.81,101,.23,1,.44,2.08.65,3.12.11.37.22.74.32,1.11,4.28,14.71,6.37,29.84,8.62,44.94l.63,4.26c0,.17,0,.33.08.5a20.45,20.45,0,0,0,1,4.52c.24.69.47,1.39.68,2.08a55.46,55.46,0,0,1,2.47,14.18,59.15,59.15,0,0,1-.69,11.64c-2.15,13.85-4.33,27.73-5.42,41.74-.08,1.08-.16,2.17-.23,3.26,0,.11,0,.23,0,.34-.4,7.56-2,15-1.25,22.66a12.44,12.44,0,0,1,.55,1.7c1.22,4.65-.22,9.22-.77,13.87,0,0,0,.07,0,.1s0,0,0,0c-.62,5.41,0,11,5.81,13.43,6.61,2.75,11.91-1.28,14.3-6.53,6-13.17,15.52-24.26,20.92-37.76a290.38,290.38,0,0,0,19.4-82.39C1010.89,309.36,1010,280.83,1004,253.45ZM314,94.73c-1.28.67.09-.8.86-1,.25,0,.44,0,.44.42a18,18,0,0,0-.46,2.53c0-.25-.07-.49-.1-.74,0-.1,0-.2,0-.29h0C314.54,94.84,314.37,94.51,314,94.73Z" fill="#fe8315"/><path d="M209.77,0c-1.54,5.33-6.54,8.84-11.62,11.55C148.78,37.94,111.21,77.88,75.07,119.13c-11.21,12.8-19,28.78-28.34,43.23C29.15,189.58,20.87,220,10.3,249.76c-.81,2.26-2.18,4.49-2.09,6.86C9.79,296.79-.52,336.8,7.06,377.1c1.91,10.11,5.52,15.73,16.62,15.3,5.32-.2,11.15-.26,14.72,4.58h0s0,0,0,0,0,0,0,0c.15.21.3.43.44.66a12.94,12.94,0,0,1,.88,1.66,4.92,4.92,0,0,1-.1.67,4.23,4.23,0,0,1-.19.72,5.87,5.87,0,0,1-1.92,2.78c-6.35,4.78-13.83,3.54-20.9,3.56-10.15,0-14.26,4.37-15.18,14.63C1,426,.75,430.3.53,434.59c-.09,1.73-.17,3.46-.23,5.2C.16,443,.07,446.2,0,449.4V3.22C1,2.12,2,1,3.1,0Z" fill="#fe6910"/><path d="M1080,241.08V394.16c-3,7.64-6.77,15-10.5,22.48-1.73,3.45-4.09,6.7-7.46,8.64a53.6,53.6,0,0,0-10.4,7.71,50.7,50.7,0,0,0-7.38,8.85v0a61.89,61.89,0,0,0-7.56,17.26h0a118,118,0,0,0-3.44,19.49c0,.11,0,.23,0,.34-.1.92-.18,1.84-.27,2.77v0c-2.58,7.76-9.27,8.87-15.5,10.78h0a25.83,25.83,0,0,0-5.87,2.43h0a14.44,14.44,0,0,0-1.82,1.31c-7.47,3.91-12.08,9.27-10.33,17.89.11.54.25,1.1.41,1.68a10.74,10.74,0,0,1,.62,2.26h0a18.74,18.74,0,0,1-.48,6.91c-.25,1.19-.52,2.37-.73,3.56a3,3,0,0,1-.2.29c-7.8,11.68-21.59,13.19-26.31,1.46-4.25-10.56-11.35-12.6-20.3-14.13-1-1-1.92-2.08-2.88-3.15a18.43,18.43,0,0,0-4.92-4.34h0c-1.87-1-4-1.05-6.5.47l-.08,0a17.43,17.43,0,0,0-3.39,2.8l-.13.13c-2.65,2.74-7.11,1.78-10.17-1.39l-.15-.15v0l-.1-.17a.21.21,0,0,1,0-.06h0a9.58,9.58,0,0,1-1.07-8c6.37-20,15.19-39.11,21.61-59.11a11.56,11.56,0,0,1,4.11-6,9.79,9.79,0,0,1,3.76-1.61c8,4.93,1.24,9.75.09,14.78-1,4.1-2.16,9.48,3,11.31,4.26,1.51,7.11-2.91,8.64-6.14,12.63-26.63,27.94-52.08,33.68-81.7,7.49-38.58,7.44-77.35,1.54-115.76C996.11,237,986,217,975.29,198.36c-18.93-32.9-41.43-63.28-70.4-88.32C874,83.37,842.12,58.34,804.5,41.35,780,30.28,755.26,19.94,730,10.64,714.74,5,698.68,3.27,682.94,0H878.89c23.71,11.69,44.49,28.34,64.61,44.88C961.85,60,983.58,72.53,996.06,95c5.78,10.42,18.59,16.06,25.62,26.81,23.71,36.24,47.33,73.15,57.38,115.34C1079.37,238.46,1079.68,239.77,1080,241.08Z" fill="#fe7813"/><path d="M377.46,0c-3.35,1.15-6.82,2-10.15,2.83-34.11,8.91-65.34,24.88-97.25,39C258,47.21,247.23,56,236.59,64.14,203.11,89.8,170.05,116.82,145,150.45c-17.89,24-34.87,50.42-40.42,81.63C103.4,238.43,98,244,96.48,250.32c-3.51,15.05-11,29.26-6.17,46.05,4.61,15.84-2.06,30.31-11.09,43.47-.29.82-.6,1.63-.92,2.41-4.54,11.07-12.17,18.15-25.46,16.89a14.58,14.58,0,0,0-3.73.06h0c-3.11.54-4.38,2.41-5,4.81-.57,2.15-.62,4.73-1,7.15-1.32,7.48,2.41,15.86-1.38,22.91a12.09,12.09,0,0,1-1.09,1.69,13.86,13.86,0,0,1-1.72,1.93l-.46.43-13-.06c-21.81-.05-24-1.8-24.13-23.33A184.41,184.41,0,0,0,0,356.22V299.31A79.25,79.25,0,0,1,2.29,289c1.08-3.63,2.19-7.72,1.58-11.3-5.86-34.23,9.85-64.56,23.37-92.49,15.84-32.75,35.63-64.49,62.22-91.62,28.63-29.22,57.63-57.33,92.19-79.34C189.16,9.46,198.29,6.62,204.2,0Z" fill="#fe7412"/><path d="M1080,0V60.76a367.16,367.16,0,0,0-34.75-34.09c-8-6.87-15.69-14.1-24.39-20.21-2.52-1.76-5.11-3.85-6.42-6.46Z" fill="#fe5c0d"/><path d="M1079.28,368.34c.19-6.84.24-13.61.72-20.32V468.89c-2.27-6.51-7.19-11.33-11.31-16.86h0a35.92,35.92,0,0,1-4.91-8.54c-2.68-7-9.62-4.73-13.75,1.25-.22.31-.42.62-.62.95-4.84,10.09-9,20.45-12.81,30.95-.29.77-.57,1.55-.85,2.33l-.18.51a7.11,7.11,0,0,1-2.61,2.26,4.36,4.36,0,0,1-3.11.15h0c-4.06-16.36,11.39-48.45,24.62-58.29C1072.34,410.28,1078.68,389.58,1079.28,368.34Z" fill="#fe6c10"/><path d="M1080,123.06V275c-3-25.22-7.44-50.13-19.87-73.31-15.31-28.54-25.93-61-49.67-83-17.12-15.87-25.07-41.12-49.81-49.13-3.21-1-5.57-5.11-8-8-13.16-15.91-31.37-25.13-47.64-37C892.89,15.56,879.27,8.9,867.22,0h85.65c36.44,19.29,62,52.2,91.84,80A223.2,223.2,0,0,1,1080,123.06Z" fill="#fe6c10"/><path d="M1078.62,132.72c-12.94-22.59-31.14-39.76-48-58.48-10.85-12.07-22.71-23.25-34.39-34.56C981.08,25,965,11.49,945.18,3.27A25.09,25.09,0,0,1,939.49,0h82c8.06,8.81,19.79,13.64,28.38,22,10.46,10.15,20.45,20.66,30.17,31.4v81.78C1079.55,134.34,1079.09,133.53,1078.62,132.72Z" fill="#fe6a10"/><path d="M1069.71,442.88c.94,7.16,5.89,11.82,10.29,16.89v24.49c-.24-.58-.48-1.16-.73-1.73-5.14-11.86-12.93-22.37-18.6-33.95-2.77-5.66-6.79-4.5-10.65-3.85-2,.34-4,.55-5.76-.47a16,16,0,0,1,0-2.4v0c.37-5.1,3.23-7.62,7.38-8.85a26.66,26.66,0,0,1,5.19-.92C1064.8,431.36,1068.89,436.66,1069.71,442.88Z" fill="#fe6a10"/><path d="M10.7,0A84.41,84.41,0,0,1,0,12.52V0Z" fill="#f1500f"/><path d="M1017.28,525.9c20.86,5.11,41.78,10,62.72,14.73v30.56c-4.88-1.22-9.76-2.43-14.65-3.57Q954,541.73,842.49,516.42c-7.59-1.73-15.34-3.39-21-8.37a19.41,19.41,0,0,1-2.21-2.23l-.1-.11a22.54,22.54,0,0,1-1.81-2.5,23,23,0,0,1-1.8-3.46c-1.13-3.73-1-7.58-.91-11.39.2-5.77.64-9.1,2.09-10.63a3.63,3.63,0,0,1,2.87-1.05h.15l.53,0a37.68,37.68,0,0,1,8.44,2.46c18.39,6.79,37.92,9.48,56.86,14.3,10.64,2.7,22.53,2.49,31.57,9.33h0c.6.46,1.18.94,1.75,1.46a27.75,27.75,0,0,1,4.75,5.66c.1.15.2.3.3.43l.06.07.15.18.13.15h0c2,2.17,5.38,2.22,8.46,1.09h0a13.67,13.67,0,0,0,2.71-1.34,15.05,15.05,0,0,1,2.48-1.28l.08,0a10.31,10.31,0,0,1,6.5-.47h0a19.75,19.75,0,0,1,7.71,4.54c1.92.07,4.27.89,5.67.08,14.44-8.36,18.19-3.09,18.07,12-.09,9.92,9.72,11,19.48,2.75a14.11,14.11,0,0,1,4.41-3.07C1005.54,522.59,1011.71,524.53,1017.28,525.9Z" fill="#b21219"/><path d="M1052.86,500.68c8.88,2.35,18.4,2.81,27.14,5.67v31.7q-14.7-3.42-29.43-6.77c-13-3-26-6.14-39.14-8.91a31.45,31.45,0,0,1-11-4.23h0a21.75,21.75,0,0,1-5-4.47c-10.35-14.51,2.23-16.45,11.18-20.37h0a47.69,47.69,0,0,1,10.79-.73h0C1029.62,493,1041.16,497.57,1052.86,500.68Z" fill="#ce2e15"/><path d="M1080,531.89V547q-40.49-9.11-81-18.1l-3.48-.78-.09-14.46c1.32.17,2.63.34,3.95.53C1026.71,518,1053.22,525.54,1080,531.89Z" fill="#c02117"/><path d="M604.68,571.42c-7,5.75-7.77,1.17-7.85-4.73-.16-11.88-.38-23.76-.58-35.64-6.9-9.15-20-11.25-25.09-23-1.63-3.79-6.6-1.9-9.64,1.48-7.16,8-13,16.53-13.84,27.66-2.51,4.38-6.61,6.19-10.91,4.07-5.46-2.69-10.24-3.33-16.22-1.36-4.52,1.49-7.77-2.46-10-6.46-2.37-4.23-2.72-9.17-5-13.44-5-8.38-1.75-17.77-3.33-26.51-2.42-13.42.59-27.65-6.34-40.45-1.57-2.89-.6-6.54,1.53-9.45,13.44-5.35,27.26-8.49,41.88-8.4,29.75.17,59.59,1.51,89.22-.37s59.24.43,88.85.47c20.17,0,40.19.45,59.61-6.88,9.06-3.42,19-2.07,28.56-1.2,21.13,1.93,26.49-2.53,27.46-23.89.18-3.83.2-7.68,1.23-11.42,1.19-4.92.06-11.52,8.25-11.37,9.94,12.67,5,26.94,4.37,40.74-.33,8.4-6.25,14.42-9.26,21.69-3.4,7.31.28,15.91-4.17,23-18.95,8.5-18.45,23.76-14.07,40.39a9.31,9.31,0,0,1-.53,5.51c-5.87,7.65-11.16,4.43-16.85-.56-8-7-16.92-8.53-26.44-2.84-2.85,2.47-5.84,4.6-9.87,4.38-9.45-5.76-19.54-1.31-29.31-1.67-21.4-.81-42.82,0-64.23-.43-8.08-.15-15,1.49-20.46,7.71-9.45,3.82-19.11,1-27.82-1.45-11-3-13.13,1.27-12.92,10.14.2,8.16-.89,16.26-.87,24.44C611.53,559.13,611.55,566.21,604.68,571.42Z" fill="#fefe83"/><path d="M200.12,386.51c-2.77-21.57-8.82-42.73-5.59-65,4.31-29.59,2.41-61,17.45-87.66,14.7-26.06,25.72-55.59,52.72-72.95,8.91-5.73,11-17.59,22.3-21.69,9.49-3.45,12.19-1.91,11.82,7.75-.33,8.63,0,17.29,0,25.94,4.37,18.82,5.41,37.56-1.7,56-.84,2.19-2.85,4.14-2.8,6.52.57,24.35-5.1,48.38-3.65,72.77.22,6-.91,12-1.11,18,.79,8.65,1.41,17.3,0,25.95,2.52,13.91-2,27.19-3.61,40.74-1,8.05,0,16.13,1.2,24.14-.3,4.25-1,8.5.42,12.7a179.16,179.16,0,0,1-1,25.16c.5,8.26,1.48,16.52.09,24.8-.49,1.57-1.06,3.13-1.63,4.67-3.39,14.59-2.17,29.36-1.81,44.12-.75,6.48-3.54,11.36-10.88,10.36-6.68-.91-9.74-5.8-9.61-12.29.14-6.83-.49-13.37-4.15-19.33,1.84-5.61-1.13-8.77-5.69-11.11-4.59-3.63-5.85-8.51-5.36-14.07-1-12.78-4-25.41-3.25-38.34-1.49-11.37-.88-22.74,0-34.11a195,195,0,0,1,0-37c-1.1-9.33-.6-18.67-.08-28-.84-3.75-.53-7.57-.72-11.37-.41-8.26,2-17.92-11.53-18.55-14.69-.68-22.91,4.12-25.66,16.53-2.92,13.2-.77,26.6-1.54,39.88C204.48,376.56,206.53,382.86,200.12,386.51Z" fill="#fd9219"/><path d="M114.2,510.15l0,0,.13,0Z" fill="#17001c"/><path d="M206.31,548.25c-4.34,0-8.68.18-13,0-9.13-.4-13.16,3.82-13,13,.22,15.87,0,31.75,0,47.63,0,5-.6,10.44-6.15,11.78s-4.84-4.77-6.69-7.7c-5.91-9.33-15.39-8.16-23.39-6.11-11.81,3-13.17-2.25-12.91-11.64.36-13-.24-26,.19-39,.26-8-3.49-13.88-8.14-19.41-3.38-4-8.8-6.31-12.69-2.22-7.53,7.9-19.47,13.48-16.94,27.79.66,3.74.27,7.69.06,11.53-.54,10,3.3,21.27-1.83,29.83-6.23,10.38-18.55,3.81-28.1,5.13-7.06,1-10.18,4.22-10.51,11.12-.62,12.83-10,12.47-18.85,11.59-9-.9-19.13-1.08-18.72-14.66.29-9.61-.05-19.24,0-28.86.07-7.49-1.37-13.54-10.7-13.7a23.21,23.21,0,0,0-4.92.39v-90c14.83,1.77,28.31,8.58,42.75,11.9,22.53,5.18,44.75,11.79,68,13.32,1.15.08,2.3.14,3.46.19h0l.06.07a51.23,51.23,0,0,0,5.49,5.76h0a48.32,48.32,0,0,0,4.26,3.42h0c1.08.78,2.18,1.5,3.3,2.17l0,0c18,10.86,40.56,9.37,60.45,15.12,6.36,1.84,14.67.71,17.62,8.1A14.65,14.65,0,0,1,206.31,548.25Z" fill="#17001c"/><path d="M511.77,519.18c4,5.12-.67,13.6,8,18.12,1.43-3.93.85-9.91,8.07-9.17,5.72.58,7.87,1.82,8.69,7.94.72,5.38,4.9,3.94,7.91.66,5.72-2.55,6.06,3.06,8.44,5.57,0,17.68.11,35.36,0,53.05,0,4.14.6,9.63-5.63,9.63s-5.33-5.5-5.66-9.63a24.41,24.41,0,0,1,0-5.73c2.18-14.33-3.48-20.82-18.18-18.34-4.58.77-9.16-3.85-13.71.07-7.57,7.31-16,3.45-24.09,1.59-14.65-3.38-28.3-9.82-42.48-14.58a15.64,15.64,0,0,0-14.34,1.41h0c-5,4-10.67,3.94-16.42,2.53-37.16-9.13-74.74-16.55-111.66-26.64-8.66-2.37-18.24-4.12-20.62-15.26.54-12.95-1.51-26,1.13-38.85l-.14-.09c12.51-2.67,23.33,4.17,34.72,6.87,41.57,9.84,83.17,19.46,125.12,27.59a26.08,26.08,0,0,1,6.62,2.74c7.62,2.24,14.43,7.21,22.86,6.76a41.39,41.39,0,0,1,21.26.75c7.55,2.27,11.63-.91,14.46-7.3A4.7,4.7,0,0,1,511.77,519.18Z" fill="#46001c"/><path d="M604.68,571.42c-1.28-7.74-.61-15.45.43-23.15,3.72-3.94,8.42-4.23,13.22-3.07,10.16,2.45,20.54,3.47,30.81,5.19,4.25,3.14,4.35,8.8,7.67,12.51,9.51,7.92,21.75,5.29,32.56,8.14,18.4,4.86,37.49,7.06,55.69,13,14.19,2.34,28,6.48,42,9.39,12.56,2.59,25,5.09,37.93,4.06v39.66l-3,2.08c-3.55-11.43-11.94-10.32-20-10.17-7.68.13-15.21.28-22.23-4.19-4.13-2.63-9.46-2.09-14.1-1-14.14,3.23-23.88-1.39-27.65-15.07-3.09-11.22-11.62-7.67-18.69-8.34-7.54-.71-11.84,3-12.8,10.42-.42,3.33-.15,6.75-.69,10-1,6-4,8.75-10,5.08-10.49-6.4-21.68-9.57-34.13-8.71-7.19.5-10.22-4.1-10.28-10.95-.06-8.16-.14-16.32-.3-24.48-.11-5.47-3.35-7.45-8.47-7.44s-8.42,1.8-8.57,7.34c-.16,6.24-.15,12.48-.34,18.72-.13,4.15-1.19,7.89-6.38,7.72-4.52-.14-6.92-3-7.42-7.32a34.61,34.61,0,0,1-.34-8.61C621.27,580.48,617.48,572.78,604.68,571.42Z" fill="#4c011c"/><path d="M281.61,522.34c31.4,12,64.46,17.83,96.94,25.81,16.69,4.1,33.48,7.76,50.23,11.63-9.79,9.46-13.68,20.85-11.88,34.42.35,2.64-1.23,5.55-1.94,8.32-1.75,6.86-6.08,11.43-13.22,10.7-6.56-.66-9.73-6.14-10.1-12.31-.5-8.38-1.55-15.08-12.52-15.24-9.87-.13-16.53,1.41-17.6,13.37-.51,5.7-3.88,13.08-10.62,13.83-6.24.69-9.23-5.92-12.12-10.85-2.66-4.54-4.59-10.27-10.93-10.15-12.93.23-14.53-7.83-14.72-18-.21-11.64,2.67-26.93-18.25-19.25-8.07-11.93-21.19-7.85-32.28-10.39-4.67-1.07-4.17-5.94-4.19-9.7-.05-9.11.13-18.22.22-27.33,11.07,2.88,8.52,12,9.11,19.73.28,3.78-.25,8.12,5.26,8.67,5.95.59,5.37-4.08,6.06-7.7C280.5,526.31,279.18,523.47,281.61,522.34Z" fill="#2b011c"/><path d="M1080,583.93v30.8c-96.76-21.69-193-45.85-290-66.4-10.31-2.19-21-3.7-27.69-13.54q-.3-.84-.51-1.65l0-.1c-1.42-5.5-.07-10.45,3.75-14.93.33-.22.66-.42,1-.61.6-.35,1.2-.66,1.79-.93a19.64,19.64,0,0,1,8.64-1.79h0c5.95.09,11.77,2.48,17.53,4.22h0c1.38.41,2.76.79,4.13,1.09q17,3.7,34,7.5l.09,0c54.43,12.15,108.74,24.82,163.12,37.2C1023.85,571.2,1052,577.21,1080,583.93Z" fill="#8c001c"/><path d="M1080,608v20.8c-5.64-.27-11.25-.85-16.83-1.68-4.84-.71-9.65-1.61-14.42-2.65h0c-7-1.52-14-3.34-20.82-5.31q-5-1.42-9.93-2.78c-4.5-1.22-9-2.41-13.49-3.57a0,0,0,0,1,0,0c-32-8.17-64.2-14.77-96.17-22.74-48.26-12-97-22-145.41-33.23-6.4-1.48-13.39-3.2-15.59-11.1,0-.11,0-.22.05-.32s0-.28.07-.41c2-12.38,3.49-14.46,12.56-12.33h.06l1.77.45,1.71.46c39.12,13.66,80.16,19.39,120.26,29,58.82,14.1,117.8,27.57,176.64,41.61C1066.88,605.75,1073.46,606.81,1080,608Z" fill="#79001c"/><path d="M825,597.52c-4.18,6.74-9,9.05-17.6,6.52-20.94-6.16-43-7.87-63.68-15.39-7.62-6.42-12.57-13.4-4.83-23,6.52-5.28,13.59-3.22,20.58-1.44,63.61,16.15,128,29,191.64,45,14.12,3.55,28.15,4.88,42.55,3.09,9.2,2.59,21.17-3.77,27.41,8.43-12-.12-24.06-.27-36.1-.34-7.08,0-15-1.64-17.19,8.4-.09.42-.61,1.13-.8,1.09-19.29-4.1-29.9,16.9-48,16.51-8.77-.19-13.62-3.06-13.58-12.54,0-4.91,1.72-12.15-5.86-12.6s-17.12-4.8-22.42,4.18c-7.21,12.2-18.13,6.6-27,5.57-8.27-1-5.61-10.33-5-15.85C846.73,599,838.13,596,825,597.52Z" fill="#5f001c"/><path d="M252.53,481.81q.21,7.14.41,14.28c-8.37,1.05-16.73,2.3-25.13,3.09-5.53.52-7.05,3.8-7.16,8.55a11.18,11.18,0,0,1-2.12,1.91C203,518,150.3,505.13,140,490.53c-.23-2.84-.67-5.68-.65-8.52.17-27.27-1.9-22,21.43-22.61,5.36-.13,10.46,1.17,14.13-6.17,2.57-5.12,10.36-6.31,11.28,3.14,1.33,13.72,8.15,8,14.54,4.72l2,.61c8.91,7.27,19.76,9.47,30.62,11.43C240.53,474.43,247.54,475.79,252.53,481.81Z" fill="#45011c"/><path d="M140,490.53c25.88,10.48,52.71,16.52,80.68,17.2-1.25,18.38,3.88,37.48-5.43,56.43l-8.91-15.91c-21-8.77-43.89-9-65.65-14.54-13.78-3.51-24.56-8-26.51-23.61,3.86,1.85,9.46-.82,12,3.34,2.65,4.34,5.43,6.84,10.26,4.63,4.59-2.09,2.55-6.71,2.84-10.28C139.71,502.05,139.75,496.28,140,490.53Z" fill="#2b011c"/><path d="M1080,625.36v18.89a7.09,7.09,0,0,1-1.78-.17c-4-.83-9.9.17-10.36-5.56-.91-11.31-8.87-8.95-15.75-9.17-9.45-.3-10.78,5.93-10.84,13.29,0,3.84-1.61,6.4-5.87,6.54-3.51.11-6.29-.39-8.18-4.16-3.89-7.73-7.39-15.41-6.12-24.37-9.06-6.09-19.26-1.78-28.84-3.2-.62-.4-1.25-.76-1.89-1.1a34.78,34.78,0,0,0-9.26-3.34h0c-9.07-2-18.7-1.28-27.84-3.37l-1.26-.31c-43.43-11.32-87.41-20.48-131.08-30.9-8.81-2.1-17.7-3.88-26.56-5.73l-.11,0c-11-2.28-22-4.7-32.77-8h0q-2.3-.71-4.59-1.47c-4.09-1.37-8-2.62-11.18-5.11a15.8,15.8,0,0,1-1.77-1.62,16,16,0,0,1-2.19-3c-.16-4.88-.38-9.81,5.7-8.41a16.16,16.16,0,0,1,2.11.64c5.55,5.18,12.73,6.54,19.72,8.15,85.11,19.54,170.39,38.24,255.27,58.83C1042.79,617.05,1061.17,622.67,1080,625.36Z" fill="#71011c"/><path d="M440.41,556.86c16.92,0,32.51,5.86,48.39,10.69,6.73,2.05,13.92,2.58,20.9,3.8-.63,12.38,1.7,24.92-2.17,37.13-1.27,4-1.39,9.27-7.72,7.93-5.29-1.13-10.32-3-10.23-9.94.06-4.31-.09-8.63-.2-12.94-.17-7-3.74-10.33-10.81-10.52-8.08-.23-9.48,4.6-9.37,11.14.05,3.77-.37,7.54-.66,12.8-10.58-6.57-10.65-16-10.77-25.24-.15-12-4.33-20.41-17.4-22-.72-.65-.95-1.29-.7-1.92S440.17,556.86,440.41,556.86Z" fill="#33011c"/><path d="M552.9,542.3l-8.44-5.57c-.27-9.58-5.7-21.29,10-24.27-1-12.19,6.21-14.07,16-12.71,2.33.32,4.65.66,7,1-4.6,17,16.69,12.38,19.28,23.2.53,2.2-.29,4.73-.49,7.11-10.53-.08-21.07.22-31.57-.34C556,530.25,552.13,533.66,552.9,542.3Z" fill="#6b051c"/><path d="M440.41,556.86c0,.95,0,1.91,0,2.86l-11.58,0c5.25-3.26,5-9.93,8.92-14.89C441.84,548.53,439.71,553.06,440.41,556.86Z" fill="#2b011c"/><path d="M896.65,176.59c24.72,31.49,43.64,65.7,49.78,105.92-3.62,4-8.34,4.19-13.27,3.95-57.18-2.81-114.25,2.38-171.37,3.39-31.08.55-62.34-.93-93.4,1.76-70.44,6.09-141,5-211.62,6.57-28.74.63-57.57,2.21-86.35,1.79-12.77-.19-22.5,7.28-34.15,9.25-10.86-14.34-8.8-31.14-8.92-47.5,0-5.65-.19-11.34.82-17,6.06-11.27,10.16-23.5,16.31-34.76,3.73-6.82,7.87-13.22,16.8-13.78,15.34,1.87,30.47,2.5,45.55-2.67,6.88-2.36,14.26.48,21.39,1.55,29.25,4.4,58.36.8,87.49-1.71a75.9,75.9,0,0,1,8.63-.55c53.43,1.52,106.72-3.13,160.13-3.54,55.71-.42,111.29-6.44,167.12-6,10.7.09,22.17-1,32.32-6.24C888.11,175,892.38,176.16,896.65,176.59Z" fill="#fefebc"/><path d="M896.65,176.59c-15.21,12-33.42,13.69-51.55,13.36-74.89-1.33-149.46,6.33-224.34,7-46.32.38-93.08-.71-139.25,5.14-22.79,2.89-44.76,1-66.95-3-5.37-1-10.27,1.15-15.37,2.74-13.75,4.3-27.46,5-40.12-3.74-4-6.2-.14-11.22,3-15.84C380.5,154.92,403.31,131.62,429,111c4.49-3.61,9.5-6.66,15.75-6.17,6.29.22,11.19-1,16.75-5.62,8.29-6.84,20.06-8.91,29.62-2.88,11.13,7,22.81,8.28,34.63,6.46,21.11-3.26,42.24-2.08,63.37-2.4,15.34-.23,30.86,1.39,45.32-5.89a17.18,17.18,0,0,1,8.5-1.36c47.3,2.4,94.52-3.35,141.88-1.3,12.66.55,22.07,8.41,33.87,9.53C850.55,120.35,874.31,147.73,896.65,176.59Z" fill="#fefed1"/><path d="M336.41,308.58c5.21-12.63,15.82-14.76,27.81-14.49,59.53,1.34,118.93-5,178.48-2.89,48,1.71,95.54-5.77,143.35-7.8,7.55-.32,15.22,2.2,22.78,1.88,46-1.91,92.15-1.38,138.07-3.62,26.28-1.29,52.7,0,79-3.05,6.62-.78,13.71,2.49,20.58,3.9,7.77,9.51,6.76,21.5,8.08,32.46.78,6.53,2.12,13,2.85,19.5-14.28,1.13-28.09-3.36-42.53-2.65-112.72,5.56-225.54,6.43-338.38,6.3-32.56,0-64.57,8.27-97.22,8.39-29.16.1-58.4-3.23-87.45,2.41a31.89,31.89,0,0,1-15.66-1c-9.22-1.44-18.39-3.4-22.63,8.87-1.37,4-5.56,6.18-10.15,6.6a11.11,11.11,0,0,1-6.66-2c-7.17-6.62-6.55-15.15-5.87-23.7,1.32-5.1-.82-10.12-.43-15.21C331.73,317.53,331.67,312,336.41,308.58Z" fill="#fefea8"/><path d="M841.4,380.76c-2.9,3.36-2.21,7.51-2.52,11.44-4.88,4.74-10.87,2.29-16.46,2.58-30.24,1.6-60.52-.26-90.73.94-55.07,2.2-110.11,6.69-165.21,5.79-44.07-.72-88,7.05-132.08,1.62-9.86-1.21-20,1.57-29.92,3.18-19.46,3.13-26.05-.19-34.2-15.59a14,14,0,0,1-.69-5.38c.57-7.13-1.46-14.61,2.74-21.28,4.85-5.63,11.36-6.95,18.3-6.66,34.18,1.38,68.22-2.33,102.28-3.73,35.1-1.46,70.06.44,105-.14,58.5-1,117.17-1.52,175.53-7.42a128.33,128.33,0,0,1,17.32-.41c43.3,1.52,86.48-2.32,129.74-2.92,6.73-.1,13.82-1.16,20.11.79,8,2.48,12.63-.82,17-6.31,4.4,20.43,3,41-.82,61.13-1,5.05-.59,9.81-1.19,14.66-16.35-.44-32.71-.49-49.06-1.05-5.42-.18-9.7-3.44-13.49-7.13-1.05-.95-1.74-2.34-2.8-3.18-4.59-3.6-.66-16.18-10.53-12.64-7.09,2.54-11.61-5.81-18.84-.71C852.49,394.28,849.52,379.58,841.4,380.76Z" fill="#fefe9c"/><path d="M818.65,101.41c-11.45,1.45-21.87-4.11-33.75-3.51-30.52,1.53-61.28-1.31-91.78.39-17,.94-33.63,7.67-50.51-.21-35.63,17-74.11,3.5-110.87,10.18-15.45,2.81-33,5.54-45.77-9.52-2.08-2.46-4.89-3.22-6.47,1-.49,1.31-.93,2.63-1.4,4-13-5.45-22.73,12.71-36.07,5.13-.76-7.5,4.74-11,9.68-14.62a194,194,0,0,1,36-20.37c9.52-3.58,18.82-7.76,28.66-10.46,2.51-.83,5.17,1.38,7.65-.36C556.43,54.61,588.65,46,622.6,45c70-2,133.78,16.52,192,55A17.19,17.19,0,0,0,818.65,101.41Z" fill="#fdfce1"/><path d="M957.64,337.26v21.55c-7.38-12.87-19.43-9.9-30.28-9.79-49,.53-98,2.18-146.9,3.55-46.45,1.29-92.9,4.16-139.41,5.69-24.93.82-49.66.17-74.49.11-61.38-.14-122.76,3.23-184.14,5.34-2.75.1-5.45,1.69-8.17,2.58-7.88-6.56-8.53-14.3-3.76-22.93,20.15-.26,40.09-4.82,60-4.94,20.95-.13,42.4,4.62,63.06,1.47,89.76-13.68,180.07-5.07,270-8.94,27.32-1.18,54.62-1.14,81.91-2.22,30.16-1.19,60.34-2.1,90.44-4.1,9.73-.65,14.35,6.57,21.46,9.84A4.39,4.39,0,0,1,957.64,337.26Z" fill="#fefea5"/><path d="M489.5,77.5C473.62,87.84,455.64,95,442,108.77c-34.06,23.83-62.52,52.84-83,89.31-11.24,13.35-16,30.33-25.09,44.89-11.72-12.78-21-26-19.62-45.14,2.07-29.44-1.5-59.08,1.78-88.56,11.08,4.72,19.18-2.6,27.9-7,19-9.71,37.7-20.45,58.1-26.71,35.17-10.78,71-19.1,107.6-23.83,8.89-1.15,15.16.38,14.27,11.28l-5.7,2.86C507.07,65.66,498.51,72.14,489.5,77.5Z" fill="#fe9118"/><path d="M114.3,510.15a0,0,0,0,1,0,0l0,.06-.07.14a15.48,15.48,0,0,1-1.35,2.17c-3.26,4.43-7.76,5-13.85,3.4-28.75-7.45-58.08-12.48-86.41-21.72C7.34,492.5,3.22,490.38,0,486.49V434.68a4.51,4.51,0,0,1,.53-.09,11.53,11.53,0,0,1,4.9.75c24.6,8.53,50.41,12.18,75.43,19a31.09,31.09,0,0,1,13.44,7A24.68,24.68,0,0,1,99,467.46c.35,1.87.47,5.28,1.09,5.38,20.3,3,12.21,18.81,13.78,30.18C114.21,505.37,114.17,507.77,114.3,510.15Z" fill="#33001c"/><path d="M99,467.46c-1.35-.59-2.71-1.16-4.08-1.69-30.21-12.06-63.48-13.41-94.64-26l-.3-.12V402.16c2.23-1.43,5.47-1.84,10-1.47,9.51.79,19.14.07,28.72,0,.3-.24.62-.47.93-.68a14.45,14.45,0,0,1,1.55-.93l.44-.22c.36-.17.74-.34,1.12-.49,17.53,2.48,35.76,2.64,50.91,12.93A48.93,48.93,0,0,1,99,415.49Q99,441.47,99,467.46Z" fill="#56001c"/><path d="M316.14,109.27c0,28.59.7,57.21-.34,85.76-.39,10.85,2.79,20.12,9.68,26.35,7.18,6.48,7.63,13.66,8.5,21.59-1.37,22,0,43.79,2.43,65.6l-.84,14c-1,.27-2.27.41-2.64-.25-11.57-20.46-29.57-18.34-48.27-13.84.87-24.34,2.19-48.68,2.36-73,.06-7.22,5.93-10.21,7.94-16.08,5.27-15.39,3.36-30.91,3.9-46.42,9.93,4.55,4.15,13.46,5.48,20.35.71,3.7,0,7.66.24,11.48.15,2.8,0,6.5,3.63,6.86,5,.49,4.75-3.91,4.78-7.06.22-20.62.28-41.24.33-61.86,0-20.09,0-40.17,2.82-60.38Z" fill="#fd5c0d"/><path d="M894.29,400.94c9.15,8.49,20.76,7.09,31,5.15,11.86-2.25,21.24.32,30.38,7q-1.62,11.29-3.23,22.6c-6.82,25.81-16.83,50.45-27.52,74.84-7.71,4-6-3.43-7.18-6.38-4.66-11.35-9.82-21.93-24-23.63-10.22-6.68-7-16-5-25.1a170.88,170.88,0,0,0-.36-31.09C887.58,416.19,885.59,407,894.29,400.94Z" fill="#fefd88"/><path d="M99,415.49c-19.19-4.64-38.84-7.44-57.38-14.64-3.17-11.79-.68-23.79-1.35-35.68-.23-4.07,2.09-6.95,6-6.36,16.35,2.47,33.85,1.1,47.53,13.21,5.82.9,5.71,5.28,5.66,9.61Q99.21,398.57,99,415.49Z" fill="#7b001c"/><path d="M200.12,386.51c.24-18.24,1.46-36.54.41-54.71-.88-15.38,7.56-22,20-22.44,34.3-1.13,29.14-5.6,29,33.9-3.82,7.67-10.39,6.86-17.22,5.77-21.84-3.47-21.85-3.42-24.11,17.54a127.56,127.56,0,0,1,.5,34.8c.31,11.57,1.51,23.12.91,34.72-1.91,5-.07,10.25-.64,15.32-.59,5.32-2.12,10.22-8.57,11.2a1.46,1.46,0,0,1,.28-1.52Q200.42,423.8,200.12,386.51Z" fill="#ce2f15"/><path d="M93.76,372c-14.64.46-28.23-4.88-42.18-8-8.2-1.84-10.3.37-10,8.08.36,9.58,0,19.18,0,28.78l-2.91-.16a6.83,6.83,0,0,0-.31-2.58c.16-12.37.38-24.74.44-37.11,0-5.18.68-11,7.43-8.53,12.55,4.58,21,1.9,26.47-10.53.61-1.39,4.26-1.44,6.5-2.11,10.58.39,13.27,7.94,14.32,16.4C94.18,361.43,93.73,366.76,93.76,372Z" fill="#95051d"/><path d="M898.14,478.55c12.54-1,20.07,6.1,21.73,18.92.57,4.35-5,12,5,13,3.83.46,7.61.81,9.43-3.78,2.34-5.94,7.48-4.84,12-4.37,6.85.72,5,6.72,6,10.94-14.53-1.13-28.18-.82-43.14-7.17C885.36,496,858.4,493.18,832.62,488c-5.5-1.11-10.09-1.83-13-11.74v23.65c.28,4.92,6,11.51-4.06,13.27,2.76-9.37,2.24-19.13,1.26-28.44-1.23-11.7,2.43-18.19,14-20.17,4.48-4.17,9.36-3,14.61-1.57C863.08,467.81,881.23,471.05,898.14,478.55Z" fill="#c62616"/><path d="M1080,482.84v29.37c-23.4-3.27-46.09-9.58-68.45-17.22h0l-4.91-1.7c6-7.33,16.58-5.35,23.21-11.42l2.91-2.9.51-.35a26.59,26.59,0,0,1,3.33-2c13.17-6.6,25.79,1.17,38.37,4.44a30.85,30.85,0,0,1,4.31,1.46C1079.51,482.62,1079.75,482.73,1080,482.84Z" fill="#e14112"/><path d="M1080,471.19v16c-14.92-1.74-29.12-8-44.26-8.27-.83,0-1.68,0-2.52,0h-.47c-1.18-7.44,1-13.77,4-19.84h0c2.45-5,5.43-9.78,7.56-14.86,11.75-12.31,14.8-11.66,22,3.14q1.14,2.34,2.4,4.62h0C1072.23,458.53,1076.33,464.74,1080,471.19Z" fill="#f6560e"/><path d="M1080,564.17v20.4c-9.89-2.45-19.79-4.87-29.75-7.08-63.71-14.1-127.17-29.33-190.87-43.49-8.92-2-17.81-4.19-26.69-6.39l-.09,0c-12.64-3.13-25.29-6.22-38.09-8.59h0q-5.13-1-10.28-1.74a17.48,17.48,0,0,1-7.25-2.48h0a8.37,8.37,0,0,1-3.43-4.64,12.46,12.46,0,0,1-.37-5.05c8.56-8.91,21-9.24,29-.77,3.77,4,6.28,10,13.44,8.82,3.1-1.8,3.63-4.37,3.71-7.08h0a1.77,1.77,0,0,0,0-.23,28.52,28.52,0,0,1,.34-5.95,24.72,24.72,0,0,0,13.32,8c48.77,10.52,97.51,21.32,146,32.76C1012.62,548.55,1046.33,556.26,1080,564.17Z" fill="#9c021c"/><path d="M374.32,386.39c2.44,12,10,17.1,21.69,14.43,32.75-7.47,65.88.19,98.64-2.92,42.66-4,85.45-.5,128-3.07q92.76-5.61,185.6-5.74c10.49,0,20.77-1.75,30.6,3.11.07,5.76-.67,11.67.35,17.26,3.31,18.31-13.63,29.34-29.71,25.28-14-3.55-27.22-1.52-41,2.48-29.12,8.47-59.21,4.91-88.64,2.64-13.27-1-25.62,1.88-38.46,1.68-31.23-.47-62.47-.11-93.7-.17-12,0-24-.72-35.43,4.39-4.79,2.14-9.4,1.06-13.77-1.49-5.84-2.63-11.48-5.06-13.34,4.54a10.68,10.68,0,0,1-4.87,6.73c-5.89,2.41-12.33,1.57-18.34,3-16.6,4-16.76,4.14-17.2-13.31-.16-6.38-1.86-12.28-3.7-18.21-1.85-4-1.85-10.49-8.19-9.36-5.34,1-3.76,6.73-4.06,10.68-.38,5.14-.85,10.21-3.16,14.95-15.22,6.46-19.87,24.21-34,31.87-8.09,3.49-15.51,3.76-21.2-4.34-4.49-9.56-2.19-19.55-1.92-29.42-1-11.64-1-23.31-.93-35C370.42,400,366.21,391.11,374.32,386.39Z" fill="#fefd93"/><path d="M749.54,545.65c-8.29-1.44-5.82,4.18-5.51,8.38,4.49,7.06-.73,9.51-5.71,12.05-18.67,14.59-23.11,13.38-32.43-9.6-2.46-6.07-5.19-9.08-11.58-4.67-9.79,6.74-24.82,3.2-31.56,17-1.38,2.82-9.56,2.84-14.11-1.1l-.24-16.52c-10.21-11-6.73-22.51-1.07-34,1.68-9.7,7.32-12.72,17.1-12.39,24.52.81,49.09.42,73.63.88,4,.07,7.61-.17,11.16-1.83,8.23-3.85,13.73-.8,17.39,6.89,2.75,2.92,2.63,5.81-.1,8.67-1.8,4.59.32,10-3,14.27C751.46,529,754.48,542,749.54,545.65Z" fill="#fcfb70"/><path d="M879.09,533.53c67.14,14.48,134,30.28,200.91,45.8v10.38c-58.44-14.17-117.14-27.19-176-39.81-40.8-8.75-81.24-19.23-121.88-28.75-5.08-1.19-10.44-1.24-15.66-1.82,0-.61,0-1.22,0-1.83,0-1.53,0-3.07.05-4.6l0-2.24,6.55-5.57a24.07,24.07,0,0,0,2.76,3.19c9.23,9,22.83,7.49,33.62,9.29C833.13,521.53,855.87,528.51,879.09,533.53Z" fill="#98011c"/><path d="M894.29,400.94q-.42,28.82-.82,57.62c-2.58.4-4.2-1-5.57-2.9-1.6-13.06-9.2-19-22.14-20.47-8.73-1-17.77-3.14-23.58-11.15l-.78-43.28c11.51-14.25,12.25.92,16.7,6.41,1.78-4.46,1-11.32,6.84-11.58,7.81-.36,7.36,8.09,9.9,13.68,4.09-4.25,2.75-13.11,9.37-11.94,6.31,1.12,7,8,7.18,14.09C891.48,394.62,893.27,397.77,894.29,400.94Z" fill="#fb5b0e"/><path d="M647.33,517.11c3.17,11.26,1.86,22.66,1.07,34-3.79,4.43-7.9,5.65-13.94,3.8-9.57-2.93-19.55-4.53-29.35-6.69-.07-8.54-.29-17.09-.14-25.63.08-4.52-1.3-9.7,4.54-12.35s11.37-2.61,15.84,1.8c5.36,5.28,7.81,6.79,8.9-2.78.66-5.84,4.15-2.69,6.35-.05S639.68,519.11,647.33,517.11Z" fill="#6c021c"/><path d="M480.93,452.94c.35-2.8.87-5.59,1-8.41.3-5.52-1.31-11.34,8-11.59,9.52-.26,7.47,6.29,8.57,11.33,11.48,21.64,6,45.1,7.2,67.83.24,4.41,3.53,5.16,6,7.08l-4.38.83c-7.12.89-7.32-4.84-8.51-9.23-4.2-15.42-5.22-16.18-21.65-11.71-3.84,1-6.51.86-8.63-2.65-4.32-10.05-2.3-20.54-2.11-30.87C466.66,456.24,474,454.75,480.93,452.94Z" fill="#83081e"/><path d="M842.18,424c13.88,2.95,27.92,5.36,41.62,9,13.39,3.56,5,15.13,7.28,22.82-.4.87-.67,2-1.39,2.44-13.66,9.14-51-2.3-57.55-17.56C828.08,430.72,840.4,430.55,842.18,424Z" fill="#e94810"/><path d="M832.14,440.74c17.73,12.49,38,15.23,58.94,15.12l2.39,2.7c-2.12,7.52-6.4,15.54,4.66,20-23.63,1-45.31-7.4-67.35-14C830.62,456.56,829,448.51,832.14,440.74Z" fill="#d73713"/><path d="M373.93,470.32c5.93,5.34,11.82,4,17.69-.11C412.72,465,431,473,449,482.43c4.13,14.41,6.76,28.76-2.35,42.44L385.9,510.73c-30.4-7.08-60.86-13.94-91.16-21.42-4.91-1.21-9.13-5.16-13.67-7.84q.26-12.83.53-25.64a13.47,13.47,0,0,1,13.13-3.93C321.22,457.64,347.93,462.46,373.93,470.32Z" fill="#60001c"/><path d="M373.49,406.66l.21,34.72c-5.37,5.77-11.94,5-18.74,3.63-24.38-4.85-48.2-12.34-73-15.32,0-3.87,0-7.74,0-11.61,2-10,.88-20.05.75-30.05-.1-8,4-10.62,10.66-9.49,23.58,4,46.83,9.66,70.08,15.21C369.86,395.28,372,400.92,373.49,406.66Z" fill="#94011c"/><path d="M282,429.69c4-5.43,8.81-5,15.09-4.1,25.86,3.83,50.2,14.91,76.62,15.79q.12,14.47.23,28.94c-11,6-21.6.31-32.07-1.77-20.13-4-39.79-10.26-60.26-12.72Z" fill="#76001c"/><path d="M373.49,406.66c-6.34-10.25-17.63-8-27-10.33-17.51-4.4-35.28-7.74-52.78-12.17-7.24-1.84-9.17.14-9.41,7.23-.31,8.9,2,18.13-2.36,26.69-1.89-22.15,1.84-44.08,2.57-66.13,4.9-4.75,10.74-3.46,16.26-2.08,12.94,3.24,26.27,5.1,38.59,10.58l5-.27a5.83,5.83,0,0,1,2.77-.51c22.53,3.12,23.9,4.54,26.16,26.9l.95-.18Q373.9,396.53,373.49,406.66Z" fill="#b81818"/><path d="M203.63,400.91q0-18.65.05-37.28c17.12-6.88,31.68.18,46,8.43q.07,18.75.17,37.5C234.68,419.6,216.45,416.19,203.63,400.91Z" fill="#95011c"/><path d="M203.63,400.91c14.88,5.76,30,10.36,46.25,8.65l.12,34.69c-14.66,12.79-35.85,8.81-46.51-8.73Z" fill="#77011c"/><path d="M203.49,435.52c14.35,9.07,29.58,13.43,46.51,8.73q1.26,18.78,2.53,37.56c-15.18-1-29.81-4.72-44.4-8.8-5.59-1.56-7.53-5.16-7.71-10.4C205.42,454,201.8,444.48,203.49,435.52Z" fill="#5b011c"/><path d="M339.4,360.45c-13,5.11-24.76-2.13-37-4.13-6-1-11.9-2.88-17.84-4.37q.1-13,.2-25.93c14.44-8.58,41.6-2.56,51.23,11.35C338.09,344.92,334.74,353.28,339.4,360.45Z" fill="#d03114"/><path d="M336,337.37c-16.2-7.75-33.65-9.86-51.24-11.35l-.09-17.56c2.88-8.74,7.33-14.07,17.59-9.25a22.81,22.81,0,0,0,9.78,1.66c14.8-.18,23.64,5.83,23.55,21.67Q335.78,330,336,337.37Z" fill="#e94911"/><path d="M249.71,372.06c-16.08,1.17-30.67-5.73-46-8.44-.71-27.63-.75-27.45,25.38-21.24,6.63,1.58,13.47,5.55,20.49.88Q249.63,357.66,249.71,372.06Z" fill="#b51619"/><path d="M281.61,522.34l-2.55,5.56c-.13-15.49-1.47-31,2.15-46.34Q281.4,501.94,281.61,522.34Z" fill="#60001c"/><path d="M446.69,524.87l-.66-43c-10.58-12.23-4.8-26.54-5.16-40.08-.28-6.6-1.36-13.47,5.74-17.68,5.55,10.68.51,22.38,3.64,34.94,8.47-13.42,20.28-4.8,30.68-6.07-5.8,3.05-10.23,6.1-9.16,14.42,1.34,10.41.63,21.09.81,31.65,9.41,10.78,6.24,21.34-.53,31.85C461.68,537,455.94,523.51,446.69,524.87Z" fill="#fbfa81"/><path d="M472.05,530.86q.27-15.93.53-31.85c3.23-4.75,2.7-14.09,13.26-9.36,7.79,3.49,21.46-.86,18.05,15.78-1,4.87-1,10.53,3.49,14.57,3.48,15.11,2.57,15.83-12,12.6C487.81,530.91,480.13,527.3,472.05,530.86Z" fill="#63021c"/><path d="M648.64,567.68c8.31,2.76,15.53,3.69,14.08-8.89-.71-6.18,1.84-8.1,8-8.32,8.37-.31,18.74,4.56,22.76-9.42,1.32-4.61,17.13,3.73,18.83,11.4.6,2.74.06,5.71.41,8.54a14.09,14.09,0,0,0,7.11,10.21c5.4,3.2,5.38-3.45,7.76-5.61s4.44-3.47,7.56-2.39a10.24,10.24,0,0,1,5.69,5.26c-4.24,7.48,1.16,13.57,2.88,20.19C716,582.2,688.24,576.23,660,572.55,656,572,651.12,572.27,648.64,567.68Z" fill="#5f021c"/><path d="M740.87,568.46l-5.69-5.26c6.62.48,9-3.16,8.85-9.17,54.15,12.6,108.37,24.88,162.4,37.94,24.57,5.93,48.89,12.82,73.87,16.88,5.34.87,10.49,2.24,12,8.6-38.48,4-73.45-12.59-110.19-18.81-42.63-7.22-83.9-20.31-126.13-29.27C751.13,568.35,746.11,564.52,740.87,568.46Z" fill="#6d001c"/><path d="M373.37,386.57c.87-20.31-20.46-16.31-28.93-26.39,5.63-1.9,6.67-6.24,7.86-11.67,2.76-12.61,7.54-13.67,18.19-5.15,4.28,7.15,2.41,15.3,3.76,22.93Z" fill="#cf3419"/><path d="M489.5,77.5c8.17-7.44,15.05-18,28.81-11.68Z" fill="#fe8315"/><path d="M446.21,441.39a226.65,226.65,0,0,1-.18,40.44c-19.27,1.43-36-8.9-54.41-11.62,5-6.21,14.27-9.92,10.95-20.85-1.25-4.15,2.3-5.11,6.13-5.45,4.92-.42,10.48,2.23,14.67-2.51C431,433.93,438.59,434.39,446.21,441.39Z" fill="#82021c"/><path d="M446.21,441.39H423.37c-.14-4.75-1.25-9.74-.18-14.2,1.47-6.17-5.81-15.64,6.66-18.12,12.72-2.53,15.07,5.66,16.76,15Q446.42,432.74,446.21,441.39Z" fill="#a0071c"/></svg>