<svg id="Layer_1" data-name="Layer 1" xmlns="http://www.w3.org/2000/svg" viewBox="0 0 1080 1200"><path d="M1080,0V331.65c-37,73.23-60.83,125.34-99.55,49.57C963.37,347.81,872.79,135.77,825.62,0Z" fill="#fff" opacity="0.05" style="isolation:isolate"/><path d="M447.56,371l15-3.63c74.14-1.63,130.49,25.37,161,113.42a43.39,43.39,0,0,1,1.06,4.22c36,148.83,101.36,120.5,87.78,246.42-3.6,33.43-44.48,90.82-179,105.67a207.08,207.08,0,0,1-164.52-54.75c-38.33-35.88-45.92-93.51-20.14-139.25,9-16,15.57-38.35,13.87-69C357.89,489.64,336.4,397.91,447.56,371Z" fill="#fff" opacity="0.05" style="isolation:isolate"/><path d="M222.71,137.27c-3.6,33.44-44.48,90.83-179,105.68A207.91,207.91,0,0,1,0,243.18V0H181.4C208.45,39.82,231.27,57.89,222.71,137.27Z" fill="#fff" opacity="0.05" style="isolation:isolate"/><path d="M147.58,59.15c-3.3,30.68-38,81.51-147.58,101.16V0H147.22C149.86,15.4,150.26,34.26,147.58,59.15Z" fill="#fff" opacity="0.05" style="isolation:isolate"/><path d="M347.39,568l9-2.17C421.63,550,488,589.11,504.8,654.09c.22.84.43,1.69.63,2.54,21.59,89.3,9,52.08.89,127.63-2.17,20.07-26.7,54.5-107.43,63.41a124.26,124.26,0,0,1-98.72-32.85c-23-21.53-27.55-56.11-12.08-83.56,5.41-9.61,9.34-23,8.32-41.39C293.59,639.16,280.69,584.12,347.39,568Z" fill="#fff" opacity="0.05" style="isolation:isolate"/><path d="M1080,0V171.93c-51.83,41.33-95.2,56.95-130.26-11.67-6.64-13-26.51-104.63-40.2-160.26Z" fill="#fff" opacity="0.05" style="isolation:isolate"/><path d="M1080,864.41v292.76a157.58,157.58,0,0,1-61.6,12.45c-87.5,0-158.43-71.11-158.43-158.83S930.9,852,1018.4,852A157.58,157.58,0,0,1,1080,864.41Z" fill="#fff" opacity="0.05" style="isolation:isolate"/><path d="M1080,959.64v102.3a79.68,79.68,0,0,1-61.6,29c-44.18,0-203.14,22-203.14-22.26s159-138.13,203.14-138.13A79.71,79.71,0,0,1,1080,959.64Z" fill="#fff" opacity="0.05" style="isolation:isolate"/><path d="M1019.9,0H1080V30.55A70.79,70.79,0,0,1,1019.9,0Z" fill="#fff" opacity="0.05"/><path d="M31.94,1010.79A175,175,0,0,0,0,1013.72v52.15a122.94,122.94,0,0,1,154.8,118.65,123.6,123.6,0,0,1-1,15.48H205q.67-7.65.68-15.48A173.73,173.73,0,0,0,31.94,1010.79Z" fill="#fff" opacity="0.05"/></svg>