<svg id="Layer_1" data-name="Layer 1" xmlns="http://www.w3.org/2000/svg" viewBox="0 0 1080 675"><rect width="1080" height="675" fill="#e67c40"/><rect width="1080" height="623.98" fill="#ffd6a1"/><path d="M957,400l123,22.34V595.78l-884.27.6L.18,596.51,0,533.64V263.72L173.1,284l195.75,23,41.55,4.88s-11.09.26-28.65.79c-53.34,1.59-166.33,5.49-208.78,11.19-8.14,1.09-8.27,3.32-2,6.28h0c37.06,17.64,298.21,61.5,443.67,50.29,170-13.1,408.35-24.65,408.35-24.65l57,4.8Z" fill="#ed9d70"/><ellipse cx="509.09" cy="237.25" rx="211.81" ry="211.81" transform="translate(-1.38 2.98) rotate(-0.34)" fill="#fcf8ef"/><path d="M605.61,440.56l-2,.94h0q-2.31,1.08-4.65,2.1l1.46,1.68q2.39-1,4.72-2.14h0l1.32-.62a224.48,224.48,0,0,0,22.21-12.14c.11-.87.21-1.78.3-2.72A221.3,221.3,0,0,1,605.61,440.56Zm129.5-225.49a225,225,0,0,0-19.53-72.61,221,221,0,0,0-11.07-21.05c-.23-.4-.46-.79-.7-1.18q-3.82-6.35-8.09-12.45c-.21-.32-.43-.63-.66-1a231,231,0,0,0-58.32-57.46l-1.3-.88-.26-.18a223.39,223.39,0,0,0-30-17q-6.42-3-13-5.6l-2.06-.8A227.65,227.65,0,0,0,349.9,75.32l-1.38,1.36a230.11,230.11,0,0,0-23.46,27.44c-.68.93-1.34,1.86-2,2.79q-1.71,2.43-3.34,4.89c-.21.31-.42.62-.62.94q-4.71,7.14-8.84,14.6-2.19,3.93-4.21,7.93c-.17.36-.35.71-.52,1.07a223,223,0,0,0-12.48,30.57,1.55,1.55,0,0,0-.07.23,227.48,227.48,0,0,0-11,70.11,229.86,229.86,0,0,0,3.76,41.53q1.77,9.6,4.33,19,2.51,9.11,5.76,17.95,1,2.78,2.11,5.51a224.26,224.26,0,0,0,20.88,40.16,228.27,228.27,0,0,0,29.68,36.46A225.29,225.29,0,0,0,487.33,463.3q4.91.48,9.86.72c3.18.17,6.38.27,9.58.29.77,0,1.55,0,2.32,0,1.13,0,2.27,0,3.4,0l1.13,0c1.09,0,2.18,0,3.28-.09a227.07,227.07,0,0,0,55.8-8.84c.57-.17,1.13-.33,1.69-.51q5.22-1.54,10.35-3.36,7.9-2.78,15.58-6.15l.11-.05q2.39-1,4.72-2.14h0l1.32-.62a224.48,224.48,0,0,0,22.21-12.14q6-3.75,11.84-7.89,6.83-4.86,13.32-10.26,8.17-6.78,15.8-14.4a231.71,231.71,0,0,0,20-22.84,224.77,224.77,0,0,0,45.48-116.19q1-10.68,1-21.54Q736.18,226.08,735.11,215.07ZM686.85,375.18a226.74,226.74,0,0,1-33,34.29Q647.31,415,640.32,420q-5.54,4-11.32,7.63a221.3,221.3,0,0,1-23.39,12.91l-2,.94h0q-2.31,1.08-4.65,2.1l-.1,0q-7.53,3.3-15.36,6-2.91,1-5.86,2l-.6.19a223.5,223.5,0,0,1-59.51,10.33l-3.12.1-1.17,0c-1.38,0-2.77,0-4.16,0h-.9c-1.18,0-2.36,0-3.54,0a.14.14,0,0,1-.09,0q-3.82-.07-7.6-.27c-2-.11-4-.24-5.95-.4A225.83,225.83,0,0,1,300.23,321.17c-.75-1.85-1.47-3.7-2.16-5.57q-3.22-8.64-5.74-17.6-2.4-8.52-4.12-17.3A225.28,225.28,0,0,1,308,136.19l.54-1.07q2.06-4,4.26-7.93,4.05-7.2,8.62-14.07c.2-.32.41-.63.62-.94q1.65-2.48,3.38-4.89,1.29-1.83,2.62-3.62a226.89,226.89,0,0,1,24.52-28A224.85,224.85,0,0,1,585.28,25.45q1.07.38,2.13.78,7,2.6,13.75,5.64a224.45,224.45,0,0,1,30,16.37l.21.14,1.41.92a227.22,227.22,0,0,1,60,58l.65.93q3.95,5.63,7.56,11.5l.73,1.18a224,224,0,0,1,31.51,95.56q.94,10.28.95,20.79,0,9.13-.73,18.1A223.76,223.76,0,0,1,686.85,375.18Z" fill="#fcf8ef"/><path d="M3.86,485.1C6.77,466,1.93,439.09,0,414.19V387.33C3.2,368.22,15.56,368,15.56,368s16.86-4.56,30.83-2.7c6.93.92,13.16,3.41,16.26,8.82C72,390.4,75.7,421,93,430.75s9.18,40.18,19,58.52.38,28.55,0,41.05,10.57,23.17,10.3,9.35S126.67,529,132,518.94c.6-1.11,1.14-2,1.62-2.8,3.88-6.12,4.48-2.12,6.5-8.1,2.26-6.74-.23-20.8,1.86-27.93s20.34-9.18,19.31,0,4.09,20.38,18.33,32.75,9,29.2,8,49.58c-.61,12.36,4.22,25.51,8.12,33.94a94.76,94.76,0,0,0,4.68,9L207.19,632,0,624s0-11.27.17-27.47C.5,560.86,1.4,501.28,3.86,485.1Z" fill="#cb6e39"/><path d="M1060.14,555.77H712.64V442.63L760.2,426l59.51-20.77L848,363.84,863.15,280s14.15-26.26,26.27-25.25a112.24,112.24,0,0,1,16.9,3.19c10.17,2.57,20.36,6,23.5,7.92,5.06,3-2,17.16,0,30.8s7.76-.5,1.86,32.84S932.85,376,942,392.12s15.15,64.65,15.15,76.77-13.14,35.36,0,25.25,35.35-36.36,35.35-36.36,20.21-21.21,27.28-14.14,11.11,11.11,18.18,27.27,4,7.07,7.07,16.17c.45,1.32.71,2,.87,2.41-.09.56.25,4.18,3.17,19.76C1055.08,541.62,1060.14,555.77,1060.14,555.77Z" fill="#673f5a"/><path d="M929.82,541.79v14H785.31L760.2,426l51.3-17.91,8.21-2.86L848,363.84l9.4-52h0L863.15,280s14.15-26.26,26.27-25.25a112.24,112.24,0,0,1,16.9,3.19s-10.84,21-7.82,38.72,3.51,6.12,7.82,23,.74,8.18,0,28.7S901.48,376,898,389.09s-7.55-7.07-6.54,27.28,3,48.48,4,54.54,4.36,31,4.36,31,2.31,7.43,8.57-5.7,14.34,15.15,14.34,19.19,1,20.2,1,20.2S929.82,536.91,929.82,541.79Z" fill="#cb6e39"/><path d="M1070.7,211.37c.11-.7.64,1.5,0,0Z" fill="#cb6e39"/><path d="M817.52,555.59l-11.47,0h-.66l-220.22.16V477s16.17-20.2,31.32-27.26a25.42,25.42,0,0,0,3.12-1.73,17.74,17.74,0,0,0,7.19-9.18c3.32-9,2.53-23.24,3.83-46.67,1.32-23.79.48-51.9,3.13-72.46,1.41-10.86,3.79-19.63,8-24.52,5-5.86,8.66-19.17,11.19-32.76a390,390,0,0,0,5-39s6.16-22,13.83-38.14c4-8.3,8.31-15,12.43-16.41,7-2.32,9.91-8.95,12.89-14.76,2.22-4.32,4.45-8.18,8.31-9.48,4.5-1.5,17.12-3.74,30.32-3.66,1.5,0,3,0,4.5.11s2.92.17,4.36.32a60.68,60.68,0,0,1,13.24,2.6,36.87,36.87,0,0,1,5.17,2.15,21.9,21.9,0,0,1,7.07,5.55c13.13,16.16,12.12,46.47,9.1,62.63s5,47.48,5,71.72,8.09,132.33,4,152.53a64.09,64.09,0,0,0-.55,17.68,119.27,119.27,0,0,0,3.42,19.38c3.75,14.47,10,28.34,17.34,35.67C822.57,525.46,817.52,555.59,817.52,555.59Z" fill="#cb6e39"/><path d="M791.38,475.65c-5.33-3.57-10.73-7.21-13-8.78-5-3.53-2.52-17.17-6.06-29.8s-26.26-5.55-33.34-10.6,1-18.19,3.41-41.42,4.68-125.25,4.68-143.94,5-40.91,7.07-62.12c1.83-19.23-7.55-34.84-9.32-37.59A61.06,61.06,0,0,1,758.08,144c5.06,1.67,9.37,4.15,12.25,7.7,13.13,16.17,12.12,46.47,9.09,62.63s5.05,47.48,5.05,71.72,8.09,132.33,4,152.53C786.57,448.31,787.9,462.24,791.38,475.65Z" fill="#673f5a"/><path d="M763,188.53V349.65l-4,159.59L730.7,459.75s3-62.62,2-66.66,12.7-91.54,9.67-110.74-11.69-31.7-11.69-31.7V218.33l11.62-8.59s9.08-7.06,9.08-15.14-2-19.71-8.07-24.76c-4.88-4.06-3.58-21.89-2.87-28.74,1.46.08,2.95.16,4.4.31a60.59,60.59,0,0,1,13.23,2.6,36.38,36.38,0,0,1,5.17,2.15C764.55,165.87,763,188.53,763,188.53Z" fill="#673f5a"/><path d="M810.63,555.6H798.51l-7.08-11-23.24,3.54L762.64,533l-3.53-10.11,6.3-9.08,14.91,16.66s4-13.64,3.87-21.26-13-19.65-17-24.19,0-35.28,0-35.28l13.57,6.49a119.27,119.27,0,0,0,3.42,19.38c3.75,14.47,10,28.33,17.34,35.67C815.68,525.46,810.63,555.6,810.63,555.6Z" fill="#673f5a"/><path d="M670.71,296.66s-18.93,13.44-16.66,23,3,28.7,3,28.7l-3.22,55.87v30.31l4,41.1.75,27L670.71,527l11.37-65.92,5.3-28.78V480s-3,25.15-3,29.25,3,26.82,3,26.82l7.52,19.7h-68l6.71-40.92,7.58.76,9.09,10.61L648,487.58l-7.58-37.8s.76-22,0-28.87-3-49.24-3-49.24l12.12-37.12-1.39-26Z" fill="#673f5a"/><path d="M886,330.06c-2,3.7,2.9,14.78-6.65,35.8-10.11,22.22-29.69,3-21.92,45.46s4.74,24.24,7.77,55.55,6,4,6,4,8.16,37.27,8.16,38.34,1,32.54,1,32.54l-3,14H835.87s8.09-17.28,0-46.52-24.5-46.42-24.37-50.46-.13-2,0-20.2,0-30.47,0-30.47l8.21-2.86L848,363.84l9.4-52c0,.88.77,37.22,6.76,36.53C869.08,347.81,882.66,333.72,886,330.06Z" fill="#e67c40"/><path d="M47,146.24,294.1,167,0,202.84V23.41C16,25.88,345.82,76.84,389.4,80c44.67,3.22-78.89,36.9-165.82,28.44S47,146.24,47,146.24Z" fill="#eda780"/><path d="M858.21,492.88v6.55a5.27,5.27,0,0,1-5.26,5.26H827.3V492.88Z" fill="#402236"/><path d="M825.69,409.6h3.22a7.3,7.3,0,0,1,7.3,7.3V521a0,0,0,0,1,0,0H818.39a0,0,0,0,1,0,0V416.9a7.3,7.3,0,0,1,7.3-7.3Z" fill="#874f20"/><path d="M858.21,470.58v29.47a4.5,4.5,0,0,1-.24,1.48,4.65,4.65,0,0,1-4.4,3.16H846.4V470.58a5.92,5.92,0,0,1,5-5.84,6.29,6.29,0,0,1,.88-.06,5.89,5.89,0,0,1,5.9,5.9Z" fill="#874f20"/><path d="M796.4,479.34h21.24A9.67,9.67,0,0,1,827.3,489v2.14a0,0,0,0,1,0,0H796.4a0,0,0,0,1,0,0V479.34A0,0,0,0,1,796.4,479.34Z" transform="translate(1623.7 970.48) rotate(-180)" fill="#874f20"/><path d="M808.2,457v34.11h-4.38a7.42,7.42,0,0,1-7.42-7.42V457a5.91,5.91,0,0,1,4-5.57h0a5.69,5.69,0,0,1,1.94-.33A5.9,5.9,0,0,1,808.2,457Z" fill="#874f20"/><path d="M831.75,472.22h0a.83.83,0,0,1-.83-.83v-11.5a.83.83,0,0,1,.83-.83h0a.83.83,0,0,1,.83.83v11.5A.83.83,0,0,1,831.75,472.22Z" fill="#402236"/><path d="M802.72,470h0a.42.42,0,0,1-.42-.42v-5.75a.41.41,0,0,1,.42-.41h0a.41.41,0,0,1,.41.41v5.75A.41.41,0,0,1,802.72,470Z" fill="#402236"/><path d="M823.56,454.82h0a1.12,1.12,0,0,1-1.12-1.12V438.23a1.12,1.12,0,0,1,1.12-1.12h0a1.12,1.12,0,0,1,1.12,1.12V453.7A1.12,1.12,0,0,1,823.56,454.82Z" fill="#5c3616"/><path d="M836.22,508.4v35H818.39V418.51a8.91,8.91,0,0,1,7.53-8.8v91S825.32,508.4,836.22,508.4Z" fill="#402236"/><path d="M818.39,491.14H803.82a7.42,7.42,0,0,1-7.42-7.42V457a5.91,5.91,0,0,1,4-5.57h0v33.33s.12,3.62,7.84,5.39A45.78,45.78,0,0,0,818.39,491.14Z" fill="#402236"/><path d="M858.21,435.45v63.13a6.11,6.11,0,0,1-6.11,6.11h-5.7V435.45a5.91,5.91,0,0,1,4.3-5.68,5.7,5.7,0,0,1,1.61-.23A5.91,5.91,0,0,1,858.21,435.45Z" fill="#874f20"/><path d="M802.77,437v4.08a3.6,3.6,0,0,0,.25,1.32,3.1,3.1,0,0,0,2.84,2h15.08V437Z" fill="#402236"/><path d="M806.45,419.44h0a3.69,3.69,0,0,1,3.69,3.69v21.22h-3a4.38,4.38,0,0,1-4.38-4.38V423.13A3.69,3.69,0,0,1,806.45,419.44Z" fill="#402236"/><path d="M858.21,498.58a6.11,6.11,0,0,1-6.11,6.11h-5.7V435.45a5.91,5.91,0,0,1,4.3-5.68v64S850.53,498.58,858.21,498.58Z" fill="#402236"/><path d="M855,475.52h0a.63.63,0,0,1-.62-.63v-8.63a.62.62,0,0,1,.62-.62h0a.63.63,0,0,1,.63.62v8.63A.63.63,0,0,1,855,475.52Z" fill="#402236"/><path d="M804.94,440.4h0a.41.41,0,0,1-.42-.41v-5.75a.42.42,0,0,1,.42-.42h0a.41.41,0,0,1,.41.42V440A.41.41,0,0,1,804.94,440.4Z" fill="#874f20"/><path d="M1080,7.07s-535.65,14.37-512.12,35c15.09,13.26,295.78-.23,303.77,24.4S647.34,94.34,713.19,108.7,1080,141.4,1080,141.4Z" fill="#eda780"/><path d="M554.09,30.23c9.32-1.36,20.53-2.69,33.32-4l4.7-.47C703.37,14.77,925.26,5.9,1080,1.29V.3c-55.36,1.7-154.52,5-253.28,9.55-86.8,4-156.32,8.15-206.61,12.36-11.28.94-21.25,1.86-30.06,2.75l-4.77.49c-14.3,1.5-25.34,2.91-33.86,4.22-27.74,4.26-28.88,7.42-29.37,8.76a2.32,2.32,0,0,0,.94,2.62c5.41,4.75,38.35,6.61,82.79,7.69,8.62.21,17.67.4,27,.56l3.93.07c9.07.16,18.41.3,27.93.45C740.52,51,831.44,52.42,865.72,61.7h0c7.89,2.13,12.77,4.69,13.77,7.75a4.11,4.11,0,0,1-.55,3.68C871.11,85.38,806.74,92.83,755,98.82c-21.93,2.54-39.51,4.63-52.16,6.65q-4.29.69-7.81,1.36l-2.28.46c-7.27,1.52-11.62,3.06-12.81,4.79a1.8,1.8,0,0,0-.34.92c0,.85.45,1.89,3.25,3.15a59.26,59.26,0,0,0,11,3.2c2.36.51,5,1,7.86,1.55l2.79.51c72.67,12.65,282.91,27.39,375.49,33.48v-1c-93-6.12-304.44-21-376.19-33.64q-1.45-.24-2.82-.51-3.76-.69-6.92-1.38c-7.89-1.72-11.2-3.13-12.54-4.1-.74-.54-.88-.94-.87-1.19v0c.12-1.63,5-3.23,12.77-4.81.73-.15,1.5-.3,2.29-.44,2.68-.51,5.64-1,8.84-1.51,14-2.18,32.45-4.32,50.59-6.42,54.63-6.33,116.55-13.5,124.69-26.15a5.19,5.19,0,0,0,.66-4.56c-1.69-5.2-13.2-9-31.19-11.75h-.07c-18-2.78-42.48-4.57-70-5.79l-1,0C743,50,702.85,49.39,664.69,48.79c-10-.15-19.86-.31-29.51-.48l-4-.07L619.9,48c-5.56-.11-11-.23-16.29-.36-42.32-1.08-74.88-2.94-79.94-7.39-.8-.71-.76-1.19-.65-1.49C524.08,35.84,535.25,33,554.09,30.23Z" fill="#eda780"/><path d="M55.12,567.53H241.9S269,534,353.64,534h132.5l110.52-5.07s61.89-46,165.65-15.68,148.47,49.49,199.55,31.93,118.13,8,118.13,8V668.31L0,668.88V624C-.27,593.2,24.34,567.53,55.12,567.53Z" fill="#cb6e39"/><path d="M998.68,564v9.78a7.65,7.65,0,0,1-.66,3.14,7.85,7.85,0,0,1-7.21,4.72H952.5V564Z" fill="#402236"/><path d="M1015.19,523.42v6.1a5.17,5.17,0,0,1-.39,2,4.62,4.62,0,0,1-4.24,2.94H988v-11Z" fill="#402236"/><path d="M1015.18,502.73v25.15a6.46,6.46,0,0,1-.35,2.12,6.54,6.54,0,0,1-6.19,4.43h-4.47v-31.7a5.51,5.51,0,1,1,11,0Z" fill="#874f20"/><path d="M992.33,519.55h0a.62.62,0,0,0,.63-.62v-8.59a.62.62,0,0,0-.63-.62h0a.62.62,0,0,0-.62.62v8.59A.62.62,0,0,0,992.33,519.55Z" fill="#874f20"/><path d="M957.92,444.79h4.82a10.91,10.91,0,0,1,10.91,10.91V611.24a0,0,0,0,1,0,0H947a0,0,0,0,1,0,0V455.69a10.91,10.91,0,0,1,10.91-10.91Z" fill="#874f20"/><path d="M914.15,549h31.73a14.45,14.45,0,0,1,14.45,14.45v3.19a0,0,0,0,1,0,0H914.15a0,0,0,0,1,0,0V549A0,0,0,0,1,914.15,549Z" transform="translate(1874.48 1115.63) rotate(-180)" fill="#874f20"/><path d="M931.79,515.66v51h-6.55a11.09,11.09,0,0,1-11.09-11.08V515.66a8.77,8.77,0,0,1,2.59-6.23,8.91,8.91,0,0,1,3.33-2.1h0a8.82,8.82,0,0,1,11.72,8.33Z" fill="#874f20"/><path d="M967,538.36h0a1.24,1.24,0,0,1-1.25-1.24V519.93a1.25,1.25,0,0,1,1.25-1.24h0a1.25,1.25,0,0,1,1.24,1.24v17.19A1.24,1.24,0,0,1,967,538.36Z" fill="#402236"/><path d="M923.59,534.41h0a.63.63,0,0,1-.62-.63v-8.59a.62.62,0,0,1,.62-.62h0a.63.63,0,0,1,.63.62v8.59A.63.63,0,0,1,923.59,534.41Z" fill="#402236"/><path d="M973.65,592.42v30.81H947V458.1A13.31,13.31,0,0,1,958.27,445V580.88S957.37,592.42,973.65,592.42Z" fill="#402236"/><path d="M947,566.63H925.24a11.09,11.09,0,0,1-11.09-11.08V515.66a8.77,8.77,0,0,1,2.59-6.23,8.91,8.91,0,0,1,3.33-2.1h0v49.8s.18,5.42,11.72,8.07A68.89,68.89,0,0,0,947,566.63Z" fill="#402236"/><path d="M952.85,505.32h0a1,1,0,0,1-1-1V490.14a1,1,0,0,1,1-1h0a1,1,0,0,1,1,1v14.15A1,1,0,0,1,952.85,505.32Z" fill="#874f20"/><path d="M998.68,530.62v44a6.8,6.8,0,0,1-.37,2.22,6.92,6.92,0,0,1-6.57,4.71H981v-51a8.83,8.83,0,0,1,7.5-8.72,9.53,9.53,0,0,1,1.32-.1,8.83,8.83,0,0,1,8.82,8.82Z" fill="#874f20"/><path d="M998.68,478.13v94.33a9.13,9.13,0,0,1-9.13,9.13H981V478.13a8.82,8.82,0,0,1,6.41-8.49,8.71,8.71,0,0,1,2.41-.33A8.82,8.82,0,0,1,998.68,478.13Z" fill="#874f20"/><path d="M998.68,572.46a9.13,9.13,0,0,1-9.13,9.13H981V478.13a8.82,8.82,0,0,1,6.41-8.49V565.2S987.19,572.46,998.68,572.46Z" fill="#402236"/><rect x="992.9" y="523.25" width="1.87" height="14.76" rx="0.76" fill="#402236"/><path d="M1014.83,530a6.54,6.54,0,0,1-6.19,4.43h-4.47v-31.7a5.52,5.52,0,0,1,3.91-5.28v29.92S1007.93,529.92,1014.83,530Z" fill="#402236"/><path d="M364.4,493.51V602.42H342.49V493.51a11,11,0,0,1,9.26-10.82,10.63,10.63,0,0,1,1.7-.13,11,11,0,0,1,10.95,10.95Z" fill="#874f20"/><path d="M315.46,568.28h26.1a11.89,11.89,0,0,1,11.89,11.89v2.63a0,0,0,0,1,0,0h-38a0,0,0,0,1,0,0V568.28A0,0,0,0,1,315.46,568.28Z" transform="translate(668.91 1151.07) rotate(-180)" fill="#874f20"/><path d="M330,540.86v41.93h-5.39a9.12,9.12,0,0,1-9.12-9.12V540.86a7.24,7.24,0,0,1,2.12-5.13,7.32,7.32,0,0,1,2.74-1.72h0a7.26,7.26,0,0,1,9.64,6.85Z" fill="#874f20"/><path d="M358.91,545.75h0a1,1,0,0,1-1-1V530.58a1,1,0,0,1,1-1h0a1,1,0,0,1,1,1v14.14A1,1,0,0,1,358.91,545.75Z" fill="#402236"/><path d="M323.23,556.28h0a.51.51,0,0,1-.52-.51V548.7a.51.51,0,0,1,.52-.51h0a.51.51,0,0,1,.51.51v7.07A.51.51,0,0,1,323.23,556.28Z" fill="#402236"/><path d="M364.4,586.93v15.49H342.49V493.51a11,11,0,0,1,9.26-10.82v94.76S351,586.93,364.4,586.93Z" fill="#402236"/><path d="M342.49,582.79H324.58a9.12,9.12,0,0,1-9.12-9.12V540.86a7.24,7.24,0,0,1,2.12-5.13,7.32,7.32,0,0,1,2.74-1.72h0v41s.14,4.45,9.64,6.63A56.37,56.37,0,0,0,342.49,582.79Z" fill="#402236"/><path d="M347.29,532.35h0a.84.84,0,0,1-.84-.84V519.87a.84.84,0,0,1,.84-.85h0a.84.84,0,0,1,.84.85v11.64A.84.84,0,0,1,347.29,532.35Z" fill="#874f20"/><path d="M0,23.41s329.81,12.9,290.23,29.94-119.7,30,7,49.5c38,5.85,115.13,18.62,115.13,18.62L0,145.15Z" fill="#eda780"/><path d="M386.58,123l-50.18-8.37L322,112.18l-2.31-.38-24.36-4.07c-37.31-6.24-71.5-12-83.26-14-16.29-2.79-26.08-9-26.88-17.07-.67-6.83,5.4-14.8,17.14-22.55l1.5-1c2-1.27,2.88-2.58,2.7-4-.34-2.72-4.46-7-36.1-12.42-15.33-2.65-35.51-5.29-60.16-7.87q-8-.84-16.52-1.66C57.33,23.68,20.69,21.09,0,19.73v1C19.26,22,52.31,24.37,86.16,27.5l7.57.72c96.44,9.28,111.66,17.21,112.15,21.1.1.86-.71,1.88-2.29,2.89q-1.35.85-2.61,1.71c-11.49,7.82-17.16,15.71-16.45,22.9.85,8.57,10.86,15.11,27.49,18,11.34,1.94,43.53,7.33,79.26,13.31l27.82,4.65,2.31.38,14.34,2.39,46.2,7.71,32.76,5.46L324,134.19l-15.48.93-2.48.15L79.9,149,0,153.85v1l87.06-5.29,218.47-13.26,2.46-.15,15.43-.94,95.86-5.82,0-1Z" fill="#eda780"/><path d="M141.1,624l-77.43-6.85s-1.4-35.92,5-54.7,10.11-79.74,10.11-79.74l-16.49,18s-16-12.85-25.53-28.46,0-42.68,0-42.68,10.37,19.18,17.55,2.36-7.93-66.62-7.93-66.62h0c6.92.92,13.15,3.41,16.25,8.82C72,390.41,75.7,421,93,430.75s9.17,40.18,19,58.52.38,28.55,0,41.05,10.57,23.17,10.3,9.35S126.67,529,132,518.94c.6-1.11,1.13-2,1.62-2.8L137,546.07Z" fill="#673f5a"/><path d="M157.62,429.47h5.67a12.83,12.83,0,0,1,12.83,12.83v183a0,0,0,0,1,0,0H144.79a0,0,0,0,1,0,0v-183A12.83,12.83,0,0,1,157.62,429.47Z" fill="#874f20"/><path d="M214.78,525.32v11.5a9.14,9.14,0,0,1-.77,3.7,9.25,9.25,0,0,1-8.48,5.55H160.45V525.32Z" fill="#874f20"/><path d="M214.78,486.11v51.81a8.07,8.07,0,0,1-.43,2.61,8.16,8.16,0,0,1-7.73,5.54H194v-60A10.37,10.37,0,0,1,202.11,476h0a6.2,6.2,0,0,1,.75-.14,11.17,11.17,0,0,1,1.54-.11,10.36,10.36,0,0,1,10.38,10.37Z" fill="#874f20"/><path d="M106.12,552.06h37.33a17,17,0,0,1,17,17v3.75a0,0,0,0,1,0,0H106.12a0,0,0,0,1,0,0V552.06A0,0,0,0,1,106.12,552.06Z" transform="translate(266.58 1124.87) rotate(180)" fill="#874f20"/><path d="M126.88,512.85v60h-7.71a13,13,0,0,1-13-13V512.85a10.34,10.34,0,0,1,3-7.34,10.47,10.47,0,0,1,3.92-2.46h0a10.09,10.09,0,0,1,3.41-.58A10.38,10.38,0,0,1,126.88,512.85Z" fill="#874f20"/><path d="M168.27,539.55h0a1.46,1.46,0,0,1-1.47-1.46V517.87a1.46,1.46,0,0,1,1.47-1.46h0a1.46,1.46,0,0,1,1.46,1.46v20.22A1.46,1.46,0,0,1,168.27,539.55Z" fill="#402236"/><path d="M208,514.05h0a.74.74,0,0,1-.74-.74V503.2a.74.74,0,0,1,.74-.73h0a.73.73,0,0,1,.73.73v10.11A.74.74,0,0,1,208,514.05Z" fill="#402236"/><rect x="116.5" y="523.33" width="1.46" height="11.57" rx="0.6" fill="#402236"/><path d="M176.12,603.14v22.15H144.79V445.14A15.66,15.66,0,0,1,158,429.66V589.57S157,603.14,176.12,603.14Z" fill="#402236"/><path d="M144.79,572.81H119.17a13,13,0,0,1-13-13V512.85a10.34,10.34,0,0,1,3-7.34,10.47,10.47,0,0,1,3.92-2.46h0v58.58s.2,6.37,13.79,9.49A80.27,80.27,0,0,0,144.79,572.81Z" fill="#402236"/><path d="M214.35,540.53a8.16,8.16,0,0,1-7.73,5.54h-30.5V525.32H194V486.11A10.37,10.37,0,0,1,202.11,476v55.72s.38,8.64,11.9,8.81Z" fill="#402236"/><rect x="150.44" y="481.62" width="2.41" height="19.06" rx="0.99" fill="#874f20"/><path d="M994.5,610.34,990.43,596l6.92,11,.66-21.34,1.34,19.9s.84-14.64,7.94-20.36c0,0-7,13.7-5.82,19.16l8.25-7.85L1001.87,607s11.31-8.36,13.31-14.75c0,0-2,10.25-6.39,12.64s7.05-.13,7.05-.13l-7.62,5.58Z" fill="#ffe8cf"/><path d="M1080,605.39V675H0V616l180.94,3.2s76.28-22.5,185.54-18.2,231.37-28,332.35-9.68S1007.38,613,1080,605.39Z" fill="#ffe8cf"/><polygon points="173.02 639.17 159.2 599.85 178.71 627.59 173.88 595.46 190.39 627.7 191.1 567.9 197.34 625.39 212.04 578.91 206.54 625.13 230.69 591.23 213.04 631.56 173.02 639.17" fill="#ffe8cf"/><path d="M244.77,632.43s-25.18-43.16-46.93-53.88c0,0,14.89,3.86,33.77,24.28,0,0-7.45-30-22.9-57.93,0,0,32.62,49.18,38.92,73.77l-10.3-60.26L253.92,617s14.31-79.75,0-113.23c0,0,24.61,45.3,10.3,97.81,0,0,29.19-26.62,28.62-51.44,0,0,1.14,24.77-19.46,56.86l38.34-6.67s-39.48,14.17-32.62,32.1S244.77,632.43,244.77,632.43Z" fill="#ffe8cf"/><path d="M811.46,200.45s42.61,5.49,54.32-10.47,42-38.84,61.73-22.35S960,178.27,993,184.13s36.18,9,53.21,24.47S1080,223,1080,223v21H746.05S768.72,203.17,811.46,200.45Z" fill="#fcf8ef"/><path d="M441,321.77S257.45,318.58,206,325c-16.09,2-26.6,3.68-35,5.15h0c-18.51,3.23-26.85,5.43-61.95,7.61-48,3-62.9-.34-109-.09V322.19c29.5,3,72.6,5.55,85.83-3.61,20.75-14.36-.79-27.14,29.54-20.75s41.51,7.18,55.87-11.17a28.57,28.57,0,0,0,1.85-2.64c10-16.18-12.11-20.6,20.5-22.1,34.32-1.6,31.93-33.53,67-4s35.92,30.33,55.88,38.32,49.48-2.4,51.08,8a5.8,5.8,0,0,0,1.25,2.75c2.29,2.89,7.33,4.66,12.9,5.67,9.07,1.64,19.53,1.25,21.76.35,4-1.59,24.82,6.39,24.82,6.39Z" fill="#fcf8ef"/><polygon points="921.16 624.49 460.18 623.99 462 618.11 913.02 618.11 921.16 624.49" fill="#ebd5bf"/><polygon points="903.03 618.2 447.58 661.47 451.89 667.38 921.16 624.49 903.03 618.2" fill="#ebd5bf"/><path d="M630.73,494.79l-10.94,7.44s-50.57-72.57-55.32-81.32c-2.94-5.41-13.17-21.78-23.3-36.36-2.45-3.52-4.89-6.93-7.22-10.07h0a135,135,0,0,0-9.7-11.89c-11.63-12.17-50.21-44.64-32-62.75,5.26-5.23,14-8.92,25.06,1.83s14.54,15.86,18.57,20,13.14,17.12,18.52,27.25,16.07,34.62,20.51,39.38,22.57,32.29,25.25,39.75S630.73,494.79,630.73,494.79Z" fill="#f2b08f"/><path d="M935.08,624.13c-3.86,1.51-11.86-2-15.87-2-3.54,0-43.91-12.35-60-18.87h0a47.65,47.65,0,0,1-5.12-2.31,6.58,6.58,0,0,1-.63-.38c-8.09-5.35,4.85-16,4.85-16s.5-.48,1.41-1.22c3.87-3.19,14.91-11.19,23.88-6.79,8.53,4.2,7.81,12.84,14,16.76,8.53,5.37,32.46,22.64,35.47,23.64S938.93,622.64,935.08,624.13Z" fill="#ffc2a3"/><path d="M612.61,498.56c-8.9,6.85-20,11.43-31.67,14.38-2.84.72-5.71,1.35-8.58,1.89a184.59,184.59,0,0,1-50.73,2c-3.24-.35-6.43-.82-9.55-1h0c-13.2-25.64-15.39-56.8-15.39-56.8,39.5-17.89,91.49-27.43,91.49-27.43C607.48,453,635.09,481.23,612.61,498.56Z" fill="#eb7171"/><path d="M556.38,423.84l-50.09,40S496,454.14,485,442.7c-1.76-1.83-3.51-3.68-5.19-5.48-5.47-5.89-10.23-18.4-12.63-25.67-.8-2.45-1.34-4.3-1.55-5.11a25,25,0,0,1-.57-2.74c-1.36-8.27,0-18.46-1.28-22.53-1.37-4.53-15.33-23.95-3.91-34.8s34.94-38.09,36.15-41.1c.6-1.5,1.54-7.59,2.32-13.37.39-2.86.75-5.64,1-7.75s.45-3.69.45-3.69l28.58-.52s-1,20.88.82,25.92,11.89,21.87,11.65,30.85-1.65,19.49-4.12,27a147.9,147.9,0,0,0-5.6,28.47c-.28,4.11-.14,7.63.72,9.69C534.76,408.89,542.51,414.31,556.38,423.84Z" fill="#f2b08f"/><path d="M560.87,428.78s28.46,1.17,38.38,8.74,23.42,29.69,31.44,35.31,49.62,28.1,60.58,35,38.87,23.77,52.9,26.45,25.14,4.83,36.61,8.82c15.14,5.26,71.53,38.64,78.94,40.28l-10,27.42S765,581.38,752.87,578c-8.84-2.44-24.74-6.18-34-10.21a369.31,369.31,0,0,0-55.76-18.59c-26.45-6.64-70.12-29.06-90.9-42.8s-55.82-40.3-55.82-40.3S521.84,435.36,560.87,428.78Z" fill="#402236"/><path d="M542.78,217.86c-7.82-5.49-28.28-12.74-44.54,6.89a79.06,79.06,0,0,0-4.47,11.58c-1.46,5.41-14,16.19-13.31,17.52s4.48,4.93,4.48,4.93-4.51,17.56.68,20.67,27.11,11.37,47.71-1S574.34,240,542.78,217.86Z" fill="#f2b08f"/><path d="M498.24,224.75s7.44,17.2,19.3,27.22,11.67,28.67,11.67,28.67,35.48-12.32,32.23-42.47S511.16,198.05,498.24,224.75Z" fill="#754836"/><path d="M523.32,254.78c1.66-2.47,6.84-4.47,8.79,1.57s-11.15,14.5-13.79,11.19S521.6,257.34,523.32,254.78Z" fill="#f2b08f"/><path d="M585.4,239.75a16.6,16.6,0,1,1-13.91-18.91A16.6,16.6,0,0,1,585.4,239.75Z" fill="#754836"/><path d="M655.84,487.57h0s-7.13,23.91-31,47.32c-12-5.5-24.53-11.51-35.25-17.19-3.06-1.62-6-3.22-8.7-4.77-3.6-2.05-6.86-4-9.65-5.86-20.78-13.74-56.59-36-56.59-36a168.06,168.06,0,0,1-14.85-13.45s32.34-20,51.34-37.36c3.31,2.9,11.49,5.86,15.44,6.75,0,0,22.71,2.94,32.62,10.52s23.42,29.68,31.44,35.3C634.27,475.35,644.57,481.23,655.84,487.57Z" fill="#402236"/><path d="M521.44,283.47s-13.8,5.71-23.08,8.43c.39-2.86.75-5.64,1-7.74A51.94,51.94,0,0,0,521.44,283.47Z" fill="#d69a7a"/><path d="M456.86,667.68c-13.58.39-36.32-.16-44.56,0s-18-2.75-16.47-6.12c.7-1.54,3.51-2.39,6.86-3.1a97.63,97.63,0,0,0,10.17-2.24c.46-.16.9-.32,1.3-.5,5.49-2.44,19.57-8.24,24.54-10.32,3.32-1.38,6.15-4.19,8.4-7.17l0,0A49.81,49.81,0,0,0,453,627.74s15.43.11,15.7,4.13a42.62,42.62,0,0,0,1.12,5.82c.69,2.92,1.6,6.46,2.39,10.09.63,2.85,1.2,5.74,1.54,8.44.07.52.13,1,.18,1.54C474.86,667.07,469.89,667.31,456.86,667.68Z" fill="#ffc2a3"/><path d="M456.38,137.69s2.47-8,5.67-13.11,3.69-15.89,2.95-19.36-4.62-30-6.33-31.87-4.09,2.6-3.59,5.15S458,103.43,458,103.43,453.62,77,451.78,75.59s-5-.53-5.42,3.35c0,0-5.7-1.33-4.95,5.24l1.44,13.11s-1.93-6.64-3.81-1.58c-1,2.69,2.34,17.25,2.1,20.35s5.22,20.24,5.22,20.24Z" fill="#ffc2a3"/><path d="M615.82,494.54a70.87,70.87,0,0,1-26.18,23.17c-3.06-1.62-6-3.22-8.7-4.77C580.94,512.94,605.21,503.7,615.82,494.54Z" fill="#21111c"/><path d="M589.68,433.27s-53.5,7.86-93,25.75S438,488.08,436.14,490.87s-2.1,14.92,2.19,32.86c5.14,21.54,7.8,47.48,8.71,59.49,1.61,21.22,0,55,0,55l31-.69s.4-2.66,1.73-40.58c.79-22.36,1.29-42.57-5.1-77.57,0,0,26.73-5.76,47-2.55s65.92-1.28,88.84-18S609,454.66,589.68,433.27Z" fill="#402236"/><path d="M531.15,392.18S497.71,407,467.2,411.55c-.8-2.45-1.34-4.3-1.55-5.11a25,25,0,0,1-.57-2.74Z" fill="#d69a7a"/><path d="M536.76,363.71a146.54,146.54,0,0,0-5.6,28.47s-28,9.14-68,11.65c.4-10.38,1.39-20.28.66-22.66-1.37-4.53-15.33-23.95-3.9-34.8s34.93-38.1,36.14-41.11a9.69,9.69,0,0,0,.36-1.24s23.77-.93,31.91-4.19a24.78,24.78,0,0,0,.91,6c1.86,5,11.89,21.86,11.65,30.84S539.22,356.19,536.76,363.71Z" fill="#e67c40"/><path d="M533,356.37c-3.15,14-28.23,30-40.23,17.12h0c-2.52-2.7-4.46-6.68-5.5-12.22a51.85,51.85,0,0,1-.81-7.84c0-1.39-.06-2.74,0-4.05a75.73,75.73,0,0,1,.74-10.2c4.19-29.71,24.87-33.92,24.87-33.92C537.16,303.07,537.07,338.2,533,356.37Z" fill="#ffc2a3"/><path d="M510.25,361.81s-11.14,3.63-23.84-12.44a75.73,75.73,0,0,1,.74-10.2Z" fill="#d69a7a"/><path d="M515.8,360c-6.65,3.33-16.09,4.11-23.25-9.55s-8.86-19.62-11.39-24.82-7.15-20.38-9.11-31.67-4.45-37.9-7.19-43.82-11.36-37.72-11.58-45.64-8.18-72.92-8.18-72.92l12.71-3.66S483.21,212.6,485,222.4s12.75,52.79,20,68S538.78,348.45,515.8,360Z" fill="#ffc2a3"/><polygon points="499.85 457.62 494.62 452.46 546.69 417.07 557.38 423.83 499.85 457.62" fill="#402236"/><path d="M503.25,456.92l-.6-.83c.28-.21,28.41-20.25,46.11-27.78l.4.95C531.57,436.74,503.53,456.72,503.25,456.92Z" fill="#944f7d"/><path d="M460.76,630l-1-.15c.26-1.84.47-3.9.62-6.11l1,.07C461.23,626,461,628.11,460.76,630Z" fill="#944f7d"/><path d="M562.17,461c-3.44,1.93-7,3.84-10.63,5.66l.46.92c3.63-1.83,7.23-3.74,10.68-5.68Zm-21.5,10.85c-3.5,1.58-7.07,3.1-10.61,4.52l-.48.2.39,1,1.06-.43c3.36-1.36,6.74-2.81,10.06-4.31Zm-22.36,9c-3.8,1.33-7.66,2.58-11.46,3.72l.3,1c3.81-1.14,7.68-2.4,11.5-3.74Zm-23.07,6.94c-4,1.08-7.92,2.12-11.66,3.15l.27,1c3.74-1,7.65-2.08,11.65-3.15ZM472,494.19c-4.64,1.39-8.41,2.63-11.5,3.79l.37,1c3.06-1.15,6.8-2.38,11.43-3.76Zm-22.38,12.55a1.67,1.67,0,0,1-.06-.44,2.84,2.84,0,0,1,.92-1.86l-.75-.7a3.79,3.79,0,0,0-1.2,2.56,2.8,2.8,0,0,0,.09.7c.23.85.79,3.6,1.7,8.78l1-.18C450.52,511.24,449.86,507.85,449.57,506.74Zm4.7,27.26q-.5-3.27-1-6.47l-1,.16c.33,2.08.66,4.19,1,6.31l.84,5.63,1-.14C454.82,537.66,454.55,535.82,454.27,534Zm2.47,17.46-1,.14c.54,4.08,1,8.11,1.49,12l1-.12C457.78,559.59,457.28,555.55,456.74,551.46Zm2.8,24-1,.1c.42,4.16.78,8.2,1.07,12l1-.08C460.31,583.69,460,579.64,459.54,575.48Zm1.84,24.11-1,0c.21,4.3.33,8.36.35,12.05h1C461.71,608,461.59,603.91,461.38,599.59Z" fill="#944f7d"/><path d="M573,455.76l-.55-.87c3.31-2.09,5.12-3.38,5.13-3.39l.6.84S576.29,453.65,573,455.76Z" fill="#944f7d"/><path d="M859.21,603.25a47.65,47.65,0,0,1-5.12-2.31,6.58,6.58,0,0,1-.63-.38v0l6.27-17.19S862.46,596.76,859.21,603.25Z" fill="#d69a7a"/><path d="M472.23,647.78c-11.59-1.48-24.14-8.95-25.13-9.55l-.06,0h.09l22.71-.51C470.53,640.61,471.44,644.15,472.23,647.78Z" fill="#d69a7a"/><path d="M512,465.94c2.56-8.54,6.89-12.77,7.13-13l.71.74c-.07.07-7.5,7.36-8.52,21.92l-1-.07A44.56,44.56,0,0,1,512,465.94Z" fill="#944f7d"/></svg>