<svg id="Layer_1" data-name="Layer 1" xmlns="http://www.w3.org/2000/svg" viewBox="0 0 1080 675"><path d="M.2,320.64V307.52c4.39-.56,5,3.15,6,5.81,2.31,6.12,4.85,12.21,5.39,18.84-.83-8.46,0-17.29-7.15-24.07-3.26-3.07-1.61-7.86-1.6-11.74,0-24.77,1-49.53-.19-74.32-.42-8.31,2.89-16.53,1.53-25.11-.65-4.1-1.35-7.93-4-11.22v-58.1C2.53,116,4.31,104.26,3.87,92.34c-.07-1.88-.53-3.87.24-5.55C10,73.81,12,59.35,19.17,46.85c1.25-2.17,2.64-4.35,2.95-6.82.88-7.11,5-10.29,11.75-12.24,12.54-3.61,18.44.75,18.1,13.52C51.7,51.75,50,61.48,45.25,71c-4.1,8.23-1.36,12.1,5.34,18,8.8,7.67,15.17,17.86,14.56,29.93a37.16,37.16,0,0,0,4,19.63q1.62,18.94,2.38,38c.28,7,.43,13.6,9.43,15.64,5.33,1.21,5.92,6.54,6.56,11.19-1.37-15.68-.09-31.17,1.16-46.66,1-3.95,3.79-7.9,0-11.85a18.08,18.08,0,0,1-2.18-6.12c1.44-5.53,4.74-10.83,2.1-16.88A14.78,14.78,0,0,1,88.4,119c.69-10.24.45-20.52.9-30.77.41-9.26,5-15.17,10.53-21.07,4-4.3,15-.18,17.06,6.5,3.08,10.14,6.38,20.31,5.22,31.19a20.5,20.5,0,0,1-.29,4.14c-2.13,9-.5,17.68,1.69,26.37-2.55,13.44-3,27-3.41,40.9,3.07.46,4.45-1.48,4.47-3.5.09-8.32,6.47-14.9,6.3-23.1-.11-4.63,4.18-5.48,6-8.4,5.58-8.79,6-18.85,8.56-28.38,5.7-1.22,4.72-6.3,5.84-10.17a13,13,0,0,1,1.59-5c5.89-8.8,9.67-18.72,14.83-27.9,4.64-8.25,16.33-10.93,23.15-5.6,2.63,2.06,4.31,4.51,4,7.93-1,9.83-.56,20-7.69,28.18-5.85,8.07-6.94,18.07-10.94,26.89-5.9,11.6-11.69,23.25-14.68,36-1.14,3.93-1.89,8-2.9,11.94-1,4.23-2.15,8.42-4.71,12.05-3.83,5.41-4.66,11.35-3.08,17.71.55,3.93,1.52,7.81,1,11.79.26-5.83,6.37-9.18,6.46-15.06a33,33,0,0,1,1.47-6.29c2.79-4.08,5.86-8.06,4.82-13.52s4.71-7.75,5.4-12.36a23.61,23.61,0,0,1,1-2.29c1.22-6.8,7.36-11.19,8.72-17.92,2.65-6.83,6-13.25,11.2-18.55,3-1.62,6.49-1.84,9.65-3.17,8.47-3.57,14.31.9,13,10.32-.8,5.82-1,11.69-1.83,17.49-.58,3.2-2.43,5.77-4.2,8.38-7.26,7.08-9.33,16.49-11.52,25.84-1.91,5.54-8.45,8.92-7.35,15.87-4.37,8-8.63,16-4,25.38-2.9,11-9.59,20.61-11.86,31.91-.89,4.43-5.81,5.17-8.77,7.74-4.1,3.33-4.48,8.22-4.67,12.79-.37,9.35-3,18.66-2.26,27.86.81,10.42-6.52,19.42-4.12,30.48,8.71-9.41,12.08-21.41,19.64-30.8,4.07-5.07,7.13-11.07,11.69-15.7,4.18-4.24,4.56-8.35,2.13-13.28,2.38-5-3.64-14.6,8-14.71.66,0,.35-2.24.65-3.42.46-1.8.73-4.44,2.16-4.95,12.43-4.37,15.28-18.51,25.69-24.84,2.46,0,3.08,1.42,3.08,1.44,8-9.72,20.68-17.22,30.44-27.71,5.37,4.33,6.85-1.71,9.83-3.75,5.13-7.55,14.31-6.59,21.32-10.22,4.07-.41,7.59-2.48,11.39-3.72,9.92-3.26,18.72,1.08,27.68,4.29-.19,1.8-1.61,2.78-2.65,4-2.26,2.7,1.09,6.3-1.4,9-10.62,11.43-24.45,17.54-38.51,23.26-5.49,1.43-9.22,5.25-12.71,9.39-8.53,5.6-15.72,13.06-24.84,17.82a5.56,5.56,0,0,0-3,3.41c-3,13-15.3,17.39-23.61,25.43-2.19,2.12-3.26,4.06-3,6.94-9.49.68-15,5.47-16.64,15.09-.55,3.32-3.85,5.58-5.37,8.66-3.54,8.29-8.92,15.36-14.21,22.58C172,352,167.37,366.68,158.48,378.93c-6.42,6.1-6.77,13.81-4.41,21.38,2.44,7.84,2.77,15.67,2.64,23.65.79,6.41,1.91,12.78,2.78,20.73a186.18,186.18,0,0,0,6.79-18.48c4.24-12.36,9.18-24.44,14.09-36.53,2-4.91,2.84-9.47.26-14.28-3.6-8.33,2.47-14.44,5.7-20.62C191.94,344,193.88,331,204.43,323c6-4.82,8.2-12.36,13.71-17.92,7.33-7.42,15.41-13,24.22-18,12-1.33,14.41.13,17.34,10.41-2.92,6.95-7.34,12.89-13.85,16.58A23.19,23.19,0,0,0,236,324.54c-2.64,4.49-8.79,5.77-10.27,11.31-1.83,2.1-3.83,4.08-4.82,6.8-5.95,5.87-6.28,14.21-9.31,21.36-4.29,7.71-7.22,16.65-17.31,19.09-8.18,10.75-10.7,24.06-16.3,36-1.43,3.06-2.32,6.35-3.56,9.5-9.24,20.71-7.29,42.05-3,63.33,1,4.78-1.32,13.66,10,11,3.33-.79,2.66,6.94,6.1,10.35,1.42-5,1.06-9.57,1.14-14.08.07-4.05-.26-8.16.76-12.1.87-3.39.84-9.16,5.18-8.43s2.45,6.11,2.28,8.93c2.93-7.82,2.27-18.36,12.88-22.72,3.55,3.38,1.46,7,.54,10.61-4.22,10.57-10.84,20.38-10.51,32.43A12.1,12.1,0,0,1,199,513c-.26.87-.6,1.72-.91,2.58-4.62,12.88-4.21,13.67,9.19,17.59,20.44,8.72,41,16.19,63.89,10.55,6.37-1.58,11.88,1,15.43,6.33a64.59,64.59,0,0,0,31.27,25.25c10.57,4.16,18.76,12,24.27,22.33,7.27,13.62,16.06,25.64,30.77,32.53,8.73,4.08,11.86,13.19,15.48,21.48,3,7.45,10,14,5.4,23.18q-192.8,0-385.59.17C1.63,675,0,673.85,0,666.93Q.43,519.09.2,371.24c4.65-2.13,7.93,2.21,12.3,2.73C11,355.45,1.73,338.92.2,320.64Z"/><path d="M1074,157.15c1.56-4,3.25-7.85,6-11V674.88q-155.67-.12-311.31,0c-6.48-12.57.59-22.86,6.26-32.91,4.24-7.52,9.41-14.6,14.13-21.9.58-.92,1.17-1.82,1.78-2.72.41-.61.83-1.22,1.26-1.82,8-11.32,17.83-21.3,23.84-34.14,4.18-9,12.46-13.45,20.64-18h0c1.37-.76,2.75-1.53,4.1-2.32h0c1-.61,2.09-1.24,3.1-1.89,9-6.1,15.92-14.25,22.33-22.88l.15-.2h0l.43-.57c.26-.39.54-.76.84-1.13a22.21,22.21,0,0,1,1.74-2c8.75-8.41,20.79-10.27,31.1-15.62l.32-.16q.64-.3,1.29-.57c12.09-5.28,24.89-7.19,38-7a158.53,158.53,0,0,0,42.22-4.79h0l.4-.11a4.25,4.25,0,0,0,2.93-1.14c1-1,.91-2.65.6-4.43,0-.12,0-.24-.07-.36a17.6,17.6,0,0,1,.3-2.16c1.16-5.5,4.64-2.87,8.41.33-.48-7.45-5.23-11.94-8.95-17a98.48,98.48,0,0,1-6.49-9.08c-.93-1.61-2-3.31-1.5-5.24,2-8.32,1.86-8.24-2.32-16.53-2-4.07-5.48-8.15-2.48-13.13l.12-.2.21-.32c5.5.15,6.9,4.76,8.85,8.49,4.6,8.86,8.49,18.05,12.27,27.3,3.17,7.78,5.68,7.42,12.28,3.28,12.17-7.61,15.9-15.4,12.26-30.81-3.16-13.36-5.37-27.34-8.35-41a13.46,13.46,0,0,0-7.79-9.9c-3.84-1.79-7-4.52-7.53-8.92-2-15.09-7.34-29.25-11.31-43.79l-.14-.5a15.1,15.1,0,0,0-.67-1.55c-.89-1.79-2-3.48-2.42-5.49,0-.43-.07-.86-.13-1.27h0a13.65,13.65,0,0,0-.25-1.47h0c-2-9.42-11.1-15.12-13.93-24.11-.26-.53-.53-1.05-.81-1.57-.49-.89-1-1.75-1.58-2.6h0c-3.87-6-9-11.15-11.72-17.86,0-.25,0-.49,0-.73,0-.45,0-.88,0-1.3h0c.35-11,5.43-13.21,16.51-7.1-2-1.93-3.72-3.84-4.48-6.45-.11-.62-.22-1.24-.35-1.86s-.24-1.13-.37-1.7h0c-.62-2.8-1.36-5.57-1.9-8.4,0-.16-.07-.33-.1-.49a5.67,5.67,0,0,1,0-1.65c.19-1.77.76-3.67-.76-4.45-8-4.11-9-12.62-12.92-19.31l-.2-.31-.25-.41c-3.79-6-7.62-12-11.64-17.93a3.68,3.68,0,0,0-.23-.44,18.25,18.25,0,0,0-3.13-3.76c-1.57-1.62-3-3.31-3.14-5.88,0,0,0,0,0,0-.16-.27-.11-.44,0-.57.75-.58,4.1,0,1.22-2.23,0-.26,0-.5,0-.75h0c-.15-4.16,0-6.94.89-8.93a.08.08,0,0,1,0,0c.89-1.93,2.42-3.12,5-4.11a37.81,37.81,0,0,1,3.88-1.17l.86-.22A191.58,191.58,0,0,1,958,193.08c.41.27.82.56,1.22.85l.39.27c10.82,17,22.39,33.56,30.31,52.2.17.39.34.79.5,1.19s.4.95.59,1.43c.4,5.07,3.67,9.27,6.67,12.31,9.63,9.75,11,22.27,13.78,34.47.2.91.61,2,.23,2.75-6.07,12.11,1,22.21,4.84,32.79.09.23.17.45.25.68s.22.59.34.88c7,18.35,13.92,36.71,18.79,55.81,3.55,14,12.19,25.93,16.6,39.63,1.33,4.15,3,8.18,4.16,13.57-.47-14.24-3.26-27-5.76-39.88-.53-2.75-1.46-5.43-2-8.19-.7-3.88-3-9.44,1.4-10.95,4.83-1.65,5.91,4.33,7.28,7.94,4.37,11.56,8.79,23.12,11.47,34.31a104.64,104.64,0,0,1,.55-18.61c1.75-16.55-6.31-30.92-10-46.26-1.94-8.17-4.7-16.17-7.06-24.25-.77-2.63-1.7-6.16,1.4-7.54s5,1.73,6.35,4.1c3.16,5.59,6,11.36,7.35,16.9.4-9.38-.49-19.27-1.15-29.25l-.18-3c0-.22,0-.43,0-.65-4.79-23-5.92-46.37-7.84-69.66-.07-.84-.15-1.68-.25-2.51s-.17-1.37-.26-2.05c-.94-6.73-2.57-13.35-3.27-20.12a8,8,0,0,0-5.87-7.43c-12.68-4.42-14.55-7.25-14.19-20,0-.83-.73-1.68-1-2.57a10.53,10.53,0,0,1-.15-1.86h0c0-.5,0-1,0-1.52h0a27.11,27.11,0,0,0,0-3,9.17,9.17,0,0,0-.36-1.85c0-.11-.07-.22-.11-.33-.81-3.63-2.78-6.87-3.52-10.51a12.77,12.77,0,0,1,.11-2.61c.08-.74.18-1.48.23-2.22h0a7.82,7.82,0,0,0-.27-2.89v0a5.08,5.08,0,0,0-1-1.78,5.16,5.16,0,0,0-.46-.49,9.88,9.88,0,0,1-.86-2.37c-.11-1.75-.26-3.48-.46-5.22,0-.21,0-.4-.07-.61h0c0-.3-.06-.6-.1-.9-.09-.78-.19-1.55-.3-2.33v0c-.54-4.1-1.21-8.18-1.8-12.28h0v0c-.44-3.08-.83-6.17-1.08-9.27-.17-2-.28-4-.31-6,0-2.86-2.89-4.61-4.37-6.93a15,15,0,0,1-1.08-2,10.23,10.23,0,0,1-.66-1.93,9.42,9.42,0,0,1-.29-2.21c.13-.4.25-.8.35-1.2,0-.13.07-.26.1-.39a21.32,21.32,0,0,0,.61-4.16h0a24.52,24.52,0,0,0-.75-7.2h0q-.18-.78-.42-1.56c-.06-.22-.12-.44-.17-.66-.14-.6-.24-1.2-.32-1.81h0a0,0,0,0,1,0,0c-2-8.15-1.54-16.67-3.84-24.74-3.38-11.8.53-21.69,7.59-30.93,3.34-4.38,14.08-3,17,2.49,5.72,10.71,12.62,20.83,11.14,34.21-1.15,10.38,4.44,19.62,7.06,29.42.18.67.35,1.36.5,2v.12c.48,15.42,1.78,30.82,7,45.37,2.86,8,8.6,15,6.94,24.26-.22,1.22-.17,2.17-.1.92h.12C1071.78,170.64,1071.44,163.59,1074,157.15Z"/><path d="M1080,.1V93.58c-5.12.54-10.22,1.35-15.41,1.15-3.8-.14-6.17,2.29-6.94,6.26-.38,2,0,4.69-2.06,5.65a4.84,4.84,0,0,1-2,.35c-5-14.17-10.41-28-8.21-43.88.64-4.58-5.31-10.45-7.52-16.14-2.41-6.22-7.2-9.28-14.08-8.6-.47.05-1-.46-1.5-.71,1.89,8.66-10.66,10.19-9,19.67,2.24,12.65,4.67,25.4,4.69,38.38h0a6,6,0,0,1-1.59.16c-2.85-.07-4.66-2.26-6-4.42-4.29-6.84-10.73-7.63-17.91-7.62-39,.08-78.07.17-117.1,0-10.22-.06-20.67,1.12-30.5-3.11a4.42,4.42,0,0,0-2.76-.28c-31.78,7.4-64,1.74-96,3.44-18.65,1-37.33-1-56,0-6.25.33-12.5,0-18.46-2.33-2.37-.93-4.86-1.48-7.31-.57-10.88,4-22.2,2.89-33.4,2.93-79.32.26-158.64.56-237.94-.27-22.25-.23-44.43,1.65-66.7.53-22.11-1.11-44.33-.23-66.5-.24-8.11,0-16.2-.22-24.1,2.41-5,1.66-9.76.23-14.44-2-11.57-5.61-16.27-4-23.1,6.61-2.59,4-4.43,9.8-10.65,9a10.29,10.29,0,0,1-1.75-.36c4.82-7.9,5.67-16.71,6.4-25.68.52-6.43-3.93-10.38-10.56-9.85-13.31,1.06-13.83,12.8-18.35,21.1-2.56,4.69-4.36,9.76-9.33,12.61l-1.31.47a39.33,39.33,0,0,1-9.51,2c-6.83.55-14.73-2.7-19.52,5.51-.28.47-.86.54-1.5.37a4.67,4.67,0,0,1-1.8-1c-.75-10-2.24-19.75-5.63-29.22-.85-2.4-1-7.76-3.6-5.56-3.89,3.23-5.38-5.31-11.37.81-9.93,10.13-6.27,20.72-8.15,31.12-1.06,5.88,1.33,12.09-1.44,17.88a6.44,6.44,0,0,1-1.69.37c-3.23.24-5.9-2.17-9-2.64-8-1.23-12.55,3.7-10.43,11.48,1.46,5.35,1.68,6.15-.23,8.29h0l0,0c-.33.36-.72.77-1.17,1.24a19.93,19.93,0,0,1-5.31-16.31C63.9,109,57,97.49,45.62,90.36,40,86.82,38.34,78.84,41.56,72.74c5.79-11,7.89-22.45,8.22-34.59A8.77,8.77,0,0,0,39.18,29c-7.53,1.6-12,4.41-15.38,13C18.12,56.28,14,71.17,7.24,85,6.58,86.39,5.62,88.16,6,89.35c4.09,12.79-4.1,24.74-2.4,37.37.33,2.46-2.08,1.17-3.41.89,0-40,.19-80-.19-119.93C0,1.25,1.28,0,7.7,0Q348.37.32,689,.18,884.51.18,1080,.1Z" fill="#101237"/><path d="M386.22,652.57c-4.13-10.77-10-20.11-21.33-24.51-11.13-4.3-16.51-14.06-21.46-23.59-7.89-15.2-19.48-26-35.53-30.94-11.08-3.38-15.94-12.5-22-20.22-5-6.34-9.15-8.42-17.13-6.6-14,3.2-28.34,2.89-41.49-3.48-6.92-3.35-15.68-2.15-21.09-8.84,3.07-3.49,7.3-3.11,11.27-3.12,29.24-.11,58.5-.81,87.71.23,18.56.66,35.57,8.54,51.93,16.82,5.7,2.88,10.94,5.66,17.39,5.39,4.68.81,9.49-.1,14.14,1,2.59,1.07,5.59,2.13,5.1,5.62-.38,2.75-3.33,3.24-5.4,4.57-9.63,6.2-19.69,10.1-31.42,7.18,5,.8,9.82,1.81,14.72,2.66a15.64,15.64,0,0,1,5.35,1.19,80.25,80.25,0,0,1,11.19,8.36c3.29,3,6.35,6.33,5.18,11.28-1.23,5.25-6.1,4.37-11.26,5.67,9.34,3.58,18.15,2.52,26.5,3.95a27.44,27.44,0,0,1,14,6.64c2.64,2.3,5.11,4.88,3.59,8.83-1.45,3.79-4.61,4.71-8.35,4.53a20,20,0,0,0-4.44.11c12.2-1.95,21.53,5.65,31.8,9.87,3.07,1.26,6.31,4.66,1.95,8.67-4.27,0-8.53.21-12.1,0,8,1.59,16.37-2.1,25-1.68,8.4.18,16.8-.3,25.18.32a6.71,6.71,0,0,1,4.44,2.41c-.71,4.51-4.26,3.59-7.22,3.73-7.09.33-14.23-.73-21.28.72-6.91.58-13.9-.22-20.81.43,9.16-.53,18.42.39,27.53-1.14,4.22,0,8.43,0,12.65,0a29.14,29.14,0,0,1,3.09.2c3,1.33,7.46.49,7.88,5.48-4.77,3.44-10.24-.95-15.11,1.33-1.24.17.26,1.54-.23.39-.17-.41,0-.63.64-.69a38.31,38.31,0,0,1,8.36.08c2,1.87.63,3.37-.52,4.89a6.74,6.74,0,0,1-2.4,1.22,85.12,85.12,0,0,1-9.72.11c2.62.3,5.3-.2,7.91.52a4.28,4.28,0,0,1,1.89,1.78c-.24,2.69-2,3.77-4.31,4.29-.9-.78.37.36-.84.08-.94-.21-1.06.08-.23.08,5.41,0,10.5,2.66,16,1.91,5.53.48,11.28-1.21,16.55,1.75a2,2,0,0,1,.48,2.79H448.17c-1.43-1.38-2.74-2.83-2.54-5-5.62-.79-11.44,1.11-16.95-1.25-5.86-2.9-12.54-3.32-18.37-6.21-2.81-1.39-6.73-2.24-4.75-7a75.78,75.78,0,0,1,18.43.67c12.2-.13,24.35,1.19,35.59.53-5-2-11.27,1.69-17.31.12-13.32.42-26.66-3.91-40,.17-4.21.59-6.29-.4-3.62-4.9,3.66-2.93,7.58.14,11.1-.46,1.5,0,0-2,.4-.82-7.56.67-15.26-.82-22.7,1.54Z" fill="#14143a"/><path d="M660,674.83H596.24c-2.21-1.07-2.21-3-2-5-5.63-.33-11,.68-16.49,1.6-3.32.56-6.77.57-9.72-1.71a4.24,4.24,0,0,1-.91-2.68,3.93,3.93,0,0,1,1.29-2.49c12.57-3.4,25.6-1.29,38.3-3.11a9.92,9.92,0,0,1-2.71.2c-2.68-.13-5.9.23-6.43-3.4-.42-2.91,2.13-4,4.36-5a19.52,19.52,0,0,1,4.3-1.41c3,0,6.26-2.2,8.93.91,9.35,7.29,19.86,4.1,29,4.49-.6.59-2.53.49-4.55-.56-1.92-4.22,1.62-5.31,4-7.06,2.85-1.35,6.22-2.11,6.8-6.05a11,11,0,0,1,1.13-2.25c6.22-5.43,14.6-6.59,21.45-10.9,3.23-2,6.4-3.73,8.08-7.29-.49,1.16-.16-1.6.7-.76.24.24,1-.51.64-.46-3,.47-6.11,1.34-8.24-2,.38-7.76,6.59-7.08,11.55-7.57,5.27-.53,10.65-.2,13.72-5.76,4.8-2.1,9.29-.36,13.8,1.1,4.38,3.62,1.67,6.82-1.31,8.8-5.16,3.42-5.94,7.81-4.59,13.19-2.39.74-2.38,2.63-2.15,4.64-2.75,4.92-7.82,6.91-13.6,10.54,7.2,1.47,13.28.69,19.26.91a48.68,48.68,0,0,1,7.45.37c2.73.52,6.11.86,5.89,4.61-.17,3-3.12,3.62-5.6,3.92a60.58,60.58,0,0,1-17.68-.36c-9.75-1.65-19.44-3.8-28-2.92,3,.19,7.54-.12,12,.06,5,10.59,3.48,14.43-6.78,17.34C672,670.54,665.19,670.34,660,674.83Z" fill="#1d1842"/><path d="M791.19,620.49c-4.12,8.71-10.23,16.15-15.26,24.26-5.56,9-8.6,19.15-7.24,30.08H705c-.08-5.91,8.84-19.1,14.79-20.92,5.45-1.67,8.79-3.6,9.14-10.45.29-5.72,6.65-7.66,11.64-9.36a28.18,28.18,0,0,1,14.7-.58c.3.06.57.32.86.34,2.17.15.26-.45.09-.78-3.58-8.22.08-15.94,1.51-23.83,9.66-2.48,19,.26,28.32,1.94C790.45,612,794.21,614.76,791.19,620.49Z" fill="#0a0726"/><path d="M757.45,633.57l5.21.3c-7.28,2.78-15.38-.57-22,3-3.9,2.09-15.79,1.73-7,12.2,1.66,2-.75,3.19-2.78,3.24C716,652.69,712.4,666,705,674.83H660c.11-5.12,4.32-5.57,7.79-6.59a87.43,87.43,0,0,1,10.87-2.4c6-1,9.94-2.7,5.33-9.63-1.08-1.62,1.55-2.27,2.29-3.49,4.7-2.29,9.55-1.42,14.39-.62,7.23,0,14.54,1.16,24.51-1.48-7.71-2.94-13.14-1.76-18.34-2s-10.56,0-15.82-.25c-2.62-.14-5.22-1.73-5.27-4.39s2.82-2.67,5-2.91c6.32-.69,10.09-5.32,14.25-9.34,5.87-4,12.56-2.34,19-2.7,5.23-.29,10.54.65,15.67-1C746.64,626.36,752.92,627.18,757.45,633.57Z" fill="#140e34"/><path d="M.2,185.71c10.64,2.37,6.49,11.62,6.83,17.43.62,10.43-2.39,21.05-2,31.52.36,9.74,2.45,19.56.88,29.21C3.83,276.7,7.17,289.51,5,302.21c-.28,1.66-.8,3.24.54,4.13C17.37,314.23,12,326.27,12.69,337,7.2,327.71,6.63,316.32.2,307.52Z" fill="#342a4c"/><path d="M405,656.36c4.77,4.88,11.45,5.2,17.42,7,2.68.82,5.43.85,6.94,3.65,5.23,3.46,11.64-1,16.87,2.5l1.9,5.28H393.81c0-8.28-4.17-15.15-7.58-22.26l.62-.87c4.33-1.44,8.63-2.49,12.56,1-1.32,2.32-.87,3.57,2,3.33C402.74,655,404,654.93,405,656.36Z" fill="#0f0b30"/><path d="M.2,320.64c6,18.52,14.67,36.34,14.87,56.69-6.16-.24-9.94-4.57-14.87-6.09Z" fill="#5a446d"/><path d="M532.52,674.83h-3.75a7.34,7.34,0,0,0-2.31-1.59c-2-.62-5-.3-5-3.09,0-3.37,3.16-4.11,5.78-5,10.28-.13,20.64-2,30.79,1.22-1.07,4.84-2.15,5.65-8.17,6.49C544.1,673.62,538,671.43,532.52,674.83Z" fill="#f2f2f4"/><path d="M532.52,674.83c1.88-4.34,5.83-3.89,9.4-3.8a39.25,39.25,0,0,0,16.74-3.3c2-2.65,4.5-2.56,7.18-1.19,1.81,5.2-1.91,6.33-5.55,7.23-2.94.73-6.19-.82-9,1.06Z" fill="#cac8d2"/><path d="M551.26,674.83c4.54-3.21,11.6-1.18,14.82-7.13a1.15,1.15,0,1,1,2,1c4.56,3,9.59.79,14.37,1.31,2.08,1,3.3,2.36,2.51,4.81Z" fill="#9c85ab"/><path d="M585,674.83l-1.66-3.46c5.8-3.43,12-3.61,18.41-2.29.06,3.74-8.09-.4-5.51,5.75Z" fill="#5d5977"/><path d="M528.46,673.48a4.9,4.9,0,0,0,.31,1.35H510a3.35,3.35,0,0,0-.27-1.53C516.05,667.22,522.23,672.49,528.46,673.48Z" fill="#797190"/><path d="M973,434.92c2.59,12.18,11.23,21.82,14.43,34-3.79.28-4.45-4.18-8.3-4.59,2.27,6.8,7.17,11.58,11.25,16.58a33.89,33.89,0,0,1,7.16,13.76c.53,2.22,3.19,5.05.35,6.66s-4.33-1.65-5.58-3.64c-2.61-4.15-4.16-5.14-4.28,1-4.2.2-5.8-3.33-7.89-5.83-6.91-8.24-15.5-11.73-26.31-11.64-48,.38-96.08,0-144.13.05-74.18.13-148.36.54-222.53-.1-73.27-.64-146.53,1.15-219.8-.21-24.3-.45-48.64-.48-72.92-.54-23.65-.06-47.38.63-71.07.79-5.5,0-11.46.55-15.21-5.06q1-5.62,2-11.23c0-.44,0-.88-.06-1.31,1.35-4.63,3.95-8.72,5.66-13.2a16.23,16.23,0,0,1,1.5-2.33c2.9-3.15,5.13-7.14,9.91-8,26.89-.93,53.43,3.06,80,5.9,24.23,2.58,48.2,6.49,70.9,16.06,6.51,2.75,13.45,1.84,20.32,1,33.28-4,65.43-12.79,97.15-23.31,11.23-3.72,22.24-6.17,33.42.14,3.09,1.73,6.72,1.32,10.09.51,30.42-7.31,61.56-9.57,92.49-13.37,21.3-2.62,41-10.31,60.4-19,3.7-1.65,7.49-3.09,11.2-4.68,7.08-2.51,13.21-6.87,19.8-10.35,8.36-4.4,16.84-8,26.68-6.29,3.44.58,6.74-.82,10-1.86,20.21-6.46,39.86-14.06,57.09-26.86a36.88,36.88,0,0,1,10.74-5.54c7.14-1.52,14.22-1.34,20.86,1.77,16.52,7.73,32.37,4.05,48.14-2.33,4.45-1.84,6.85,1.21,9.54,3.87,12.22,12,22.72,25.52,32.82,39.32,1.47,2,2.57,5.06,4.87,5.5,15.23,2.92,18.63,17,26.23,27.15a16.92,16.92,0,0,1,3,5.78C972.93,434,973,434.46,973,434.92Z" fill="#0d0f35"/><path d="M931.84,198.81c1.58,2.42-.74,1.65-1.66,2-3.89.26-4.6-2.94-5.28-5.45-3-11.32-10.46-14.14-21.66-14.12q-217.23.45-434.46.14c-52.7,0-105.4.14-158.11-.19q-42.56-.27-85.17.13c-8.84.1-17.52.14-24.41,7a5.48,5.48,0,0,1-6.14,1c.58-10.15,2.16-19.86,11.45-26.2,7.06-12.79,18-14.87,31.78-13.81,35.18,2.72,70.49,1.73,105.73.49,8.17-.29,16.17.81,24.24.68,67.05-1.13,134.11,1.27,201.17-.26,12.07-.28,24.27.38,36.41.37,56.76,0,113.51-.26,170.26.09,50.78.32,101.55-.51,152.32-.08,6.24.05,12.5-.22,18.6,1.5a8.35,8.35,0,0,0,4.62.4c21.22-6.59,42.79.16,64.14-1.71a14.92,14.92,0,0,1,10.62,2.93c2.73,1.82,1.19,5.3,2.92,7.52a10.8,10.8,0,0,1,.22,1.8c.27,3.16.26,6.36,1.46,9.38,1.94,3.55,4.4,6.93,3.93,11.31-1.46,3.18-4.17,4.76-7.32,5.83-17.06-.1-34.1-1.26-51.19-1.07-7.18.08-13.51,1-18.41,6.69-5.82-3.42-12.38-5.72-16.85-11.18-7.27-.48-10.13,1.61-9.69,7.76C931.52,194.17,929.56,196.68,931.84,198.81Z" fill="#211e45"/><path d="M185.79,99.51c6.46-2.28,9.12-7.73,11.27-13.57,2.77-7.53,15.39-11.51,22-6.66,6.42,4.74,12.6,7.66,20.41,2.38,2.23-1.51,6.05-.86,9.14-.87q57.15-.06,114.3,0c4.71,0,9.31,0,13.59-2.54,3.42-2,7.25-4.9,9,2,.4,1.56,2.24,1.82,3.95,1.68,32.09-2.56,64.23-.85,96.35-1.05,54-.33,108.05-.1,162.07-.07,5.66,0,11.3.06,15.91-3.91,2-1.72,3.74-1.52,5.92-.32,12.2,6.77,24.69,4,37.68,2.52,6.31-.75,13.62,1.88,20.75,1.82,32.79-.28,65.58-.1,98.37-.17,3.08,0,6.92.52,9.09-1,5.1-3.66,8-6.6,14.24,0,3.08,3.3,12.29,1,18.73,1,41.54,0,83.07.33,124.6-.2,9.85-.13,16.91,2,21.07,11.3.69,1.55,2.51,2.6,3.81,3.88h0c-1.2,5,2.7,11.74-5,14.5-17.27-3.56-34.54-3.06-51.92-.71a88.57,88.57,0,0,1-27-.24c-14.3-2.53-28.56-1-42.71-1-24.91.12-49.93.63-74.75.25-73-1.1-146,.11-219-.62-5-.05-9.91,0-14.8,1.5-5.76,1.73-11.59,2.18-17.35-.52-3.5-1.64-7.39-1-11.1-.93q-93.6.38-187.22.18c-55.84,0-111.69.47-167.52-.39-6.05-.09-10.34,1.32-12.75,7-3.59,4.84-4.45,12.36-12.51,12.85C177.67,118,177.47,107,185.79,99.51Z" fill="#16163c"/><path d="M1027.28,155.74a50.28,50.28,0,0,0-14.72-2c-16.4-.15-32.8-.63-49.19-1-.61,0-1.49-.64-1.77-.41-10.64,9-22-.17-33.06,1.17-12,1.46-24.32.33-36.5.33-22.8,0-45.62-.66-68.39.14-43.87,1.53-87.7-1.14-131.56-.24-36.52.75-73.07,1.56-109.56.66-41.63-1-83.24.06-124.85-.53-20.05-.29-40.1.29-60.13-1.65C391.78,151.68,386,154,380,154c-39.51-.22-79-.05-118.52-.15-9,0-18,.69-27-1.63-11.77-3.06-20.17,3.71-28.11,11-.36-3.31,2.51-5,3.76-7.51,2.8-4.68.91-10.26,2.92-15.1,8.8-17.4,8.75-16.33,28.49-15.4,14.77.69,29.8,1.68,44.6-.8,6.71-1.11,12.81,2.71,19.44,1.87,10.54-1.36,21.09-.66,31.69-.48q56.58,1,113.18.55c5.6,0,11.27.35,16.08-3.56,2.4-1.94,5.3-2.32,7.77-.28,5.65,4.65,12.32,3.83,18.81,3.83,83.68,0,167.36-.29,251,.13,53.88.28,107.76-.53,161.64-.17,19.61.14,39.22-.34,58.83-.22,14.73.09,29.73,1.94,44.61-1.17,9.52-2,16.25,3.18,15.37,12.54C1024,144.22,1026,149.73,1027.28,155.74Z" fill="#1e1c42"/><path d="M208.13,476.13a44.79,44.79,0,0,0,15.66,1.95c22.71-1,45.49,1.72,68.18-1.74,7-1.07,14,1.9,21.3,1.87,66.42-.26,132.84-.15,199.26-.15,49.5,0,99-.47,148.5.15,35.68.45,71.36-.51,107.09.66,20.35.67,41.46,1.17,62.12-1.47,4.82-.61,9.84.61,14.77.62,35.91.07,71.84.69,107.73-.25,17-.44,27.53,7.14,35.25,20.9,1,2.89,4.42,6.38-1.89,7.41-1.9-2-4.31-2-6.89-2.05-5.93,0-11.86-.16-17.79-.16q-353.53,0-707.07.1c-18.51,0-37.32-2.54-55.39,4-2.81-.27-3.77-1.6-2.58-4.31C200.39,494.55,201.79,484.29,208.13,476.13Z" fill="#14143a"/><path d="M1027.28,155.74c-3.78-5.34-9.14-9.48-4.36-17.9,2.65-4.7-5.22-11.22-11.52-10.3-12.31,1.8-24.6,4-36.86,0-2.76-.91-3.15.6-3.55,2.62-.34,1.7-1.17,2.8-3.24,2.07-15.78-5.55-31.93-3.17-48.14-2.93-43.68.66-87.38.22-131.08.24-4.31,0-8.72-.66-12.52,2.5-1,.86-3.37,1.43-4.36.86-11.4-6.63-23.78-3.14-35.61-3.19-83.33-.35-166.66-.17-250-.21-5.09,0-10.86,1.6-13.54-5.17-.72-1.81-2.86-1.93-3.57-.16-2.91,7.23-9.08,5.3-14.41,5.31-27.47.1-55,1.26-82.37-.42-15.73-1-31.5,2.17-47.09-1.33-5.34-1.2-10.53,2.36-15.65,1.62-14.3-2.07-28.68-.54-43-1.08-14.12-.54-28.33,1.11-42.45-1.69-3.18-.63-4.38,2.09-4.36,4.78,0,4.85-2.8,8.05-5.74,11.29-2.69-5.85,2.6-13.85-7-18.1-3.68,2.38-9.76,4.22-15.44,7L182,150.1a27.74,27.74,0,0,0-9.29,18.77h0c-5.05,2.83-7.75,6.94-6.58,12.86,1.08,5.47-3.74,8.81-4.61,13.54l-.25,7.31c-4,2.67-7.24,10.45-12.87,1.87C145.91,197.62,147,191,152,186.17c3.6-3.48.83-9.27,5.55-11.73,2.87-3.38,2.76-7.27,1.92-11.29,1.59-13.27,8-24.53,14.95-35.55,4.71-2.43,5.52-8.15,9.47-11.23,3.37-7,8.26-10,16.52-8.66,12.34,2,24.86.38,37.3.35q155.94-.32,311.86-.1c7.15,0,14.44-.61,21,3.21a4.67,4.67,0,0,0,4.48.43c10.9-5.61,22.63-3.55,34-3.58,63.68-.19,127.36-.33,191,.06,26.15.16,52.37.72,78.48.56,39.82-.24,79.68,1,119.51-.64,8.33-.35,16.17,1.41,21.89,8.32,4.68,3,5.55,6.78,6.2,12.62.78,7-1.91,15,3.56,21.85,1.63,2-.3,7-.6,10.55C1027.08,160,1027.4,157.79,1027.28,155.74Z" fill="#19183e"/><path d="M195,189.42c13.8-16.5,32.66-11,50-11.09,53.7-.32,107.41-.12,161.12-.12H908.15c13.36,0,18,4.12,19.84,17.76.25,1.91.39,3.72,2.19,4.87,2.43,3,6.47,4.84,7.17,9.23-3.29,1.3-6.26,0-8.85-1.65-8.81-5.72-18.52-6.53-28.7-6.48-43.68.19-87.38-.56-131,.27-42.07.79-84.18-2.14-126.17.45-23.13,1.43-46.07-2.34-69.09-.37a11.19,11.19,0,0,1-7.32-.8c-18.89-9.67-37.84-8.78-56.87-.48-6.64,2.19-13.3,2.11-20.26,1.52-13-1.1-26.2-1.54-39.19.51-9.16,1.45-18-1.18-27-1.13-19.64.11-39.28,0-58.92,0-12.1,0-24.31-1-35.94,3.64-3.81-1.72-5.78-4.62-5.58-8.87A3.65,3.65,0,0,1,326,195c-8.93-9.31-20.75-10.18-33.16-2.3a24.87,24.87,0,0,1-4,2.28c-3.56,4-8.73,4.53-13.37,5.42-4,.75-5.8,2.91-7.5,5.89-4.19,2.57-8.37,1.34-12.57,0a26.12,26.12,0,0,0-16.8-4.62c-15.44.71-31.2-2.39-46.17,4a4.41,4.41,0,0,1-5.09-1.37C187.13,198,190.06,193.2,195,189.42Z" fill="#2a244b"/><path d="M375.1,556.75c-7.63.58-13.35-2.7-20.17-6.32-14.56-7.72-30.44-15.19-47.14-15.78-33.83-1.19-67.73-.29-101.6-.26-15.59-.57-17-4-9.08-22.55a22.45,22.45,0,0,1,9.19-1.33c50.47,3.86,101,1.18,151.54,1.63,27.11.24,54.25-.4,81.35-.91,20.11-.38,40.47.1,60.6-.43,19-.49,37.86,3.08,56.91.15,11-1.7,22.42-1.14,33.59.58a66.8,66.8,0,0,0,16.81.68c26.41-2.66,53-1.41,79.3-.85,34.94.75,69.86.81,104.78.78,33,0,66.13,1.77,99.15-1.31,2.81-.26,5.73-.14,8.19,1.35,2.8,1.69,5.58,3.74,1.38,7-9.39,6.19-21.4,7.24-29.9,15.18-3.87,2.48-8.19,2.67-12.62,2.66-15.3,0-30.61.22-45.9-.09-12.55-.26-24.79,2.47-37.25,3.11-7.5.38-14.38,4-20.67,8.19-4.9,2.51-10.2,1.84-15.39,1.73-2.44,0-5.39-.25-6.53-2.67-1.55-3.25,1.61-4.79,3.48-6.66a3.13,3.13,0,0,0,1.19-3.09c-7.06-1-14.37-.13-21.63-.49a206,206,0,0,1-25,.06c-9.92,1-19.85-.44-29.77.14a272.12,272.12,0,0,1-30.36-.15c-34.16-.15-68.31-.08-102.46,0-23,.45-46,1.06-68.95,0-10.34,0-20.69,0-31,0-17.49.09-35,.09-52.61,1.15,4.66,3.43,10.25,4.25,14.92,7,3,1.77,6.2,3.66,5.21,7.83-1.07,4.48-4.93,2.45-7.75,2.79C383,556.28,378.91,554.79,375.1,556.75Z" fill="#1f1c43"/><path d="M967.39,303.78c4.67,6.77,9.45,13.47,14,20.35,1.49,2.26,2.44,5,.57,7.66-12.16-11.48-27.34-9.79-42.19-9.78q-306.16,0-612.33,0c-19.65,0-39.3-.29-59-.18-11.52.06-22.85,1.27-34.22,2.51,1.25-5.42,3.8-9.74,9.46-11.61,7.38-2.43,8.62-11.2,15-14.65,4.31-7,11.13-8.51,18.59-8.38,73.35,1.28,146.73-2.4,220.06,1.08,4.26-.05,7.71,2.09,11.09,4.3,16.69,10.89,34.22,11.64,52.43,4.44,3.72-1.47,7.39-3.47,11.62-1.74,10.11,2.28,20.34,2.72,30.66,2.72,90.74-.08,181.49.15,272.23-.17,25.22-.09,50.42-2.58,75.68-1.74C957,298.81,963.09,298.47,967.39,303.78Z" fill="#4d3b65"/><path d="M499.06,292.45c-4.77,4-10.39,1.32-15.26,1.09C430.9,291,378,293,325.09,293c-7.37,0-15.35-.45-23.3,2-3.49,1.07-11-.77-16.47-1.72-9.94-1.73-18.23.48-26.59,4.84-2.26-9.11-8.67-10.65-16.73-9.17-1.44-2.34,2.07-6.64-3.08-7.54-4-.7-7.25.09-9.86,3.59-2.88,3.87-4.21,10.56-11.64,7.45-4.21-3-1.09-5.68.9-7.59,3.11-3,7.81-4.73,10.08-8.15,3.36-5.05,11.36-5.25,11.48-14.38.1-7.39,11-8.34,15.6-14.25,3.45-4.39,9.72-6.56,14.74-9.72a22.66,22.66,0,0,1,9.07-3.93c25.78-2.33,51.61-1.15,77.41-1.07,9,0,17.45-6.12,25.13-4.49,8.07,1.71,15.86,4.42,24.35,4.36,20.56-.14,41.11-.07,61.66,0,4.35,0,8.75-.3,12.89,1.5,3.49,2,4,5.54,3.79,8.89-.94,15.56,4.41,29.15,12.5,42C498.34,287.63,499.74,289.75,499.06,292.45Z" fill="#3d3159"/><path d="M898.05,352.54c-1.18,1.42-2.14,3.75-3.58,4.11-13.41,3.32-27.24,8.39-40.69,3-8.95-3.62-17.47-5.9-26.93-5.07C821.29,352,815.33,352,809.41,352q-104.29-.06-208.58,0c-5.61,0-11.25,0-16.55,2.24-4.17,2.28-7.93.71-11.11-1.86-10.77-8.71-21-6.16-31.37.77-4.13,2.76-7.81,7.57-14,5-6.51-1-13-.47-19.55-.47-80.11-.05-160.22-.23-240.33.11-19.5.08-39.58-3.75-58.18,5.89,3.51-7.4,2.37-16.87,9.94-22.48,6.14-6.69,14.11-8.7,22.78-8.79,16.85-.18,33.71-.07,50.56-.07H525.26q169,0,338,0c7.44,0,15.07-.77,21.84,3.52,2.73,1.69,4.06,4.65,6.13,6.94C893.45,346.05,897.25,348.25,898.05,352.54Z" fill="#55416b"/><path d="M899.9,519.15c2.28-7-3.24-5.57-6.41-5.36-9.61.63-19.13,1.9-28.83,1.86-48.42-.24-96.85.53-145.26-.37-25.64-.48-51.35,1.1-76.93-1.65-8.83-.94-17.3,1.79-26,2-13.1.26-26.21-2.17-39.12-1.56-24.78,1.16-49.71,1.57-74.26.43-18.27-.85-36.47,4.44-54.71-.56-9.08-2.49-18.48,1.67-27.83,1.67-65.29-.06-130.58,0-195.87-.11a104.9,104.9,0,0,1-27.55-3.62L199,508c4.89-6,11-7.64,18.82-7.63q378.57.3,757.13.3c4.1,0,10.89-3.37,11.19,5.4-11.32,3-22.65,6-34.48,5.68C933.93,511.23,916.58,512.73,899.9,519.15Z" fill="#18173d"/><path d="M234.24,324.36c5.9-4.74,12.62-5.72,20.1-5.71,204.13.14,408.25.52,612.37-.33,30.06-.13,60.1,1.66,90.12.31,11.35-.51,19.85,2.82,25.1,13.16l4.82,6c-1.51,1.11-3.14,2.38-5,2.25-22.52-1.55-44.1,5.44-66.23,7.28-6.37-.67-8.78-7.15-14-9.59a56.13,56.13,0,0,0-10.09-4.09c-3.48-.15-6.94,2.24-10.43.08-6.84-3.15-14.14-2.19-21.25-2.2q-132.06-.12-264.14-.05c-103.95,0-207.91-.14-311.86.12-19.71.05-39.73-2.92-59,3.95C223.55,328.1,231.06,328.07,234.24,324.36Z" fill="#4f3d66"/><path d="M482.3,236.45c-27.79,0-55.59-.06-83.38-.17-6.08,0-12.62,1.13-16.69-5.38-.73-1.17-1.85-1.59-2.94-.21-5.16,6.5-12.71,5.24-19.5,5.52-25.54,1-51.14-1.48-76.66,1.33-1.75.19-3.63-.76-5.45-1.18-.88-4.51,4.78-4.25,5.52-7.58a11.4,11.4,0,0,1,1.58-.92c13.71-5.15,25.93-12.89,37.59-21.61,1.22-.83,1.82-3,4-1.8,8.69-7.25,19.11-5.57,29.17-5.6,19.31-.07,38.62,0,57.92,0,17.6-.07,35.16,2.33,52.8.1,14.56-1.85,29.2,3,43.8-.08.85,3.13-1.59,4.6-3.45,6A53.48,53.48,0,0,0,487,231.38C486.23,233.62,485.5,236.29,482.3,236.45Z" fill="#2b254b"/><path d="M209.76,363.67c6.5-10.4,16.73-9.4,27-9.39q141,.23,282,.14c4.16,0,9-1.52,11.76,3.48-10.25,12-21.57,22.22-38.89,20-6.6-.84-12.68,3-19.19,1.08-26.58-4-53.25-2.73-80-2-24.81.68-49.63,1.75-74.46.87a15.86,15.86,0,0,1-7.16-1.83c-2.18-1.38-3.68-3.22-3.78-5.92-.35-5.48-4.23-4.39-7.68-4.05-12,5.64-25.38,8.76-34.37,19.86a8.1,8.1,0,0,1-10.27,2,120.15,120.15,0,0,0-46.76-3.39c-5.33.68-11.24,2.44-14.84-3.92C203.21,379.31,203.82,368.89,209.76,363.67Z" fill="#5f4772"/><path d="M224.73,335.52c6.74-7.48,15.48-7.5,24.72-7.5q309.22.23,618.46,0c6.6,0,12.24,1,17,5.76,4.56.56,3.25,3.07,1.86,5.61-4.9-3.16-10.27-3.84-16.06-3.83q-92.68.19-185.37.08H560q-158.49,0-317,0a47.56,47.56,0,0,0-23.3,5.61C219.73,337.84,221.36,335.91,224.73,335.52Z" fill="#534069"/><path d="M193.23,380.59a13.88,13.88,0,0,0,10.85,1.72c14.91-4.06,29.68-.32,44.5.24,3.83.14,7.57.89,8.45,5.66-5.59,8.93-14.55,14.82-20.79,23.22-2.51,3.38-4.78,6.16-4.08,10.78.88,5.76-2.14,9.47-7.63,11.25-17.25,2.25-34.18-.86-51.17-3a2.77,2.77,0,0,1-1.17-3c5.25-13.23,10.44-26.49,15.81-39.67C189.12,385.09,189.72,381.73,193.23,380.59Z" fill="#6c507c"/><path d="M172.19,427.52c.17.56.35,1.13.54,1.69,13,1.76,25.93,3.54,38.61,6.91,3.25.86,6.64,1.36,9.5,3.35,2.66,4.65-1.61,7.17-3.24,10.51l.05-.07c-3.64,4.46-5.09,10-7.55,15.07l.05-.08C202,472.43,201.83,484,195.55,494c-.33-5.37-.6-9.62-.9-14.6-6.71,12.59.2,26.54-6,38.57-6.39-2.68-7-7.8-6.75-14-2.09,2-2.32,6.63-6.42,3.57-3.16-2.35-5.61-5.26-6.16-9C165.76,474.68,160.79,450.75,172.19,427.52Z" fill="#0d0f34"/><path d="M56.35,335.62c8.59,15.18,15,30.79,9.29,49.14-3.41-1.07-3.15-5.19-6.44-6.89.85,8.38,8.26,15.29,4.69,24.23-3.38-.17-2.54-4.07-5-4.88C58,406.49,52,402.66,48.93,400a84.59,84.59,0,0,0-20.15-13.32c-4.35-1.94-4.48-5.47-4.47-9.3,0-14-.67-28,2.42-41.83-1.11-7.51,2-10.47,9.69-10.53C51.31,324.93,53.35,325.66,56.35,335.62Z" fill="#59436d"/><path d="M187.36,204.36c17.86-8.18,36.85-5.19,55.47-5.38,5.56-.06,12.23-.42,14.16,7.35.56.45.77.92.62,1.41s-.32.76-.5.76c-6.89,13-21.19,18.33-30.17,29.26-1.92,2.34-1.35-3.17-3.61-3.13-8.88-12-20.82-6.66-32-5.51-2.59.27-4.7,3.1-7.73,1.66C178.26,222.32,179.67,212.28,187.36,204.36Z" fill="#2b254b"/><path d="M56.35,335.62c-5.47-11.19-16.11-7.26-24.85-8-4.5-.4-1.81,6-4.77,8-5.65,3.3-2.36,10.74-7.83,15.19,2.28-17-6.4-35.45,10.8-48.64,1.22-4.52-1.37-9.12.31-13.62l.34-3.47c4.56-7.88,10.37-9.62,19.59-7.13,8.71,2.34,7.27,8.48,6.55,14.65-.16,8.12-1.08,16.37,9,20.21,2.8,1.06,2.1,5,2.13,7.71.09,8.1,0,16.2,0,24.77C61.39,344.44,62.93,335.16,56.35,335.62Z" fill="#4a3962"/><path d="M187.62,281.29c4.38,4.94,5.3,8.36-.41,14.41C173,310.7,164.8,330,153.32,347c-.3.45-.93.68-2.83,2-.13-9.28-.9-17,2.41-25.58,3-7.68,2.11-16.83,2.9-25.33.65-7,1.36-14.06,1.79-21.1.25-4.1,1.67-7.21,5.52-9,2.1-1.48,4.7-.93,7-1.94,13-5.65,17.95-2.32,17.5,11.42C187.61,278.8,187.63,280,187.62,281.29Z" fill="#44365e"/><path d="M67.57,138.9c2.6-1.77,1.13-3.89.27-5.7-2.63-5.57-5.67-10.51,1.37-15.83,6.7-5.08,12-1.84,17.85.72a20.29,20.29,0,0,1,3.06,2,10.27,10.27,0,0,1,.1,1.84c-.38,5.67-5.16,10.8-2.06,16.89l2.22,5.59c.86,3.77,1.5,7.54-.11,11.29-.1,10.59.85,21.33-.67,31.72-1,7.1,1.84,13.93-.32,20.94-3.79-.64-3.14-4.28-3.77-6.45-1.44-5-3.17-7.71-9.23-8.56-6.59-.91-8.08-8.76-7.8-13.52C69.27,166.12,66.14,152.56,67.57,138.9Z" fill="#221e44"/><path d="M116.61,382.44c-5.24,3.23-3,10.46-7.68,14.49V330c8.28-8.63,13.33-9.1,20.69-1.91,8.57,1,10.58,5.81,11.88,14.26,1.92,12.57-3,25.11,1.39,37.44,1,2.91-.84,6-3.17,9.13-5.18-5.94-4.73-14.26-9.39-21-.37,2.24-.61,3.71-.85,5.18-3.91-1.64-7.28-2.62-8.21,3.48C120.9,379,120.56,382.43,116.61,382.44Z" fill="#56426b"/><path d="M187.62,281.29c-.82-1.26-2.33-2.51-2.36-3.78-.21-11.58-1.83-13.12-13-10.7-3.07.67-6,1.55-9.19,1.27,10.11-2.44,7.68-12.84,11.8-19.11,3.63-5.52,4.05-12.94,8.74-18.19,10.69-9.15,23.34-6.08,35.44-5.24,5,.36,3.93,5.5,4.24,9.09-4.83,8.56-13.67,16.75-23.39,24.56-3,2.43-3.29,8.3-4.9,12.81-2.78-.19-1-3.28-2.78-3.88C187.39,271.31,191.51,277.74,187.62,281.29Z" fill="#372c53"/><path d="M80.65,303.92c-.77-.89-2.41-2.22-2.21-2.62,6.1-11.9,3.94-24.55,3.07-36.92-1-13.29,6.81-25.65,3.35-39.35,8.18,8.59,21.69,12.33,18.65,29-2.91,16,2.5,32.93-3.34,49-1,2.85-1.38,5.33-5.64,6.16-8.82,1.7-4.42-6.54-7.62-9.11-1.94,9.52,1.56,19.24-2.18,28.39-4.23-3.92-2.33-9.12-3-13.81C81.31,311.07,82.73,307.31,80.65,303.92Z" fill="#3c3058"/><path d="M120.31,105.09c7.56-10.55,19.69-6,29.56-8.92A3.65,3.65,0,0,1,154,97.69c0,1.85-.06,3.7-.1,5.55-4,2-4.76,6.44-7.42,9.44,2.2,13.13-4.12,24.13-10.22,34.58a31.18,31.18,0,0,0-2.91,5.84c-2.55,7.82-5.2,15.61-7.41,23.52-.89,3.16-5,.7-5.44,3.78-1.15-2.05-4.43-2.88-3.7-6,3-12.92-.48-26.69,5.17-39.26,1.36-8.9-5-17.28-1.79-26.31Z" fill="#1a193e"/><path d="M154.08,425.34c1.11-11.73-3.44-22.79-4.12-34.32-.39-6.46,1.61-11.42,7.82-14.14,3.19-3.75,5-8.42,8.77-11.86,3.33-3.06,6.42-6.19,11.27-4.06,4.45,2,3.22,6.13,3,9.74a5.34,5.34,0,0,0,1.22,4.27c5.39,3.11,4.18,7.16,2.27,11.92-5.38,13.44-10.36,27-15.51,40.57C163.28,431.1,158.44,429.88,154.08,425.34Z" fill="#664d77"/><path d="M56.49,292.54c-1.34-5.66-.67-12.29-9.55-13-6.66-.57-12,.9-16.59,5.51-1.63-15.62-5.68-31.15-1.6-46.95,5.08-8.71,9.29-9.48,20.27-3.69,7,.65,8.81,4.44,9.93,11.44,2.11,13.14-.5,26.11.5,39.13C59.64,287.39,57.54,290,56.49,292.54Z" fill="#3b2f57"/><path d="M49,234.38c-6.86.68-14.75-4.36-20.27,3.69-2.1-9.29-3.46-18.69-1.08-28a12.9,12.9,0,0,0-1.45-9.86c-5.78-9-3-15.69,4-22a53.37,53.37,0,0,1,1.43-9.08c1.82-5.87,6.06-6.56,11.54-2.17l.12,1.89c.07,6.25-3,12.48-.07,18.74-.36,8.5,3,16.48,1.44,25.58C43.61,219.42,43.62,228.14,49,234.38Z" fill="#2b254a"/><path d="M129.62,328.1c-7.47-5.6-14-1.11-20.69,1.91-.59-20.83-2.24-41.75,6-61.73,9.57-3.9,9,4.25,11,9.29,2.49,11.74,2.65,23.68,2.47,35.59C128.3,318.24,126.63,323.31,129.62,328.1Z" fill="#493861"/><path d="M182.05,375c-2.41-1-3.15-2.53-2.42-5.14.79-2.81.68-5.71-2.42-7.22s-5.25.78-7.74,1.89c-5.63,2.51-5.53,10.39-11.69,12.38,8.68-14.22,13.53-30.76,24.67-43.35,4.6-5.2,5.4-12.2,10.46-16.75,3-2.95,6.06-6.88,10.8-3.61,3.78,2.6,5.65,6.38,2.62,11-12.4,11.74-14,29.68-24.28,42.69C180.72,368.49,182,372.2,182.05,375Z" fill="#554068"/><path d="M206.33,324.13c-2.11-11.41-2.93-11.87-13.42-7.35,3.79-5.87,7.64-11.69,8.09-19,.24-3.83,2.84-5.06,6.33-5.08s6.73-.16,10.09-.25c4.86-.59,7.08-3.65,9.09-8s4.86-7.62,11.62-5.74c8.9,2.47,9.63,2.61,3.87,10.2-10.55,6-18.42,15.35-28,22.64C210.27,314.44,212.87,322.26,206.33,324.13Z" fill="#46375f"/><path d="M116.61,382.44c2.64-2.23,1.58-5.76,3-8.48s1.06-7.53,5.21-7.78,1.73,5.45,4.66,6.92c1,15-.54,29.83-3.4,44.55-1.18-.84-2.7-1-3.38-.35-3.86,3.79-6.94,1.74-9.88-1.32C112.2,404.59,114.38,393.51,116.61,382.44Z" fill="#664c76"/><path d="M43.21,167c-5.79-2.59-10.13-2.61-9.51,5.59.22,2.84-1.08,4.53-3.46,5.66-3.71.29-3.11-2.74-2.82-4.46,1.33-8.07,4.11-15.77,4.44-24.19.19-4.74,1.62-9-1.05-13.61-3.94-6.8,2.69-13.69.44-20.77-.35-1.12,1.73-3.42,3.86-3.2,1.86.19,1.85,1.91,2.09,3.54,1.41,9.8,6.12,20.45,3.69,29.11C38.38,153.53,49.82,159.12,43.21,167Z" fill="#1c1a3a"/><path d="M80.65,303.92c5.23-1.42,3.66,2.88,3.77,5,.35,6.5.24,13,.31,19.54-1.62,12.22.06,24.7-3.35,38.27-4.77-13.13-4.61-26-7.94-38C70.72,318.82,71.19,310.12,80.65,303.92Z" fill="#4d3c63"/><path d="M125.91,277.57c-5-1.46-3.22-11.07-11-9.29,2.32-8.28,4.63-16.57,7.28-26.06C130.61,254.25,131.43,265.59,125.91,277.57Z" fill="#362c4f"/><path d="M112.82,416c3.83-.09,9.53,5,9.81-4.73,1.5,2.79,2.47,4.6,3.45,6.4-3.83,7.42-3.48,16.18-7.63,23.52-1,1.82-1.17,4.65-4.13,3.84-2.26-.63-1.68-3.07-1.68-4.81C112.63,432.12,112.75,424.05,112.82,416Z" fill="#0d0f34"/><path d="M103.05,412.17c.07,6.52.2,13,.19,19.54,0,2.81-.11,6.25-3.93,6.12-3-.11-4.79-2.81-5.15-5.77C93.3,425,92.68,418,92,410.9,96.08,407.65,99.59,409.72,103.05,412.17Z" fill="#0c0e32"/><path d="M121.69,225.18q-5.61,20.52-11.23,41.05c.66-13.57-8.74-29.36,8.1-39.22A2.4,2.4,0,0,1,121.69,225.18Z" fill="#352b50"/><path d="M103.05,412.17c-3.89,1.24-7.37-1-11.09-1.27-5.09-8.68,1.05-15.61,4-23.34C99.45,395.5,103.86,403,103.05,412.17Z" fill="#684e77"/><path d="M288.86,195c6.92-10.57,21-13.55,30.2-6.16,2.36,1.9,5,1.87,7.56,2.7,4.79,1.56.56,2.45-.63,3.48-11.23-.71-22.6-8.45-33.71.67C291.71,196.14,290,195.25,288.86,195Z" fill="#211e45"/><path d="M191.44,131.53c3.23-7.31,11.64-5.81,16.78-9.87,2.42,4.18,8,6.64,6.89,12.74-.48,2.72-.82,5.47-1.23,8.21-.65,4.54,2,10-3.72,13.1-.63-5.84-.76-11.77,1.3-17.27,1.72-4.62-1.41-7.14-3.39-9.9-2.76-3.85-4.34,1.38-6.78,1.72C198,130.71,195,133,191.44,131.53Z" fill="#17173d"/><path d="M154.08,425.34c4.9.81,9.56,3.26,14.73,2.11-2.91,7.71-5.82,15.41-9.4,24.87C155.53,442.28,156.26,433.52,154.08,425.34Z" fill="#0d0f33"/><path d="M102.86,343v41.74C97,369.85,95,357.63,102.86,343Z" fill="#483858"/><path d="M121.69,225.18,118.56,227c-3.63-7.78,1-14.85,2-22.22a2.3,2.3,0,0,1,3.65-1.52c2.26,1.38,3.7,3.92,3,6.37C125.57,214.88,125.13,220.58,121.69,225.18Z" fill="#1f1a34"/><path d="M142.52,457.36c-7.27-5.6-8.42-11.28-6.63-17.75.46-1.63,1.08-3.92,3.49-3.71,2.22.19,3,2.12,3.09,4C142.61,445.17,142.52,450.41,142.52,457.36Z" fill="#0a0d2d"/><path d="M148.37,204.45c4.95,3.86,8.71-.38,12.88-1.87-3.41,6.92-8.44,13.17-10,21.6Q149.8,214.31,148.37,204.45Z" fill="#17173d"/><path d="M73.37,400.76v-24C80.36,384.7,76,392.89,73.37,400.76Z" fill="#42334b"/><path d="M161.49,195.27c.51-7.42,4.8-14,4.15-21.87-.26-3.22,3.93-4.09,7-4.53-2.67,6.46-7.57,12.18-5.77,20C167.79,192.85,162.43,192.38,161.49,195.27Z" fill="#17173d"/><path d="M120.13,108.83c-2.33,8.37,6.42,15.42,2.85,23.93-.33.8-.7,1.59-1.06,2.38C117.63,126.62,116.87,117.86,120.13,108.83Z" fill="#101237"/><path d="M88.16,138.85c-4.2-6.23-5.55-12.11,2.06-16.89C95.61,128.33,89.27,133.27,88.16,138.85Z" fill="#101237"/><path d="M172.67,168.87c0-7.77-1.36-16.25,9.29-18.77C181,157.4,174,161.72,172.67,168.87Z" fill="#17173d"/><path d="M43.26,187.58c-7-6.27-2.28-12.5.07-18.74C45.31,175.09,46.26,181.35,43.26,187.58Z" fill="#1c1a3a"/><path d="M146.43,112.68c-.35-5.37-.48-10.56,7.42-9.44C151.35,106.37,155.34,114.59,146.43,112.68Z" fill="#101237"/><path d="M283.2,228.78c2.58,5.75-4.79,4.24-5.52,7.58-2,2.46-4.83,1.85-7.46,2C273.49,233.72,276.93,229.34,283.2,228.78Z" fill="#191427"/><path d="M30,288.49c.45,4.55,4.82,9.19-.31,13.62C25.65,297.47,26.55,293,30,288.49Z" fill="#3b2f57"/><path d="M257.11,208.5l-.12-2.17c3.66-2,7.34.81,11,0-2.49,3.37-7.54,3.75-8.88,8.28C256,212.94,260.33,209.68,257.11,208.5Z" fill="#211e45"/><path d="M90.27,155.73c1.29-3.75-4.74-7.57.11-11.29C96.11,148.26,93.48,152,90.27,155.73Z" fill="#101237"/><path d="M72.93,347.64l2.46,15.93C69.73,357.46,71.91,352.07,72.93,347.64Z" fill="#362c43"/><path d="M159.47,163.15c4.76,4.68,3.78,8.39-1.92,11.29C156.33,170.36,158.6,166.88,159.47,163.15Z" fill="#17173d"/><path d="M326.34,204.45l-4,1.8c2.32-3.17-7.54-6.38,0-9.53C324.39,199,327.09,200.82,326.34,204.45Z" fill="#211e45"/><path d="M132.16,418.77c-1.43-5.5,1.37-8.89,4.36-13.72A20,20,0,0,1,132.16,418.77Z" fill="#372b40"/><path d="M100.92,339.31c-2.25-5.22-.21-8,1.64-12C103.67,331.73,103.93,335,100.92,339.31Z" fill="#231f2c"/><path d="M571.73,201.12c11.31-5,23.52-3.28,34.68-1.7,12.87,1.82,25.35.24,37.87-.12,25.24-.72,50.46-.31,75.68-.4,57.51-.22,115,.27,172.52-.29,16.31-.16,31.61,1,44.87,11.46,4.58,5.75,10.35,10.79,11.24,18.75a7.76,7.76,0,0,1-6.24,1.29c-20.12-4.22-40.35-1.57-60.53-1-8.47.24-16.81-1.1-25.26-1-39.92.64-79.94,2-119.75,1.13-47.13-1-94.31.93-141.38-2.08-.9-.09-2,0-2.64-.56C584.74,219,577.14,211,571.73,201.12Z" fill="#2b254b"/><path d="M967.39,303.78c-22.93-3.62-46-2-68.94-.9-3.66.18-7.39.88-11.11.88q-148,0-296-.05c-7.58,0-15.53.55-21.48-5.83,4.19-9.1,13-14.32,18.73-22.17,1.11-1.53,3.45-.8,5.29-.5,5,1.15,10,.94,14.94.94q162.07-.06,324.13,0c7.7,0,16-1.13,21,7C958.91,289.75,964.75,295.72,967.39,303.78Z" fill="#44365f"/><path d="M591.86,225.31c6-3.22,12.17-.17,18.25-.2,19-.12,38.09.32,57.12-.13,33.57-.78,67.08,1.83,100.7.38,31.63-1.37,63.37-.4,95.06-.26,23.52.1,47,.85,70.53-1.37,5.32-.5,9.17,5.84,15.08,5.09,2.73.1,3.82,2,4.08,4.26.71,6.25,4.42,10.4,9.41,13.57,3.68,2.34.86,5.66,1.58,8.41-1.54.56-3.43.79-4.49-.26-9-8.94-20.29-5.86-30.94-5.86q-109.53,0-219.06,0c-32.14.07-64.27-.2-96.41-.09-5.55,0-11.33.67-16.2-3.08C592.72,239.5,589.5,233.05,591.86,225.31Z" fill="#372d54"/><path d="M913,345.31c24.43-4,48.63-10.22,73.74-7.54q4.39,15.83,8.77,31.65c.65,2.37,1.86,4.81,1.69,7.14-.52,7.48,1.56,12.7,9.61,14.54,3.31.76,4.84,3.88,5.47,7,3,14.95,10,29,8.19,45.07-.55,4.78,2.92,9.95,4.31,15,1.12,4.1,1.56,7.18-4.33,9.05-8.65,2.76-14.73,9.55-19,17.36-14.55-14-14.49-35.82-28.5-49.69l.06.08c-3.68-6.78-7.36-13.59-12.21-19.59-6.32-7.81-7.25-17.88-11.6-26.35-7.46-14.51-21.21-24-31.52-36.36C915.79,350.43,912.36,349.18,913,345.31Z" fill="#0d0f34"/><path d="M954,283.17c-6.14-3.49-12.77-3.85-19.69-3.84q-164.26.17-328.53,0c-5.24,0-11.29,2.46-15.16-3.63-2.33-7.66.12-13.38,7-17.32,4.9-1.4,9.92-1,14.9-1,79.32,0,158.66-.72,238,.37,26.84.37,53.6-1.32,80.41-.45A199.62,199.62,0,0,1,952.36,259c5.52.79,10.21,2.72,13.57,7.33,1.66,4.32,7,6,8.29,12C967.16,279.44,954.63,261.12,954,283.17Z" fill="#3f325b"/><path d="M1063.13,91.47c5.62-.21,11.25-.37,16.87-.51v58.68c-3.43,4.81-4.57,10.81-5.62,16.76a85.38,85.38,0,0,1-5.58,20.1c-2.88-8.26-1.34-15.39-3.18-22.17-1.54-5.66-6.86-9-7.23-14.88-1.55.11-2.48-.68-2.18-2.16,2.77-13.68-5.3-26.64-2.58-40.3a3.93,3.93,0,0,0,1.46-2.51c.26-1.65-.45-3.42-.38-5.16C1054.9,94.44,1059,91.62,1063.13,91.47Z" fill="#18183e"/><path d="M965.93,266.37c-10.7-4.64-22-6-33.49-5.65-17.08.48-34.15-1-51.28,1.48-8.7,1.24-17.89-1.43-26.85-1.45q-129.12-.22-258.24-.13c-3.88-5.74-4.24-11.37.57-16.82,3.31,2.38,7.14,1.87,10.86,1.87,109.29,0,218.58.4,327.86-.56,11.93-.1,20.3,2.55,28.31,9.95A15.71,15.71,0,0,1,965.93,266.37Z" fill="#382d55"/><path d="M757.45,633.57c-5.46-2.09-10.74-5-16.93-3.7a1.7,1.7,0,0,1-2.39,0,8.19,8.19,0,0,1-1-3.45c-.48-3.8,4.63-7.57.74-11.07-3.06-2.74-7.68-1.4-11.49-2.4-4.07-1.07-8.66-.47-12-3.73-5.19.92-9.92-1.84-15-1.84-5.52,4.56-11.44.85-17.18.83-4.12-1.27-10.94,2.51-11-6.38,0-2.41-1.87.28-2.9.37-6.68.56-13.38,1.91-19.65-1.83-2.13-8.22,3.94-10.52,9.59-11.92,9.07-2.23,18.1-5.16,27.39-5.94,12.18-1,23-5.25,33.37-11.21,6.86-3.92,14.23-6.3,22.34-5.05.53.09,1.06,1,1.68,0,8-12.62,23-19.19,37.06-16.53,6.76,1.28,13.68.34,20.52.47,6.54.12,13.09,0,19.63,0-11.21,0-22.42.07-33.63-.09-2.52,0-6.25,1.45-7-2.52-.61-3.21,2.35-4.89,4.78-6.26,7.22-4.09,15.19-5.32,23.33-5.57,20.18-.62,40.36-1.47,60.52.43-5.3,10.17-13.2,17.93-22.58,24.31a82.89,82.89,0,0,1-19.8,4.87c-15.16,2-30.17,4.45-43.54,12.77-5.61,3.5-12.24,4.45-18.63,5.86a113.45,113.45,0,0,0-23,7.72c-3,1.38-7.59,2-7.88,5.74-.34,4.44,4.92,4.86,7.62,7.18,4.4,3.78,10.92,2.54,15.25,6.46,3.38,4.28,7.73,8.14,1.24,13.77C755.49,626,757.16,630.58,757.45,633.57Z" fill="#0a092f"/><path d="M1014.14,332.08c-2.59-6.62-5.12-13.28-7.8-19.87-1-2.41-1.47-4.55.08-7s4.58-4.89,3.26-8.24c-4.23-10.78-4-23.13-12.34-32.54-3.61-4.06-9.13-7.83-7.59-14.81-.13-7.65,2.55-11.31,9.81-11,16.23.73,32.46-.86,48.67.42,5.31.42,9.75,2,12.64,6.7,1.32,13.08,3.88,26.1,2.11,39.35-.62,4.61,2,8.39,3.47,12.42,2.26,6.34,2.08,12.87,2.44,19.39-.85,5.25-4.61,3.05-7.18,2.43-5.43-1.33-11-2.64-16.07-4.85-8-3.43-13.05-1.06-16.71,6.35a30.71,30.71,0,0,1-6,8.32C1020.56,331.49,1018.16,334.34,1014.14,332.08Z" fill="#3f325a"/><path d="M1020.05,116.32a54.34,54.34,0,0,0-25.24-5.65c-30.92.2-61.85.08-92.77.08H590.73c-5.27,0-10.64-.75-14.72,4a3.86,3.86,0,0,1-5.89.35c-5.74-6.39-13.37-4.18-20.09-4.2-104.65-.23-209.29-.42-313.93.16-13.32.08-26.51,1.45-39.7-1.39-5.79-1.24-8.69,3.8-12.51,6.69,1.81-10.93,8.94-11.61,18.52-11.49,45.59.55,91.19.25,136.79.25,71.16,0,142.35-1.19,213.46.59,27.24.69,54.28-1.91,81.48-.83,27.43,1.08,55,.24,82.43.24H799c30.78,0,61.57-.27,92.35.09,21,.25,42,2.13,63,1.82,12-.18,24-2.24,36.13-2,8.75.15,17.42-.09,25.54,3.86,1.16.08,1.34,1.15,1.88,1.86Z" fill="#17173d"/><path d="M1060.87,245.73c-11.14-6.22-23.38-3.44-35.16-4.1-7.72-.43-15.69,1.21-23.19-.11-7.75-1.37-11,1.51-12.77,8.08-5.37-3.59-6.26-10.09-8.82-15.18-4.14-8.24-8-16.23-14.69-22.85-4.37-4.32-3.22-12-8.34-16.29-.17-7.74,3.88-9.85,11.18-9.7,20.07.42,40.18-.42,60.2,2,3.46-1.1,4.41,1.48,5.57,3.78,1.68,2.2,3.36,4.4,5,6.62-2.13,1.23-7.85.46-3.22,5.26,3.69,3.83,5.5,10.14,13.16,9,4-.58,6.73,2.74,7.34,6.95C1058.46,228,1059.64,236.88,1060.87,245.73Z" fill="#2d264d"/><path d="M1014.14,332.08c8.14-1.75,10.47-9.14,13.86-15.07,4.14-7.21,8.55-8.77,16.71-5.94,7.72,2.67,15.22,7.81,24.18,5.82a179.24,179.24,0,0,1,.47,41.63c-5.45-9.32-7.56-20.28-15-28.82,11.78,37.29,23.58,74.5,16.72,113-4.08-19.32-11.42-39.11-20-58.61,2.63,21.22,9.55,41.84,7.86,66.06C1039.66,410.76,1028.25,370.9,1014.14,332.08Z" fill="#0d0f34"/><path d="M868.11,536.2c-22.1.68-44.26-1.74-66.31,1.76-7.89,1.25-14.57,4.66-20.88,10.82h47.5c0,.8,0,1.59,0,2.39-17.1,0-34.23.62-51.29-.2-12.64-.61-21.39,7.42-31.52,12.14-6.11,2.85,3.83,1.92,2.07,4.75-11.55.27-22.22,2.38-32.5,9-15.78,10.19-35.35,8.08-52.71,13.56-1.45.45-3.21,0-4.61.53-4.11,1.53-8.33,3.12-9,8.42-3.22,4.5-8.52,4-12.63,3.7-8.29-.62-16.53.26-24.78-.28a11.11,11.11,0,0,1-2.82-1.19c-6.55-2-13.35-.17-19.92-1.26-3.31-.54-8.4-.83-4-6.5,12.13-.64,24.26-1.69,36.32-1.54-6.7.44-13.36-.78-19.89.89-6,.6-12.07-.92-18,1a26.58,26.58,0,0,1-8.83,1.57,6.93,6.93,0,0,1-2.85-.81c-1.53-1.4-2.74-2.88-1.34-5.05,4.41-3.79,10.43,0,15-3.19,1.31-1.76,3.2-2.26,5.23-2.49a424.43,424.43,0,0,0,60.79-3.81c3.77-.59,8.4-.09,6.48-6.65-.44-1.51,1.74-3,3.5-3.78,5.74-1.64,11.62-.49,17.4-1,5.43-2.28,11-4.33,15.54-8.24,2.5-2.13,5.55-2.51,8.71-2.78,6.27-.54,13.8,2.33,17.29-6.19.28-.68,1.65-.89,2.57-.9,11.87-.09,23.62-2.46,35.12-2.42-1.42-.93-4.19.83-5.94-1.08,6.45-7.74,15.45-10.27,24.79-11.08,31.07-2.7,62.23-2.09,93.37-1.93Z" fill="#18173d"/><path d="M755.56,611.11c-10.37,1.89-17.59-4.74-25.35-9.63-3.64-2.3-5.41-5.07.31-7.92,10.89-5.44,22-10.1,34-12.47,6.09-1.21,12.19-2.41,17.59-5.71,19.52-11.93,41.71-12.45,63.46-14.87-7.22,7.07-18.64,8.36-24.27,17.67-1.59,2.62-4,4.82-5.13,7.6-5.35,13.75-17,22.86-24.94,34.71.37-5.29-3.09-7.29-7.39-7.33C774.33,613.07,765.1,609.92,755.56,611.11Z" fill="#03031a"/><path d="M1017.11,372.24c14,13.92,13.69,32.32,17.28,49.55-6.61-7.24-9.65-16.92-16.74-23.64C1008.53,389.51,1024.17,381,1017.11,372.24Z" fill="#0c0e31"/><path d="M1018.6,406.57c7.88,16.31,19.4,31,20.35,50.1.2,3.85-.42,5.9-3.9,7.09-4.78,1.64-4.42-2.75-4.9-4.82C1026.11,441.52,1022.4,424,1018.6,406.57Z" fill="#0b0e32"/><path d="M1080,333.84v43.67a23.42,23.42,0,0,1-1.69,5.26c-1.18-21.72-2.33-42.93-3.55-65.4C1077.05,319.9,1078.82,326.12,1080,333.84Z" fill="#0c0f30"/><path d="M1068.32,230.76c-7.57-8.69-8.84-19.17-4-24.59,1.15-1.29,2.29-3.31,4.45-1.94,1.44.92,1,2.52.83,4.13C1068.82,215.18,1065.87,221.81,1068.32,230.76Z" fill="#231e39"/><path d="M1006.35,330c-3.74-5.71-6.43-9.71-9-13.79-1-1.53-2.1-3.46.4-4.58,1.78-.79,4-.47,4.72,1.53C1004.3,317.94,1007,322.53,1006.35,330Z" fill="#2f263d"/><path d="M931.84,198.81c-3.87-3.66-.32-9.83-4.47-13.47-.16-.14.69-1.41,1.07-2.15,3.85,5.22,9-7.29,12.61.91C932.91,185.84,932.53,192.43,931.84,198.81Z" fill="#1e1c42"/><path d="M1018,110.74l-1.88-1.86c-2.88-4.92.45-8.91,2-13.17C1019.82,100.73,1023.17,105.76,1018,110.74Z" fill="#101237"/><path d="M1030.89,172.52c-.5-3.12-9.09-5-1.46-9.38C1038.57,164.92,1029.7,169.5,1030.89,172.52Z" fill="#1e1c42"/><path d="M1034.85,191.33l-5.57-3.78a5.64,5.64,0,0,1,5.54-3.72C1038.11,186.32,1035.94,188.83,1034.85,191.33Z" fill="#17142c"/><path d="M448.14,642.61c-.25-3.14-2.06-5.85-4.77-6.35-12.43-2.3-22.08-13.76-36.09-12.08,3.45,0,6.9,0,10.34,0s6.25-1.62,7.21-4.88c.84-2.87-2.18-4-3.8-5.83-7-7.81-17.47-7.15-25.58-7s-13.31-2.87-19.52-6.29c2.53-3.83,6.28-1.62,9.35-2.15,2.35-.41,5.29.53,6.29-2.67.83-2.68-.81-4.62-2.35-6.71-3.39-4.57-9.64-5.94-12.3-11.24,12-5.15,24.26-2.92,36.48-1.13,4,.58,8.12-.09,12.07,1.05a7.75,7.75,0,0,1,2.33,1.39c1.95,3,5.48,2,8.21,3.13,16.68.81,33.26,3.12,50,2.27,3.06-.16,6.22-.18,9,1.59,3.56,3.68,2,5.89-2.21,6.94-3.56.88-7.25.47-10.87.56-10.33,0-20.66-.07-31,0-10,6-20.48,7.44-31.67,3.86a3.1,3.1,0,0,0-3.9,1.43c8.75.62,17.39,1.75,26.13.85,4.1-.47,8.22-1,10.77,3.36-5.88,6.16-12.68-1-17.74,1.85a60.42,60.42,0,0,1,13.45.86c2.47.19,5-.35,7.39.46,3.5,2.07,6.88,4.23,6.08,9.15a6.32,6.32,0,0,1-3.92,1.7c1.12-.06,2.25,0,3.36-.1,3-.37,6-.64,8.27,2a4.72,4.72,0,0,1-2.28,4.86c-6.17,2.51-12.6,1.43-18.95,1.57,6.76-.24,13.6.9,20.23-1.65,3.36-1.29,7.31-.45,7.61,2.9.39,4.31-4.07,2-6.37,2.44a13.21,13.21,0,0,1-5.27-.15c18.61,3.33,37.65,1.44,56.3,4.23a9.36,9.36,0,0,1,4,1.54,3,3,0,0,1,1.05,2.42c-4.24,4.95-13,.94-16.15,8.14-8.1,1.66-16.05.25-24-1.11H459.78C455.91,643.36,451.79,645.12,448.14,642.61Z" fill="#251846"/><path d="M375.1,556.75c3.1-3.14,7.08-1.39,10.65-1.92,2.59-.39,6.52,1.33,7.31-2.2.91-4.07-3.55-4.57-6.13-5.7-4.55-2-9.38-3.31-14.05-5-2.44-.89-6.55-.94-5.73-4.53.62-2.69,4.34-3.07,7.21-3.07q21-.06,42.07-.07c3.12,0,6.23.08,9.35.12-1.33,5.52-5.77.94-7.47,2.65a25.74,25.74,0,0,0,9.27-.67c1.89-.11,3.79-.23,5.42,1,1,5.11-3.13,4.47-5.84,4.84-3.05.42-6.12-.89-8.53-.46.78.2,2.37-.12,3.85.3,2.45.69,5.49,1.86,4.82,4.62-.78,3.18-4.08,1.57-6.5,1.52,8.58,3.28,17.21,2.85,25.91.9a33.39,33.39,0,0,1,9-.32,14,14,0,0,1,3.15.61c6.62,1.83,13.4.46,20.08,1,3.46.29,7.65-.62,8.9,4.34-10.47,6-21.48,1.83-30,2.77,8,.78,18.26.33,28.58-.4,4.35-.31,10.59-.57,4.33,6.65-15.29,2.54-30.65,1.21-46,.81a9.65,9.65,0,0,1-4-2.17c-8.38-5.78-16.94-3.41-25.52-.53a103,103,0,0,1-25.25-5Z" fill="#342254"/><path d="M415.12,578.9c-12.65-2.63-25.46-1.17-38.2-1.49l-5.54-.08c-2.21-4.9,1.46-5.1,4.54-5.5,20.32-2.65,39.9-10.32,60.8-9.05,6.22,1.7,12.58,1.59,18.94,1.48,3.58.29,7.28-.71,10.71,1,1.26,4.83-2.27,4.64-5.16,4.65-5.1,0-10.19-.33-14.39.24,4.24,1.81,11.54-4.88,14.69,4.24a12.28,12.28,0,0,1,3.44-1.38,97.75,97.75,0,0,1,14.62,0c2.41.17,6,.65,5.78,3.18-.33,3.84-4,2.49-6.6,2.16-5.18-.18-10.38,0-15.57-.14,5.36.39,10.76-.39,16.11.59.78,6.43-4.52,4.79-7.33,4.79-14.82,0-29.67.26-44.36-2.28a7,7,0,0,1-.13-1.71c6.32-2.67,12.68-.58,16.73-1.13C436.05,578.33,425.6,577.72,415.12,578.9Z" fill="#42325f"/><path d="M436.79,564.48c-9.54,2.75-19.53,1.7-29.2,3.43-4.21.76-8.5-1.17-12,4.44-2.31,3.69-9.31.52-14.11,1.34-3.54.59-8.51-2.43-10.1,3.64-7.72-1.24-15.52-2.18-22.78-7,3.11-.15,6.45-1.11,9.29-.3,12.75,3.61,22-5.88,33-8.53,4.1-1-.45-3-.95-4.57,9.2-1.27,17.94,1,26.66,3.44a36.35,36.35,0,0,1,23.58-.1l2.33,2a3.45,3.45,0,0,1-1.81,1.42C439.49,564.24,437.73,562.43,436.79,564.48Z" fill="#2b1c4b"/><path d="M613.21,661.46c.48,4.53-3,1.9-4.3,2-13.57.91-27.16,1.5-40.75,2.17-8.28,1.63-16.65.51-25,.73-16.33.44-32.65,1.39-49,0-4.24-.35-8.79.73-12.36-2.7l.21-.33c-1.24-1.1-1.24-2.2,0-3.31.55-.17,1.1-.35,1.66-.51,8.74-4.44,18.2-1.4,27.25-2.68,14.14-2.65,28.35-4.56,42.79-3.13,4.75,1,8.63,4.4,13.53,5.09A349.23,349.23,0,0,1,613.21,661.46Z" fill="#f3f2f4"/><path d="M511.76,642.82c-.88-2-4.9-4.71.91-5.37,4-.46,8.09-.34,12.14-.48,6.17-4.14,12.3-1.59,18.44.11,2.72,1.44,6.4,1.88,6.57,6.08-2.35,4.61-7.33,4.13-11.19,5.82-18.85.74-37.73.22-56.57,1.23l-13.43,0c-2.33-1.68-5.62.62-7.76-1.86,6.55-2.76,13.43-1.19,20.17-1.58,2.88-.17,6.22,1.74,8.34-1.87,12.88-2.19,25.84-.14,37.17-1C522.75,642.85,517,645.35,511.76,642.82Z" fill="#968ca7"/><path d="M482.06,650.21c19-6,38.64-2.4,58-3.47h1.65c14.87-1.34,29.78-.67,44.67-.84,4.38.3,8.93-.71,13.06,1.63a3.45,3.45,0,0,1,1.37,2.83c-6,6-13.89,4.86-20.76,4.13a112.28,112.28,0,0,0-24-.19c-7.91-.28-15.82.21-23.73-.31-6.72-1.42-13.54-.87-20.29-.73a125,125,0,0,1-28.37-2.48A3.21,3.21,0,0,1,482.06,650.21Z" fill="#c3c0cd"/><path d="M555,656.11c-14.54-.59-29,.2-43.16,3.69-8.68-2.65-18.14,1.23-26.62-3.15-3.44-.94-7.32.64-10.77-1.82,5.63-1.62,11.13-.8,16.58-.87,11.29-4.92,22.94-2.09,34.49-1.64,9.48,1.32,19,.82,28.57,1.13A1.7,1.7,0,0,1,555,656.11Z" fill="#a8a6b7"/><path d="M481.84,663.69l86.32,1.92c0,.6-.06,1.19-.07,1.79l-2,.3-7.42,0-33.59,0c-11.34,4.1-23.12,3.43-34.85,3.19-4.05-1.43-8.82-.7-12.25-4Z" fill="#3f3d5e"/><path d="M489.52,669c11.92,1.45,23.67-1.74,35.55-1.23-6.17,6.24,5.91,1.64,3.4,5.72l-18.72-.18-18.36-.66c-1.65-1.55-5.7.87-5.63-3C485.79,668.12,488,668.15,489.52,669Z" fill="#cac8d2"/><path d="M525.26,653.92A87.39,87.39,0,0,0,491,654c-1.67-2.87-5.55-.66-7.37-3.19,16.39.53,32.86-2,49.18,1.25C530.8,654.6,527.53,652.23,525.26,653.92Z" fill="#5d4f7e"/><path d="M442.86,655.84c7.27-.55,14.57-1.67,21.77,1.88H424C429.79,652.45,436.49,655.85,442.86,655.84Z" fill="#e3e5e9"/><path d="M511.76,642.82h19.08c0,.68,0,1.36,0,2H489.38l-3.49-.31c-.8-.31-1.06-.6-.78-.86a1.2,1.2,0,0,1,.83-.38Z" fill="#edeaf1"/><path d="M399.41,652.71l-12.56-1c8.48-5.54,17.1-1.59,25.72.18Z" fill="#807d93"/><path d="M442.86,655.84c-6.2,1.64-12.95-2.17-18.9,1.88-6.25-1.2-12.53-2-18.92-1.36l-3.6-.32C415.23,652.7,429,653.34,442.86,655.84Z" fill="#a8a7b5"/><path d="M482,660.05c0,1.1,0,2.21,0,3.31-5.79.12-11.81,1.76-18.37-2.76A65.08,65.08,0,0,1,482,660.05Z" fill="#a09fad"/><path d="M489.52,669c-4,3.59,2.47,1.81,1.87,3.65-7.44,1.43-13.52-4-20.77-4.56l7.35-1.16C481.76,668,486.13,665.76,489.52,669Z" fill="#828296"/><path d="M485.23,656.65c8.74,2.23,18-.38,26.62,3.15l-28.16-.26C484.2,658.57,484.72,657.61,485.23,656.65Z" fill="#595773"/><path d="M448.14,642.61l11.14.67c.73.27,1,.56.75.86a1,1,0,0,1-.72.47H429.64v-2Z" fill="#b1aec0"/><path d="M460.87,648.32c2.54.83,5.58-.46,7.76,1.86-10.09.68-20.17.69-30.26-1.86Z" fill="#b0aebd"/><path d="M446.27,669.55c-6-.17-12-.33-18-.53-.2,0-.39-.38-.58-.58l1.76-1.39h22.32C450.46,670.37,447.84,668.58,446.27,669.55Z" fill="#828195"/><path d="M459.31,644.61a11.76,11.76,0,0,0,0-1.33l26.66,0a2.73,2.73,0,0,1-.05,1.24Z" fill="#817e97"/><path d="M682.49,622.63c.55,4.66-1.41,7.17-5.88,9.07-8.37,3.54-16.38,7.94-24.54,12-10.9,4.06-22.22,1-33.29,2-12.24,0-24.48,0-36.71,0-6.37-.67-13.06,1.56-19.08-2.1-2.09-6,4.43-1.63,5.13-4.17-1.89,1.46-4.08.43-6.16.58-2.65-.86-6.7-.55-4.5-5.43,7.07-2.71,14.62-2.55,22-3.64,23.08,1.82,45-3.52,66.61-10.82C658.3,619.35,670.55,618.76,682.49,622.63Z" fill="#281f4b"/><path d="M714.32,609.25c7.38.63,14.82.94,22.15,2,5.7.83,9.92,3.16,4.88,9.86a12.6,12.6,0,0,0-2.66,8.75c-10.62.79-21.23,1.78-31.85,0-6.52-5.72-3.65-10.12,2.09-14C711.46,614.2,714.36,613,714.32,609.25Z" fill="#140e34"/><path d="M682.42,605.58l16.9,1.83c2.86,8.75-4,6.69-8.3,7.42-5.62,1-12.72-2.62-16,5.32-8.83,2.65-17.87.62-26.78,1.2-4.55-4-.63-6.63,1.89-8.61,5.72-4.51,12.34-6.91,19.83-6C674.19,607.33,678.49,608.38,682.42,605.58Z" fill="#281f4b"/><path d="M556.72,652.53c14.35-4,29.1,1.24,43.48-1.92a3.57,3.57,0,0,1,3.64-1.19c2,1,4.49,1.58,3.54,4.75L598,657.64c5,4.52,11.1.33,15.26,3.82l-48.33,0c6.27-8.46,14-3.28,20.75-3a12,12,0,0,0-6.28-1.49c-2.81,0-5.61.07-8.41,0-4.6-.2-9.4.84-13.64-2A1.73,1.73,0,0,1,556.72,652.53Z" fill="#736d89"/><path d="M639.48,655.85l7.75.52c-11.27,6-25.33,4.84-32.39-2.37C623.37,650.47,631.72,649.24,639.48,655.85Z" fill="#565173"/><path d="M639.48,655.85c-8.06-2.62-16.41-1.34-24.63-1.85-2.56-2.9-5,.9-7.47.17l-3.45-3.56c2.5-3.1,6.09-2.91,9.43-2.76,10.17.48,20.46-1.63,30.5,1.43l1.23,1.31Z" fill="#281f4b"/><path d="M652.06,644.12c.63,5.34-2.78,6.33-7,6.46l-.68-.51c-7.95-1.68-16.12.71-24-1.34.33-4.69,4-3.61,6.79-3.82,5.12-.38,10.28.39,15.38-.56A32.74,32.74,0,0,1,652.06,644.12Z" fill="#281f4b"/><path d="M601.75,669.08l-18.41,2.29c-5-1.51-10.8,2-15.22-2.66,8.18-.5,16.36-1.27,24.55-1.38C595.65,667.3,599.37,665.36,601.75,669.08Z" fill="#bebeca"/><path d="M706.84,629.84l31.85,0h1.83c-11.67,4-23.72.84-35.55,1.87l-2-1.11Z" fill="#281f4b"/><path d="M646.92,620.31l28.08-.16c2.71.19,5.59-.14,8.08.7s-.2,1.2-.59,1.78c-12.49,0-25,1-37.47-.51a1.7,1.7,0,0,1-.09-2A1.63,1.63,0,0,1,646.92,620.31Z" fill="#948aa8"/><path d="M700.64,652.1l-14.39.62H667.87C678.81,651.05,689.77,648.49,700.64,652.1Z" fill="#a8a7b6"/><path d="M652.06,644.12l-9,1c-7.67,1.3-15.41.26-23.11.59a1.56,1.56,0,0,1-1.08-2.47c11.06-.44,22.13-.89,33.17.4Z" fill="#9e9caf"/><path d="M652,670.32,628.37,669l.06-.77h24.31Z" fill="#7d7a96"/><path d="M662.51,654.65c6.47-.2,11.74-1.59,18.29,2.46C673.68,658.2,668.43,659.44,662.51,654.65Z" fill="#56526f"/><path d="M474.36,378.5c6.54-3.5,13.24-4.2,20.67-2.79,11.07,2.09,18-6.74,26.45-11.46a106.13,106.13,0,0,0,9.11-6.35c4.3-3,8.44-6.25,12.92-9,12.74-7.71,19.27-7.23,31.32,1.69a70.29,70.29,0,0,0,6.4,3.78c21.67,6.59,44.87,8.56,62.58,26,8.83,8.68,21.67,11.6,34.66,11.45,11-.13,18.84,6.87,26.67,13.49-19.57,9.57-39.74,17.78-60.85,23-11.95,2.94-24.52,3.53-36.86,4.68-22.57,2.09-45,4.9-67.06,10.3-6,1.46-11,1.37-16.65-2.5-7.62-5.22-16.5-2.06-24.28.67a519.33,519.33,0,0,1-102.87,25c-7.58,1-15.18.66-22.82-2.78-22.07-10-46-12.76-69.73-15.31-26.21-2.81-52.44-6.24-78.9-6-3-8.1,3.67-11,8.16-15.05,26.61-3,52.93-8,79.51-11.1,18.21-2.11,36.67-1.76,54.49-7.17,12.22-3.71,24.09-8.46,36.38-11.95a105,105,0,0,1,25.58-4.5c12.42-.56,23.4-5.63,34-11.68C466.64,379.05,469.92,376,474.36,378.5Z" fill="#262954"/><path d="M705.14,405.33c-.31,0-.71,0-.92-.14-12.87-10.26-29.12-9.49-43.92-13.51a55.58,55.58,0,0,1-24.89-14c-10.71-10.58-24.16-14.27-38.59-15.78a24.87,24.87,0,0,1-15.59-7.45c2.19-4.51,5.9-5.73,10.73-5.72q113,.13,226,0c4.3,0,8.33.16,8.85,5.8a210.8,210.8,0,0,1-66.16,33.05c-1.79.54-3.72,1.88-5.33,1.56C735.58,385.26,721.27,398.09,705.14,405.33Z" fill="#5d4670"/><path d="M232.76,429.33c-3.39,3.88-7,7.63-7.64,13.11-2.78,2.24-3.81,6.22-7.52,7.54q1.85-4.74,3.68-9.49c-1.76-5.27,2.53-7,5.56-9.42,1.47-1.92,4.79-3.95,3.63-6-5.57-10,2.93-14,7.64-19.64A82.33,82.33,0,0,1,257,388.21c12.74-10.82,26.47-19.91,42.93-24.13,7.53,2,7.53,2,9,5.14-1.94,1.56.08,2.61.49,3.87-1.25,7.29-7.23,10.48-12.82,13.05-6.5,3-12.37,6.83-18.3,10.67-8,4.31-14.86,9.5-20.28,17.24A35,35,0,0,1,232.76,429.33Z" fill="#020203"/><path d="M913,345.31c14.27,13.73,28.91,27.11,39.67,44,.83,1.3,2.86,2.69,2.65,3.68-3.23,15.08,10.22,22.8,15.06,34.27,1.09,2.56,2.85,4.77,2.64,7.74-6.25-5.3-9.17-12.93-13.64-19.48-3.6-5.29-6.1-11.94-14.57-10.7-2.06.3-3.25-1.43-4.38-3-6-8.25-11.59-16.81-18.09-24.62-7.39-8.87-15.24-17.39-24.3-24.68L890.41,345c-2.45-5.44-5.64-11,2.29-14.84C899.81,334.75,908.67,337,913,345.31Z"/><path d="M210.1,465c.7-5.93,1.52-11.81,7.55-15.07C216.58,455.66,214.45,460.88,210.1,465Z" fill="#020203"/><path d="M596.64,243.8l-.57,16.82-5.43,15.1a84.43,84.43,0,0,1-20.73,22.16c-24.86,14.39-48.36,11.05-70.85-5.43-13.76-16.22-19.84-34.74-16.76-56C487.06,220.6,496.16,208,510,198.83c21-11.31,41.5-8.24,61.7,2.29,7.81,7.15,15.32,14.55,20.13,24.19Q594.25,234.57,596.64,243.8Z" fill="#fdfdfd"/><path d="M660,572.07c-.27,4.32-.27,4.32,7.93,7.71l-14.05,3c-3.22-2.73-6.69-1.88-10.47-1.27-13.06,2.11-26.21,3.44-39.44,1.52a7.09,7.09,0,0,1-2.3-1.52c1.45-6.25,5.78-4.24,9.71-3.36a8.9,8.9,0,0,0,.89.14c-.3-.33-.77-.29-1.16-.55a2.79,2.79,0,0,1-.27-2.38,5.62,5.62,0,0,1,2.09-1.43c5.67-3.94,11.9-4.77,16.75-3.27,3-.07,1.18,1.45,1.25.2a3.9,3.9,0,0,0-.91-.05,22.53,22.53,0,0,1-3.67-.21c-2.11-.85-4.57-1.37-4.24-4.5,3.24-3.32,7.48-2,11.35-2.59,1.38-.2,5.06,2.21,3.69-2.45a5.65,5.65,0,0,1,3.4-2.65c12.49-.26,25-2.22,37.45,1,1.38.37.22-1.47.49-2.26,4-4.88,8.85-.08,13.15-1.33,6.9.12,13.83-.27,20.74.08-6.54-.12-13.08-.12-19.62-.12a32.62,32.62,0,0,1-6.25-.29c-1.44-1.18-1.53-2.66-1-4.28a6.63,6.63,0,0,1,2.33-2c8.46-4.65,16.89.22,25.53-.94,0,.17-.41.14-1.13,0-3.09-.66-7.9,2.13-9-1.92s3.72-5.89,6.63-8.05c2-1.47,4.51-2.1,6.25-4,6.79,0,13.59,0,20.39,0,2.42,0,5.66-.48,6.29,2.46.59,2.75-2.46,3.83-4.5,5.2s-4.88,1.28-5.74,5.39h26.46c0,.42.07.85.1,1.27-8.4,1.48-16.77,3.16-25.21,4.34-5.5.77-11.86-1.81-15.45,5a5,5,0,0,1-5.64,2.44c-13.26-3.12-21.84,7.1-32.55,11.23-6.66-1.83-13.47-.4-20.19-.85a4.86,4.86,0,0,1-.89-.23A3.14,3.14,0,0,0,660,572.07Z" fill="#302152"/><path d="M433.06,538.07l-5.52,0c.51-4.5,4.06-2.54,6.31-2.72,7.86-.63,15.81.83,23.66-.86l69.56.08c2.81,1.69,5.93,1.62,9,1.62q42.85,0,85.71,0c2.77,0,5.63.26,8.06-1.58l30-.14a20.79,20.79,0,0,0,7.69,2.91c2.29.3,5.47.6,5.44,3.79,0,3.38-3.08,4.3-5.86,4.8-4.87.88-9.82.57-14.74.49-4.5-.08-8.54.72-11.58,4.38-9.54,3.51-19.37,0-29,1.2-16.35,0-32.7-.07-49.05,0-3.67,0-7.46.55-10.76-1.75-2.25-3.35.51-4.22,2.7-4.91,3.23-1,6.72-.69,10-1.47a393.37,393.37,0,0,0,45.4,2.66c-29.1,0-58-5.78-87-3.46-12.2,1-24.29,3.93-36.7,3.27-3.27,0-6.56.21-9.79-.52-11.38-1.78-22.37-6.08-34.21-5.05C439.13,541.1,435.63,540.86,433.06,538.07Z" fill="#6f4f81"/><path d="M640.92,549.78c-1.56-4.24-.58-6.38,4.43-6.17,5.89.25,11.8.16,17.7-.05,2.89-.1,6.29,1.17,8.79-2.66-4.38-1.65-10.51-.14-11.91-6.48l30-.07c2,1.93,1,3.93,0,5.8-2.3,4.33-3,8.29-1.83,11h-1.86c-9.21,5.27-19.51,1.35-29.1,3.49C651.92,552.37,644.75,556.6,640.92,549.78Z" fill="#54396f"/><path d="M688.07,551.13c-2.18-5.73-8.41-2.21-12.82-5.76,6.6-2.06,14-2.59,14.66-11l26.28-.06c-.73,6.93-8.71,6.94-11.85,11.79,3.08,2.57,6.84.26,11.27,2.85C705.31,549.39,696.56,549,688.07,551.13Z" fill="#402860"/><path d="M629.88,534.56c-.91,4.57-4.59,3.38-7.45,3.39q-43.26.12-86.5.07c-3.41,0-7,.4-8.86-3.49Z" fill="#905799"/><path d="M457.51,534.45c-6,3.45-12.47.94-18.67,1.72-3.78.49-8-1.35-11.3,1.86H417.49c2.65-3.19,6.6-.89,8.29-3.67Z" fill="#624677"/><path d="M892.7,330.15c-5.59,4.21-2.75,9.71-2.29,14.84a5.9,5.9,0,0,1-3.69-5.61c0-2.07.28-4.24-1.86-5.61A9.55,9.55,0,0,1,892.7,330.15Z" fill="#44365f"/><path d="M277.28,395.44c9-10,24-11.18,32.14-22.35,16.89,4,34.08,2.46,50.94.94,7.37-.66,14.09,1.83,21.09.91,18.24-2.42,36.58-1.35,54.87-2,11.26-.38,22.24,2,33.4,2.05,2.46,0,4.25.79,4.64,3.49C461.88,383.8,451,392.88,437,394.65c-10.7,1.35-21.54,1.67-32,4.48-9.92-1.1-19.86-.24-29.78-.26-29-.06-57.93-.31-86.9.13C284.27,399.06,280.12,399.21,277.28,395.44Z" fill="#664c77"/><path d="M308.93,369.22l-9-5.14c4.13-2.27,7.85.28,10.88,2C313.57,367.62,310.26,368.48,308.93,369.22Z" fill="#55416b"/><path d="M226.84,431.07q-2.78,4.71-5.56,9.43c-16.53-2.27-32.46-7.15-48.55-11.29C190.79,429,208.73,432.51,226.84,431.07Z" fill="#2c2c56"/><path d="M646.92,620.31a7.51,7.51,0,0,1-1.67.58c-10.16,4-20.87,2.4-31.35,3-2.15.12-4.31,0-6.42.6C598.6,624,590,627.75,581,625.91c-3.31-2.61-5.26-5.62-2.92-9.9,3.39-.4,6.81-.12,11.33-.16-5.32-.31-9.57.48-13.76-.63a2.43,2.43,0,0,1-.1-2.74c2-1.87,4.57-2,7.11-2.13,5.64.46,10.89-.31,15-4.79,11.72-1.1,23.33,2.05,35,.89,5.36,0,10.73-.07,16.09,0-5-.13-10,0-15.09-.07-6.44,0-12.87.05-19.31,0-2.88-1.8-8.15,1-9-4.69,2-1.65,3.9-1.44,5.84,0,12.34-4.38,25.25.59,37.68-2.32,3.37.08,6.91-.45,10.08.39,4.87,1.3,12.17-4.29,14.68,5.05.26,1,5.72.53,8.77.74-3.12,6.7-9.11,3.15-13.75,3.5C659.65,609.76,651.75,611.86,646.92,620.31Z" fill="#362757"/><path d="M583,612.76l-7.24.67c-6.55,4-13.81,1.54-20.72,2.28q-14.85,0-29.7,0c-12.14,0-24.3.25-36.29-2.06-2.84-.55-7.36.6-6.42-5,2.57-2.16,5.75-2.43,8.83-2.25,12.76.75,25.08-4.41,37.88-2.7,3.58-.86,7.26-.76,10.91-.9,3.84-.14,3.72-.21,5.95-3.41,1.48-2.14,3.92-2.82,6.44-2.9,1.38,0,3.75,1.12,1.88-2a4.41,4.41,0,0,1,2.08-2,17.81,17.81,0,0,1,15.35,1.57,2.78,2.78,0,0,0,1.63.25c.64,2.7-1.85,2.29-2.26,2.55,12.63,2.9,26.37.84,39.83,3.15a2.67,2.67,0,0,1,.09,1.63l-5.34.48c-10.21,3.69-20.82,4.22-31.49,4.1-2,.38-4.23-.75-6.13.8C572.37,611.17,580.31,605.06,583,612.76Z" fill="#d7d2dc"/><path d="M571.92,594.14l-16.93.3c-7.35,3.82-16.34,4.83-22,.41-3.93-3.05-5.21-1.48-7.3-.31-4.64,2.58-9.57,2.19-14.49,2.37-3.66.14-7.5-.68-10.8,1.8a12.24,12.24,0,0,1-2.89,1.28c-5.9.54-11.88,2-17.41-1.48-.4-5.87,4.37-1.76,6-3.65a104.59,104.59,0,0,1-27.91,2c-3.44-.21-7.75.55-8.17-4.9,10.46-1.49,21,.5,31.46-1.06,4-.12,7.94-.2,11.9-.38,3.13-.14,2.19-2,1.54-3.79,4.6-4.09,10-2.39,15.2-2.09,12.85,2.73,25.86.65,38.78,1.26,3.7.18,7.41-.07,11.11.28,3.71,1.31,8.24.84,10.71,4.88Z" fill="#5e4c79"/><path d="M602,581.1c14.74-.93,29.68,1.57,44.25-2.89,3.45-1.05,6.88.06,7.66,4.56-21.57,2.85-43.18,5.18-65,3.78a1.61,1.61,0,0,1-.58-1.46c.09-.54.2-.8.33-.8C592.45,580.5,597.78,583.13,602,581.1Z" fill="#b4abc2"/><path d="M570.72,591.06c-3.69-.51-7.46-.66-10.74-2.74-14.06-1.77-28.23.36-42.31-1.14a2.29,2.29,0,0,1,.33-3.11c3.84-2.94,8.31-1.91,12.57-1.88,12.69.11,25.38-.4,38.07.25,5.44,2.54,12.76-.16,16.91,6C581.43,594,575.59,589.76,570.72,591.06Z" fill="#66537f"/><path d="M611.12,600.09c-15.6-2-31.52,1.43-47.3-2.74,3.08-2.32,7.26.2,9.73-3,2.38-1.67,4.88-2.83,7.88-1.9.88,1.22,2.76.4,3.57,1.75-1.72,4.66,2,3.15,4,3.39C596.34,598.48,604.06,596.3,611.12,600.09Z" fill="#5e4c79"/><path d="M585,594.24l-3.57-1.75,20.32-.26a84.29,84.29,0,0,1,24.62-.05c.91.16,2.27,0,2.65.52,1.62,2.27-.88,1.46-1.44,1.46-10.18,0-20.36-.14-30.54-.17C593,594,589,594.15,585,594.24Z" fill="#9993ae"/><path d="M660,572.07l-5-1c8.51-.49,17-3.23,25.31.6Z" fill="#958ca9"/><path d="M626.37,592.18l-24.62.05C610,589.36,618.16,589.71,626.37,592.18Z" fill="#5e4c79"/><path d="M585.55,588.45c-4.78-3-10.76-.17-15.53-3.21,6.14-4.84,12.31-4.75,18.5-.11.11.48.24,1,.39,1.42Z" fill="#5e4c79"/><path d="M588.52,585.13l-18.5.11-52.59-.12c-6.63,2.72-13.47.63-20.13.48-21.35-.47-42.72-.84-64.05-2.18-1.76-1-4.37.24-5.65-2.09q25.08-.18,50.16-.38c.26,0,.73-.29.74-.46a5.41,5.41,0,0,0-.24-1.41c-.72-.33-.95-.66-.7-1a1,1,0,0,1,.75-.45l5.25-.73c0-.57.05-1.14.07-1.7H463.79c1.06-5.87,5.94-4,9.5-4.57,4.06-.68,7.69,1.66,11.87,2.13-2-.58-4.62-.71-2.31-3.41,1.48-1.71,3.84-2.06,6-2,31.8.11,63.61-1,95.4.56,5.83,3.8,12.43,2.76,18.84,3.16,3.57.22,8.38-1.6,9.61,4.23l-.79-.07-.77.19c-8.42,5.4-17.21-.15-25.05,1,1.9.25,4.55-.11,7.2.11,3,1.3,6.26,2,8.55,4.53l.11,0C599.59,589.4,592.11,580.77,588.52,585.13Z" fill="#f3f1f4"/><path d="M521.44,635.29c-15.26.32-30.45-1.65-45.61-2.56a44.54,44.54,0,0,1-16.44-4.51l14.71-.69c-9.83-3-20.14.49-31-2.4,8.46-2.17,16.59.56,23.84-3,4.3-2.39,8.77-3.1,13.48-1.4,7.7,5,17,2.08,25.1,5-2.23-1.25-5.15.48-7.16-1.71.48-3.22,3-3.59,5.53-4.1A30.69,30.69,0,0,1,516,621.19c2.77.59,5.76.27,8.31,1.84,1.5,2.33,2.91,4,6.43,3.23,4.51-1,9,1.21,13.65,1.17,2.23.79,5.51.82,4.79,4.33-.66,3.2-3.61,4.17-6.52,4.22C535.55,636.1,528.53,634.54,521.44,635.29Z" fill="#928ba5"/><path d="M482,622.68l-15.08-.59c.6-1,1.2-2.06,1.81-3.09-.34-.74,2.75-1.78-.16-2.25-2.57-.41-5.61.8-7.35-2.28l-5.59-6.78c5.77-5.33,12.87-2.12,19.33-3,2.76.1,5.56,0,8,1.56a1.87,1.87,0,0,1,.59,2.78c6.59,4.7,14.46,2.44,21.67,3.74,6.32,1.13,13,.41,19.47.5-2.14,7-7.84,5.48-12.73,5-6.35-.56-12.39-3.68-17.88-2.49,7.61,0,7.61,0,9.57,6.2-2,0-4.07-.31-5.28,1.85C492.78,625.84,487.37,624.53,482,622.68Z" fill="#312255"/><path d="M450,592.39c8.27,3.9,17,1.17,25.52,1.77,5.76.41,11.58.08,18.84.08-5.47,3.4-10.75,0-14.55,3.48-6.26,4.25-12.81,1.64-18,1.41,11.27,2.94,24.2-1.41,37.88.47-3.71,5.92-8.54,6.2-13.39,6.46a74.07,74.07,0,0,0-18.64-.14,8.57,8.57,0,0,1-4.52.22c-3.58-1.68-8.26,1-11.3-2.83-3.62-2.89-8-.83-11.92-1.91-9.06-1.95-18.43,1.05-27.42-1.75.52-8.69,7.55-5.83,11.26-5,7.38,1.64,14.45,6.48,20.19-2.88.57-.94,2.87-.81,4.37-1.18A4.34,4.34,0,0,1,450,592.39Z" fill="#392a58"/><path d="M521.44,635.29c5-3.66,10.62-1,15.92-1.61,3.53-.42,7.27.63,11.22-1.68-1.74-2.91-4.43-1.9-6.39-2.53.91-6,6.45-7.07,9.65-5.33,10.55,5.73,21.57,1.23,32.19,3,7.22.79,15.08-1.84,21.51,3.73-8.7,3.21-17.76.38-26.37,2.62l-21.84,2.42c-3.56,3-7.71,2.22-11.8,1.92-6.79-1.46-13.76-1.07-20.61-2Z" fill="#eceaee"/><path d="M433.25,583.42c28.09-.77,56.12,1,84.18,1.7a4,4,0,0,1,0,1.47c-2.28,1.77-4.68,1.27-7.1.36l-15.41-.22C474.29,587,453.67,587.19,433.25,583.42Z" fill="#231653"/><path d="M461.23,614.47c4.4,1.27,9.67-1.43,14,3.29L468.74,619c-5.74-1.34-12.26,1.83-17.9-2.81C454.41,613.88,458,615.25,461.23,614.47Z" fill="#837897"/><path d="M502.37,640.7c-8.9.09-16,2-25.34-2.32C486.76,637.27,493.84,635.5,502.37,640.7Z" fill="#7c7495"/><path d="M451.86,603.31c3.79,1.11,8.06-.71,11.61,1.87-4.74,3-10.28-.21-15.13,1.93L430.06,605c0-.55,0-1.1,0-1.65Z" fill="#9e96ae"/><path d="M415.12,578.9c10.91-3.28,21.93-1,32.91-.84-6.72,2.51-13.74.6-20.56,1.56Z" fill="#b2a6bd"/><path d="M450,592.39c-.56-.6-1.12-1.21-1.69-1.81l33.15.32C471.14,594.29,460.5,591.58,450,592.39Z" fill="#887c9f"/><path d="M412.52,599.65c9.09,1.35,18.46-1.68,27.42,1.76l-28.06.15a1,1,0,0,1-.76-.39C410.61,599.82,412,600.1,412.52,599.65Z" fill="#a6a0b2"/><path d="M524.92,635.84l20.52.11c1.88.47,3,1.45,2.39,3.59a3.76,3.76,0,0,1-3.61.11c-6.31-2-12.83-2.59-19.41-2.67A8.79,8.79,0,0,0,524.92,635.84Z" fill="#56466c"/><path d="M448.34,607.11c4.69-3.44,10.18-.56,15.13-1.93l3.25.09c3.28-.28,7-2.85,9.33,1.78l-20.41.64Z" fill="#ddd9e0"/><path d="M637.43,562.49c1.85.65,4,1.87.39,2.6-4.94,1-10.08,1-15.14,1.4-2.78,2.63-6.32,2.31-9.7,2.34-42.17.32-84.35.69-126.51-.7-6.61-.22-13.54,3.59-19.74-1.63l-10.62-.66c-3.85-1.32-7.83-.33-11.73-.68-1.62-.15-3.91.44-3.41-2.58a2,2,0,0,0,1.57-.36l48.15-.1c5.41-2.91,11.14-2.87,17-2a134.76,134.76,0,0,0,31.16.51c3-1.29,5.88.93,8.14.44-3.58-3.09-1.71-5.07,1.81-6.2,4.09-1.32,8.44-.62,12.68-.79,8.63.4,17.12-.69,25.68-1.65a67.19,67.19,0,0,1,24.67,1.8,11.3,11.3,0,0,1,1.84.12c4.21.84,11.37-2.29,11.7,3.57.23,4.18-7.24,2.81-11.19,3.3-6.29.77-12.74.26-16.07.22,7.35.67,17.71,0,28-1.26C630.28,559.68,634.17,559.22,637.43,562.49Z" fill="#ebe8ed"/><path d="M551.39,549.05l61.56.63c1.92,2.16,7.81-2.47,7.1,4.16-2,1.21-4.19,1-6.37,1.09-17.77-2.11-35.47-.46-53.17.88-8.1-.94-16,1.53-24,1.74-15.76.41-31-4-46.8-4.77-10.73-.56-21.65,1-32.28-1.57a3.53,3.53,0,0,1-1.7-.27,1.94,1.94,0,0,1,.74-2.8c3.59-2.16,7.61-1.3,11.46-1.63,8-.13,16,0,24.06,0,15.94,0,31.87-.06,47.79.06C543.8,546.63,548,545.86,551.39,549.05Z" fill="#f1eff1"/><path d="M466.68,549l-10.88.5c-8-.73-15.91.15-23.06.68,3.83,1.81,9.17-3.35,13.59,1-10.37,4-20.22,2.54-30.42-3.34l10.58-1c-5.67-5.55-12.65-1.7-19.37-4.78,8.8-5,18.25.42,25.94-4.08a111.76,111.76,0,0,1,43.16,5.16C474.56,547.67,468,544,466.68,549Z" fill="#624677"/><path d="M540,562.22c-9.16,4.17-19,2.5-28.16,1.54-7-.73-14.15-.66-21.16-1.64,3.2-3.19.71-3.64-1.79-3.23a87.41,87.41,0,0,1-34.41-1.44c11-.22,21.54-4.16,32.58-2.79,7.78-3.94,15.91-.87,23.62-.27,8.25.64,16.48,1.52,24.77,1.41C540.46,555.73,541.28,558.11,540,562.22Z" fill="#d7d3dd"/><path d="M540,562.22c-1.69-4.23-4.2-6.12-9.34-5.79a212.07,212.07,0,0,1-43.6-1.77c-6.5-2.65-13.33-.39-19.94-1.41-3.26-.5-6.88.72-9.66-2,18.07-.1,36.75-3.08,54.06.53,16.62,3.47,32.77,2,49.09,3.14.57.29.8.62.68,1s-.27.62-.44.62c-3.11,0-6.23,0-9.34.15-2.17.08-2.16.14-2.82,4.13C548.46,562.27,548.46,562.27,540,562.22Z" fill="#b6adbf"/><path d="M440.21,560.26l-23.58.1c-.25-2.12.42-3.78,2.75-3.82,6.44-.12,12.89-.15,19.33,0C441.62,556.58,441.3,558.37,440.21,560.26Z" fill="#9b92ab"/><path d="M446.33,551.22H429.77c8.64-1.78,17.13-6.25,26-1.69q0,.71,0,1.41Z" fill="#b6adbf"/><path d="M466.73,566.5c24.28-.33,48.49,1.61,72.79,1.59,27.75,0,55.43-1.63,83.16-1.6l4.25,2.89c-14.21,3.9-28.48,4.52-42.83.75H483.61c3.82,1.91,7.3-.18,9.58,2.86-9.83,2.07-19.91-1.23-29.41,2.25-6.57-2.9-13.3-4.94-20.78-3.56C450.08,565.23,459.21,569.73,466.73,566.5Z" fill="#68587e"/><path d="M402.55,571.92c8.43-2.41,16.82-3.38,25.08.22C419.25,574.22,410.88,573.67,402.55,571.92Z" fill="#8f859e"/><path d="M441,562.58c4.43,3.94,10.57,0,15.13,3.26-6.5.55-13,1.42-19.31-1.36C436.66,560.5,439.41,562.84,441,562.58Z" fill="#68587e"/><path d="M478.31,577.67a3.19,3.19,0,0,1-.05,1.41h-17.4A34.68,34.68,0,0,1,478.31,577.67Z" fill="#b4acc5"/><path d="M556.7,654c5.27,0,10.54.09,15.8.15,6.32.07,12.6.32,17.86,4.89-8.17,3.37-17.43-2.5-25.48,2.48-3.89-.69-6.71-3.33-9.87-5.37,0-.54,0-1.08,0-1.62C555.37,653.54,555.91,653.37,556.7,654Z" fill="#d5cad9"/><path d="M563,641.29c5.79,3.45,12.12,1.48,18.22,1.8,2.19,1.47,4.68.52,7,.91,2,.33,3.55,1,2,3.39a26.53,26.53,0,0,1-5,.25c-15.09-.6-30.22,1.2-45.26-1l.09.07,9.12-3.82C553.41,639.53,558.07,639.52,563,641.29Z" fill="#ccc8d3"/><path d="M563,641.29c-4.41,2.16-9.11,1.87-13.8,1.63-.5-2.82-3.77-1.45-4.93-3.27l3.23-.49c5-3.42,10.13-.88,15.21-.12l7.42.46C567.82,642,565.2,640.82,563,641.29Z" fill="#dcd8dc"/><path d="M587.08,646.91l2.86-.7c9.5-3.71,19.29-2.32,29-1.72l24.11.68c-7,4.09-15.34-1-22.38,3.06-6.89,1.27-13.83-.23-20.73.45l-12.74-.46-1.32-.49Z" fill="#4a316a"/><path d="M600,648.68c6.82-4.14,13.8-1,20.73-.45,7.85,1.16,16-1.37,23.7,1.84l-40.48.54H600.2C600.13,650,600.05,649.32,600,648.68Z" fill="#9393a5"/><path d="M587.08,646.91a2.45,2.45,0,0,0,.16,1.31c-13.48.06-27,.13-40.43.14-2.4,0-5,.42-6.87-1.69Z" fill="#8f8da1"/><path d="M556.7,654a4.78,4.78,0,0,0-1.64.53l-29.8-.57c2.07-2.47,5.18-.79,7.59-1.9l23.87.51A9.73,9.73,0,0,1,556.7,654Z" fill="#1c1f41"/><path d="M579.17,633.47c8-3.84,16.69.35,26-2.61-7.84-2.67-14.81-.05-21.5-1.26-.55-4,2.63-3,4.66-3.45a13.51,13.51,0,0,1,7.16.79c-.68-.74-1.63-1.5-.91-2.57s2.15-.84,3.33-1.07c3.13-.63,6.53,1.34,9.46-1,12.54-2.57,25.18-2,37.84-1.4-.07.42-.15.83-.23,1.24C624.18,632.35,602.07,635.2,579.17,633.47Z" fill="#6d5487"/><path d="M619,644.49l-29,1.72c-2.18-3.11-6.43-.44-8.77-3.12,12.59-1.36,25.16.26,37.73.2A4.41,4.41,0,0,0,619,644.49Z" fill="#776f89"/><path d="M562.66,639l-15.21.12-2-3.21,11.89-.06Z" fill="#968ca7"/><path d="M581.79,640.6c5.8-2.18,11.79-1.75,17.84,0Z" fill="#9897ad"/><path d="M277.28,395.44q28.86.07,57.73.15c20.54,0,41.08,0,61.62.07,3.09,0,7.23-1.6,8.37,3.47-27.28,10.47-54.67,19.21-84.64,19.48-19,.17-38.05,5-57.07,7.74-10.13,1.48-20.19,3.65-30.53,3,9.08-4.24,18.46-8.78,23.9-17.24,4.34-6.75,10.49-10.73,16.26-15.48C274,395.74,275.8,395.81,277.28,395.44Z" fill="#6f537f"/><path d="M615,553.29l5.35-.56c10.15-3.46,20.44.17,30.64-.59,2.13.29,2.47,1.79,2.41,3.55-3.08,6-9.41,2.41-13.75,4.67l-2.24,2.13c-17.2,0-34.42,1.46-51.65-1.64,12.56-1.79,25.45,1.07,37.28-3.07l-9.95-1C611.92,554.61,613.71,554.09,615,553.29Z" fill="#54396f"/><path d="M652.44,556.92l.09-3.58c.76-1.55,1.89-1.24,3.08-.61,10.07-3,20.4-1,30.6-1.59v3.74a185,185,0,0,1-19.41,3.4C661.81,560,657,560.07,652.44,556.92Z" fill="#402860"/><path d="M584.1,570.13c14.29.67,28.59,1.52,42.83-.75,2.87.65,6.09-.7,10.57,2.68-9.72-.81-17.3.85-24.75,3.23-5.82-2.73-12-1.33-18-1.37C590.63,573.9,586.81,573.78,584.1,570.13Z" fill="#675d7f"/><path d="M652.44,556.92c4.39.27,8.8,3.53,13.16-.1,4.68-2,9.08-1.26,13.27,1.41.4,2.2.4,2.3-.94,2.3q-19.14-.06-38.26-.17C643.25,556.7,648.36,558.73,652.44,556.92Z" fill="#e4dde7"/><path d="M594.23,577.58H577.64c0-.72,0-1.45,0-2.17h33.54a6.1,6.1,0,0,1,.22,1.7C605.72,578.49,600,580.23,594.23,577.58Z" fill="#675d7f"/><path d="M594.23,577.58l17.18-.47,8.51.76c-6.86,2.89-12.92,0-18,3.19C598.7,581.32,595.37,581.87,594.23,577.58Z" fill="#b4abc2"/><path d="M678.87,558.23l-13.27-1.41c6.55-4,13.78-.89,20.61-1.94l5.61,0c.66.41.88.82.65,1.21s-.45.59-.68.59C687.5,557.32,682.9,555.37,678.87,558.23Z" fill="#54396f"/><path d="M691.79,556.71q0-.9,0-1.8h22c0,.6,0,1.2,0,1.8Z" fill="#402860"/><path d="M485.93,543.88c42.43-7.06,84.64-2,126.9,3.45-8.08,0-16.18.2-24.26-.06s-16.12-1-24.18-1.51c-21.61,3.38-43.36,1.12-65,1.63C495,545.92,488.94,550.67,485.93,543.88Z" fill="#d7d0dc"/><path d="M498.87,546c21.83-2,43.69,2.1,65.52-.21-3.67,3.71-9.31-.33-13,3.29l-60,0C492.25,544.09,496.73,547.83,498.87,546Z" fill="#847292"/><path d="M498.87,546c-2,2.24-5.72.27-7.44,3.11L466.68,549c-.36-1.39-4.55-2.9-.07-4.14a92.7,92.7,0,0,1,9.61-1.66l9.71.65C489.8,547.33,494.64,544.76,498.87,546Z" fill="#a495b1"/><path d="M655.61,552.73l-3.08.61-32.16-.61L613,549.67l28,.11C645.36,553.06,651.32,548.76,655.61,552.73Z" fill="#b3a4c1"/><path d="M607.41,622.28a3.58,3.58,0,0,0,.82.43c1,.24,1.11,1,.21,1-4,.17-8,.08-12.31.08,1,3.71,4.76.83,5.9,3.66-5.94,2.52-12.65-1.54-18.32,2.12-10.19-1-20.76,3.31-30.7-3.21-3-2-7.83-.22-10.83,3.09-5.37.61-10.45-1.75-16.17-.45-6.71,1.52-1-2.85-1.29-4.49,3-3.86,7.31-2.73,11.23-3,7.43-.48,15,1,22.3-1.21,7.43-.74,15-2,21.4,3.39Z" fill="#d6c8db"/><path d="M583,612.76c-3.36-3.27-7.59-1.25-11.38-1.89-2.66-.45-7.27,1.73-7.35-2.65-.08-4.6,4.07-5.17,8-4.33,7.78,2.67,15.74,1.24,23.65,1.09a1.57,1.57,0,0,1,.34,2.44C595.07,617.26,587.66,611.61,583,612.76Z" fill="#aaa0b5"/><path d="M596.4,605.73c-8.29,2.67-16.39,2.81-24.13-1.84,11.24.14,22.32-2.73,33.6-1.69l7.3,3.13C607.62,607.26,602,606.58,596.4,605.73Z" fill="#625278"/><path d="M575.84,614.5h14.77c-4.06,3.06-8.45,2.14-12.68,2.62-1.55,3.45-4,4.56-7.95,4.44-4.42-.13-9.18-1.54-13.34,1.44-2,.31-3.95.61-5.79-.59a6,6,0,0,1,2.77-6.84A157.12,157.12,0,0,1,575.84,614.5Z" fill="#998ba7"/><path d="M605.18,617.53c7.47-4.36,15.46-2.07,23.32-1.43C621,620.3,613.06,618.46,605.18,617.53Z" fill="#8c7aa1"/><path d="M575.84,614.5c-7.4,2.67-15.14,2.17-22.8,2.36a3,3,0,0,1-3.76.16c-.52-5.17,4.08-1.95,5.76-3.52l20.69-.07A6.36,6.36,0,0,0,575.84,614.5Z" fill="#6b4c80"/><path d="M557,622c6.59-3.21,14.9,1,20.89-4.83,2.06,1.82,4,3.68,1.72,6.62l-21-1.22C557.8,623.22,557.25,623.08,557,622Z" fill="#6d5487"/><path d="M596.4,605.73l16.77-.4,20.62.09c.62.46.81.88.57,1.28s-.47.56-.7.56l-37.4.16A13.59,13.59,0,0,0,596.4,605.73Z" fill="#e4dde4"/><path d="M633.66,607.26a3.71,3.71,0,0,0,.13-1.84c5.5-.6,11-.54,16.43,1.84Z" fill="#988db0"/><path d="M485.48,603.92l11.48-2.8c-12.53-1-25.09,2.74-37.27-3.4h20.15l19.17-.09c2.31-1.66,4.84-1.59,7.44-.93A13.68,13.68,0,0,0,518,598.47a39.49,39.49,0,0,1,17.47-.58,5.09,5.09,0,0,1,3.07,2.62c-.37,4.86-6.42,1.53-7.6,5.24-15.79.82-31.39,4.42-47.32,3.28a.92.92,0,0,1,0-1.1C482.15,605.63,484,604.84,485.48,603.92Z" fill="#837995"/><path d="M555,613.5l-5.63,2.86c-7.24,5.84-15.9,2.58-23.87,3.43a64.78,64.78,0,0,1-11-.31c3.56.87,7.64-1.49,10.83,1.76-2,4-6.32.71-9,2.74l-12.69-2c-3.39-6.84-10.54-4.44-18.54-6.61,10.93-.74,19.2-1.81,27.42.72,4.57,1.41,8.39-.67,12.16-2.86Z" fill="#7d7493"/><path d="M498.86,595.72a120.9,120.9,0,0,1,31.88-4c7.6.15,16,2.42,24.25,2.76,0,.53,0,1,0,1.58-2.49,1.6-5.37,1.67-8.18,2-9.74,1.3-19.55-1.4-29.28.53C511.06,599.31,505,597.47,498.86,595.72Z" fill="#ddd3e2"/><path d="M547.72,596.39,555,596a9,9,0,0,1,.89.25c.28.11.54.26.82.4-6.41,1.82-9.22,10.58-17.56,8.91-2.63-.52-5.48.08-8.23.17-.44-.72-4-.4-1.09-2.09,2.43-1.4,5.59-1.54,8.43-2.24C540.34,597.72,544.35,597.65,547.72,596.39Z" fill="#554b6c"/><path d="M510.34,587l7.1-.36c10.46-.09,20.91-.25,31.37-.24,3.81,0,8-1.63,11.17,2q-21.83.1-43.64.2C514.23,588.52,511.94,589,510.34,587Z" fill="#dbd9df"/><path d="M498.86,595.72l18.35.65a1.55,1.55,0,0,1-.33,2.55c-3.52,1.29-7,1.54-10.29-.63l-7.58-.66Z" fill="#392a58"/><path d="M528.47,579.71H562.6C551.23,581.27,539.86,582.44,528.47,579.71Z" fill="#554f6f"/><path d="M516.39,624c2.24-2.67,5.46-1.07,8.13-1.87,9-3.45,18.07-4.47,27.11,0L557,622l1.62.57c-11.11,4.05-22.68.38-33.94,2Z" fill="#fafafb"/><path d="M482,622.68c5.6-1.37,10.9,1.28,16.41,1.19h9.75l-.09,2.11H484.34C482,626,480.85,625.14,482,622.68Z" fill="#c6bfd0"/><path d="M485.48,603.92c-.61,1.33-1.23,2.67-1.84,4l-7.59-.88c-2.72-2.64-6.37-.39-9.33-1.78C472.81,602.55,479.16,603.38,485.48,603.92Z" fill="#9e96ae"/><path d="M615,553.29l-1.91,3.49c-17.4-3.42-34.84.71-52.25-.27a5.64,5.64,0,0,1-.24-1.63C578.68,551.7,596.86,552.86,615,553.29Z" fill="#745b89"/><path d="M551.63,622.11H524.52c-4.83-3.65-10.92-.28-16.54-3l41.43-2.72,3.63.5Z" fill="#d8d6de"/><path d="M506.59,598.29l10.69-.55c6.27.07,12.93-3.57,18.64,1.92-6.68.5-13.36,1.34-20,1.35C512.76,601,508.35,603.57,506.59,598.29Z" fill="#f4f2f5"/><path d="M535.92,599.66c-6-2.74-12.45-1-18.64-1.92a1.48,1.48,0,0,0-.07-1.37l30.51,0c-3.29,1.42-5.15,5.52-9.46,5Z" fill="#a49fb0"/></svg>