<svg id="Layer_1" data-name="Layer 1" xmlns="http://www.w3.org/2000/svg" viewBox="0 0 1080 675"><path d="M1080,509.5V674.83q-535.83,0-1071.66.17C1.62,675,0,673.52,0,666.92v-.25c.31-58.94.18-117.88.18-176.82,5-4.62,8.8-1.49,12.47,2,10.49,10,21.23,19.63,32.09,29.2,22.6,20,45.67,39.47,67.56,60.16,11,10.44,23.6,14.45,37.32,16.17,28.74,3.61,57.12,9.42,85.75,13.52,36.41,5.23,72.68,11.32,109.05,16.79,20,3,40,5.3,59.91,8.89,7.45,1.34,13.94-1.28,20-4.17,18.51-8.83,37.46-16.78,55.29-27a44.82,44.82,0,0,0,9.59-2.15c9.15-3.05,17.41-8.4,26.34-12,15.32-6.19,29.71-14.49,45-20.68a19.65,19.65,0,0,0,3.51-1.89c1.75-1.16,3.36-2.47,5.1-3.62.41-.27.82-.52,1.24-.77,11.22-6.54,23.33-6.07,34.73-3.64,1.51.32,3,.67,4.49,1a115.57,115.57,0,0,0,12.85,2.51,134.54,134.54,0,0,0,33.19.23q4.23-.43,8.47-1.1l2.56-.08q4.07-.18,8.1-.53c15.7-1.39,31.21-4.55,46.93-5.52,27.66-1.7,54.74-8,82.58-9,15.11-.51,30.33-3.87,45.52-5.8,11.63-1.49,23.32-2.42,35-3.74q2.74-.32,5.48-.66c3-.37,5.77.7,8.55,1.7,1,.34,1.89.67,2.85.94a122.91,122.91,0,0,1,21.91,8.23,51.77,51.77,0,0,0,10.8,4,49.54,49.54,0,0,0,15,1.31c15.9-1,30.85-8.75,45.83-14.22C1023.48,529.73,1051.69,519.48,1080,509.5Z" fill="#01122b"/><path d="M1080,82.2v57.74a12.79,12.79,0,0,1-6.59-2.36c-6.93,4.71-11.72.85-17.57-3.08-4.17-2.8-10.41-2.82-15.67-.19-2.77,1.38-6.37,3.16-8.62,1.61-9.47-6.49-19.35-.23-28.88-1.7-1.5-.23-3.21-.66-4.21.75-4.2,5.94-9.29,5.78-15,2.59-2.53-1.4-3.75.72-5.23,2.22-4.17,4.22-8.13,3.6-11.25-1.14-2.94-4.45-6.79-4.91-11.75-4.61-12,.7-24.08.31-35.64,4.72-3.23,1.23-6.3-.48-9.22-2.5-8.82-6.12-14.14-5-20.53,3.74-7.62,10.47-12.15,10.11-18.45-1.6-1.86-3.44-4.53-6.49-8.29-6.09-8,.86-16.65-.77-24,3.27-6.74,3.72-12.85,3.13-18.73-.68-3.68-2.39-6.63-2-10,0-7.12,4.13-14.46,4.81-22.57,2.76-7-1.77-14.44-.54-21.67-.72-5.13-.14-10.27.11-15.18-1.89-2.3-.93-5-1.3-7,.07-8.67,5.71-18.19,3.11-27.36,2.89-12.38-.28-24.69-2-37-3-5.89-.46-11.87,2.87-17.84,1.65-8.13-1.65-15.78-4-23.81,1.28-2.85,1.87-7.94,1.2-11.28-1.23-8.52-6.2-16.12-3-22.6,2.74s-12.9,2.11-18.7.24a107,107,0,0,0-43.47-4.54c-14.39,1.34-28.76-1.27-43.19-.49-3.85.21-6.92.45-9.34,4-5.81,8.49-12.27,9.19-20.82,2.64-11-8.4-12.95-8.7-24.38-1.29-4.32,2.79-8.13,2.21-12.81,1.45-12-1.95-22.83-7.44-36.16-6.31-11,.94-23.34,1.26-34.65-2.55-2.42-.82-4.75-.17-7.08.64-6.58,2.29-13.06,4.28-20.23,1.65-3.82-1.41-7.74.62-11.26,2.38-4,2-7.47,2-11.07-1.63,1.37,4.4.86,8.14-3.43,10-4.55,2-8.78,1.13-12.57-2.22-10.31-9.15-10.32-9.09-20.52.37-3.41,3.16-7.39,4.16-11.68,2.06-4-2-4.5-5.15-2.74-12.24-19.65-.31-38.78,4.3-57.49,11a22.56,22.56,0,0,0-5.12-.42h0c-1.59,0-3.17.1-4.76.09a19.24,19.24,0,0,1-5.52-.71c-3.78-1.79-4.11-5.68-5.47-9-1.66,1.61-1.35,3.9-2.1,5.81-2.53,6.49-9.1,8.34-13.44,3-4.65-5.73-8.87-6-16.16-5.14-8.83,1-18.4-1.35-27.57-2.84-11.86-1.94-23.18-3.51-35.45.38-11.09,3.51-23.39,1.84-34.91-1.19a21,21,0,0,0-14.9,1.38c-8,3.77-15.78,5.16-23.62-1.3-3.8-3.13-9.88-2.91-13.14-7.45V92.68c1.7-3.48,4.36-5.24,8.28-6.13,7.89-1.8,16.18-2,23.9-2.19,11-.27,22-3.22,33.09-1,4.71,1,8.42-2.8,12.72-4,5.74-1.65,10.89-1.34,15.67,1.45,6.54,3.8,13.26,3.23,20.06,1.91,2.36-.46,4.83-1.93,7-.81,8.65,4.49,16.41.43,23-3.66,6.9-4.26,11.34-4.33,15.86,2.34a16.88,16.88,0,0,0,3.39,3,13.6,13.6,0,0,0,.81,1.1,9.67,9.67,0,0,0,3.39,2.81c2.05,1,4.41,1,7.24.21.31-.08.63-.17,1-.28,6.88-2.23,14.2-2.08,21.48-2.21,21.32-.39,42.6-1.27,64-.76,10.25.24,20.13.37,30,3.24,5.77,1.69,11.43-.57,17-1.59a95.89,95.89,0,0,1,33.86-.72c12.12,2,25.16-.1,37.77-1.05,2.09-.16,4.19-1.12,6.25-.33,17.79,6.8,35.64,2.18,53.45.2,2.43-.27,4.72-.65,7.11,0,14.82,4,30,2.76,44.87,1.54a278.88,278.88,0,0,1,34.32-.34c19.25.79,38.48-1.1,57.71-.67,9.86.22,20.29,7.69,29-3,13.24,2.23,27.18-3.14,40,3.84,2.13,1.15,4.73,1,7.14.87,11.72-.46,23.41-2.06,35.17-1.08,2.49.21,3.73-1.07,4.62-3l.13-.3a13.41,13.41,0,0,1,1.27-2.87c1.53-2.5,3.48-2.92,5.77-1.77a13.59,13.59,0,0,1,2.8,2l.49.46c5.77,5.82,12.55,6.71,19.78,3.48,3.33-1.48,6.88-2.56,9.18.29,4.9,6.08,11.31,5.32,17.44,4.39,11.46-1.74,22.72-2.22,34.1.62a21.63,21.63,0,0,0,12.39-.82c7.41-2.53,15.09-2.38,23.1-2,14.09.71,27.94,1.87,41.66,5.2a12.3,12.3,0,0,0,10.37-2.36c6-5,12.63-4.47,19.67-3.78,19.46,1.9,38.88,3.62,58.4-.35C962,83.33,968,87.24,973.92,89.2c3.27,1.09,6.19,2.47,9.3,0a20.41,20.41,0,0,1,18-4.12c13.08,3.43,26.7-1.72,39.53,3.32,2.56,1,4.56-.66,6.49-2.23,2.57-2.1,6-3.11,8.27-.7,4.53,4.79,8.47,2.45,12.85.24C1074,82.81,1077.07,81.51,1080,82.2Z" fill="#012759"/><path d="M.18,464.46V430c3.53-4.56,9-4.75,13.89-5.7C79.6,411.78,145.34,400.35,211,388.62c14.11-2.52,28.3.67,42.4,1.53,21.06,1.28,42.11,3.12,63.18,4.47,33.71,2.15,67.43,4.1,101.11,6.87a432.45,432.45,0,0,0,79.48-.48c20.4-2.08,40.95-2.42,61.38-4.29,15.32-1.41,30.73-1.64,46-3.34a56.55,56.55,0,0,1,14.47.32c13.38,6.87,27.75,6.35,42.05,5.15,17.11-1.44,34,.79,51,1.39,14.18.5,28.74-.94,43-2.61,10-1.18,19.9-1.41,29.48,1.86,7,2.38,13.51,2.66,20.1-.89,4.16-2.25,8.79-1.85,13.29-1.94,19.55-.4,39,1.12,58.66.3,20.36-.85,41-2.55,61.22,2.82a13.64,13.64,0,0,0,7.2,0c17.76-5.23,36-2.12,54-3,12.33-.58,24.59-3.07,37-1.83,7.8.79,15.68,1.52,20.28,9.34-.32,5.41-4.41,6.09-8.39,6.18-20.52.48-40.91,3.08-61.41,3.87a264.06,264.06,0,0,0-49.29,6.33c-18.21,4.21-36.45,8.46-55.11,10.18-4.58-1.61-8.68-.48-12.46,2.37-4.12,2.75-8.79,3.91-13.55,4.86q-28,5.58-55.8,11.88A104,104,0,0,1,777,452.57c-29.59-.09-59.2-.72-88.77.15-31.37.94-62.67-.14-94-1-2.41-.07-4.84.06-6-.35,11.65,1.3,24.84-1.21,37.44,3,1.75,6.65-3.31,7.91-7.6,8.33-11.65,1.13-23.51,2.05-35.08,1.22-45.37-3.27-90.77-2.11-136.17-2.38-4.91,0-9.07.49-5,7a7,7,0,0,1,.68,5.24c-4.12,6.92-8.79,2.91-12.9.26a269.32,269.32,0,0,1-27.88-20c-9.41-7.92-18.13-9.75-29.23-2-12.19,8.51-17.92,7.31-28.54-3.45-7.74-7.83-17.08-13.34-25.77-19.81-5-3.75-9.64-3.51-14.78.41-12.93,9.86-25,20.83-38.52,30-8.16,5.51-14.71,5.87-23,.36-6.78-4.48-13.38-10.56-22.86-9.36A35.15,35.15,0,0,0,204,456c-16.92,11-34.38,21-52,30.85-7.79,4.36-15,6.61-23.65,1.23-5.29-3.3-11.7-1.84-17.27,1.11-3.48,1.84-6.76,4.07-11,3.28-16.29-3.88-32.35-8.26-49.5-7.65-13.79.49-25.58-7.95-38.49-11.6A19.1,19.1,0,0,1,.18,464.46Z" fill="#00629c"/><path d="M1079.85,306.56l.15.12v38.71c-20,0-40.07.28-60.11.17a32.31,32.31,0,0,0-17.3,4.46c-5.57,3.35-11.63,3.63-17-.28-4.46-3.24-9.25-4.18-14.49-4.18-33.22,0-66.45-.7-99.67.18-9.94.27-19.8-.1-29.67-.2a120.64,120.64,0,0,0-36.9,5.42c-7,2.17-14.16,2.63-20.74-2.08-7.39-5.31-15.08-8.76-24.44-4.31-3.2,1.53-7.15.93-10.77.9-44.41-.36-88.82.86-133.23-.65-12-.41-24.19-.85-35.29,5.54-4.68,2.69-9.38,2-13.35-1.79-3.07-2.91-6.77-3.09-10.73-3.76-18.27-3.12-36.66-.13-54.83,0-15.42.11-31.07.13-46.58.44-36.82.73-73.72,1.17-110.5-.21-19.09-.71-37.94,2.81-56.91,1.36-1.38-.11-2.75-.24-4.13-.4a7.36,7.36,0,0,0-5,1.31c-.52.32-1,.69-1.54,1.07-7,4.36-14.37,1.51-21.13.12-28.83-5.93-58.13-5.07-87.21-7.35-32.14-2.51-64.37-3.28-96.48-6-20.41-1.73-40.92-2-61.31-4-4-.39-7.81-1-10.46-4.46v-27.2a11,11,0,0,1,8.67-4.16c19.9-.51,39.76-2,59.6-3.52,2.72-.21,5.76-.33,8,1.05,9.89,6.05,19.24,2.87,29.05-.45,8.95-3,18.35-3.78,27.6-.41,7.12,2.59,13.64-1.35,20.48-1.94,17.59-1.5,34.52,4.79,52.2,3.53,12.69-.91,25.32-.46,37-6.52a9.06,9.06,0,0,1,10.92,1.6c2,1.89,4.32,4,7,3.87,17.27-.9,34.1,6.13,51.19,3.73,11.4-1.6,22.64-3.11,34.15-3,19,.16,38.09-.41,57.11.2,13.47.43,26.86-.89,40.51.43,9.52.91,20.12-.7,30.26-.59,30.19.35,60.39-.66,90.59,1.17,6.93.42,13.64-.36,20,3.42,2.62,1.56,6,.91,8.84-.27,10.33-4.33,21.17-4.54,32.09-4.34,5.81.11,11.27-.25,15.74-5.13,3.33-3.63,7.52-3.11,11.28.23,9.15,8.17,19.92,5.09,30.11,3.59,4.82-.71,5.09-7.11,8.17-10.34a10,10,0,0,1,1.22-1.05,7,7,0,0,1,1-.61c3.62-1.78,6.38,1.53,9.36,3.66,18,12.9,35.34,26.91,56.6,34.64,9.95,3.62,10.87,4.33,12.24-3.45.11-.57.21-1.19.32-1.86.06-.4.13-.8.2-1.23,6.53-7.83,15.33-8.09,23.89-5.79a46.18,46.18,0,0,0,23,.15c18.49-4.11,37.35-1.88,55.95-1,10.34.48,20.44-.75,30.63-.66,30.17.27,60.39-1.89,90.52,1.39a42,42,0,0,0,17.94-1.58,18.84,18.84,0,0,1,18.73,3.41c4.75,3.81,8.56,2.57,13.93.31C1056.94,303.39,1067.9,296.8,1079.85,306.56Z" fill="#004d84"/><path d="M1080,.19V42c-12-.73-24.12-3.07-36.06,1.15-6.18,2.18-12.76.26-18.81-.88-8.76-1.64-15.85,4.59-23.44,4.07s-14.55-5.69-23.29-4.05c-12.1,2.27-24.42-1.66-36.72-.22-3,.36-5.58.28-8.24,2.5-6,5-11.68,4.84-16.56-1-3.11-3.69-6.16-4.18-10.23-3.48-19,3.27-38.17.52-57.23,1.06-12.11.34-24,.2-36-1.45-.89-.12-2-.34-2.68.12-8.91,6.07-17.94,2.27-27.38,1.5-22.8-1.88-45.7.44-68.55,1.45a13,13,0,0,0-6,1.88c-4.64,2.73-9.15,2.69-13.45-.79a15.91,15.91,0,0,0-13.62-3.31c-10.35,2-21.1.95-31.3,4.1a6.48,6.48,0,0,1-4.46.16c-14-6.3-27.6-2.66-41.16,1.65-2.65.84-5.75,1.9-8,.68-7.68-4.23-16.66-2.39-24.38-5.65a26.14,26.14,0,0,0-22.73.65,21.92,21.92,0,0,1-13.27,1.71c-24.58-3.85-49.15-2.49-73.72,0-1.81.18-3.74.58-5.4,0-19.12-6.9-38.8,0-58.28-2.58-21.27-2.79-43.06-1.28-64.43.12-33.12,2.17-66.27-1.54-99.29,2a14.66,14.66,0,0,1-7-1.4c-2.54-1-5.13-2-7.9-1.31-19.08,4.95-38.23,1.61-57.37.6-9.64-.5-19.31-1.27-28.82,1.29-1.45.39-3,1.23-4.42.75-12-4.1-22.89-3.14-33,5.34-2.93,2.46-7.33,1.58-10-1.32-5.22-5.69-10.38-6.66-16.51-1.54-2.58,2.16-6.25,2.58-8.28.06C55.93,38.13,48.55,40.19,41.52,43c-13.14,5.23-24.6-2.94-36.92-4-1.78-.15-2.82-3-4.42-4.37,0-10.28.17-20.56-.1-30.83C0,1.2.45,0,2.41,0a7.79,7.79,0,0,1,1.4.15,26.32,26.32,0,0,0,4.53,0Z" fill="#011647"/><path d="M1080,136.23v36.91c-7,.64-13.86,2.26-20.81,2.34-2.91,0-6.32,1.65-8.82.31-7.76-4.14-14.49-.62-21.52,1.78-8.5,2.89-16.65,6-25.63-.13-4.82-3.29-11.78-2.61-17.55-1.84-6.22.83-11.89.6-17.65-1.61-4.46-1.72-7.72-1.1-10.43,3.73-4,7.19-7.3,8.42-13.49,4.89-.91-.52-1.87-1.14-2.92-1.86l-.23-.16c-11.75-12.15-25.84-8.85-39.8-5.89a57.51,57.51,0,0,1-7,1.36c-8.7.72-17.56-4.36-26.37,2.46-3,2.29-9.92-.16-14.58-2.68-3.28-1.78-7-3.3-10.41-1.8-8,3.47-16,2.31-24,.85-16-2.92-31.73.05-47.54,1.48-5.76.52-11.65.83-16.43-3.21-2.72-2.3-3.7-.75-5.72,1-9.32,8.2-11.11,8.11-21,.15a8.19,8.19,0,0,0-7.62-1.8c-17,4.7-34,.69-51,.4-12.93-.22-26.05.34-38.45,3.61-9.68,2.54-18.2-2.75-27.48-1-10.56,2-21.08,2.42-31.59-1.86-5.28-2.15-4.2,5.68-7.69,7.22-.31.15-.62.29-.92.4h0a7,7,0,0,1-1.12.32l-.12,0c-2.53.47-4.77-.47-7-1.59-2.68-1.37-5.32-3-8.35-2.65-6-1.4-4.93-9.16-10.08-11.36l-.29-.12a16.41,16.41,0,0,0-4.24-1.12c-1.89-.3-3.81-.42-5.68-.79-2.26-1.06-4.79-1.83-7-.56-8.66,5-18.16,3.24-27.38,3.73-2.12.11-4.76.74-6.24-.36-9.17-6.83-16.34-3-23.88,3.18-4.35,3.56-9.59,3.92-15.25,1-7.28-3.82-16-1.66-23.71-4.45-1.64-.59-3.85.46-4.87,1.91-4.86,6.92-10.54,5.71-17.51,3.3-4.82-1.67-10.31-2.92-15.91-1.29-5.15,1.49-9.22-2-13.37-4.38-5-2.84-8.66-4.2-9.74,4-1.06,8-8,10.48-14.67,5.18-4.5-3.56-8.84-4.83-14.16-3.68a10.35,10.35,0,0,1-10-2.83c-3.39-3.29-6.43-2.72-9.06,1-4.52,6.36-9.32,6.14-15.31,1.57C291.52,166,284.16,163,275.53,169c-4.35,3-10.17,3.51-15.28,5.27-6.82,2.35-10.53-1.45-10.47-9.1-6.9,6-15.95,7.12-24.32,6.34-7.67-.73-17.41,1.46-22.26-8.49-1.06-2.17-4.51-.77-6.77-.06a26.76,26.76,0,0,0-9.25,5.59c-5.43,4.69-10.52,6.07-17.19,2.12-4.73-2.81-10.24-3.73-15.24.51a7.73,7.73,0,0,1-8.53,1.35c-6.91-3.5-14.39-.19-21.39-2.35-3-.94-4.13,1.6-4.91,4-1.43,4.46-4.32,7.46-9.19,7.25-5.2-.23-7.63-3.79-9.46-8.4-3.36-8.44-6-7.85-14.53-6.08s-18,4.82-27.2.36A27.36,27.36,0,0,0,42,165c-10.38,2-21,.34-31.57,1.83-5.92.83-7.6-5-10.22-8.9V127.14c7.11.57,14.07.52,20,6.25,3.77,3.64,9.27,1.28,13.56-.93,6.65-3.44,12.84-4.09,20.55-2.27,13.29,3.13,26.56,4.68,40.31-2.29,6-3.05,15.84.37,23.61,2.24,9.67,2.31,19.9.52,29.26,4.62,2.44,1.06,3.88-.78,4.9-2.81,3-6,6-4.71,9.13-.07a10.57,10.57,0,0,0,3.83,3.75c3.4,1.6,3.57,10.35,8.55,5.79,2.28-2.09,7.18-10.51-3.16-14.21,8.14-2.76,12.36-.49,14.66,5.93,1,2.82,2.14,5.6,3.22,8.4,4.29,2.65,8.62-.26,12.92.07,12.4-6,24.51-12.78,39.15-10.91A35.68,35.68,0,0,0,255,129.21a38.39,38.39,0,0,0,4.24-1.43c2.54-1-1.36-7,3.37-5.53,5.78,1.8,2,8.67,5,12.7,2.41,3.17-1.65,2.54-3.39,2.86s-2.86,1.35-2.11,3.07a3.78,3.78,0,0,0,2.69,2c2.66.13,6,.46,6.89-2.82,1.11-4.21,2.75-6.78,7.57-7.54,7.49-1.19,15.08-4.91,17.82,6.91,1,4.35,5.83,3.27,9.43,2.6a2.41,2.41,0,0,0,2.15-2.5c-.06-1.94-1.4-2.53-3.09-2.18-2.22.47-5.11,2.46-5.17-2a7.28,7.28,0,0,1,3.94-6.71c2.62-1.39,5.83-2,7.11,1.12,2.87,6.95,6.68,4.65,11.34,2.25s9.51-4.1,14.64-.88c.94.6,2.57,1.1,3.43.69,10.55-5,21.45-3.2,32.47-2.42,12.51.88,25.1,3.08,37.68-.12,2.42-.62,4.56,1.22,5.91,3.46,1.21,2,2.75,3.28,5.2,1.92,4.63-2.58,8.37-3.58,11.61,2.58,1.7,3.25,5.37,1.52,7.72-.84,4.07-4.07,9.52-5.07,14.68-6.66,4.5-1.38,8.44-.38,11.12,3.71,2.26,3.43,5.26,5.36,9.13,6.9,4.89,1.95,7.79,2.18,8.9-4,1.16-6.37,5.33-7,11.44-6.83,18.23.59,36.52,3.1,54.73.2a28,28,0,0,1,12.48,1c6.83,2,13.49,2.61,19.53-2.46,1.79,2.84-2.09,8.44,3.8,7.66,4.59-.6,10.2,7.33,13.82-1.54,1.2-2.95,4-3.46,6.79-3.58,5.9-.26,11.44-1.24,14.13-7.39,4.94,2.62,2.78,9.54,8.57,10.57,7.24,1.29,12.32-.94,15.31-7.9.74-1.73,1.34-5,3.84-4.24,2,.59,4,2.84,5,4.84.88,1.64-3.6,5.53,1.86,5.56s11.46,2.29,16.37-2.17c.6-.55.76-2.36,1.06-2.36,4.67.25,8.23,3.8,13.13,4.09,4,.24,8.21-7.92,12.18.1a7.29,7.29,0,0,0,3.33,2.41c8.43-9.31,16.85,2.73,25.23,0,1.64-.53,3.8.47,5.38-.13,20.58-7.83,41.07,0,61.58.38,5.91.12,10.38-2.33,15.11-5s9.31-7.68,13.53,1.53c1.69,3.68,7.42,4.19,11.39,1.42,8.52-6,18.77-3.17,28.06-5.6,5.09-1.33,11.18,3.64,12.92,10.47.65,2.54.68,6,4.12,6.28,3.21.27,4.34-2.79,5.57-5.19,6.24-12.16,17.17-14.68,27.57-6.26,1.35,1.09,2.64,3.91,4.15,2.69,7.38-6,17-2.09,24.88-6.31s25.92,2.72,30.49,10.76c3.07-.31,1.26-2.78,1.79-4.17,2.36-6.15,7.89-7.4,12.12-2.45,1.43,1.68,2.53,3.67,4.92,3.22,2.84-.54,2.14-3.21,2.42-5.19.74-5.28,2.19-9.07,7.55-3.23,3.84,4.19,8.17,3.5,12.37,1.23,5-2.71,9.19-3.26,14,1,4.21,3.72,8.82,4,11.52-2.45a8.76,8.76,0,0,1,2.22-2.41c5.87,5.32,13.75,2.93,20.32,5.37,2.9,1.08.83,5.25,3.14,6.64,2.8-.15,3.16-2.15,4-3.7,1.39-2.73,2.74-5.77,6.43-5.41,3.95.39,3.33,3.52,3.08,6.27C1078.37,135.33,1078.89,136.14,1080,136.23Z" fill="#012f62"/><path d="M.18,464.46c7.67,2.71,15.48,5.08,23,8.19,13.84,5.73,27.9,9.12,43.1,8.25,12.22-.69,23.41,5.37,35.29,7.29,14-3.38,23.41,5.87,33.58,12.56,12,7.87,24.07,15.5,35.9,23.58,4.37,6.55,10.65,9.31,18.34,10,19,1.6,38,3.58,57,5.38,28.35,2.69,56.8,4.57,85.07,7.81,18.54,2.13,37.19,2.91,55.68,5.85,13.59,2.16,27.59,3.1,41.45.91,32.14-5.07,64.56-8.09,96.69-13.37,19.33-3.17,38.86-5,58.25-7.92,10-1.48,18.88,1.73,27.79,5.79,8.59,3.91,17,9.08,27.14,7.46,3.23,4.63,7.49,5.73,13.08,5,7.08-.94,14.3-.54,21.45-.13,4,.23,8.45.87,9.16,5.49.88,5.64-4.82,4.86-8,6.45-1,.52-2.33.46-3.47.81-2.36.66-4.69,1.5-7.2,1.3-15,1.27-30,2.6-44.72-1.94-8.12-2.5-16.59-2.77-24.95-3.47-11-.93-21,1.71-29.81,9-5.51,4.55-12.5,7.17-19,10.1-21.69,9.72-42.92,20.38-64.31,30.72-21.26,12.13-43.51,22.21-66.08,31.61a14.41,14.41,0,0,1-8,.58c-44.05-6.91-88-14.63-132.18-20.45-42.15-5.55-83.6-15.62-126-19.17-19.65-1.65-34-12.15-47.57-25.09-18.33-17.48-37.74-33.79-56.66-50.61-12-10.62-23.92-21.16-35.3-32.38-2.46-2.43-5.14-4.19-8.72-4.18Z" fill="#001c39"/><path d="M.18,326.63c37.53,2.33,75,5.29,112.6,6.78,24.64,1,49.18,3.16,73.81,4.06,26.48,1,52.92,2.42,78.92,8a16.91,16.91,0,0,0,10.54-.92c44.57,6.75,88.55,16.68,132.84,24.95,4.11.76,8.39,1,12.2,3.08,25.6,3.51,50.73,9,77.05,8.11,35.24-1.18,70.61.06,105.91.36,40.71.34,81.41,2.4,122.14,1.11,5.26-.17,11-1.1,15.55,3,1.62,2.35.83,4.44-.71,6.44-2.9,2.81-6.68,2.49-10.24,2.68-25,1.35-50,3.93-75,4.9-12.27.48-25,1.93-37.2-1.8q-34.68,2.44-69.37,4.89c-20.44,1.4-40.93,2.21-61.3,4.19-41.4,4-82.44-2.18-123.57-4.26-34.86-1.77-69.77-3.95-104.55-7.11-12.3-1.11-24.64-1.12-36.95-2.71-13.58-1.75-26.81,3.52-40.12,5.8-47,8-93.69,17.54-140.68,25.47C28.2,426.05,14.58,430.91.18,430Z" fill="#1a689b"/><path d="M1080,37V70.66a15.75,15.75,0,0,1-9.59-3.38c-5.12-4-9,0-13.22,1.78a10.19,10.19,0,0,1-1.55.54l-.22,0a9.47,9.47,0,0,1-2.32,0h0c-1.12-.69-2.26-1.32-3.4-1.91-10.48-5.37-21.83-6.65-33.61-6-2.06.12-4-.5-6,1.06-6.37,5.07-14.05,4.28-20.78,2.31a27.18,27.18,0,0,0-2.74-.65,33.12,33.12,0,0,0-5.49-.53c-6.82-.13-13.57,1.43-20.33,1.39a34,34,0,0,1-5-.37l-.47-.07a2.46,2.46,0,0,0-2.08.77,30.73,30.73,0,0,0-2,2.32c-4.7,5.14-10.93,5.76-14.4.4A15.79,15.79,0,0,0,935,66.16c-3.3-3.53-7.26-4-12.05-3.8-7.78.33-15.62.08-22.16,5.54a7.46,7.46,0,0,1-.94.66c-2,1.22-4.86,1.89-5.7.56l-.21-.32c-3.39-5-8.38-1.87-12.23-3.22-1.24-.43-2.49-.81-3.73-1.13-.67-.18-1.34-.34-2-.49l-.08,0c-7.2-1.57-14.44-1.6-21.83-1.48-9.26.15-18.49,1.22-27.81-.18a49.7,49.7,0,0,0-5.58-.54,42.17,42.17,0,0,0-7.6.36,37.66,37.66,0,0,0-6.49,1.52,19.83,19.83,0,0,1-11.93-.09l-.58-.18a17.5,17.5,0,0,0-4.81-.87,18.15,18.15,0,0,0-3.12.18,18.85,18.85,0,0,0-2.72.58l-1.31.38a104.53,104.53,0,0,1-13.48,3.06,50.57,50.57,0,0,1-11.4.49,40,40,0,0,1-13.09-3.25c-5-2.16-10-.25-14.26,3-.74.56-1.46,1.16-2.15,1.78l-.61.56c-3.9,4.54-9,5.13-12.56.91-5.66-6.62-11.45-4.73-16.76-1.14-6.73,4.56-12.92,4.08-20.42,2.18-12.5-3.16-25.43-5.64-38.16-.47-12.25,5-22.76-2.12-33.95-4.56a7.26,7.26,0,0,1-.88-.25c-1-.37-2-1-3-1.36a4,4,0,0,0-3.8.12c-.6.37-1.19.71-1.79,1a20.91,20.91,0,0,1-5.37,1.92,23.3,23.3,0,0,1-10.49-.44A44.48,44.48,0,0,1,573.53,65l0,0c-3-1.26-6.58-.58-9.74.79-.59.26-1.23.61-1.88.91-1.17.56-2.35,1-3.25.42a5.39,5.39,0,0,0-.52-.3,21.66,21.66,0,0,0-6.73-2.56,28.75,28.75,0,0,0-6.34-.54c-8.4.09-17,2.83-25.6.92-16.38-3.65-33.89-.91-50.84-2.67-2.22-.23-2.12,1.16-3,2.32-4.84,6.65-9.61,7.18-16.94,2.95-11.31-6.53-22.86-8.89-34.25,0a8.76,8.76,0,0,1-2.92,1.41A24.08,24.08,0,0,0,406.88,70l-.07,0a13.89,13.89,0,0,1-9.8,1.09c-.54-.12-1.08-.28-1.63-.46-.15-.16-.29-.33-.44-.48-6.86-7.41-15.15-8.84-25.42-8.82-10.61,0-21,1.93-31.76,1.5-23.54-.94-47.21-.84-70.82-.45-1.21,0-2.51-.28-3.6.13-21.88,8.21-43.81-.82-65.75.11-15.93.68-31.94-.11-47.93.19-10.17.19-20.27,0-30,3.63-2.28.86-4.72-.29-7-1.24-2.69-1.13-5.68-1.12-7.7.88-6.15,6.1-13.91,4.68-21.29,5-3.06.15-6.42-.26-8.2-3-3.7-5.61-8.85-6.17-14.93-6C44.32,62.57,28,60.35,11.9,63.66c-5.09,1-8.55-2-11.72-5.43V34.65c8.81,1.9,18,1.7,26.56,5.08,8.08,3.18,15.25-2.26,22.82-3.68s14-2.53,15,7.54c3.72-.1,4-3.34,6.15-4.42C76.9,36,83.57,34.41,87.46,41.46c4,7.27,9.13,3.83,11.16.78,4.91-7.37,11.68-6.55,18.12-5.57,9.61,1.46,19,.13,28.52,0,19.28-.17,38.58.87,57.85,1.89,5,.26,9.58.47,13.95-2.2a8.88,8.88,0,0,1,7.83-1.13c11.72,4.37,24,2.64,35.94,2.7,13.16.05,26.32-.25,39.5-.17C324.2,38,348.13,36.47,372,35a187.85,187.85,0,0,1,39.07,2,72.1,72.1,0,0,0,19.74,0c8.19-.95,16.79-3.34,24.65,1.94.93.62,2.62,1.17,3.45.74,11.82-6,24.29.17,36.23-2,10.53-1.93,21-.83,31.37.33,9.32,1,18.43,3.34,27.19-2.28a9.16,9.16,0,0,1,6.15-1c12.06,2.36,24.8,1.56,36.09,7.52,2,1.08,4.33,1.53,6.07.39,9.63-6.34,21.48-2.42,31.46-7a3.43,3.43,0,0,1,2.63-.26c16.3,9,32.53.47,48.78-.1,1.5-.06,3.53-.69,4.42,0C703.13,46.66,717.13,36,731,36c18.55,0,37.29-1.09,55.55,1.34,8.66,1.15,15.83,2,23.26-2.43,4.39-2.59,8,1.06,11.94,1.53,14.66,1.73,29.37.39,44,.28,12.46-.08,25.07,2.89,37.43-1.14,1.66-.55,4.32.1,5.12-.91,6.16-7.73,8.84-1.4,10.28,3.06,1.56,4.86,5,6.26,8.7,6.22,4.55,0,2.61-4.54,3.25-7.14,1.18-4.79,3-5.69,6.42-1.6,1.85,2.23,4.75,3.56,7.31,2.83,14.37-4.07,29.39,4.83,43.56-2.37a4.13,4.13,0,0,1,5,1.14c5.35,6.91,11,7,17.52,1.6,2.1-1.74,5-1.6,7.84-1.27,10.7,1.24,21.14,2.64,32.16-.08C1059.94,34.66,1070.05,36.59,1080,37Z" fill="#011d4e"/><path d="M.18,158c13.62,8.12,28.07,3,42.14,2.27,4.2-.21,8-1.4,12.19.64,8.77,4.33,18.25,3.3,27.64,3.45,6.75.11,6.21-5,7.63-10.51,5.33,8.79,17.4,10,17.11,21.86,0,1.69,3,3,5.27,2.29a5.71,5.71,0,0,0,3.86-6.51c-1.36-10.69,2.77-10.75,10.36-6,3.47,2.19,7.57,1.64,11.48.67,2.35-.58,5.27-1.7,7,.07,4.13,4.27,7,2.74,10.37-.87,6.58-7,12.35-.26,17.82,2,3.89,1.64,6.28,2.66,9.32-.88,7.05-8.24,18.59-7.42,27.72-13.55.05,4.18-5.09,7.72-.75,11.59,3.77,3.36,7.18,1.6,10.89.15,2.32-.91,4,.71,5.45,2.32.78.86,2.2,2.38,2.83,1.37,4.23-6.76,11.52-2,16.83-4.69,1.32-.66,2.86-.82,3.58-2.26,2-4.09-3.21-4.39-4.12-8.14,5.16-.66,6.79,1.78,7.39,6.16,1.59,11.49,1.66,11.46,13.13,8,2.58-.79,5.18-1.57,7.83-2.1,1.41-.29,3.78.21,3.45-1.77-2.36-14.35,5.25-3.34,8-3,7.47,1,14.09,3.63,19.6,9.55,3.16,3.39,4.85-1.26,6.36-3.66,5.81-9.27,7.19-9.71,14.17-1.9,4.38,4.91,9,3,13.21,1.44,4.7-1.78,7.78-2.65,9.56,3.34a6.32,6.32,0,0,0,7.09,4.53c4.84-.6,2.63-4.59,2.92-7.23.45-4,1.23-8.08,5-10.16,4.06-2.27,5.45,2.48,8.16,3.9,5.67,3,10.81,10.21,18.18,2.64,1.4-1.44,3.22-.36,4.84.81,5.34,3.84,5.39,3.76,7.59-2.64,2.51.06,3,1.9,2.85,3.76-.24,3,.73,4.25,3.85,4.74,2.51.39,3.78,0,5-2.24,4.06-7.23,9.58-7.34,16.9-4.4s15.78.45,23.21,5.52c2.91,2,10.09-1.74,11.34-5.54,3.83-11.61,11.69-5.23,16.45-3.4,12.84,5,24.93,4.16,37.2-.81,3.55-1.44,7.06-4.65,9.89.9,3,1.26,4.75,5.59,9,3.66,1.58-.74,3.23-1.36,4.75-2.23,2.17-1.24,4.46-4.19,6.73-1,1.84,2.56-.89,3.84-2.84,5.33-5.94,4.51,1.78,5.83,2.27,8.89,6.14,2.5,11.32,7,17.95,8.48,8.43,5.76,16.39,12.19,25.36,17.21,3.82,2.14,8,4.47,9.29,9.33-2.21,7.89-7.73,7.18-12.58,3.71-19-13.62-40.34-13.23-62.25-11.73-16,1.1-32.15,3.44-48.34.26-5.86-1.15-12,.33-18,1.21a144.55,144.55,0,0,1-36.76.88,16.33,16.33,0,0,0-8,1.06c-11.4,4.64-23.38,4.08-34.71,1.45-10.18-2.37-20.48-1.23-30.51-3.43-2.23-.48-4,.81-5.81,2-4.84,3.05-9.75,2.94-14.42-.38s-9-2.95-13.45,0c-3.87,2.53-7.75,2.63-12,.7-6.8-3.07-14-2.87-21-1-4.85,1.27-9.38,1.8-14-.73-4.88-2.67-10-2.91-14.57.46-6.56,4.83-13.17,3.66-19.63.45-9.79-4.85-19.17-5.64-28.82.43-3.59,2.26-8.24,3.66-12.2,1.91-10.56-4.67-20.39-1.94-30.44,1.46-5,1.68-10.23,1.95-14.81-1.18-3.7-2.53-6.82-2.32-9.5,1.07-5.58,7.05-14.05,6.2-21.5,7.79-3.92.84-7-2.07-8-5.9-2.13-7.87-8-9-14.77-8.87-17.61.3-35.24.55-52.83.31-9.87-.13-19.28,3.94-29.56,1.16-6.35-1.72-10.42-3.58-11.77-10Z" fill="#013366"/><path d="M692.91,281.41c2.35,10.28-1.86,16.16-11.62,16.2-6.94,0-13.89,0-20.83,0-5.16,0-10.21.66-11.77-6.64-.8-3.69-3.81-2.68-4.39.57-1.13,6.37-5.67,6.12-10.29,6.06-14.79-.19-29.64-.9-43.5,5.91-2.22,1.09-5.06,1.51-7-.11-8.69-7.44-18.79-2.52-28.1-3.83-31.57-4.43-63.25,0-94.78-2.49-1.2-.1-2.68-.95-3.53-.5-14.72,7.69-29.61-.92-44.62.48-22.75,2.12-45.88,1.24-68.78.28-12.92-.54-25,4.22-37.63,3.8-15.88-.53-31.45-5.3-47.52-3.72-.86.08-2.28,0-2.57-.55-6.42-11.23-14.46-2.83-21.65-1.64-21.24,3.53-42.33,4.12-63.54-.48-7.94-1.73-16.24-1-24.07,1.31-5.15,1.49-10,1.94-15.07.3-14-4.55-26.51-1.23-37.94,7.22-3.25,2.4-5.46,1.43-7.85-.95-6.38-6.35-14.06-6.57-22.6-6-21,1.3-42,3.92-63.12,2.84V268.6c2.9-3.82,7.09-4,11.39-4.34,10-.79,19.87,2.15,29.78,1.61,21.69-1.19,43.34-2.21,65.05-.49a15.72,15.72,0,0,0,8.67-2.24,10.89,10.89,0,0,1,11.22.11c5.6,3.2,11.6,3.06,17.63,2.17a104.23,104.23,0,0,1,31.48.55c17.25,2.66,34.57,3.51,52.18,1.26,14.23-1.81,28.68-3.85,43.22-1.52,9.66,1.55,19.2-1.48,28.87-1.53,35.25-.15,70.51,2,105.77-.07.9-.05,2.05-.48,2.67-.05,9.5,6.61,19.16,1.87,28.71.41,14.27-2.17,28.11,2.41,42.26,2.38a75.61,75.61,0,0,0,23.1-3.32c7.57,4.22,16.69,4.26,24.19,8.86,3.17,1.95,5.7-.22,8.1-2.13,6.47-5.15,13.76-3.52,20.77-2.05,4.42.93,5.38,5.26,6.5,11.63.44-9.1,4.72-12.12,10.93-12,13.21.2,27.82-7.57,39.09,5.23,1.55-5.75,10.77-11.16,18.55-8.58,14.37,4.75,27.91,3.13,41.29-3.1,4.76,1.2,7.57,4.45,9.37,8.75a3.33,3.33,0,0,0,2,1.83c3.3,1.59,7,2.5,9.34,5.6A5.66,5.66,0,0,1,692.91,281.41Z" fill="#00467c"/><path d="M.18,192.43c6.56,7.67,16.08,6.54,24.12,6,6.72-.4,13.57-1.09,20.38-1.66,9.73-.82,19.94,1.83,29.21-3.21,10.2,7.54,22.35.24,33.1,4.32,3.7,1.41,5.35,3.51,5.6,7.2.38,5.38,1.29,7.11,8.29,5.75,9.82-1.9,16.3-6.3,21.13-14.38,2-3.4,3.26-2.35,4.9.55,5.27,9.35,8.56,8.89,18.78,5.14,8.23-3,17.85-6.42,26.79-.92,3.38,2.08,6.32,1.58,9.41.28,12.73-5.33,25.48-6.41,38.15-.11,4.06,2,7.81,2,10.85-1,6.4-6.37,12.84-4.65,19.76-1.2,3.48,1.74,7.72,5.05,9.82-2,1-3.29,3.42-1.57,5.15-.73,3.33,1.63,6.82,1.56,10.37,2,8.25,1.09,15.92,4.54,24.24-1.43,2.54-1.83,9-1.88,12.58,3.68,2.87,4.47,6.94,2.36,9.33-1.62s5-4.78,8.77-1.8c1.35,1.07,3.34,2.12,4.92,2,14-1.41,27.24,5,41.23,4,5.11-.36,10-.45,14.94-2.66s10.08-2.14,15.78-1.3c9.12,1.34,18.52.55,27.85-.8,20.05-2.91,40.24.28,60.39-.58,8.48-.36,16.65-4.39,25.06-2.69,17,3.45,35.93.66,49.94,14.74,2.08,2.1,5.46,3.09,7.55-.87,4.72-3.46,7.45.9,10.82,2.74a151.76,151.76,0,0,1,15.17,10.58c2.23,1.83,5.07,3.36,4.17,7.06-6.76,8.77-12.84,10.81-22.66,6.54-5.67-2.46-10.84-3.24-16.41-.19-2.41,1.33-5.29,2.32-7.86,1.16-13.14-6-26.79-3.14-40.07-1.73-10.35,1.1-20.3-1.78-30.56-.77-15.37,1.51-30.54-1.23-45.63-3.85A14.53,14.53,0,0,0,453,234c-6.26,5-13.14,6-20,1.08-5.89-4.2-12.29-2.42-18.43-1.64-10.37,1.32-20.33,4.23-30.69-1.77-4.73-2.74-11.39-.55-16.21,3.12-4,3-8.2,2.69-12.79,2.93-13,.68-25.24-2.76-37.71-5.24a10.85,10.85,0,0,0-7.9,1.21c-6.8,4.15-14.49,3.32-21.1,1.53-10.37-2.8-20.24-2.44-30.34-.11-8.07,1.87-16.12,2.42-24.13-.09-2.82-.89-5.26-.82-7.66,1-6.77,5.23-14.38,4.88-21.47,1.67-10.69-4.84-21.39-4.63-32.61-2.9-11.87,1.82-23.78-1.16-35.76-.87-9.18.22-18.46-3.36-27.4,1.73a7.32,7.32,0,0,1-5.36.25c-19.53-5.63-39.18-3.37-58.81-.85-4.25.55-8.14.94-12.34-.78a20,20,0,0,0-15.09.21c-6.83,2.79-12.33,1.68-17-4Z" fill="#013c71"/><path d="M1080,399v80c-3.71-.66-7.69-.28-11.33-1-29-5.44-57.87-11.54-86.88-16.92-10.76-2-21.56-1.42-32.41-.41a239.69,239.69,0,0,1-35.74,1.15c-.67,0-1.33-.07-2-.12l-.45-.11c-5.74-1.55-6.2-6.73-7.44-11.17-.26,5.37-2,10.06-7.25,12.67-.23.12-.47.23-.72.34-2.3,1-4.57.64-6.86.07l-.28-.07c-1.07-.58.14.44-.88-.2-6.68-4.21-11.63-24.16-8.78-33.08a9,9,0,0,1,.83-1.91c30.63-6.52,61-14.6,92.23-17.71,23.63-2.36,47.45-2.79,71.19-4.07,4.17-.23,8.5.68,12.34-1.81a7.85,7.85,0,0,1,.45-.87h0c2.15-3.61,6.13-2.93,9.62-3.44C1070.41,399.62,1075.2,399.22,1080,399Z" fill="#1a72a6"/><path d="M.18,230.51c6.26.65,12.27,1.24,18.62-1.09a21.72,21.72,0,0,1,16,.74c2.32,1,4.67,1.59,7,.76,13.47-4.73,27.34-1.58,41-2.28,6.92-.35,14.12-4,20.19,2.68.7.77,3.34.87,4.25.18,9.86-7.48,20.41-.73,30.41-1.87,13.46-1.52,26.88,3.94,40.13-.45,7.09-2.34,15,3.9,21.73-2.41,1.07-1,1.68.43,2.4,1.51,6,8.94,14.19,9.92,21.72,2.45,3-2.93,5.89-4.45,9.5-1.77,6.87,5.11,14.55,4.28,21.69,2,14.6-4.55,28.95-.92,43.4,0,.87.05,2,1.07,2.51.76,9.74-6.48,20-2.52,30.24-2,3.84.18,7.92-2,9.63,3.53.46,1.48,2,2.06,2.75,1,5.95-8.52,13.86,3.17,19.49-1.77s12.79-4.92,19.17-7.32c1.07-.4,2.92-.88,3.39-.38,11.41,12.35,24.62,3,37,2.92,4.46,0,8.41,0,11.85,2.84,6.84,5.74,12.89,3.88,18.18-2.06,3.19-3.59,6.15-4.45,11.06-3.2,19.7,5,39.76,5.39,60,4.43,6.77-.33,13.68,1.84,20.86,1.06,8.23-.89,16.55-3.4,24.86-1.44,9.74,2.29,19.28,3.56,28.9-.43a5.31,5.31,0,0,1,4.36.69c8.69,6.44,16.95,3.74,25.2-.86,6.15-1.83,9.21,4,14,5.66,3.33,1.14,6,3.63,9.22,5.12,4.63,3.17,8.35,7.54,13.44,10.11a5.18,5.18,0,0,1,3,5.88c-5.46,7-7.5,7.23-15,1.87-2.4-1.06-5.28-6.21-6.67,1-1.34,6.93-7.32,4.75-11.69,5.49-4.53.76-8.23-1.52-9.19-5.57-1.45-6.13-4.23-6.24-8.9-3.74-3.14,1.67-6.35,1.09-9.6-.24-7.89-3.23-16.05-1.79-24.14-1-2.47.24-4.47,1.61-6.35,3.22-7.38,6.3-10.78,6.93-17.89,1.26-5-4-10.15-3.4-15.93-3.85-15.3-1.18-30.45,2-45.76.3-11.93-1.29-24,1.89-36,0-8.89-1.41-17.06-1-24.9,4.51-4.48,3.16-9.89,2.78-15.53.56-8.13-3.18-16.49-5.08-25.31-.32-4.71,2.54-11,2.33-15.9,0-5.51-2.68-11.1-2.23-16.72-2.92-23-2.84-46.07-1.63-69.09-2.23-16.15-.42-32.48.58-48.71,1.23-3.18.12-6,1.08-7.65,4-2.39,4.13-5.83,6.28-10.55,4.77s-6.18-5.38-6.15-9.57c-.52,4.64-2.56,8.21-8.39,8-3.55-2.29-7.28-2-11.1-.8-2.48.14-4.92-.13-6.8-1.89-7.43-7-16.15-7.28-25.45-5.25-3.85.84-7.83.64-11.75.53-14.74-.39-29.46.55-44.19.31a11.93,11.93,0,0,0-5.33.94c-17.72,8.4-35.27,7.82-53-.29-6.11-2.79-13.17-1.71-19.68-2-7.35-.31-14.83-2.3-22.35.29A9.79,9.79,0,0,1,.18,250.46Z" fill="#013e74"/><path d="M210.31,259.5c5.56-.27,5-3.78,4.32-7.7-.89-5.06,1-8.35,6.6-8.41,4.43,0,7.41,1.29,4.73,6.5-1.1,2.14-2.65,4.12-2.23,6.71a4.49,4.49,0,0,0,4.11,4.16c2.26.26,3.27-1.05,3.43-3.18.53-6.79,5.55-7,10.54-7.09,22.17-.58,44.34-1.63,66.5-1.53,21.37.09,42.73,1.34,64.09,2.27,1.92.08,3.9,1.4,5.65,2.48,4.79,3,10.5,3.7,14.69.94,9.93-6.55,19.26-2.67,28.53.37,4.37,1.44,8.8,2.63,12-.24,8.79-7.94,18.83-6.39,29-5.13,16.77,2.08,33.57-1,50.42.46,7.06.61,14.07-5.54,21.84,0,2.17,1.54,7-.61,10.53-1.07,5.88-.76,11.15-.67,15.22,5.09,3.55,5,7.15,5.93,11.86-.38,6.78-9.09,17.67-6.17,26.84-5.56,8.16.54,16.06,4.84,23.67-2a5.88,5.88,0,0,1,7.62.24c2.65,2.47-.54,4.25-1.39,6.25-1.17,2.76-1.56,5.73,1.31,7.21a12.42,12.42,0,0,0,11.21-.28c2.54-1.34-.42-3.53-1.57-5.09-1.63-2.18-4-4.39-1.09-7,2.54-2.3,5.17-.74,7.39.88,2.42,1.77,4.61,3.82,6.9,5.75,2.13,10.16-4.89,14.28-16,13.39-21.18-1.7-42.28-3.05-63.4.91-8.24,1.55-16.56-.36-24.81-1.21-2.4-.25-5.22-1.38-7,0-11.29,8.26-22.05,2.31-33-.76a7.24,7.24,0,0,0-4.43.35c-12.44,7.36-26,5.89-39.14,3.8-14.44-2.3-28.56-4.47-42,3.28-2.77,1.59-5.91,1.48-7.72-.08-11.09-9.55-24.38-5.74-36.11-4.47-15,1.62-29.46-.78-44.16-.66-18.69.16-37.36.81-56,1.33-18.89.53-37.88-.76-56.6,2.38s-36.59-.12-54.7-3.32c-10.59-1.87-21,1.38-31.53,1.35-4.59,0-9.76,1.65-13.11-3.65-1.07-1.7-3.41-1.49-4.92-.32-8.7,6.77-18.47,3.19-27.87,3-3.91-.08-7.87-1.11-11.7-.69-26.19,2.87-52.35.07-78.52-.09V250.46c15.91-3.21,31.91-1.48,47.88-.82,2.09.08,4.62-.13,6.17.93,10.94,7.5,23.3,6.39,35.51,6.33,1.49,0,3.3.44,4.43-.23,19.17-11.42,40.18-4.6,60.33-6.2,4.79-.38,9.64-.3,14.38-1,9.51-1.41,18.66-2.08,26,5.92,1.71,1.86,4.22,2.21,6.68,2.31C204.79,256.79,207.35,259.12,210.31,259.5Z" fill="#014379"/><path d="M.18,58.23c13,.87,25.72-.48,38.62-3,4.27-.85,10.9,1.77,16.68,2.3,6.27.56,11.92.41,17.25-3.17,4.15,13.8,18,17.76,28.81,8.48,4.63-4,8.81-6.52,14.08-1.35a7.34,7.34,0,0,0,2.25,1.24c4.9-7.81,16.38.08,21.18-9.74,2.08,6.84,6.67,5.81,11.76,5.6a580.71,580.71,0,0,1,74,1.74c4.29.37,8.36.61,12.45-1,1.39-.52,3.69-1.4,4.3-.8,10.43,10.2,19.89-3.72,30.78-1s22.78.41,34.23.72c12,.32,24.2,3,35.78,1.18,9.77-1.53,19.52-.95,29.11-2.57,7.29-1.24,13.68,1.29,20.28,3.32,4.41,1.35,3.19,6.16,5.43,8.86.12,6-4.31,5.81-8.07,5.39a44,44,0,0,0-22.78,3.34c-6.84,2.9-14.12-1.17-21-3.19-4.45-1.32-8.45-2.88-13-.44a7.61,7.61,0,0,1-6.21.43c-12.61-5.68-24.58.58-36.82,1.61-18.37,1.56-37,2.41-55.1-.37-20.49-3.14-39.09-.63-56.5,10.4-5.75,3.64-10.89,1.15-16.19-.84-5-.1-11.1,1.27-8.38-7.22-10.82,5.6-19.68,13.27-33.49,8.48-4.37-1.51-12.24,1.45-18.61,1.72-2.47.1-5,.65-6.82-1.28-7-7.48-14.16-3.92-21.21-.48-1.89.92-3.66,2.84-5.7,2.07-11.27-4.28-22.6,2.42-33.82-.41-3.17-.79-5.08-.29-5.61,3.53a3,3,0,0,1-4.92,2C15.59,86.24,7.81,92.05.18,92.68Z" fill="#011f50"/><path d="M1080,66.63V76.69c-5.85-.31-11.68-1-17.55-1-4.12,0-6.78-2.19-7-6.1a10.73,10.73,0,0,1,.12-2.36c3.28-6.29,12.13-4.84,15.53-11.19.55-1,2.82-.09,3.88,1.13s1.41,2.51.11,3.92c-5.21,5.64.22,6.22,3.42,5.73Z" fill="#011f50"/><path d="M1053.54,483.3c-29.28,5.78-58.5,11.86-87.86,17.22-9,1.65-16.68-.73-23.66-6.3-5.41-4.32-10.57-8.93-17.35-11.26-4.14-1.43-5.87-5.24-6-9.36a17.93,17.93,0,0,0-5-11.79,26.57,26.57,0,0,0-3-2.78c-1.95-6.6-3.89-13.19-6.41-21.75l-8,23.69c-2.55,2.72-5.05,3.13-7.49-.14l-8.31-30.48c-.19-.71-.39-1.41-.58-2.12-1.1-3.23-2.21-6.46-3.69-10.78-2.47,5-5.29,8.26-5.78,12.59a23,23,0,0,0-3.34,4.69h0c-4.12,7.53-4.22,16.58-7.57,24.4-.16.39-.34.77-.52,1.15-.09.6-.19,1.2-.31,1.79-1.24,6.74-3.45,13.23-5,19.89-1.42,6-5,9.78-11.3,11.33-3.88,1-8.46,1.39-10.44,6a10.16,10.16,0,0,1-.31,1.74h0a6.14,6.14,0,0,1-3.86,4.58,9.91,9.91,0,0,1-3.5.61l-1.82,0h0c-2.61.08-5.44.37-7,1.7h0a3,3,0,0,0-.5.5c-6.39,7.92-15.21,5.22-23.14,6.57a10.8,10.8,0,0,1-5.46-.64h0c-1.26-.43-2.48-1-3.72-1.45a11.65,11.65,0,0,0-6.29-1,7.73,7.73,0,0,0-2.47.86,7,7,0,0,1-2.55,2.53,5.68,5.68,0,0,1-3.4.56h0c-2.62-.28-5.36-1.71-7.92-1.49-6.35,1.15-12.51,2.72-17.23,7.56a7.89,7.89,0,0,0-.24,1,7.21,7.21,0,0,0-.13,1.19,5.27,5.27,0,0,0,3.8,5.18c11.57,4.35,23,9,35.93,5.07,10-3,20.26-2.7,30.5-1,4.81.79,9.77,1.24,14.33-.56,6.21-2.45,10.86-5,18.46-.18,5.93,3.79,15.53,2.62,23.81,1.38a196.12,196.12,0,0,1,59.44-.09,112.56,112.56,0,0,0,28.73,1.13c10.43-1,20.81-3.81,31.45-1.43a15.78,15.78,0,0,0,6.42-.06c-11.54,3.81-23,7.83-34.22,12.55-8.54,3.59-16.8,3.52-25.64,1.55-8.42-1.88-15.31-7-23.4-9.56-16-5.05-32.11-3.08-48.42-2.13-27.39,1.58-54.41,6.24-81.68,8.71-19.2,1.73-38.2,5.56-57.25,8l-3.88.48h0l-3.21.37a325,325,0,0,0-35.46,5.71q-6.33,1.4-12.63,3.11l-2.55.85-2.89,1c-.65.32-1,.64-.92,1s.34.58.92.86c25.71.09,51-4.95,76.34-7.86q71.29-8.19,142.62-16.11a42.54,42.54,0,0,1,19.39,2.11c13.06,4.57,26.21,8.91,39.35,13.25a18.88,18.88,0,0,0,12.44.27c7.67-2.67,15.41-5.13,23.08-7.8L1080,514V479C1071,478.59,1062.27,481.57,1053.54,483.3Zm-33,37.72c-1.25,4.25-4.44,5.72-8.36,7q1.7-.59,3.33-1.32C1018,525.6,1018.59,522.63,1020.52,521Zm-14.45,8.73c1.21-.27,2.41-.57,3.6-.92l-8.1,2.62A22,22,0,0,1,1006.07,529.75Z" fill="#001936"/><path d="M663.87,564.2V566c-22.23,5.46-44.19,3.36-66-2.49-8-2.17-15.21-.44-22.63,3.13-28.79,13.84-57.79,27.26-86.76,40.72-2.4,1.12-5.17,1.46-7.77,2.16,8.87-8.64,21-11.46,31.43-17.29,13.59-7.58,27.85-14,42-20.61a22.21,22.21,0,0,0,9.57-7.78c4.46-6.56,11.94-6.58,18.74-6.77,16.23-.45,32.39-.68,48.3,4.44C641.33,565,652.71,564.58,663.87,564.2Z" fill="#001a37"/><path d="M1080,72.12V86.47c-2.82-.7-5.86.71-9.41,3.32-1.67,1.23-3.86,1.75-5.5,3-2.83,2.19-5.33,5.67-9.36,4.24-5.21-1.85.35-6.56-1.8-9.41-3-1.2-3.73,1.4-4.88,2.88-3.33,4.3-6.58,6.73-11.5,1.79-2.12-2.13-5.89-4.14-8.24-2.26-7.38,5.86-13.24,2.39-20.8-.19a26.08,26.08,0,0,0-26.4,5.25c-1.22,1.1-2.81,3.6-4.47,2.07C967.7,88,956,90.38,944.18,90.85c-16.82.66-33.75,1.09-50.5-1.81-4.63-.81-8.91-.66-12.57,3.06a14.91,14.91,0,0,1-15.18,3.46c-7.29-2.37-15.12-4.52-22-4-14.49,1.14-29.74-7.15-43.53,3a4.91,4.91,0,0,1-5.13.55c-14.91-6.27-30.21-3.73-45.52-2.17-10.06,1-10.08.8-15-7.24-3.64,3.76-22.76,5.26-26.44,2-1.94-1.71-.93-3.92-.83-6,0-1.62-.09-3.25-1.06-4.28a3.59,3.59,0,0,0-2.23-1,3,3,0,0,0-3.06,1.36,3.44,3.44,0,0,0-.48,1.44c-.2,1.93,1.79,3,3,4.35-1.48,5.32-3.85,7.82-10.4,6.63-11.87-2.15-23.9.83-35.89.65-3,0-6.76.93-8.73-1.32-4.34-5-7.41-4.13-11.17.52-1.37,1.7-5.53,3.18-6,.22-1.34-9.36-5.33-4-8.82-2.16-2.32,1.21-4.68,3.64-7,.27-1.25-1.8-2.07-3.86-4.83-2.43s-3.81,3.6-3.47,6.7c.26,2.32,1.11,5.36-1.48,6.54-2.78,1.27-4.06-1.86-5.67-3.46-10.26-10.19-23-6.12-35.06-6.31-15.55-.26-31.05,1.74-46.65.2-12.26-1.2-24.49-1.09-36.56,3.15-4.06,1.44-9.2-1.5-14-2.1-17.67-2.22-35.24.33-52.86.21-8.41-.06-17-1-24.93,6.81-.18-8.82-3.57-9.64-10.41-9.29-16.31.83-32.56,4.16-49.19-.45-9.78-2.71-20.08,2.79-30.21,4.21-2.67.37-5.23,1.34-8,.72-26.68-5.9-53.43-4.35-80.48-2.71-14.51.88-29.2-.14-43.73,2.23-5.13.83-5.47-3.6-6.52-7,.81-.24,1.61-.48,2.41-.74,19-5.9,37.09-14.4,57.36-16.59,8.27-.88,13.7,4.6,21.39,4.35,16.81-.55,33.61,1.66,50.43-2.14,6.89-1.56,14.21-1.23,21-4.13a6,6,0,0,1,5.09.91c5.54,4.47,10.77,4.77,16.3,0a4.23,4.23,0,0,1,5.86.13c5.37,5.44,13.19,3.79,19.3,7,1.39.73,3.15,1.07,4.26-.13,7.19-7.8,16-4.5,24.47-3.74a14.91,14.91,0,0,0,5.51-.15,6.69,6.69,0,0,0,2.26-1.14c1.63-4.2,4.13-4.72,7.45-1.76h0c2.29.5,4.58,1,6.86,1.25,5.29.68,10.57.53,15.87-1.67a7.73,7.73,0,0,1,7,.86c9,5.75,18.41,3.52,27.76,1.36,3.87-.9,7.5-1,9.41,3,3.17,6.5,8.11,5,11.89,2,7.59-6,14.82-8,24.08-3.51,4.52,2.18,10.83-1.75,15.44,2.7.31.21.61.43.91.65a9.28,9.28,0,0,0,2.13,1.3l.25.07a4.7,4.7,0,0,0,.63.13,8.38,8.38,0,0,0,2.06.07,35.9,35.9,0,0,0,3.68-.65h0a9.82,9.82,0,0,1,5,0,4.34,4.34,0,0,0,.51,0c2.94-.09,2.88-2.35,3.4-4.74.71-3.3,1.85-5.45,3.47-6.43s3.71-.81,6.34.54c.29.14.58.3.88.48a14.87,14.87,0,0,0,5.85,2.08,12.63,12.63,0,0,0,3.77-.12,16.64,16.64,0,0,0,2.34-.58,21.81,21.81,0,0,1,9.32-1.1,15.82,15.82,0,0,1,6.33,2.19l.06,0a10.83,10.83,0,0,0,10.3.47l.13-.06a26.76,26.76,0,0,1,5.37-1.92c1.85-.47,3.72-.8,5.59-1.13,1.52-.27,3-.55,4.53-.91,6.8,1.77,14.44-2.27,20.81,4.2,2.53,2.56,7.6-.17,11.2-1.51,12.76-4.73,26.36-4.69,38.09,0C689.7,72,698.78,65,708,58.72c5.52-3.75,5.88-2.18,6.64,2.33,1.13,6.69,3.86,10.15,10.93,6.24,1.44-.18,2.87-.3,4.31-.37,6.56-.36,13.14.19,19.68.31,2.57,0,5.12,0,7.67-.06,3.81-.11,7.61-.31,11.4-.49,2.06-.09,4.11-.18,6.17-.24,2.87-.08,5.41-.75,7.31-2.82a9.43,9.43,0,0,0,1.11-1.47,6.32,6.32,0,0,1,2.67-2.61,3.94,3.94,0,0,1,3-.13,9.13,9.13,0,0,1,3.38,2.17,20.54,20.54,0,0,0,2.4,2c4.86,3.37,9.86,3.18,15.65-.16A16.44,16.44,0,0,1,813,62.1a12.21,12.21,0,0,1,7.6-.36,8.65,8.65,0,0,1,4.55,3.31c6.74,9.43,15.39,8,24.32,6.06,7.7-1.63,16.2-.09,22.85-6.27a4.21,4.21,0,0,1,3.5-.9l.08,0a9.66,9.66,0,0,1,2,.49,16,16,0,0,1,2.19.94A31.82,31.82,0,0,0,893.9,68.8a43.28,43.28,0,0,0,5.91-.24c5.82-.59,11.63-2.11,17.4-3.41,6.45-1.44,12.41-3,17.75,1a16.14,16.14,0,0,1,2.76,2.69c2.77,3.36,8.16,3.59,10.62.65a12.88,12.88,0,0,1,4.82-3.79,9.34,9.34,0,0,1,2.55-.7,13.82,13.82,0,0,1,5,.37c2.7.63,5.42,1.78,8.16,2.51,1.78.48,3.14,3.12,5.29.31A9.88,9.88,0,0,1,981.06,64a14.39,14.39,0,0,1,5.49.53c1,.27,2.05.61,3.11,1,4.87,1.81,10.15,1,15.26,1.1,5.51.08,10.82.61,15.49,4,2,1.42,5,3.25,6.64,1.75,6.79-6.12,14.9-4.2,22.61-4.57a26.55,26.55,0,0,0,4.09-.48h1.79a13.67,13.67,0,0,0,1.65,1.79c6.27,5.73,14.77,2,21.89,3Z" fill="#012052"/><path d="M703.59,83.57c-6-.34-8.52-4.29-6.33-9.1,1.63-3.56,7.24-2.84,10.17-1.54,4.61,2,2.73,5.81,0,8.8l-3.38-2Z" fill="#011d4e"/><path d="M201.51,141.61c-4.32,3.48-8.64,4.5-12.92-.07C192.89,141.89,197.23,136.65,201.51,141.61Z" fill="#013366"/><path d="M166.81,526.24c-13.6-7-25.5-16.64-38.32-24.85-8.52-5.45-16.65-11.44-26.93-13.21,7.11.74,11.68-5.88,18.6-6.27,3.78-.21,7.33-.62,10.29,1.85,5.84,4.89,11.42,3.89,17.45.29,16.53-9.85,33.94-18.42,49.58-29.5,15.47-11,29.77-12.55,44.29-.4,8.75,7.32,15.42,5.47,23.79-.69,12.42-9.12,24.4-18.81,36-28.88,6.2-5.39,11.32-5.16,16.86-1,9.41,7,19.72,12.75,28,21.43,9.76,10.24,12.68,10.19,25,2.81,14.78-8.85,17.7-8.66,31.43,1.66,12.27,9.22,24.19,19,38,26,3.54-1.68,6.4-.24,9.15,1.91,17,13.32,36.74,21.76,56,31,5.5,2.62,10.88,3.21,16.45.17,12.45-6.81,24.71-14.09,35.44-23.29,8.42-7.23,16.66-8.1,25.66-2.95,7.27,4.16,12,2.39,17-3.9,9.84-12.55,16.77-12.53,26.13.65,9.25,13,21.32,21.79,35.64,28.24,11.26,5.08,22.57,10.09,33.49,15.92a26.14,26.14,0,0,0,8.66,2.46c3.28.49,6.79.84,7.35,5.25-.83,3.91-4.16,5.12-7.26,5.75-13.1,2.65-25.73,7.36-39.06,8.91-4.78,1-10.05-2.54-14.51,1.59a7.77,7.77,0,0,1-2.83.32c-16.39.9-30.81-5.46-45.25-12.06-16.56-7.57-33.32-10.3-51.82-5.91-21.31,5-43.3,7.08-64.84,11.38a30.59,30.59,0,0,1-15.23-.92c-10.36-3.27-21.12-5.15-31.4-8.63-11.38-3.85-21.37,1.74-31.74,4.13-6.41,1.47-12.84,3.28-19.23,5-7.4,2-14.42,2.93-20.22-4.89-3.18-4.28-10.92-3.48-14.08-10.75-2.55,5.48-2.92,10.33-5.1,14.46-4.86,9.24-12.64,10.21-19,2-2.3-3-3.74-4.72-6.58-.8s-7.09,4.4-11.38,4.32c-13.22-.25-26.4-1-39.57-2.43-20.86-2.32-41.74-4.67-62.68-6.13C195,535.14,180,534.62,166.81,526.24Z" fill="#004d86"/><path d="M1080,362.07v41.87q-11.84.62-23.7.69h-.73c-23.08-10.89-47.14-1-70.52-3.46-20.63-2.18-40.48,5-61.69.95-20.34-3.93-42.09-2.53-63.14.1-13.63,1.71-27-2.62-40.61-1.37-5.73.52-11.23.51-16.51,3.62s-11,2.38-16.69.57c-11.31-3.62-22.67-6-34.36-1.39-4.2,1.68-8.38-.37-12.49-.9-10.89-1.4-20.93,4.9-32.11,2.78-4.24-.81-8.76.35-12.57-2.87-1.69-1.43-3.89-1.3-6.07-1.08a281.86,281.86,0,0,1-62.27-.58c-3.12-.37-6-.76-7.91-3.57l8.13-.59c29-2.14,58-4.34,87-6.3,8.71-.59,17.47-.33,26.2-.45.78-1.11,3.68-1.17,1.8-3.61-29,0-58,.7-86.91-.21C592,384.3,529,385.19,466,384.4c-15.91-.2-31.41-5.26-46.94-8.88a11.7,11.7,0,0,1-.24-3.9c.8-6.33,8.15-7.22,12.45-10.33,3.88-2.8,7.59-.75,11.07,2.72,5.73,5.69,11.18,5,16.53-1,4.84-5.49,13.5-5.6,19,.51,3.94,4.38,6.7,5.69,10.43.05,4.11-6.21,11-5.09,16.61-4.33,44.85,6.1,89.9,1.41,134.82,2.89,18.38.61,36.77-.93,55.17,1.73,8.84,1.28,17.87-1.83,27-1.82Q901,362.25,1080,362.07Z" fill="#00568e"/><path d="M711.12,529.88c-11.41,2.26-20.44-4.17-29.67-8.77-16.62-8.29-34.62-14.09-48.55-27.46-5.54-5.31-8.77-12.17-14.23-17.45-4.32-4.18-7.57-4.17-11.2.3-.57.7-1.22,1.33-1.8,2-10.82,13.13-10.87,13.25-25.7,6.69-7.13-3.15-13-2.49-19,3-11.37,10.46-25.17,17.52-38.32,25.41-4.93,3-10.65,2.4-15.73.06C483.73,503,460.3,492.6,440.79,475.43a22.67,22.67,0,0,0-9.07-10.95c-2.17-1.34-5.67-2.36-3.88-5.93,1.39-2.77,4.4-2.78,7.22-2.28,10.49,1.87,21.07.8,31.61.88,24.13.18,48.28-.49,72.39.21,23.71.69,47.37,2.53,71.12,1.7,5.48-.19,10.88-.25,15.59-3.59,1.92-3.09,5-2.84,8-2.64,14.94,1,29.93.63,44.87,2q55,5,110.15,8c18.55,1,37.3-2.39,56-3.78,6.27-.47,12.63-2,18.46,1.89-1.7,7.22-3.9,14.38-5,21.69-1.44,9.8-6.79,14.49-16.38,15.36-2.58.24-5.05,1.65-7.57,2.52-1.94,2.34-4.1,5-7.1,5.17-10.36.68-19.58,5.29-29.28,8.12-7.49,2.19-14.9-.94-22.15,1.26l-.63-.06-.6.2c-3.45,4.51-9.06,1.06-13.07,3.54-6.4-.88-11.41,4.51-17.74,3.94-6.88,7.75-16.62,8.54-25.82,10.52C715,533.79,712.67,532.39,711.12,529.88Z" fill="#006ba7"/><path d="M863.17,460.93c-8.45,2.5-17.24,2.88-25.88,3.33-14.15.72-28.24,1.75-42.28,3.55-7.94,1-15.59-1.22-23.38-1.74-36.63-2.41-73.21-5.56-109.81-8.35-12-.91-24-1.51-36.05-2.25l-54.65-4.06c3-2.4,5.93-1.41,8.56-1.4,67.32.2,134.62-2.61,202-2.18,19.92.12,39-7.61,58.61-11.2,10.09-1.85,20.06-4.37,30.09-6.59A87.8,87.8,0,0,1,863.17,460.93Z" fill="#1975ab"/><path d="M1050.92,340.68c9.69,0,19.39,0,29.08.12v26.53c-119.1-2.6-238.21-.32-357.32-.33-31.16,0-62.3-1.43-93.48-.65-31.41.79-62.85,0-94.27.27-10.07.08-19.81-1.37-29.63-3.23-6.65-1.25-13.6-2.08-14.42,8.18-.29,3.59-3.56,5.47-7.3,5.56-3.9.1-5.87-2.34-7.39-5.6-5-10.68-8.3-11.31-16.65-3.33-5.54,5.29-14.9,5.62-19.13-.38-3.55-5-6.1-4.49-10.06-1.14-2.74,2.31-6.33,3.54-9,6a10.6,10.6,0,0,0-2.26,2.87q-49.28-9.33-98.54-18.67-16.87-3.23-33.68-6.75c-3-.62-6.17-1-8.57-2.8a8.1,8.1,0,0,1-2.26-2.72c8.55-2.51,17-6.37,26.11-2a5,5,0,0,0,3.56.18c19.57-7.32,39.48.09,59.23-1.38,34.57-2.59,69.24.47,103.91-.78,15.44-.56,31.23.45,46.87.56,6.37,0,12.77-.12,18-4.46,2-1.67,3.4-1.26,5.46.3,5.66,4.27,12.14,5.48,18.74,2.56,5.23-2.31,8.62-1.17,11,3.93s6.19,5.06,10.54,2.68c13.7-7.51,28.26-7.38,43.19-5.29,5.34.75,10.86.29,16.3.29q54.39,0,108.77,0c5.76,0,11.41.16,16.41-3.72,3.13-2.43,6.77-2,10.17.17,4.06,2.6,7.95,5.68,12.36,7.49,6.69,2.74,14,6.88,19.39-2.56,2-3.46,4.91-3,7.7-.88,2.5,1.9,5.23,3.7,8.31,2.36,10.76-4.7,21.66-1.78,32.62-2,16.81-.29,33.75-.84,50.61-1.25,25-.61,50,.27,75,.53.3,0,.72,0,.88.14,9.57,10.11,18.87,2.58,29,.72C1023.47,339.76,1037.34,340.71,1050.92,340.68Z" fill="#01568e"/><path d="M1065.94,270.84A23.75,23.75,0,0,1,1080,264v48.33a35.1,35.1,0,0,1-7.23-5.25c-1.41-1.29-3.39-2.22-5-1.34-7.36,4-17.86.33-23,10.17-2.5,4.73-7.24,2.57-10-.46-6.91-7.69-14.53-9.6-24.39-6-4.3,1.59-9.62,1.27-14.35.69-27.39-3.36-54.92-2.34-82.27-1.26-26.2,1-52.25-.64-78.37-.38-3.91,0-8-.12-11.67,1-10.48,3.07-20.38,4.81-31.35.32-6-2.45-13.34.81-19.48,4.1a3.78,3.78,0,0,1-1.69.84,4.07,4.07,0,0,1-1.8-.07,8.5,8.5,0,0,1-1.63-.6l-1.68-1.45c-7.26-6.27-14.62-12.36-22.27-18.09a232,232,0,0,0-30-19.35,43.87,43.87,0,0,0-10.76-3.7,69,69,0,0,1-10.92-3.1l-.38-.16a33.84,33.84,0,0,0-4.17-2.65h0c-1.73-1-3.5-1.86-5.15-2.93a21,21,0,0,1-2.9-2.24,14.47,14.47,0,0,1-2.17-2.59c0-.06,0-.11,0-.17,0-.43,0-.85,0-1.25.16-4.73,3.83-6.94,7.8-8.17,4.67-1.45,8.1,1.1,10.29,5.32a7.38,7.38,0,0,0,3.77,3.79c10.7,3.72,21.94,10.17,32.46,9.05,19.11-2,37.92,1,56.82-.28a218.14,218.14,0,0,0,22.27-2.35c8.18-1.39,17.06,1.45,25.75,1.35,20.95-.25,41.79,4.19,62.93.34,8-1.47,17-.4,25.15,1.08,18,3.28,36,1,54,1.88,7.4.37,14.69,2.26,20.47-5.07,2-2.51,6.19-1.57,9.3.28,6.22,3.69,11.35,1.81,16.29-2.81,5.8-5.4,9.6-5.42,14.53.1,6.56,7.35,16.83,5.67,24.36,10.53A2.23,2.23,0,0,0,1065.94,270.84Z" fill="#014a80"/><path d="M769.39,311.3l3.5,2.61c1.18,2.91,4.53,5.69,1.71,9s-6.35,1.54-9.88.46c-24-7.4-43.43-22.7-63.54-36.79-2.68-1.87-4.71-4.72-8.27-5.18l-2-2c-3.26-3.83-10.34-5.13-8.25-12.49,2.8-2.85,5.54-1.46,8,.37,11.78,8.71,24.59,15.9,35.73,25.6,8.81,7.67,19.13,13.42,29.68,18.54,3.45,1.67,7.14,3.58,10.93.51A8.19,8.19,0,0,1,769.39,311.3Z" fill="#6294b8"/><path d="M562.53,179.7c.09-1.16.56-2.46.2-3.45-.92-2.53-2.81-5-.12-7.43a7.55,7.55,0,0,1,8.56-1.07c12.85,6.58,25.85,6.73,39.21,2,2.17-.78,4.2.06,5.88,1.51,2.26,2,5.1,2.81,7.61,1.77,9.74-4,20.23-1.59,30.11-3.87,9-2.08,18-.6,27,.16,4.19.35,8.29,2,12.07-1.29.59-.51,2.06-.95,2.45-.62,9,7.63,17.77-.07,26.54.23,3.67.13,14-5.05,12.14,7.34-.47,3.07,2.74,2.17,4.71,1.21,4.8-2.34,8.65-5.33,9.17-11.3a4.47,4.47,0,0,1,4-4.35c3.43-.24,2.48,2.62,2.81,4.52,1.07,6.23,5.9,7.25,10.89,7.27,4.79,0,9.79-.05,14.35-1.34,16.08-4.53,32,1.29,47.73.13,14-1,27.6,4.33,39.9,2.57,15.77-2.27,32.06-.37,47.51-5.55,11.35-3.81,20.66.68,27.9,9.82,1.09,5.43,3,10.91-1.08,16-4.85,2.14-9.75,4.17-15.13,4.59a7.91,7.91,0,0,1-2.95,0c-2.25-.7-4.44-1.6-6.68-2.36-2.15-1.45-2.84-3.64-3.39-6.08-1.89-8.37-3.45-9.22-11.64-6-3.14,1.25-6.35,2.83-9.56,1.81-10.55-3.37-17.44,2.27-24,9.07-3.95,1.75-7.9,3.37-11.8-.12-1.64-1.68-1.62-5.52-5.74-3.92-3.3,1.28-6.58-.18-9.64-1.22-3.54-1.19-6.44-2-10,.64-2.92,2.17-7.63,2.38-10.23.08-5.46-4.83-10.25-2.47-14.52.64-5.2,3.78-9.92,3.31-15,.61-2.66-.88-4.58.53-6.58,2-2.93,2.1-7,2.6-9.5,1.14-9.76-5.76-19-2.41-28.5.26a14.43,14.43,0,0,1-3.82-.35c-6.51-5.82-14.82-4.79-21.52-2.8-11.17,3.3-22.65.32-33.34,3.18-11.11,3-21.23.79-31.67-1.72-1.16-.28-2.91-.92-3.49-.48-11,8.41-20.9-1.81-31.41-2-7.81-.13-15.63,2.57-23.81-.83-4.71-2-5.23,5.42-7.92,8.34-3.44,2-5.62-.74-8.06-2.26-6.1-3.81-11.74-8.3-17.84-12.1C563,182.87,561.3,181.86,562.53,179.7Z" fill="#00366a"/><path d="M1057.48,171.23c7.48-.89,15-2.52,22.52-2.86v26.89c-3.85-.55-7.7-1.07-11.56-1.26l-1.23-.06-1.23,0a45.65,45.65,0,0,0-7.81.53h0c-.8.12-1.59.27-2.39.45a8.24,8.24,0,0,1-2.92.11c-3.71-.45-7.15-2.91-11.08-3a53.8,53.8,0,0,0-20.12,3.62c-1.71.61-3.4,1.28-5.09,2a7.64,7.64,0,0,1-2.65.69l-1.11-.49c-.72-.32-1.45-.63-2.17-.93s-1.69-.68-2.54-1a17.28,17.28,0,0,0-7.84-1.12,12.45,12.45,0,0,0-6.76,3.17c-.23.19-.45.39-.68.61a13,13,0,0,1-2,0l-.53,0A22,22,0,0,0,987,196.2c-4.13-2.24-8.15-2.2-12,.78a18.5,18.5,0,0,0-2.55,2.43,10.77,10.77,0,0,1-3.8,1.13c-5.75-2-11.84-2.88-17.73-4.47h-.05a47.49,47.49,0,0,1-7.43-2.61c-.24-.1-.48-.22-.72-.34-.45-.21-.9-.44-1.34-.68-.58-4-1.8-8-.14-11.68a9.56,9.56,0,0,1,2-2.82c8.68,4.63,9.25,4.5,10.15-5,.39-4.11,2.33-5.27,5.84-4.9,2.73.29,5.37.89,7.45-1.73,1.23-1.56,2.13-1.49,2.93.69,2.4,6.55,8,6.09,12.71,4.23,6.76-2.66,13.17.45,19.72-.11,1.4-.12,3.8.36,4.18,1.24,3.64,8.52,10.31,2.91,15,2.61,5.93-.37,12.55-1.83,16.48-7.66,2.47-3.66,4.63-4.37,7.32,0C1047.87,172.17,1052.14,171.86,1057.48,171.23Z" fill="#01366a"/><path d="M562.53,179.7c.54,1.13,1.08,2.26,1.61,3.39,1.28.55,1.32,1.18.13,1.9-5.95-2.78-11.71-5.87-16.41-10.6C553.64,173.71,557.39,178.63,562.53,179.7Z" fill="#2d5c8d"/><path d="M134.64,153.85a2.14,2.14,0,0,1,2.18,2.23,2.36,2.36,0,0,1-2.78,2.6c-1.39-.13-1.95-1.26-1.72-2.59A2.5,2.5,0,0,1,134.64,153.85Z" fill="#013366"/><path d="M537,163.42c.55,2.42-.25,3.76-2.76,2.65-2.84-1.25-4.72-3.67-6.28-6.31Z" fill="#013e74"/><path d="M375.71,151.27c-1.67-2.93-1.86-5,.16-6.79a1.6,1.6,0,0,1,1.53.28C379.21,147.44,376.94,148.81,375.71,151.27Z" fill="#013366"/><path d="M166.81,526.24c5.45-1,9.73,2.74,14.77,3.64,26.17,4.67,52.73,4.68,79.09,7.1,15.59,1.42,31,4.41,46.83,3.91,8.25-.26,14.18-1.53,15.75-10.76.38-2.22,1.13-5.39,3.95-5.46,3.4-.08,2.35,3.5,3.26,5.51,2.21,4.9,1.64,13.28,9.12,12.55,6.54-.63,6.68-8.38,8.37-13.73a9.64,9.64,0,0,0,.24-1.79c.6-4.94-1.08-12.47,4.57-13.41,5.86-1,4.69,6.93,6.61,10.93.89,1.84,2.06,5.2,4.14,2.92,7.81-8.56,7.3,1.09,8.58,4.07,2.19,5.13,5.12,7,10.51,5.48,9.28-2.58,19-4,27.87-7.59,15.69-6.38,31-4.58,45.58,1.61,19.51,8.3,38.32,3.67,57.5,0,16.23-3.07,32.45-6.52,48.83-8.46,15-1.78,29.24,2,42.81,8.78,13.89,7,27.55,15.25,44.23,12.74-1.32,7.74-5.64,7.16-10.92,3.93-10.54,3.17-19.68-1.64-28.58-5.77-10.54-4.9-20.82-6.06-32.43-4.29-33.66,5.12-67.5,9.08-101.25,13.6-17.92,2.4-35.88,4.68-53.69,7.74-7.13,1.22-13.84-.22-20.7-.74-20.41-1.53-40.74-3.86-61.07-6.29-27.54-3.28-55.2-5.56-82.8-8.31-24.91-2.48-49.84-4.73-74.69-7.72C176.75,535.69,171.21,531.43,166.81,526.24Z" fill="#014474"/><path d="M638.5,548.26c3.86-.69,7.92-.84,10.92-3.93h0c4.47-3.09,10-1.69,14.79-3.5,16-2.16,31.46-6.57,46.93-11l32.56-7.21c10.68,5.23,21.29,11.3,33.83,8a84.25,84.25,0,0,1,37.63-1.34c5.53,1,10.74-.63,16.05-1.92.62-3.54-5.94-3.24-3.86-6.9,1.55-2.73,4.95-1.31,7.53-1.69l8-1.16c1.51-.22,3.14-.47,4.06,1,1,1.66-.35,2.75-1.31,3.9-1.25,1.5-4.49,2-3.36,4.64s4.06,2.09,6.42,2.44c13,2,25.74-2.47,38.72-1.8,16.79.87,33.71-1.72,50.38,3.18,5.22,1.53,11.37.14,17.07-.26,12-.81,23.68-4.21,35.9-1.4,7.78,1.78,14.38-3.78,21.65-5.51,2-.49,2.77-2.24,2.11-4.3-3-9.42,3.43-8.3,8.29-6.65,3.65,1.25,10,.53,10.38,5.26.29,3.79-5.48,4.77-8.81,6.67-22.36,12.78-47.16,19.52-71.09,28.31-10.35,3.79-21.22-.34-30.43-5.31-15-8.1-30.81-10.31-47.29-8.7-40.41,4-80.88,7.49-121.12,12.72-23.29,3-46.55,6.48-69.87,9.37-5.07.62-10.2.76-15.3,1.12l12.21-5.69a88.24,88.24,0,0,0-32.59-.47C642.18,557.4,638.3,555.74,638.5,548.26Z" fill="#001a37"/><path d="M741.81,386.49c3.94.39,8.18-1,13.07,2.22-5.65,2.21-10.35,1.07-14.87,1.39Z" fill="#00629c"/><path d="M1053.75,67.28c-1,6.86-6.12,5.62-10.49,4.94-3.75-.59-7.72-1.45-9.89,2.16-4.19,7-8.4,5.71-13.49,1.26-4-3.51-8.88-4.81-14.27-4.77-6.88,0-13.63.24-20.46-2.48-4.62-1.84-9.86-.16-8.78,7,.19,1.23,1.06,2.24-.66,2.79a2.77,2.77,0,0,1-3.24-.94c-7.2-9-15.63-11.07-26-5.23-2.9,1.63-6.52.66-9.55-1.14-6-3.54-11.83-5.74-17.63.45-1.44,1.54-3.41.24-5.16.09-2.39-.22-5.55-1.36-7.09-.27-10.21,7.23-19.06-.1-28.38-2.09-2.06-.44-5.06-1.83-6-.1-6.84,12.66-18.85,4.87-28.18,7.4s-17.08.92-22.42-8.42c-2-3.55-6.26-2.58-9.83-.81-12,5.92-13.62,5.67-22-3.65-2.55-2.85-4.15-2.32-4.78,1-1,5.46-4.9,5.69-9.34,6.49-13,2.33-26.32-2.74-39.3,2.61-4.48,1.85-7.27-4.57-11.32-6.36,7.82-10.1,13.47-11.41,24.59-5.62C758.72,66.14,768,63,775.68,61c13.21-3.36,26.23-.18,39.27-2.5,16.48-2.93,33.38,1.19,50.12-1,3.94-.51,8.62.72,12.26,2.55,8.09,4,13.77,2.29,18.08-5.39a5.35,5.35,0,0,1,2-1.76c.45-.26,1.14-.12,2.28-.21,1.16,4.62-3,5.86-5.17,8.22-1.19,1.3-3.16,2.54-1.7,4.45s3.57.91,4.74-.42c11.63-13.18,26.71-5.7,40.32-6.75,3-.23,4.6,1.33,1.74,4.42-2.28,2.44-.91,4.61,1.71,5.64,2.25.89,5.48,1.37,5.94-1.81.74-5.21,4.65-3.72,7.53-4.4,14-3.29,28.09-1.47,42.22-.42,10.66.8,10.71.21,10.17-11.18,5.46,9.55,13.95,8.11,21,6.89C1039.28,55.53,1046.5,60.81,1053.75,67.28Z" fill="#011f50"/><path d="M605.84,63.66c-5.5,10-15.69,7.42-23.83,7.4-6.42,0-12.88-2.25-19.55-.47a9.26,9.26,0,0,1-7.81-1.45c-7-4.91-10.32-4.25-9.9,5.36.24,5.37-2.55,8.08-7.82,3.68-1.73-3.49-4.58-3.91-7.95-2.91a33.24,33.24,0,0,0-6.94,1c-3.37-1.79-6.82-1.68-10.5-.91-4,.84-7.77,3.39-11.4-2.67-2.06-3.45-7.66.52-11,2.8-7,4.81-12.83,7.41-20-1-4.64-5.49-11.89,0-17.64,1.17-4.63.91-8.13,1.72-12.59-.73-4.79-2.62-9.36-4.66-16.07-1.62a14.59,14.59,0,0,1-18.24-6c10.47-9.54,22.7-11.73,36.29-9.11,3.71.71,6.83,1.8,9.57,4.48,3.9,3.8,8.17,4.69,12.34,1.05.87-5.68-7.84,2.17-5.38-4.63,1.58-4.35,4.79-2.77,8.24-1.81,8.7,2.44,17.61,4.93,25.89-1.56.62-.48,2-.93,2.39-.61,11.28,9.8,26.18-.05,38,7,2.45,1.46,5.27-.49,7.85-.58,12.21-.46,25.5-3.45,36.37.33,11.73,4.07,17.87,0,25.53-6.85Z" fill="#011f50"/><path d="M564.27,185c0-.64-.08-1.27-.13-1.9l25.32,15c9.81-1.51,14.28,6.75,20.77,11.33a4.91,4.91,0,0,1,.28,2.6,3.45,3.45,0,0,1-3,2.3c-2.95-1.79-5.34-4.55-9-5.14-10.92-6.92-20.75-15.61-32.91-20.53C563.72,187.9,565.57,185.9,564.27,185Z" fill="#5080af"/><path d="M504.32,266.73c4.2-5.34,9.12-3.56,13.82-1.11,5.82,3.05,11,3.79,16.76-.69,4.12-3.22,9.19-2.1,14.39-2,10.55.12,21.18,6.6,31.92-.24,4.63-2.95,10.67-1.44,16-1.21,8.72.38,17.56.64,26.07,2.31,12,2.36,22.57,2.16,29.67-9.66,4.29,1.75,8.59,6.11,12.84-.05a4.09,4.09,0,0,1,2.38-1.06c4.26.94,7.41,2.93,7.36,7.9-.78,2.11-2.94,1.53-4.42,2.27,0,6.91-2.62,9.6-10.09,8.12-11.12-2.21-22.8.3-33.85-4-3.65-1.43-7.45,1.64-11.12,3.4-1,3.29,3.16,4,3.47,6.69a7.8,7.8,0,0,1-3.75,7.68c-3.06,2.09-3.88-1-5.36-2.83-2.94-3.58-1.77-10.66-7.85-11.2-10.76-.94-21.65-1.68-32.36.58-3.36.71-4.11,4-4.25,7.23a55.73,55.73,0,0,1-.65,8.08c-.47,2.43-2.46,3.34-4.82,3-2.18-.31-2.37-1.81-2.66-3.87-2.49-18.08-10-20.6-25.2-8.85-4,3.07-9.22,9-10.54-2.22-.13-1.09-.72-3-2.13-2.12C512,277.66,508.91,270.33,504.32,266.73Z" fill="#01437a"/><path d="M671.15,263.15l4.16-2.07c5.79-2.35,7.59,1.1,8.49,5.86-.44,5.76,5.37,8,7.1,12.51-3.74-.51-5.87-3.7-8.9-5.38-2,1-3-.19-3.63-1.85C677.53,268,674.52,265.4,671.15,263.15Z" fill="#004d84"/><path d="M678.37,272.22l3.63,1.85c-.36,3.49-2,5.61-5.8,4.94-1.91-.33-3.52-1.51-3.31-3.55C673.23,272.21,676.08,272.54,678.37,272.22Z" fill="#01437a"/><path d="M607.54,214.36l2-2c6.42-3.73,10.08,1.57,14.49,4.41,5.72,5.85,13.46,8.5,20.2,12.73,3.72,2.34,8.11,4.19,7.89,9.74a3.56,3.56,0,0,1-3,2.46l-21.52-13Z" fill="#90b1cf"/><path d="M219,200.06c2.6.13,5.26.81,4.68,3.91a7.58,7.58,0,0,1-6.85,6.09c-3.39.43-3.8-2.37-3.8-4.75C213,201.48,216,200.61,219,200.06Z" fill="#013366"/><path d="M1069,212.56a40.38,40.38,0,0,0,11,3.85V269.5c-2.93-.05-5.86-.13-8.77-.43-.63,4,6.55,2.83,4.35,6.66-1.92,3.33-6.21,2.36-9.19,1.56-8.94-2.39-17-7.77-26.64-7.93-5.38-12.69-11.06-5.17-17.63-.84-5,3.29-10.92,4.91-16.26-1.12-3.22-3.64-5.75-.95-7.54,2.45-2.84,5.42-7,7.53-12.63,4.1-4.06-2.48-8.36-1.21-12.4-.83-11.07,1-22.11-.39-33.2,0s-22.48-3.43-34-3c-1.19,0-2.47-.68-3.57-.44-26.88,5.83-53.88-.69-80.84-.09-11.15.25-22.49,2.67-34,1.11-11.88-1.61-24.13.94-36.1-1.65a10,10,0,0,0-4.49.18c-11.16,2.87-21.71,4.54-32.58-2.69-4.71-3.13-12.36-1.25-17.92-4.82-1.51-1-4.26-1.53-4.51-2.69-2.9-13.86-8.68-4.74-13.68-1.87h0a5.73,5.73,0,0,1-1.14.53,3.9,3.9,0,0,1-2.25.11c-2.35-.64-3.82-3.55-6.12-4.32l-.19-.06-.3-.27-.11-.1c-.54-.48-1.11-.92-1.69-1.35-5.1-3.71-11.53-5.73-15-11.49l-.13-.23c-.08-.13-.16-.28-.24-.42l-29.14-19.9a11.38,11.38,0,0,1,1.11-3.45c2.12-4.09,6.38-4,10.29-1.51,10.37,6.71,20.41,4.3,30.13-.15,8.55-3.91,15.77-2.54,22.71,2.79,7.75,5.95,14.57,6.82,22,1,5.45-4.3,10.56-5.44,16.61-2.23,2.54,1.35,5.25,1.29,8,1.15,21.34-1.12,42.7-.78,64,0,10.06.38,20.1-4.94,30.12,0,15.52-6.68,32.18,2.09,48-3.59,4.21-1.51,9.39,0,13.7,3.05,5.3,3.73,10.39,4.33,14.55-2.37,3.7-6,9.28-5.84,13.86-1.49,6.31,6,13.1,6.82,20.89,4.31,2.63-.85,5.78-1.75,7.87.12,9.62,8.65,19.11,1.43,28.43-.25,4.74-.86,9.07-3.24,13.88-.61,3,1.62,5.87.87,8.71-.41,8.72-3.92,17.21-3.05,25,2.1,5.37,3.55,10.19,3.91,16.07,1.16,6.53-3.05,13.76-4.44,20.5-7.1A12.15,12.15,0,0,1,1069,212.56Z" fill="#014075"/><path d="M1080,475.68v6.59c-10.43,2.37-20.85,4.8-31.34,6.89-27.09,5.41-54.26,10.45-81.37,15.8-10.39,2.05-19.41.37-27.63-6.9-5.42-4.79-10.26-11.08-19.09-10.51-3.53.22-4.34-4-5.06-6.72-1.71-6.34-3-12.81-4.32-19.25-.17-.85-.36-1.7-.54-2.55,14.5-3.21,29.37-1.32,44-3.29,13.73-1.84,27.53.28,41.21,3.2,27.34,5.83,54.83,10.95,82.26,16.4Z" fill="#006aa5"/><path d="M896.19,461c1,4.57-.11,8.61-3.25,12.73-3.85-3.73-3.85-8.37-4.24-12.87Z" fill="#0a5b8d"/><path d="M651.27,239.52l18.45,12.19a2.75,2.75,0,0,1-2.3,2.53,5,5,0,0,0-1.59-.2l-16.66-12.38Z" fill="#c2dcef"/><path d="M210.31,259.5c-4.36,6.45-5.83-1.18-8.74-1.8C205.43,253.68,207.94,256.27,210.31,259.5Z" fill="#3e729f"/><path d="M1071.81,192.8A33.13,33.13,0,0,0,1080,195v26.14c-15.34-9-30.19-2.9-44.39,4.52-3.7,1.93-6.39,2.82-9.76.16-10.43-8.21-21.27-11.29-33.06-2.57-1.84,1.36-4.26,1.82-5.54-.53-2.94-5.4-6.65-3.86-10.63-1.67-3.74,2-7.47,3.7-12,2.91-2.68-.47-6.07.15-7.28,2.65-5.39,11.09-7.84,2.3-9.88-1.68-1.86-3.63-3.56-5.25-7.58-3.85-9.81,3.41-18.83,3.51-26.21-5.54-2-2.52-4.73-3-7,1.15-4.79,8.9-10.71,10.88-18.87,5.16-6-4.17-11.06-4.2-17.65-2.61-9.74,2.35-20.24-1.6-29.55.46-10.29,2.27-20.14,0-30,1.28-11,1.38-23.12,3.29-32.95,1.82-16.11-2.4-31.62-.17-47.36-.66-.88,0-2.18.72-2.62.34-11.21-9.72-19,3.08-28.41,4.8-4.7.86-7.52,1.69-10.74-2-7-8.1-14.37-10.86-25.4-5.61-10.08,4.8-21.8,7.76-32.06-1.57-2.22-2-4.09-1.39-5.89-.31-1,.6-2,1.35-3,1.87l-8.55-5a0,0,0,0,1,0,0c-1.13-.64-2.25-1.3-3.38-2l-.62-.36c0-.09,0-.19-.05-.28-.06-.37-.13-.74-.19-1.11-1.52-1.83-2.55-3.94-4.13-5.78l0,0a12,12,0,0,0-1.22-1.25c-5.28-4.7-3.91-10.07,3.3-11.47,1.45-.29,2.92-.55,4.37-.79h0c9.56-1.56,19.21-1.88,28.35,3.28,6.63,3.74,11.62-2.85,17.81-3.29,4.52-.33,8.33-2.46,11.93,1.95,2,2.4,5.11,2,7.65,1.53,11.87-2.17,24-1,36-1.66h.12a74.84,74.84,0,0,0,14.22-2c3.86-1,7.48-.2,11.1.43h0a35.64,35.64,0,0,0,4.83.62h3.62a42.2,42.2,0,0,0,4.68,1.25,12.39,12.39,0,0,0,9.88-1.74l.4-.25a7.47,7.47,0,0,1,9.54.93c.21.21.42.4.63.59a8.06,8.06,0,0,0,3.84,1.9,9.12,9.12,0,0,0,7-1.91,10.68,10.68,0,0,1,9.13-2,17.42,17.42,0,0,1,2.33.67c.61.21,1.22.46,1.85.72s1.49.78,2.2,1.24c.34.21.66.44,1,.68,1.89,4,4.69,4.37,8.16,2a6.78,6.78,0,0,1,2.48-.35,43.71,43.71,0,0,1,4.61-1.63c7.82-2.28,15.86-2.31,24-1.2,1.77.24,3.92-.56,5.32.4.54.38,1.09.72,1.63,1h0A18.43,18.43,0,0,0,860,196.67h0a47.79,47.79,0,0,0,9.49-3.68l1.17-.56,1.13-.55h0q1.23-.62,2.46-1.2a6.12,6.12,0,0,1,4.89,1.51c.52.77,1.11,1.53,1.63,2.3a8.3,8.3,0,0,1,1.31,2.65,5,5,0,0,1-.17,3,20.25,20.25,0,0,0,3.34-1.56c1.27-.71,2.49-1.52,3.72-2.34a48.46,48.46,0,0,1,5.29-3.22,17.59,17.59,0,0,1,4.39-1.54,13.49,13.49,0,0,1,1.46-.22,7.49,7.49,0,0,1,2.54-.27c3.88,1.39,7.64,3.69,11.59,4.73h0a15.85,15.85,0,0,0,2.82.49l.18,0h0a12.92,12.92,0,0,0,7.68-1.93,126.42,126.42,0,0,1,14.24-.88q1.6,0,3.21.06l.93,0A73.57,73.57,0,0,1,959.82,196a17.43,17.43,0,0,0,5.64,1s0,0,0,0a7.28,7.28,0,0,0,2.93-.82l3.88-.22c5.94-1.15,11.88-3.57,17.82,0l2,.19a4.23,4.23,0,0,1,1.4,1.84,12,12,0,0,1,.64,3.64c1.68-3.41,3.65-5.84,6.12-6.81,2.16-.87,4.7-.62,7.76,1.08l.08,0a8,8,0,0,0,2.54,1,4.09,4.09,0,0,0,3.22-.8l0,0c12.35-3.69,24.81-6,37.62-2.48a10.9,10.9,0,0,0,7-.28C1062.86,191.67,1068,191.24,1071.81,192.8Z" fill="#01376c"/><path d="M775.72,515.05a478.87,478.87,0,0,1,58.53-14.55c.49,7.43-4.14,9-10.28,9.39-6.42.44-6.37.69-6.34,6.36,0,3.56-2.89,2.47-4.64,2.51C800.42,519.1,787.81,519.66,775.72,515.05Z" fill="#001a37"/><path d="M854.65,508.51c4.07,4.19,10.2,4.12,15,6.91,2.56,1.49,1.39,3.63-1.15,4.47-3.23,1.06-15.19-5.1-16.19-8.13C851.68,509.82,852.62,509.11,854.65,508.51Z" fill="#001a37"/><path d="M761.42,518.73c3.92-2.78,8.39-3.54,13.07-3.54C772.12,523.66,766,518.41,761.42,518.73Z" fill="#001a37"/><path d="M1080,486.48v2.8c-1.58.56-3.08,0-4.93-.54A4.74,4.74,0,0,1,1080,486.48Z" fill="#01122b"/><path d="M527.87,72.63c2.57-2.06,5.43-4.41,8.7-2.37s1.33,5.2.36,7.92c-4.21-.16-8.33,3-12.61.35C524.42,75.91,527.56,75.12,527.87,72.63Z" fill="#011d4e"/><path d="M527.87,72.63c2.79,4.36-.42,5.1-3.55,5.9l-2.27-2.23C523.14,73.73,525.28,72.83,527.87,72.63Z" fill="#012759"/><path d="M664.19,540.84a27.31,27.31,0,0,1-14.79,3.5C653.33,539,659,541,664.19,540.84Z" fill="#014474"/><path d="M497.74,354.83c-2.13-.3-3.51-1.42-3.48-3.48.06-3.49,2.52-4.42,5.48-4.46,1.62,0,3.23.68,3,2.46A6.06,6.06,0,0,1,497.74,354.83Z" fill="#004d84"/><path d="M450.87,363.41c-1.73-.73-4.68-.19-4.66-3,0-2.09,2.18-2.6,4-2.45,2.26.17,4.19,1.16,4.08,3.73C454.24,363.71,452.43,363.52,450.87,363.41Z" fill="#004d84"/><path d="M397.67,355.31l5.88-5.8,2.21,1.84C405.33,353.6,404,355.2,397.67,355.31Z" fill="#004d84"/><path d="M667.42,254.24l2.31-2.52,8.73,5.41L693,264.82c25.62,12.25,51.05,24.79,72.47,44,1.66,1.49,2.32,3.3,3.62,4.82,2.76,9.37-3.75,6.27-7.38,5-14.31-5.18-26.83-13.55-38.84-22.76-12.86-9.87-25-20.68-39.1-28.9l-8.49-5.86Z" fill="#f0f5f6"/><path d="M769.12,313.65c-19.79-19-45-29.46-68.06-43.32-2.78-1.68-6.08-2.61-8-5.51,14.18,2,25.74,9.95,37.58,17,14,8.35,27.6,17.33,38.78,29.45Z" fill="#6c91af"/><path d="M743.66,192.43c-1,1.78-2.29,5-4.16,4-7.65-4-14.92,2-21.7.68-12.09-2.4-24-.52-35.93-1.06-5.38-.24-10.8.45-15.47-3.4-2.87-2.37-5.63-.34-8.3,1.11-6.84,3.7-13.08,4.07-21.27,1.72-9.24-2.65-19.92-1-29.88-.09-3.71.33-4.37,4.21-.38,6.29,4.38,2.27,3.78,5.56,2.76,9.21q-9.93-6.41-19.87-12.8c-.24-3.91-3.68-6-6-9.41,5.63-3.27,14.95.38,15.33-9.41,4.28.62,3,3.84,3.94,5.78,1.11,2.34,2.39,4.32,5.41,3.61a44.94,44.94,0,0,1,32.1,4,4.62,4.62,0,0,0,3.37.41c12.15-4.82,17.28-4.8,27.86-.23,4.51,1.95,8.9,2.63,10.68-3.79.75-2.71,2.4-3.3,4.68-1.44,8.75,7.14,18.21,4.49,26.92.79C722.28,184.8,739,186.21,743.66,192.43Z" fill="#01366a"/><path d="M877.85,194.24l-3.63-1.81c-1.81,1.27-3.63,1.64-5.44,0,1.71-5.42,7.69-8.18,8.3-14.63.33-3.42,3.44-2,5.46-.08,5.55,5.16,11.67,5.66,18.23,2a8.84,8.84,0,0,1,3.35-1.31c4.49-.36,9.65-2,13.38-.41,6.44,2.76-1.44,7.67.19,11.75.52,1.3.06,3,0,4.5-.86,5-4.57,3.73-7.28,2.78-3-1.05-6.14-1.51-9-2.78h0c-1.77-1.37-4.25-2.49-5.6-.57C889.92,202.1,884,198.86,877.85,194.24Z" fill="#01366a"/><path d="M798.06,196.06l-1.86-1.92c-1.64-1.47-5.19-1.68-3.58-5.34,7.22,4.89,12.08-1.81,15.71-5,6.11-5.43,9.11-4,12.71,1.68,1.88,2.95,5.31,4.47,7.72,2.54,5.51-4.4,10.7-2.23,16.11-.68,3,.86,5.85.32,8.85-.41,2.57-.63,4.45-6,7.4-2.1,2.34,3.1-3.18,4.57-3.22,7.64-2.61,3.85-6.22,4.15-10.25,2.82-7.34-2.42-15-1.74-22.49-2-5.75-.22-9.79,3.87-14.39,6.47l-1.86,0C804.18,201.82,800,202.28,798.06,196.06Z" fill="#01366a"/><path d="M810.77,199.68c2.25-4.59,5.53-6.88,11-7.67a122.67,122.67,0,0,1,36.15.42c3.63,2.88,7.26.58,10.88,0h5.44c-5.87,5.12-14.52,5.19-20.06,11.08-1.27,1.35-3.4.39-4.88-.86-11.09-9.4-22.78-10.22-35.17-2.62C813.35,200.49,811.9,199.82,810.77,199.68Z" fill="#01366a"/><path d="M792.62,188.8l3.59,5.35c-5.09-.86-10-1.06-14.69,1.88-4,2.54-7.89,1.51-11.55-1.44-1.84-1.5-4.28-2.83-5.58.92-.63,1.82,2.61,7.45-2.17,4.8s-15,3.62-14.94-7.88c7.62-9.4,17.26-4.07,25.51-2.3,5.39,1.15,9.11,3.29,12.93-2.24C788.07,184.49,790.38,187.88,792.62,188.8Z" fill="#01366a"/><path d="M968.42,196.13C958,200,947.94,193.6,937.52,195c-4.07.54-8.34-.44-12.52-.73,5.16-3.07,10.86-1.35,16.32-1.81C950.84,190.11,959.34,195.22,968.42,196.13Z" fill="#01366a"/><path d="M901.42,194.24c5.44-.68,10.88,3.8,16.32,0H925C917.14,201.87,909.28,199.35,901.42,194.24Z" fill="#01366a"/><path d="M1080,192v5a32.28,32.28,0,0,1-4.33-1.38,24.24,24.24,0,0,0-7.23-1.58l-1.23-.06-1.23,0a73.88,73.88,0,0,0-7.81.53h0c-1.77.2-3.54.4-5.31.56a46.35,46.35,0,0,1-8.49.13c-7.49-.7-15.11-.08-22.71.46-2.6.17-5.19.34-7.78.44,10-6,20.57-7.83,32.26-6.54C1057.37,190.74,1068.68,191.4,1080,192Z" fill="#01366a"/><path d="M1013.84,196.06c-.88,2.26-2.44,3.06-4.91,2.82-3.65-.36-9.53-4.49-7.65,5.08.37,1.83-6.17,5.24-9.78,7.52-1.24.79-2.93-.51-3.65-1.88-2.16-4.14-.51-7.41,2.48-10.42a13.39,13.39,0,0,0,1.75-3.08C999.31,188.54,1006.57,190.09,1013.84,196.06Z" fill="#01366a"/><path d="M990.12,195.91c-5.94.08-11.88,3.34-17.82,0C978.24,187.81,984.18,188.91,990.12,195.91Z" fill="#01366a"/><path d="M715.61,552.75c4.28-5.7,7.63-5,12.12-2.31C723.89,554.5,720.47,553,715.61,552.75Z" fill="#001c39"/><path d="M479.65,70.37c0,1.74-.89,2.92-2.65,2.84-2.2-.1-2.91-1.81-3-3.71-.07-1.66.73-3,2.54-2.88C478.7,66.77,479.33,68.52,479.65,70.37Z" fill="#011d4e"/><path d="M877.85,194.24c5.83-.56,12.65,6.4,17.53-3,1.25-2.42,4.39,1,6,3-7.87,3.07-15.49,6.65-22.29,11.75-1.72,1.29-3,4.82-5.51,2.22-1.63-1.69.42-4.17,2.2-5.12C880.15,200.8,879.81,197.79,877.85,194.24Z" fill="#01366a"/><path d="M684.38,208.27c-2.92-1.14-8.56,2-8.28-3.91.19-3.88,4.72-2.71,7.55-2.71,3.27,0,6.46,1.22,6.19,5C689.57,210.64,686.62,209,684.38,208.27Z" fill="#01366a"/><path d="M1044.4,201.5c2.29.54,6.48-.77,6.08,3.1-.38,3.6-4.59,3.13-7.46,3.13-2.1,0-5.75,1.28-5.66-2.3C1037.45,201.45,1041.34,201.79,1044.4,201.5Z" fill="#01366a"/><path d="M798.06,196.06a20.35,20.35,0,0,0,10.86,3.65c-2.48,3.49-5.68,4.11-9.37,2.22C796.93,200.58,796.34,198.58,798.06,196.06Z" fill="#01366a"/></svg>