<svg id="Layer_1" data-name="Layer 1" xmlns="http://www.w3.org/2000/svg" viewBox="0 0 1080 304"><title>light_sus_4</title><g opacity="0.15"><path d="M377.8,148c.6-2.5.6-5-1.4-7h-.3c-.2.1-.3.3-.5.4-3.4,2.1-6.9,4.2-10.2,6.4a71.24,71.24,0,0,0-13.9,11.8c-2.7,3.1-5.3,6.3-5.5,10.7a20.85,20.85,0,0,0-2.5,0,1,1,0,0,0-.8.5,19.82,19.82,0,0,0-.8,24.1c2.1,2.9,4.5,5.7,6.8,8.5a14.86,14.86,0,0,1,2,3.1c.6,1.3,1,2.8,1.5,4.2a4.18,4.18,0,0,0,.8,1.2c.1-.1.1-.1.2-.1a2.77,2.77,0,0,0-.1-.9c-.3-1.5-.7-3.1-1-4.6a5,5,0,0,1,.8-4.3,2,2,0,0,1,1.3-.9c.8-.1,1-.5,1.1-1.2,0-.3.2-.6.2-.8.5-2.1,1.1-4.3.1-6.4a5,5,0,0,1,.1-4.6c1.1-2.2,2.3-4.3,3.6-6.4,1.7-2.7,3.6-5.3,5.4-8a10.08,10.08,0,0,0,.9-1.8c-.9.8-1.7,1.6-2.5,2.3s-1.7,1.4-2.6,2.1l-.1-.1c.3-.3.5-.6.8-.9,4.1-4.8,8.2-9.6,12.3-14.5a23.94,23.94,0,0,0,2.1-3.4,3,3,0,0,0,.2-1.3c-.1,0-.1,0-.2-.1a15.5,15.5,0,0,1-5.3,5.2c1.1-1.4,2.3-2.8,3.4-4.3C375.3,154.1,377,151.3,377.8,148Zm-13.4,8-8.1,12a52.76,52.76,0,0,0-6.3,13.1,33.81,33.81,0,0,0-.8,15.8c.2,1.1.4,2.3.7,3.4a29.79,29.79,0,0,1-2.1-7.2c-.8-6,.6-11.6,3-17a86.6,86.6,0,0,1,12.2-19,14.48,14.48,0,0,1,1.7-1.8C364.6,155.5,364.5,155.8,364.4,156Z" transform="translate(0 -141)" fill="#f5ab35"/><path d="M448.4,206.6a27.59,27.59,0,0,1-8,7.6,28.75,28.75,0,0,1-17.8,4.4,23.28,23.28,0,0,0-5.3.6,36.61,36.61,0,0,1-19.4-1.6c-6.6-2.6-11.5-7.3-15.2-13.2a28.6,28.6,0,0,1-4.6-16.3,18.81,18.81,0,0,1,4-11.4c3.1-3.6,7.8-4.8,11.8-2.9a9.62,9.62,0,0,1,3.8,14.1,4.23,4.23,0,0,0-.5.7c1.3-.4,2.8-2.3,3.8-5,.2.7.4,1.3.6,2,1.4,5,2.9,9.9,4.7,14.7,2.5,6.6,7.3,10.6,13.8,12.8.7.2,1.3.4,2.2.7-10.1-.3-18.2-5-25.7-11.1,0,.1-.1.1-.1.2.9,1,1.8,1.9,2.7,2.9a36.07,36.07,0,0,0,12.4,8.3,33.57,33.57,0,0,0,9.4,2,35.77,35.77,0,0,0,19-3.6,41,41,0,0,0,7.6-4.9A2.9,2.9,0,0,1,448.4,206.6Z" transform="translate(0 -141)" fill="#f5ab35"/></g><path d="M1080,149.3V445H0V220.2L317.5,338.4c123.4,28.5,193.9-27.3,212.2-40.9C663.9,196.7,770.5,196.8,843.6,222l3.6,1.2a272.17,272.17,0,0,1,34.7,15.5c.1,0,.2.1.4.2A275,275,0,0,1,917,261c25.8,19.3,39.3,36.5,39.3,36.5l69.7-84,1.1-1.4,30.5-36,1.1-1.5Z" transform="translate(0 -141)" fill="#f5ab35" opacity="0.15" style="isolation:isolate"/><path d="M1080,149.3V445H472.5c162.4-274.1,493-123.5,493-123.5Z" transform="translate(0 -141)" fill="#d38d29" opacity="0.15" style="isolation:isolate"/></svg>