<svg id="Layer_1" data-name="Layer 1" xmlns="http://www.w3.org/2000/svg" viewBox="0 0 1080 296.3"><title>light_sus_3</title><g opacity="0.15"><path d="M255.4,219.4l-87.7,33.9c-.7.3-1.3.5-1.4,1.4s.5,1.3,1.2,1.7c5.8,3.2,11.5,6.5,17.3,9.7a1.3,1.3,0,0,1,.8,1.2c2,10,4.1,20,6.1,29.8a1.85,1.85,0,0,0,1.1,1.7c.9.3,1.4-.2,2-.8l13-13a4.35,4.35,0,0,0,.6-.7,1.31,1.31,0,0,0-.2-1.9,1.39,1.39,0,0,0-1.9,0,4.35,4.35,0,0,0-.7.6l-9.5,9.5-.9.8,2.5-20,1.1.6,31.5,17.3c1.6.9,2.3.6,2.9-1.1l24.5-68.3a5.94,5.94,0,0,0,.4-.8v-1C257.1,218.9,256.8,218.8,255.4,219.4ZM186,263.5c-4.5-2.6-9.1-5.2-13.7-7.7l-.9-.6,71.7-27.9v.1l-9.3,6.2-46.1,29.9A1.35,1.35,0,0,1,186,263.5Zm9.8,6.2a2.09,2.09,0,0,0-.8,1.6c-.6,4.8-1.1,9.6-1.7,14.4l-.2,2.2a6.89,6.89,0,0,1-.3-.8c-1.4-6.7-2.7-13.3-4.1-19.9a1.2,1.2,0,0,1,.6-1.4L235.4,236l.7-.4.1.1-6.5,5.5C218.4,250.7,207.1,260.1,195.8,269.7ZM230.7,288,199,270.8l54-45.4.2.1C245.8,246.3,238.3,267.2,230.7,288Z" transform="translate(0 -148.7)" fill="#ef4836"/><path d="M140.8,236,94.3,225.9a.8.8,0,0,0-1,.2c-.3.4-.1.7,0,1,1.6,3,3.1,5.9,4.6,8.9a.85.85,0,0,1,0,.7c-1.9,4.8-3.8,9.5-5.7,14.3-.1.3-.3.7,0,1a.92.92,0,0,0,1,.2l9.1-1.9a4.33,4.33,0,0,1,.5-.1.6.6,0,0,0,.4-.8.62.62,0,0,0-.8-.5.6.6,0,0,0-.4.1l-6.7,1.4-.6.1,6.6-7.7.3.6,8.5,16c.4.8.8.9,1.5.3l29.4-22c.1-.1.3-.1.4-.2l.3-.5C141.7,236.3,141.5,236.1,140.8,236Zm-45.3-7.8-.2-.5,38,8.1h-5.7l-27.8-.2c-.3,0-.5-.2-.7-.5C98,233,96.8,230.6,95.5,228.2Zm6.1,12.4a2,2,0,0,0-.8.4c-1.6,1.9-3.2,3.8-4.7,5.6l-.7.8c0-.1.1-.3.1-.4,1.3-3.2,2.6-6.4,3.8-9.6a.55.55,0,0,1,.6-.4l27.8.3h.4v.1l-4.3.6C116.5,238.9,109,239.8,101.6,240.6Zm9.6,17.5L102.6,242l35.4-4.2.1.1C129.2,244.7,120.3,251.4,111.2,258.1Z" transform="translate(0 -148.7)" fill="#ef4836"/></g><polygon points="1080 71.5 1080 296.3 0 296.3 0 211.8 26.8 268.3 126.9 234.6 126.9 234.6 188.9 213.7 401 142.2 401 142.2 405.7 140.6 405.7 140.6 433.6 131.2 433.6 131.2 437.6 129.9 437.6 129.8 580.1 81.8 756.3 232.3 770 216.8 770 216.8 775.7 210.4 775.7 210.4 784.6 200.4 784.6 200.4 789 195.4 793.9 189.8 798.4 184.8 798.4 184.8 805.6 176.7 805.6 176.6 807.9 174 807.9 174 960.8 0 965.5 2.6 1020.4 34.4 1080 71.5" fill="#ef4836" opacity="0.15" style="isolation:isolate"/><polygon points="580.1 81.8 512.8 296.3 0 296.3 0 211.8 38.1 262.9 126.9 234.6 126.9 234.6 188.9 213.7 401 142.2 401 142.2 405.7 140.6 405.7 140.6 433.6 131.2 433.6 131.2 437.6 129.9 437.6 129.8 580.1 81.8" fill="#d63327" opacity="0.15" style="isolation:isolate"/></svg>