<svg id="Layer_1" data-name="Layer 1" xmlns="http://www.w3.org/2000/svg" viewBox="0 0 1080 431.99"><title>light_sus_5</title><path d="M1080,62.3V445H0V149.3s227.1-327.6,439.5,33C510.8,303.4,583.4,355.4,648.4,371c128.6,31,227.5-80.3,227.5-80.3l14-15.6Z" transform="translate(0 -13.01)" fill="#bf55ec" opacity="0.15" style="isolation:isolate"/><path d="M1080,379.6V445H0V253.9s227.1-327.6,439.5,33C557.1,486.6,617.7,446.6,648.4,371c.4-1,.8-1.9,1.2-3,34.9-89.2,74.1-140.5,114.3-153.5,6.8-2.2,13.6-1.3,20.3,2.4L889.8,275Z" transform="translate(0 -13.01)" fill="#9e42ce" opacity="0.15" style="isolation:isolate"/><g opacity="0.15"><path d="M869,202.9c-.1-.6-2.4-13.8-10.3-19.2.2-4.1-.5-18.2-16.6-41.9-.3-1.7-1.7-10.8,5-14.6a3.36,3.36,0,0,0,1.6-2.9,3,3,0,0,0-2-2.7c-2.6-1.1-10-1.7-19.8,3.5a42.54,42.54,0,0,0-13.6-6.2,1.71,1.71,0,1,0-.9,3.3,37.83,37.83,0,0,1,13.2,6.2,1.82,1.82,0,0,0,2,.2,34.64,34.64,0,0,1,11.7-4.2,15.33,15.33,0,0,1,5.4.1c-3.6,2.4-5.7,6.2-6.3,11.2a23.74,23.74,0,0,0,.4,7.1.86.86,0,0,0,.3.6c9.5,14,13.4,24.3,15,30.6,1.7,6.7,1.2,10.2,1.2,10.2a1.68,1.68,0,0,0,.9,1.8c4.6,2.6,7.2,8.7,8.5,12.9a41.08,41.08,0,0,0-21.4-6.5,21.46,21.46,0,0,1,8-6,2,2,0,0,0,1.1-1.1,1.6,1.6,0,0,0-.2-1.5,100.79,100.79,0,0,0-16-18.2,1.77,1.77,0,0,0-2.4,2.6A103,103,0,0,1,848,184a27.93,27.93,0,0,0-9.9,9.3,1.65,1.65,0,0,0,0,1.9,1.77,1.77,0,0,0,1.7.8c.1,0,13.5-1.9,26.5,8.4a2.1,2.1,0,0,0,1.1.4,2.92,2.92,0,0,0,.9-.2A1.64,1.64,0,0,0,869,202.9Z" transform="translate(0 -13.01)" fill="#bf55ec"/><path d="M831.1,161.8a89.34,89.34,0,0,0-16.1-9.9,21.42,21.42,0,0,1-3.5-7.9,1.68,1.68,0,0,0-2.1-1.3,1.82,1.82,0,0,0-1.4,2.1,26.84,26.84,0,0,0,4.3,9.6.1.1,0,0,0,.1.1c.6.8,1.2,1.6,1.7,2.2.2.3.4.5.6.8-10.7.9-16.1-17.6-16.2-17.8a1.77,1.77,0,1,0-3.4,1,39.23,39.23,0,0,0,2,5.3,87.94,87.94,0,0,0-23.5-2,23.63,23.63,0,0,1-6.5-.3c4.1-.3,10.2-1.3,14.6-4.3a1.73,1.73,0,1,0-1.9-2.9c-3.8,2.6-9.3,3.5-13,3.7a39.82,39.82,0,0,1,4.1-2.3,1.72,1.72,0,0,0,1-1.2c2.1-9,11.9-12.6,12-12.7a47.86,47.86,0,0,1,21.6-2.8,1.71,1.71,0,1,0,.4-3.4,52.1,52.1,0,0,0-23.2,3c-.5.2-11.1,4.1-14,14.3a29.12,29.12,0,0,0-3.2,1.8c-3.1,1.9-4.5,3.5-4.6,5.1v.3a3.89,3.89,0,0,0,1.4,3c1.9,1.8,5.7,2.6,11.4,2.3a80.45,80.45,0,0,1,13.9.5c1,2.4,5,10.9,12.6,14a4.48,4.48,0,0,0,2,.4,4.57,4.57,0,0,0,4.4-3.6,13.05,13.05,0,0,0,7.2,2.3,9.7,9.7,0,0,0,1.7-.1c.7-.1,2.5-.3,3-1.8a2.54,2.54,0,0,0,.2-1.2,84.17,84.17,0,0,1,10.1,6.7,1.5,1.5,0,0,0,1.1.4,1.75,1.75,0,0,0,1.4-.7A2,2,0,0,0,831.1,161.8Zm-28.2-3.2a1.27,1.27,0,0,1-1.2,0c-5-2.1-8.2-7.2-9.8-10.2,2.5.4,4.9.9,7.3,1.5.2.4.5.8.7,1.2a27.17,27.17,0,0,0,2.7,3.7v.1C803,155.8,803.9,158,802.9,158.6Z" transform="translate(0 -13.01)" fill="#bf55ec"/><path d="M785.6,129a2,2,0,1,0,2,2A2,2,0,0,0,785.6,129Z" transform="translate(0 -13.01)" fill="#bf55ec"/></g><g opacity="0.15"><path d="M553.2,45.4a1.47,1.47,0,0,0-1.5,1.5,1.54,1.54,0,0,0,1.5,1.5,1.5,1.5,0,0,0,0-3Z" transform="translate(0 -13.01)" fill="#bf55ec"/><path d="M524.5,82.4a1.5,1.5,0,1,0,1.5,1.5A1.47,1.47,0,0,0,524.5,82.4Z" transform="translate(0 -13.01)" fill="#bf55ec"/><path d="M546.1,67a1.47,1.47,0,0,0-1.5,1.5,13.87,13.87,0,0,1-13.9,13.9,1.5,1.5,0,0,0,0,3,17,17,0,0,0,17-17A1.55,1.55,0,0,0,546.1,67Z" transform="translate(0 -13.01)" fill="#bf55ec"/><path d="M563.8,52.4l-3.9-7.8a9.82,9.82,0,0,0-16.6-1.5L539,48a9.1,9.1,0,0,0-4.8-3.4l-7.8-2.2c-6-1.7-11.8-6.3-16-12.6a1.47,1.47,0,0,0-1.7-.6,1.5,1.5,0,0,0-1.1,1.5V39a38.65,38.65,0,0,0,1.7,11.3,22.87,22.87,0,0,1-3.6.7,43.44,43.44,0,0,1-7.1.6h-12a1.34,1.34,0,0,0-1.3.8,1.53,1.53,0,0,0,0,1.6l9.2,14.8a22.74,22.74,0,0,0,18.2,10.6L497.9,96.2a4.62,4.62,0,0,0,1.5,7.5l8.2,4h.1a4.61,4.61,0,0,0,6-2.6l5.7-13.5h11.3c13,0,24.1-10.6,24.1-23.1V59.2a4.65,4.65,0,0,1,4.6-4.6h3.1a1.71,1.71,0,0,0,1.3-.7A1.59,1.59,0,0,0,563.8,52.4ZM510.6,35.1c4.3,5,9.5,8.6,14.9,10.1l7.8,2.2a5.62,5.62,0,0,1,3.5,2.9l-4.1,4.6-7.2-4.3a15.31,15.31,0,0,0-10.5-2,16.31,16.31,0,0,0-2.8.7,33.86,33.86,0,0,1-1.6-10.5Zm48.8,16.4a7.7,7.7,0,0,0-7.7,7.7v9.3c0,10.9-9.6,20.1-21,20.1H518.4A11.28,11.28,0,0,0,508.1,95l-.3.6a1.57,1.57,0,1,0,2.8,1.4,8.62,8.62,0,0,1,5.4-4.9L511,104h0a1.55,1.55,0,0,1-2,.9c-8.7-4.3-8.2-4-8.3-4.1a1.52,1.52,0,0,1-.5-2.5s3.3-3.7,16.7-18.9a22.75,22.75,0,0,0,15-6.6,1.56,1.56,0,0,0-2.2-2.2,20.07,20.07,0,0,1-15.9,5.7,19.37,19.37,0,0,1-16.6-9.2l-1-1.6,1.1.4a24.72,24.72,0,0,0,22-2.3,1.51,1.51,0,1,0-1.7-2.5,21.45,21.45,0,0,1-19.1,2l-5-1.9-4-6.5h9.2a48.66,48.66,0,0,0,7.6-.6c5.2-.8,7.4-2,9.4-2.3a12.33,12.33,0,0,1,8.4,1.6l12.1,7.3a1.53,1.53,0,0,0,1.6-2.6l-2.2-1.3c10.8-12.2,10.3-11.5,10.3-11.6a6.82,6.82,0,0,1,5.4-2.7,6.55,6.55,0,0,1,6,3.7l2.8,5.5h-.7Z" transform="translate(0 -13.01)" fill="#bf55ec"/></g></svg>