<svg id="Layer_1" data-name="Layer 1" xmlns="http://www.w3.org/2000/svg" viewBox="0 0 1080 445"><title>light_sus_2</title><g opacity="0.15"><path d="M631.4,141.9l-.9-3.3c-.3-.5-.5-1-.8-1.5a14.74,14.74,0,0,0-12.3-8,1.86,1.86,0,0,1-1.5-.9,10,10,0,0,0-9.9-4.4,1,1,0,0,1-1.2-.6c-6.4-9.9-15.4-14.6-27.2-14.2-1.1,0-2.1.2-3.2.3l-4.8,1.2c-.2.1-.4.3-.6.4a28.5,28.5,0,0,0-13.6,10.6l-3.6,5.4c.2.2,0,.2-.1.2-8-1.7-14.5,4.4-13.2,12.5a1.41,1.41,0,0,1-.7,1.5c-6.5,5.1-9.2,11.7-7.5,19.8a19.18,19.18,0,0,0,23.9,14.8c22-5.7,44.1-11.5,66.1-17.3a14.77,14.77,0,0,0,11.1-14.3A16.15,16.15,0,0,0,631.4,141.9Zm-3.8,6.5a9.21,9.21,0,0,1-1.3,2.4,4.35,4.35,0,0,1-.6.7c-.2.2-.4.5-.6.7a7.1,7.1,0,0,1-1.3,1.2,12.89,12.89,0,0,1-3.3,1.7l-.9.3c-.5.1-1,.3-1.5.4-15.9,4.2-31.8,8.3-47.8,12.5l-15.9,4.2c-.5.1-.9.2-1.3.3-.2,0-.5.1-.7.1-.4.1-.9.1-1.3.2a16.85,16.85,0,0,1-9.4-1.7,28.24,28.24,0,0,1-3.1-2.1,16.61,16.61,0,0,1-1.4-1.3,15,15,0,0,1-4.4-12.8,14.16,14.16,0,0,1,.4-2,15.22,15.22,0,0,1,2.7-6.2,21,21,0,0,1,1.4-1.7c.5-.5,1-1,1.6-1.5a18.45,18.45,0,0,1,6.1-3.1c.3-.1.6-.1.9-.2.1,0,.2-.1.3-.1a.76.76,0,0,1,.4-.2c.2-.2.4-.4.4-.6v-.2a1.7,1.7,0,0,0-.1-.7,3.33,3.33,0,0,0-.3-.6l-.3-.3a1.15,1.15,0,0,0-1-.1c-.3.1-.6.1-.9.2-.6.2-1.2.3-1.9.5-.3.1-.7.2-1,.3,0-.2-.1-.5-.1-.7h0a6.55,6.55,0,0,1,.3-2.8,6.94,6.94,0,0,1,.5-1.3h0a10.15,10.15,0,0,1,1.3-1.8l.3-.3a6.42,6.42,0,0,1,1.3-1l.6-.3c.2-.1.3-.2.5-.2s.4-.1.5-.2a2.92,2.92,0,0,1,.9-.2.75.75,0,0,0,.5-.1h1.3a8.75,8.75,0,0,1,1.6.2h0c-.3,2.3-.7,4.6-1,6.8,0,.4-.1.7-.1,1.1v1.2a.37.37,0,0,0,.1.3,2.19,2.19,0,0,0,.3.5l.2.2a1.14,1.14,0,0,0,.8.3,1.48,1.48,0,0,0,.7-.1c.2-.1.3-.2.5-.3s.1-.2.2-.2a1.42,1.42,0,0,0,.2-.6.76.76,0,0,1,.1-.4c.1-.6.1-1.2.2-1.8a34.69,34.69,0,0,1,.6-4.5c.1-.3.1-.6.2-.9.3-1,.6-2,1-3,.3-.7.5-1.3.8-1.9a4.05,4.05,0,0,1,.5-.9,24.94,24.94,0,0,1,3.5-5h0a4.62,4.62,0,0,1,.7-.7,4.62,4.62,0,0,1,.7-.7,26.36,26.36,0,0,1,11.4-6.4,13.56,13.56,0,0,1,2.9-.6l2.3-.3h.1a25.83,25.83,0,0,1,14.5,3.2,14,14,0,0,1,1.6,1,14.31,14.31,0,0,1,1.5,1.1,26.34,26.34,0,0,1,8.3,10.3c.2.4.3.7.5,1.1,0,.1.1.2.2.4a1.48,1.48,0,0,0,1.3.9h.3a.37.37,0,0,0,.3-.1c.2-.1.4-.3.6-.4a.35.35,0,0,0,.1-.2c0-.1.1-.1.1-.2a.6.6,0,0,0,.1-.4,2.2,2.2,0,0,0-.1-.8c0-.2-.1-.3-.2-.5s-.1-.2-.1-.3-.1-.1-.1-.2h0a5,5,0,0,1,2.1.1c.2,0,.4.1.6.1s.3.1.5.2a5.36,5.36,0,0,1,1.1.5h0c.2.1.4.3.6.4a2.65,2.65,0,0,1,.6.5,5,5,0,0,1,.7.8h0l-.9.3a8.65,8.65,0,0,0-1.7.7,12,12,0,0,0-3.8,2.5c-.1.1-.2.2-.2.3h0c-.1.2-.2.3-.3.5s-.1.3-.1.4v.3c0,.2.1.3.2.5l.3.3c.1.1.2.2.3.2l.1.1a2.3,2.3,0,0,0,1.4-.2h0c.1,0,.2-.1.3-.2s.4-.3.6-.5a13.29,13.29,0,0,1,4.1-2.1c.2-.1.4-.1.6-.2h.2a11.91,11.91,0,0,1,10.7,3l.3.3a12,12,0,0,1,2.9,5,4.53,4.53,0,0,1,.3,1.6A12.29,12.29,0,0,1,627.6,148.4Z" fill="#22a7f0"/><path d="M575.6,206a10.59,10.59,0,0,1-1.2-1c-1,.3-1.4.2-1.7-.4s-.1-.9,1.2-1.7c-.5-.4-.9-.8-.5-1.5s.9-.6,1.6-.4c.2-.5.4-1,.6-1.6-.6,0-1-.1-1.6-.1-.1.7-.3,1.3-1.1,1.3s-.9-.5-1-1.2c-.6.5-1.2,1.4-2.1.5-.7-.7-.1-1.2.3-1.8-.7-.9-.8-1.4-.3-1.8s1-.4,2.1.7c.2-.6.5-1.2,1.3-1.1s.8.7.8,1.3c.5,0,1,.1,1.5.1-.1-.6-.3-1-.4-1.6-.6.1-1.2.1-1.5-.6a1.17,1.17,0,0,1,.7-1.4c-1.2-.9-1.4-1.2-1-1.8s.9-.6,1.8-.1c.4-.6.8-1.2,1.7-.8.6.3.6.8,0,2.1.6,0,1.2.1,1.3.9s-.3,1-1,1.2c.1.5.3,1,.4,1.6.5-.3.9-.6,1.4-.9-.3-.6-.4-1.2.1-1.6s1-.1,1.5.2c.6-1.4.9-1.6,1.5-1.4s.8.6.6,1.7c.7.2,1.4.5,1.2,1.4-.2.6-.6.7-1.8.6.1.6.1,1.2-.6,1.4a1.12,1.12,0,0,1-1.4-.7,13,13,0,0,0-1.5,1c.5.4.9.7,1.3,1,.5-.5,1-.9,1.6-.4s.5,1,.1,1.6c.8.1,1.8-.3,2,.9.1.6-.2.8-1.3,1.2-.2.5-.3,1-.5,1.4-.3.1-.6.1-.8.2-.8-.3-.9-1-.9-1.8-.6.4-1.1.6-1.6.2s-.3-1.1.1-1.6a15,15,0,0,0-1.3-1.1c-.2.6-.4,1-.6,1.5.1,0,.1,0,.2-.1.2.4.6.9.6,1.3,0,.8-.7.9-1.3.9.4,1.3.4,1.3,0,2C576.1,205.9,575.8,205.9,575.6,206Z" fill="#22a7f0"/><path d="M591.3,179.3l-1.2-.9a1.13,1.13,0,0,1-.2-1.6,1.06,1.06,0,0,1,1.6-.3,14.63,14.63,0,0,1,1.3.9c.4.2.9.4,1.3.6.1-.1.2-.2.2-.3a5.5,5.5,0,0,0-.7-.9c-.4-.3-.9-.5-1.3-.8a1.21,1.21,0,1,1,1.2-2.1c.3.2.7.4,1.1.7a6.22,6.22,0,0,1,.8-1.2,1.19,1.19,0,0,1,1.6-.5,1.25,1.25,0,0,1,.5,1.7,14.8,14.8,0,0,1-.8,1.3c-.1.3-.1.7-.2,1.1.1,0,.2.1.3.1l.9-1.2a7.54,7.54,0,0,0,.6-1.3,1.17,1.17,0,0,1,1.6-.6,1.22,1.22,0,0,1,.6,1.7c-.2.4-.3.8-.5,1.2l1.2.6a1.15,1.15,0,0,1,.6,1.6,1.17,1.17,0,0,1-1.6.5L599,179a1.73,1.73,0,0,0-1,.1c.6.9,1.1,1.8,2.5,1.3a1.12,1.12,0,0,1,1.6.9c.1.7-.3,1.2-1.2,1.4-.2,0-.3.1-.6.2,0,.2.1.5.1.7.1.8-.2,1.4-.9,1.5A1.32,1.32,0,0,1,598,184c-.2-1-.3-2-1.4-2.5a2.43,2.43,0,0,0-.1,2.2c.5,1.4.3,2-.4,2.3s-1.3-.1-1.8-1.4l-.1-.1a2.92,2.92,0,0,1-.9.2,1.07,1.07,0,0,1-1.3-.8,1.11,1.11,0,0,1,.5-1.4c.1-.1.3-.1.4-.2,1.4-.6,1.4-.6,1.6-2.4-.4.2-.8.3-1,.6a10.47,10.47,0,0,0-.8,1.1,1.19,1.19,0,0,1-1.7.3,1.16,1.16,0,0,1-.2-1.7C590.7,180.1,591,179.7,591.3,179.3Z" fill="#22a7f0"/><path d="M555.4,181.9c-.3-2-.2-2.7.8-2.9s1.5.2,2.1,2a14.19,14.19,0,0,1,2.2-.5c.3,0,.6.3.8.6.6.8.2,1.5-1.3,2.7.8.9,2.2,1.6.9,3-.6.7-1.4.5-2.8-.5-.5,1-.8,2.3-2.4,1.8-.9-.3-1-1-.6-3-1.1-.2-2.5-.1-2.4-1.8C552.9,182.2,553.6,181.9,555.4,181.9Z" fill="#22a7f0"/><path d="M614.5,189.2c1.6-.9,2.3-.9,2.9-.1s.3,1.4-1.2,2.8c.8.8,2.1,1.6.9,3-1,1.1-1.9.2-2.8-.4-1,1.8-1.5,2.2-2.4,1.8-1.6-.7-.9-1.9-.6-3-2.1-.5-2.5-.9-2.5-1.8s.6-1.2,2.5-1.4c-.3-2.1-.1-2.6.9-2.9S613.7,187.3,614.5,189.2Z" fill="#22a7f0"/><path d="M541.5,138.7a7.1,7.1,0,0,1,2.1-6.6,7.45,7.45,0,0,1,7.6-2.1c-.3,2.3-.7,4.6-1,6.8a12.1,12.1,0,0,0-.1,1.9,1.51,1.51,0,1,0,3,.1,59.33,59.33,0,0,1,1-7.2,26.49,26.49,0,0,1,49.7-4l.6,1.5a1.46,1.46,0,0,0,1.9.8,1.51,1.51,0,0,0,.8-2,10.37,10.37,0,0,1-.4-1,6.6,6.6,0,0,1,6.2,2.6,14.39,14.39,0,0,0-6.4,3.5,2.33,2.33,0,0,0-.7,1.4,1.59,1.59,0,0,0,.9,1.2,2.09,2.09,0,0,0,1.7-.4,13.46,13.46,0,0,1,5.6-2.8,11.93,11.93,0,0,1,6.5,22.9,21.72,21.72,0,0,1-2.4.7c-21.2,5.6-42.5,11.1-63.7,16.7-5.8,1.5-11.1.7-15.7-3.2a15.53,15.53,0,0,1-5.4-16.1c1.4-6.4,5.4-10.5,11.7-12.4.4-.1.8-.2,1.1-.3a1.5,1.5,0,0,0,.8-1.8,1.33,1.33,0,0,0-1.7-1A17.59,17.59,0,0,0,541.5,138.7Z" fill="#22a7f0"/></g><g opacity="0.15"><path d="M242.7,165.8a19.8,19.8,0,0,0-2.6.6,15.21,15.21,0,0,0-5.6,3A8.71,8.71,0,0,0,221,172a5.72,5.72,0,0,0-7.6,7.3,24,24,0,0,0-2.8,2.7,8.23,8.23,0,0,0-.9,9,8.13,8.13,0,0,0,7.7,4.8c13.1,0,26.2-.1,39.4-.3a6,6,0,0,0,3.7-1.7,8.59,8.59,0,0,0-1.4-14.3.89.89,0,0,1-.5-.8A14.08,14.08,0,0,0,246,165.9c-.2,0-.3-.1-.5-.1Z" fill="#22a7f0"/><path d="M246.1,201.9c0,1.3-.1,2.5,0,3.7a56.1,56.1,0,0,0,.6,5.9,3.71,3.71,0,0,0,4.1,3.2,3.87,3.87,0,0,0,3.7-3.5,3.57,3.57,0,0,0-1.1-3.2c-1.5-1.4-3.1-2.8-4.7-4.1C247.9,203.2,247,202.6,246.1,201.9Z" fill="#22a7f0"/><path d="M227.6,198a60.45,60.45,0,0,0,.8,9.7,3.83,3.83,0,0,0,4.4,3.2,3.88,3.88,0,0,0,3.4-4.2,3.34,3.34,0,0,0-1.2-2.5c-1.8-1.6-3.6-3.2-5.5-4.7C229,199,228.3,198.6,227.6,198Z" fill="#22a7f0"/><path d="M272.1,158.7c1.2.3,2.5.5,3.7.8a20.48,20.48,0,0,1,7.7,4.1,11.93,11.93,0,0,1,10.2-2.8,11.75,11.75,0,0,1,8.4,6.3c3.3-1.2,6.3-.8,8.7,1.7a7.46,7.46,0,0,1,1.8,8.4,33.42,33.42,0,0,1,3.8,3.7,11.4,11.4,0,0,1,1.2,12.5,11.28,11.28,0,0,1-10.6,6.7c-18.1,0-36.3-.2-54.4-.4-2,0-3.6-1.1-5.1-2.3a11.92,11.92,0,0,1,1.9-19.8c.5-.3.7-.5.7-1.1.5-9.1,8-16.6,17.4-17.7a1.85,1.85,0,0,0,.7-.2C269.5,158.7,270.8,158.7,272.1,158.7Z" fill="#22a7f0"/><path d="M267.3,208.7c0,1.7.1,3.4,0,5.1a76.12,76.12,0,0,1-.9,8.2,5.26,5.26,0,0,1-5.6,4.5,5.37,5.37,0,0,1-5.1-4.9,5.12,5.12,0,0,1,1.5-4.4c2.1-2,4.3-3.9,6.5-5.7C264.9,210.5,266.1,209.6,267.3,208.7Z" fill="#22a7f0"/><path d="M293,203.3c-.2,4.6-.2,9.1-1.1,13.4a5.44,5.44,0,0,1-6.1,4.5,5.65,5.65,0,0,1-4.8-5.8,5,5,0,0,1,1.6-3.5c2.5-2.2,5-4.4,7.6-6.5C291,204.7,291.9,204.1,293,203.3Z" fill="#22a7f0"/></g><polygon points="966.5 445 966.4 445 0 445 0 178 271.7 410.1 274 411.6 287.1 420.4 288.6 421.4 292.2 423.8 296.3 421.4 297.6 420.6 310.9 412.5 313.2 411.1 671 226.7 671.2 226.6 725.9 193.4 966.5 445" fill="#22a7f0" opacity="0.15" style="isolation:isolate"/><polygon points="1080 360.5 1080 445 519 445 671 226.9 671.2 226.6 829.1 0 1080 360.5" fill="#1b97ce" opacity="0.15" style="isolation:isolate"/></svg>