<svg id="Layer_1" data-name="Layer 1" xmlns="http://www.w3.org/2000/svg" viewBox="0 0 190.08 176.4"><title>icon_3</title><path d="M46.8,100a2,2,0,0,1,1.9,2.2,1.92,1.92,0,0,1-2.2,1.9,2.2,2.2,0,0,1-2.1-2.2A2.58,2.58,0,0,1,46.8,100Z" transform="translate(-17.4 -24.3)" fill="#1bbc9b"/><path d="M81.2,93.3a2.17,2.17,0,0,1,2.2,1.9h0a2.27,2.27,0,0,1-2.2,2.1,2.15,2.15,0,0,1-2.1-1.9,2.18,2.18,0,0,1,2.1-2.1Z" transform="translate(-17.4 -24.3)" fill="#1bbc9b"/><circle cx="68.8" cy="75.8" r="2.1" fill="#1bbc9b"/><path d="M92.8,49.5a2,2,0,0,1,2.1,1.7v.3a2,2,0,0,1-2.1,1.9,2.19,2.19,0,0,1-2.2-2.1h0a2.27,2.27,0,0,1,2.2-1.8Z" transform="translate(-17.4 -24.3)" fill="#1bbc9b"/><path d="M95.4,47.9a1.88,1.88,0,0,1-2.2-1.7V46a2.1,2.1,0,0,1,4.2,0,2.14,2.14,0,0,1-2,1.9Z" transform="translate(-17.4 -24.3)" fill="#1bbc9b"/><path d="M37.3,86.5h0c2.2-4.8,4.3-9.4,6.7-13.8a52.31,52.31,0,0,1,4.1-6.3c1.3-1.9,2.7-1.9,4,0L53.2,68a24,24,0,0,0,.5-4.6c-.3-3.7,1.6-6.2,4.1-8.7a111,111,0,0,1,28.7-19c3.3-1.7,7-3,10.5-4.6,1.6-.6,2.9-.3,3.3.8.5,1.3-.2,2.2-1.7,2.9A119.76,119.76,0,0,0,67,52a105.46,105.46,0,0,0-7.9,7.1A3.86,3.86,0,0,0,58,61.3c-.5,3.5-.6,7.1-1,10.6l-.2,1.3c-.2,1.1-.5,2.1-1.6,2.2a2.1,2.1,0,0,1-2.4-1.3c-1-1.4-1.9-2.7-2.9-4a93.33,93.33,0,0,0-8.3,15.6,11.5,11.5,0,0,0-.6,1.7,2,2,0,0,1-2.5,1.3h-.2C37.4,88.7,37,87.6,37.3,86.5Z" transform="translate(-17.4 -24.3)" fill="#1bbc9b"/><path d="M103.6,49a2.18,2.18,0,0,1,2.1-2.1h0a2,2,0,0,1,2.1,1.9V49a2,2,0,0,1-2.2,1.9h0A2,2,0,0,1,103.6,49Z" transform="translate(-17.4 -24.3)" fill="#1bbc9b"/><path d="M123,61.9a2.1,2.1,0,0,1-2.4-1.6,2.05,2.05,0,0,1,1.6-2.4h.5a2.17,2.17,0,0,1,2.2,1.9h0A2,2,0,0,1,123,61.9Z" transform="translate(-17.4 -24.3)" fill="#1bbc9b"/><path d="M50.1,133.3c-5.2,1.7-11,3.3-16.3,4.9-.5.2-1,.5-1.1,1-3.7,6.8-7.3,13.6-11,20.3a5.82,5.82,0,0,0-.5,1.1,1.8,1.8,0,0,1-2.4,1h-.2a1.68,1.68,0,0,1-1.1-2.2c0-.2,0-.2.2-.3a51.14,51.14,0,0,1,2.2-4.8c3.5-6.2,7-12.5,10.3-18.7a4,4,0,0,0,.5-2.2A119.82,119.82,0,0,1,34,96.6c.5-1.6,1.3-2.4,2.5-2.1s1.7,1.4,1.3,3a107.15,107.15,0,0,0-3.5,29.4v1.9l1.4-2.1a261,261,0,0,1,70.8-70.9c5.1-3.3,10.5-6.5,15.7-9.7a1.33,1.33,0,0,1,.5-.3,2.2,2.2,0,0,1,2.9.6h0a2,2,0,0,1-.8,2.7.2.2,0,0,0-.2.2c-2.9,1.7-5.9,3.3-8.7,5.2a246.9,246.9,0,0,0-57.6,49.4,279.8,279.8,0,0,0-21.1,27.9,9.13,9.13,0,0,0-.8,1.3l.3.5L63,124.9a18.39,18.39,0,0,1-1.9-4,2.9,2.9,0,0,1,.2-2.4c.5-1,1.4-1,2.4-.6,2.2.8,4.4,1.4,6.7,2.4a3.64,3.64,0,0,0,3.5-.2,13.82,13.82,0,0,1,2.4-1.1c-1.4-1.1-2.9-2.2-4.3-3.3a2,2,0,0,1-1.1-2.7c.5-1.3,1.4-1.4,2.5-1.3,4.6.3,9.4.6,14,.8a7.53,7.53,0,0,0,2.9-.6c5.6-3.5,11.1-7.1,16.7-10.6l.3-.3c1.4-1,2.5-1,3.3.2.8,1,.5,2.2-1,3.2-2.4,1.6-4.6,3.3-7.1,4.9-3.7,2.4-7.5,4.6-11.3,6.8a4.55,4.55,0,0,1-3,.6c-3,0-5.9-.3-9.2-.5a13,13,0,0,0,1.9,1.7,1.86,1.86,0,0,1,.5,2.7,2.72,2.72,0,0,1-1,.8,50.19,50.19,0,0,1-7.5,3.3,4.11,4.11,0,0,1-2.2,0,27.55,27.55,0,0,1-4-1.4,9.29,9.29,0,0,0,.5,1c.8,1.7.5,2.7-1.4,3.5C60.8,129.6,55.5,131.7,50.1,133.3Z" transform="translate(-17.4 -24.3)" fill="#1bbc9b"/><path d="M105.5,30.3a1.94,1.94,0,0,1,1.3-2.5c.2,0,.5-.2.6-.2,4.8-1,9.4-1.9,14.1-2.7,1.6-.3,3.2-.3,4.6-.6l9.5.2c2.7.3,5.6.6,8.3,1.1,2.2.5,4.3,1.1,6.5,1.6a3.22,3.22,0,0,1,2.7,3.2A40.35,40.35,0,0,1,147.9,58a38.86,38.86,0,0,1-19,16.8,3.83,3.83,0,0,1-1.1.5l4.8,1.6c2.5.8,3,2.1,1.3,4.1A123.81,123.81,0,0,1,118,97.5l-.3.3c-1.1,1-2.2,1-3,0a2,2,0,0,1,.5-3c2.4-2.1,4.8-4.3,7-6.3,2.5-2.5,4.9-5.2,7.6-8.1L121.9,78l-1.6-.5a2.25,2.25,0,0,1-1.9-2.2c.2-1.3,1-1.6,1.9-1.9a62.76,62.76,0,0,0,7-2.2,37.14,37.14,0,0,0,22.1-36.8c-.3-4,.2-3.2-3.7-4-11.6-2.7-23-1.9-34.6.6-1,.2-1.9.5-2.9.8C106.8,31.9,105.8,31.4,105.5,30.3Z" transform="translate(-17.4 -24.3)" fill="#1bbc9b"/><path d="M206.8,151.9a90.05,90.05,0,0,0-15.2-11.4c-3.5-1.9-7-4.1-10.5-5.9-3.7-1.7-7.3-3.2-11.1-4.8a81.34,81.34,0,0,0-12.7-4,84.36,84.36,0,0,0-13.2-2.1,67.55,67.55,0,0,0-16.2.2c-3,.5-6,1-8.9,1.4a53.64,53.64,0,0,0-12.5,4c-9.5,4-17.3,9.8-22.7,18.7a77.61,77.61,0,0,0-4.4,9.2,1.64,1.64,0,0,0-.2,1c-.6,2.9-1.1,5.9-1.7,8.9a28.41,28.41,0,0,1-4.9-1A99.55,99.55,0,0,1,61,161a67.86,67.86,0,0,1-7.6-5.2l-.2-.2a1.84,1.84,0,0,0-2.5.2c-.8.8-1.1,1.9-.2,2.7,2.9,2.1,5.7,4.1,8.6,6a21.54,21.54,0,0,0,4.9,2.7c3.7,1.3,7.5,2.4,11.1,3.7a11,11,0,0,0,1.6.3c.5.2.8.3,1,.8a49.4,49.4,0,0,0,1.9,4.9,31.32,31.32,0,0,0,9,11.1,59,59,0,0,0,13.5,7.9,78.3,78.3,0,0,0,12.5,3.8,36.91,36.91,0,0,0,16.2.2,48,48,0,0,0,9.8-2.9,59.85,59.85,0,0,0,19.2-13,143.85,143.85,0,0,0,10.3-11.9,52.66,52.66,0,0,1,11.3-10.8c6.8-4.8,14.9-5.9,23-5.4,1.3,0,2.1,0,2.7-1.3S207.6,152.5,206.8,151.9ZM81.7,167.1a38.5,38.5,0,0,1,5.2-16.5,46.51,46.51,0,0,1,11.6-12.2,47.17,47.17,0,0,1,15.6-7.6c2.9-.8,5.9-1.4,8.7-2.1a59.81,59.81,0,0,1,17.9-1.1,86.43,86.43,0,0,1,13.3,1.7c4.4,1.1,8.7,2.2,13,3.7,3.8,1.3,7.5,3,11.1,4.6a87.58,87.58,0,0,1,16.2,9.4l-19-4.1a26.92,26.92,0,0,1,3.2-1.3c.8-.3,1.7-.5,1.3-1.6s-1-1.1-2.1-.8a12,12,0,0,0-5.7,3.5,2.86,2.86,0,0,1-1.7.5c-4,.5-8.1.8-12.2,1.3-1.9.5-3.8,1-5.7,1.6l-.3-.3,4.1-5.6c.3-.3.8-.8.8-1.1a2.39,2.39,0,0,0-.5-1.4c-.2-.2-.8,0-1.1.2a3.25,3.25,0,0,0-1.3,1c-1.6,2.5-4,4.4-4.9,7.5a3,3,0,0,1-1.7,1.6c-4.9,2.2-9.8,4.3-14.8,6.3-2.9,1.3-5.6,2.5-8.6,3.7a19.86,19.86,0,0,1,3.3-8.1c1.4-1.9,3-3.7,4.4-5.4.6-.8,1.1-1.7.2-2.5s-1.4,0-2.1.5A25.48,25.48,0,0,0,124,150a39.14,39.14,0,0,0-2.9,8.1c-.5,1.9-2.1,1.9-3.2,2.5-3.2,1.4-6.3,2.4-9.5,3.7l-7.3,2.5-.5-.5c1-2.5,2.1-4.9,3.3-7.3,1.9-3.2,4.3-6.2,6.5-9.4a1.71,1.71,0,0,0,0-1.7c-.2-.2-.2-.3-.3-.3a1.2,1.2,0,0,0-1.6.3,64.09,64.09,0,0,0-6,8.7c-1.9,3.3-3.2,7.1-4.9,10.5a3.37,3.37,0,0,1-2.7,1.3,38.38,38.38,0,0,1-12.2.5C81.9,168.7,81.6,168,81.7,167.1Zm110.2-14.4a37.42,37.42,0,0,0-16,8.1,73.61,73.61,0,0,0-6.3,6.2c-3,3.5-5.9,7.1-8.9,10.6a36.51,36.51,0,0,1-5.2,5.2c-4.3,3.5-8.4,7.1-13.6,9.4a48.32,48.32,0,0,1-12.9,4,37.75,37.75,0,0,1-17-1.3c-3.8-1.3-7.8-2.9-11.4-4.4a37,37,0,0,1-14.9-11.3,17.89,17.89,0,0,1-3.5-7.8H92.5a1.9,1.9,0,0,1,1.3.5c2.2,1.9,4.3,3.8,6.5,5.6a45.74,45.74,0,0,0,11.7,6.3c1.3.5,2.5.6,3.8,1,1,.3,1.6.2,1.9-.8s-.3-1.4-1.3-1.7c-1.7-.5-3.5-1-5.2-1.6a55,55,0,0,1-14.1-8.9,2,2,0,0,0-1.1-.6l.2-.5a30.23,30.23,0,0,0,3.5-.8c5.1-1.7,10-3.5,15.1-5.2a1.81,1.81,0,0,1,1.3.3c1.6,1.1,3,2.1,4.6,3.2a34.91,34.91,0,0,0,9,3.7,10.53,10.53,0,0,0,4,.3c.5,0,1-.8,1.4-1.1a8,8,0,0,0-1.4-1.3c-5.2-.8-10.2-2.2-14.3-5.6a6,6,0,0,1-.8-.8,2.41,2.41,0,0,1,.8-.6c6.7-2.9,13.2-5.6,19.8-8.4a1.79,1.79,0,0,1,2.4.5,20.35,20.35,0,0,0,11.9,4.9c1,0,1.6-.2,1.7-1.3s-.5-1.4-1.6-1.4a8.66,8.66,0,0,1-3.2-.6c-2.5-1-5.4-1.4-7.5-3.8q3.15-1.2,5.7-2.4a57.56,57.56,0,0,1,13.6-4,6.7,6.7,0,0,1,4.3,1c3.3,1.4,6.5,2.9,9.8,4.3.8.3,1.7.3,2.1-.8s-.3-1.6-1.3-1.9c-2.4-1-4.8-1.7-7.1-2.7,4.6-1.6,23.2,2.4,27.6,5.6C195.8,152.2,193.8,152.2,191.9,152.7Z" transform="translate(-17.4 -24.3)" fill="#1bbc9b"/></svg>