<svg id="Layer_1" data-name="Layer 1" xmlns="http://www.w3.org/2000/svg" viewBox="0 0 189.9 186.32"><title>icon_6</title><path d="M41.2,188.9v2.2a1.74,1.74,0,0,1-1.9,1.7H37.1a1.69,1.69,0,0,1-1.7-1.7v-2.2a1.69,1.69,0,0,1,1.7-1.7h2.2A1.59,1.59,0,0,1,41.2,188.9Z" transform="translate(-17.5 -19.37)" fill="#1bbc9b"/><path d="M60.1,175.7v-2.5a1.69,1.69,0,0,1,1.7-1.7h2.5a1.69,1.69,0,0,1,1.7,1.7v2.5a1.69,1.69,0,0,1-1.7,1.7H61.8A1.63,1.63,0,0,1,60.1,175.7Z" transform="translate(-17.5 -19.37)" fill="#1bbc9b"/><path d="M84.6,185.7h0v8.7l-3,4.9-2.9,1.9a1.82,1.82,0,0,1-2.2-.2,6,6,0,0,0-8.7.2,5.91,5.91,0,0,0-1.6,2.9,2,2,0,0,1-1.7,1.4H61.6a1.72,1.72,0,0,1-1.7-1.4,12.23,12.23,0,0,0-10.8-10.8,1.9,1.9,0,0,1-1.4-1.7V189a1.87,1.87,0,0,1,1.7-1.9h.2A19,19,0,0,1,62.8,195a1.77,1.77,0,0,0,2.4.5,12.15,12.15,0,0,1,10.9-1.6,1.75,1.75,0,0,0,2.2-1.3V186a1.69,1.69,0,0,1,1.7-1.7h2.5A1.55,1.55,0,0,1,84.6,185.7Z" transform="translate(-17.5 -19.37)" fill="#1bbc9b"/><path d="M91.1,156.9V139.5a2.18,2.18,0,0,1,2.1-2.1h2.1a2.18,2.18,0,0,1,2.1,2.1v17.4a2,2,0,0,1-2.1,2.1H93.2A2.11,2.11,0,0,1,91.1,156.9Z" transform="translate(-17.5 -19.37)" fill="#1bbc9b"/><path d="M95.4,189.8H92.5a1.7,1.7,0,0,1-1.6-1.4v-.3a12.12,12.12,0,0,0-11.7-10.5H74.3a1.69,1.69,0,0,1-1.7-1.7h0V173a1.6,1.6,0,0,1,1.6-1.7c9.2-.8,17,1.6,21.4,10.8a20.51,20.51,0,0,1,1.6,5.5,1.84,1.84,0,0,1-1.3,2.1A.9.9,0,0,1,95.4,189.8Z" transform="translate(-17.5 -19.37)" fill="#1bbc9b"/><path d="M99.2,168.1a1.84,1.84,0,0,1-1.9-1.9V164a1.84,1.84,0,0,1,1.9-1.9h2.2a1.84,1.84,0,0,1,1.9,1.9v2.2a1.9,1.9,0,0,1-1.9,1.9Z" transform="translate(-17.5 -19.37)" fill="#1bbc9b"/><path d="M109.5,124.1v1.4a2.16,2.16,0,0,1-2.2,2.2h-1.6a2.16,2.16,0,0,1-2.2-2.2v-1.4a2.16,2.16,0,0,1,2.2-2.2h1.6A2.29,2.29,0,0,1,109.5,124.1Z" transform="translate(-17.5 -19.37)" fill="#1bbc9b"/><path d="M103.5,137.2a3,3,0,0,1,6,0v3a3,3,0,0,1-6,0Z" transform="translate(-17.5 -19.37)" fill="#1bbc9b"/><path d="M109.7,174.8v10.8a2.16,2.16,0,0,1-2.2,2.2h-1.6a2.16,2.16,0,0,1-2.2-2.2V174.8a2.16,2.16,0,0,1,2.2-2.2h1.6A2.16,2.16,0,0,1,109.7,174.8Z" transform="translate(-17.5 -19.37)" fill="#1bbc9b"/><path d="M118.6,133.9v1a2.48,2.48,0,0,1-2.5,2.5h-1a2.48,2.48,0,0,1-2.5-2.5v-1a2.48,2.48,0,0,1,2.5-2.5h1A2.54,2.54,0,0,1,118.6,133.9Z" transform="translate(-17.5 -19.37)" fill="#1bbc9b"/><path d="M116.8,174.3h-1.9a2.18,2.18,0,0,1-2.1-2.1v-8.1a2.18,2.18,0,0,1,2.1-2.1h1.9a2.18,2.18,0,0,1,2.1,2.1v8.1A2.34,2.34,0,0,1,116.8,174.3Z" transform="translate(-17.5 -19.37)" fill="#1bbc9b"/><path d="M118.9,152v1.7a2.18,2.18,0,0,1-2.1,2.1h-1.9a2.18,2.18,0,0,1-2.1-2.1V152a2.18,2.18,0,0,1,2.1-2.1h1.7A2,2,0,0,1,118.9,152Z" transform="translate(-17.5 -19.37)" fill="#1bbc9b"/><path d="M21.3,71l-3.8-4.1v-.3a6.53,6.53,0,0,0,1.6-1.3C33.6,50.7,48.4,36,62.9,21.4c2.7-2.7,3.8-2.7,6.5,0L84.1,36.1a.78.78,0,0,0,1.1,0l1-.8L97.6,23.9c1.9-1.7,3.5-1.9,5.2-.2,7,6.8,13.9,13.8,20.8,20.8.2.2.3.3.3.5s0,.5-.2.6h0l-3.3,3.2a.78.78,0,0,1-1.1,0c-6-6-11.9-12-17.9-18.1a.78.78,0,0,0-1.1,0L90.2,40.9a.78.78,0,0,0,0,1.1h0l5.5,5.2a.78.78,0,0,1,0,1.1h0l-3.2,3a.78.78,0,0,1-1.1,0l-.2-.2L67,27.6a.78.78,0,0,0-1.1,0L22.4,71a.65.65,0,0,1-1.1,0Z" transform="translate(-17.5 -19.37)" fill="#1bbc9b"/><path d="M116.2,184v-.6c1.1-4.8,6-8.4,12-8.9a2.73,2.73,0,0,1,3,2.5v.8a3,3,0,0,1-2.7,2.9,6.12,6.12,0,0,0-6.2,4.3,2.67,2.67,0,0,1-2.5,1.9H119A2.88,2.88,0,0,1,116.2,184Z" transform="translate(-17.5 -19.37)" fill="#1bbc9b"/><path d="M134.2,188.7v6a1.58,1.58,0,0,1-1.6,1.6h-3.5a9.59,9.59,0,0,0-9.2,4.8,3.13,3.13,0,0,1-4.1,1.3,2.73,2.73,0,0,1-1.3-1.3c-4.4-6.3-10.9-6.7-15.8-.8a1.6,1.6,0,0,1-1.9.5l-2.7-1.4a1.55,1.55,0,0,1-.6-2.2h0c4.1-7.8,14.7-9.3,23-3.5a1.66,1.66,0,0,0,2.1,0,15,15,0,0,1,8.6-3.5,1.82,1.82,0,0,0,1.4-1.4,1.55,1.55,0,0,1,1.6-1.4h2.9C133.6,187.1,134.2,187.8,134.2,188.7Z" transform="translate(-17.5 -19.37)" fill="#1bbc9b"/><path d="M139.3,180.5a1.69,1.69,0,0,1-1.7-1.7v-2.5a1.69,1.69,0,0,1,1.7-1.7h2.4a1.69,1.69,0,0,1,1.7,1.7v2.5a1.69,1.69,0,0,1-1.7,1.7Z" transform="translate(-17.5 -19.37)" fill="#1bbc9b"/><path d="M162.4,193.5l1.4,6a6.75,6.75,0,0,0-4.8,6,.2.2,0,0,1-.2.2h-5.1a2.09,2.09,0,0,1-1-.8c-1.9-5.9-6.3-7.1-11.3-2.9h-.2l-4.6-3.3v-.2c4-6.3,12.4-6.8,19-1.1h.2A15.19,15.19,0,0,1,162.4,193.5Z" transform="translate(-17.5 -19.37)" fill="#1bbc9b"/><path d="M176.5,194.7v2.7a1.58,1.58,0,0,1-1.6,1.6h-2.7a1.58,1.58,0,0,1-1.6-1.6v-2.7a1.58,1.58,0,0,1,1.6-1.6h2.7A1.58,1.58,0,0,1,176.5,194.7Z" transform="translate(-17.5 -19.37)" fill="#1bbc9b"/><path d="M206.3,96.5a1.82,1.82,0,0,1,0,2.7h0l-1.7,1.6a2,2,0,0,1-2.7-.2l-3.8-4.3a2,2,0,0,0-2.7-.2h0l-17.3,17.3c-2.7,2.7-3.8,2.7-6.5,0l-10.9-10.9a1.82,1.82,0,0,0-2.7,0l-.2.2a2.91,2.91,0,0,1-1.1,1.1l-9.5,9.5a7.55,7.55,0,0,1-5.4,2.2,10.55,10.55,0,0,0-2.5.2c-3.2.6-4.8,3.2-4.8,7v43.6a1.9,1.9,0,0,1-1.9,1.9h-2.4a1.84,1.84,0,0,1-1.9-1.9h0V126.2a27.88,27.88,0,0,1,.6-8.2,2,2,0,0,0-1.3-2.4c-.2,0-.3-.2-.6-.2H94.6a17.45,17.45,0,0,0-5.5.8,5.34,5.34,0,0,0-4.4,6v40.7a1.84,1.84,0,0,1-1.9,1.9H80.3a1.84,1.84,0,0,1-1.9-1.9h0V122.8a32,32,0,0,1,1.3-6.3,2,2,0,0,0-.3-1.7c-4-4.1-7.9-8.1-12-12.2a1.82,1.82,0,0,0-2.7,0L53.8,113.5c-2.7,2.7-4.1,2.7-6.5-.2C42.5,107.9,38,102.4,33.2,97a1.82,1.82,0,0,0-2.7-.2l-.4.2-7,7.3a1.82,1.82,0,0,1-2.7,0l-1.9-1.9.2-3c2.7-2.5,5.2-5.1,7.9-7.6l2.5-2.5c2.1-2.1,3.6-2.1,5.7.2,4.9,5.5,9.7,11.3,14.6,17l.2.2a2,2,0,0,0,2.7.2h.2l9.7-9.7,1.6-1.6c1.9-1.7,3.5-1.7,5.2,0l14.7,14.7a2.66,2.66,0,0,0,3.2.8,26.9,26.9,0,0,1,7.4-1.4c15.5-.2,30.9,0,46.4,0a4,4,0,0,0,3-1.3L156.1,96c2.5-2.5,3.8-2.5,6.2,0l11.1,11.1a1.82,1.82,0,0,0,2.7,0l.2-.2,17.3-17.4c2.2-2.2,3.5-2.2,5.7,0Z" transform="translate(-17.5 -19.37)" fill="#1bbc9b"/><path d="M99.2,81.3l44.4-44.4c2.4-2.4,3.6-2.4,6,0l13.3,13.3a3,3,0,0,0,4.4,0l.2-.2c3.5-3.6,7-7.1,10.6-10.6a3.08,3.08,0,0,1,4.4-.6l.5.5,24.2,24.2c0,.2.2.2.2.3l-2.1,2.1a3,3,0,0,1-4.4,0L183,48a2.86,2.86,0,0,0-4.3,0h0l-6.8,6.8a3,3,0,0,0-.2,4.3h.2l2.4,2.2a3,3,0,0,1,0,4.4h0l-.2.2a3.11,3.11,0,0,1-4.3-.2L147.6,43.5a1.57,1.57,0,0,0-2.2,0h0L104.5,84.4a3.21,3.21,0,0,1-4.3,0l-1.1-1.1A1.53,1.53,0,0,1,99.2,81.3Z" transform="translate(-17.5 -19.37)" fill="#1bbc9b"/></svg>