<svg id="Layer_1" data-name="Layer 1" xmlns="http://www.w3.org/2000/svg" viewBox="0 0 143.19 189.83"><title>icon_5</title><path d="M55.6,49.7Z" transform="translate(-40.91 -17.57)" fill="#1bbc9b"/><path d="M175,49.7h0c0-.2-.2-.2,0,0Z" transform="translate(-40.91 -17.57)" fill="#1bbc9b"/><path d="M159.4,202.6c.6,2.6.2,3.5-2.1,4.8h-1.1a4.2,4.2,0,0,1-2.6-3.3,16.06,16.06,0,0,0-5.7-8.9,124.51,124.51,0,0,0-11-8.1c-4.3-2.9-8.9-5.3-13.2-8-2.1-1.3-2.4-3.2-1.1-4.6a2.76,2.76,0,0,1,3.7-.6c8.3,4.9,16.9,9.2,24.2,15.6C154.6,192.9,157.9,197,159.4,202.6Z" transform="translate(-40.91 -17.57)" fill="#1bbc9b"/><path d="M182.6,52.8C178.2,41,172,30.2,165.4,19.4a2.55,2.55,0,0,0-1.6-1.6,3.08,3.08,0,0,0-4,1.6c-2.2,3.7-4.5,7.5-6.7,11.3-4.5,8.1-8.9,16.4-11.6,25.4-2.4,8-.3,14.8,5.3,20.9a21.35,21.35,0,0,0,12.8,6.7v3.5H70.7V83.7c7.5-2.1,11.3-4.3,14.7-8.8,4.8-6.7,5.3-13.9,2.4-21.4-4.5-12-10.8-23.1-17.4-34A3.16,3.16,0,0,0,69,18.1a2.94,2.94,0,0,0-3.8,1.4C64.1,21.3,63,23,62,24.8c-5.4,9.4-10.7,18.8-14.4,29-4,11.3-.3,21.8,9.6,27.4a61.71,61.71,0,0,0,7.5,3v4a9,9,0,0,1,.2,2.2c0,2.1,1.4,3,4.6,3h37.2a2.89,2.89,0,0,1,2.4.5,33.87,33.87,0,0,1,5.7,6.2,10.24,10.24,0,0,1-2.7,13.7,23.8,23.8,0,0,1-5.4,3.5c-5.1,2.4-10,4.6-15.3,6.7-9.9,4-19.8,8-28.9,13.7a44,44,0,0,0-17.7,56,36.83,36.83,0,0,0,10,13.7H56c2.9-1.9,3-3.3.6-5.9a35.78,35.78,0,0,1-10-23.4c-.3-11.6,2.9-21.8,11.6-29.8a62.46,62.46,0,0,1,17.4-11.2c8.5-3.7,17.1-7,25.5-10.8a86.51,86.51,0,0,0,13.7-7.5,14.43,14.43,0,0,0,6.5-15.1,63.77,63.77,0,0,0-1.9-7.2,24.42,24.42,0,0,1,12,7.8c3.5,4.9,4.6,12-2.4,16.9-2.9,2.1-6.1,3.8-8.9,6.1a61.06,61.06,0,0,0-10.5,8.5c-9.1,9.6-11.6,24.6,3.3,36.4h0a2.87,2.87,0,0,0,4.1-.2h0a3,3,0,0,0-.5-4.3c-.8-.8-1.8-1.6-2.6-2.4-2.9-2.9-5.3-5.9-5.7-9.9a18.86,18.86,0,0,1,6.4-16.6,91.67,91.67,0,0,1,9.4-7c3.5-2.6,7.3-4.8,10.5-7.5a14.59,14.59,0,0,0,4.9-15.1c-1.3-6.4-5.1-10.7-10.2-14.2a10.8,10.8,0,0,1-1.8-1.3h33.4a4.64,4.64,0,0,0,4.3-1.9V89.9c0-.5.2-1,.2-1.4V84a20,20,0,0,0,3.7-1,22.1,22.1,0,0,0,14.8-17.1,1.69,1.69,0,0,0,.3-1V60.1A22.09,22.09,0,0,0,182.6,52.8ZM64.2,32.3l.3.2v15l-6.7-3.3Zm.4,44.9C53.1,77,48.2,61.9,55.5,49.6c2.9,1.4,5.4,2.7,8.3,4.1a1.6,1.6,0,0,1,.8,1.4Zm6.3-44.9.5-.2L82.9,55.7l-12,7.2Zm-.4,45.1V70.5a1.43,1.43,0,0,1,.5-1.1c4.1-2.6,8.1-4.9,12.3-7.3,1.1,6.5-5.4,14.3-12.8,15.3Zm78.8-25c3.2-6.9,6.4-13.6,9.7-20.3l.6.3V61.7a5,5,0,0,1-1.4-1c-2.7-2.2-5.6-4.3-8.3-6.5A3.23,3.23,0,0,1,149.3,52.4Zm10.4,24.8h0c-7.7-.3-14.5-9.9-12.4-17.7l6.5,5.3a12.38,12.38,0,0,0,1.8,1.4C160.2,69.9,160.6,70.9,159.7,77.2Zm6.2-44.8.3-.2c2.1,3.8,4.1,7.8,6.4,11.8l-6.5,3.3-.2-14.9ZM178,66.6a16.45,16.45,0,0,1-12.3,11.2V55.9a2.15,2.15,0,0,1,1.4-2.4c2.6-1.1,5.1-2.6,7.8-3.8C177.1,55.1,180.1,60.3,178,66.6Z" transform="translate(-40.91 -17.57)" fill="#1bbc9b"/></svg>