<svg id="Layer_1" data-name="Layer 1" xmlns="http://www.w3.org/2000/svg" viewBox="0 0 142.54 190.1"><title>icon_9</title><path d="M182,118.7a101.83,101.83,0,0,0-17.4-40.2c-5.7-8.1-11.7-16-17.3-24.2-6.5-9.5-10.9-20-10.9-31.7a5,5,0,0,0-3-5.1l-2.4.2-1.4,1.1A101.54,101.54,0,0,0,96.3,61.9c-4.9,12-6.3,24.7-7.1,37.5-.3,4.1-.3,8.4-.5,12.7a18.71,18.71,0,0,1-7.9-3.8,29.28,29.28,0,0,1-8.2-11.7c-1.4-3.8-2.5-7.6-3.5-11.4s-3.6-5.1-7-3c-.5.3-1.1.8-1.6,1.1A37.23,37.23,0,0,0,49.3,97.6a83.12,83.12,0,0,0-5.9,55.1c6.8,27.6,24.5,45.1,51.8,52.7,4,1.1,8.2,1.4,12.4,2.2h9.7l4.8-.6c24.1-3.8,41.8-16.3,53.4-37.5C184.3,153,185.2,136.1,182,118.7Zm-46.8,62.8a23.47,23.47,0,0,1-21.1,17.6,21.19,21.19,0,0,1-15-4.4c-11.6-8.6-12-24.2-7.6-34.5.6,1.1,1.3,2.1,1.9,3a13.66,13.66,0,0,0,10,6.2c3.3.3,5.1-1.3,5.2-4.6.3-5.2.5-10.6,1.3-15.8.9-6.2,4.1-11.4,8.1-16.5.3.8.5,1.4.8,2.2,1.7,3.2,3.5,6.5,5.4,9.7,2.2,3.5,4.8,6.8,6.8,10.3C135.6,163,137.9,172,135.2,181.5Zm40.2-39.7c-2.4,23.9-15,41.2-36.6,51.8a.37.37,0,0,0-.3.2c1.4-3.8,3.6-7.8,4.6-12,2.5-10.9.2-21.2-5.4-30.7a127.66,127.66,0,0,0-7.4-11.2c-3.2-4.6-5.5-9.5-5.7-15.4a3.91,3.91,0,0,0-1.1-2.9,3.64,3.64,0,0,0-5.4,0,44.19,44.19,0,0,0-16.6,28.3c-.5,3-.6,6.2-1.4,9.5-.6-1.4-1.6-2.9-2.1-4.4a21.07,21.07,0,0,1-.9-3.6,5.17,5.17,0,0,0-.8-1.9,4,4,0,0,0-5.5-.8A19.26,19.26,0,0,0,83.5,159c-3.8,12-3.6,23.9,4,35-.5-.2-.9-.3-1.4-.5-20.4-10.3-32.8-26.4-35.8-49.1a75.5,75.5,0,0,1,6.3-43.2,83.79,83.79,0,0,1,5.9-9.5c1.9,4.3,3.3,8.1,5.2,11.7A31.9,31.9,0,0,0,81,117.3a23.37,23.37,0,0,0,11.2,2.9c3.3,0,4.6-1.3,4.8-4.6.2-6.8.3-13.6.6-20.3,1.1-25.6,11.2-47,30.1-64.6.5-.5,1-.8,1.3-1.1,1.3,4.4,2.2,8.7,3.8,13,3.3,9,8.9,16.8,14.4,24.7,5.9,8.2,11.9,16.3,17.1,24.9A81.12,81.12,0,0,1,175.4,141.8Z" transform="translate(-41.15 -17.5)" fill="#1bbc9b"/></svg>