<svg id="Layer_1" data-name="Layer 1" xmlns="http://www.w3.org/2000/svg" viewBox="0 0 225 225"><rect width="225" height="225" rx="85" fill="#3e4487"/><path d="M67.5,139a1.88,1.88,0,0,1-.17-1.75C68.65,136,70.12,135,71.49,134c.11-.11.33,0,.77-.11.27.17.87.44.93.88a1.92,1.92,0,0,1-.27,1.53,36.29,36.29,0,0,1-3.89,3A1.43,1.43,0,0,1,67.5,139Z" fill="#fff"/><path d="M78.32,151.36a9.67,9.67,0,0,1-.88,1.31c-1,.87-2.19,1.64-3.23,2.41a1.55,1.55,0,0,1-2.18,0h0a1.47,1.47,0,0,1,.3-2.06h0l.11-.11a36.12,36.12,0,0,1,3.23-2.41,2.17,2.17,0,0,1,1.64-.11C77.77,150.42,77.93,150.92,78.32,151.36Z" fill="#fff"/><path d="M74.59,133.5a1.69,1.69,0,0,1,.5-2.19h.11L91.56,119a1.65,1.65,0,0,1,1.92-.28,4.7,4.7,0,0,1,.93,1.15,7.49,7.49,0,0,1-.93,1.32c-5.53,4.16-11,8.37-16.53,12.53a1.51,1.51,0,0,1-2.08.11C74.65,133.62,74.65,133.62,74.59,133.5Z" fill="#fff"/><path d="M90.5,132.5,63.3,153.19c-1.21.93-1.81.88-2.8-.27V152a11,11,0,0,1,.93-1q17.17-13.14,34.49-26.22a2.9,2.9,0,0,1,.6-.44,1.47,1.47,0,0,1,2,.27h0a1.4,1.4,0,0,1-.11,1.92.61.61,0,0,1-.28.16C95.72,128.58,93.1,130.5,90.5,132.5Z" fill="#fff"/><path d="M103.44,131.37a1.39,1.39,0,0,1-.33,1.92h0c-1.31,1-2.68,2.08-4,3.12-5.75,4.33-11.38,8.65-17.13,13a14.79,14.79,0,0,1-1.64.94,5.2,5.2,0,0,1-1.15-.94,2.85,2.85,0,0,1,.16-1.53c.11-.33.49-.49.88-.71l20.09-15.44a4.66,4.66,0,0,1,1-.71A1.58,1.58,0,0,1,103.44,131.37Z" fill="#fff"/><path d="M160.92,69.68a9.48,9.48,0,0,0-5.36.71c-2.85,1-5.09,3-7.34,4.93-2.79,2.35-5.53,4.76-8.32,7.17a2.79,2.79,0,0,1-3.23.77c-.44-.17-.93-.28-1.37-.44-6.35-2.36-12.64-4.76-19-7.12-3.45-1.31-6.85-2.41-10.3-3.61a4,4,0,0,0-3.55.49,13,13,0,0,0-4.16,4.49,3.16,3.16,0,0,0,.49,4.05,13.61,13.61,0,0,0,2.52,2.08c5.47,3.83,11,7.56,16.37,11.44a44.17,44.17,0,0,1,3.55,3.29c-4.16,4-8.15,7.77-12.15,11.49a1.1,1.1,0,0,1-1,0c-1.64-.76-3.23-1.53-4.87-2.35a4.32,4.32,0,0,0-4.93.6c-.71.6-1.31,1.21-1.91,1.81-1.37,1.48-1.48,2.84-.28,4.43.88,1.15,1.75,2.19,2.57,3.23,3.56,4.49,7.12,9,10.73,13.52a4.36,4.36,0,0,0,5.2,1.48,6.48,6.48,0,0,0,3.13-7.33c-.33-1.48-.77-3-1-4.44a1.24,1.24,0,0,1,.33-1.2c4.16-3.29,8.38-6.57,12.81-10,.88,1.65,1.75,3.23,2.41,4.77l7.56,19.21A11.93,11.93,0,0,0,141,135.4a3,3,0,0,0,3.44,1.36c3.56-1,6.52-3.39,6.68-7.55a20.5,20.5,0,0,0-.16-3.23c-1.37-10.07-2.79-20.09-4.16-30.16a2.74,2.74,0,0,1,1-2.85c3.39-2.85,6.84-5.64,10.13-8.59A19.78,19.78,0,0,0,164.26,75a1.82,1.82,0,0,0,.16-.76C164.92,72.31,163.28,70,160.92,69.68Zm.27,6.13a17.36,17.36,0,0,1-4.69,6.57L145.81,91.5a4.87,4.87,0,0,0-2,4.6c.49,4.32,1.15,8.59,1.75,12.91.88,6.52,1.81,12.92,2.58,19.38a4.87,4.87,0,0,1-3.62,5.7c-1.15.43-1.47.33-1.8-.77-2.08-5.47-4.16-10.84-6.13-16.26a46.46,46.46,0,0,0-6.09-11.74l-1.37,1c-4.93,3.83-9.8,7.55-14.72,11.27a2.08,2.08,0,0,0-.88,2.41c.49,1.92.93,3.83,1.37,5.7a3.42,3.42,0,0,1-.77,3.12c-1,1.2-2,1.15-3-.11L99.72,114a3.42,3.42,0,0,1-.44-.49c-.33-.6-1.2-1.53-1-1.81a9.15,9.15,0,0,1,2.41-2.19,1.54,1.54,0,0,1,1.31.28c1.92.87,3.84,1.8,5.7,2.79a2.09,2.09,0,0,0,2.52-.33c4.76-4.49,9.41-9,14.17-13.52a.11.11,0,0,0,.11-.11h0a19.16,19.16,0,0,0-6.73-7.34c-5.31-3.56-10.46-7.17-15.66-10.84-1.8-1.31-1.8-1.36-.43-3,2.24-2.79,2.79-3,6.13-1.64,9,3.4,18,6.73,26.93,10.07a9.51,9.51,0,0,0,3.45.72,5.16,5.16,0,0,0,3.61-1.54c3.61-3.23,7.34-6.35,11-9.41A11.33,11.33,0,0,1,158.4,73c.17,0,.28-.1.44-.1.93-.11,2-.28,2.68.49S161.5,75,161.19,75.81Z" fill="#fff"/></svg>