<svg id="Layer_1" data-name="Layer 1" xmlns="http://www.w3.org/2000/svg" viewBox="0 0 225 225"><rect width="225" height="225" rx="85" fill="#3e4487"/><path d="M157.05,113.19c-1.67-1.5-3.33-3.11-4.94-4.78a4.14,4.14,0,0,0-3.16-1.33H141a3.51,3.51,0,0,0-3.49,1.89,4.34,4.34,0,0,0-.45,2v9.87c0,2.44,1.39,3.88,3.94,3.88h13.93a3.54,3.54,0,0,0,1.11-.27,1.51,1.51,0,0,0,.22-.11,3.63,3.63,0,0,0,2-3.55V116.5A4,4,0,0,0,157.05,113.19ZM140.79,120v-9.43h8.1a3.89,3.89,0,0,1,.94.33Zm14,1.16h-9.43l7.32-7.1c3,1.46,2,4.4,2.09,7.11Z" fill="#fff"/><path d="M106.9,107.19H95.19c-2.44,0-3.77,1.39-3.77,3.89v9.76c0,2.55,1.39,3.94,3.94,3.94h11.43a3.57,3.57,0,0,0,3.93-3.17h0a4.21,4.21,0,0,0,0-.71V111C110.78,108.5,109.34,107.19,106.9,107.19ZM94.9,120v-9.2h9.16Zm12.26,1.22H99.8l7.37-7.37Z" fill="#fff"/><path d="M162.59,108.86c-2.11-2.11-4.32-4.16-6.32-6.33a6.82,6.82,0,0,0-6-2.44,16.56,16.56,0,0,1-2.44,0c0-1.22.11-2.38,0-3.44v-.27a3.55,3.55,0,0,0-3.72-3.33h-2.39V82.5h18.7a1.86,1.86,0,0,0,1.39-1.39,1.81,1.81,0,0,0-1.39-2h-18a1,1,0,0,1-1.16-.81h0v-.07a8.83,8.83,0,0,0-16.76-.1,1.2,1.2,0,0,1-1.39.94H76.55c-1.77,0-2.66.61-2.66,1.77s.89,1.78,2.66,1.78H124V84.5c-.17,2.72.55,3.33,1.77,3.33,1.06,0,2-.33,1.78-3.27V82.5H138V93.05H130.5a3.57,3.57,0,0,0-3.93,3.17h0a4.21,4.21,0,0,0,0,.71v3.16H74.11a5.69,5.69,0,0,0-4.66,2c-2.27,2.38-4.55,4.65-6.93,6.93a9,9,0,0,0-2.72,3.88v28.8c.17.28.28.61.44.89A5.13,5.13,0,0,0,65,145.86h8.82l.28,3.49H67.4c-1.61,0-2.39.56-2.39,1.78s.78,1.77,2.39,1.77h90.81a1.79,1.79,0,0,0,1.78-1.77,1.76,1.76,0,0,0-1.74-1.78H151l.28-3.49h8.43a4.53,4.53,0,0,0,3.88-1.61,18,18,0,0,0,1.61-2.83V112.85A7.9,7.9,0,0,0,162.59,108.86ZM128.37,79h0a.79.79,0,0,1-.45-.11,4.9,4.9,0,0,1,4.5-3.44,5.12,5.12,0,0,1,5.21,3.5Zm1.83,17.6h13.92v3.33h-14ZM65,142.36h-.16a1.75,1.75,0,0,1-1.61-1.77V133.5H67.5a1.11,1.11,0,0,1,.72.34l7.93,7.93a4.08,4.08,0,0,1,.28.44C72.5,142.25,68.79,142.36,65,142.36ZM80,149a2.52,2.52,0,0,1-1.77.11c-1.33-.72-.89-1.94-1-3.17h3.44C80.66,147,81.21,148.24,80,149Zm1-7.33c-2.45-2.38-4.83-4.82-7.22-7.21-.27-.28-.55-.44-.77-.72l.16-.28a2.45,2.45,0,0,0,.89-.11h15.7a2.08,2.08,0,0,1,1.33.45c2.72,2.66,5.38,5.38,8,8,.11.12.16.28.27.34h-17a1.45,1.45,0,0,1-1.42-.5Zm14.86-8.1,18.36-.11v8.82h-8.93a1.67,1.67,0,0,1-1.16-.44c-2.66-2.55-5.22-5.21-7.82-7.82-.23-.2-.4-.25-.51-.48Zm-11.59,15.7.28-3.33h56.14l.27,3.33ZM126.93,130H130v12.2H117.88V110.63H130v15.76h-3.11c-1.22,0-2,.61-2,1.77s.65,1.78,2,1.78Zm20,19a2.06,2.06,0,0,1-1.78,0c-1.33-.73-.77-1.95-.88-3.17h3.49l.11.11c-.14,1.23.19,2.45-1,3.09Zm-13.2-6.77v-8.7c1.83,0,3.6.17,5.38,0a5.36,5.36,0,0,1,4.55,1.83c2.1,2.38,4.38,4.49,6.87,6.88Zm28.18-1.39a1.8,1.8,0,0,1-2,1.5h-.11c-1.39,0-2.89.33-4.05-.11s-2-1.78-3-2.72c-1.94-1.94-3.88-3.77-5.88-5.88h15Zm0-10.87H133.64V111.3c0-2.89-1.34-4.16-4.17-4.16H118.32c-2.71,0-4,1.33-4,4v18.75h-51c0-.11-.11-.17-.11-.33V114a2,2,0,0,1,.61-1.38c2.72-2.72,5.38-5.55,8.15-8.16a3,3,0,0,1,1.78-.72,13.68,13.68,0,0,1,3,0H150.5a3.47,3.47,0,0,1,3,1.22c2.38,2.44,4.82,4.94,7.37,7.38a3.14,3.14,0,0,1,.95,2.27Z" fill="#fff"/><path d="M87.93,110.41a3.53,3.53,0,0,0-3.72-3.27H75.83A4.33,4.33,0,0,0,73,108.3c-1.66,1.78-3.44,3.44-5.21,5.22a3.85,3.85,0,0,0-1.17,2.88v4.39c0,2.55,1.39,3.93,3.94,3.93H84.5A3.52,3.52,0,0,0,87.82,121h0c.12-3.39.12-6.77.12-10.15Zm-17.65,11v-5.1a3.77,3.77,0,0,1,.45-.78c1.5-1.5,3-2.88,4.49-4.38a1.23,1.23,0,0,1,.89-.45h5.6c-.28.34-.33.56-.55.73l-9.27,9.26c-.52.28-1.06.53-1.61.76Zm13.93-.28H76.89l7.32-7.32Z" fill="#fff"/></svg>