<?xml version="1.0" encoding="utf-8"?>
<!-- Generator: Adobe Illustrator 24.3.0, SVG Export Plug-In . SVG Version: 6.00 Build 0)  -->
<svg version="1.1" id="Layer_1" xmlns="http://www.w3.org/2000/svg" xmlns:xlink="http://www.w3.org/1999/xlink" x="0px" y="0px"
	 viewBox="0 0 225 225" style="enable-background:new 0 0 225 225;" xml:space="preserve">
<style type="text/css">
	.st0{fill:#FFFFFF;}
</style>
<path class="st0" d="M114.9,133.9c-2,3.2-4.3,6.1-7.1,8.6c-0.2,0.2-0.5,0.4-0.8,0.6c-0.8-1.7-1.5-3.3-2.2-5c0-0.1,0-0.1-0.1-0.2
	c-0.4-0.8-1.3-1.2-2.2-0.9c-0.1,0-0.2,0.1-0.3,0.2c-0.8,0.5-1.1,1.5-0.6,2.3c0.7,1.5,1.3,3,2,4.6H70.1c0-0.2,0-0.3,0.1-0.3
	c5.4-5.9,9.3-12.8,12.8-19.8c3.3-6.6,6.2-13.4,8.7-20.3c0.1-0.6,0.7-1,1.2-0.9h37.3c0,0.2-0.1,0.4-0.2,0.6
	C125.8,113.9,121.1,124.3,114.9,133.9z"/>
<path class="st0" d="M111.3,144.1c8.7-9.8,14.1-21.4,19.6-33.3v33.3H111.3z"/>
<path class="st0" d="M134.4,111.2c5.1,11.8,10.9,23.1,19.6,32.8l-19.6,0V111.2z"/>
<path class="st0" d="M100,94.9c-0.2-0.4-0.4-0.7-0.6-1.1c-0.1-0.3-0.1-0.4,0.1-0.5c0,0-0.1,0-0.1,0c0,0-0.1-0.1-0.1-0.1
	c0,0-0.1-0.1-0.1-0.2c-0.2-0.3-0.3-0.6-0.5-0.8l-0.1-0.2l-1,1.9L97,95c-0.5,0.8-0.2,1.8,0.6,2.3l0.1,0.1c0.1,0.1,0.3,0.2,0.4,0.2
	c0.9,0.2,1.8-0.4,2-1.4V96C100.3,95.6,100.2,95.2,100,94.9z M100,94.9c-0.2-0.4-0.4-0.7-0.6-1.1c-0.1-0.3-0.1-0.4,0.1-0.5
	c0,0-0.1,0-0.1,0c0,0-0.1-0.1-0.1-0.1c0,0-0.1-0.1-0.1-0.2c-0.2-0.3-0.3-0.6-0.5-0.8l-0.1-0.2l-1,1.9L97,95
	c-0.5,0.8-0.2,1.8,0.6,2.3l0.1,0.1c0.1,0.1,0.3,0.2,0.4,0.2c0.9,0.2,1.8-0.4,2-1.4V96C100.3,95.6,100.2,95.2,100,94.9z M100,94.9
	c-0.2-0.4-0.4-0.7-0.6-1.1c-0.1-0.3-0.1-0.4,0.1-0.5c0,0-0.1,0-0.1,0c0,0-0.1-0.1-0.1-0.1c0,0-0.1-0.1-0.1-0.2
	c-0.2-0.3-0.3-0.6-0.5-0.8l-0.1-0.2l-1,1.9L97,95c-0.5,0.8-0.2,1.8,0.6,2.3l0.1,0.1c0.1,0.1,0.3,0.2,0.4,0.2c0.9,0.2,1.8-0.4,2-1.4
	V96C100.3,95.6,100.2,95.2,100,94.9z M100,94.9c-0.2-0.4-0.4-0.7-0.6-1.1c-0.1-0.3-0.1-0.4,0.1-0.5c0,0-0.1,0-0.1,0
	c0,0-0.1-0.1-0.1-0.1c0,0-0.1-0.1-0.1-0.2c-0.2-0.3-0.3-0.6-0.5-0.8l-0.1-0.2l-1,1.9L97,95c-0.5,0.8-0.2,1.8,0.6,2.3l0.1,0.1
	c0.1,0.1,0.3,0.2,0.4,0.2c0.9,0.2,1.8-0.4,2-1.4V96C100.3,95.6,100.2,95.2,100,94.9z M100,94.9c-0.2-0.4-0.4-0.7-0.6-1.1
	c-0.1-0.3-0.1-0.4,0.1-0.5c0,0-0.1,0-0.1,0c0,0-0.1-0.1-0.1-0.1c0,0-0.1-0.1-0.1-0.2c-0.2-0.3-0.3-0.6-0.5-0.8l-0.1-0.2l-1,1.9
	L97,95c-0.5,0.8-0.2,1.8,0.6,2.3l0.1,0.1c0.1,0.1,0.3,0.2,0.4,0.2c0.9,0.2,1.8-0.4,2-1.4V96C100.3,95.6,100.2,95.2,100,94.9z
	 M100,94.9c-0.2-0.4-0.4-0.7-0.6-1.1c-0.1-0.3-0.1-0.4,0.1-0.5c0,0-0.1,0-0.1,0c0,0-0.1-0.1-0.1-0.1c0,0-0.1-0.1-0.1-0.2
	c-0.2-0.3-0.3-0.6-0.5-0.8l-0.1-0.2l-1,1.9L97,95c-0.5,0.8-0.2,1.8,0.6,2.3l0.1,0.1c0.1,0.1,0.3,0.2,0.4,0.2c0.9,0.2,1.8-0.4,2-1.4
	V96C100.3,95.6,100.2,95.2,100,94.9z M140,0H85C38.1,0,0,38.1,0,85v55c0,46.9,38.1,85,85,85h55c46.9,0,85-38.1,85-85V85
	C225,38.1,186.9,0,140,0z M123.3,91.3c0.6-1.1,1.1-2.3,1.7-3.4c0.1-0.2,0.2-0.3,0.3-0.3c0.2,0,0.3,0.2,0.3,0.3l0.8,1.4
	c0.1,0.1,0.1,0.2,0,0.3c-0.1,0.1-0.1,0.1-0.2,0.1c0,0-0.1,0-0.1,0c0,0-0.1,0-0.1-0.1c0,0-0.1-0.1-0.1-0.2c-0.2-0.3-0.3-0.6-0.4-0.8
	l-0.1-0.2l-1,1.9l-0.6,1.1c-0.5,0.9-0.1,2,0.8,2.5c0.1,0.1,0.3,0.1,0.4,0.2c0.9,0.2,1.8-0.5,2-1.4v-0.1c0.1-0.4,0-0.8-0.2-1.1
	c-0.2-0.4-0.4-0.7-0.6-1.1c-0.1-0.3-0.1-0.4,0.1-0.5c0.2-0.1,0.3,0,0.4,0.2c0.3,0.4,0.4,0.8,0.7,1.2c0.5,1.1,0,2.4-1.1,3
	c-0.7,0.5-1.7,0.4-2.3-0.1c-0.6-0.4-1-1.1-0.9-1.9C123,92,123.1,91.6,123.3,91.3z M114.2,81.9c0.6-1.3,1.4-2.7,2-4
	c0.1-0.2,0.2-0.3,0.4-0.3c0.3,0,0.3,0.2,0.4,0.3c0.3,0.6,0.6,1.1,0.9,1.7c0.1,0.1,0.1,0.3,0,0.4c-0.1,0.1-0.3,0.2-0.4,0.1l-0.1-0.1
	c-0.1,0-0.1-0.1-0.1-0.2l-0.5-1c-0.1,0-0.1-0.1-0.2-0.1l-1.1,2.2l-0.6,1.3c-0.6,1-0.2,2.2,0.7,2.7l0.2,0.1c0.1,0.1,0.3,0.2,0.5,0.2
	c1.1,0.2,2.2-0.5,2.5-1.6v-0.2c0.1-0.5,0-0.9-0.3-1.3c-0.2-0.4-0.4-0.8-0.6-1.2c-0.2-0.2-0.2-0.4,0-0.5h0.1c0.2-0.1,0.4,0,0.5,0.2
	c0,0,0,0,0,0c0,0,0,0,0,0c0.3,0.5,0.5,0.9,0.8,1.4c0.6,1.3,0,2.9-1.2,3.6c-0.9,0.5-2,0.4-2.8-0.1c-0.9-0.5-1.4-1.5-1.4-2.5
	C113.9,82.6,114,82.2,114.2,81.9z M111.8,94c0.6-1.1,1.1-2.3,1.7-3.4c0.1-0.2,0.2-0.3,0.3-0.3c0.2,0,0.3,0.1,0.3,0.3l0.8,1.4
	c0.1,0.1,0.1,0.3,0,0.3c-0.1,0.1-0.2,0.2-0.3,0.1c0,0-0.1-0.1-0.1-0.1c0,0-0.1-0.1-0.1-0.2c-0.2-0.3-0.3-0.6-0.4-0.8l-0.1-0.2
	l-1,1.9l-0.6,1.1c-0.5,0.8-0.2,1.8,0.6,2.3l0.1,0.1c0.1,0.1,0.3,0.2,0.4,0.2c0.9,0.2,1.8-0.5,2-1.4v-0.1c0.1-0.4,0-0.8-0.2-1.1
	c-0.2-0.3-0.3-0.6-0.6-1.1c-0.1-0.3-0.1-0.4,0.1-0.5c0.2-0.1,0.3,0,0.4,0.2c0.3,0.4,0.6,0.9,0.8,1.3c0.5,1.1,0,2.4-1.1,3
	c-0.7,0.5-1.6,0.4-2.3-0.1c-0.7-0.1-1.1-1-1.1-1.9C111.5,94.7,111.6,94.3,111.8,94z M105.2,88.4c0.5-1.1,1.1-2.2,1.6-3.4
	c0.1-0.2,0.2-0.3,0.3-0.3c0.2,0,0.3,0.1,0.3,0.3l0.8,1.3c0.1,0.1,0.1,0.3,0,0.3c-0.1,0.1-0.3,0.2-0.4,0.1c0,0-0.1,0-0.1-0.1
	c-0.2-0.3-0.3-0.6-0.5-0.8l-0.1-0.2l-0.9,1.9l-0.5,1.1c-0.4,0.9,0,1.9,0.8,2.3c0.1,0.1,0.3,0.1,0.4,0.2c0.9,0.2,1.8-0.5,2-1.4
	c0-0.1,0-0.2,0-0.3c0-0.3-0.1-0.6-0.3-0.8c-0.2-0.3-0.4-0.6-0.6-1c-0.1-0.1-0.1-0.3,0-0.4h0c0.2-0.1,0.3,0,0.4,0.2
	c0.3,0.4,0.4,0.8,0.7,1.1c0.5,1.1,0.1,2.4-0.9,3c-0.7,0.5-1.6,0.5-2.3,0.1c-0.6-0.6-0.9-1.4-0.9-2.2C104.9,89,105,88.7,105.2,88.4z
	 M98.7,91.2c0.2,0,0.3,0.1,0.3,0.3l0.8,1.4c0.1,0.1,0.1,0.3,0,0.3c0,0-0.1,0.1-0.1,0.1c0.1,0,0.3,0.1,0.3,0.2
	c0.2,0.4,0.5,0.8,0.6,1.2c0.5,1.1,0,2.4-1.1,3c-0.7,0.5-1.6,0.4-2.3-0.1c-0.7-0.4-1.1-1.2-1.1-2.1c0.2,0,0.3-0.3,0.5-0.7
	c0.6-1.1,1.1-2.3,1.7-3.4C98.4,91.3,98.5,91.2,98.7,91.2z M92.5,83.7c0.6-1.1,1.1-2.3,1.7-3.4c0.1-0.2,0.2-0.3,0.3-0.3
	c0.2,0,0.3,0.1,0.3,0.3l0.8,1.4c0.1,0.1,0.1,0.2,0,0.3l0,0c0,0.1-0.1,0.1-0.2,0.1c0,0-0.1,0-0.1,0c0,0-0.1-0.1-0.1-0.1
	c-0.1,0-0.1-0.1-0.1-0.2c-0.2-0.3-0.3-0.6-0.4-0.8v0l-1,1.9L93.1,84c-0.5,0.9-0.1,2,0.8,2.5c0.1,0.1,0.3,0.1,0.4,0.2
	c0.9,0.2,1.8-0.5,2-1.4v-0.1c0.1-0.4,0.1-0.8-0.1-1.2c-0.2-0.3-0.3-0.6-0.6-1.1c-0.1-0.3-0.1-0.4,0.1-0.5c0.2-0.1,0.4,0,0.4,0.2
	c0.3,0.4,0.4,0.8,0.7,1.2c0.4,1.2-0.3,2.5-1.6,2.9c-1,0.3-2.1-0.1-2.7-1c-0.2-0.3-0.2-0.6-0.2-1l0,0C92.2,84.4,92.3,84,92.5,83.7z
	 M163.4,139.2c-1.2,2.4-2.5,4.8-3.7,7.2c-0.3,0.7-1,1.1-1.7,1.1H65.5c-0.8,0.1-1.6-0.5-1.8-1.3c-0.8-2.2-1.6-4.4-2.4-6.6v-1.1
	c1.4-1.7,2.8-1.4,3.6,0.6c0.4,1.2,0.8,2.5,1.3,3.9c0.4-0.4,0.8-0.8,1.1-1.1c3.2-3.5,6-7.3,8.3-11.4c5.3-9.3,9.8-19.1,13.4-29.2
	c0.1-0.4,0.1-0.8,0.2-1.2v-6.4c0-1.2,0.7-2,1.7-2H91c1,0.1,1.6,1,1.5,2v5.6h38.3v-5.7c0,0,0,0,0,0c-0.1-0.9,0.6-1.7,1.6-1.8
	c1-0.1,1.8,0.6,1.9,1.6v6.7c0,0.4,0,0.8,0.2,1.2c4.4,12.6,9.9,24.5,17.8,35.3c1.6,2.3,3.4,4.3,5.2,6.5c0.2-0.3,0.4-0.6,0.6-0.9
	c0.8-1.4,1.5-3,2.3-4.4c0-0.1,0.1-0.2,0.1-0.2c0.5-0.9,1.5-1.2,2.4-0.8l0,0C163.6,137.3,163.9,138.4,163.4,139.2z M97.6,97.3
	l0.1,0.1c0.1,0.1,0.3,0.2,0.4,0.2c0.9,0.2,1.8-0.4,2-1.4V96c0.1-0.4,0-0.8-0.2-1.1c-0.2-0.4-0.4-0.7-0.6-1.1
	c-0.1-0.3-0.1-0.4,0.1-0.5c0,0-0.1,0-0.1,0c0,0-0.1-0.1-0.1-0.1c0,0-0.1-0.1-0.1-0.2c-0.2-0.3-0.3-0.6-0.5-0.8l-0.1-0.2l-1,1.9
	L97,95C96.5,95.8,96.8,96.8,97.6,97.3z M100,94.9c-0.2-0.4-0.4-0.7-0.6-1.1c-0.1-0.3-0.1-0.4,0.1-0.5c0,0-0.1,0-0.1,0
	c0,0-0.1-0.1-0.1-0.1c0,0-0.1-0.1-0.1-0.2c-0.2-0.3-0.3-0.6-0.5-0.8l-0.1-0.2l-1,1.9L97,95c-0.5,0.8-0.2,1.8,0.6,2.3l0.1,0.1
	c0.1,0.1,0.3,0.2,0.4,0.2c0.9,0.2,1.8-0.4,2-1.4V96C100.3,95.6,100.2,95.2,100,94.9z M100,94.9c-0.2-0.4-0.4-0.7-0.6-1.1
	c-0.1-0.3-0.1-0.4,0.1-0.5c0,0-0.1,0-0.1,0c0,0-0.1-0.1-0.1-0.1c0,0-0.1-0.1-0.1-0.2c-0.2-0.3-0.3-0.6-0.5-0.8l-0.1-0.2l-1,1.9
	L97,95c-0.5,0.8-0.2,1.8,0.6,2.3l0.1,0.1c0.1,0.1,0.3,0.2,0.4,0.2c0.9,0.2,1.8-0.4,2-1.4V96C100.3,95.6,100.2,95.2,100,94.9z
	 M100,94.9c-0.2-0.4-0.4-0.7-0.6-1.1c-0.1-0.3-0.1-0.4,0.1-0.5c0,0-0.1,0-0.1,0c0,0-0.1-0.1-0.1-0.1c0,0-0.1-0.1-0.1-0.2
	c-0.2-0.3-0.3-0.6-0.5-0.8l-0.1-0.2l-1,1.9L97,95c-0.5,0.8-0.2,1.8,0.6,2.3l0.1,0.1c0.1,0.1,0.3,0.2,0.4,0.2c0.9,0.2,1.8-0.4,2-1.4
	V96C100.3,95.6,100.2,95.2,100,94.9z M100,94.9c-0.2-0.4-0.4-0.7-0.6-1.1c-0.1-0.3-0.1-0.4,0.1-0.5c0,0-0.1,0-0.1,0
	c0,0-0.1-0.1-0.1-0.1c0,0-0.1-0.1-0.1-0.2c-0.2-0.3-0.3-0.6-0.5-0.8l-0.1-0.2l-1,1.9L97,95c-0.5,0.8-0.2,1.8,0.6,2.3l0.1,0.1
	c0.1,0.1,0.3,0.2,0.4,0.2c0.9,0.2,1.8-0.4,2-1.4V96C100.3,95.6,100.2,95.2,100,94.9z"/>
<path class="st0" d="M111.3,144.1L111.3,144.1z"/>
<path class="st0" d="M134.4,111.2L134.4,111.2z"/>
</svg>
