<?xml version="1.0" encoding="utf-8"?>
<!-- Generator: Adobe Illustrator 24.3.0, SVG Export Plug-In . SVG Version: 6.00 Build 0)  -->
<svg version="1.1" id="Layer_1" xmlns="http://www.w3.org/2000/svg" xmlns:xlink="http://www.w3.org/1999/xlink" x="0px" y="0px"
	 viewBox="0 0 225 225" style="enable-background:new 0 0 225 225;" xml:space="preserve">
<style type="text/css">
	.st0{fill:#FFFFFF;}
</style>
<path class="st0" d="M146.1,74.4l0.2,0.1l-5.3,4.7l-15.5,13.5c-1.8,1.5-1.6,2.9,0.5,3.9v0l8.6,4.5c-0.3,0.3-0.7,0.5-1.1,0.7
	L109,117.6l-0.4,0.3c-1.5,1.1-1.5,2.7,0.1,3.6c3.2,1.8,6.5,3.5,9.8,5.2c0.3,0.2,0.6,0.3,1,0.6l-37.1,20.6l-0.1-0.1l3.2-2.8
	c6.2-5.3,12.2-10.6,18.5-15.7c2.2-1.8,2-3.3-0.5-4.6c-3.3-1.6-6.6-3.5-9.8-5.2c-0.3-0.2-0.7-0.3-1-0.6l9.4-6l15.3-9.5l0.5-0.3
	c1.5-1.1,1.5-2.7-0.2-3.6c-3.1-1.7-6.1-3.3-9.3-5c-0.4-0.2-0.8-0.4-1.1-0.7L146.1,74.4z"/>
<path class="st0" d="M140,0H85C38.1,0,0,38.1,0,85v55c0,46.9,38.1,85,85,85h55c46.9,0,85-38.1,85-85V85C225,38.1,186.9,0,140,0z
	 M89,106.9c0.1,0,0.1-0.1,0.1-0.1l8.1-5.1c1.4-0.8,2.9,0.1,2.9,2c-0.3,0.5-0.6,0.9-1,1.3c-2.7,1.7-5.4,3.4-8,5.1
	c-0.8,0.6-1.9,0.4-2.5-0.4l-0.1-0.2C87.9,108.8,88.1,107.6,89,106.9z M85.3,109.6c1,0,1.8,0.8,1.8,1.9c0,0,0,0,0,0v0.1
	c0,1-0.7,1.8-1.7,1.8h-0.1c-1,0-1.9-0.8-1.9-1.8C83.5,110.5,84.3,109.6,85.3,109.6z M130.4,135.2c-0.1,0-0.1,0.1-0.1,0.1l-8.2,4.6
	c-0.3,0.1-0.6,0.2-0.9,0.3c-1,0-1.9-0.8-2-1.8c0-0.7,0.3-1.4,1-1.7c1.4-0.8,2.7-1.5,4-2.2c1.3-0.7,2.8-1.6,4.2-2.4
	c0.9-0.5,2.1-0.3,2.7,0.6h0.1C131.6,133.5,131.3,134.7,130.4,135.2z M136.2,130.8c0,1.1-0.9,1.9-1.9,2c-1.1,0-1.9-0.9-1.9-2
	c0-1,0.9-1.9,2-1.9h0.1c0.9,0,1.7,0.7,1.7,1.6V130.8z M161.2,66.2c-0.3,0.6-0.8,1.1-1.3,1.5c-9.9,8.6-19.6,17.2-29.3,25.7
	c-0.3,0.3-0.6,0.5-0.9,0.7l7.1,3.6c0.8,0.5,1.6,0.8,2.5,1.3c1.8,0.9,1.9,2.5,0.2,3.6l-19.9,12.8l-6.1,4c1,0.6,1.8,1,2.7,1.5
	c2.6,1.4,5.3,2.8,7.9,4.2c0.9,0.4,1.7,0.9,1.7,2.1s-0.8,1.5-1.6,2c-18.5,10.2-37,20.4-55.4,30.8l-2.2,1.2h-1.1
	c-1.8-1.1-1.9-2.4-0.3-3.8l34.5-29.3c0.3-0.2,0.6-0.5,0.8-0.7c-0.3-0.2-0.6-0.4-1-0.6l-10.7-5.7c-2-1.1-2.1-2.7-0.1-3.9
	c7.9-5.1,15.7-10,23.6-15c0.4-0.2,0.7-0.4,1.1-0.7c-0.4-0.3-0.8-0.4-1.1-0.6c-3.2-1.7-6.4-3.4-9.6-5.1c-0.9-0.2-1.5-1-1.5-1.8
	c0-1.1,0.7-1.6,1.5-2c18.4-9.2,36.9-18.5,55.3-27.8c1.4-0.8,2.1-0.7,3.2,0.7V66.2z"/>
</svg>
