<?xml version="1.0" encoding="utf-8"?>
<!-- Generator: Adobe Illustrator 24.3.0, SVG Export Plug-In . SVG Version: 6.00 Build 0)  -->
<svg version="1.1" id="Layer_1" xmlns="http://www.w3.org/2000/svg" xmlns:xlink="http://www.w3.org/1999/xlink" x="0px" y="0px"
	 viewBox="0 0 225 225" style="enable-background:new 0 0 225 225;" xml:space="preserve">
<style type="text/css">
	.st0{fill:#FFFFFF;}
</style>
<path class="st0" d="M131.6,153c0.8,2.8-0.8,5.7-3.5,6.5v0c-2.6,0.9-5.4-0.5-6.3-3c-0.4-1.2-0.5-2.6-0.2-3.9c0.9-4.2,2.9-8,4.9-12
	C128.6,144.7,130.6,148.7,131.6,153z"/>
<path class="st0" d="M106.1,132c-1.9,0-2.7-0.9-2.1-2.8c0.6-2.6,1.3-5.1,1.9-7.7c0.3-1.2,0.5-2.4,0.9-3.6h-10
	c-0.2,0-0.7,0.4-0.8,0.7c-0.8,2.3-1.7,4.8-2.4,7.2c-1.1,3-2,6.2-3.2,9.5h12.9c1.7,0,2.3,0.8,2,2.4c-0.5,2.8-1.1,5.5-1.7,8.3
	c-0.4,2.1-0.8,4.2-1.2,6.3l0.3,0.1l13.5-20.4H106.1z M140.2,78.2c-9.6-5.1-21.9-2.1-27.4,6.7c1.4,1.9,2.8,3.8,4,5.7c0,0,0,0,0,0.1
	c0,0,0,0,0,0c0,0,0,0,0,0c0.2,0.6,0.9,0.8,1.4,0.6c2.7-0.8,5.6-0.8,8.3-0.2c5.5,1.2,10,5.1,12,10.3v0.1c0.2,0.6,0.8,0.9,1.4,0.8
	c1-0.1,2.1,0,3.2,0.1c2.2,0.3,4.4,0.9,6.6,1.4l0.1,0C153.2,95.5,150.1,83.7,140.2,78.2z M140.2,78.2c-9.6-5.1-21.9-2.1-27.4,6.7
	c1.4,1.9,2.8,3.8,4,5.7c0,0,0,0,0,0.1c0,0,0,0,0,0c0,0,0,0,0,0c0.2,0.6,0.9,0.8,1.4,0.6c2.7-0.8,5.6-0.8,8.3-0.2
	c5.5,1.2,10,5.1,12,10.3v0.1c0.2,0.6,0.8,0.9,1.4,0.8c1-0.1,2.1,0,3.2,0.1c2.2,0.3,4.4,0.9,6.6,1.4l0.1,0
	C153.2,95.5,150.1,83.7,140.2,78.2z M106.1,132c-1.9,0-2.7-0.9-2.1-2.8c0.6-2.6,1.3-5.1,1.9-7.7c0.3-1.2,0.5-2.4,0.9-3.6h-10
	c-0.2,0-0.7,0.4-0.8,0.7c-0.8,2.3-1.7,4.8-2.4,7.2c-1.1,3-2,6.2-3.2,9.5h12.9c1.7,0,2.3,0.8,2,2.4c-0.5,2.8-1.1,5.5-1.7,8.3
	c-0.4,2.1-0.8,4.2-1.2,6.3l0.3,0.1l13.5-20.4H106.1z M106.1,132c-1.9,0-2.7-0.9-2.1-2.8c0.6-2.6,1.3-5.1,1.9-7.7
	c0.3-1.2,0.5-2.4,0.9-3.6h-10c-0.2,0-0.7,0.4-0.8,0.7c-0.8,2.3-1.7,4.8-2.4,7.2c-1.1,3-2,6.2-3.2,9.5h12.9c1.7,0,2.3,0.8,2,2.4
	c-0.5,2.8-1.1,5.5-1.7,8.3c-0.4,2.1-0.8,4.2-1.2,6.3l0.3,0.1l13.5-20.4H106.1z M140.2,78.2c-9.6-5.1-21.9-2.1-27.4,6.7
	c1.4,1.9,2.8,3.8,4,5.7c0,0,0,0,0,0.1c0,0,0,0,0,0c0,0,0,0,0,0c0.2,0.6,0.9,0.8,1.4,0.6c2.7-0.8,5.6-0.8,8.3-0.2
	c5.5,1.2,10,5.1,12,10.3v0.1c0.2,0.6,0.8,0.9,1.4,0.8c1-0.1,2.1,0,3.2,0.1c2.2,0.3,4.4,0.9,6.6,1.4l0.1,0
	C153.2,95.5,150.1,83.7,140.2,78.2z M140.2,78.2c-9.6-5.1-21.9-2.1-27.4,6.7c1.4,1.9,2.8,3.8,4,5.7c0,0,0,0,0,0.1c0,0,0,0,0,0
	c0,0,0,0,0,0c0.2,0.6,0.9,0.8,1.4,0.6c2.7-0.8,5.6-0.8,8.3-0.2c5.5,1.2,10,5.1,12,10.3v0.1c0.2,0.6,0.8,0.9,1.4,0.8
	c1-0.1,2.1,0,3.2,0.1c2.2,0.3,4.4,0.9,6.6,1.4l0.1,0C153.2,95.5,150.1,83.7,140.2,78.2z M106.1,132c-1.9,0-2.7-0.9-2.1-2.8
	c0.6-2.6,1.3-5.1,1.9-7.7c0.3-1.2,0.5-2.4,0.9-3.6h-10c-0.2,0-0.7,0.4-0.8,0.7c-0.8,2.3-1.7,4.8-2.4,7.2c-1.1,3-2,6.2-3.2,9.5h12.9
	c1.7,0,2.3,0.8,2,2.4c-0.5,2.8-1.1,5.5-1.7,8.3c-0.4,2.1-0.8,4.2-1.2,6.3l0.3,0.1l13.5-20.4H106.1z M140,0H85C38.1,0,0,38.1,0,85v55
	c0,46.9,38.1,85,85,85h55c46.9,0,85-38.1,85-85V85C225,38.1,186.9,0,140,0z M149.6,74.7l0.1-0.1l0.2-0.2c1.1-1.2,2.2-2.3,3.4-3.4
	c0.6-0.4,1.3-0.5,1.9-0.3c0.5,0.2,0.8,0.9,1.2,1.5c-0.3,0.5-0.6,1-0.9,1.5l-3.1,3.2c-0.6,0.8-1.7,0.9-2.5,0.3l-0.2-0.1
	C149.1,76.4,149,75.3,149.6,74.7z M124.8,63.2c0-0.8,0.6-1.4,1.4-1.4h0.3c0.8-0.1,1.6,0.5,1.7,1.4v4.3c0,0.8-0.7,1.4-1.6,1.4h-0.1
	c-0.9,0-1.6-0.7-1.7-1.5l0-0.1C124.7,65.9,124.7,64.6,124.8,63.2z M98.1,163c-1.1-0.4-1.2-1.4-1-2.4c1.4-7,2.8-14,4.2-21
	c0.1-0.3,0.1-0.6,0.2-0.9H88.3c-1.7,0-2.5-1.1-1.9-2.5c2.3-6.9,4.6-13.8,6.9-20.7c0.2-0.8,1-1.4,1.8-1.3h13.6c1.6,0,2.2,1,1.8,2.7
	l-2.6,10.5c-0.1,0.3-0.1,0.4-0.2,0.9h1.3c3.4,0,6.7-0.1,10.1,0c0.7,0,1.4,0.3,1.8,0.9c0.2,0.7,0.1,1.4-0.2,2
	c-6.7,10.3-13.4,20.7-20.3,31C100,163,99,163.4,98.1,163z M129,162.7c-5.6,1.8-11.3-2.5-11.2-9.6c0.5-2.2,1.2-4.3,2-6.5
	c1.5-3.5,3.2-6.8,5-10.2c0.8-1.5,2.5-1.7,3.3-0.2c2.8,4.8,5.1,9.9,6.7,15.2C136.2,156.8,133.8,161.4,129,162.7z M161,127.4
	c-2.1,7.9-8.8,13.7-16.8,14.7c-0.8,0.1-1.7,0.2-2.4,0.2c-1.4,0-2.2-0.7-2.2-1.8s0.8-1.7,2.1-1.8c3.9,0,7.7-1.4,10.7-4
	c4.9-4.4,7-9.9,5.2-16.4c-1.8-6.5-6.1-10.5-12.6-12c-2.2-0.3-4.5-0.4-6.7-0.2c-1.4,0-2-0.3-2.4-1.7c-2.5-8.3-10.3-12.3-18.5-9.1
	c-1.4,0.5-2.2,0.2-2.8-1.2c-3.1-7.3-10.4-11.9-18.3-11.4c-1.6,0-3.2,0.3-4.8,0.8c-9.5,3-14.8,13.1-11.8,22.5
	c0.8,2.3,0.3,2.9-2.5,3.2c-7.7,0.7-13.5,7.1-13.4,14.8c0.1,8.1,6.8,14.6,14.9,14.5c0.9-0.1,1.7,0.6,1.8,1.5v0.1
	c0.2,0.9-0.4,1.8-1.3,1.9c-0.2,0.1-0.5,0.1-0.8,0.1c-9.3,0-17.2-7.4-18.1-16.9c-0.9-8.9,5.7-17.6,14.7-19.2c0.3-0.1,0.7-0.2,1-0.3
	c-1.7-9.5,1-17.2,8.7-22.6c8.1-5.7,16.6-5.2,25.2-0.3l0.9-1.2c3.8-5,9.5-8.3,15.7-9.3c13.4-2.1,26,7.1,28,20.5
	c0.2,1.2,0.3,2.4,0.3,3.5c0,2.8-0.5,5.6-1.5,8.3c-0.4,0.5-0.2,1.3,0.3,1.6c0,0.1,0,0.1,0.1,0.1C160.1,111.3,163,119.6,161,127.4z
	 M165,96.9c0,0.8-0.6,1.4-1.3,1.5c-0.7,0.1-1.4,0.1-2.1,0.1s-1.4,0-2.1-0.1c-0.8,0-1.5-0.7-1.5-1.6v-0.2c0-0.9,0.6-1.6,1.5-1.6h4
	c0.8,0,1.5,0.7,1.5,1.5V96.9z M140.2,78.2c-9.6-5.1-21.9-2.1-27.4,6.7c1.4,1.9,2.8,3.8,4,5.7c0,0,0,0,0,0.1c0,0,0,0,0,0c0,0,0,0,0,0
	c0.2,0.6,0.9,0.8,1.4,0.6c2.7-0.8,5.6-0.8,8.3-0.2c5.5,1.2,10,5.1,12,10.3v0.1c0.2,0.6,0.8,0.9,1.4,0.8c1-0.1,2.1,0,3.2,0.1
	c2.2,0.3,4.4,0.9,6.6,1.4l0.1,0C153.2,95.5,150.1,83.7,140.2,78.2z M104,129.1c0.6-2.6,1.3-5.1,1.9-7.7c0.3-1.2,0.5-2.4,0.9-3.6h-10
	c-0.2,0-0.7,0.4-0.8,0.7c-0.8,2.3-1.7,4.8-2.4,7.2c-1.1,3-2,6.2-3.2,9.5h12.9c1.7,0,2.3,0.8,2,2.4c-0.5,2.8-1.1,5.5-1.7,8.3
	c-0.4,2.1-0.8,4.2-1.2,6.3l0.3,0.1l13.5-20.4h-10.2C104.1,132,103.4,131.1,104,129.1z M106.1,132c-1.9,0-2.7-0.9-2.1-2.8
	c0.6-2.6,1.3-5.1,1.9-7.7c0.3-1.2,0.5-2.4,0.9-3.6h-10c-0.2,0-0.7,0.4-0.8,0.7c-0.8,2.3-1.7,4.8-2.4,7.2c-1.1,3-2,6.2-3.2,9.5h12.9
	c1.7,0,2.3,0.8,2,2.4c-0.5,2.8-1.1,5.5-1.7,8.3c-0.4,2.1-0.8,4.2-1.2,6.3l0.3,0.1l13.5-20.4H106.1z M140.2,78.2
	c-9.6-5.1-21.9-2.1-27.4,6.7c1.4,1.9,2.8,3.8,4,5.7c0,0,0,0,0,0.1c0,0,0,0,0,0c0,0,0,0,0,0c0.2,0.6,0.9,0.8,1.4,0.6
	c2.7-0.8,5.6-0.8,8.3-0.2c5.5,1.2,10,5.1,12,10.3v0.1c0.2,0.6,0.8,0.9,1.4,0.8c1-0.1,2.1,0,3.2,0.1c2.2,0.3,4.4,0.9,6.6,1.4l0.1,0
	C153.2,95.5,150.1,83.7,140.2,78.2z M140.2,78.2c-9.6-5.1-21.9-2.1-27.4,6.7c1.4,1.9,2.8,3.8,4,5.7c0,0,0,0,0,0.1c0,0,0,0,0,0
	c0,0,0,0,0,0c0.2,0.6,0.9,0.8,1.4,0.6c2.7-0.8,5.6-0.8,8.3-0.2c5.5,1.2,10,5.1,12,10.3v0.1c0.2,0.6,0.8,0.9,1.4,0.8
	c1-0.1,2.1,0,3.2,0.1c2.2,0.3,4.4,0.9,6.6,1.4l0.1,0C153.2,95.5,150.1,83.7,140.2,78.2z M106.1,132c-1.9,0-2.7-0.9-2.1-2.8
	c0.6-2.6,1.3-5.1,1.9-7.7c0.3-1.2,0.5-2.4,0.9-3.6h-10c-0.2,0-0.7,0.4-0.8,0.7c-0.8,2.3-1.7,4.8-2.4,7.2c-1.1,3-2,6.2-3.2,9.5h12.9
	c1.7,0,2.3,0.8,2,2.4c-0.5,2.8-1.1,5.5-1.7,8.3c-0.4,2.1-0.8,4.2-1.2,6.3l0.3,0.1l13.5-20.4H106.1z M106.1,132
	c-1.9,0-2.7-0.9-2.1-2.8c0.6-2.6,1.3-5.1,1.9-7.7c0.3-1.2,0.5-2.4,0.9-3.6h-10c-0.2,0-0.7,0.4-0.8,0.7c-0.8,2.3-1.7,4.8-2.4,7.2
	c-1.1,3-2,6.2-3.2,9.5h12.9c1.7,0,2.3,0.8,2,2.4c-0.5,2.8-1.1,5.5-1.7,8.3c-0.4,2.1-0.8,4.2-1.2,6.3l0.3,0.1l13.5-20.4H106.1z
	 M106.1,132c-1.9,0-2.7-0.9-2.1-2.8c0.6-2.6,1.3-5.1,1.9-7.7c0.3-1.2,0.5-2.4,0.9-3.6h-10c-0.2,0-0.7,0.4-0.8,0.7
	c-0.8,2.3-1.7,4.8-2.4,7.2c-1.1,3-2,6.2-3.2,9.5h12.9c1.7,0,2.3,0.8,2,2.4c-0.5,2.8-1.1,5.5-1.7,8.3c-0.4,2.1-0.8,4.2-1.2,6.3
	l0.3,0.1l13.5-20.4H106.1z"/>
<path class="st0" d="M126.5,140.7L126.5,140.7z"/>
</svg>
