<?xml version="1.0" encoding="utf-8"?>
<!-- Generator: Adobe Illustrator 24.3.0, SVG Export Plug-In . SVG Version: 6.00 Build 0)  -->
<svg version="1.1" id="Layer_1" xmlns="http://www.w3.org/2000/svg" xmlns:xlink="http://www.w3.org/1999/xlink" x="0px" y="0px"
	 viewBox="0 0 225 225" style="enable-background:new 0 0 225 225;" xml:space="preserve">
<style type="text/css">
	.st0{fill:#FFFFFF;}
</style>
<path class="st0" d="M94.2,78.7c-9.4,9.9-12,22-13.1,35c-5.7-3.8-11.4-4-17.3-0.2C65.7,96.7,77.8,82.8,94.2,78.7z"/>
<path class="st0" d="M102.1,113.7l-0.1,0c-2.5-1.8-5.5-2.8-8.6-2.9c-3.1,0-6.2,1-8.7,2.8c0.1-1.5,0.2-2.8,0.3-4
	c0.6-7,2.5-13.9,5.8-20.2c1.8-4,4.8-7.4,8.5-9.8c0.9-0.5,1.8-0.9,2.9-1.5V113.7z"/>
<path class="st0" d="M105.6,113.7C105.6,113.7,105.6,113.7,105.6,113.7L105.6,113.7L105.6,113.7z"/>
<path class="st0" d="M105.6,148.9c0.1,1.9,0,3.8-0.3,5.6c-0.7,3.5-3.5,6.2-7,6.8c-3.4,0.6-6.9-0.9-8.8-3.8c-0.7-0.8-0.6-1.9,0.1-2.6
	h0.1c0.8-0.7,1.8-0.4,2.7,0.6c1,1.5,2.6,2.4,4.4,2.4c2.9,0,5.2-2.2,5.3-5.1v-8.8l3.5-0.1V148.9z"/>
<path class="st0" d="M121.9,105c0.4,2.8,0.7,5.6,1.2,8.8c-6-3.9-11.7-3.9-17.4-0.1l-0.1-35.5c0.5,0.3,1,0.3,1.5,0.6
	c3.3,1.7,6,4.2,7.9,7.4C118.7,91.9,120.7,98.3,121.9,105z"/>
<path class="st0" d="M126.5,113.7C126.5,113.7,126.5,113.7,126.5,113.7L126.5,113.7L126.5,113.7z"/>
<path class="st0" d="M143.8,113.4c-5.9-3.8-11.6-3.6-17.2,0.2c-1-12.9-3.7-25-12.9-34.8C127.4,81.8,141.9,95,143.8,113.4z"/>
<path class="st0" d="M140,0H85C38.1,0,0,38.1,0,85v55c0,46.9,38.1,85,85,85h55c46.9,0,85-38.1,85-85V85C225,38.1,186.9,0,140,0z
	 M142.7,66c1.8-1.9,3.6-3.7,5.5-5.5c0.7-0.6,1.8-0.5,2.4,0.3c0.3,0.3,0.4,0.7,0.4,1s-0.1,0.8-0.4,1c-1.8,1.9-3.7,3.7-5.5,5.5
	c-0.3,0.3-0.7,0.5-1.2,0.6c-0.5-0.4-1.2-0.7-1.4-1.2C142.3,67.2,142.4,66.5,142.7,66z M132.2,76.5c1.7-1.9,3.6-3.8,5.5-5.5
	c0.7-0.6,1.8-0.5,2.3,0.2c0.3,0.3,0.4,0.7,0.4,1s-0.1,0.8-0.4,1.1c-1.8,1.9-3.7,3.8-5.5,5.5c-0.4,0.3-0.8,0.5-1.2,0.5
	c-0.5-0.2-1-0.6-1.3-1.1C131.9,77.7,131.9,77.1,132.2,76.5z M147.5,121.1c0,0,0,0.1,0,0.1c-0.1,1-0.9,1.7-1.9,1.6
	c-1-0.1-1.7-0.9-1.6-1.9v-0.6c0.4-1.9-0.6-3-2-4c-4.6-3.6-11.2-3-15,1.4c-0.3,0.3-0.4,0.7-0.5,1.2c0,0.7,0,1.5,0,2.2
	c-0.1,0.7-0.7,1.2-1.4,1.4c-0.9,0.2-1.8-0.4-2-1.4v-1c0.2-1.4-0.4-2.7-1.6-3.4c-4.6-3.9-11.5-3.4-15.4,1.2c-0.3,0.3-0.4,0.6-0.4,1
	v21.5h3.5v11.5c0,6.9-3.8,11.5-10.5,12.9c-0.1,0-0.2,0.1-0.3,0.2h-3.2c-1.7-0.6-3.4-1.2-5.1-2c-2.3-1.2-4-3.4-4.6-6
	c-0.4-2.9,1.6-5.5,4.5-5.9c1.9-0.3,3.8,0.5,4.9,2.1l0.1,0.2c0.3,0.9,1.2,1.4,2.1,1.2c1-0.3,1.3-1.2,1.3-2.2v-11.6h3.5V137
	c-1.4-0.2-3.5,0.4-3.4-1.9c0-2.1,2-1.5,3.4-1.7v-14c-0.1-0.6-0.3-1.2-0.7-1.6l-0.1-0.1c-4.2-4.4-11.1-4.6-15.6-0.5
	c-0.1,0.2-0.3,0.3-0.4,0.4c-0.6,0.4-0.9,1.1-0.8,1.8c0.1,0.6,0.1,1.2,0,1.8c0,0.9-0.8,1.7-1.7,1.7h-0.2c-0.9,0-1.6-0.8-1.6-1.7v-0.9
	c0.3-1.7-0.5-2.7-1.8-3.7c-4.6-3.8-11.3-3.2-15.2,1.2c-0.3,0.3-0.4,0.7-0.4,1.2v1.8c0.1,0.8-0.4,1.6-1.2,1.8c-0.8,0.3-1.7,0-2.1-0.8
	c-0.1,0-0.2,0-0.3-0.2v-7c0.4-2.3,0.6-4.6,1.2-6.8c4.6-17.5,15.6-28.4,33-32.9c2.6-0.5,5.2-1,7.8-1.2v-3c0-1.3,0.7-2.1,1.8-2.1
	c1.1,0,1.8,0.8,1.8,2.1v2.9c0,0,0,0.1,0.1,0.2c1.8,0.3,3.7,0.4,5.5,0.7c15.9,3.1,26.9,12.1,33.3,26.9c2.5,6.1,3.5,12.7,3.2,19.3
	C147.5,121,147.5,121,147.5,121.1z M152,89.4c-1.6,1.7-3.3,3.3-4.9,4.9c-0.6,0.8-1.7,0.9-2.5,0.3c-0.8-0.6-0.9-1.7-0.3-2.5
	c0.1-0.1,0.2-0.3,0.3-0.3c1.7-1.7,3.3-3.4,4.9-4.9c0.5-0.6,1.3-0.8,2-0.4c0.6,0.4,1,0.9,1.4,1.5C152.8,88.4,152.4,88.9,152,89.4z
	 M153.8,73.8c-1.6,1.6-3.3,3.2-4.9,4.9c-0.5,0.8-1.6,1-2.4,0.4l-0.1-0.1c-0.1,0-0.1-0.1-0.2-0.2c-0.7-0.7-0.7-1.8,0-2.5l0.2-0.2
	c1.7-1.7,3.3-3.4,4.9-4.9c0.4-0.6,1.3-0.8,1.9-0.4c0.6,0.4,1.1,0.8,1.5,1.4C154.5,72.7,154.1,73.2,153.8,73.8z M164.6,76.8
	c-1.8,1.9-3.7,3.8-5.6,5.6c-0.4,0.2-0.8,0.3-1.2,0.4c-0.4-0.3-1-0.6-1.2-1.2c-0.2-0.6-0.2-1.2,0.1-1.8c1.8-1.9,3.6-3.8,5.5-5.6
	c0.8-0.5,1.8-0.2,2.4,0.5C165,75.3,165,76.2,164.6,76.8z M164.6,62.9c-1.8,1.9-3.7,3.7-5.5,5.5c-0.3,0.3-0.7,0.5-1.2,0.6
	c-0.5-0.4-1.2-0.7-1.4-1.2c-0.2-0.6-0.2-1.2,0.2-1.8c1.8-1.9,3.6-3.7,5.5-5.5c0.7-0.6,1.8-0.5,2.4,0.3c0.3,0.3,0.4,0.7,0.4,1
	S164.9,62.6,164.6,62.9z"/>
<path class="st0" d="M143.7,113.3L143.7,113.3z"/>
</svg>
