<?xml version="1.0" encoding="utf-8"?>
<!-- Generator: Adobe Illustrator 24.3.0, SVG Export Plug-In . SVG Version: 6.00 Build 0)  -->
<svg version="1.1" id="Layer_1" xmlns="http://www.w3.org/2000/svg" xmlns:xlink="http://www.w3.org/1999/xlink" x="0px" y="0px"
	 viewBox="0 0 225 225" style="enable-background:new 0 0 225 225;" xml:space="preserve">
<style type="text/css">
	.st0{fill:#FFFFFF;}
</style>
<path class="st0" d="M140,0H85C38.1,0,0,38.1,0,85v55c0,46.9,38.1,85,85,85h55c46.9,0,85-38.1,85-85V85C225,38.1,186.9,0,140,0z
	 M104.5,77.8c0-4.3,4.9-13.2,7.9-16.3c0.6-0.8,7.9,12.1,7.9,16.4v0.1c0,4.3-3.5,7.8-7.9,7.8h0C108,85.8,104.5,82.2,104.5,77.8
	L104.5,77.8z M150.1,149.7c-4,4.8-9.2,7.7-14.9,9.9c-5.8,2.2-12,3.5-18.2,3.8c-0.3,0-0.7,0.1-1.1,0.2H109c-1.8-0.2-3.5-0.3-5.4-0.6
	c-7.8-0.8-15.2-3.3-21.9-7.3c-1.5-0.9-2.9-2-4.2-3.1c-0.6-0.4-0.8-1.3-0.4-1.9c0.4-0.6,1.1-0.8,1.8-0.5c0.1,0.1,0.3,0.2,0.3,0.3
	c5.7,5,12.5,7.6,19.8,9c11.3,2.4,22.9,1.7,33.9-1.9c5.3-1.6,10.1-4.5,14.1-8.4c2.8-2.6,4.5-6.1,4.8-9.9c0.1-3.8-1.3-7.5-3.9-10.3
	c-3.4-3.9-7.7-6.4-12.4-8.4c-4.6-1.9-9.4-3.2-14.3-3.8c-0.1,0-0.2,0-0.3,0.1c0.2,0.5,0.4,1,0.6,1.5c1.1,2.1,3,3.8,5.2,4.6
	c3,1,5.6,2.8,7.7,5.1c1,1.3,1.9,2.6,2.6,4.1c0.3,0.6,0.1,1.4-0.5,1.7c-0.1,0-0.1,0.1-0.2,0.1c-0.6,0.3-1.4,0-1.7-0.6
	c0-0.1-0.1-0.1-0.1-0.2c-1.2-2.5-3.1-4.6-5.6-6c-1.2-0.7-2.4-1.3-3.7-1.8c-4.9-2.3-7.6-6.2-7.6-11.7c-0.1-4.7,0-9.3,0-14
	c0.1-2.8-2.2-5.2-5-5.3c-2.8-0.1-5.2,2.1-5.3,4.9v13.8c0,1.8-0.3,3.6-0.9,5.3c-1.2,3.1-3.6,5.6-6.7,6.9c-2.3,0.9-4.5,2.2-6.4,3.8
	c-0.2,0.2-0.4,0.4-0.6,0.6c-3.9,3.9-3.8,8.6,0.2,12.4c2.7,2.4,6,4.1,9.5,4.9c7.9,2.2,16.2,1.7,23.8-1.3c2.3-0.9,4.4-2.3,6.1-4.1
	c0.9-1,1.6-2.2,2.2-3.4c0.5-0.9,1.1-1.3,1.9-1.1c0.7,0.3,1.1,1.1,0.8,1.8l-0.1,0.2c-1,2.6-2.8,4.9-5.2,6.4c-3.9,2.7-8.4,4.4-13.1,5
	c-6.7,1.1-13.5,0.5-19.9-1.8c-3-1-5.7-2.6-8-4.8c-5.3-4.9-5.3-11.7,0.1-16.6c2.1-1.9,4.5-3.4,7.2-4.4c2.5-1,4.5-2.9,5.5-5.4
	c0.1-0.2,0.2-0.5,0.3-0.8c-1.9,0.3-3.5,0.6-5.3,0.9c-6.2,1.1-12.1,3.6-17.2,7.2c-2.6,1.8-4.8,4.1-6.5,6.8c-2.8,4.3-2.7,9.9,0.1,14.2
	c0.2,0.2,0.3,0.4,0.4,0.7c0.4,0.6,0.3,1.4-0.3,1.9c-0.2,0.2-0.5,0.2-0.8,0.2c-0.4,0-0.8-0.2-1-0.5c0,0-0.1-0.1-0.1-0.2
	c-1.5-2.1-2.5-4.6-2.8-7.1c-1-5.8,1.1-10.5,4.8-14.6c4.2-4.2,9.3-7.4,15-9.3c4.5-1.6,9.2-2.7,14-3.2c0-0.3,0.1-0.7,0.1-1.1v-13
	c-0.1-4.4,3.4-8,7.7-8.1c4.4-0.1,8,3.4,8.1,7.7c0.1,4.5,0,8.9,0,13.4v0.9c2.4,0.4,4.7,0.8,7,1.3c7.2,1.6,13.8,4.2,19.5,8.9
	c3.5,2.9,6.2,6.4,7.3,10.9C155.4,140.3,153.8,145.2,150.1,149.7z M112.2,83h0.2c2.8,0,5.1-2.3,5.1-5.1v0c0-2.9-4.5-12.8-5-12.4
	c-2.3,1.6-5.4,9.6-5.4,12.4C107.2,80.7,109.4,83,112.2,83z"/>
</svg>
