<?xml version="1.0" encoding="utf-8"?>
<!-- Generator: Adobe Illustrator 24.3.0, SVG Export Plug-In . SVG Version: 6.00 Build 0)  -->
<svg version="1.1" id="Layer_1" xmlns="http://www.w3.org/2000/svg" xmlns:xlink="http://www.w3.org/1999/xlink" x="0px" y="0px"
	 viewBox="0 0 225 225" style="enable-background:new 0 0 225 225;" xml:space="preserve">
<style type="text/css">
	.st0{fill:#FFFFFF;}
</style>
<path class="st0" d="M140,0H85C38.1,0,0,38.1,0,85v55c0,46.9,38.1,85,85,85h55c46.9,0,85-38.1,85-85V85C225,38.1,186.9,0,140,0z
	 M106,147.6c0,1.8-0.9,3-2.4,3.3c-1.5,0.2-3-0.8-3.3-2.3c0-0.3-0.1-0.4,0-0.7v-31.9c-0.1-1,0.4-2.1,1.2-2.7c1.2-0.9,2.9-0.7,3.8,0.5
	l0.1,0.1c0.3,0.4,0.5,0.9,0.5,1.3V147.6z M117.7,155.4c0,1.5-1.2,2.8-2.7,2.8h-0.2c-1.5,0-2.7-1.3-2.7-2.8v-32.2c0-2,1.2-3.2,3-3
	c1.2-0.1,2.3,0.8,2.5,2c0.1,0.5,0.1,0.9,0.1,1.4V155.4z M129.4,147.8c0.1,1.6-1.1,3-2.7,3c-0.7,0-1.5-0.2-2-0.7
	c-0.7-0.7-1.1-1.7-0.9-2.6V116c-0.2-1.5,0.9-3,2.4-3.3c1.5-0.3,2.9,0.7,3.2,2.2v17l0,0V147.8z M164.9,116.6
	c-0.5,7.5-4.5,14.4-10.7,18.6c-3.6,2.5-7.8,3.9-12.2,3.9c-2.5,0.1-5.1,0-7.7,0v-5.8c1.9,0,3.9-0.1,5.7,0
	c12.6,0.9,20.5-10.8,19.2-21.7c-0.5-6.4-4.2-12.1-9.7-15.3c-0.1-0.1-0.2-0.1-0.3-0.2c-1-0.3-1.3-0.9-1.3-2
	c-0.4-9.1-6.2-17.2-14.7-20.6c-9.3-3.4-19.6,0.3-25.3,9.1c-1.8,2.9-3,6.2-3.6,9.6c0,0.3-0.1,0.5-0.2,0.9c-4.6-2.5-9.2-2.8-13.5,0.4
	c-4.1,3-5.7,7.5-5.4,12.4c-1.4-0.5-2.9-1-4.4-1.2c-4.2-0.7-8.4,0.8-11.2,3.9c-6.6,6.7-4.8,19,3.5,23.4c1.9,1,4,1.4,6.1,1.4h16.2v5.8
	H79.6c-9.9,0-18.2-7.3-19.5-17.1c0-0.3-0.1-0.6-0.2-0.9v-4.5c0.2-0.9,0.4-1.9,0.6-2.9c2-8.8,9.8-14.9,18.8-14.9c0.8,0,0.9-0.4,1-0.9
	c1.8-5.2,5.7-9.3,10.8-11.3c2.5-1,5.2-1.4,7.8-1c0.5,0.2,1.1-0.1,1.3-0.6c0,0,0,0,0-0.1c0,0,0-0.1,0-0.1c3.4-8.4,9.3-14.3,18-17
	c12.3-3.9,25.8,2.2,31.9,14.2c1.5,2.9,2.5,6,3,9.2c0.1,0.5,0.4,0.9,0.8,1.2C162.3,98.4,165.8,106.5,164.9,116.6z"/>
</svg>
