<?xml version="1.0" encoding="utf-8"?>
<!-- Generator: Adobe Illustrator 24.3.0, SVG Export Plug-In . SVG Version: 6.00 Build 0)  -->
<svg version="1.1" id="Layer_1" xmlns="http://www.w3.org/2000/svg" xmlns:xlink="http://www.w3.org/1999/xlink" x="0px" y="0px"
	 viewBox="0 0 225 225" style="enable-background:new 0 0 225 225;" xml:space="preserve">
<style type="text/css">
	.st0{fill:#FFFFFF;}
</style>
<path class="st0" d="M140,0H85C38.1,0,0,38.1,0,85v55c0,46.9,38.1,85,85,85h55c46.9,0,85-38.1,85-85V85C225,38.1,186.9,0,140,0z
	 M78.1,101c1.7,0,3.4-0.3,5-1c2.1-1,3.4-3.2,3.2-5.5c0-0.7,0.3-1.1,0.8-1.2c0.5,0,0.9,0.4,0.9,1.1c0.1,3.9,2,5.3,4.3,6.1
	c2.3,0.8,4.9,0.7,7.1-0.2c1.2-0.4,2.2-1.3,2.8-2.5c0.4-1,0.6-2.1,0.8-3.1c0.1-0.8,0.3-1.3,0.8-1.3c0.5,0,0.9,0.6,0.9,1.3
	c-0.1,2,0.9,3.9,2.5,5c2.8,1.8,6.4,1.8,9.2,0.1c1.8-1,2.8-3,2.6-5c0-0.8,0.3-1.4,0.9-1.4c0.6,0,0.8,0.6,0.8,1.4
	c-0.2,1.8,0.7,3.5,2.1,4.6c3,2.2,7.1,2.2,10.2,0.1c1.4-0.9,2.1-2.5,2.2-4.6c0-1,0.4-1.5,0.8-1.5c0.5,0,0.8,0.5,0.9,1.5
	c0,1.8,0.8,3.5,2.3,4.6c1.7,1.1,3.8,1.6,5.8,1.5c0.6-0.1,1.1,0.3,1.3,0.8v1c-0.4,0.3-0.9,0.5-1.4,0.7c-1.9,0.1-3.9-0.3-5.6-1.2
	c-1.4-0.8-2.5-1.9-3.2-3.3c-2.9,6-13.2,6-16.3,0.1c-3,6-13.1,5.8-16.2,0c-2.1,3.7-5.2,4.4-8.2,4.4c-3,0-6.2-0.7-8.3-4.4H87
	c-1.3,2.4-3.8,4-6.5,4.2c-0.9,0.2-1.7,0.3-2.6,0.2c-0.4,0-0.9-0.3-0.9-1.2C77,101.4,77.4,101,78.1,101z M63.3,117.4
	c-0.6,0.1-1.2-0.4-1.3-1v-0.2c0-0.7,0.6-1.1,1.4-1.3c2.2-0.3,4.6-0.4,6.8-0.8c1.5-0.2,2.8-1,3.6-2.3c0.6-1,1-2,1.2-3.1
	c0.2-0.8,0.4-1.4,1.3-1.4c0.7,0,1.3,0.5,1.3,1.2v0.2c0,2.2,1.3,4.1,3.3,4.8c4.4,1.9,9.4,1.9,13.8,0.1c2.2-0.7,3.6-2.8,3.6-5.1
	c0-0.6,0.4-1.2,1.1-1.3h0.1c0.5-0.1,1.1,0.3,1.2,0.8v0.1c0.1,3.9,2.7,5.3,6,6.1c3.2,0.8,6.5,0.7,9.6-0.3c2.1-0.7,3.8-1.8,4.4-4
	c0-0.5,0.2-1,0.2-1.5c0-0.7,0.6-1.2,1.3-1.2c0.6,0,1.1,0.5,1.2,1.1v0.1c0,2.3,1.5,4.4,3.8,5.1c4,1.7,8.4,1.7,12.4,0.1
	c2.4-0.6,4-2.8,4-5.2c-0.1-0.6,0.4-1.2,1-1.3h0.3c0.9,0,1.1,0.6,1.1,1.4c0,2.1,1.4,4,3.3,4.8c2.3,1,4.8,1.5,7.2,1.4h0.6
	c1.2,0,1.8,0.4,1.8,1.2s-0.6,1.3-1.8,1.3c-2.7,0.1-5.3-0.3-7.9-1.2c-1.8-0.6-3.3-1.8-4.4-3.3c-4.2,6-18.3,6-22.6,0.1
	c-6.3,6-16.2,6-22.5,0c-6.5,6.3-17.7,6.3-23.5,0.3C72.8,117,68.1,117.4,63.3,117.4z M161.5,131.5c-2.3,0.1-4.6-0.3-6.8-1.2
	c-1.6-0.7-2.9-1.8-3.8-3.2c-3.5,6-15.6,6-19.2,0.1c-5.4,6-13.9,6-19.2,0c-5.3,6-14.7,6-19.7,0c-2.9,4-6.9,4.4-11,4.4
	c-0.6,0-1.1-0.4-1.1-1.3c0-0.6,0.5-1.2,1.1-1.2c1.9-0.3,3.9-0.4,5.8-0.8c1.3-0.3,2.5-1.1,3.1-2.3c0.5-1,0.8-2,1-3.1
	c0.1-0.8,0.4-1.4,1.1-1.4s1.1,0.6,1.1,1.4c-0.1,2,1,3.9,2.9,4.8c3.7,1.9,8,1.9,11.7,0.1c2-0.9,3.2-3,3-5.1c0-0.7,0.4-1.3,1-1.3
	c0.5,0,1,0.3,1,0.8v0.1c0.1,3.9,2.3,5.3,5,6.1c2.7,0.8,5.6,0.7,8.2-0.3c1.9-0.6,3.3-2.1,3.8-4c0-0.5,0.1-1,0.2-1.5
	c0.1-0.8,0.4-1.2,1.1-1.2s1,0.5,1,1.3c-0.1,2.2,1.2,4.2,3.2,5.1c3.3,1.6,7.2,1.7,10.6,0.1c2.1-0.8,3.5-2.9,3.3-5.2
	c0-0.8,0.4-1.4,1.1-1.3c0.7,0,1,0.6,1,1.4c-0.1,2,1,3.9,2.8,4.8c1.9,1,4,1.5,6.2,1.4h0.5c1.1,0.1,1.6,0.4,1.6,1.2
	C163,131,162.5,131.5,161.5,131.5z"/>
</svg>
