<?xml version="1.0" encoding="utf-8"?>
<!-- Generator: Adobe Illustrator 24.3.0, SVG Export Plug-In . SVG Version: 6.00 Build 0)  -->
<svg version="1.1" id="Layer_1" xmlns="http://www.w3.org/2000/svg" xmlns:xlink="http://www.w3.org/1999/xlink" x="0px" y="0px"
	 viewBox="0 0 225 225" style="enable-background:new 0 0 225 225;" xml:space="preserve">
<style type="text/css">
	.st0{fill:#FFFFFF;}
</style>
<path class="st0" d="M104.3,118.3v20.8c0,0.3,0.2,0.6,0.5,0.8c0.8,0.8,1.7,1.4,2.5,2.1c2.9,2.7,7.4,2.7,10.3,0
	c0.8-0.6,1.6-1.3,2.5-1.9c0.5-0.2,0.7-0.7,0.7-1.2v-20.6H104.3z M104.3,118.3v20.8c0,0.3,0.2,0.6,0.5,0.8c0.8,0.8,1.7,1.4,2.5,2.1
	c2.9,2.7,7.4,2.7,10.3,0c0.8-0.6,1.6-1.3,2.5-1.9c0.5-0.2,0.7-0.7,0.7-1.2v-20.6H104.3z M104.3,118.3v20.8c0,0.3,0.2,0.6,0.5,0.8
	c0.8,0.8,1.7,1.4,2.5,2.1c2.9,2.7,7.4,2.7,10.3,0c0.8-0.6,1.6-1.3,2.5-1.9c0.5-0.2,0.7-0.7,0.7-1.2v-20.6H104.3z M104.3,118.3v20.8
	c0,0.3,0.2,0.6,0.5,0.8c0.8,0.8,1.7,1.4,2.5,2.1c2.9,2.7,7.4,2.7,10.3,0c0.8-0.6,1.6-1.3,2.5-1.9c0.5-0.2,0.7-0.7,0.7-1.2v-20.6
	H104.3z M104.3,118.3v20.8c0,0.3,0.2,0.6,0.5,0.8c0.8,0.8,1.7,1.4,2.5,2.1c2.9,2.7,7.4,2.7,10.3,0c0.8-0.6,1.6-1.3,2.5-1.9
	c0.5-0.2,0.7-0.7,0.7-1.2v-20.6H104.3z M104.3,118.3v20.8c0,0.3,0.2,0.6,0.5,0.8c0.8,0.8,1.7,1.4,2.5,2.1c2.9,2.7,7.4,2.7,10.3,0
	c0.8-0.6,1.6-1.3,2.5-1.9c0.5-0.2,0.7-0.7,0.7-1.2v-20.6H104.3z M104.3,118.3v20.8c0,0.3,0.2,0.6,0.5,0.8c0.8,0.8,1.7,1.4,2.5,2.1
	c2.9,2.7,7.4,2.7,10.3,0c0.8-0.6,1.6-1.3,2.5-1.9c0.5-0.2,0.7-0.7,0.7-1.2v-20.6H104.3z M104.3,118.3v20.8c0,0.3,0.2,0.6,0.5,0.8
	c0.8,0.8,1.7,1.4,2.5,2.1c2.9,2.7,7.4,2.7,10.3,0c0.8-0.6,1.6-1.3,2.5-1.9c0.5-0.2,0.7-0.7,0.7-1.2v-20.6H104.3z M104.3,118.3v20.8
	c0,0.3,0.2,0.6,0.5,0.8c0.8,0.8,1.7,1.4,2.5,2.1c2.9,2.7,7.4,2.7,10.3,0c0.8-0.6,1.6-1.3,2.5-1.9c0.5-0.2,0.7-0.7,0.7-1.2v-20.6
	H104.3z M104.3,118.3v20.8c0,0.3,0.2,0.6,0.5,0.8c0.8,0.8,1.7,1.4,2.5,2.1c2.9,2.7,7.4,2.7,10.3,0c0.8-0.6,1.6-1.3,2.5-1.9
	c0.5-0.2,0.7-0.7,0.7-1.2v-20.6H104.3z M104.3,118.3v20.8c0,0.3,0.2,0.6,0.5,0.8c0.8,0.8,1.7,1.4,2.5,2.1c2.9,2.7,7.4,2.7,10.3,0
	c0.8-0.6,1.6-1.3,2.5-1.9c0.5-0.2,0.7-0.7,0.7-1.2v-20.6H104.3z M104.3,118.3v20.8c0,0.3,0.2,0.6,0.5,0.8c0.8,0.8,1.7,1.4,2.5,2.1
	c2.9,2.7,7.4,2.7,10.3,0c0.8-0.6,1.6-1.3,2.5-1.9c0.5-0.2,0.7-0.7,0.7-1.2v-20.6H104.3z M140,0H85C38.1,0,0,38.1,0,85v55
	c0,46.9,38.1,85,85,85h55c46.9,0,85-38.1,85-85V85C225,38.1,186.9,0,140,0z M132.6,70.3c0.3-2.4,2.2-4.3,4.6-4.5
	c1.2-0.2,2.5-0.2,3.7,0c2.8,0.3,4.8,2.6,4.8,5.4c-0.1,3.4-0.1,6.8-0.1,10.2v9.9c0,0.3-0.1,0.7-0.2,1c-0.3,0.8-1.2,1.3-2.1,1
	c-0.6-0.2-1-0.7-1.1-1.2V71.5c0-2-0.7-2.7-2.7-2.7h-1.7c-1.1-0.1-2.1,0.8-2.1,1.8v10.8c-0.1,0.8-0.8,1.4-1.7,1.3c-0.1,0-0.1,0-0.2,0
	c-0.7,0-1.3-0.5-1.4-1.2v-0.1h0C132.5,77.8,132.4,74,132.6,70.3z M114.3,70l38.3,38c0.3,0.3,0.6,0.6,0.8,0.9
	c0.5,0.6,0.5,1.6-0.1,2.1c-0.3,0.3-0.7,0.5-1.1,0.5c-0.3,0-0.6-0.1-0.9-0.3l-0.1-0.1c-0.3-0.2-0.5-0.4-0.7-0.6
	c-12.3-12.3-24.7-24.6-37-36.9c-0.3-0.3-0.6-0.7-0.8-1c-2.7,2.7-5.2,5.4-7.8,7.9c-10.1,10.1-20.1,20-30.2,30.1
	c-0.2,0.3-0.5,0.5-0.8,0.7c-0.7,0.4-1.5,0.3-2.1-0.3c-0.6-0.5-0.6-1.4-0.2-2c0.2-0.2,0.4-0.5,0.6-0.7L110.8,70
	C112.2,68.5,112.8,68.5,114.3,70z M113.7,86.4c-1.1,1.2-2.3,2.3-3.5,3.4l0.1,0.3h8.8c0.9-0.1,1.7,0.6,1.8,1.5v0.1
	c0,0.9-0.7,1.6-1.6,1.7H106c-0.7,0.1-1.4-0.4-1.6-1.1c-0.1-0.6,0.1-1.2,0.4-1.7c2.1-2.2,4.3-4.4,6.4-6.5c0.5-0.7,1.6-0.9,2.3-0.3
	c0.7,0.5,0.9,1.6,0.3,2.3C113.9,86.2,113.8,86.2,113.7,86.4z M71.5,86.5c0.4-0.5,0.8-0.9,1.3-1.3c0.5,0.3,1,0.6,1.5,0.9
	c1.6,1.5,3.1,3.1,4.6,4.5c0.7,0.6,0.9,1.6,0.3,2.3c0,0,0,0,0,0c0,0.1-0.1,0.1-0.2,0.2c-0.7,0.7-1.7,0.7-2.4,0
	c-0.1-0.1-0.1-0.2-0.2-0.2l-4.7-4.7C71.3,87.8,71.1,87.1,71.5,86.5z M89.8,66.1c0.3-0.4,0.7-0.6,1.2-0.6c0.3,0,0.6,0.1,0.8,0.3
	c0,0,0,0,0,0c0,0,0.1,0,0.1,0.1c1.3,1.2,2.6,2.5,3.9,3.8c0.2,0.3,0.4,0.7,0.4,1.1c-0.3,0.4-0.6,1-1,1.2c-0.5,0.2-1.1,0.1-1.7-0.1
	c-1.3-1.2-2.6-2.4-3.8-3.6C89.1,67.5,89.2,66.6,89.8,66.1z M79.7,70C79.7,70,79.7,70,79.7,70L79.7,70c0.4-0.5,0.8-0.9,1.3-1.4
	c0.5,0.3,1,0.6,1.5,0.9c3.2,3.1,6.4,6.4,9.5,9.5c0.7,0.5,0.8,1.6,0.3,2.3l-0.2,0.2c-0.6,0.6-1.5,0.7-2.2,0.1l-0.1-0.1
	c-0.1,0-0.1-0.1-0.2-0.2c-3.2-3.2-6.4-6.4-9.5-9.7C79.6,71.4,79.3,70.6,79.7,70z M76.5,79.7c0.2-0.5,0.8-0.7,1.3-1.1
	c0.4,0.2,0.9,0.4,1.2,0.7c0.6,0.5,1.2,1.1,1.7,1.7c0.5,0.8,0.3,1.8-0.4,2.3c-0.6,0.4-1.3,0.4-1.9,0c-0.6-0.5-1.2-1.1-1.7-1.8
	C76.4,81,76.3,80.3,76.5,79.7z M65.3,67.8c0.5-0.6,1.4-0.7,2.1-0.2l0.1,0.1c2.3,2.1,4.4,4.4,6.7,6.7c0.2,0.4,0.4,0.8,0.6,1.2
	c-0.3,0.5-0.8,0.9-1.2,1.3c-0.6,0.3-1.4,0.2-1.8-0.4L66,71c-0.3-0.3-0.6-0.6-0.9-1C64.6,69.3,64.7,68.4,65.3,67.8z M63.4,77.7
	l0.1-0.1c0.5-0.6,1.4-0.7,2-0.3c0,0,0.1,0,0.1,0.1c1.3,1.2,2.5,2.5,3.7,3.7c0.2,0.3,0.4,0.7,0.4,1.1c-0.3,0.4-0.6,1-1.1,1.1
	c-0.5,0.2-1.2,0.2-1.7-0.1c-1.3-1-2.5-2.2-3.6-3.4C62.9,79.2,62.9,78.3,63.4,77.7z M161.9,157.5c-1.3,1.3-2,1.3-3.3,0l-1.2-1.3
	c-2.9-2.9-7.6-3-10.5-0.2c-2,2-4.6,3.2-7.4,3.4c-3.1,0.2-6.2-1-8.4-3.2c-1.7-1.7-4.1-2.5-6.4-2.1c-1.8,0.3-3.5,1.2-4.8,2.5
	c-2.2,2.1-5.3,3.2-8.3,2.9c-2.7-0.3-5.2-1.5-7.1-3.4c-2.7-2.5-6.9-2.7-9.8-0.4c-0.5,0.3-0.9,0.7-1.3,1.1c-3.6,3.2-8.9,3.6-13,1
	c-0.8-0.5-1.6-1.2-2.2-1.8c-3-2.7-7.5-2.6-10.4,0.2c-0.7,0.6-1.3,1.3-1.9,1.9c-0.6,0.6-1.5,0.6-2.1,0l-0.1-0.1
	c-0.6-0.5-0.7-1.4-0.2-2.1l0.1-0.1c2.6-3,5.5-5,9.4-5c0.4,0,0.8,0,1.2,0.1c2.6,0.3,5,1.4,6.8,3.2c2.2,2.2,5.5,2.9,8.3,1.6
	c0.9-0.4,1.7-1,2.5-1.7c4.8-4.3,10.8-4.3,15.5,0c3,3,7.8,3,10.8,0c2.4-2.2,5.1-3.2,7.8-3.2c2.7,0,5.4,1.1,7.8,3.2
	c3,2.9,7.7,3,10.7,0.1c5.1-4.6,11.3-4.4,16.2,0.4c0.6,0.6,1.1,1.2,1.6,1.8L161.9,157.5z M162.1,144.8c-1,1.6-2,1.6-3.3,0.3
	c-1.6-1.7-3.2-3.1-5.6-3.4c-2.3-0.3-4.6,0.5-6.3,2.1c-4.8,4.6-11.4,4.3-15.4,0.4c-2.1-2-4.5-3.1-7.4-2.2c-1.4,0.5-2.6,1.2-3.7,2.1
	c-4.7,4.2-10.8,4.2-15.4,0l-0.3-0.3c-3-2.9-7.8-2.7-10.7,0.3c-4.2,4.2-11,4.2-15.3,0.1c-1.9-1.9-4.6-2.8-7.2-2.2
	c-1.5,0.4-2.9,1.2-4,2.3c-0.3,0.4-0.7,0.8-1.1,1.1l-0.1,0.1c0,0,0,0,0,0c-0.6,0.7-1.7,0.8-2.5,0.1l-0.2-0.2
	c-0.5-0.7-0.4-1.7,0.3-2.3c3.8-4.4,8.4-5.8,14.1-3.6v-26.2c0-1,0.8-1.8,1.7-1.8c1,0,1.6,0.8,1.6,2v27.2c-0.1,0.8,0.4,1.6,1.1,2
	c2.9,1.8,6.5,1.4,9-0.9c3.3-2.9,5.3-3.7,9.7-3.4v-21.3c0-1.8,0.6-2.2,2.3-2.2h18.5c1.7,0,2.2,0.6,2.2,2.2v21.4
	c2.1-0.3,4.3,0,6.2,0.9c1.2,0.7,2.4,1.5,3.5,2.5c2.6,2.2,6.4,2.5,9.3,0.7c0.6-0.2,1-0.8,0.8-1.5v-26.4c0.1-0.7,0.6-1.3,1.3-1.5
	c0.9-0.2,1.7,0.4,1.9,1.2c0.1,0.4,0.1,0.8,0.1,1.2v23.8c6.2-2.5,11-0.5,14.9,4.4V144.8z M104.3,139.1c0,0.3,0.2,0.6,0.5,0.8
	c0.8,0.8,1.7,1.4,2.5,2.1c2.9,2.7,7.4,2.7,10.3,0c0.8-0.6,1.6-1.3,2.5-1.9c0.5-0.2,0.7-0.7,0.7-1.2v-20.6h-16.5V139.1z M104.3,118.3
	v20.8c0,0.3,0.2,0.6,0.5,0.8c0.8,0.8,1.7,1.4,2.5,2.1c2.9,2.7,7.4,2.7,10.3,0c0.8-0.6,1.6-1.3,2.5-1.9c0.5-0.2,0.7-0.7,0.7-1.2
	v-20.6H104.3z M104.3,118.3v20.8c0,0.3,0.2,0.6,0.5,0.8c0.8,0.8,1.7,1.4,2.5,2.1c2.9,2.7,7.4,2.7,10.3,0c0.8-0.6,1.6-1.3,2.5-1.9
	c0.5-0.2,0.7-0.7,0.7-1.2v-20.6H104.3z M104.3,118.3v20.8c0,0.3,0.2,0.6,0.5,0.8c0.8,0.8,1.7,1.4,2.5,2.1c2.9,2.7,7.4,2.7,10.3,0
	c0.8-0.6,1.6-1.3,2.5-1.9c0.5-0.2,0.7-0.7,0.7-1.2v-20.6H104.3z M104.3,118.3v20.8c0,0.3,0.2,0.6,0.5,0.8c0.8,0.8,1.7,1.4,2.5,2.1
	c2.9,2.7,7.4,2.7,10.3,0c0.8-0.6,1.6-1.3,2.5-1.9c0.5-0.2,0.7-0.7,0.7-1.2v-20.6H104.3z M104.3,118.3v20.8c0,0.3,0.2,0.6,0.5,0.8
	c0.8,0.8,1.7,1.4,2.5,2.1c2.9,2.7,7.4,2.7,10.3,0c0.8-0.6,1.6-1.3,2.5-1.9c0.5-0.2,0.7-0.7,0.7-1.2v-20.6H104.3z M104.3,118.3v20.8
	c0,0.3,0.2,0.6,0.5,0.8c0.8,0.8,1.7,1.4,2.5,2.1c2.9,2.7,7.4,2.7,10.3,0c0.8-0.6,1.6-1.3,2.5-1.9c0.5-0.2,0.7-0.7,0.7-1.2v-20.6
	H104.3z M104.3,118.3v20.8c0,0.3,0.2,0.6,0.5,0.8c0.8,0.8,1.7,1.4,2.5,2.1c2.9,2.7,7.4,2.7,10.3,0c0.8-0.6,1.6-1.3,2.5-1.9
	c0.5-0.2,0.7-0.7,0.7-1.2v-20.6H104.3z M104.3,118.3v20.8c0,0.3,0.2,0.6,0.5,0.8c0.8,0.8,1.7,1.4,2.5,2.1c2.9,2.7,7.4,2.7,10.3,0
	c0.8-0.6,1.6-1.3,2.5-1.9c0.5-0.2,0.7-0.7,0.7-1.2v-20.6H104.3z M104.3,118.3v20.8c0,0.3,0.2,0.6,0.5,0.8c0.8,0.8,1.7,1.4,2.5,2.1
	c2.9,2.7,7.4,2.7,10.3,0c0.8-0.6,1.6-1.3,2.5-1.9c0.5-0.2,0.7-0.7,0.7-1.2v-20.6H104.3z M104.3,118.3v20.8c0,0.3,0.2,0.6,0.5,0.8
	c0.8,0.8,1.7,1.4,2.5,2.1c2.9,2.7,7.4,2.7,10.3,0c0.8-0.6,1.6-1.3,2.5-1.9c0.5-0.2,0.7-0.7,0.7-1.2v-20.6H104.3z M104.3,118.3v20.8
	c0,0.3,0.2,0.6,0.5,0.8c0.8,0.8,1.7,1.4,2.5,2.1c2.9,2.7,7.4,2.7,10.3,0c0.8-0.6,1.6-1.3,2.5-1.9c0.5-0.2,0.7-0.7,0.7-1.2v-20.6
	H104.3z M104.3,118.3v20.8c0,0.3,0.2,0.6,0.5,0.8c0.8,0.8,1.7,1.4,2.5,2.1c2.9,2.7,7.4,2.7,10.3,0c0.8-0.6,1.6-1.3,2.5-1.9
	c0.5-0.2,0.7-0.7,0.7-1.2v-20.6H104.3z"/>
</svg>
