<?xml version="1.0" encoding="utf-8"?>
<!-- Generator: Adobe Illustrator 24.3.0, SVG Export Plug-In . SVG Version: 6.00 Build 0)  -->
<svg version="1.1" id="Layer_1" xmlns="http://www.w3.org/2000/svg" xmlns:xlink="http://www.w3.org/1999/xlink" x="0px" y="0px"
	 viewBox="0 0 225 225" style="enable-background:new 0 0 225 225;" xml:space="preserve">
<style type="text/css">
	.st0{fill:#FFFFFF;}
</style>
<path class="st0" d="M140,0H85C38.1,0,0,38.1,0,85v55c0,46.9,38.1,85,85,85h55c46.9,0,85-38.1,85-85V85C225,38.1,186.9,0,140,0z
	 M96.8,141.7c0,1.7-0.9,2.9-2.3,3.1c-1.5,0.2-2.9-0.8-3.1-2.3c0-0.3-0.1-0.4,0-0.7v-30.4c0-1,0.4-1.9,1.2-2.5
	c1.1-0.9,2.7-0.7,3.6,0.4l0.1,0.2c0.2,0.4,0.4,0.8,0.5,1.3V141.7z M104.1,156.3c-0.1,1.2-1.3,1.8-2.7,1.8c-1.5,0-2.6-0.8-2.6-1.9
	V135c0-1.3,1.2-2.1,2.8-2c1-0.1,2,0.5,2.4,1.5c0.1,0.3,0.1,0.6,0.1,0.9V156.3z M111.8,122.2v20.9c-0.2,1.2-1.3,1.9-2.7,1.9
	c-1.5,0-2.6-0.9-2.6-1.9V122c0-1.3,1.2-2.1,2.8-2c1-0.1,1.9,0.5,2.4,1.4C111.8,121.6,111.8,122,111.8,122.2z M119.3,131.3v27.5
	c-0.1,1.4-1.3,2.5-2.8,2.4c-0.1,0-0.1,0-0.2,0c-1.2,0-2.3-0.9-2.4-2.2v-28.2c-0.1-1.4,0.9-2.6,2.3-2.7h0.6c1.1,0.1,2,0.8,2.3,1.9
	C119.3,130.5,119.4,130.9,119.3,131.3z M126.8,144.3c-0.2,1.2-1.3,1.8-2.7,1.8s-2.6-0.8-2.6-1.9v-21.1c0-1.3,1.2-2.1,2.8-2
	c1-0.1,2,0.4,2.4,1.3c0.1,0.3,0.1,0.6,0.1,0.9V144.3z M134.7,133.5c0,0.8-0.5,1.5-1.7,1.8c-0.9,0.3-2,0.2-2.8-0.3
	c-0.6-0.4-1-1-1-1.7v-21.2c0-1.2,0.9-2.2,2.1-2.2h0.2c1.7-0.2,3.1,0.7,3.1,2.1v10.7l0.1,0V133.5z M162.4,111.5
	c-0.5,7.2-4.3,13.7-10.2,17.8c-3.4,2.4-7.4,3.7-11.6,3.8h-0.1c-1.4,0.1-2.7-1-2.7-2.5v-3.1h0.8c12,0.8,19.6-10.3,18.4-20.7
	c-0.5-6.1-4-11.6-9.3-14.6c-0.1-0.1-0.2-0.1-0.3-0.2c-1-0.3-1.3-0.8-1.3-1.9c-0.4-8.7-5.9-16.4-14-19.6c-8.9-3.3-18.7,0.3-24.2,8.7
	c-1.8,2.8-2.9,5.9-3.4,9.2c0,0.3-0.1,0.4-0.2,0.8c-4.4-2.4-8.8-2.7-12.9,0.4c-3.9,2.9-5.4,7.1-5.1,11.9c-1.3-0.5-2.7-0.9-4.2-1.2
	c-4-0.7-8,0.7-10.7,3.7c-6.3,6.4-4.5,18.1,3.3,22.2c1.8,0.9,3.8,1.3,5.9,1.3h4.6c1.5,0,2.7,1.2,2.7,2.7c0,0.7-0.3,1.4-0.8,1.9
	c-0.5,0.5-1.2,0.8-1.9,0.8h-4.2c-9.5,0.1-17.5-7-18.6-16.4c-0.1-0.3-0.1-0.6-0.2-0.8v-4.4c0.2-0.9,0.4-1.9,0.6-2.7
	c2-8.3,9.5-14.1,18-14.1c0.7,0,0.8-0.4,1-0.9c1.7-4.9,5.4-8.9,10.3-10.8c2.3-1,4.9-1.3,7.4-1c0.5,0.2,1.1-0.1,1.2-0.7v-0.1
	c3.2-8.1,8.8-13.7,17.1-16.2c11.8-3.6,24.6,2.2,30.4,13.5c1.4,2.8,2.3,5.7,2.8,8.8c0.1,0.5,0.3,0.9,0.7,1.2
	C160,94,163.3,101.8,162.4,111.5z"/>
</svg>
