<svg id="Layer_1" data-name="Layer 1" xmlns="http://www.w3.org/2000/svg" viewBox="0 0 254.5 181.23"><g opacity="0.3"><path d="M32.75,164c-12.56-12.35-56.43-37.52-16-84,10.12-11.65,22.66-57.8,74-73.18S186,2.71,203.49,33.93c19.34,34.39,91.25,78.14,20.55,126.69C196.34,179.62,63.12,193.94,32.75,164Z" transform="translate(0 -0.01)" fill="#026eaf" opacity="0.3" style="isolation:isolate"/><path d="M68.73,104.1,11.45,144.22C18.88,152.94,28,159.4,32.75,164c21.69,21.36,95.84,20.15,146.53,10.8,20.72-4.39,37.43-9.22,44.72-14.27h0l.89-.62.26-.19.63-.44.28-.2.62-.45.25-.18.67-.49.18-.13.83-.61h0c.88-.66,1.74-1.32,2.57-2L102.61,76.94Z" transform="translate(0 -0.01)" fill="#57ace5"/><path d="M138.45,132.72,88.54,180.55l11,.53a399.72,399.72,0,0,0,79.72-6.32C200,170.4,216.7,165.55,224,160.55h0l.89-.62.26-.19.63-.44.28-.2.62-.45.25-.18.67-.49.18-.13.83-.61h0c.88-.66,1.74-1.32,2.57-2L102.61,76.94Z" transform="translate(0 -0.01)" fill="#e3eef4"/><polygon points="71.29 102.03 91.54 96.14 90.34 102.03 101.74 94.23 133.96 112.04 119.75 94.23 142.46 101.2 102.61 76.92 71.29 102.03" fill="#fff" opacity="0.2" style="isolation:isolate"/><path d="M63.12,78.55a4,4,0,0,0-4-3.14,3.76,3.76,0,0,0-1,.13,6,6,0,0,0-5.4-3.43,5.89,5.89,0,0,0-1.77.27,7.35,7.35,0,0,0-13.2,1.28,5,5,0,0,0-6.81,1.89A5.12,5.12,0,0,0,30.3,78v.52Z" transform="translate(0 -0.01)" fill="#e3eef4" opacity="0.5" style="isolation:isolate"/><path d="M27.93,61.46c5,.08,10.94.3,15.91.39,9.37.16,18.77.33,28.12-.27a63.66,63.66,0,0,0,15.38-2.49c2.92-.94,5.67-2.24,8.68-3,5.3-1.35,11-1,16.58-1.21,8.6-.34,17-2.08,25.3-3.82,12.81-2.68,44.38-6.69,45.19-16.83a4.43,4.43,0,0,0-1.1-3.34,7.24,7.24,0,0,0-2.75-1.59c-14.87-5.94-32.6-3.88-49.23-4.91a42.72,42.72,0,0,1-12.42-2.24c-4.48-1.72-8.38-4.77-13.36-5-3.5-.17-8.14.7-9.64-1.78a5.31,5.31,0,0,1-.46-2c-.49-2.89-3-4.6-6.37-5.58a94.34,94.34,0,0,0-29,15.56,16.92,16.92,0,0,1,2.66.41c3.19.77,5.86,2.54,9,3.33a30.84,30.84,0,0,0,7.61.58l27.81-.12a17.19,17.19,0,0,1,5.15.52,26.3,26.3,0,0,1,4.35,2.16c4.77,2.4,10.79,2.44,16.36,3.28,1.77.26,3.71.73,4.56,2,1.41,2.07-1.26,4.44-4,5.48-10.71,4.13-24,.1-35.51,2.9-3.08.75-5.93,2-8.92,2.88-9.83,3-20.77,2.75-31.27,1.89-6.57-.59-13.1-1.33-19.65-1.59-3.08,4.42-5.68,8.81-8,12.81Z" transform="translate(0 -0.01)" fill="#fff" opacity="0.1" style="isolation:isolate"/><path d="M67.61,34s-.22,2.22-2,2.37c1.75.15,2,2.36,2,2.36s.23-2.21,2-2.36C67.84,36.24,67.61,34,67.61,34Z" transform="translate(0 -0.01)" fill="#fff"/><path d="M152.07,81.8s-.34,3.32-3,3.54c2.61.23,3,3.55,3,3.55s.33-3.32,3-3.55C152.4,85.11,152.07,81.8,152.07,81.8Z" transform="translate(0 -0.01)" fill="#fff"/><path d="M81.09,70.41a.79.79,0,1,0-.79-.79.79.79,0,0,0,.79.79Z" transform="translate(0 -0.01)" fill="#fff"/><path d="M137.45,23.48a.79.79,0,1,0-.79-.79h0A.79.79,0,0,0,137.45,23.48Z" transform="translate(0 -0.01)" fill="#fff"/><path d="M157.3,37.72a.79.79,0,0,0,0-1.58h0a.79.79,0,1,0,0,1.58Z" transform="translate(0 -0.01)" fill="#fff"/><path d="M52,88.26a.79.79,0,1,0-.79-.79.79.79,0,0,0,.79.79Z" transform="translate(0 -0.01)" fill="#fff"/><path d="M43.59,50a.79.79,0,1,0-.79-.79.79.79,0,0,0,.79.79Z" transform="translate(0 -0.01)" fill="#fff"/><path d="M55.23,86.32a.47.47,0,0,0,.52-.39.45.45,0,0,0-.41-.5.45.45,0,0,0-.5.37.29.29,0,0,0,0,.13A.47.47,0,0,0,55.23,86.32Z" transform="translate(0 -0.01)" fill="#fff"/><path d="M73.23,34.37a.45.45,0,1,0-.45-.45h0a.45.45,0,0,0,.45.45Z" transform="translate(0 -0.01)" fill="#fff"/><path d="M79.29,39.8a.45.45,0,1,0-.45-.45h0a.45.45,0,0,0,.45.45Z" transform="translate(0 -0.01)" fill="#fff"/><path d="M84.5,73.68a.45.45,0,1,0-.45-.45h0a.45.45,0,0,0,.45.45Z" transform="translate(0 -0.01)" fill="#fff"/><path d="M97.14,68.67a.45.45,0,1,0-.45-.45h0a.45.45,0,0,0,.45.45Z" transform="translate(0 -0.01)" fill="#fff"/><path d="M98.54,61.65a.45.45,0,1,0-.45-.45h0a.45.45,0,0,0,.45.45Z" transform="translate(0 -0.01)" fill="#fff"/><path d="M146.07,80.9a.45.45,0,1,0,0-.9h0a.45.45,0,1,0,0,.9Z" transform="translate(0 -0.01)" fill="#fff"/><path d="M158.51,67a.45.45,0,0,0,.49-.41v-.06a.45.45,0,1,0-.9,0h0A.45.45,0,0,0,158.51,67Z" transform="translate(0 -0.01)" fill="#fff"/><path d="M145.23,63.55a.79.79,0,0,0,0-1.58h0a.79.79,0,1,0,0,1.58Z" transform="translate(0 -0.01)" fill="#fff"/><path d="M124.23,71.55a.58.58,0,0,0,.49-.64.54.54,0,0,0-.49-.49.57.57,0,0,0-.49.64A.55.55,0,0,0,124.23,71.55Z" transform="translate(0 -0.01)" fill="#fff"/><path d="M46,45a.45.45,0,0,0,.45-.45h0A.45.45,0,1,0,46,45Z" transform="translate(0 -0.01)" fill="#fff"/><path d="M150.88,32.48a.58.58,0,0,0,.49-.64.54.54,0,0,0-.49-.49.57.57,0,0,0-.49.64A.55.55,0,0,0,150.88,32.48Z" transform="translate(0 -0.01)" fill="#fff"/><path d="M99.44,33.69a.58.58,0,0,0,.49-.64.54.54,0,0,0-.49-.49.57.57,0,0,0-.49.64A.55.55,0,0,0,99.44,33.69Z" transform="translate(0 -0.01)" fill="#fff"/><path d="M121.7,12.63a.58.58,0,0,0,.49-.64.54.54,0,0,0-.49-.49.57.57,0,0,0-.49.64A.55.55,0,0,0,121.7,12.63Z" transform="translate(0 -0.01)" fill="#fff"/><path d="M163.23,13.55a.58.58,0,0,0,.49-.64.54.54,0,0,0-.49-.49.57.57,0,0,0-.49.64A.55.55,0,0,0,163.23,13.55Z" transform="translate(0 -0.01)" fill="#fff"/><path d="M166.17,104.29s-.23,2.21-2,2.36c1.74.16,2,2.37,2,2.37s.22-2.21,2-2.37C166.39,106.55,166.17,104.29,166.17,104.29Z" transform="translate(0 -0.01)" fill="#fff"/><path d="M229.68,114.55s-.34,3.31-3,3.54c2.61.23,3,3.54,3,3.54s.34-3.31,3-3.54C230,117.86,229.68,114.55,229.68,114.55Z" transform="translate(0 -0.01)" fill="#fff"/><path d="M219,137.28a.79.79,0,1,0-.79-.79h0A.79.79,0,0,0,219,137.28Z" transform="translate(0 -0.01)" fill="#fff"/><path d="M236,93.8a.79.79,0,1,0-.79-.79h0A.79.79,0,0,0,236,93.8Z" transform="translate(0 -0.01)" fill="#fff"/><path d="M177.44,82.33a.79.79,0,1,0-.79-.79h0A.79.79,0,0,0,177.44,82.33Z" transform="translate(0 -0.01)" fill="#fff"/><path d="M190.47,122.42a.79.79,0,1,0-.79-.79h0A.79.79,0,0,0,190.47,122.42Z" transform="translate(0 -0.01)" fill="#fff"/><path d="M180.65,80.38a.45.45,0,1,0,0-.9h0a.45.45,0,0,0,0,.9Z" transform="translate(0 -0.01)" fill="#fff"/><path d="M171.82,104.64a.45.45,0,1,0-.45-.45h0A.45.45,0,0,0,171.82,104.64Z" transform="translate(0 -0.01)" fill="#fff"/><path d="M177.84,110a.45.45,0,1,0-.45-.45h0A.45.45,0,0,0,177.84,110Z" transform="translate(0 -0.01)" fill="#fff"/><path d="M229.68,111.8a.47.47,0,0,0,.15-.93.46.46,0,0,0-.53.37v0a.29.29,0,0,0,0,.13A.47.47,0,0,0,229.68,111.8Z" transform="translate(0 -0.01)" fill="#fff"/><path d="M216,118.09a.45.45,0,1,0-.45-.45h0A.45.45,0,0,0,216,118.09Z" transform="translate(0 -0.01)" fill="#fff"/><path d="M197.09,131.91a.45.45,0,1,0-.45-.45h0A.45.45,0,0,0,197.09,131.91Z" transform="translate(0 -0.01)" fill="#fff"/><path d="M243.82,133.86a.79.79,0,0,0,0-1.58h0a.79.79,0,0,0,0,1.58Z" transform="translate(0 -0.01)" fill="#fff"/><path d="M222.76,141.85a.56.56,0,1,0-.56-.56h0A.56.56,0,0,0,222.76,141.85Z" transform="translate(0 -0.01)" fill="#fff"/><path d="M155,90.61a.47.47,0,0,0,.52-.39.45.45,0,0,0-.41-.5.45.45,0,0,0-.5.37.29.29,0,0,0,0,.13A.47.47,0,0,0,155,90.61Z" transform="translate(0 -0.01)" fill="#fff"/><path d="M249.44,94.33a.57.57,0,0,0,.49-.64.55.55,0,0,0-.49-.49.57.57,0,0,0-.49.64A.55.55,0,0,0,249.44,94.33Z" transform="translate(0 -0.01)" fill="#fff"/><path d="M198,104a.58.58,0,0,0,.49-.64.54.54,0,0,0-.49-.49.57.57,0,0,0-.49.64A.55.55,0,0,0,198,104Z" transform="translate(0 -0.01)" fill="#fff"/><path d="M220.23,82.89a.58.58,0,0,0,.49-.64.54.54,0,0,0-.49-.49.57.57,0,0,0-.49.64A.55.55,0,0,0,220.23,82.89Z" transform="translate(0 -0.01)" fill="#fff"/><path d="M11.45,110.3s-.34,3.31-3,3.54c2.61.23,3,3.54,3,3.54s.33-3.31,2.94-3.54C11.78,113.61,11.45,110.3,11.45,110.3Z" transform="translate(0 -0.01)" fill="#fff"/><path d="M29.34,98.55a.79.79,0,1,0-.79-.79.79.79,0,0,0,.79.79Z" transform="translate(0 -0.01)" fill="#fff"/><path d="M49.23,112.8a.79.79,0,1,0-.79-.79.79.79,0,0,0,.79.79Z" transform="translate(0 -0.01)" fill="#fff"/><path d="M12.61,133.1a.45.45,0,1,0-.45-.45h0A.45.45,0,0,0,12.61,133.1Z" transform="translate(0 -0.01)" fill="#fff"/><path d="M30.13,125a.45.45,0,1,0-.45-.45h0A.45.45,0,0,0,30.13,125Z" transform="translate(0 -0.01)" fill="#fff"/><path d="M24.23,124.48a.79.79,0,1,0-.79-.79h0A.79.79,0,0,0,24.23,124.48Z" transform="translate(0 -0.01)" fill="#fff"/><path d="M13.15,140.42a.56.56,0,1,0-.56-.56h0A.56.56,0,0,0,13.15,140.42Z" transform="translate(0 -0.01)" fill="#fff"/><path d="M42.78,107.55a.58.58,0,0,0,.49-.64.54.54,0,0,0-.49-.49.57.57,0,0,0-.49.64A.55.55,0,0,0,42.78,107.55Z" transform="translate(0 -0.01)" fill="#fff"/><path d="M13.6,87.67a.57.57,0,0,0,.49-.64h0a.53.53,0,0,0-.49-.48.57.57,0,0,0-.49.64A.55.55,0,0,0,13.6,87.67Z" transform="translate(0 -0.01)" fill="#fff"/><path d="M55.11,88.55a.56.56,0,1,0-.56-.56h0A.56.56,0,0,0,55.11,88.55Z" transform="translate(0 -0.01)" fill="#fff"/><path d="M167.45,74.55a6.69,6.69,0,0,1,8-5h.21a9.89,9.89,0,0,1,11.88-5.25,12.17,12.17,0,0,1,21.85,2.13,8.32,8.32,0,0,1,12.4,7.29v.83Z" transform="translate(0 -0.01)" fill="#e3eef4" opacity="0.5" style="isolation:isolate"/><path d="M134.92,48.82c-1.39-2-2-.92-3.16-2.08a2.92,2.92,0,0,0-4.09-.57h0a2.57,2.57,0,0,0-.57.57c-1.21,1.16-1.76.11-3.16,2.08s2,4,2,4l3.3.58s.08-.33.18-.84l.18.84,3.3-.58S136.31,50.79,134.92,48.82Z" transform="translate(0 -0.01)" fill="#0e1144"/><path d="M137.54,59.18c0,4.68-3.53,8.48-7.89,8.48s-7.89-3.8-7.89-8.48,0-8.47,7.89-8.47S137.54,54.49,137.54,59.18Z" transform="translate(0 -0.01)" fill="#10115a"/><polygon points="122.86 72.62 137.4 72.96 130.52 79.25 122.86 72.62" fill="#eebeb9"/><path d="M137.42,100.55H121.88a13.9,13.9,0,0,0-3,7.16,5.64,5.64,0,0,1-1.64,3.35c-4.65,4.41-17.7,17.36-15.35,21.63,2.16,3.94,14.07,1.44,19.63,0h0l1.79-.48a3.91,3.91,0,0,1,2.52.28c.92.6,2.27,4,3,6a2.48,2.48,0,0,0,2.31,1.42s0-7.76-.25-11.91-3-2.56-5.5-1.61a12.16,12.16,0,0,1-1.45.45l-8.79.32s8.3-8.53,11.26-10.18,4.26.66,4.26.66l1.1,52.36v4.1c0,.26-2.3,3.91-.8,3.91h6.1c1.49,0-.69-3.51-.81-3.91-.07-.25,0-2.35,0-3.9a210.58,210.58,0,0,0,2.17-22c.24-9.36,1.54-15.3,3.44-28.51S137.42,100.55,137.42,100.55Z" transform="translate(0 -0.01)" fill="#eebeb9"/><polygon points="136.5 98.07 137.35 94.87 135.69 93.13 129.64 94.46 123.59 93.13 121.93 94.87 122.78 98.07 121.88 100.55 128.3 100.55 130.98 100.55 137.4 100.55 136.5 98.07" fill="#eebeb9"/><path d="M133.52,73.69a9,9,0,0,1-7.7-.28,8.59,8.59,0,0,0-10.16,2c-2.52,2.78-4.92,5.53-4.92,5.53s4.93,4.34,8.77,4.81c0,0,1.87,8.62,2.25,9.18a20.13,20.13,0,0,0,4.74,1.38,15.88,15.88,0,0,0,3,.28h.36a16.75,16.75,0,0,0,3-.28,20.13,20.13,0,0,0,4.74-1.38c.37-.56,2.25-9.18,2.25-9.18,3.83-.47,7.86-4.14,7.86-4.14s-1.84-2.52-3.88-5.23A8.59,8.59,0,0,0,133.52,73.69Z" transform="translate(0 -0.01)" fill="#feb546"/><path d="M122.29,78.27A19.84,19.84,0,0,0,121.08,80a12.25,12.25,0,0,0-1,1.81,8.7,8.7,0,0,0-.59,1.94,6.7,6.7,0,0,0,0,2,5,5,0,0,1-.2-2.08,7,7,0,0,1,.54-2,8.92,8.92,0,0,1,1.06-1.82A8.46,8.46,0,0,1,122.29,78.27Z" transform="translate(0 -0.01)" fill="#deecf5"/><path d="M137,78.27a17.17,17.17,0,0,1,1.24,1.7,11.4,11.4,0,0,1,1,1.81,8.7,8.7,0,0,1,.59,1.94,6.7,6.7,0,0,1,0,2,4.88,4.88,0,0,0,.2-2.08,7,7,0,0,0-.54-2,8.49,8.49,0,0,0-1.06-1.82A8.75,8.75,0,0,0,137,78.27Z" transform="translate(0 -0.01)" fill="#deecf5"/><rect x="127.7" y="68.35" width="4.56" height="4.56" fill="#eebeb9"/><path d="M132.24,71.1V68.36h-4.56v2.33A6.77,6.77,0,0,0,132.24,71.1Z" transform="translate(0 -0.01)" fill="#e19691"/><path d="M138.76,60.27a1.55,1.55,0,0,0-1.42.06,7.56,7.56,0,1,0-15.1-.83h0v.77a1.57,1.57,0,0,0-1.43-.06,2.2,2.2,0,0,0,1.9,3.85,1.21,1.21,0,0,0,.32-.22,6.82,6.82,0,0,0,13.54,0,1.34,1.34,0,0,0,.31.22,2.2,2.2,0,0,0,1.9-3.85Z" transform="translate(0 -0.01)" fill="#eebeb9"/><path d="M128.57,60.49a7.06,7.06,0,0,0-.93-.25,3.32,3.32,0,0,0-.89,0,2.54,2.54,0,0,0-.86.22h-.21l-.21.1c-.14.07-.28.16-.44.23a3.91,3.91,0,0,1,.3-.41,2,2,0,0,1,.39-.33,1.9,1.9,0,0,1,1-.36,2.14,2.14,0,0,1,1,.14A2,2,0,0,1,128.57,60.49Z" transform="translate(0 -0.01)" fill="#10115a"/><path d="M131.13,60.49a2,2,0,0,1,.82-.6,2.15,2.15,0,0,1,1-.16,2.11,2.11,0,0,1,1,.35,2.18,2.18,0,0,1,.4.34,1.69,1.69,0,0,1,.29.41c-.15-.07-.29-.16-.43-.23l-.21-.11h-.22a2.79,2.79,0,0,0-.86-.22,3.32,3.32,0,0,0-.89,0A5.38,5.38,0,0,0,131.13,60.49Z" transform="translate(0 -0.01)" fill="#10115a"/><path d="M129.9,60.9a3.35,3.35,0,0,0,0,1,2.75,2.75,0,0,0,.14.49,1.35,1.35,0,0,0,.3.47h.06a.16.16,0,0,1,.08.06.43.43,0,0,1,.1.5,1.33,1.33,0,0,1-.69.59,1.16,1.16,0,0,0,.91-.47.66.66,0,0,0,.09-.58.21.21,0,0,0-.07-.15.34.34,0,0,0-.09-.12l-.12-.1h0a1,1,0,0,1-.23-.35,3.38,3.38,0,0,1-.18-.44A3.66,3.66,0,0,1,129.9,60.9Z" transform="translate(0 -0.01)" fill="#e19691"/><path d="M152.51,90.27a37.47,37.47,0,0,0-6.33-7.49,14.54,14.54,0,0,1-5.94,2.9c4.85,3.37,5.19,4.75,5.19,4.75-2.55.71-13.37.51-13.37.51a8.38,8.38,0,0,0-.79-1.55c-.44-.59-.64-4.33-1-5.33a2.32,2.32,0,0,0-.18-.39c-.36-.33-.59-.28-.72-.18l-.14.18a2.41,2.41,0,0,0-.15.33c-.36,1-.56,4.74-1,5.33a9,9,0,0,0-.79,1.55s-10.82.2-13.37-.51c0,0,.28-1.34,5.13-4.71-.81-.11-2.87-.72-5.93-2.89a37,37,0,0,0-6.28,7.44c-3.5,6.12,18.46,4.93,22.36,3.42a.62.62,0,0,0,.45-.26.66.66,0,0,0,.5.32C134.05,95.16,156,96.35,152.51,90.27Z" transform="translate(0 -0.01)" fill="#eebeb9"/><path d="M130.92,176.38s.69-.57,1.13,0c0,0,.95-.34,1.38-.13s.74-.07,1.67.13,1.15-.14,1.69,0l-.75-1.72a.7.7,0,0,0-.62-.42l-2.79-.12a.71.71,0,0,0-.64.36Z" transform="translate(0 -0.01)" fill="#e19691" opacity="0.5" style="isolation:isolate"/><path d="M122.15,120.41A28.87,28.87,0,0,1,126.4,117c3-1.65,4.26.66,4.26.66l.13,6a38.23,38.23,0,0,0,10.28,1c.23-1.54.48-3.18.73-5,1.89-13.2-4.38-19.15-4.38-19.15H121.88a13.9,13.9,0,0,0-3,7.16,5.56,5.56,0,0,1-1.64,3.33c-.66.62-1.48,1.41-2.4,2.32A18.62,18.62,0,0,0,122.15,120.41Z" transform="translate(0 -0.01)" fill="#10115a"/><g opacity="0.5"><path d="M130.86,127.27c.08,1,.13,2.11.17,3.17a14.09,14.09,0,0,0,.06,1.59V140c-.08-1-.13-2.11-.17-3.17l-.06-1.59v-4.71C130.82,129.37,130.83,128.32,130.86,127.27Z" transform="translate(0 -0.01)" fill="#e19691"/></g><path d="M115.14,127.2a14.47,14.47,0,0,1-1.79,1.12c-.63.33-1.27.63-1.93.9-.33.13-.66.25-1,.36l-.5.16-.26.08-.25.06-.52.13-.52.1h-.53l-.52.07.51-.14.26-.06.25-.08.51-.14.5-.16c.66-.21,1.33-.44,2-.71l.49-.2.48-.2.49-.21.47-.22A14.23,14.23,0,0,0,115.14,127.2Z" transform="translate(0 -0.01)" fill="#e19691"/><path d="M129.64,83.38c0,.83.08,1.66.11,2.48v5a18.85,18.85,0,0,1-.1,2.49c-.06-.83-.09-1.66-.11-2.49v-5C129.56,85,129.58,84.21,129.64,83.38Z" transform="translate(0 -0.01)" fill="#e19691"/><path d="M113.92,90.33a14.14,14.14,0,0,0-2.06.08,8.31,8.31,0,0,0-1,.15c-.34.06-.67.15-1,.24l.24-.11.12-.06h.12l.24-.09.26-.08h.25l.26-.06.51-.07a8.34,8.34,0,0,1,1,0A6.25,6.25,0,0,1,113.92,90.33Z" transform="translate(0 -0.01)" fill="#e19691"/><path d="M145.41,90.39a15.7,15.7,0,0,1,2.06.07,4.85,4.85,0,0,1,1,.16c.32.07.67.15,1,.24l-.24-.12H149l-.24-.09-.25-.07h-.26l-.25-.09-.52-.07a8.34,8.34,0,0,0-1,0A6.35,6.35,0,0,0,145.41,90.39Z" transform="translate(0 -0.01)" fill="#e19691"/><path d="M122.24,60.27s2.46-5,4.77-5.62,1.75,1.84,5.27,2.84,2.2,3.51,5.08,2.81l.2-1.62s-1.13-2.84-1.13-3a18.37,18.37,0,0,0-2.13-2.19c-.21-.08-2.08-.81-2.32-.85s-2.68-.5-2.78-.5a7.34,7.34,0,0,0-2.38.19c-.49.29-2.25.21-2.86.92a9.65,9.65,0,0,0-1.1,2.68,12.91,12.91,0,0,0-1.08,2.21C121.9,58.86,122.05,59.55,122.24,60.27Z" transform="translate(0 -0.01)" fill="#10115a"/><path d="M128.36,65.42a2.35,2.35,0,0,1,1.94.09,1.75,1.75,0,0,1,1.8-.18,1.91,1.91,0,0,1-1.9,1.57A1.73,1.73,0,0,1,128.36,65.42Z" transform="translate(0 -0.01)" fill="#e19691" opacity="0.3" style="isolation:isolate"/><path d="M127.45,65a5.68,5.68,0,0,0,1.28.64,4.16,4.16,0,0,0,1.39.25,3.57,3.57,0,0,0,1.37-.28,5.23,5.23,0,0,0,1.22-.74,3.15,3.15,0,0,1-.54.49,3,3,0,0,1-.62.38,3.43,3.43,0,0,1-.7.25,3.51,3.51,0,0,1-2.17-.22A4,4,0,0,1,127.45,65Z" transform="translate(0 -0.01)" fill="#e19691"/><path d="M125.4,61.85a2.28,2.28,0,0,0,.29.33h.06l-.11.07-.21.08h0a.86.86,0,0,0,.23-.06.72.72,0,0,0,.2-.09,2.11,2.11,0,0,0,2.7-.47A4,4,0,0,1,125.4,61.85Z" transform="translate(0 -0.01)" fill="#363636"/><path d="M134.63,61.85a1,1,0,0,1-.29.33h-.06l.11.07.21.08h0l-.23-.06a.66.66,0,0,1-.19-.09,2.11,2.11,0,0,1-2.7-.47A4,4,0,0,0,134.63,61.85Z" transform="translate(0 -0.01)" fill="#363636"/><path d="M152.07,49.88A8.27,8.27,0,0,0,144,43.46a8.15,8.15,0,0,0-2.09.27,12.19,12.19,0,0,0-11-7,11.69,11.69,0,0,0-3.62.55,15,15,0,0,0-27,2.62A10.31,10.31,0,0,0,85,48.9v1Z" transform="translate(0 -0.01)" fill="#e3eef4" opacity="0.5" style="isolation:isolate"/></g></svg>