<svg id="Layer_1" data-name="Layer 1" xmlns="http://www.w3.org/2000/svg" xmlns:xlink="http://www.w3.org/1999/xlink" viewBox="0 0 253.72 241.69"><defs><clipPath id="clip-path" transform="translate(-0.02)"><rect x="213.06" y="103.36" width="22.41" height="27.21" fill="none"/></clipPath><clipPath id="clip-path-2" transform="translate(-0.02)"><rect x="79.36" y="217.95" width="110.46" height="19.21" fill="none"/></clipPath><clipPath id="clip-path-3" transform="translate(-0.02)"><rect x="202.55" y="141" width="51.23" height="41.62" fill="none"/></clipPath><clipPath id="clip-path-4" transform="translate(-0.02)"><rect x="69.6" width="56.03" height="56.03" fill="none"/></clipPath></defs><g opacity="0.3"><path d="M237.54,73.3S218,23.22,178.83,37.3,161.22-3.28,103.7,22.49,21.14,36.34,30.72,82s-33.88,99.81,3.89,123.81,29.76,38.87,80.53,35.34S251,252.91,235.47,193.83s-21.56-72.5-5.06-86S237.54,73.3,237.54,73.3Z" transform="translate(-0.02)" fill="#aeb4fc" opacity="0.3"/><g clip-path="url(#clip-path)"><path d="M218.48,103.36h-5.42v27.21h5.42Z" transform="translate(-0.02)" fill="#9ba3ff"/><path d="M227,112.51h-5.42v18.06H227Z" transform="translate(-0.02)" fill="#9ba3ff"/><path d="M235.48,121.13h-5.42v9.44h5.42Z" transform="translate(-0.02)" fill="#9ba3ff"/></g><g clip-path="url(#clip-path-2)"><path d="M134.59,237.14c30.5,0,55.23-4.3,55.23-9.61s-24.73-9.61-55.23-9.61-55.23,4.31-55.23,9.61S104.09,237.14,134.59,237.14Z" transform="translate(-0.02)" fill="#808aff"/></g><path d="M127.56,117.43s-2.16,23.92,6.8,23.56c9.62-.39,7-23.56,7-23.56-1.26-3.73-1.76-5.94-1.19-9.86H128.52A18.14,18.14,0,0,1,127.56,117.43Z" transform="translate(-0.02)" fill="#fdbca0"/><path d="M128.76,112.2a19.56,19.56,0,0,0,4,.87,21.4,21.4,0,0,0,4-.11,16.31,16.31,0,0,0,3.32-.68,17.77,17.77,0,0,1,.12-4.72H128.53A21.82,21.82,0,0,1,128.76,112.2Z" transform="translate(-0.02)" fill="#f0a38b"/><path d="M134.36,110.83a12.5,12.5,0,0,0,8.89-3.68c2.79-2.82,5-6,5.62-9.66A15.55,15.55,0,0,0,144.6,84.2H124.12a15.53,15.53,0,0,0-4.23,13.29c.64,3.69,2.83,6.84,5.62,9.66A12.56,12.56,0,0,0,134.36,110.83Z" transform="translate(-0.02)" fill="#fdbca0"/><path d="M135.38,120.22a18.79,18.79,0,0,0-1.19,1.48,7.85,7.85,0,0,1-1.21-1.09.06.06,0,0,0-.08,0s0,0,0,.06a4.16,4.16,0,0,0,1.18,1.54.24.24,0,0,0,.35,0,9.71,9.71,0,0,0,1.39-1.67C136,120.3,135.58,120,135.38,120.22Z" transform="translate(-0.02)" fill="#df8370"/><path d="M146.65,119.31a56.22,56.22,0,0,0-9.21,1.54.15.15,0,0,0-.11.19.16.16,0,0,0,.19.1,61.28,61.28,0,0,1,9.13-1.34C147,119.83,147,119.28,146.65,119.31Z" transform="translate(-0.02)" fill="#df8370"/><path d="M122.07,119.31a56.22,56.22,0,0,1,9.21,1.54.15.15,0,0,1-.08.29,61.28,61.28,0,0,0-9.13-1.34C121.75,119.83,121.75,119.28,122.07,119.31Z" transform="translate(-0.02)" fill="#df8370"/><path d="M122.61,76.31c-4.36,2.5-7.42,6.43-7.47,11.72-.06,6,7.19,15.44,7.09,15.21-2.41-5.8-3-13.78,3-17.77a19.7,19.7,0,0,0,1.89-1.09A10.06,10.06,0,0,0,122.61,76.31Z" transform="translate(-0.02)" fill="#3f4553"/><path d="M145.69,76.31c4.35,2.5,7.42,6.43,7.47,11.72,0,6-3.51,11.26-7,15.76.9-2,3-14.33-3-18.32a19.7,19.7,0,0,1-1.89-1.09A10.08,10.08,0,0,1,145.69,76.31Z" transform="translate(-0.02)" fill="#424495"/><path d="M208.2,73.16a16.86,16.86,0,0,0-10.83-1.27,18.48,18.48,0,0,0-5,1.81A9,9,0,0,1,189,75.14c-1.48.11-2.78-.85-3.88-1.71-3.42-2.66-6.9-5-11.3-5.64A8.16,8.16,0,0,0,167.71,69a11.94,11.94,0,0,0-7-4.41,12.15,12.15,0,0,0-10,2.54,44,44,0,0,0-4.84-2c-10.84-3-25.65,4.59-23.73,17.37,1.65,11,15.53,16,25.15,13.8,2.08,3.93,7.05,4.84,10.88,2.8l.88.67c6.12,4.49,13.24,7.41,20.92,6.08a23.55,23.55,0,0,0,8.17-3.08,8,8,0,0,0,8.42,1,7.55,7.55,0,0,0,4.11-5.08h.11c6.39-.08,13.17-3.26,14.81-10A14.08,14.08,0,0,0,208.2,73.16Z" transform="translate(-0.02)" fill="#4e5567"/><path d="M179.14,71.17c2.1,1.72,3.34,4.07,2,6.67-1.07,2.11-3,3.65-4.37,5.53-1.64,2.19-1.92,5,.76,6.61s5.93-.39,8.13-1.87c2.71-1.85,5.62-7.18,8-9.47,10.38-10.15,20.68.7,20.72.74a14,14,0,0,0-6.17-6.22,16.86,16.86,0,0,0-10.83-1.27,18.48,18.48,0,0,0-5,1.81A9,9,0,0,1,189,75.14c-1.48.11-2.78-.85-3.88-1.71-3.42-2.66-6.9-5-11.3-5.64a8.23,8.23,0,0,0-6,1.15C171.41,67.55,176.26,68.83,179.14,71.17Z" transform="translate(-0.02)" fill="#3f4553"/><path d="M206.77,96.92a13.43,13.43,0,0,1-7.25-.89c-1,2.62-3.07,5.26-6,5.67-2,.28-4.26-.33-4.66-2.4-13.75,11.2-29.15-1.3-30.64-3.64-4.28,2.8-9.69-.62-11.29-5a13.62,13.62,0,0,1-10.19-.49,12.91,12.91,0,0,1-7.12-15.67c1.72-5.13,6.3-8.63,11.38-10.06-9.9,0-20.53,7.07-18.89,18s15.53,16,25.15,13.8c2.08,3.93,7.05,4.84,10.88,2.8l.88.67c6.12,4.49,13.24,7.41,20.92,6.08a23.55,23.55,0,0,0,8.17-3.08,8,8,0,0,0,8.42,1,7.55,7.55,0,0,0,4.11-5.08h.11a18.47,18.47,0,0,0,8.81-2.28A16.64,16.64,0,0,1,206.77,96.92Z" transform="translate(-0.02)" fill="#3f4553"/><path d="M130.7,100.29c-1.82.3-4.79.4-6.47-1.41-.34-.36-.79,0-.37.41a1.56,1.56,0,0,0,.2.16,1.68,1.68,0,0,1-.63.07h0a1.59,1.59,0,0,0,.81.06h0a3.42,3.42,0,0,1-.77.3h0a1.51,1.51,0,0,0,1-.19h.09a2.05,2.05,0,0,1-.71.35h0a1.46,1.46,0,0,0,.93-.25l.18.09a4.83,4.83,0,0,1-.62.37h0a1.29,1.29,0,0,0,.79-.32l.23.09-.32.29h0a1.34,1.34,0,0,0,.5-.23,7.48,7.48,0,0,0,5.31.1C131,100.32,130.89,100.26,130.7,100.29Z" transform="translate(-0.02)" fill="#3f4553"/><path d="M138.19,100.29c1.83.3,4.8.4,6.48-1.41.33-.36.79,0,.37.41l-.2.16a1.62,1.62,0,0,0,.62.07h0a1.46,1.46,0,0,1-.8.06h0a3.7,3.7,0,0,0,.78.3h0a1.51,1.51,0,0,1-1-.19h-.09a2.05,2.05,0,0,0,.71.35h0a1.4,1.4,0,0,1-.93-.25l-.18.09a3.5,3.5,0,0,0,.62.37h0a1.38,1.38,0,0,1-.8-.32l-.22.09c.1.1.22.19.33.29h0a1.38,1.38,0,0,1-.51-.23,7.5,7.5,0,0,1-5.32.1C137.89,100.32,138,100.26,138.19,100.29Z" transform="translate(-0.02)" fill="#3f4553"/><path d="M135.6,104.1a2.49,2.49,0,0,1-2.59.09c-.06,0-.13,0-.08.1a2.14,2.14,0,0,0,2.86.06.16.16,0,0,0-.19-.25Z" transform="translate(-0.02)" fill="#3f4553"/><path d="M137.55,107.18a13,13,0,0,1-6.33,0h0a8.55,8.55,0,0,0,3.19.7,8.27,8.27,0,0,0,3.18-.7S137.58,107.17,137.55,107.18Z" transform="translate(-0.02)" fill="#3f4553"/><path d="M129.49,102.83l-.28-.11c-1.19-.3-2.61-.89-3.85-.68a1.14,1.14,0,0,0-.84,1.38,1.17,1.17,0,0,0,.25.48,3.43,3.43,0,0,0,2.41.93c.82.07,2.1.15,2.71-.49S130.07,103.13,129.49,102.83Z" transform="translate(-0.02)" fill="#fbad8b"/><path d="M139.25,102.83l.27-.11c1.2-.3,2.61-.89,3.86-.68a1.14,1.14,0,0,1,.83,1.38,1.11,1.11,0,0,1-.25.48,3.4,3.4,0,0,1-2.4.93c-.82.07-2.1.15-2.71-.49S138.67,103.13,139.25,102.83Z" transform="translate(-0.02)" fill="#fbad8b"/><path d="M118.62,95c-1.24-.18-2.56.33-2.34,1.8a2.69,2.69,0,0,0,3.21,2l.14,0A12.88,12.88,0,0,1,118.62,95Z" transform="translate(-0.02)" fill="#f9cdb9"/><path d="M117.42,96.18a1.74,1.74,0,0,1,1.32-.34l-.06-.42a2,2,0,0,0-1.7.64A1.37,1.37,0,0,0,117.3,98l.15.09a.09.09,0,0,0,.13-.13C117.14,97.43,116.83,96.68,117.42,96.18Z" transform="translate(-0.02)" fill="#f8c4ab"/><path d="M119,97a1.74,1.74,0,0,0-1.23-.43.1.1,0,0,0,0,.2,1.54,1.54,0,0,1,1.06.65c-.27.15-.47.46-.19.73a1.09,1.09,0,0,0,.85.22A13.12,13.12,0,0,1,119,97Z" transform="translate(-0.02)" fill="#f8c4ab"/><path d="M118.51,98.47h0c.2.49.48,1.64-.2,1.87-.45.16-.5-.43-.43-.73a3.57,3.57,0,0,1,.35-.83,3,3,0,0,1-.6-.21,1.46,1.46,0,0,0-.46,1.35c.06.47.36,1,.9,1a.94.94,0,0,0,.9-.83A2.52,2.52,0,0,0,118.51,98.47Z" transform="translate(-0.02)" fill="#fdca27"/><path d="M218.27,188.41c-2.92-3.49-9.26-3.78-13.42-4.21a206.27,206.27,0,0,0-37.85,0q-9.34.77-18.6,2.26c-4.47.73-9.46,1.24-13.92,2.67-4.47-1.43-9.45-2-13.92-2.67q-9.25-1.5-18.6-2.26a206.27,206.27,0,0,0-37.85,0c-4.16.43-10.5.72-13.43,4.21s.66,7.46,3.35,9.61c3.72,3,8.44,4.43,12.94,5.71a133.64,133.64,0,0,0,17.26,3.51c26.05,3.67,40.19,1,53.8.79.52.67,1,1.36,1.46,2.07a352.6,352.6,0,0,0,45.23-2.86A125.1,125.1,0,0,0,202,203.73c4.51-1.28,9.22-2.74,12.94-5.71C217.61,195.83,221.1,191.83,218.27,188.41Z" transform="translate(-0.02)" fill="#93bfa8"/><path d="M199.8,190.83c.43-.56,3-1.24,4.09-1.7-4.87.39-9.75,1-14.61,1.48a120.72,120.72,0,0,0-27.22,6.46c-4.19,1.47-8.37,3-12.53,4.56a76.36,76.36,0,0,0-9.64,4.2l1.42-.43c4.93-1.45,25-12.34,62.25-13.68C202.7,191.55,199.63,191,199.8,190.83Z" transform="translate(-0.02)" fill="#66a986"/><path d="M69.7,190.06c-.43-.55-3-1.24-4.08-1.7,4.86.39,9.75,1,14.6,1.48a120.2,120.2,0,0,1,27.22,6.47c4.19,1.46,8.37,3,12.53,4.55a75.05,75.05,0,0,1,9.64,4.22l-1.42-.43c-4.93-1.45-25-12.34-62.25-13.68C66.8,190.83,69.89,190.27,69.7,190.06Z" transform="translate(-0.02)" fill="#66a986"/><path d="M147.06,201.61a8.14,8.14,0,0,0-6.35,0c-3.48,1.5-7.75-.8-11.37-.39-3.33.38-5.36,4.18-2.81,6.6.61.59,6.8,2.83,16.59-1.74a7.32,7.32,0,0,1,3.34-.78c.28,0,.55.27.84.24a1.73,1.73,0,0,0,1.52-.81C149.65,203.29,148.26,202.09,147.06,201.61Z" transform="translate(-0.02)" fill="#fdb597"/><path d="M122.61,209.31a8.16,8.16,0,0,1,6.08-1.81c3.76.44,7.2-3,10.79-3.63,3.3-.59,6.33,2.47,4.57,5.53-.42.73-5.7,4.66-16.4,3.08a7.43,7.43,0,0,0-3.41.21c-.27.09-.45.42-.75.47a1.74,1.74,0,0,1-1.68-.34C120.6,211.67,121.59,210.11,122.61,209.31Z" transform="translate(-0.02)" fill="#fdbca0"/><path d="M193.66,123.52c-1.21.62-2.47,1.32-3.66,2,.63-.51,4.1-4,5.45-4.92.15-.1-.2-1.53-3.75,1.31-1.06.84-2.31,1.7-3.3,2.62a49.43,49.43,0,0,1,4-7,.18.18,0,0,0,0-.25c-.34-.27-1.19,0-1.57.44a25.13,25.13,0,0,0-4.51,6.45c0-1-.06-2.64-.78-3-.45-.22-1.19.06-1.67.1a7.19,7.19,0,0,1-3.06-.17c-.13,0-.46-.1-.34.34.4,1.42,2.38,1.59,3.61,1.91.42,1-.75,2.67-1.49,3.17a1.65,1.65,0,0,1-2.66-1.59c.26-1.41,1.11-2.06.36-3.45-.24-.46-1.3-.87-1.06-.13.6,1.89-1.13,3.49-1.36,5.32a6,6,0,0,0,1.36,3.91l-.12.35a26.18,26.18,0,0,0-2.45,5.74,20.74,20.74,0,0,0,5.28.13,10.55,10.55,0,0,1,1.53-4,24.06,24.06,0,0,1,4-3.33q4.36-3.24,8.87-6.29C196.48,123.06,196.34,122.13,193.66,123.52Z" transform="translate(-0.02)" fill="#fdbca0"/><path d="M75.62,123.52c1.2.62,2.47,1.32,3.65,2-.63-.51-4.1-4-5.45-4.92-.14-.1.2-1.53,3.75,1.31,1.06.84,2.31,1.7,3.31,2.62a50.42,50.42,0,0,0-4-7,.2.2,0,0,1,0-.25c.34-.27,1.19,0,1.57.44A24.72,24.72,0,0,1,83,124.17c0-1,.07-2.64.78-3,.45-.22,1.19.06,1.67.1a7,7,0,0,0,3.06-.17c.13,0,.46-.1.34.34-.4,1.42-2.38,1.59-3.61,1.91-.42,1,.76,2.67,1.5,3.17a1.65,1.65,0,0,0,2.65-1.59c-.26-1.41-1.11-2.06-.36-3.45.24-.46,1.3-.87,1.06-.13-.6,1.89,1.13,3.49,1.36,5.32a6,6,0,0,1-1.36,3.91l.12.35a26.18,26.18,0,0,1,2.45,5.74,20.74,20.74,0,0,1-5.28.13,10.37,10.37,0,0,0-1.53-4,24.56,24.56,0,0,0-4-3.33q-4.38-3.24-8.88-6.29C72.8,123.06,72.94,122.13,75.62,123.52Z" transform="translate(-0.02)" fill="#fdbca0"/><path d="M175.22,134.77c-2,5-8.58,23.69-11.35,31.6-1.65-4.23-6.1-22.6-9.85-43.92-1.17-6.62-8.63-5.68-12.62-5-.29,4.45-4.6,16.79-6.92,16.81s-6.9-11.48-6.91-16.81c-4-.66-11.45-1.6-12.62,5-3.76,21.32-8.2,39.7-9.85,43.92-2.77-7.91-9.4-26.55-11.36-31.6a21.73,21.73,0,0,1-8,2c2.15,5.71,9.22,46.13,19.65,46.13,4.52,0,7.38-4.81,12-22.63.23,3,.31,8.7.19,14.71-.08,4.33-3.07,9.33-7.07,8.36-.8-.19-1.86.42-.86,1.51a3,3,0,0,0,1,.68c6.39,3,6.64,7.56,10.41,10.2,2.28,1.59,5.08,2.09,7.76,2.63a25.25,25.25,0,0,0,8.83.58c4.91-.73,8.72-4,12.78-6.59a18.55,18.55,0,0,1,7.24-3c6.86-1,6.4-5.86,5-5.76-4.8.33-11.13-5.8-11.16-12.55,0-4.49.06-8.47.24-10.8,4.6,17.82,7.47,22.63,12,22.63,10.42,0,17.5-40.42,19.64-46.13A22,22,0,0,1,175.22,134.77Z" transform="translate(-0.02)" fill="#f2ede4"/><path d="M147.64,152.42l-.14.11c-.85.83-1.51,1.83-2.34,2.68a4.59,4.59,0,0,1-3.1,1.54c-2.84,0-4.27-3.43-6-5.17-2.62-2.67-5.17,3.4-7.13,4.59s-3.37.49-4.85-1c-.9-.89-1.68-1.88-2.52-2.83a.35.35,0,0,0-.58.34c1,2.36,3.2,6.27,6.12,6.33a6,6,0,0,0,4.44-2.25c.58-.62,2.18-4,3.22-3.52a1.3,1.3,0,0,1,.45.42c.52.68,1,1.4,1.55,2,.29.34,1.12.89,1.12,1.35a5.54,5.54,0,0,0,4.45,1.93,6.27,6.27,0,0,0,4-2.94,17.74,17.74,0,0,0,1.75-3.2.45.45,0,0,0,0-.5C148,152.25,147.8,152.31,147.64,152.42Z" transform="translate(-0.02)" fill="#d9c9ac"/><g clip-path="url(#clip-path-3)"><path d="M234.55,182.55l17.84-6-8.94-26.26-17.85,6a1.33,1.33,0,0,0-.83,1.68l8.12,23.74A1.34,1.34,0,0,0,234.55,182.55Z" transform="translate(-0.02)" fill="#3f4553"/><path d="M234.56,182l18.33-6.13-8.62-25.29L226,156.74a.86.86,0,0,0-.54,1.09h0l8.06,23.66A.88.88,0,0,0,234.56,182Z" transform="translate(-0.02)" fill="#dddde3"/><path d="M235,181.9l18.28-6.13-8.61-25.29-18.29,6.13a.86.86,0,0,0-.54,1.09h0l8.1,23.66A.88.88,0,0,0,235,181.9Z" transform="translate(-0.02)" fill="#e2e5ff"/><path d="M235.89,182.08l17.85-6-8.91-26.25-17.84,6a1.33,1.33,0,0,0-.85,1.66v0l8.09,23.74A1.34,1.34,0,0,0,235.89,182.08Z" transform="translate(-0.02)" fill="#4e5567"/><path d="M243.83,150.19l-.38.13,8.94,26.25.39-.13Z" transform="translate(-0.02)" fill="#3f4553"/><path d="M246.38,170.7l.4-.85.84.43-6.54-19.17c-.12-.34-.41-.31-.75-.2s-.59.28-.48.61Z" transform="translate(-0.02)" fill="#93bfa8"/><path d="M206.29,157.15l12-14.12-2.43-2-12,14.12Z" transform="translate(-0.02)" fill="#3f4553"/><path d="M203.89,155.11l2.43,2L202.81,159c-.11.07-.27-.07-.23-.19Z" transform="translate(-0.02)" fill="#f2ede4"/><path d="M202.79,159.06l1-.52-.85-.71-.35,1a.17.17,0,0,0,0,.24A.17.17,0,0,0,202.79,159.06Z" transform="translate(-0.02)" fill="#3f4553"/><path d="M205.49,156.48l12-14.12-.82-.69-12,14.12Z" transform="translate(-0.02)" fill="#4e5567"/></g><g clip-path="url(#clip-path-4)"><path d="M97.62,0a28,28,0,1,0,28,28A28,28,0,0,0,97.62,0Zm0,51.3A23.28,23.28,0,1,1,120.89,28h0A23.29,23.29,0,0,1,97.62,51.3Z" transform="translate(-0.02)" fill="#808aff"/><path d="M119.1,37A23.28,23.28,0,1,0,88.64,49.5,23.28,23.28,0,0,0,119.1,37Z" transform="translate(-0.02)" fill="#aeb4fc"/><path d="M118.81,28.07a1.27,1.27,0,1,0-1.27,1.27A1.27,1.27,0,0,0,118.81,28.07Z" transform="translate(-0.02)" fill="#808aff"/><path d="M97.57,49.21a1.27,1.27,0,1,0-1.27-1.27A1.27,1.27,0,0,0,97.57,49.21Z" transform="translate(-0.02)" fill="#808aff"/><path d="M76.42,28a1.27,1.27,0,1,0,1.27-1.27A1.27,1.27,0,0,0,76.42,28Z" transform="translate(-0.02)" fill="#808aff"/><path d="M107.63,34.83a.76.76,0,0,1-.44-.13l-10-6a.87.87,0,0,1-.42-.74V12a.85.85,0,1,1,1.7,0h0V27.54l9.6,5.71a.83.83,0,0,1,.31,1.13l0,0A.82.82,0,0,1,107.63,34.83Z" transform="translate(-0.02)" fill="#808aff"/></g><path d="M26.61,103.43l-.56-3.17-3.24.55A9.81,9.81,0,0,0,20.37,97l1.9-2.66-2.66-1.85-1.89,2.66a9.87,9.87,0,0,0-4.47-1l-.57-3.28-3.21.56.56,3.2A10.23,10.23,0,0,0,6.14,97L3.45,95.16,1.58,97.83,4.26,99.7a9.67,9.67,0,0,0-1,4.42L0,104.67l.54,3.16,3.25-.55a9.93,9.93,0,0,0,2.43,3.85l-1.9,2.66L7,115.63,8.89,113a10.14,10.14,0,0,0,4.47,1l.57,3.21,3.21-.55-.56-3.2A10,10,0,0,0,20.47,111l2.7,1.88L25,110.25l-2.69-1.87a9.67,9.67,0,0,0,1-4.42ZM13.82,107a3,3,0,1,1,2.46-3.46h0A3,3,0,0,1,13.82,107Z" transform="translate(-0.02)" fill="#9ba3ff"/><path d="M57.2,97V93H53.12A12.18,12.18,0,0,0,51,87.83L53.89,85,51,82.14,48.15,85a12.45,12.45,0,0,0-5.26-2.17V78.76h-4v4a12.21,12.21,0,0,0-5.27,2.12L30.72,82l-2.9,2.81,2.88,2.85a12.52,12.52,0,0,0-2.2,5.2H24.4v4h4.08a12,12,0,0,0,2.15,5.21L27.73,105l2.85,2.88L33.47,105a12.43,12.43,0,0,0,5.25,2.18v4h4v-4A12.46,12.46,0,0,0,48,105l2.9,2.86,2.85-2.82-2.85-2.86A12.19,12.19,0,0,0,53.1,97ZM40.8,98.69A3.72,3.72,0,1,1,44.56,95a3.73,3.73,0,0,1-3.76,3.72Z" transform="translate(-0.02)" fill="#aeb4fc"/><g opacity="0.3"><path d="M229.94,65.55l-30-6.74a.55.55,0,0,1-.41-.65l3.77-16.81a.54.54,0,0,1,.65-.42h0l30,6.75a.53.53,0,0,1,.41.64h0l-3.78,16.81A.55.55,0,0,1,229.94,65.55Z" transform="translate(-0.02)" fill="#ececec"/><path d="M200.05,58.41a.14.14,0,0,1-.12-.14,0,0,0,0,0,0,0l3.78-16.81a.13.13,0,0,1,.16-.11h0l30,6.75a.14.14,0,0,1,.12.14,0,0,0,0,0,0,0l-3.78,16.81a.13.13,0,0,1-.16.11h0Z" transform="translate(-0.02)" fill="#f5f4f5"/><path d="M229.74,46.72,208.2,41.88l-.09.39,21.54,4.85Z" transform="translate(-0.02)" fill="#706f6e"/><path d="M206.11,44.3l-1-.23a.21.21,0,0,1-.17-.26h0l.15-.7a.22.22,0,0,1,.27-.18h0l1,.22a.22.22,0,0,1,.18.27h0l-.16.7A.24.24,0,0,1,206.11,44.3Z" transform="translate(-0.02)" fill="#585857"/><path d="M205.16,43.88h0l.16-.7h0l1,.22h0l-.15.7h0Z" transform="translate(-0.02)" fill="#5e5e5d"/><path d="M207.89,44.7l-1-.22a.23.23,0,0,1-.17-.28h0l.15-.7a.23.23,0,0,1,.28-.17h0l1,.22a.22.22,0,0,1,.18.27h0l-.15.7a.23.23,0,0,1-.27.17Z" transform="translate(-0.02)" fill="#585857"/><path d="M207,44.29h0l.16-.7h0l1,.22h0l-.15.7h0Z" transform="translate(-0.02)" fill="#5e5e5d"/><path d="M209.75,45.12l-1-.23a.23.23,0,0,1-.17-.28h0l.15-.7a.23.23,0,0,1,.28-.17h0l1,.22a.22.22,0,0,1,.18.27h0l-.15.7A.26.26,0,0,1,209.75,45.12Z" transform="translate(-0.02)" fill="#585857"/><path d="M208.8,44.69h0L209,44h0l1,.22h0l-.15.7h0Z" transform="translate(-0.02)" fill="#5e5e5d"/><path d="M211.57,45.52l-1-.22a.22.22,0,0,1-.18-.27h0l.16-.7a.24.24,0,0,1,.27-.18l1,.23a.22.22,0,0,1,.18.27h0l-.15.69A.24.24,0,0,1,211.57,45.52Z" transform="translate(-0.02)" fill="#585857"/><path d="M210.62,45.1h0l.15-.7h0l1,.22h0l-.15.7h0Z" transform="translate(-0.02)" fill="#5e5e5d"/><path d="M213.38,45.93l-1-.22a.23.23,0,0,1-.17-.28h0l.15-.7a.25.25,0,0,1,.28-.18l1,.23a.25.25,0,0,1,.18.28l-.16.7a.23.23,0,0,1-.28.17Z" transform="translate(-0.02)" fill="#585857"/><path d="M212.44,45.52h0l.15-.7h0l1,.22h0l-.16.7h0Z" transform="translate(-0.02)" fill="#5e5e5d"/><path d="M215.21,46.34l-1-.22a.23.23,0,0,1-.17-.28h0l.15-.7a.23.23,0,0,1,.28-.17h0l1,.22a.22.22,0,0,1,.18.27h0l-.16.7a.23.23,0,0,1-.26.18Z" transform="translate(-0.02)" fill="#585857"/><path d="M214.26,45.92h0l.15-.7h0l1,.23h0l-.16.7h0Z" transform="translate(-0.02)" fill="#5e5e5d"/><path d="M217,46.75l-1-.23a.21.21,0,0,1-.17-.26h0l.15-.7a.22.22,0,0,1,.27-.18h0l1,.23a.22.22,0,0,1,.18.25v0l-.16.7a.23.23,0,0,1-.25.19Z" transform="translate(-0.02)" fill="#585857"/><path d="M216.08,46.33h0l.15-.7h0l1,.23h0l-.16.7h0Z" transform="translate(-0.02)" fill="#5e5e5d"/><path d="M218.89,47.16l-1-.22a.23.23,0,0,1-.17-.28h0l.15-.7a.25.25,0,0,1,.28-.18l1,.23a.22.22,0,0,1,.18.25v0l-.16.7a.22.22,0,0,1-.27.18Z" transform="translate(-0.02)" fill="#585857"/><path d="M217.89,46.74h0l.16-.7h0l1,.22h0l-.16.7h0Z" transform="translate(-0.02)" fill="#5e5e5d"/><path d="M220.67,47.57l-1-.22a.22.22,0,0,1-.18-.27h0l.15-.7a.25.25,0,0,1,.28-.18l1,.23a.23.23,0,0,1,.17.28h0l-.15.7A.24.24,0,0,1,220.67,47.57Z" transform="translate(-0.02)" fill="#585857"/><path d="M219.72,47.15h0l.15-.7h0l1,.23h0l-.15.7h0Z" transform="translate(-0.02)" fill="#5e5e5d"/><path d="M222.49,48l-1-.23a.22.22,0,0,1-.18-.25v0l.15-.7a.22.22,0,0,1,.27-.18h0l1,.22a.23.23,0,0,1,.17.28h0l-.15.7A.24.24,0,0,1,222.49,48Z" transform="translate(-0.02)" fill="#585857"/><path d="M221.54,47.56h0l.15-.7h0l1,.23h0l-.15.7h0Z" transform="translate(-0.02)" fill="#5e5e5d"/><path d="M224.31,48.39l-1-.23a.22.22,0,0,1-.18-.25v0l.15-.7a.24.24,0,0,1,.28-.18l1,.22a.23.23,0,0,1,.17.28h0l-.15.7A.24.24,0,0,1,224.31,48.39Z" transform="translate(-0.02)" fill="#585857"/><path d="M223.36,48h0l.15-.69h0l1,.23h0l-.15.69h0Z" transform="translate(-0.02)" fill="#5e5e5d"/><path d="M226.13,48.83l-1-.22a.22.22,0,0,1-.18-.27h0l.16-.7a.24.24,0,0,1,.27-.18l1,.23a.21.21,0,0,1,.17.26h0l-.15.7A.24.24,0,0,1,226.13,48.83Z" transform="translate(-0.02)" fill="#585857"/><path d="M225.18,48.38h0l.15-.7h0l1,.22h0l-.16.7h0Z" transform="translate(-0.02)" fill="#5e5e5d"/><path d="M228,49.21,227,49a.22.22,0,0,1-.18-.27h0l.16-.7a.21.21,0,0,1,.26-.17h0l1,.22a.23.23,0,0,1,.17.28h0l-.15.7A.24.24,0,0,1,228,49.21Z" transform="translate(-0.02)" fill="#585857"/><path d="M227,48.83h0l.15-.7h0l1,.22h0l-.16.7h0Z" transform="translate(-0.02)" fill="#5e5e5d"/><path d="M229.77,49.62l-1-.23a.24.24,0,0,1-.18-.28l.16-.7a.23.23,0,0,1,.28-.17h0l1,.22a.23.23,0,0,1,.17.28h0l-.15.7A.24.24,0,0,1,229.77,49.62Z" transform="translate(-0.02)" fill="#585857"/><path d="M228.82,49.2h0l.16-.7h0l1,.23h0l-.16.7h0Z" transform="translate(-0.02)" fill="#5e5e5d"/><path d="M231.59,50l-1-.23a.21.21,0,0,1-.17-.26h0l.15-.7a.22.22,0,0,1,.27-.18h0l1,.22a.22.22,0,0,1,.18.27h0l-.14.68a.23.23,0,0,1-.25.21Z" transform="translate(-0.02)" fill="#585857"/><path d="M230.64,49.61h0l.16-.7h0l1,.22h0l-.16.7h0Z" transform="translate(-0.02)" fill="#5e5e5d"/><path d="M205.09,44.31l1.23.28a.27.27,0,0,1,.2.32l-.27,1.2a.28.28,0,0,1-.32.2L204.7,46a.26.26,0,0,1-.2-.31h0l.28-1.21a.26.26,0,0,1,.31-.2Z" transform="translate(-0.02)" fill="#585857"/><path d="M204.75,45.83a.1.1,0,0,1-.05-.08l.27-1.21a.06.06,0,0,1,.08,0l1.23.27a.1.1,0,0,1,.05.08l-.28,1.21H206Z" transform="translate(-0.02)" fill="#5e5e5d"/><path d="M207.19,44.83l1.23.28a.25.25,0,0,1,.19.3h0l-.27,1.21a.26.26,0,0,1-.31.2h0l-1.23-.28a.27.27,0,0,1-.2-.32l.27-1.2A.27.27,0,0,1,207.19,44.83Z" transform="translate(-0.02)" fill="#585857"/><path d="M206.89,46.31a.06.06,0,0,1,0-.07h0l.27-1.21a.09.09,0,0,1,.08-.05l1.23.28v.07l-.27,1.21h-.07Z" transform="translate(-0.02)" fill="#5e5e5d"/><path d="M209.29,45.26l1.23.28a.26.26,0,0,1,.2.31h0l-.28,1.21a.26.26,0,0,1-.31.2h0L208.89,47a.27.27,0,0,1-.2-.32l.28-1.2a.26.26,0,0,1,.31-.2Z" transform="translate(-0.02)" fill="#585857"/><path d="M209,46.83a.06.06,0,0,1,0-.07h0l.27-1.21a.09.09,0,0,1,.08,0l1.23.28v.07l-.27,1.21h-.07Z" transform="translate(-0.02)" fill="#5e5e5d"/><path d="M211.39,45.73l1.23.28a.26.26,0,0,1,.19.31l-.27,1.21a.26.26,0,0,1-.31.2h0L211,47.45a.27.27,0,0,1-.2-.32l.27-1.2A.27.27,0,0,1,211.39,45.73Z" transform="translate(-0.02)" fill="#585857"/><path d="M211.05,47.26a.06.06,0,0,1,0-.08l.27-1.21a0,0,0,0,1,.07,0l1.23.27a.06.06,0,0,1,0,.08l-.27,1.21a.06.06,0,0,1-.08,0Z" transform="translate(-0.02)" fill="#5e5e5d"/><path d="M213.49,46.2l1.22.28a.27.27,0,0,1,.2.32l-.27,1.2a.27.27,0,0,1-.32.2l-1.22-.28a.26.26,0,0,1-.2-.31h0l.27-1.21A.28.28,0,0,1,213.49,46.2Z" transform="translate(-0.02)" fill="#585857"/><path d="M213.14,47.73a.06.06,0,0,1,0-.08l.27-1.21h.07l1.23.27a.07.07,0,0,1,0,.08L214.49,48a.06.06,0,0,1-.08,0Z" transform="translate(-0.02)" fill="#5e5e5d"/><path d="M215.59,46.67l1.22.28a.27.27,0,0,1,.2.32l-.27,1.2a.27.27,0,0,1-.32.2l-1.23-.28a.26.26,0,0,1-.19-.31l.27-1.21A.28.28,0,0,1,215.59,46.67Z" transform="translate(-0.02)" fill="#585857"/><path d="M215.24,48.2a.11.11,0,0,1,0-.08l.28-1.21h.07l1.23.27a.1.1,0,0,1,.05.08l-.27,1.21a.06.06,0,0,1-.08,0Z" transform="translate(-0.02)" fill="#5e5e5d"/><path d="M217.68,47.15l1.23.28a.26.26,0,0,1,.2.31h0L218.89,49a.27.27,0,0,1-.32.2l-1.28-.32a.25.25,0,0,1-.2-.29v0l.27-1.2A.26.26,0,0,1,217.68,47.15Z" transform="translate(-0.02)" fill="#585857"/><path d="M217.34,48.67V48.6l.28-1.21s0,0,.07,0l1.23.28s.05,0,.05.07l-.28,1.21h-.07Z" transform="translate(-0.02)" fill="#5e5e5d"/><path d="M219.79,47.62l1.23.28a.26.26,0,0,1,.19.31l-.27,1.21a.26.26,0,0,1-.31.2h0l-1.23-.28a.27.27,0,0,1-.2-.32l.27-1.2A.27.27,0,0,1,219.79,47.62Z" transform="translate(-0.02)" fill="#585857"/><path d="M219.44,49.14s-.05,0-.05-.07l.27-1.21a.1.1,0,0,1,.08,0l1.23.28v.07l-.28,1.21s0,.05-.07.05Z" transform="translate(-0.02)" fill="#5e5e5d"/><path d="M221.89,48.09l1.23.28a.26.26,0,0,1,.2.31h0l-.27,1.21a.27.27,0,0,1-.32.2l-1.23-.26a.26.26,0,0,1-.2-.31h0l.27-1.2a.27.27,0,0,1,.29-.23Z" transform="translate(-0.02)" fill="#585857"/><path d="M221.54,49.62a.06.06,0,0,1,0-.08l.27-1.21h.07l1.23.27a.11.11,0,0,1,0,.08l-.22,1.15a.06.06,0,0,1-.08,0Z" transform="translate(-0.02)" fill="#5e5e5d"/><path d="M224,48.56l1.23.28a.27.27,0,0,1,.2.32l-.27,1.2a.27.27,0,0,1-.32.2l-1.23-.28a.26.26,0,0,1-.19-.31l.27-1.21a.26.26,0,0,1,.31-.2Z" transform="translate(-0.02)" fill="#585857"/><path d="M223.64,50.09a.1.1,0,0,1,0-.08l.3-1.18a0,0,0,0,1,.07,0l1.23.27a.1.1,0,0,1,.05.08L225,50.39a.06.06,0,0,1-.08,0Z" transform="translate(-0.02)" fill="#5e5e5d"/><path d="M226.08,49l1.23.28a.27.27,0,0,1,.2.32l-.27,1.2a.28.28,0,0,1-.32.2l-1.22-.28a.26.26,0,0,1-.2-.31h0l.27-1.21a.26.26,0,0,1,.31-.2Z" transform="translate(-0.02)" fill="#585857"/><path d="M225.74,50.56a.11.11,0,0,1,0-.08l.28-1.2a0,0,0,0,1,0-.05h0l1.23.27a.1.1,0,0,1,.05.08L227,50.83a.06.06,0,0,1-.08,0Z" transform="translate(-0.02)" fill="#5e5e5d"/><path d="M228.18,49.51l1.23.28a.26.26,0,0,1,.2.31h0l-.28,1.21a.26.26,0,0,1-.31.2h0l-1.23-.28a.27.27,0,0,1-.2-.32l.28-1.2a.24.24,0,0,1,.29-.2Z" transform="translate(-0.02)" fill="#585857"/><path d="M227.89,51V51l.27-1.21a.1.1,0,0,1,.08,0l1.23.28a0,0,0,0,1,0,.07l-.27,1.21h-.07Z" transform="translate(-0.02)" fill="#5e5e5d"/><path d="M230.28,50l1.23.28a.25.25,0,0,1,.19.3h0l-.27,1.26a.26.26,0,0,1-.31.2h0l-1.23-.33a.27.27,0,0,1-.2-.32l.28-1.2a.26.26,0,0,1,.31-.2Z" transform="translate(-0.02)" fill="#585857"/><path d="M229.94,51.5a0,0,0,0,1-.05,0v0l.27-1.21h.08l1.22.28s.06,0,0,.07l-.27,1.21s0,0-.07,0Z" transform="translate(-0.02)" fill="#5e5e5d"/><path d="M204.65,46.27l1.23.28a.25.25,0,0,1,.19.3h0l-.27,1.21a.26.26,0,0,1-.31.2h0L204.26,48a.27.27,0,0,1-.2-.32l.28-1.2a.26.26,0,0,1,.31-.2Z" transform="translate(-0.02)" fill="#585857"/><path d="M204.31,47.83a0,0,0,0,1,0-.07l.27-1.21h.08l1.22.28h0L205.62,48s0,.05-.08.05Z" transform="translate(-0.02)" fill="#5e5e5d"/><path d="M206.75,46.74,208,47a.27.27,0,0,1,.2.32l-.27,1.2a.27.27,0,0,1-.32.2l-1.23-.28a.25.25,0,0,1-.19-.3h0l.27-1.21a.26.26,0,0,1,.31-.2Z" transform="translate(-0.02)" fill="#585857"/><path d="M206.41,48.27a.07.07,0,0,1,0-.08l.27-1.21h.08l1.22.27a.07.07,0,0,1,0,.08l-.27,1.21a.06.06,0,0,1-.08,0Z" transform="translate(-0.02)" fill="#5e5e5d"/><path d="M208.89,47.21l1.23.28a.27.27,0,0,1,.2.32L210,49a.26.26,0,0,1-.31.2h0l-1.23-.28a.26.26,0,0,1-.2-.31h0l.28-1.21a.26.26,0,0,1,.31-.2Z" transform="translate(-0.02)" fill="#585857"/><path d="M208.51,48.74a.1.1,0,0,1,0-.08l.27-1.21a.06.06,0,0,1,.08,0l1.23.27a.06.06,0,0,1,0,.08L209.77,49h-.07Z" transform="translate(-0.02)" fill="#5e5e5d"/><path d="M211,47.68l1.23.28a.27.27,0,0,1,.2.32l-.28,1.2a.26.26,0,0,1-.31.2h0l-1.23-.28a.26.26,0,0,1-.2-.31h0l.27-1.21A.27.27,0,0,1,211,47.68Z" transform="translate(-0.02)" fill="#585857"/><path d="M210.61,49.21a.07.07,0,0,1-.05-.08l.27-1.21a.06.06,0,0,1,.08,0l1.23.27a.06.06,0,0,1,0,.08l-.25,1.17a0,0,0,0,1-.07,0Z" transform="translate(-0.02)" fill="#5e5e5d"/><path d="M213.05,48.16l1.23.28a.26.26,0,0,1,.19.31L214.2,50a.26.26,0,0,1-.31.2h0l-1.23-.28a.27.27,0,0,1-.2-.32l.27-1.2A.27.27,0,0,1,213.05,48.16Z" transform="translate(-0.02)" fill="#585857"/><path d="M212.71,49.68a0,0,0,0,1,0-.07L213,48.4h.08l1.22.28a0,0,0,0,1,0,.07L214,50a.09.09,0,0,1-.08,0Z" transform="translate(-0.02)" fill="#5e5e5d"/><path d="M215.15,48.63l1.22.28a.26.26,0,0,1,.2.31h0l-.27,1.21a.26.26,0,0,1-.31.2h0l-1.23-.28a.27.27,0,0,1-.2-.32l.27-1.2A.27.27,0,0,1,215.15,48.63Z" transform="translate(-0.02)" fill="#585857"/><path d="M214.81,50.15a0,0,0,0,1,0-.07l.27-1.21h.07l1.23.28a.06.06,0,0,1,.05.07h0l-.27,1.21a.09.09,0,0,1-.08,0Z" transform="translate(-0.02)" fill="#5e5e5d"/><path d="M217.25,49.1l1.22.28a.27.27,0,0,1,.2.32l-.27,1.2a.27.27,0,0,1-.32.2l-1.19-.27a.26.26,0,0,1-.19-.31l.27-1.21A.28.28,0,0,1,217.25,49.1Z" transform="translate(-0.02)" fill="#585857"/><path d="M216.89,50.63a.11.11,0,0,1,0-.08l.28-1.21h.07l1.23.27a.1.1,0,0,1,.05.08l-.31,1.14a.06.06,0,0,1-.08,0Z" transform="translate(-0.02)" fill="#5e5e5d"/><path d="M219.34,49.57l1.23.28a.27.27,0,0,1,.2.32l-.27,1.2a.27.27,0,0,1-.32.2L219,51.29a.26.26,0,0,1-.19-.31l.27-1.21A.26.26,0,0,1,219.34,49.57Z" transform="translate(-0.02)" fill="#585857"/><path d="M219,51.1A.1.1,0,0,1,219,51l.28-1.21h.07l1.23.27a.1.1,0,0,1,.05.08l-.28,1.21h-.07Z" transform="translate(-0.02)" fill="#5e5e5d"/><path d="M221.44,50l1.23.28a.27.27,0,0,1,.2.32l-.27,1.2a.27.27,0,0,1-.32.2l-1.23-.28a.25.25,0,0,1-.19-.3h0l.27-1.21a.26.26,0,0,1,.31-.2Z" transform="translate(-0.02)" fill="#585857"/><path d="M221.1,51.57a.1.1,0,0,1,0-.08l.27-1.21a.06.06,0,0,1,.08,0l1.23.27a.11.11,0,0,1,0,.08l-.23,1.2s0,.05-.07,0Z" transform="translate(-0.02)" fill="#5e5e5d"/><path d="M223.54,50.52l1.23.28a.26.26,0,0,1,.2.31h0l-.28,1.21a.26.26,0,0,1-.31.2h0l-1.23-.28a.27.27,0,0,1-.2-.32l.28-1.2a.24.24,0,0,1,.29-.2Z" transform="translate(-0.02)" fill="#585857"/><path d="M223.2,52s0,0,0-.07l.27-1.21h.08l1.23.28v.07l-.27,1.21s0,0-.07,0Z" transform="translate(-0.02)" fill="#5e5e5d"/><path d="M225.64,51l1.23.28a.26.26,0,0,1,.2.31h0l-.27,1.25a.27.27,0,0,1-.32.2l-1.23-.28a.27.27,0,0,1-.19-.32l.27-1.2a.26.26,0,0,1,.27-.24Z" transform="translate(-0.02)" fill="#585857"/><path d="M225.3,52.51a0,0,0,0,1,0-.07l.27-1.21h.08l1.22.28a0,0,0,0,1,0,.07l-.27,1.21a.08.08,0,0,1-.07.05Z" transform="translate(-0.02)" fill="#5e5e5d"/><path d="M227.74,51.46l1.23.28a.27.27,0,0,1,.2.32l-.27,1.2a.28.28,0,0,1-.32.2l-1.23-.28a.25.25,0,0,1-.19-.3h0l.27-1.21a.26.26,0,0,1,.31-.2Z" transform="translate(-0.02)" fill="#585857"/><path d="M227.4,53a.11.11,0,0,1,0-.08l.28-1.21h.07L229,52a.1.1,0,0,1,.05.08l-.28,1.21h-.07Z" transform="translate(-0.02)" fill="#5e5e5d"/><path d="M229.89,51.93l1.23.28a.27.27,0,0,1,.2.32l-.27,1.2a.28.28,0,0,1-.32.2l-1.23-.28a.26.26,0,0,1-.2-.31h0l.28-1.21a.26.26,0,0,1,.31-.2Z" transform="translate(-0.02)" fill="#585857"/><path d="M229.5,53.46a.1.1,0,0,1-.05-.08l.27-1.21a.06.06,0,0,1,.08,0l1.23.27a.1.1,0,0,1,.05.08l-.28,1.21h-.07Z" transform="translate(-0.02)" fill="#5e5e5d"/><path d="M204.21,48.22l1.23.28a.27.27,0,0,1,.2.32l-.27,1.2a.28.28,0,0,1-.32.2l-1.23-.28a.26.26,0,0,1-.2-.31h0l.28-1.21a.26.26,0,0,1,.31-.2Z" transform="translate(-0.02)" fill="#585857"/><path d="M203.89,49.74v-.07l.27-1.21a.06.06,0,0,1,.08,0l1.23.27a.06.06,0,0,1,0,.08L205.2,50a0,0,0,0,1-.07,0Z" transform="translate(-0.02)" fill="#5e5e5d"/><path d="M206.31,48.69l1.23.28a.25.25,0,0,1,.2.29v0l-.27,1.2a.26.26,0,0,1-.31.2h0l-1.26-.28a.26.26,0,0,1-.2-.31h0l.27-1.21A.29.29,0,0,1,206.31,48.69Z" transform="translate(-0.02)" fill="#585857"/><path d="M206,50.22s-.06,0-.05-.07l.27-1.21h.08l1.23.28v.07l-.27,1.21s0,0-.07,0Z" transform="translate(-0.02)" fill="#5e5e5d"/><path d="M208.41,49.17l1.23.28a.26.26,0,0,1,.19.31L209.56,51a.26.26,0,0,1-.31.2h0L208,50.89a.27.27,0,0,1-.2-.32l.27-1.2A.28.28,0,0,1,208.41,49.17Z" transform="translate(-0.02)" fill="#585857"/><path d="M208.07,50.69s-.06,0,0-.07l.27-1.21a.06.06,0,0,1,.08,0l1.22.28a0,0,0,0,1,0,.05v0L209.37,51h-.08Z" transform="translate(-0.02)" fill="#5e5e5d"/><path d="M210.51,49.64l1.23.28a.26.26,0,0,1,.2.31h0l-.28,1.21a.25.25,0,0,1-.3.19h0l-1.23-.27a.27.27,0,0,1-.2-.32l.28-1.2a.26.26,0,0,1,.31-.2Z" transform="translate(-0.02)" fill="#585857"/><path d="M210.16,51.16a.06.06,0,0,1,0-.08l.27-1.2s0-.06.07,0l1.23.28a0,0,0,0,1,0,.07l-.27,1.21a.11.11,0,0,1-.08,0Z" transform="translate(-0.02)" fill="#5e5e5d"/><path d="M212.61,50.11l1.23.28a.27.27,0,0,1,.2.32l-.28,1.2a.26.26,0,0,1-.31.2h0l-1.23-.28a.26.26,0,0,1-.2-.31h0l.28-1.21a.26.26,0,0,1,.31-.2Z" transform="translate(-0.02)" fill="#585857"/><path d="M212.27,51.63v-.07l.27-1.21a.06.06,0,0,1,.08,0l1.23.27a.06.06,0,0,1,0,.08l-.27,1.2a0,0,0,0,1-.07,0Z" transform="translate(-0.02)" fill="#5e5e5d"/><path d="M214.71,50.58l1.23.28a.25.25,0,0,1,.2.29v0l-.27,1.2a.26.26,0,0,1-.31.2h0l-1.23-.28a.26.26,0,0,1-.2-.31h0l.27-1.16a.28.28,0,0,1,.31-.25Z" transform="translate(-0.02)" fill="#585857"/><path d="M214.37,52.1a0,0,0,0,1,0-.07l.22-1.2a.06.06,0,0,1,.08,0l1.22.27a.07.07,0,0,1,.05.08l-.27,1.2a.06.06,0,0,1-.08,0Z" transform="translate(-0.02)" fill="#5e5e5d"/><path d="M216.81,51.05l1.23.28a.25.25,0,0,1,.19.31h0l-.27,1.2a.26.26,0,0,1-.31.2h0l-1.23-.28a.26.26,0,0,1-.2-.31h0l.27-1.21A.28.28,0,0,1,216.81,51.05Z" transform="translate(-0.02)" fill="#585857"/><path d="M216.47,52.58s-.06,0-.05-.07l.27-1.21h.07l1.23.28a.06.06,0,0,1,0,.07h0l-.27,1.18a.09.09,0,0,1-.08.05Z" transform="translate(-0.02)" fill="#5e5e5d"/><path d="M218.89,51.53l1.22.28a.26.26,0,0,1,.2.31h0L220,53.33a.27.27,0,0,1-.32.2l-1.22-.28a.27.27,0,0,1-.2-.32l.27-1.2a.26.26,0,0,1,.31-.2Z" transform="translate(-0.02)" fill="#585857"/><path d="M218.56,53.05a0,0,0,0,1,0-.07l.27-1.21h.07l1.23.28s.05,0,.05.07l-.29,1.16h-.08Z" transform="translate(-0.02)" fill="#5e5e5d"/><path d="M221,52l1.23.28a.26.26,0,0,1,.2.31h0l-.27,1.24a.27.27,0,0,1-.32.2l-1.23-.28a.25.25,0,0,1-.19-.31h0l.27-1.2A.25.25,0,0,1,221,52Z" transform="translate(-0.02)" fill="#585857"/><path d="M220.66,53.52a.08.08,0,0,1,0-.07l.28-1.21a0,0,0,0,1,.07,0l1.23.28v.07l-.28,1.21a.09.09,0,0,1-.07,0Z" transform="translate(-0.02)" fill="#5e5e5d"/><path d="M223.1,52.47l1.23.28a.27.27,0,0,1,.2.32l-.27,1.2a.27.27,0,0,1-.32.2l-1.23-.28a.25.25,0,0,1-.19-.3h0l.27-1.21A.26.26,0,0,1,223.1,52.47Z" transform="translate(-0.02)" fill="#585857"/><path d="M222.76,54a.09.09,0,0,1,0-.08l.27-1.21a.06.06,0,0,1,.08,0l1.23.27a.11.11,0,0,1,0,.08l-.28,1.2a0,0,0,0,1-.07,0Z" transform="translate(-0.02)" fill="#5e5e5d"/><path d="M225.2,52.94l1.23.28a.27.27,0,0,1,.2.32l-.27,1.2a.28.28,0,0,1-.32.2l-1.23-.28a.26.26,0,0,1-.2-.31h0l.28-1.21a.26.26,0,0,1,.31-.2Z" transform="translate(-0.02)" fill="#585857"/><path d="M224.89,54.47a.1.1,0,0,1,0-.08l.27-1.21a.06.06,0,0,1,.08,0l1.23.27a.06.06,0,0,1,0,.08l-.27,1.2a0,0,0,0,1-.07,0Z" transform="translate(-0.02)" fill="#5e5e5d"/><path d="M227.3,53.41l1.23.28a.25.25,0,0,1,.2.29v0l-.27,1.2a.26.26,0,0,1-.31.2h0l-1.25-.28a.26.26,0,0,1-.2-.31h0l.27-1.21A.28.28,0,0,1,227.3,53.41Z" transform="translate(-0.02)" fill="#585857"/><path d="M227,54.94s-.06,0,0-.07l.27-1.21h.08l1.22.28a0,0,0,0,1,0,.07l-.27,1.2a0,0,0,0,1,0,0h0Z" transform="translate(-0.02)" fill="#5e5e5d"/><path d="M229.4,53.89l1.23.28a.26.26,0,0,1,.2.31h0l-.27,1.21a.27.27,0,0,1-.32.2L229,55.61a.25.25,0,0,1-.19-.31h0l.27-1.2a.24.24,0,0,1,.29-.2Z" transform="translate(-0.02)" fill="#585857"/><path d="M229.06,55.41s-.06,0,0-.07l.27-1.21a.11.11,0,0,1,.08,0l1.22.28a0,0,0,0,1,.05.05v0l-.27,1.21a.11.11,0,0,1-.08,0Z" transform="translate(-0.02)" fill="#5e5e5d"/><path d="M203.77,50.18l1.23.28a.26.26,0,0,1,.2.31h0L204.89,52a.25.25,0,0,1-.31.19h0l-1.23-.27a.27.27,0,0,1-.2-.32l.28-1.21a.26.26,0,0,1,.31-.2Z" transform="translate(-0.02)" fill="#585857"/><path d="M203.43,51.7a.11.11,0,0,1,0-.08l.28-1.2a.06.06,0,0,1,.07-.05h0l1.23.28s.05,0,.05.07l-.28,1.21h-.07Z" transform="translate(-0.02)" fill="#5e5e5d"/><path d="M205.89,50.65l1.23.27a.28.28,0,0,1,.2.32l-.27,1.21a.25.25,0,0,1-.31.19h0l-1.23-.27a.27.27,0,0,1-.2-.32l.28-1.21A.26.26,0,0,1,205.89,50.65Z" transform="translate(-0.02)" fill="#585857"/><path d="M205.53,52.17a.11.11,0,0,1,0-.08l.27-1.2a.07.07,0,0,1,.08,0l1.23.28s0,0,0,.07l-.28,1.21h-.07Z" transform="translate(-0.02)" fill="#5e5e5d"/><path d="M208,51.12l1.23.28a.27.27,0,0,1,.2.32l-.28,1.2a.26.26,0,0,1-.31.2h0l-1.23-.29a.26.26,0,0,1-.2-.31h0l.28-1.21A.26.26,0,0,1,208,51.12Z" transform="translate(-0.02)" fill="#585857"/><path d="M207.63,52.64a.06.06,0,0,1,0-.07h0l.27-1.21a.09.09,0,0,1,.08,0l1.23.28a.06.06,0,0,1,0,.08l-.27,1.16a0,0,0,0,1,0,.05h0Z" transform="translate(-0.02)" fill="#5e5e5d"/><path d="M210.07,51.59l1.23.28a.25.25,0,0,1,.2.29v0l-.27,1.2a.26.26,0,0,1-.31.2h0l-1.23-.28a.26.26,0,0,1-.2-.31h0l.27-1.21A.28.28,0,0,1,210.07,51.59Z" transform="translate(-0.02)" fill="#585857"/><path d="M209.73,53.11a.06.06,0,0,1,0-.07h0l.27-1.21H210l1.22.28a.06.06,0,0,1,0,.08l-.27,1.2s0,.06-.07,0Z" transform="translate(-0.02)" fill="#5e5e5d"/><path d="M219.69,53.76l-7.53-1.7a.26.26,0,0,0-.31.19l-.29,1.3a.19.19,0,0,0,.13.22l7.61,1.7a.25.25,0,0,0,.31-.18h0l.27-1.21a.25.25,0,0,0-.18-.31Z" transform="translate(-0.02)" fill="#585857"/><path d="M211.77,53.57l.29-1.27m.06,0L219.65,54a.07.07,0,0,1,0,.08l-.27,1.2a.05.05,0,0,1-.07,0h0Z" transform="translate(-0.02)" fill="#5e5e5d"/><path d="M220.57,54l1.22.28a.26.26,0,0,1,.2.31h0l-.27,1.2a.26.26,0,0,1-.31.2h0l-1.23-.28a.26.26,0,0,1-.2-.31h0l.27-1.21A.27.27,0,0,1,220.57,54Z" transform="translate(-0.02)" fill="#585857"/><path d="M220.22,55.47s-.05,0,0-.07l.27-1.21h.07l1.23.28a.06.06,0,0,1,0,.08l-.27,1.2a.07.07,0,0,1-.08,0Z" transform="translate(-0.02)" fill="#5e5e5d"/><path d="M222.67,54.43l1.22.28a.26.26,0,0,1,.2.31h0l-.27,1.21a.25.25,0,0,1-.29.2h0l-1.22-.27a.27.27,0,0,1-.2-.32l.27-1.2a.26.26,0,0,1,.31-.2Z" transform="translate(-0.02)" fill="#585857"/><path d="M222.32,56a.06.06,0,0,1,0-.08l.27-1.2a.06.06,0,0,1,.07-.05h0l1.23.28V55l-.27,1.21h-.08Z" transform="translate(-0.02)" fill="#5e5e5d"/><path d="M224.76,54.9l1.23.28a.26.26,0,0,1,.2.31h0l-.3,1.21a.25.25,0,0,1-.29.2h0l-1.23-.27a.25.25,0,0,1-.2-.29v0l.27-1.2a.26.26,0,0,1,.3-.21Z" transform="translate(-0.02)" fill="#585857"/><path d="M224.42,56.42a.09.09,0,0,1,0-.08l.28-1.2a.06.06,0,0,1,.07,0h0l1.23.28s.05,0,.05.07l-.28,1.21h-.07Z" transform="translate(-0.02)" fill="#5e5e5d"/><path d="M226.89,55.37l1.23.28a.26.26,0,0,1,.2.31h0l-.27,1.21a.25.25,0,0,1-.31.19h0l-1.23-.27a.27.27,0,0,1-.2-.32l.28-1.21A.26.26,0,0,1,226.89,55.37Z" transform="translate(-0.02)" fill="#585857"/><path d="M226.52,56.89a.11.11,0,0,1,0-.08l.27-1.2a.07.07,0,0,1,.08,0l1.23.28s.05,0,0,.07l-.27,1.21s0,.05-.07.05Z" transform="translate(-0.02)" fill="#5e5e5d"/><path d="M229,55.83l1.23.28a.27.27,0,0,1,.2.32l-.28,1.2a.26.26,0,0,1-.31.2h0l-1.23-.28a.26.26,0,0,1-.2-.31h0l.27-1.21A.28.28,0,0,1,229,55.83Z" transform="translate(-0.02)" fill="#585857"/><path d="M228.62,57.36v-.07l.27-1.21a.06.06,0,0,1,.08,0l1.23.27a.06.06,0,0,1,0,.08l-.27,1.2a0,0,0,0,1-.05,0h0Z" transform="translate(-0.02)" fill="#5e5e5d"/><path d="M219.31,57.16l-6.16-1.33a.49.49,0,0,0-.6.37v0l-.75,3.29a.52.52,0,0,0,.39.62l6.16,1.38a.52.52,0,0,0,.62-.39l.74-3.29a.53.53,0,0,0-.33-.66Z" transform="translate(-0.02)" fill="#ededed"/><path d="M219.36,57l-6.16-1.38a.73.73,0,0,0-.86.54l-.74,3.29a.73.73,0,0,0,.54.86l6.16,1.38a.72.72,0,0,0,.86-.52v0l.73-3.28A.73.73,0,0,0,219.36,57Zm-.4,4.11a.51.51,0,0,1-.61.39h0l-6.16-1.38a.5.5,0,0,1-.39-.6v0l.74-3.29a.51.51,0,0,1,.59-.4h0l6.17,1.38a.53.53,0,0,1,.39.62Z" transform="translate(-0.02)" fill="#9d9b9b"/><path d="M212.16,57.83l-.36,1.62a.51.51,0,0,0,.37.62h0l6.16,1.38a.49.49,0,0,0,.6-.37v0l.37-1.62Z" transform="translate(-0.02)" fill="#dfdfde"/><path d="M215.72,58.64l-3.56-.81-.36,1.63a.49.49,0,0,0,.37.6h0l3,.69Z" transform="translate(-0.02)" fill="#d9d9da"/><path d="M234.1,47.7l-30.21-6.8a.36.36,0,0,1-.28-.39l3.17-17.31a.78.78,0,0,1,.85-.71l.1,0,30.82,6.93a.78.78,0,0,1,.58.94s0,0,0,.06l-4.54,17a.36.36,0,0,1-.41.28Z" transform="translate(-0.02)" fill="#e3e1e1"/><path d="M204.89,39.24l2.92-14.61a.74.74,0,0,1,.8-.68l.1,0L237,30.32a.74.74,0,0,1,.58.87.5.5,0,0,1,0,.13l-3.6,14.44a.75.75,0,0,1-.87.47L205.48,40A.74.74,0,0,1,204.89,39.24Z" transform="translate(-0.02)" fill="#c7c7c6"/><path d="M205.08,39.26,208,24.64a.54.54,0,0,1,.58-.49h.08l28.23,6.36a.54.54,0,0,1,.41.64.64.64,0,0,1,0,.07l-3.62,14.46A.54.54,0,0,1,233,46l-27.54-6.2A.53.53,0,0,1,205.08,39.26Z" transform="translate(-0.02)" fill="#c6e6f2"/><path d="M229.71,46.72l-21.53-4.84v-.36l21.71,4.88Z" transform="translate(-0.02)" fill="#585857"/></g><path d="M47.72,148.62a11.25,11.25,0,1,0-13.6,13.57c.22.61.65,4.29,1.41,5.47a1.17,1.17,0,0,0,1.43.48c.53,1.89,2.75,3.63,4.58,3.46a3.13,3.13,0,0,0,2.63-2.2,19.36,19.36,0,0,0,.75-3c.88,0,1.3-.12,1.26-.94-.07-1.44-1.62-5.38-1.68-6A11.34,11.34,0,0,0,47.72,148.62Z" transform="translate(-0.02)" fill="#fdfffc"/><path d="M41.89,148.21a1.17,1.17,0,1,0-2.3.41.7.7,0,0,0,0,.14,1.25,1.25,0,0,0,.72.82c-.25,1.59-.56,3.15-.69,4.76a29.59,29.59,0,0,1-.57,4.4c-1.77-2.67-3.53-5.32-5.48-7.85a.87.87,0,0,0,0-1.22.86.86,0,1,0-.41,1.43h0a85.12,85.12,0,0,1,5.65,8.9.43.43,0,0,0,.59.16.45.45,0,0,0,.19-.24,19.1,19.1,0,0,0,.81-4.92c.13-1.81.48-3.59.63-5.39A1.19,1.19,0,0,0,41.89,148.21Z" transform="translate(-0.02)" fill="#aeb4fc"/><path d="M28.29,138.32l-6.84-3.41c-.47-.23-.9.45-.43.7l6.67,3.68C28.34,139.65,28.94,138.64,28.29,138.32Z" transform="translate(-0.02)" fill="#808aff"/><path d="M32.57,129.63c-.18-.41-.72-.11-.68.27a42.4,42.4,0,0,0,1.83,7,.47.47,0,0,0,.59.28.46.46,0,0,0,.3-.49A40.41,40.41,0,0,0,32.57,129.63Z" transform="translate(-0.02)" fill="#808aff"/><path d="M43.18,129a6.66,6.66,0,0,0-1.31,2c-.39.72-.73,1.46-1.06,2.2s.75.93,1,.3.63-1.49,1-2.22a11.77,11.77,0,0,0,1-1.93.36.36,0,0,0-.63-.35Z" transform="translate(-0.02)" fill="#808aff"/></g></svg>