<svg id="Layer_1" data-name="Layer 1" xmlns="http://www.w3.org/2000/svg" viewBox="0 0 234.27 228.4"><g opacity="0.3"><path d="M196.51,106.62a79.41,79.41,0,1,1-79.44-79.38h.07a79.4,79.4,0,0,1,79.37,79.38" transform="translate(-0.01 -0.01)" fill="#fff4d9" opacity="0.4" style="isolation:isolate"/><path d="M118.47,228.41c-33.16,0-60-5-60-11.2S85.31,206,118.47,206s60.06,5,60.06,11.19-26.89,11.2-60.06,11.2" transform="translate(-0.01 -0.01)" fill="#eae5ea"/><path d="M117.14,4a.91.91,0,0,1-.72-.34L116,3.15l-.62-.73-.63.73-.4.47a.94.94,0,0,1-1.32.13h0a1,1,0,0,1-.11-1.35l.4-.47,1-1.14a1,1,0,0,1,.21-.31A1.51,1.51,0,0,1,115,.12a.93.93,0,0,1,1,.07,1.5,1.5,0,0,1,.52.57l1,1.16.4.47A1,1,0,0,1,117.15,4Z" transform="translate(-0.01 -0.01)" fill="#bfe1ff"/><path d="M107.68,11.46a1,1,0,0,1-.57-.18,1,1,0,0,1-.2-1.34c.94-1.27,1.93-2.56,2.92-3.82A1,1,0,0,1,111.17,6a.93.93,0,0,1,.18,1.3l0,0c-1,1.25-2,2.52-2.89,3.78a1,1,0,0,1-.76.38m15.38,0a1,1,0,0,1-.77-.38c-.92-1.25-1.89-2.52-2.88-3.78A.94.94,0,0,1,119.55,6h0a1,1,0,0,1,1.34.15c1,1.27,2,2.56,2.92,3.83a1,1,0,0,1-.2,1.33,1,1,0,0,1-.56.18m-20.78,7.87a1,1,0,0,1-.92-1.07,1,1,0,0,1,.11-.39c.85-1.34,1.74-2.69,2.65-4a1,1,0,0,1,1.58,1.06h0c-.9,1.32-1.78,2.65-2.61,4a1,1,0,0,1-.8.44m26.17,0a1,1,0,0,1-.8-.44c-.84-1.32-1.71-2.66-2.61-4a.95.95,0,1,1,1.56-1.08h0c.91,1.33,1.8,2.68,2.65,4a1,1,0,0,1-.42,1.35,1.09,1.09,0,0,1-.39.11M97.5,27.62a1,1,0,0,1-.44-.11,1,1,0,0,1-.4-1.28l.27-.52c.65-1.23,1.34-2.48,2-3.71a1,1,0,1,1,1.92.55,1,1,0,0,1-.27.45c-.7,1.2-1.37,2.43-2,3.64l-.27.51a.92.92,0,0,1-.85.51m35.73,0a.92.92,0,0,1-.85-.51l-.2-.53c-.64-1.21-1.31-2.43-2-3.62a1,1,0,0,1,.69-1.24,1,1,0,0,1,1,.24c.7,1.22,1.39,2.46,2,3.69l.28.54a1,1,0,0,1-.4,1.28,1,1,0,0,1-.44.11M93.48,36.27a.84.84,0,0,1-.35-.07A1,1,0,0,1,92.6,35c.6-1.47,1.25-3,1.93-4.42a1,1,0,0,1,1.77.7l0,.1c-.66,1.44-1.3,2.9-1.88,4.34a1,1,0,0,1-.89.59m43.76,0a1,1,0,0,1-.88-.59c-.58-1.44-1.22-2.9-1.89-4.34a1,1,0,1,1,1.73-.8c.68,1.46,1.33,3,1.92,4.42a.94.94,0,0,1-.5,1.23h0a.89.89,0,0,1-.36.07m-46.87,9h-.26a1,1,0,0,1-.66-1.17c.44-1.53.92-3.08,1.45-4.61a1,1,0,0,1,1.4-.2,1,1,0,0,1,.4.82c-.51,1.5-1,3-1.41,4.51a1,1,0,0,1-.92.69m50,0a1,1,0,0,1-.91-.7c-.42-1.49-.9-3-1.42-4.5a1,1,0,0,1,1-1,1,1,0,0,1,.83.4c.53,1.54,1,3.09,1.45,4.62a1,1,0,0,1-.66,1.17.57.57,0,0,1-.26,0m-52,9.31h-.23a1,1,0,0,1-.8-1.09c.12-.77.25-1.55.39-2.31s.32-1.64.5-2.44a1,1,0,0,1,2-.19,1,1,0,0,1-.13.6c-.17.78-.33,1.58-.48,2.38s-.27,1.5-.39,2.25a1,1,0,0,1-.94.81m54.08,0a1,1,0,0,1-.94-.81c-.12-.76-.25-1.52-.39-2.27s-.31-1.58-.48-2.37a1,1,0,0,1,1.1-.89,1,1,0,0,1,.76.49c.18.8.34,1.62.49,2.42s.28,1.55.4,2.33a1,1,0,0,1-.8,1.09h-.14m-54.88,9.5h0a1,1,0,0,1-.94-1c0-1.59.11-3.22.25-4.84a.95.95,0,0,1,1.89.17c-.13,1.56-.21,3.15-.23,4.7a1,1,0,0,1-1,.94m55.68,0a1,1,0,0,1-.95-.94c0-1.56-.1-3.14-.23-4.71a1,1,0,0,1,.81-1.08,1,1,0,0,1,1.07.81.41.41,0,0,1,0,.11c.14,1.61.22,3.24.25,4.84a1,1,0,0,1-.94,1h0M88.06,73.73a1,1,0,0,1-.94-.83c-.21-1.59-.36-3.22-.46-4.83a1,1,0,0,1,1.21-.74,1,1,0,0,1,.7.63c.08,1.57.23,3.15.43,4.69a1,1,0,0,1-.86,1.07H88m54.6,0h-.13a1,1,0,0,1-.82-1.07c.2-1.54.35-3.12.44-4.69a.95.95,0,1,1,1.89.1c-.09,1.61-.24,3.24-.45,4.83a1,1,0,0,1-.94.83M89.94,83.05a1,1,0,0,1-.92-.69c-.44-1.55-.82-3.14-1.15-4.71a1,1,0,0,1,1.1-.89,1,1,0,0,1,.77.51c.31,1.53.69,3.06,1.12,4.57A1,1,0,0,1,90.2,83h-.26m50.73,0h-.26a1,1,0,0,1-.65-1.18c.42-1.51.8-3,1.12-4.58a1,1,0,1,1,1.86.39c-.32,1.58-.71,3.16-1.15,4.71a1,1,0,0,1-.92.69m-47.48,9a1,1,0,0,1-.87-.56c-.65-1.48-1.26-3-1.81-4.5a1,1,0,0,1,1.79-.65c.53,1.47,1.12,2.94,1.76,4.37A1,1,0,0,1,93.58,92a.88.88,0,0,1-.39.08m44.23,0A1,1,0,0,1,137,92a1,1,0,0,1-.48-1.26c.64-1.43,1.23-2.9,1.76-4.37a1,1,0,0,1,1.4-.18,1,1,0,0,1,.39.83c-.55,1.51-1.16,3-1.81,4.5a1,1,0,0,1-.87.56m-39.74,8.42a1,1,0,0,1-.81-.45l-.39-.64c-.71-1.16-1.39-2.36-2-3.56a1,1,0,0,1,1.39-1.44,1.05,1.05,0,0,1,.29.55c.62,1.16,1.29,2.33,2,3.46.12.21.25.41.38.62a1,1,0,0,1-.31,1.31.89.89,0,0,1-.5.15m35.25,0a1,1,0,0,1-.92-1.07,1,1,0,0,1,.11-.39l.39-.64c.69-1.13,1.35-2.29,2-3.44a1,1,0,0,1,2,.34,1.05,1.05,0,0,1-.29.55c-.63,1.19-1.31,2.38-2,3.54-.13.22-.27.44-.41.66a1,1,0,0,1-.8.45m-29.65,7.72a1,1,0,0,1-.74-.35c-1-1.24-2-2.53-3-3.82a1,1,0,0,1,1.54-1.12c.91,1.26,1.88,2.51,2.89,3.73a1,1,0,0,1-.13,1.34.94.94,0,0,1-.6.22m24,0a1,1,0,0,1-.61-.22,1,1,0,0,1-.13-1.34c1-1.22,2-2.47,2.9-3.73a1,1,0,0,1,1.54,1.12c-.94,1.29-1.94,2.58-3,3.82a1,1,0,0,1-.73.35m-17.5,6.93a.94.94,0,0,1-.65-.26c-1.18-1.1-2.33-2.25-3.43-3.41a1,1,0,0,1,.46-1.34,1,1,0,0,1,.93,0c1.06,1.13,2.19,2.25,3.34,3.33a1,1,0,0,1,0,1.35,1,1,0,0,1-.69.3m10.94,0a1,1,0,0,1-.89-1.1,1,1,0,0,1,.24-.55c1.15-1.08,2.28-2.2,3.34-3.33a1,1,0,1,1,1.39,1.31c-1.09,1.16-2.25,2.3-3.43,3.41a1,1,0,0,1-.65.26m-5.42,4.59h-.08a1.12,1.12,0,0,1-.7-.24c-.6-.47-1.19-1-1.77-1.43a1,1,0,0,1,.75-1.86,1,1,0,0,1,.47.4l1.29,1,1.27-1a1,1,0,1,1,1.21,1.47l-1.64,1.51a1.12,1.12,0,0,1-.7.24" transform="translate(-0.01 -0.01)" fill="#bfe1ff"/><path d="M233.71,118.41Zm-2.44,3.21a1,1,0,0,1-.61-1.68l.47-.4.73-.63-.73-.62-.47-.4a1,1,0,1,1,1.22-1.46l.48.4,1.13,1a1,1,0,0,1,.31.22,1.39,1.39,0,0,1,.36.44.93.93,0,0,1-.07,1,1.5,1.5,0,0,1-.57.52c-.38.34-.77.67-1.16,1l-.48.4a.93.93,0,0,1-.61.23Z" transform="translate(-0.01 -0.01)" fill="#bfe1ff"/><path d="M175.82,92.27h-.09c-1.56-.14-3.15-.22-4.7-.24a1,1,0,1,1-.62-1.9.94.94,0,0,1,.62,0c1.6,0,3.23.1,4.84.24a1,1,0,0,1-.08,1.9m-14.32.3a1,1,0,0,1-.12-1.89c1.59-.21,3.22-.36,4.83-.45a.94.94,0,0,1,1,.88h0a1,1,0,0,1-.89,1c-1.57.09-3.15.23-4.69.44h-.13m23.76,1.15a.74.74,0,0,1-.21,0c-.78-.17-1.59-.33-2.38-.48s-1.51-.27-2.25-.38a1,1,0,0,1-.47-1.34,1,1,0,0,1,.76-.55c.76.12,1.54.25,2.31.4l2.44.49a1,1,0,0,1-.2,1.89m-33.11.78a1,1,0,0,1-.26-1.87c1.55-.43,3.13-.82,4.71-1.15a1,1,0,0,1,1,1.75,1,1,0,0,1-.59.12c-1.53.31-3.07.69-4.57,1.12a1.13,1.13,0,0,1-.26,0m42.3,1.82h-.31c-1.5-.52-3-1-4.51-1.42a1,1,0,0,1-.3-1.38,1,1,0,0,1,.82-.46c1.53.44,3.08.93,4.61,1.46a1,1,0,0,1,.37,1.36,1,1,0,0,1-.68.49m-51.28,1.4a1,1,0,0,1-.82-1.15,1,1,0,0,1,.43-.67c1.47-.66,3-1.27,4.5-1.82a1,1,0,1,1,1.22,1.58,1,1,0,0,1-.57.21c-1.47.54-2.94,1.13-4.37,1.77a1,1,0,0,1-.39.08m60.14,2.15a.93.93,0,0,1-.4-.09c-1.44-.67-2.9-1.31-4.34-1.89a1,1,0,0,1,.72-1.77c1.46.6,3,1.25,4.42,1.93a1,1,0,0,1-.4,1.82m-68.57,2.33a.94.94,0,0,1-.81-.44,1,1,0,0,1,.3-1.32l.64-.39c1.16-.71,2.36-1.39,3.56-2a1,1,0,0,1,1.44,1.39,1.05,1.05,0,0,1-.55.29c-1.16.62-2.33,1.29-3.46,2l-.62.38a1,1,0,0,1-.5.14m77,2.08a.91.91,0,0,1-.48-.13c-1.2-.7-2.43-1.37-3.64-2l-.51-.27a1,1,0,0,1,.88-1.69l.52.28c1.23.64,2.48,1.33,3.71,2a1,1,0,0,1-.48,1.78M127,107.86a.95.95,0,0,1-.61-1.68c1.24-1,2.53-2,3.82-3a1,1,0,1,1,1.61,1.18,1,1,0,0,1-.49.36c-1.26.91-2.51,1.89-3.73,2.89a.94.94,0,0,1-.6.22m92.87,1.58a.9.9,0,0,1-.53-.17c-1.32-.9-2.65-1.78-4-2.61a1,1,0,0,1,.13-1.41,1,1,0,0,1,.87-.2c1.33.85,2.69,1.74,4,2.65a1,1,0,0,1,.25,1.33,1,1,0,0,1-.79.41m-99.83,5a.94.94,0,0,1-1-.92.92.92,0,0,1,.27-.68c1.1-1.18,2.25-2.33,3.41-3.43a1,1,0,1,1,1.31,1.39c-1.14,1.07-2.26,2.2-3.33,3.34a1,1,0,0,1-.7.3m107.53.71a.93.93,0,0,1-.59-.21c-1.25-1-2.52-2-3.78-2.88a1,1,0,0,1-.2-1.33.93.93,0,0,1,1.31-.21h0c1.28.93,2.56,1.92,3.83,2.92a1,1,0,0,1,.16,1.34,1,1,0,0,1-.75.36m-110.71,6.65a1,1,0,0,1-.73-.34l-1.31-1.81a1.12,1.12,0,0,1-.24-.7v-.08a1.18,1.18,0,0,1,.24-.7c.47-.6,1-1.19,1.43-1.77a1,1,0,0,1,1.46,1.22l-1,1.29c.33.43.68.85,1,1.27a1,1,0,0,1-.13,1.34,1,1,0,0,1-.61.22m106.88,5.91a1,1,0,0,1-.77-.39,1,1,0,0,1,.2-1.33C224.43,125,225.7,124,227,123a1,1,0,0,1,1.67,1.1,1,1,0,0,1-.49.39c-1.27,1-2.56,2-3.82,2.92a1,1,0,0,1-.57.19m-100.35,1.1a1,1,0,0,1-.66-.26c-1.16-1.09-2.3-2.25-3.41-3.43a1,1,0,1,1,1.35-1.34c1.08,1.15,2.2,2.28,3.33,3.35a.95.95,0,0,1-.65,1.64m92.46,4.25a1,1,0,0,1-.51-1.76c1.32-.83,2.66-1.71,4-2.61a1,1,0,0,1,1.32.25.94.94,0,0,1-.23,1.31h0c-1.33.91-2.68,1.81-4,2.65a.92.92,0,0,1-.51.15m-85.11,1.85a.91.91,0,0,1-.55-.18c-1.3-.94-2.59-1.93-3.83-3a1,1,0,1,1,1.22-1.46c1.21,1,2.46,2,3.72,2.89a1,1,0,0,1,.21,1.33,1,1,0,0,1-.77.39m76.83,2.92a1,1,0,0,1-.44-1.8l.54-.28c1.19-.63,2.41-1.3,3.62-2a1,1,0,0,1,1.41,0,1,1,0,0,1,0,1.42,1,1,0,0,1-.45.27c-1.23.71-2.47,1.39-3.69,2l-.54.28a1,1,0,0,1-.44.11m-68.72,2.14a1,1,0,0,1-.45-.11c-1.19-.63-2.38-1.31-3.54-2l-.66-.4a1,1,0,0,1,1-1.62l.64.39c1.13.69,2.29,1.35,3.45,2a1,1,0,0,1-.45,1.79M199,141.7a1,1,0,0,1-.36-1.84c1.44-.58,2.9-1.22,4.34-1.88a1,1,0,0,1,1.41,0,1,1,0,0,1,0,1.42,1,1,0,0,1-.56.26c-1.47.68-3,1.33-4.43,1.93a1.15,1.15,0,0,1-.36.07m-51.33,2a.87.87,0,0,1-.32-.06c-1.51-.54-3-1.15-4.5-1.81a1,1,0,0,1,.23-2,1,1,0,0,1,.55.25c1.43.64,2.9,1.23,4.37,1.76a1,1,0,0,1,.36,1.37,1,1,0,0,1-.69.48m42.3,1.1a1,1,0,0,1-.26-1.87c1.49-.42,3-.9,4.51-1.42a1,1,0,0,1,1,1,1,1,0,0,1-.4.82c-1.54.53-3.09,1-4.61,1.45a1.13,1.13,0,0,1-.26,0m-33.1,1.51h-.2c-1.58-.33-3.16-.72-4.71-1.16a1,1,0,0,1,.52-1.83c1.51.43,3.05.8,4.58,1.12a1,1,0,0,1-.19,1.89m23.76.53a1,1,0,0,1-.14-1.89c.76-.12,1.52-.25,2.27-.39s1.59-.3,2.37-.48a1,1,0,0,1,.41,1.86c-.8.18-1.62.35-2.43.5s-1.55.27-2.33.39h-.15m-14.29.71h-.06c-1.61-.1-3.23-.25-4.83-.46a1,1,0,1,1-.35-2,1,1,0,0,1,.6.08c1.55.21,3.13.35,4.69.44a1,1,0,0,1,.66,1.25,1,1,0,0,1-.66.66m4.77.1a1,1,0,0,1-.66-1.25,1,1,0,0,1,.66-.66c1.56,0,3.14-.1,4.71-.23a.94.94,0,0,1,.13,1.87c-1.61.13-3.24.21-4.84.24h0" transform="translate(-0.01 -0.01)" fill="#bfe1ff"/><path d="M.57,118.41ZM3,121.62a.93.93,0,0,1-.61-.23l-.48-.4c-.39-.33-.78-.66-1.16-1a1.5,1.5,0,0,1-.57-.52.93.93,0,0,1-.07-1,1.34,1.34,0,0,1,.33-.42,1,1,0,0,1,.32-.22l1.15-1,.47-.4a1,1,0,1,1,1.23,1.46l-.47.4-.73.62.73.63.47.4a1,1,0,0,1,.12,1.34A1,1,0,0,1,3,121.62Z" transform="translate(-0.01 -0.01)" fill="#bfe1ff"/><path d="M58.46,92.27A1,1,0,0,1,57.77,91a1,1,0,0,1,.61-.67c1.61-.14,3.24-.22,4.84-.24h0a1,1,0,0,1,.66,1.25,1,1,0,0,1-.66.66c-1.55,0-3.14.1-4.7.24h-.09m14.32.3h-.13c-1.54-.21-3.12-.35-4.69-.44a1,1,0,0,1-.57-1.29,1,1,0,0,1,.68-.61c1.61.09,3.24.24,4.83.45a1,1,0,0,1,.8,1.08.94.94,0,0,1-.92.81M49,93.72a1,1,0,0,1-.2-1.89c.81-.17,1.63-.34,2.44-.49s1.55-.28,2.31-.4a1,1,0,1,1,.87,1.8,1,1,0,0,1-.58.09c-.74.11-1.5.24-2.25.38s-1.6.31-2.38.48a.74.74,0,0,1-.21,0m33.11.78a1.13,1.13,0,0,1-.26,0c-1.5-.43-3-.81-4.57-1.12a1,1,0,1,1,.38-1.87c1.58.33,3.16.72,4.71,1.15a1,1,0,0,1-.26,1.87m-42.3,1.82a1,1,0,0,1-.8-1.17,1,1,0,0,1,.49-.68c1.53-.53,3.08-1,4.61-1.46a1,1,0,0,1,.52,1.84c-1.49.42-3,.9-4.51,1.42a1.61,1.61,0,0,1-.31,0m51.31,1.49a1,1,0,0,1-.39-.08c-1.43-.64-2.9-1.23-4.37-1.77a1,1,0,0,1-.18-1.4,1,1,0,0,1,.83-.39c1.51.55,3,1.16,4.5,1.82a1,1,0,0,1,.28,1.39,1,1,0,0,1-.67.43M31,99.91a1,1,0,0,1-.4-1.82c1.47-.68,3-1.33,4.42-1.93a1,1,0,0,1,1.08.91,1,1,0,0,1-.36.86c-1.44.58-2.9,1.22-4.34,1.89a.93.93,0,0,1-.4.09m68.57,2.33a1,1,0,0,1-.5-.14l-.62-.38c-1.13-.69-2.3-1.36-3.46-2a1,1,0,0,1,.34-2,1.05,1.05,0,0,1,.55.29c1.2.64,2.4,1.32,3.56,2l.64.39a1,1,0,0,1,.3,1.32.94.94,0,0,1-.81.44m-77.08,2.13a1,1,0,0,1-.86-1.13,1,1,0,0,1,.38-.65c1.23-.71,2.48-1.4,3.71-2l.52-.28a1,1,0,0,1,.88,1.69l-.51.27c-1.21.64-2.44,1.31-3.64,2a.91.91,0,0,1-.48.13m84.79,3.52a.94.94,0,0,1-.6-.22c-1.22-1-2.47-2-3.73-2.89a1,1,0,0,1,1.12-1.54c1.29.94,2.58,1.93,3.82,3a.95.95,0,0,1-.61,1.68m-92.87,1.52a1,1,0,0,1-.79-.41,1,1,0,0,1,.25-1.33c1.33-.91,2.69-1.8,4-2.65a1,1,0,0,1,1.2.74,1,1,0,0,1-.2.87c-1.32.83-2.65,1.71-4,2.61a.9.9,0,0,1-.53.17m99.83,5a1,1,0,0,1-.7-.3c-1.07-1.15-2.19-2.27-3.33-3.34a1,1,0,0,1,.38-1.36,1,1,0,0,1,.93,0c1.16,1.1,2.31,2.25,3.41,3.43a.94.94,0,0,1,0,1.33.92.92,0,0,1-.68.27m-107.53.71a1,1,0,0,1-.75-.36,1,1,0,0,1,.16-1.34c1.27-1,2.55-2,3.82-2.92a1,1,0,0,1,1.62,1.17A1,1,0,0,1,11,112c-1.26.92-2.53,1.89-3.78,2.88a.91.91,0,0,1-.59.21M118,119.39h0m-.64,2.39a1,1,0,0,1-.61-.22,1,1,0,0,1-.13-1.34c.35-.42.69-.84,1-1.27l-1-1.29a1,1,0,0,1,.55-1.3,1,1,0,0,1,.91.08c.48.58,1,1.17,1.43,1.77a1.18,1.18,0,0,1,.24.7V119a1.12,1.12,0,0,1-.24.7l-1.36,1.72a1,1,0,0,1-.73.34M10.53,127.62a1,1,0,0,1-.57-.19c-1.26-.93-2.55-1.91-3.82-2.92a1,1,0,0,1,.69-1.88,1,1,0,0,1,.49.39c1.26,1,2.53,2,3.78,2.88a1,1,0,0,1,.2,1.33,1,1,0,0,1-.77.39m100.35,1.15a.95.95,0,0,1-.65-1.64c1.13-1.07,2.25-2.2,3.33-3.35a1,1,0,0,1,1.35,1.34c-1.11,1.18-2.25,2.34-3.41,3.43a1,1,0,0,1-.66.26m-92.46,4.25a.92.92,0,0,1-.51-.15c-1.34-.84-2.69-1.74-4-2.65a.94.94,0,0,1-.26-1.3v0a1,1,0,0,1,1.32-.25c1.31.9,2.65,1.78,4,2.61a1,1,0,0,1-.51,1.76m85.11,1.85a1,1,0,0,1-.56-1.72c1.26-.91,2.51-1.89,3.72-2.89a1,1,0,1,1,1.22,1.46c-1.24,1-2.53,2-3.83,3a.91.91,0,0,1-.55.18m-76.83,2.92a1,1,0,0,1-.44-.11l-.54-.28c-1.22-.65-2.46-1.33-3.69-2a1,1,0,1,1,.55-1.92,1,1,0,0,1,.45.27c1.21.7,2.43,1.37,3.63,2l.53.28a1,1,0,0,1-.44,1.8M95.48,140a1,1,0,0,1-.84-1.14,1,1,0,0,1,.39-.65c1.16-.62,2.32-1.28,3.45-2l.64-.39a1,1,0,0,1,1,1.62l-.66.4c-1.16.71-2.35,1.39-3.54,2a1,1,0,0,1-.45.11m-60,1.88a1.15,1.15,0,0,1-.36-.07c-1.47-.6-3-1.25-4.42-1.93a1,1,0,0,1,.7-1.77l.1.05c1.44.66,2.9,1.3,4.34,1.88a1,1,0,0,1-.36,1.84m51.33,2a1,1,0,0,1-.81-1.16,1,1,0,0,1,.48-.69c1.47-.53,2.94-1.12,4.37-1.76a1,1,0,1,1,1.33,1.49,1,1,0,0,1-.55.25c-1.48.66-3,1.27-4.5,1.81a.87.87,0,0,1-.32.06M44.51,145h-.26c-1.52-.43-3.07-.92-4.61-1.45a1,1,0,1,1,.14-2,1.14,1.14,0,0,1,.36.1c1.5.52,3,1,4.51,1.42a1,1,0,0,1-.26,1.87m33.1,1.51a1,1,0,0,1-.76-1.19,1,1,0,0,1,.57-.7c1.53-.32,3.07-.69,4.58-1.12a1,1,0,0,1,1,1,1,1,0,0,1-.44.79c-1.55.44-3.14.83-4.71,1.16h-.2m-23.76.53h-.15c-.78-.12-1.56-.25-2.33-.39s-1.63-.32-2.43-.5a1,1,0,0,1,.41-1.86c.78.18,1.58.34,2.37.48s1.51.27,2.27.39a1,1,0,0,1-.14,1.89m14.29.71a1,1,0,0,1-.66-1.25,1,1,0,0,1,.66-.66c1.56-.09,3.14-.23,4.69-.44a1,1,0,0,1,.81,1.16,1,1,0,0,1-.56.73c-1.6.21-3.22.36-4.83.46h-.06m-4.77.1h0c-1.6,0-3.23-.11-4.84-.24a.94.94,0,1,1,.13-1.87c1.57.13,3.15.21,4.71.23a1,1,0,0,1,.66,1.25,1,1,0,0,1-.66.66" transform="translate(-0.01 -0.01)" fill="#bfe1ff"/><path d="M188,29.86a1,1,0,0,1-1-.92V27.33l-.94.19-.61.13a1,1,0,0,1-.89-1.1,1,1,0,0,1,.51-.77l.61-.12,1.45-.29a1.29,1.29,0,0,1,.38-.12,1.32,1.32,0,0,1,.56,0,1,1,0,0,1,.76.68,1.67,1.67,0,0,1,0,.77c0,.51.05,1,.07,1.53v.62a.94.94,0,0,1-.88,1h0Z" transform="translate(-0.01 -0.01)" fill="#bfe1ff"/><path d="M175.92,29.93a1,1,0,0,1-.78-1.18,1,1,0,0,1,.53-.69c1.52-.42,3.09-.83,4.66-1.2a1,1,0,1,1,1,1.71,1,1,0,0,1-.6.14c-1.55.37-3.1.77-4.6,1.18h-.26m-9.12,2.86a1,1,0,0,1-.8-1.16,1,1,0,0,1,.48-.69c1.49-.53,3-1,4.57-1.53A1,1,0,1,1,172.19,31a.94.94,0,0,1-.57.18c-1.52.48-3,1-4.5,1.5a.87.87,0,0,1-.32.06m-8.87,3.55a1,1,0,0,1-.39-1.82l.54-.24c1.27-.56,2.58-1.12,3.89-1.64a1,1,0,0,1,.79,1.73l-.08,0c-1.29.52-2.58,1.07-3.83,1.62l-.53.24a.88.88,0,0,1-.39.08M188,39.41h0a1,1,0,0,1-.93-1c0-1.46.07-2.94.07-4.43v-.26a1,1,0,0,1,1-1h0a1,1,0,0,1,1,1v.33c0,1.5,0,3-.07,4.48a1,1,0,0,1-1,.93m-38.59,1.22a1,1,0,0,1-.85-1.13,1,1,0,0,1,.38-.65c1.37-.78,2.8-1.55,4.25-2.29a1,1,0,0,1,1.4,1.43,1,1,0,0,1-.54.27c-1.42.72-2.82,1.48-4.17,2.25a1,1,0,0,1-.47.12m-8,5.18a1,1,0,0,1-.88-1.11,1,1,0,0,1,.32-.62c1.29-.93,2.63-1.84,4-2.72a1,1,0,0,1,1.19.76,1,1,0,0,1-.19.84c-1.34.86-2.65,1.75-3.91,2.67a1,1,0,0,1-.56.18m46,3.13h-.1a1,1,0,0,1-.85-1c.16-1.54.3-3.13.4-4.72a1,1,0,0,1,1.29-.59,1,1,0,0,1,.62.71c-.11,1.62-.25,3.23-.41,4.8a1,1,0,0,1-1,.85M134,51.92a1,1,0,0,1-.69-1.65c.56-.53,1.15-1.06,1.74-1.58s1.26-1.08,1.91-1.61a.95.95,0,0,1,1.27,1.41l-.07.06c-.62.51-1.25,1-1.85,1.58s-1.15,1-1.7,1.53a.94.94,0,0,1-.65.26m52,6.52h-.17a1,1,0,0,1-.76-1.11l.1-.59c.25-1.35.47-2.72.67-4.09a1,1,0,1,1,2-.32.92.92,0,0,1-.08.59c-.2,1.39-.43,2.79-.68,4.16l-.11.6a1,1,0,0,1-.94.77m-58.52.46a.95.95,0,0,1-.74-1.55c1-1.25,2.09-2.48,3.19-3.66a1,1,0,0,1,1.36.39,1,1,0,0,1,0,.91c-1.07,1.15-2.11,2.35-3.1,3.56a1,1,0,0,1-.74.35M122,66.74a.91.91,0,0,1-.48-.13,1,1,0,0,1-.33-1.31c.82-1.38,1.7-2.75,2.63-4.07a1,1,0,1,1,1.56,1.09c-.9,1.29-1.76,2.62-2.56,4a1,1,0,0,1-.82.47m61.79,1h-.27a1,1,0,0,1-.65-1.17c.43-1.5.84-3,1.2-4.58A1,1,0,0,1,185,61a1,1,0,0,1,1.07.93,1,1,0,0,1-.14.57c-.37,1.57-.79,3.14-1.23,4.66a1,1,0,0,1-.91.69m-66,7.45a1,1,0,0,1-.93-1.06.75.75,0,0,1,0-.26c.61-1.49,1.28-3,2-4.41a1,1,0,0,1,1.41,0,1,1,0,0,1,.3.88c-.7,1.4-1.36,2.84-2,4.29a1,1,0,0,1-.88.59m62.91,1.49a1.16,1.16,0,0,1-.37-.07,1,1,0,0,1-.51-1.25c.59-1.44,1.15-2.92,1.67-4.42a1,1,0,0,1,1.4-.2,1,1,0,0,1,.4.83c-.53,1.53-1.11,3-1.71,4.52a1,1,0,0,1-.88.59m-65.91,7.58h-.23a1,1,0,0,1-.69-1.16c.39-1.57.85-3.13,1.35-4.65a1,1,0,1,1,1.81.59c-.49,1.48-.93,3-1.32,4.53a.94.94,0,0,1-.92.72m61.74,1a.85.85,0,0,1-.47-.13,1,1,0,0,1-.36-1.3c.38-.65.75-1.33,1.1-2s.74-1.43,1.09-2.16a1,1,0,0,1,1.72.83c-.36.75-.74,1.49-1.12,2.22s-.75,1.4-1.13,2.07a1,1,0,0,1-.83.49m-5.25,8a1,1,0,0,1-.58-.19,1,1,0,0,1-.18-1.34c1-1.23,1.86-2.53,2.73-3.84a1,1,0,1,1,1.92.54,1,1,0,0,1-.33.51c-.89,1.35-1.83,2.68-2.8,4a.94.94,0,0,1-.76.37M113,93.81h-.1a1,1,0,0,1-.84-1,2.34,2.34,0,0,1,.08-.74c.16-1.36.37-2.72.61-4a1,1,0,0,1,1.87.33c-.23,1.3-.43,2.63-.59,4a2.21,2.21,0,0,1-.08.72,1,1,0,0,1-1,.85m51.85,6.75a.92.92,0,0,1-.68-.29,1,1,0,0,1,0-1.34c1.12-1.09,2.21-2.24,3.24-3.41a1,1,0,0,1,1.32-.51,1,1,0,0,1,.51,1.32,1,1,0,0,1-.4.45c-1.07,1.2-2.19,2.39-3.34,3.51a1,1,0,0,1-.67.27m-52.24,2.79a1,1,0,0,1-1-.92v-1.91c0-1,0-2,.06-2.94a.94.94,0,0,1,1-.91h0a1,1,0,0,1,.91,1c0,1-.06,1.91-.06,2.86v1.86a1,1,0,0,1-.93,1h0m45.08,3.12a1,1,0,0,1-.56-1.72c1.27-.92,2.52-1.9,3.71-2.91a1,1,0,0,1,1.31.54,1,1,0,0,1-.08.92c-1.23,1-2.51,2-3.82,3a1,1,0,0,1-.56.18m-8.11,5a1,1,0,0,1-.84-1.14,1,1,0,0,1,.39-.65c1.39-.73,2.77-1.52,4.09-2.34a1,1,0,0,1,1.54,1.27,1,1,0,0,1-.54.34c-1.37.85-2.78,1.66-4.21,2.41a1,1,0,0,1-.44.11m-36,1.11a1,1,0,0,1-.94-.81c-.24-1.59-.43-3.21-.58-4.8a1,1,0,1,1,1.85-.77,1,1,0,0,1,0,.6c.14,1.55.33,3.13.57,4.68a1,1,0,0,1-.8,1.09h-.15m27.24,2.75a1,1,0,0,1-.33-1.85l.7-.26c1.24-.46,2.48-1,3.68-1.49a1,1,0,0,1,1.33,1.49,1,1,0,0,1-.56.25c-1.24.54-2.51,1.06-3.78,1.54l-.72.26a.87.87,0,0,1-.32.06m-9.19,2.62a1,1,0,0,1-.2-1.89c1.54-.33,3.08-.71,4.58-1.14a1,1,0,0,1,1,1,1,1,0,0,1-.44.79c-1.54.44-3.12.84-4.7,1.18h-.2m-9.39,1.54a1,1,0,0,1-1-.87.94.94,0,0,1,.86-1c1.58-.14,3.16-.32,4.69-.55a1,1,0,0,1,.9,1.79,1,1,0,0,1-.62.09c-1.57.23-3.19.42-4.8.56h-.08m-7,.29a1.15,1.15,0,0,1-.76-.26,1.12,1.12,0,0,1-.44-.65c-.18-.73-.35-1.47-.5-2.21a1,1,0,0,1,1.1-.89,1,1,0,0,1,.76.49c.11.54.24,1.08.36,1.62h1.64a1,1,0,0,1,.64,1.26,1,1,0,0,1-.64.64h-2.21" transform="translate(-0.01 -0.01)" fill="#bfe1ff"/><path d="M223.69,72.41h0Zm-1.15,4a1,1,0,0,1-.44-.11,1,1,0,0,1-.41-1.28l.29-.55c.14-.29.29-.57.43-.86l-.91-.3-.59-.19a1,1,0,0,1,.57-1.81l.6.19,1.42.47a.79.79,0,0,1,.37.07,1.57,1.57,0,0,1,.49.27,1,1,0,0,1,.33,1,1.53,1.53,0,0,1-.33.69l-.69,1.37-.28.55a1,1,0,0,1-.85.52Z" transform="translate(-0.01 -0.01)" fill="#bfe1ff"/><path d="M188.39,67.1h0c-1.59-.07-3.17-.09-4.73-.08h0a1,1,0,0,1-.95-.94,1,1,0,0,1,.88-1h.06c1.59,0,3.21,0,4.83.08a1,1,0,0,1,.64,1.26,1,1,0,0,1-.64.64m-14.41.56a1,1,0,0,1-.11-1.9c1.58-.18,3.2-.33,4.81-.43a1,1,0,0,1,.12,1.9c-1.58.1-3.17.24-4.71.42h-.11m23.84.32h-.12c-1.38-.18-2.77-.34-4.14-.46l-.58-.06a.94.94,0,0,1-.86-1,1,1,0,0,1,1-.86h.59c1.39.13,2.8.29,4.2.47a1,1,0,0,1,.56,1.3,1,1,0,0,1-.68.6m-33.25,1.37a1,1,0,0,1-.22-1.88c.75-.18,1.52-.36,2.28-.52s1.63-.33,2.45-.48a1,1,0,1,1,1,1.76,1,1,0,0,1-.61.11c-.8.15-1.6.3-2.39.47s-1.49.33-2.23.51h-.23m42.67.24h-.19c-1.56-.33-3.13-.63-4.66-.89a1,1,0,1,1,.32-1.88c1.56.27,3.15.57,4.73.9a1,1,0,0,1-.2,1.89m9.28,2.29h-.26c-1.53-.43-3.07-.84-4.59-1.21a1,1,0,0,1-.69-1.16.93.93,0,0,1,1.13-.69h0c1.54.38,3.1.79,4.65,1.23a1,1,0,0,1-.26,1.87m-61,.37a1,1,0,0,1-.36-1.83c1.49-.59,3-1.14,4.57-1.63a.95.95,0,1,1,.66,1.78l-.09,0c-1.5.48-3,1-4.43,1.59a1,1,0,0,1-.35.06M147,76.38a.95.95,0,0,1-.48-1.77c1.39-.81,2.83-1.57,4.29-2.27a.95.95,0,0,1,.92,1.66.31.31,0,0,1-.1,0c-1.41.69-2.81,1.43-4.16,2.21a1,1,0,0,1-.47.12m-7.9,5.37a1,1,0,0,1-.75-.36.93.93,0,0,1,.13-1.31l0,0c1.26-1,2.57-2,3.9-2.87a1,1,0,1,1,1.07,1.57c-1.29.88-2.56,1.82-3.79,2.79a1,1,0,0,1-.59.2m78.8,3.08a1.05,1.05,0,0,1-.49-.13,1,1,0,0,1-.33-1.31c.8-1.33,1.6-2.72,2.38-4.11a1,1,0,0,1,1.67.93c-.79,1.41-1.6,2.81-2.41,4.16a1,1,0,0,1-.82.46M132,88.2a.92.92,0,0,1-.65-.26.94.94,0,0,1,0-1.33h0c1.11-1.17,2.27-2.32,3.46-3.4a1,1,0,1,1,1.36,1.33l-.08.07c-1.15,1.06-2.28,2.17-3.36,3.31a1,1,0,0,1-.69.29m80.63,4.64a1,1,0,0,1-.56-.22,1,1,0,0,1-.23-1.33c.9-1.27,1.79-2.59,2.66-3.93a.95.95,0,0,1,1.59,1c-.87,1.35-1.78,2.7-2.7,4a1,1,0,0,1-.78.4M126,95.5a1,1,0,0,1-.91-1.08,1.09,1.09,0,0,1,.14-.43l.43-.6c.81-1.1,1.65-2.19,2.51-3.24a1,1,0,0,1,1.34-.13.94.94,0,0,1,.15,1.32l0,0c-.83,1-1.65,2.08-2.44,3.15l-.42.59a1,1,0,0,1-.78.4m80.89,4.85a1,1,0,0,1-.61-.22,1,1,0,0,1-.12-1.35l.38-.46c.87-1,1.74-2.14,2.58-3.24a1,1,0,0,1,1.39.25,1,1,0,0,1,.12.91c-.85,1.12-1.74,2.23-2.62,3.29l-.39.48a1,1,0,0,1-.73.34M121,103.64a1,1,0,0,1-.84-1.4c.75-1.42,1.56-2.84,2.39-4.2a1,1,0,0,1,1.41.09,1,1,0,0,1,.22.91c-.82,1.33-1.6,2.71-2.34,4.1a1,1,0,0,1-.84.51m79.42,3.74a1,1,0,0,1-.68-.28,1,1,0,0,1,0-1.35c1.11-1.09,2.21-2.23,3.29-3.4a.95.95,0,1,1,1.47,1.2l-.07.08c-1.1,1.2-2.23,2.37-3.35,3.48a1,1,0,0,1-.67.27m-83.33,5a1,1,0,0,1-.93-1.06.85.85,0,0,1,0-.23c.57-1.51,1.19-3,1.84-4.47a1,1,0,1,1,2,.21,1,1,0,0,1-.25.56c-.64,1.43-1.24,2.9-1.8,4.37a1,1,0,0,1-.89.62m76.18,1.36a1,1,0,0,1-.75-.36,1,1,0,0,1,.16-1.34c1.22-1,2.44-2,3.62-3a1,1,0,0,1,1.32,1.37l-.06,0c-1.21,1.07-2.45,2.12-3.7,3.11a1,1,0,0,1-.59.2m-7.83,5.47a.94.94,0,0,1-.82-.46,1,1,0,0,1,.32-1.31c.65-.39,1.31-.81,2-1.23s1.35-.89,2-1.35a1,1,0,1,1,1.09,1.56c-.67.48-1.36.94-2,1.39s-1.33.86-2,1.26a1,1,0,0,1-.49.14m-70-1.63h0m.34.8h0m1.15,2a1,1,0,0,1-.45-.11l-2-1.07a1.18,1.18,0,0,1-.51-.59,1.1,1.1,0,0,1-.1-.47.81.81,0,0,1,0-.31c.2-.73.42-1.46.64-2.18a1,1,0,0,1,1.39-.25,1,1,0,0,1,.43.82c-.17.52-.32,1.06-.48,1.59l1.44.77a1,1,0,0,1,.4,1.29,1,1,0,0,1-.84.51m60,3.21a.95.95,0,0,1-.38-1.82c1.43-.62,2.86-1.3,4.26-2a1,1,0,1,1,.88,1.69c-1.44.75-2.91,1.45-4.38,2.08a.84.84,0,0,1-.38.08m-51.26.72a1,1,0,0,1-.34-.06c-1.49-.57-3-1.19-4.47-1.86a.95.95,0,0,1,.69-1.77l.09,0c1.44.65,2.91,1.26,4.36,1.81a.95.95,0,0,1-.33,1.84m42.25,2.44a1,1,0,0,1-.79-1.17,1,1,0,0,1,.54-.71c1.5-.4,3-.87,4.5-1.39a1,1,0,0,1,.63,1.8c-1.53.53-3.08,1-4.64,1.43a1,1,0,0,1-.24,0m-33.12.38a.81.81,0,0,1-.22,0c-1.56-.37-3.13-.8-4.67-1.27a1,1,0,0,1,0-2,1,1,0,0,1,.58.18c1.5.46,3,.88,4.55,1.24a.93.93,0,0,1,.7,1.13h0a1,1,0,0,1-.92.74m23.78,1.43a1,1,0,0,1-.72-1.22,1,1,0,0,1,.61-.68c1.56-.18,3.13-.43,4.66-.72a1,1,0,0,1,.87,1.11,1,1,0,0,1-.51.76c-1.58.3-3.19.55-4.79.74h-.12m-14.31.14h-.05c-1.35-.13-2.71-.3-4-.51l-.76-.12a1,1,0,1,1,.31-1.88l.74.12c1.3.2,2.62.37,3.93.49a1,1,0,0,1,.58,1.29,1,1,0,0,1-.67.61m6.51.32H149a1,1,0,0,1-.93-1,.93.93,0,0,1,.93-.93h4.78a1,1,0,0,1,.66,1.25,1,1,0,0,1-.66.66c-1,0-2.06.07-3.08.07" transform="translate(-0.01 -0.01)" fill="#bfe1ff"/><path d="M42.85,25.62Zm0,0,.16.05-.15-.05Zm-.26,4.27h0a.94.94,0,0,1-.92-1v-.67a11.2,11.2,0,0,1,.07-1.52,1.44,1.44,0,0,1,0-.77,1,1,0,0,1,.75-.68,1.23,1.23,0,0,1,.54,0,.94.94,0,0,1,.37.11l1.48.3.62.12a1,1,0,0,1-.36,1.86l-.6-.13-1-.19V29A1,1,0,0,1,42.59,29.89Z" transform="translate(-0.01 -0.01)" fill="#bfe1ff"/><path d="M54.65,29.93a1,1,0,0,1-.25,0c-1.5-.41-3-.81-4.6-1.18a1,1,0,1,1-.16-2,1,1,0,0,1,.6.14c1.57.37,3.14.78,4.66,1.2A1,1,0,0,1,54.65,30m9.12,2.86a.87.87,0,0,1-.32-.06c-1.46-.52-3-1-4.5-1.5a1,1,0,0,1-.25-1.39,1,1,0,0,1,.82-.43c1.54.48,3.08,1,4.57,1.53a1,1,0,0,1,.59,1.19v0a1,1,0,0,1-.9.64m8.88,3.55a.92.92,0,0,1-.4-.08l-.52-.24c-1.25-.55-2.54-1.1-3.84-1.62a1,1,0,0,1,.71-1.82h0c1.32.52,2.63,1.08,3.9,1.64l.54.24a1,1,0,0,1,.47,1.26.94.94,0,0,1-.86.56M42.58,39.45a1,1,0,0,1-.95-.93c-.05-1.47-.07-3-.07-4.48v-.33a1,1,0,0,1,.95-1h0a1,1,0,0,1,.94,1V34c0,1.49,0,3,.07,4.43a1,1,0,0,1-.92,1h0m38.54,1.21a1,1,0,0,1-.48-.12c-1.34-.77-2.75-1.53-4.16-2.25a1,1,0,0,1,.89-1.68c1.44.74,2.87,1.51,4.25,2.29a1,1,0,0,1,.35,1.3.93.93,0,0,1-.82.48m8,5.18a1,1,0,0,1-.56-.18c-1.25-.92-2.56-1.81-3.9-2.67a1,1,0,1,1,.44-2,1,1,0,0,1,.56.35c1.37.88,2.71,1.79,4,2.72a1,1,0,0,1,.21,1.33.93.93,0,0,1-.77.4M43.15,49a.94.94,0,0,1-.94-.85c-.17-1.57-.3-3.18-.41-4.8a1,1,0,0,1,.89-1,.94.94,0,0,1,1,.88h0c.11,1.59.24,3.18.4,4.72a1,1,0,0,1-.85,1h-.1M96.51,51.9a1,1,0,0,1-.65-.26c-.55-.51-1.12-1-1.69-1.53S92.94,49,92.31,48.53a1,1,0,1,1,1.21-1.47c.64.53,1.28,1.07,1.9,1.61s1.18,1,1.74,1.58a1,1,0,0,1-.1,1.41,1,1,0,0,1-.55.24m-52,6.52a.94.94,0,0,1-.93-.77l-.11-.6c-.25-1.37-.48-2.77-.68-4.16a1,1,0,0,1,2-.27c.2,1.37.42,2.74.67,4.09l.11.59a1,1,0,0,1-.76,1.11h-.18m58.52.46a1,1,0,0,1-.74-.35c-1-1.21-2-2.41-3.09-3.56a1,1,0,1,1,1.35-1.34c1.1,1.18,2.17,2.41,3.18,3.66a.95.95,0,0,1-.74,1.55m5.47,7.83a1,1,0,0,1-.82-.47c-.79-1.33-1.65-2.66-2.55-4a1,1,0,0,1,1.21-1.59.94.94,0,0,1,.35.5c.92,1.32,1.81,2.69,2.63,4.07a1,1,0,0,1-.33,1.31,1.05,1.05,0,0,1-.49.13m-61.78,1a1,1,0,0,1-.92-.69c-.44-1.52-.85-3.09-1.22-4.66a1,1,0,0,1,.33-1.37,1,1,0,0,1,1.38.33,1,1,0,0,1,.14.6c.37,1.54.77,3.08,1.2,4.58A.94.94,0,0,1,47,67.57h0a1.13,1.13,0,0,1-.26,0m66.05,7.54a1,1,0,0,1-.88-.59c-.6-1.45-1.25-2.89-2-4.29a1,1,0,0,1,1.42-1.41,1,1,0,0,1,.28.56c.72,1.44,1.4,2.92,2,4.41a1,1,0,0,1-.62,1.27,1.19,1.19,0,0,1-.26,0M49.93,76.77a1,1,0,0,1-.88-.59c-.61-1.47-1.18-3-1.71-4.52a1,1,0,0,1,1.8-.63c.52,1.5,1.09,3,1.68,4.42a1,1,0,0,1-.52,1.25,1.15,1.15,0,0,1-.36.07m65.9,7.58a1,1,0,0,1-.92-.72c-.38-1.52-.83-3-1.32-4.53a1,1,0,0,1,1.81-.59c.5,1.52,1,3.08,1.36,4.65a1,1,0,0,1-.69,1.16,1,1,0,0,1-.24,0m-61.74,1a1,1,0,0,1-.83-.49c-.38-.67-.76-1.37-1.13-2.07s-.75-1.47-1.11-2.22a1,1,0,0,1,1.44-1.39,1,1,0,0,1,.27.56c.36.73.72,1.46,1.09,2.16s.73,1.37,1.1,2a1,1,0,0,1-.36,1.3.85.85,0,0,1-.47.13m5.26,8a.94.94,0,0,1-.76-.37c-1-1.27-1.92-2.6-2.8-4a1,1,0,0,1,1.59-1,35.12,35.12,0,0,0,2.75,3.88A1,1,0,0,1,60,93.15a1,1,0,0,1-.57.19m58.17.41a.94.94,0,0,1-.94-.85l-.09-.72c-.16-1.32-.35-2.65-.59-4a1,1,0,0,1,1.88-.33c.24,1.33.44,2.69.6,4l.09.74a1,1,0,0,1-.84,1h-.11m-51.85,6.75a1,1,0,0,1-.66-.27C63.9,99,62.77,97.81,61.7,96.61a1,1,0,0,1,.09-1.35.94.94,0,0,1,1.33.08h0c1,1.17,2.13,2.32,3.25,3.41a1,1,0,0,1,0,1.34.87.87,0,0,1-.68.29m52.24,2.79h0a.93.93,0,0,1-.93-1V97.46a1,1,0,0,1,.59-1.29,1,1,0,0,1,1.28.59.94.94,0,0,1,0,.62c0,1,.06,2,.06,2.94v1.91a.93.93,0,0,1-1,.92m-45,3.47a1,1,0,0,1-.56-.18c-1.3-1-2.59-2-3.81-3a1,1,0,0,1,.75-1.86,1,1,0,0,1,.47.4c1.2,1,2.44,2,3.71,2.91a1,1,0,0,1-.56,1.72m8.12,5a1,1,0,0,1-.45-.11c-1.42-.75-2.84-1.56-4.2-2.41a1,1,0,1,1,.89-1.68l.11.07c1.33.82,2.7,1.61,4.09,2.34a.95.95,0,0,1-.44,1.79m36,1.11H117a1,1,0,0,1-.8-1.09c.24-1.55.43-3.13.57-4.68a1,1,0,1,1,1.9.08s0,.06,0,.09c-.14,1.59-.34,3.21-.58,4.8a1,1,0,0,1-.94.81m-27.23,2.75a.87.87,0,0,1-.32-.06l-.72-.26c-1.27-.48-2.55-1-3.78-1.54a1,1,0,0,1-.54-1.23,1,1,0,0,1,1.24-.54l.06,0c1.21.53,2.44,1,3.68,1.49l.7.26a1,1,0,0,1-.32,1.85m9.19,2.62h-.2c-1.58-.34-3.17-.74-4.7-1.18a1,1,0,1,1,.52-1.83c1.5.43,3,.81,4.58,1.14a1,1,0,0,1-.2,1.89m9.45,1.41h-.08c-1.62-.14-3.23-.33-4.81-.56a1,1,0,0,1-.34-2,1,1,0,0,1,.62.09c1.54.23,3.12.41,4.69.55a1,1,0,0,1-.08,1.9m7,.29h-2.24a1,1,0,0,1-.64-1.26,1,1,0,0,1,.64-.64h1.63c.13-.54.25-1.08.37-1.62a1,1,0,0,1,.89-1.1,1,1,0,0,1,1.1.9,1,1,0,0,1-.13.6c-.16.74-.33,1.48-.51,2.21a1.06,1.06,0,0,1-.43.64,1.08,1.08,0,0,1-.73.27" transform="translate(-0.01 -0.01)" fill="#bfe1ff"/><path d="M6.8,72.43a.49.49,0,0,0-.17,0Zm1.24,4a1,1,0,0,1-.85-.52l-.29-.55c-.23-.45-.46-.91-.68-1.37a1.48,1.48,0,0,1-.33-.69.93.93,0,0,1,.32-1A1.66,1.66,0,0,1,6.68,72,1,1,0,0,1,7.06,72l1.44-.47.59-.19a1,1,0,0,1,1.2.62.94.94,0,0,1-.6,1.18h0l-.59.19-.94.32.44.86.28.55a1,1,0,0,1-.41,1.28.92.92,0,0,1-.43.11Z" transform="translate(-0.01 -0.01)" fill="#bfe1ff"/><path d="M42.19,67.1a1,1,0,0,1-.95-.91.94.94,0,0,1,.88-1h0c1.61-.07,3.23-.1,4.82-.08a1,1,0,0,1,.62,1.9A.94.94,0,0,1,47,67h0c-1.56,0-3.15,0-4.73.08h0m14.27.53h-.12c-1.54-.18-3.12-.32-4.7-.42a1,1,0,1,1-.5-1.94,1,1,0,0,1,.61,0c1.62.1,3.24.25,4.82.43A1,1,0,0,1,57.19,67a1,1,0,0,1-.68.61M32.66,68a1,1,0,0,1-.12-1.9c1.4-.18,2.82-.34,4.21-.47h.58a.95.95,0,0,1,.26,1.88H37.5l-.58.06c-1.36.12-2.75.28-4.13.46h-.13m33.25,1.37h-.23c-.73-.18-1.48-.35-2.22-.51s-1.59-.32-2.39-.47a1,1,0,0,1-.81-1.07,1,1,0,0,1,1.08-.81h.06c.82.15,1.65.31,2.45.48s1.53.34,2.29.52a1,1,0,0,1-.23,1.88m-42.67.24a1,1,0,1,1-.19-2c1.57-.33,3.17-.63,4.73-.9a1,1,0,0,1,1.33.47,1,1,0,0,1-.47,1.34,1.06,1.06,0,0,1-.5.09c-1.54.26-3.11.56-4.66.89h-.2M14,71.8a1,1,0,0,1-.26-1.87c1.55-.44,3.12-.85,4.65-1.23a1,1,0,1,1,.46,1.85c-1.51.37-3.06.78-4.59,1.21H14m61.05.37a1,1,0,0,1-.35-.06c-1.45-.58-2.94-1.11-4.44-1.59a1,1,0,0,1-1-1,1,1,0,0,1,1-1,1,1,0,0,1,.59.19c1.54.49,3.08,1,4.56,1.63a1,1,0,0,1,.54,1.22l0,.1a.94.94,0,0,1-.88.6m8.6,4.16a1,1,0,0,1-.48-.12c-1.35-.78-2.75-1.52-4.16-2.21a1,1,0,0,1,.83-1.71c1.45.7,2.89,1.46,4.28,2.27a1,1,0,0,1-.47,1.77m7.9,5.37a1,1,0,0,1-.59-.2c-1.23-1-2.51-1.91-3.8-2.79a1,1,0,0,1,1.07-1.57c1.33.9,2.65,1.86,3.91,2.87a1,1,0,0,1,.14,1.34.92.92,0,0,1-.73.35m-78.8,3.08a.94.94,0,0,1-.82-.46c-.81-1.35-1.62-2.75-2.41-4.16a1,1,0,0,1,1.37-1.46,1,1,0,0,1,.29.51c.78,1.39,1.58,2.78,2.38,4.11a1,1,0,0,1-.32,1.31,1.05,1.05,0,0,1-.49.13m85.84,3.37a1,1,0,0,1-.69-.29c-1.08-1.14-2.21-2.25-3.36-3.31a1,1,0,1,1,.84-1.82,1,1,0,0,1,.45.42c1.18,1.08,2.35,2.23,3.46,3.4a1,1,0,0,1,0,1.34,1,1,0,0,1-.66.26M17.92,92.82a1,1,0,0,1-.78-.4c-.91-1.29-1.82-2.64-2.7-4a.93.93,0,0,1,.27-1.3h0a1,1,0,0,1,1.32.27c.86,1.34,1.76,2.66,2.66,3.93a1,1,0,0,1-.23,1.33,1,1,0,0,1-.55.17m86.7,2.74a.94.94,0,0,1-.77-.4l-.43-.59c-.78-1.07-1.6-2.13-2.44-3.15a1,1,0,0,1,1.47-1.21c.86,1,1.71,2.14,2.51,3.24l.44.6a1,1,0,0,1-.78,1.51m-80.88,4.86a.94.94,0,0,1-.73-.34l-.4-.48c-.88-1.06-1.76-2.17-2.62-3.29a1,1,0,0,1,1.52-1.16c.84,1.1,1.7,2.19,2.57,3.24l.39.46a1,1,0,0,1-.12,1.35,1,1,0,0,1-.61.22m85.89,3.29a1,1,0,0,1-.85-.51c-.73-1.39-1.51-2.77-2.33-4.1a1,1,0,0,1,1.62-1h0c.84,1.36,1.65,2.78,2.4,4.2a1,1,0,0,1-.84,1.4M30.2,107.43a1,1,0,0,1-.66-.27c-1.13-1.11-2.26-2.28-3.35-3.48a1,1,0,1,1,1.33-1.36l.07.08c1.07,1.17,2.18,2.31,3.28,3.4a1,1,0,0,1,0,1.35,1,1,0,0,1-.68.28m83.33,5a1,1,0,0,1-.89-.62c-.55-1.47-1.16-2.94-1.79-4.37a1,1,0,0,1,.48-1.26.94.94,0,0,1,1.24.47v0c.66,1.45,1.28,3,1.84,4.47a1,1,0,0,1-.55,1.23,1,1,0,0,1-.34.06m-76.18,1.36a1,1,0,0,1-.59-.2c-1.24-1-2.49-2-3.7-3.11a.95.95,0,1,1,1.26-1.42c1.19,1,2.41,2.07,3.63,3a1,1,0,0,1,0,1.41,1,1,0,0,1-.6.29m7.84,5.47a1,1,0,0,1-.49-.14c-.67-.4-1.34-.83-2-1.26s-1.37-.91-2-1.39a1,1,0,0,1,.19-1.4,1,1,0,0,1,.9-.16c.66.46,1.33.92,2,1.35s1.31.84,1.95,1.23a1,1,0,0,1,.32,1.31.94.94,0,0,1-.81.46m69.9-1.61h0m-.34.8h0m-1.14,2a1,1,0,0,1-.84-.51,1,1,0,0,1,.4-1.29l1.43-.77c-.15-.54-.31-1.07-.47-1.59a.94.94,0,0,1,.61-1.18h0a1,1,0,0,1,1.19.62c.22.72.43,1.45.64,2.18a.81.81,0,0,1,0,.31,1.12,1.12,0,0,1-.11.47,1.06,1.06,0,0,1-.51.59c-.64.37-1.3.72-2,1.07a1,1,0,0,1-.44.11m-60,3.21a1,1,0,0,1-.38-.08c-1.46-.63-2.93-1.33-4.37-2.08a1,1,0,0,1,.87-1.69c1.4.73,2.83,1.41,4.26,2a1,1,0,0,1,.49,1.25.94.94,0,0,1-.87.57m51.27.72a1,1,0,0,1-.81-1.16,1,1,0,0,1,.47-.68c1.46-.55,2.92-1.16,4.36-1.81a1,1,0,1,1,1.35,1.47.91.91,0,0,1-.56.26c-1.48.67-3,1.29-4.47,1.86a1,1,0,0,1-.34.06M62.6,126.76h-.25c-1.55-.42-3.11-.9-4.63-1.43a1,1,0,1,1,.06-2,1,1,0,0,1,.57.2c1.48.52,3,1,4.5,1.39a1,1,0,0,1-.25,1.88m33.12.38a1,1,0,0,1-.22-1.88c1.52-.36,3-.78,4.55-1.24a1,1,0,0,1,.56,1.82c-1.54.47-3.11.9-4.67,1.27h-.22m-23.65,1.47H72c-1.6-.19-3.22-.44-4.79-.74a1,1,0,0,1-1.11-.87,1,1,0,0,1,.87-1.12,1,1,0,0,1,.6.12c1.53.29,3.09.54,4.65.72a1,1,0,0,1,.57,1.29,1,1,0,0,1-.68.61m14.31.14a1,1,0,0,1-.7-1.23,1,1,0,0,1,.61-.67c1.31-.12,2.63-.29,3.94-.49l.74-.12a.94.94,0,0,1,1.09.76v0a1,1,0,0,1-.78,1.1l-.76.12c-1.34.21-2.7.38-4,.51h-.09m-6.5.32c-1,0-2.06,0-3.09-.07a1,1,0,1,1,.09-1.91,46.25,46.25,0,0,0,4.71,0,1,1,0,0,1,1,.88v0a1,1,0,0,1-.93,1H80" transform="translate(-0.01 -0.01)" fill="#bfe1ff"/><path d="M187.56,211l.16.05Zm.22.38h-.28a.89.89,0,0,1-.38-.12l-1.48-.29-.61-.12a1,1,0,0,1-.39-1.36,1,1,0,0,1,.77-.51l.61.13.94.18V207.7a1,1,0,1,1,1.93-.52,1,1,0,0,1,0,.59v.63c0,.5-.05,1-.07,1.52a1.55,1.55,0,0,1-.06.77,1,1,0,0,1-.75.68h-.25Z" transform="translate(-0.01 -0.01)" fill="#bfe1ff"/><path d="M126.86,119.54h-.15c-1.53-.23-3.11-.41-4.69-.55a1,1,0,0,1,.08-1.9h.09c1.61.13,3.23.32,4.8.56a1,1,0,0,1-.13,1.89m-12.48,1.52a.67.67,0,0,1-.2,0,.93.93,0,0,1-.73-1.11v0c.15-.73.32-1.47.5-2.21a1.16,1.16,0,0,1,.43-.65,1.17,1.17,0,0,1,.74-.26h2.24a1,1,0,0,1,1.23.69,1,1,0,0,1-.69,1.24,1.08,1.08,0,0,1-.59,0h-1.64q-.19.81-.36,1.62a1,1,0,0,1-.93.75m21.82.49h-.26c-1.5-.43-3-.81-4.58-1.14a1,1,0,0,1,.4-1.87c1.58.34,3.16.74,4.7,1.17a1,1,0,0,1-.26,1.87m9,3.24a1,1,0,0,1-.38-.08c-1.2-.53-2.44-1-3.68-1.49l-.7-.26a1,1,0,0,1-.18-1.4,1,1,0,0,1,.83-.39l.72.26c1.27.48,2.54,1,3.78,1.54a.95.95,0,0,1-.39,1.82m8.45,4.46a.89.89,0,0,1-.5-.15c-1.32-.82-2.7-1.61-4.09-2.34a1,1,0,0,1,.89-1.68c1.43.75,2.85,1.56,4.21,2.41a1,1,0,0,1-.51,1.76M113,130.58h-.08a1,1,0,0,1-.87-1c.15-1.59.34-3.21.58-4.8a1,1,0,0,1,2-.29,1,1,0,0,1-.09.58c-.24,1.55-.43,3.13-.57,4.68a1,1,0,0,1-1,.87M161.34,135a1,1,0,0,1-.62-.22c-1.19-1-2.44-2-3.71-2.91a1,1,0,0,1,1.12-1.54c1.3,1,2.59,2,3.82,3a1,1,0,0,1,.11,1.34.92.92,0,0,1-.72.34m-48.67,5.2a1,1,0,0,1-1-.91q-.06-1.47-.06-2.94v-1.91a.94.94,0,0,1,1-.92h0a1,1,0,0,1,.93,1v1.86c0,.95,0,1.91.06,2.86a1,1,0,0,1-.91,1h0m55.5,1.48a.94.94,0,0,1-.72-.33c-1-1.17-2.13-2.32-3.24-3.41a1,1,0,0,1,.89-1.79,1,1,0,0,1,.44.43c1.15,1.12,2.27,2.3,3.34,3.51a1,1,0,0,1-.21,1.4,1,1,0,0,1-.5.19m5.8,7.59a1,1,0,0,1-.8-.43c-.87-1.32-1.78-2.61-2.73-3.85a1,1,0,0,1,1.52-1.15c1,1.27,1.91,2.6,2.8,3.95a1,1,0,0,1-.27,1.32.94.94,0,0,1-.52.16m-60.27.43a1,1,0,0,1-.93-.79c-.24-1.33-.45-2.7-.61-4.05,0-.25-.06-.49-.08-.74a1,1,0,0,1,1.82-.83,1,1,0,0,1,.07.62,2.21,2.21,0,0,0,.08.72c.16,1.32.36,2.65.59,3.95a1,1,0,0,1-.77,1.1h-.17m65,7.88a1,1,0,0,1-.86-.54c-.35-.72-.71-1.45-1.09-2.16s-.72-1.36-1.1-2a1,1,0,0,1,.37-1.29.94.94,0,0,1,1.28.35h0c.39.67.77,1.37,1.13,2.07s.76,1.47,1.12,2.22a1,1,0,0,1-.45,1.27,1,1,0,0,1-.41.09M116.1,159a1,1,0,0,1-.91-.66c-.5-1.52-1-3.09-1.35-4.65a1,1,0,0,1,.69-1.16,1,1,0,0,1,1.15.69c.39,1.52.83,3.05,1.32,4.53a1,1,0,0,1-.6,1.2.76.76,0,0,1-.3,0m66.26,7.46a1,1,0,0,1-.9-.64c-.52-1.5-1.08-3-1.67-4.42a1,1,0,1,1,1.53-1.29,1,1,0,0,1,.23.56c.6,1.47,1.18,3,1.71,4.52a1,1,0,0,1-.59,1.21.81.81,0,0,1-.31.06m-62.64,1.23a1,1,0,0,1-.86-.53c-.72-1.44-1.39-2.92-2-4.41a1,1,0,1,1,1.53-1.29,1,1,0,0,1,.23.56,45,45,0,0,0,2,4.29,1,1,0,0,1-.43,1.28.87.87,0,0,1-.42.1m65.28,7.8a1,1,0,0,1-.93-.73c-.36-1.54-.77-3.08-1.2-4.58a1,1,0,0,1,1.83-.53c.44,1.53.86,3.1,1.23,4.67a1,1,0,0,1-.71,1.15h-.22m-60.4.41a.93.93,0,0,1-.78-.41c-.93-1.33-1.81-2.7-2.63-4.07a1,1,0,1,1,1.63-1c.8,1.34,1.66,2.67,2.56,4a1,1,0,0,1-.36,1.37,1,1,0,0,1-.42.13m6,7.42a1,1,0,0,1-.69-.3c-1.11-1.19-2.18-2.42-3.19-3.66a1,1,0,0,1,1.48-1.2c1,1.21,2,2.41,3.1,3.56a1,1,0,0,1-.19,1.4,1.07,1.07,0,0,1-.51.2m56.16,1.57a1,1,0,0,1-.94-.82c-.2-1.37-.42-2.74-.67-4.09l-.1-.59a1,1,0,1,1,1.76-1,1,1,0,0,1,.11.61l.11.6c.25,1.37.48,2.77.68,4.16a1,1,0,0,1-.81,1.08h-.14m-49.18,5a1,1,0,0,1-.6-.21c-.65-.53-1.29-1.07-1.91-1.62s-1.17-1-1.74-1.57a1,1,0,0,1,1.34-1.35c.55.51,1.12,1,1.7,1.53s1.22,1.06,1.85,1.58a.94.94,0,0,1,.16,1.32.93.93,0,0,1-.76.36m50.17,4.55a1,1,0,0,1-1-.89c-.1-1.59-.24-3.18-.4-4.73a1,1,0,0,1,1.18-.78,1,1,0,0,1,.72.59c.16,1.57.3,3.18.41,4.8a1,1,0,0,1-.89,1h-.07m-42.44,1.07a1,1,0,0,1-.52-.15c-1.36-.87-2.7-1.79-4-2.72A1,1,0,0,1,142,191c1.26.92,2.57,1.81,3.91,2.67a1,1,0,0,1,.11,1.41,1,1,0,0,1-.63.34m8.3,4.75a.92.92,0,0,1-.43-.11c-1.45-.73-2.88-1.5-4.25-2.29a1,1,0,1,1,.89-1.68l.05,0c1.35.77,2.75,1.53,4.17,2.25a1,1,0,0,1,.23,1.4,1,1,0,0,1-.66.4M188.08,204h0a1,1,0,0,1-1-1v-.33c0-1.49,0-3-.07-4.43a1,1,0,0,1,1.91-.06c0,1.47.07,3,.07,4.49V203a1,1,0,0,1-1,1m-25.73.19A.89.89,0,0,1,162,204c-1.31-.53-2.63-1.08-3.89-1.64l-.54-.24a1,1,0,1,1,.23-2,1,1,0,0,1,.55.25l.53.24c1.25.55,2.53,1.1,3.83,1.61a1,1,0,0,1,.53,1.24.94.94,0,0,1-.88.6m9,3.2a1.41,1.41,0,0,1-.29,0c-1.53-.48-3.07-1-4.57-1.53a1,1,0,0,1,.05-2,1,1,0,0,1,.59.21c1.47.52,3,1,4.5,1.5a1,1,0,0,1-.28,1.86m9.21,2.54h-.22c-1.57-.38-3.14-.78-4.66-1.2a1,1,0,0,1,.51-1.83c1.5.41,3,.81,4.6,1.18a1,1,0,0,1-.23,1.88" transform="translate(-0.01 -0.01)" fill="#bfe1ff"/><path d="M223.94,164.2h0Zm-2.75,1.17a1,1,0,0,1-.9-.66,1,1,0,0,1,.62-1.2l.59-.18.91-.3-.43-.86-.29-.55a1,1,0,0,1,1.7-.87l.28.55.69,1.36a1.62,1.62,0,0,1,.33.7,1,1,0,0,1-.33,1,2.09,2.09,0,0,1-.46.26,1,1,0,0,1-.39.08l-1.43.47-.6.19a.71.71,0,0,1-.29,0Z" transform="translate(-0.01 -0.01)" fill="#bfe1ff"/><path d="M153.74,109.62h0a46.25,46.25,0,0,0-4.71,0,1,1,0,0,1-1-.88v0a1,1,0,0,1,.93-1h4.84a1,1,0,0,1,.66,1.25,1,1,0,0,1-.66.66m-14.29.86a1,1,0,0,1-.15-1.89l.76-.12c1.34-.21,2.7-.38,4-.51a1,1,0,0,1,.77,1.19,1,1,0,0,1-.59.71c-1.3.12-2.63.29-3.93.49l-.74.12h-.16m23.78.26h-.18c-1.53-.3-3.1-.54-4.66-.72a1,1,0,0,1-1.17-.79,1,1,0,0,1,1.4-1.1c1.6.19,3.21.44,4.79.74a1,1,0,0,1-.18,1.89m-33.11,1.89a1,1,0,0,1-.29-1.87c1.55-.47,3.12-.9,4.68-1.27a1,1,0,0,1,.92,1.08,1,1,0,0,1-.48.77c-1.52.36-3,.78-4.55,1.24a1.31,1.31,0,0,1-.28,0m42.29.53a1.61,1.61,0,0,1-.31,0c-1.48-.52-3-1-4.5-1.39a1,1,0,0,1-.67-1.17.94.94,0,0,1,1.15-.67h0q2.34.63,4.64,1.43a1,1,0,0,1,.58,1.21.94.94,0,0,1-.9.64M121.2,116a1,1,0,0,1-.39-1.82c1.47-.66,3-1.29,4.47-1.85a1,1,0,0,1,1.41.16,1,1,0,0,1-.16,1.4,1,1,0,0,1-.58.22c-1.45.55-2.92,1.16-4.36,1.81a.88.88,0,0,1-.39.08m60,.94a1,1,0,0,1-.44-.1c-1.4-.73-2.83-1.41-4.26-2a1,1,0,0,1,.76-1.75c1.47.64,2.94,1.34,4.38,2.08a1,1,0,0,1-.44,1.8m-65.44,1.29h0m-.33.8h0m0,2.57a1,1,0,0,1-.91-.67c-.22-.72-.44-1.45-.64-2.18a.81.81,0,0,1,0-.31,1.29,1.29,0,0,1,.61-1.07c.65-.36,1.31-.72,2-1.06a1,1,0,0,1,1.44,1.39,1.05,1.05,0,0,1-.55.29c-.48.26-1,.51-1.44.78.16.53.31,1.06.48,1.59a1,1,0,0,1-.63,1.19.87.87,0,0,1-.28,0m73.89.3a1,1,0,0,1-.55-.17c-.66-.47-1.33-.92-2-1.35s-1.29-.83-1.95-1.23a1,1,0,0,1,.09-1.41,1,1,0,0,1,.91-.22c.67.41,1.35.83,2,1.26s1.37.91,2,1.38a1,1,0,0,1-.54,1.74m7.49,5.92a1,1,0,0,1-.63-.24c-1.18-1-2.4-2.07-3.62-3a1,1,0,1,1,1.18-1.5c1.25,1,2.49,2,3.7,3.11a1,1,0,0,1,.09,1.34.9.9,0,0,1-.72.32m-78,2.72A1,1,0,0,1,118,130c-.65-1.46-1.27-3-1.84-4.47a1,1,0,1,1,1.78-.67c.56,1.47,1.16,2.94,1.8,4.37a1,1,0,0,1-.48,1.25.86.86,0,0,1-.39.09m84.83,4a.93.93,0,0,1-.7-.31c-1.08-1.17-2.18-2.32-3.29-3.4a1,1,0,1,1,1.34-1.36c1.12,1.11,2.25,2.28,3.35,3.48a1,1,0,0,1,0,1.33h0a.93.93,0,0,1-.64.25m-80.37,4.46a1,1,0,0,1-.82-.46c-.83-1.36-1.64-2.78-2.39-4.2a1,1,0,0,1,1.39-1.44,1.05,1.05,0,0,1,.29.55c.74,1.39,1.52,2.77,2.34,4.1a1,1,0,0,1-.44,1.34.94.94,0,0,1-.37.11m86.51,2.87a1,1,0,0,1-.76-.38c-.85-1.1-1.71-2.19-2.58-3.23l-.38-.46a1,1,0,1,1,1.46-1.23l.39.47c.88,1.07,1.76,2.18,2.62,3.3a1,1,0,0,1-.31,1.38,1,1,0,0,1-.44.15m-81,4.91a1,1,0,0,1-.74-.35c-.86-1.05-1.7-2.14-2.51-3.24-.14-.2-.29-.4-.43-.61a1,1,0,1,1,1.55-1.1l.42.59c.79,1.07,1.61,2.13,2.44,3.15a.93.93,0,0,1-.11,1.32l0,0a1,1,0,0,1-.6.22m86.48,2.9a1,1,0,0,1-.8-.44c-.87-1.33-1.77-2.65-2.66-3.92a1,1,0,1,1,1.19-1.61,1,1,0,0,1,.36.51c.92,1.29,1.82,2.63,2.7,4a.92.92,0,0,1-.25,1.29l0,0a.93.93,0,0,1-.51.16m-79.91,4a.93.93,0,0,1-.64-.25c-1.19-1.08-2.35-2.23-3.46-3.4a1,1,0,0,1,.47-1.33,1,1,0,0,1,.91,0c1.08,1.14,2.21,2.25,3.36,3.31a.94.94,0,0,1,.07,1.33h0a.93.93,0,0,1-.7.31m84.83,4.16a1,1,0,0,1-.83-.49c-.78-1.4-1.58-2.78-2.38-4.11a1,1,0,0,1,1.35-1.48,1,1,0,0,1,.29.48c.81,1.34,1.62,2.75,2.41,4.16a1,1,0,0,1-.37,1.3,1,1,0,0,1-.47.12m-77.34,1.77a1,1,0,0,1-.54-.17c-1.33-.9-2.64-1.87-3.9-2.87a.93.93,0,0,1-.18-1.3l0,0a1,1,0,0,1,1.34-.16c1.23,1,2.5,1.91,3.79,2.79a1,1,0,0,1-.53,1.74m8.27,4.78a1,1,0,0,1-.41-.1c-1.45-.7-2.9-1.46-4.29-2.27a1,1,0,1,1,.55-1.92,1,1,0,0,1,.45.27c1.36.78,2.76,1.53,4.16,2.21a.94.94,0,0,1,.46,1.25v0a1,1,0,0,1-.86.54M212,168a.94.94,0,0,1-.92-.72,1,1,0,0,1,.69-1.16c1.51-.37,3-.78,4.59-1.21a1,1,0,1,1,1.11,1.66,1,1,0,0,1-.59.17c-1.56.44-3.12.86-4.65,1.23H212m-51.92,0a.93.93,0,0,1-.29-.05c-1.55-.49-3.08-1-4.57-1.63a1,1,0,1,1,.15-2,1,1,0,0,1,.56.22c1.44.58,2.93,1.11,4.43,1.59a1,1,0,0,1-.28,1.86m42.57,1.95a1,1,0,0,1-.74-1.21,1,1,0,0,1,.58-.68c1.53-.26,3.09-.56,4.66-.89a.94.94,0,0,1,1.12.72v0a1,1,0,0,1-.73,1.13c-1.59.33-3.18.63-4.73.9h-.16m-33.3.33h-.21c-.82-.15-1.64-.31-2.45-.48s-1.53-.34-2.28-.52a1,1,0,1,1-.14-2,1,1,0,0,1,.59.14c.73.18,1.48.35,2.23.51l2.39.47a1,1,0,0,1,.74,1.12,1,1,0,0,1-.91.76m23.82.91a1,1,0,0,1-1-.87.94.94,0,0,1,.87-1l.57-.06c1.36-.12,2.75-.28,4.14-.46a1,1,0,0,1,.24,1.89c-1.41.18-2.82.34-4.2.47h-.61m-14.33.22h-.06c-1.61-.1-3.23-.25-4.81-.43a1,1,0,0,1-.49-1.33,1,1,0,0,1,.71-.56c1.54.18,3.13.32,4.71.42a1,1,0,0,1-.06,1.9m5.6.17h-.83a.94.94,0,0,1-.94-.94v-.06a1,1,0,0,1,1-.94h.82c1.28,0,2.6,0,3.92-.08a1,1,0,0,1,.69,1.23,1,1,0,0,1-.61.67c-1.35.06-2.69.09-4,.09" transform="translate(-0.01 -0.01)" fill="#bfe1ff"/><path d="M42.79,211.41h-.25a1,1,0,0,1-.75-.68,1.44,1.44,0,0,1,0-.77c0-.51,0-1-.07-1.53v-.62a1,1,0,0,1,.92-1h0a1,1,0,0,1,1,.92v1.62l1-.18.6-.13a1,1,0,1,1,1,1.75,1,1,0,0,1-.58.12L45,211l-1.45.29a1,1,0,0,1-.38.11h-.32Z" transform="translate(-0.01 -0.01)" fill="#bfe1ff"/><path d="M103.72,119.54a1,1,0,0,1-.14-1.89c1.58-.24,3.19-.43,4.81-.56a1,1,0,0,1,1.08.81,1,1,0,0,1-.81,1.07h-.11c-1.57.14-3.15.32-4.69.55h-.14m12.48,1.52a.94.94,0,0,1-.93-.75c-.12-.54-.24-1.08-.37-1.62h-1.63a1,1,0,0,1-.07-1.93h2.2a1.2,1.2,0,0,1,.77.26,1.17,1.17,0,0,1,.44.65c.17.74.34,1.48.5,2.21a1,1,0,0,1-.73,1.13.67.67,0,0,1-.2,0m-21.82.49a1,1,0,0,1-.26-1.87c1.53-.43,3.12-.83,4.7-1.17a1,1,0,0,1,.4,1.87c-1.54.33-3.08.71-4.58,1.14h-.26m-9,3.24a.95.95,0,0,1-.38-1.82c1.23-.54,2.5-1.06,3.78-1.54l.72-.26a1,1,0,0,1,1.23,1.58,1.06,1.06,0,0,1-.59.21l-.7.26c-1.24.46-2.48,1-3.68,1.49a.84.84,0,0,1-.38.08m-8.45,4.46a1,1,0,0,1-.85-1.13,1,1,0,0,1,.35-.63c1.36-.85,2.77-1.66,4.2-2.41a1,1,0,0,1,1.44,1.39,1.05,1.05,0,0,1-.55.29c-1.39.73-2.76,1.52-4.09,2.34a.89.89,0,0,1-.5.15m40.69,1.26a1,1,0,0,1-.94-.87c-.14-1.55-.33-3.13-.57-4.68a1,1,0,0,1,.8-1.09,1,1,0,0,1,1.08.8c.24,1.59.44,3.21.58,4.8a1,1,0,0,1-.86,1h-.09m-48.42,4.35a1,1,0,0,1-.73-.34,1,1,0,0,1,.1-1.33h0c1.23-1,2.51-2,3.81-3a1,1,0,0,1,1.12,1.54c-1.26.92-2.51,1.9-3.71,2.91a1,1,0,0,1-.61.22m48.67,5.2h0a.94.94,0,0,1-.91-1V134.2a1,1,0,0,1,.93-1,.94.94,0,0,1,1,.86v2q0,1.47-.06,2.94a1,1,0,0,1-1,.91m-55.5,1.48a.92.92,0,0,1-.63-.24,1,1,0,0,1-.09-1.35c1.07-1.21,2.2-2.39,3.35-3.51a1,1,0,1,1,1.34,1.35c-1.12,1.09-2.21,2.24-3.25,3.41a.94.94,0,0,1-.71.33m-5.8,7.59a.87.87,0,0,1-.52-.16,1,1,0,0,1-.28-1.32c.9-1.35,1.84-2.68,2.81-4a1,1,0,0,1,1.56,1.34h0c-.94,1.24-1.86,2.53-2.72,3.85a1,1,0,0,1-.8.43m60.26.43h-.17a1,1,0,0,1-.77-1.1c.24-1.3.43-2.63.59-4l.09-.72a1,1,0,0,1,2-.41,1,1,0,0,1-.07.62l-.09.74c-.16,1.35-.36,2.72-.6,4a1,1,0,0,1-.94.79m-65,7.88a1,1,0,0,1-.42-.09A1,1,0,0,1,51,156.1q.54-1.12,1.11-2.22c.37-.7.75-1.4,1.13-2.07a1,1,0,0,1,1.3-.36,1,1,0,0,1,.37,1.28h0c-.37.66-.74,1.34-1.1,2s-.74,1.44-1.09,2.16a.94.94,0,0,1-.85.54m62.62,1.38a.76.76,0,0,1-.3,0,1,1,0,0,1-.61-1.2c.49-1.48.93-3,1.32-4.53a1,1,0,0,1,1.85.47c-.4,1.56-.86,3.13-1.36,4.65a1,1,0,0,1-.9.66m-66.26,7.41a.87.87,0,0,1-.32-.06,1,1,0,0,1-.59-1.19v0c.53-1.53,1.1-3,1.71-4.52a1,1,0,1,1,2,.17,1,1,0,0,1-.23.56c-.59,1.4-1.16,2.92-1.67,4.4a1,1,0,0,1-.89.64m62.61,1.36a1,1,0,0,1-.43-.1,1,1,0,0,1-.42-1.28c.7-1.4,1.35-2.84,1.95-4.29a1,1,0,0,1,2,.17,1,1,0,0,1-.23.56c-.61,1.49-1.29,3-2,4.41a1,1,0,0,1-.85.53m-65.28,7.8a.81.81,0,0,1-.22,0,1,1,0,0,1-.71-1.15c.37-1.57.78-3.14,1.22-4.67a1,1,0,1,1,1.83.53c-.43,1.5-.83,3-1.2,4.58a.94.94,0,0,1-.92.73m60.4.41a1,1,0,0,1-.55-.17,1,1,0,0,1-.23-1.33c.9-1.29,1.76-2.62,2.55-4a1,1,0,0,1,1.64,1c-.82,1.37-1.71,2.74-2.63,4.07a1,1,0,0,1-.78.41m-6,7.42a1,1,0,0,1-.65-.26,1,1,0,0,1,0-1.34c1.07-1.15,2.11-2.35,3.09-3.56a1,1,0,0,1,1.38.29,1,1,0,0,1,.1.91c-1,1.24-2.08,2.47-3.18,3.66a1,1,0,0,1-.7.3m-56.16,1.57h-.13a1,1,0,0,1-.81-1.08c.2-1.39.43-2.79.68-4.16l.11-.6a1,1,0,0,1,1.36-.4,1,1,0,0,1,.51.75l-.11.59c-.25,1.35-.47,2.72-.67,4.09a1,1,0,0,1-.94.82m49.19,5a1,1,0,0,1-1-1,.94.94,0,0,1,.34-.73c.63-.52,1.26-1.05,1.86-1.58s1.14-1,1.69-1.53a1,1,0,0,1,1.75,1,1,1,0,0,1-.45.42c-.56.53-1.15,1.06-1.74,1.57s-1.25,1.09-1.9,1.62a1,1,0,0,1-.6.21m-50.18,4.55h-.06a1,1,0,0,1-.89-1c.11-1.62.24-3.23.41-4.8a.94.94,0,0,1,1-.85,1,1,0,0,1,.85,1c-.16,1.55-.29,3.14-.4,4.73a.94.94,0,0,1-.95.89m42.45,1.07a1,1,0,0,1-1-.94,1,1,0,0,1,.44-.81c1.33-.86,2.64-1.75,3.9-2.67a1,1,0,0,1,1.12,1.55c-1.29.93-2.63,1.85-4,2.72a.92.92,0,0,1-.51.15M77,200.17a1,1,0,0,1-.43-1.8c1.42-.72,2.82-1.48,4.17-2.25a.94.94,0,0,1,1.28.35h0a.93.93,0,0,1-.32,1.27l0,0c-1.37.79-2.8,1.56-4.25,2.29a.92.92,0,0,1-.43.11m-34.45,3.74a1,1,0,0,1-1-.95v-.34c0-1.51,0-3,.07-4.49a1,1,0,0,1,1.9.06c0,1.45-.07,2.94-.07,4.43v.32a1,1,0,0,1-.94,1h0m25.74.19a1,1,0,0,1-.36-1.84c1.3-.51,2.59-1.06,3.84-1.61l.52-.24a1,1,0,0,1,.79,1.74l-.54.24c-1.27.56-2.58,1.11-3.9,1.64a.84.84,0,0,1-.35.07m-9,3.2a1,1,0,0,1-.29-1.86c1.52-.48,3-1,4.5-1.5a1,1,0,0,1,1.23,1.58,1.06,1.06,0,0,1-.59.21c-1.49.53-3,1-4.57,1.53a1.31,1.31,0,0,1-.28,0m-9.22,2.54a1,1,0,0,1-.22-1.88c1.55-.37,3.1-.77,4.6-1.18a.95.95,0,1,1,.6,1.8l-.1,0c-1.52.42-3.09.82-4.66,1.2h-.22" transform="translate(-0.01 -0.01)" fill="#bfe1ff"/><path d="M6.67,164.22h0Zm2.71,1.15H9.09l-.59-.19-1.43-.47a.89.89,0,0,1-.36-.07,1.62,1.62,0,0,1-.5-.27,1,1,0,0,1-.32-1,1.51,1.51,0,0,1,.33-.7l.68-1.36.29-.55a1,1,0,1,1,2,.32,1,1,0,0,1-.28.55l-.28.55c-.15.28-.29.57-.44.86l.92.3.59.18a1,1,0,0,1,.62,1.2.92.92,0,0,1-.91.66Z" transform="translate(-0.01 -0.01)" fill="#bfe1ff"/><path d="M76.83,109.62a1,1,0,0,1-.66-1.25,1,1,0,0,1,.66-.66c1.61-.07,3.23-.09,4.85,0a1,1,0,0,1,.64,1.26,1,1,0,0,1-.64.64H76.83Zm14.29.86H91l-.74-.12c-1.31-.2-2.63-.37-3.94-.49a1,1,0,0,1-.42-2,1,1,0,0,1,.6.06c1.35.13,2.71.3,4,.51l.76.12a1,1,0,0,1,.52,1.31,1,1,0,0,1-.68.58Zm-23.78.26a1,1,0,0,1-.83-1.15,1,1,0,0,1,.63-.77c1.58-.3,3.19-.55,4.79-.74a1,1,0,1,1,.83,1.82,1,1,0,0,1-.61.07c-1.55.18-3.12.42-4.65.72h-.19Zm33.08,1.88h-.28c-1.51-.46-3-.88-4.55-1.24a1,1,0,1,1-.16-2,1,1,0,0,1,.6.14c1.55.37,3.12.8,4.67,1.27a1,1,0,0,1,.42,1.35,1,1,0,0,1-.7.52Zm-42.3.53a1,1,0,0,1-.8-1.17,1,1,0,0,1,.49-.68c1.52-.53,3.08-1,4.63-1.43a1,1,0,0,1,1,1,1,1,0,0,1-.46.8c-1.51.4-3,.87-4.5,1.39a1.71,1.71,0,0,1-.32,0ZM109.35,116a.88.88,0,0,1-.39-.08c-1.44-.65-2.9-1.26-4.36-1.81a1,1,0,0,1,.68-1.78c1.49.56,3,1.19,4.47,1.85a1,1,0,0,1,.47,1.26A.92.92,0,0,1,109.35,116Zm-60,.94a1,1,0,0,1-.44-1.8c1.43-.74,2.91-1.44,4.37-2.08a1,1,0,0,1,1.31,1.51,1,1,0,0,1-.55.24c-1.43.62-2.86,1.3-4.26,2a1,1,0,0,1-.43.1Zm65.43,1.29Zm.34,3.37a.87.87,0,0,1-.28,0,1,1,0,0,1-.64-1.17v0c.16-.53.32-1.06.47-1.59l-1.43-.78a1,1,0,0,1-.32-1.3.94.94,0,0,1,1.2-.38c.66.34,1.32.7,2,1.07a1.06,1.06,0,0,1,.5.58,1.13,1.13,0,0,1,.11.48.81.81,0,0,1,0,.31c-.21.73-.42,1.46-.64,2.18a1,1,0,0,1-.91.67Zm-73.89.3a.93.93,0,0,1-.78-.41,1,1,0,0,1,.23-1.33c.68-.47,1.37-.93,2-1.38s1.33-.85,2-1.26a1,1,0,0,1,1,1.63c-.65.4-1.31.81-2,1.23s-1.34.88-2,1.35a1,1,0,0,1-.54.17Zm-7.5,5.92a.93.93,0,0,1-.71-.32,1,1,0,0,1,.08-1.34c1.21-1.08,2.46-2.12,3.7-3.11A1,1,0,1,1,38,124.61h0c-1.21,1-2.43,2-3.62,3a.92.92,0,0,1-.63.24Zm78,2.72a.85.85,0,0,1-.38-.09,1,1,0,0,1-.49-1.24h0c.63-1.43,1.24-2.9,1.79-4.37a1,1,0,1,1,1.78.67c-.56,1.51-1.18,3-1.84,4.47a.92.92,0,0,1-.87.57Zm-84.82,4a1,1,0,0,1-.65-.25,1,1,0,0,1-.05-1.34c1.09-1.2,2.22-2.37,3.35-3.48a1,1,0,0,1,1.33,1.36c-1.1,1.08-2.21,2.23-3.28,3.4A.93.93,0,0,1,26.91,134.54ZM107.28,139a1,1,0,0,1-.5-.14,1,1,0,0,1-.31-1.31c.81-1.33,1.6-2.71,2.33-4.1a1,1,0,0,1,1.69.89c-.75,1.42-1.56,2.84-2.4,4.2A.94.94,0,0,1,107.28,139Zm-86.51,2.87a1,1,0,0,1-.58-.2,1,1,0,0,1-.18-1.33c.86-1.12,1.74-2.23,2.62-3.29l.4-.48a1,1,0,1,1,1.46,1.23l-.39.46c-.86,1-1.73,2.13-2.57,3.23a1,1,0,0,1-.76.38Zm81,4.91a.89.89,0,0,1-.76-1.5c.84-1,1.66-2.08,2.44-3.15l.43-.59a1,1,0,0,1,1.32-.23,1,1,0,0,1,.23,1.33l-.44.61c-.81,1.1-1.65,2.19-2.51,3.24a1,1,0,0,1-.73.35Zm-86.48,2.9a.87.87,0,0,1-.52-.16.94.94,0,0,1-.29-1.3h0c.88-1.36,1.79-2.7,2.7-4a1,1,0,1,1,1.9.61,1,1,0,0,1-.34.49c-.9,1.27-1.8,2.59-2.66,3.92a.93.93,0,0,1-.8.44Zm79.91,4a.95.95,0,0,1-.65-1.65c1.15-1.06,2.28-2.17,3.36-3.31a1,1,0,0,1,1.36.38,1,1,0,0,1,0,.93c-1.12,1.17-2.28,2.32-3.46,3.4A.93.93,0,0,1,95.2,153.68Zm-84.84,4.16a.93.93,0,0,1-.46-.12,1,1,0,0,1-.37-1.3c.79-1.41,1.6-2.82,2.41-4.16a1,1,0,0,1,1.22-.72,1,1,0,0,1,.41,1.72c-.8,1.33-1.6,2.71-2.38,4.11a1,1,0,0,1-.83.49Zm77.35,1.77a1,1,0,0,1-.54-1.74c1.29-.88,2.57-1.82,3.8-2.79a1,1,0,0,1,1.58,1.23,1,1,0,0,1-.41.31c-1.26,1-2.58,2-3.91,2.87a1,1,0,0,1-.53.17Zm-8.27,4.78a1,1,0,0,1-.42-1.81c1.41-.68,2.81-1.43,4.16-2.21a1,1,0,0,1,1.3.35.94.94,0,0,1-.33,1.29h0c-1.39.81-2.83,1.57-4.28,2.27a1,1,0,0,1-.41.1Zm-60.81,3.52H18.4c-1.52-.37-3.09-.79-4.65-1.23a1,1,0,0,1,.52-1.83c1.54.43,3.08.84,4.59,1.21a1,1,0,0,1-.23,1.88Zm51.93,0a1,1,0,0,1-.29-1.86c1.5-.48,3-1,4.44-1.59a1,1,0,0,1,.7,1.77c-1.48.59-3,1.14-4.56,1.63a.93.93,0,0,1-.29,0Zm-42.62,2h-.16c-1.56-.27-3.15-.57-4.73-.9a1,1,0,1,1-.19-2,1,1,0,0,1,.58.12c1.56.33,3.13.63,4.66.89a1,1,0,0,1,.52,1.31,1,1,0,0,1-.68.58Zm33.29.33a.95.95,0,0,1-.16-1.88l2.39-.47c.74-.16,1.49-.33,2.22-.51a1,1,0,0,1,.93,1.06,1,1,0,0,1-.47.79c-.75.18-1.52.36-2.29.52s-1.63.33-2.45.48Zm-23.81.91h-.67c-1.38-.13-2.8-.29-4.21-.47a1,1,0,0,1-.48-1.33,1,1,0,0,1,.73-.56c1.38.18,2.78.34,4.13.46l.58.06a1,1,0,0,1-.08,1.9Zm14.32.22a1,1,0,0,1-.05-1.9c1.58-.1,3.16-.24,4.7-.42a1,1,0,0,1,.84,1.82,1.06,1.06,0,0,1-.61.07c-1.58.18-3.2.33-4.82.43Zm-5.59.17c-1.31,0-2.66,0-4-.09a1,1,0,0,1-.54-1.93,1.09,1.09,0,0,1,.62,0c1.31.05,2.63.08,3.92.08H47a1,1,0,0,1,.64,1.26,1,1,0,0,1-.64.64Z" transform="translate(-0.01 -0.01)" fill="#bfe1ff"/><path d="M170.63,161.88a15.08,15.08,0,0,0-8-2.64c-5-.17-10.1,1.51-15,3.13-1.42.47-2.76.91-4.11,1.31l-5.9,1.8c-6.43,2-13.09,4-19.82,5.51-5.25,1.16-8.71,2.95-10.6,5.47-2.2,2.94-2.44,7.19-.69,12.61.77,2.4,1.55,3.71,4.26,3.61A163.52,163.52,0,0,0,131,191.06c6.77-1.1,13.24-3.36,19.73-5.5,1.38-.45,2.75-.89,4.13-1.32,5.46-1.73,11.1-3.51,15.64-6,4-2.16,4.94-5.11,5.06-7.21a10.92,10.92,0,0,0-5-9.18" transform="translate(-0.01 -0.01)" fill="#d99582"/><path d="M107.14,191c5.94,1.07,13.39,3.15,18.46-.34a9.65,9.65,0,0,0,4.06-6.41c1-5.62.18-9.79-2.4-12.41-2.21-2.24-5.89-3.54-11.24-4-6.88-.56-13.75-1.68-20.39-2.77l-6.09-1c-1.39-.22-2.78-.48-4.25-.75-5.07-.94-10.31-1.91-15.28-1.07A15.09,15.09,0,0,0,62.43,166a10.93,10.93,0,0,0-3.66,9.77c.4,2.06,1.76,4.85,6,6.45C69.6,184,75.43,185,81.07,186c2.4.41,4.67.8,6.83,1.25,5.78,1.19,11.61,2.6,17.46,3.44.57.08,1.17.18,1.79.29" transform="translate(-0.01 -0.01)" fill="#d99582"/><path d="M141.75,152.25H92.83q-.75,3.6-1.45,7.2c-.32,1.63-.62,3.28-.89,4.94a38.64,38.64,0,0,1,12.35,4.68,37.78,37.78,0,0,1,12.77,15.18l2.49.05a28.44,28.44,0,0,1,1.82-2.92,54.74,54.74,0,0,1,6.53-7.73,38.94,38.94,0,0,1,8.49-6.27c.68-.38,9-4,9.07-3.52q-.37-2.22-.81-4.41c-.47-2.42-1-4.83-1.45-7.24" transform="translate(-0.01 -0.01)" fill="#d99582"/><path d="M170.74,161.73a15.28,15.28,0,0,0-8.11-2.67c-5.06-.18-10.14,1.51-15.06,3.13l.06.18-.09-.16c-1.19.39-2.32.76-3.45,1.11-.2-1.17-.43-2.42-.71-3.87q-.67-3.48-1.44-7.2H92.64c-.51,2.47-1,4.85-1.44,7.16-.35,1.79-.62,3.27-.84,4.64l-.78-.12c-1.39-.22-2.78-.48-4.25-.75-5.08-.94-10.34-1.92-15.34-1.07a15.35,15.35,0,0,0-7.67,3.75,11.14,11.14,0,0,0-3.72,9.94c.41,2.11,1.79,5,6.1,6.59,4.85,1.83,10.69,2.83,16.34,3.8,2.4.41,4.67.8,6.82,1.25q5.15,1,10.29,2.06l5.33,1a88.52,88.52,0,0,0,25,1.52c2-.19,4-.44,6-.73,4.68-1.58,9.34-3.18,13.9-4.79,2.07-.73,4.27-1.43,6.59-2.16,5.46-1.73,11.11-3.51,15.67-6,4.05-2.2,5-5.21,5.15-7.36a11.11,11.11,0,0,0-5-9.34" transform="translate(-0.01 -0.01)" fill="#74a6cf"/><path d="M141.63,194h0c-2.62-2.36-5.36-4.61-9.14-4.81-3.44-.18-5.6-1.31-8.85-1.89a9,9,0,0,0-5.16,1c-1.87.83-3.9,2.21-3.6,4.14a4.55,4.55,0,0,0,1.67,2.53c3.63,3.28,6.85,2.13,11.13,3.92,2.79,1.16,5,2.42,8,1.85a29,29,0,0,0,6-2.07,3.08,3.08,0,0,0,1.46-1c.76-1.15-.45-2.63-1.57-3.64" transform="translate(-0.01 -0.01)" fill="#d99582"/><path d="M126.14,186.25c-8.86-3.1-17.66-6.4-25.85-11-10.35-5.85-20.78-10.46-32.82-8-8.08,1.67-11.66,7.87-4.39,14,10.67,8.94,25.29,10.56,38.67,11.44,6.48.43,12.93,1.23,19.34,2.29,3.37.55,6.62,1.83,10,2,2.17.08,7.29-.58,6.91-3.69-.45-3.76-8.77-5.88-11.72-6.91l-.19-.07" transform="translate(-0.01 -0.01)" fill="#d99582"/><path d="M76.66,187.11a18.53,18.53,0,0,1,4.18-10A27,27,0,0,1,90,169.88c-6.8-2.82-14.32-4.49-22.58-2.78-4.46.92-7.57,3.21-8.3,6.12-.67,2.64.7,5.53,3.83,8.16a41.66,41.66,0,0,0,13.72,7.46v-1.7" transform="translate(-0.01 -0.01)" fill="#74a6cf"/><path d="M109.22,186.49c8.68-3.73,17.3-7.66,25.2-12.86,10-6.58,20.15-11.92,32.4-10.29,8.23,1.09,12.24,7,5.36,13.62-10.1,9.69-24.67,12.35-38,14.19-6.47.89-12.9,2.14-19.25,3.66-3.34.79-6.53,2.3-10,2.68-2.17.24-7.35-.05-7.18-3.18.19-3.79,8.4-6.5,11.29-7.74l.19-.08" transform="translate(-0.01 -0.01)" fill="#d99582"/><path d="M145.43,106.78c-3.64-12.68-22.64-16.34-33.79-14.27C103.72,94,91.85,98,89.33,106.78a11.59,11.59,0,0,0-.42,3.1c4.54,7.8,8.72,15.74,11.55,24.37a76.58,76.58,0,0,1,3.37,14.81c.08.7.15,1.39.2,2.08a12.2,12.2,0,0,0,1,.73c6.9,4.23,17.62,4.28,24.6,0a11.06,11.06,0,0,0,1.06-.73,18.48,18.48,0,0,1,.19-2.08,76.58,76.58,0,0,1,3.37-14.81c2.83-8.63,7-16.57,11.55-24.37a11.59,11.59,0,0,0-.42-3.1" transform="translate(-0.01 -0.01)" fill="#d99582"/><path d="M149.32,106.35A35.05,35.05,0,0,0,139.59,98a31.25,31.25,0,0,1-20.45,10.42c-8.92.72-18.56-3.31-25.21-9.45A39.3,39.3,0,0,0,84,107.07l-.1.12.09.12a1.07,1.07,0,0,1,.19.28c1.09,2,2.36,4,3.6,5.94a78.59,78.59,0,0,1,4,6.8c.48,1,1,2,1.42,2.94.58,1.21,1.17,2.46,1.8,3.68a24.64,24.64,0,0,1,1.2,2.61c.42,1,.79,1.86,1.13,2.74-1.26,5-2.48,10-3.63,14.92-1.2,5.14-2.25,9.83-3.22,14.34v.17h.17a108.67,108.67,0,0,0,27,3.18,173.77,173.77,0,0,0,26.17-2.16h.19v-.19c-1-4.82-2.15-9.84-3.44-15.36-1.17-5-2.42-10.12-3.71-15.22.37-.95.78-1.93,1.22-2.94a29.75,29.75,0,0,1,1.12-2.89c.88-2,1.9-4.13,3.12-6.47,1-1.8,1.94-3.62,2.9-5.37,1.39-2.54,2.82-5.16,4.13-7.78l.06-.11-.08-.09" transform="translate(-0.01 -0.01)" fill="#ffd787"/><path d="M95.62,59.84c-.06-.25-.13-.5-.2-.75A9,9,0,0,0,92,54.2c-5.66-3.8-11.6,2.59-9.82,8.42a8,8,0,0,0,7.68,5.48,6.28,6.28,0,0,0,5.32-2.94,7.27,7.27,0,0,0,.51-5.32" transform="translate(-0.01 -0.01)" fill="#d99582"/><path d="M86.44,67.36h0m0,0h0m0,0a8,8,0,0,1-4.3-4.74h0a8,8,0,0,0,4.27,4.76" transform="translate(-0.01 -0.01)" fill="#fff0d0"/><path d="M89.61,68.08a7.54,7.54,0,0,1-3.17-.72h0a8,8,0,0,1-4.3-4.74h0a7.57,7.57,0,0,1-.32-2.06,11.83,11.83,0,0,0,6.8,2.18,9.67,9.67,0,0,0,2.83-.39,35.1,35.1,0,0,0,.61,5.31,6.86,6.86,0,0,1-2.24.44H89.6" transform="translate(-0.01 -0.01)" fill="#d06b64"/><path d="M136.49,59.84c.06-.25.13-.5.2-.75a9.05,9.05,0,0,1,3.45-4.89c5.66-3.8,11.6,2.59,9.81,8.39a8,8,0,0,1-7.68,5.48A6.31,6.31,0,0,1,137,65.16a7.38,7.38,0,0,1-.51-5.32" transform="translate(-0.01 -0.01)" fill="#d99582"/><path d="M146.42,67h0m0,0A7.9,7.9,0,0,0,150,62.62l.06-.19-.06.19A7.89,7.89,0,0,1,146.43,67M150,62.43h0" transform="translate(-0.01 -0.01)" fill="#fff0d0"/><path d="M142.5,68.08h-.22a6.56,6.56,0,0,1-1.58-.23,38.33,38.33,0,0,0,.71-5.33,10.23,10.23,0,0,0,2.07.2,11.83,11.83,0,0,0,6.8-2.18A7.8,7.8,0,0,1,150,62.4h0l-.06.19A7.89,7.89,0,0,1,146.43,67h0a7.74,7.74,0,0,1-3.92,1.11" transform="translate(-0.01 -0.01)" fill="#d06b64"/><path d="M124.34,78.78c-4.44,1.77-9.5,1.55-14.36.21a135.81,135.81,0,0,0-.84,16.63c0,3.23.39,6.74,2.25,9a7.28,7.28,0,0,0,7.8,2.11,8.37,8.37,0,0,0,5.54-4.67,15,15,0,0,0,.84-5.86c0-.83,0-1.65,0-2.48-.17-5-.68-10-1.15-15" transform="translate(-0.01 -0.01)" fill="#d99582"/><polyline points="125.47 93.78 125.47 93.77 125.47 93.78" fill="#d06b64"/><path d="M120.87,96a14.16,14.16,0,0,1-11.73-5.46c0-1.74.13-3.47.25-5.2a30.71,30.71,0,0,0,7,1h1a29.53,29.53,0,0,0,7.6-1c.24,2.78.44,5.57.54,8.35h0v1.66a20.88,20.88,0,0,1-4.66.53" transform="translate(-0.01 -0.01)" fill="#d06b64"/><path d="M91.43,58.94v1.21c0,5.24.76,10.65,3.53,15.16,4.31,7,13,10.77,21.41,11,6.14.2,12.53-1.37,17.12-5.3,7-6,8.44-16,7.94-25-.61-11-6.84-22.21-19.17-24.06-11.2-1.69-23.29,3.14-28,13.37a34.4,34.4,0,0,0-2.82,13.57" transform="translate(-0.01 -0.01)" fill="#d99582"/><path d="M103.14,73.86c-3.83,0-6.94-2-6.94-4.38s3.11-4.38,6.94-4.38,6.94,2,6.94,4.38-3.11,4.38-6.94,4.38" transform="translate(-0.01 -0.01)" fill="#d06b64"/><path d="M129.47,73.86c-3.83,0-6.94-2-6.94-4.38s3.11-4.38,6.94-4.38,6.93,2,6.93,4.38-3.1,4.38-6.93,4.38" transform="translate(-0.01 -0.01)" fill="#d06b64"/><path d="M118.39,65.16a.18.18,0,1,0-.29.22.7.7,0,0,1-.14,1,.69.69,0,0,1-.93-.08h0a.15.15,0,0,0-.16,0h0a1.59,1.59,0,0,1-1.82-.26,1.41,1.41,0,0,1-.12-1.89,1.45,1.45,0,0,1,1-.62.19.19,0,0,0,.25-.09.19.19,0,0,0,0-.07V60.84a.19.19,0,0,0-.23-.14.18.18,0,0,0-.14.14v2.32a2,2,0,0,0-1.69,1.74,1.81,1.81,0,0,0,1.45,1.85,1.86,1.86,0,0,0,1.27-.14,1.09,1.09,0,0,0,1,.17,1,1,0,0,0,.69-.93,1.13,1.13,0,0,0-.19-.69Z" transform="translate(-0.01 -0.01)" fill="#4a4a4a"/><path d="M113.84,69.68a3.07,3.07,0,0,0,4.08,1.52,3.12,3.12,0,0,0,1.46-1.39c.11-.21-.21-.4-.32-.19a2.71,2.71,0,0,1-4.91-.12c-.1-.21-.41,0-.31.18Z" transform="translate(-0.01 -0.01)" fill="#ab4f4f"/><path d="M96,191.93h0c2.62-2.34,5.38-4.57,9.15-4.75,3.44-.16,5.62-1.28,8.86-1.85a9,9,0,0,1,5.16,1c1.87.83,3.89,2.22,3.58,4.15A4.62,4.62,0,0,1,121,193c-3.65,3.25-6.87,2.09-11.16,3.85-2.79,1.15-5,2.39-8,1.8a29.06,29.06,0,0,1-6-2.1,3.08,3.08,0,0,1-1.46-1c-.75-1.15.46-2.63,1.59-3.63" transform="translate(-0.01 -0.01)" fill="#d99582"/><path d="M175.6,168.68c-.93-2.86-4.21-4.92-8.75-5.53a36.69,36.69,0,0,0-19.23,2.9,13.42,13.42,0,0,1,3.2,3,29.71,29.71,0,0,1,5,8.52,25.87,25.87,0,0,1,1.6,8.57,42.82,42.82,0,0,0,14.88-9.06c3-2.85,4.14-5.83,3.3-8.41" transform="translate(-0.01 -0.01)" fill="#74a6cf"/><path d="M112.64,120.11a1.35,1.35,0,0,0-1.25-.12,8.14,8.14,0,0,0-1.42.62c-.46.24-.91.51-1.35.79a15.48,15.48,0,0,0-2.43,2,11.81,11.81,0,0,0-2,2.51,6.3,6.3,0,0,0-.76,2.54c.2.92.39,1.85.55,2.8a6.27,6.27,0,0,1-.24,1.06,11.72,11.72,0,0,1-2.09,1.69c-2.81,1.86-6.11,2.75-9.06,4.34l-2,1.13c2.83-6,4.7-12.56,6.68-19.35,1.43-4.89,2.14-9.92-.46-14.57a8.42,8.42,0,0,0-2.27-2.73,4.58,4.58,0,0,0-3.35-.94c-3.29.49-6.64,5.15-8.6,7.56-7.77,9.57-12.24,22.38-13,34.62a33.64,33.64,0,0,0,.35,7.89,44.43,44.43,0,0,0,.84,4.58,3.29,3.29,0,0,0,.94,2.39,5.91,5.91,0,0,0,3.76,1.67C88,162,95.7,150,103.1,142c.58-.63,1.17-1.25,1.77-1.88a26.31,26.31,0,0,0,3.39-4.2,43.07,43.07,0,0,0,2.36-5.4c.16-.35.85-1.52.16-1.74-.34-.12-.7.23-.94.42a6.2,6.2,0,0,0-.82.8,8,8,0,0,0-.48.66v-1.11a9.91,9.91,0,0,1,.6-3.89c.58-.74,1.18-1.46,1.82-2.15.38-.42.78-.83,1.18-1.23a3,3,0,0,0,.76-1.08,1,1,0,0,0-.25-1.07" transform="translate(-0.01 -0.01)" fill="#d99582"/><path d="M96.92,105.42a8.34,8.34,0,0,0-2.32-2.79,4.77,4.77,0,0,0-3.49-1c-3,.44-6,4.25-8,6.76l-.7.87a60.4,60.4,0,0,0-11.89,25.9l0,.27.27-.06a24.58,24.58,0,0,1,2.71-.4,28.39,28.39,0,0,1,8.28.44,25.2,25.2,0,0,1,9,3.49l.18.12.08-.19A128.51,128.51,0,0,0,97.14,121l.26-.91c1.32-4.5,2.29-9.77-.47-14.71" transform="translate(-0.01 -0.01)" fill="#ffd787"/><path d="M151.9,110.62c-1.68-2.61-4.49-7.62-7.7-8.47a4.61,4.61,0,0,0-3.44.56,8.54,8.54,0,0,0-2.55,2.46c-3.11,4.33-3,9.42-2.08,14.43.62,3.54,1.52,7.23,2.4,11,.19,1.14.4,2.27.62,3.4q1,5,2.4,9.86a1.52,1.52,0,0,0,.12.4c-3.89.41-7.82,1.93-11.66,2.67s-7.81,1-11.45,2.3c-.51.07-1,.15-1.53.25-1.13.07-2.27.08-3.41.12a.74.74,0,0,1-.21,0c-.53,0-1.54,0-1.46.63,0,.36.52.53.8.66a5.28,5.28,0,0,0,1.09.4,5.76,5.76,0,0,0,.81.15c-.33.18-.66.35-1,.51a10.2,10.2,0,0,1-3.78,1.08c-.93-.21-1.86-.44-2.77-.72-.55-.17-1.1-.35-1.64-.54a3,3,0,0,0-1.32-.22,1,1,0,0,0-.87.7,1.37,1.37,0,0,0,.44,1.19,7.67,7.67,0,0,0,1.2,1c.42.32.85.61,1.3.89a16,16,0,0,0,2.86,1.37,12.56,12.56,0,0,0,3.19.75c1.88.15,3.5-.77,5.24-1.26,1.12-.55,2.59-1.61,3.86-1.33,3.06.67,6,1.7,9.14,2.24a77.8,77.8,0,0,0,10,.83c2.88.13,5.75.13,8.63,0h2.2c2.36,0,4.88,0,6.91-1,2.77-1.48,2.71-7.76,2.83-10.43.55-12.26-2.47-25.49-9.13-35.86" transform="translate(-0.01 -0.01)" fill="#d99582"/><path d="M160.47,133.37a59.59,59.59,0,0,0-8.42-22.88l-.59-.93c-1.7-2.73-4.28-6.84-7.21-7.62a4.83,4.83,0,0,0-3.58.58,8.56,8.56,0,0,0-2.61,2.51c-3.3,4.6-2.92,10-2.11,14.57.55,3.15,1.3,6.36,2.1,9.75l.3,1.26c.22,1.31.42,2.39.62,3.4s.43,2.05.72,3.32l.06.25.22-.14a21.37,21.37,0,0,1,5.45-2.16,49.64,49.64,0,0,1,8.38-1.45,58.58,58.58,0,0,1,6.49-.25h.22v-.21" transform="translate(-0.01 -0.01)" fill="#ffd787"/><path d="M95.64,192.21h0" transform="translate(-0.01 -0.01)" fill="#fff"/><path d="M117.14,183l-.17-.07c.54-.26,1.07-.53,1.59-.82h.09a.17.17,0,0,1,.17.13l-1.68.78" transform="translate(-0.01 -0.01)" fill="#5882c3"/><path d="M95.66,192.2h0v-.06l.42-.36-.12.11h0a2.44,2.44,0,0,0-.29.27m4.37-3.44a14.75,14.75,0,0,1,4.15-1.86c.85-.22,1.72-.36,2.58-.53s1.64-.35,2.45-.57a41.26,41.26,0,0,0,7.75-2.88l.17.07c-1.9.88-3.82,1.73-5.75,2.57-.82.26-1.65.49-2.48.7-1.43.36-2.9.57-4.33.92a11.15,11.15,0,0,0-4.54,1.58" transform="translate(-0.01 -0.01)" fill="#d06b64"/><path d="M111.38,185.56c1.93-.84,3.85-1.69,5.75-2.57l1.68-.78a.15.15,0,0,1-.07.21,42.6,42.6,0,0,1-5.09,2.34c-.75.29-1.51.55-2.27.8" transform="translate(-0.01 -0.01)" fill="#d06b64"/><path d="M95.83,192.44a.19.19,0,0,1-.19-.19v0h0a2.44,2.44,0,0,1,.29-.27h0l.12-.11a38.07,38.07,0,0,1,3.78-2.92l.14-.1a11.15,11.15,0,0,1,4.54-1.58l-.67.18c-3.08.88-5.57,3-8,5h-.12" transform="translate(-0.01 -0.01)" fill="#d06b64"/><path d="M117.49,195.7a.18.18,0,0,1-.14-.1l.14.1m20-5h-.06a0,0,0,0,1,0,.05" transform="translate(-0.01 -0.01)" fill="#fff"/><path d="M117.51,195.7h0l-.14-.1a.19.19,0,0,1,.09-.25l.07,0a4.06,4.06,0,0,0,2-.63l.51.08a4.41,4.41,0,0,1-2.52.92h0M136.77,191l-.24-.23.86-.12h.06a.16.16,0,0,1-.1.19h0l-.56.12" transform="translate(-0.01 -0.01)" fill="#d06b64"/><path d="M120,194.78l-.51-.08a3.88,3.88,0,0,0,1.21-1.21l.48-.1a4.38,4.38,0,0,1-1.18,1.39m7.39-2.58c2.23-.39,4.46-.74,6.71-1l2.39-.34.24.23c-1,.2-2,.36-2.93.49-2.13.28-4.28.44-6.41.67" transform="translate(-0.01 -0.01)" fill="#d06b64"/><path d="M120.73,193.49c.08-.13.16-.27.23-.41l.1-.08c.15-.14.3-.28.44-.43a.24.24,0,0,1,0,.12l0,.13c1.06-.27,2.14-.47,3.22-.64,4.17-.63,8.42-.68,12.54-1.61h0a.18.18,0,0,1,.17.12h0l-.86.12-2.39.34q-3.36.47-6.71,1a41.14,41.14,0,0,0-6.14,1l-.07.15-.48.1" transform="translate(-0.01 -0.01)" fill="#d06b64"/><path d="M121,193.08a3.66,3.66,0,0,0,.18-.46.19.19,0,0,1,.25-.1.19.19,0,0,1,.1.1c-.14.15-.29.29-.44.43l-.1.08" transform="translate(-0.01 -0.01)" fill="#d06b64"/><path d="M147.79,166.19h0m1.89-.95.31-.13a23.27,23.27,0,0,1,5.22-1.51h0a7.14,7.14,0,0,1,3.06-1.62h0c.19,0,.26.3.05.35a6.83,6.83,0,0,0-2.53,1.22,41.64,41.64,0,0,0-6.2,1.74" transform="translate(-0.01 -0.01)" fill="#5882c3"/><path d="M147.8,166.62a.19.19,0,0,1-.17-.21.17.17,0,0,1,.07-.13h.09l.33.23-.26.15h-.09" transform="translate(-0.01 -0.01)" fill="#d06b64"/><path d="M148.14,166.4l-.33-.23h0c.6-.34,1.23-.65,1.86-.93a41.64,41.64,0,0,1,6.2-1.74h0a21.79,21.79,0,0,1,2.91-.21h0a.18.18,0,0,1,0,.36,23.68,23.68,0,0,0-2.52.16,22.59,22.59,0,0,0-8.11,2.58" transform="translate(-0.01 -0.01)" fill="#5882c3"/><path d="M90.14,169.89a.14.14,0,0,1-.09,0c-.83-.39-1.68-.75-2.55-1.07a34.19,34.19,0,0,0-6.36-1.73h0c-1.07-.21-2.14-.39-3.24-.51a.18.18,0,0,1,.08-.24l.06,0h0c.75.06,1.49.15,2.24.26a6.65,6.65,0,0,0-1.2-.91.18.18,0,0,1-.08-.24.19.19,0,0,1,.17-.1h.1a6.71,6.71,0,0,1,1.6,1.3,35.24,35.24,0,0,1,9.3,2.89c.18.09.07.33-.1.33" transform="translate(-0.01 -0.01)" fill="#5882c3"/><path d="M81,167.22h-.12c0-.06-.09-.1-.13-.15-.88-.14-1.77-.25-2.65-.32a.19.19,0,0,1-.16-.11c1.1.12,2.17.3,3.24.51v.07H81" transform="translate(-0.01 -0.01)" fill="#5882c3"/><path d="M90.54,139.43l.09-.18a.17.17,0,0,1,0,.1l-.13.08" transform="translate(-0.01 -0.01)" fill="#fff0d0"/><path d="M79.94,145.55c-.15,0-.28-.19-.14-.31.67-.6,1.36-1.17,2.09-1.71l.28-.2a12.35,12.35,0,0,0-2.49.35h0a.18.18,0,0,1,0-.35,12.65,12.65,0,0,1,3-.38h0a28.44,28.44,0,0,1,7.76-3.76h.06a.14.14,0,0,1,.12.06l-.09.18.13-.08a.16.16,0,0,1-.12.2c-.85.26-1.68.56-2.5.9a27.83,27.83,0,0,0-8,5,.18.18,0,0,1-.12.05" transform="translate(-0.01 -0.01)" fill="#d06b64"/><path d="M141.47,144.26a.18.18,0,0,1,.13-.22h0l.06.19h-.2" transform="translate(-0.01 -0.01)" fill="#fff0d0"/><path d="M145.93,145h0a13.32,13.32,0,0,0-3.91-.58h-.33a.17.17,0,0,1-.17-.14h.2l-.06-.19h0l2.73-1.39h.09c.16,0,.28.24.1.33l-2.16,1.1a13.73,13.73,0,0,1,3.54.59.18.18,0,0,1,0,.36" transform="translate(-0.01 -0.01)" fill="#d06b64"/><path d="M95.63,127.54a.18.18,0,0,1-.18-.12l-.12-.31c.06-.19.12-.39.17-.58l.3.79a.16.16,0,0,1-.09.21h-.08" transform="translate(-0.01 -0.01)" fill="#ffc76a"/><path d="M95.33,127.11a23.91,23.91,0,0,1-1.47-6.74.16.16,0,0,1,.14-.18h0a.2.2,0,0,1,.2.18,23.61,23.61,0,0,0,1.27,6.16,2.12,2.12,0,0,1-.17.58" transform="translate(-0.01 -0.01)" fill="#ffc76a"/><path d="M137.84,129.7h0c.07-.17.14-.34.22-.51v.23a.27.27,0,0,1-.05.16.16.16,0,0,1-.18.12" transform="translate(-0.01 -0.01)" fill="#fff0d0"/><path d="M137.8,129.7a.16.16,0,0,1-.14-.18.06.06,0,0,1,0,0l.24-.75a1.92,1.92,0,0,0,.11.46c0,.15-.15.34-.22.51" transform="translate(-0.01 -0.01)" fill="#ffc76a"/><path d="M138.07,129.42v-.23a2.56,2.56,0,0,0-.11-.46,26.21,26.21,0,0,0,1.11-7.51.18.18,0,0,1,.19-.17h0a.18.18,0,0,1,.18.16h0a26.55,26.55,0,0,1-1.32,8.2" transform="translate(-0.01 -0.01)" fill="#ffc76a"/><path d="M146.39,31.87a7.13,7.13,0,0,0-4.72-2.49,10.59,10.59,0,0,0-3.68.18,4.28,4.28,0,0,0-.25-2.45c-.78-1.69-2.79-2.38-4.5-2.63a11.75,11.75,0,0,0-4.42.2,6.71,6.71,0,0,0-3.91-2.06,23.46,23.46,0,0,0-4.88-.37,29.14,29.14,0,0,0-5.58.6q-.12-.18-.24-.33a4,4,0,0,0-3.41-1.28,8.54,8.54,0,0,0-3.66,1.25,11.13,11.13,0,0,0-4,4.2,2.45,2.45,0,0,0-2.62-1,4.4,4.4,0,0,0-2.64,2.36,8.65,8.65,0,0,0-1,3.51,9,9,0,0,0,.38,3.33v.26c-.1-.52-.21-1-.34-1.55-.2-.8-.49-1.74-1.39-2s-1.41.51-1.46,1.27a3,3,0,0,0,1,2.28,4.65,4.65,0,0,0,.66.51,9.54,9.54,0,0,0-2-.06c-.91.08-2.13.23-2.51,1.21a1.08,1.08,0,0,0,.15,1.13,1.42,1.42,0,0,0,1,.46,3.52,3.52,0,0,0,1.21-.09c.36-.08.72-.18,1.07-.29a16.51,16.51,0,0,0-1.89,1.85c-1.12,1.25-2.82,3-2,4.86a3,3,0,0,0,.6.89c-.17.42-.32.84-.45,1.27a14.56,14.56,0,0,0-.65,3.28,8.94,8.94,0,0,0,.26,3.09A2.17,2.17,0,0,0,92.1,55a3.26,3.26,0,0,0,1.51-.23,9.64,9.64,0,0,0,1.25-.51A14.16,14.16,0,0,0,99.14,51a35.61,35.61,0,0,0,6.16-10.24c.39-.9.76-1.81,1.12-2.73a14.82,14.82,0,0,0,3.82,3,27.43,27.43,0,0,0,18.52,3.36,26.64,26.64,0,0,0,4.89-1.35,36.52,36.52,0,0,0,2,7.77,7.3,7.3,0,0,0,2.49,3.61,3.43,3.43,0,0,0,3.82.19,7,7,0,0,0,2.36-3.45,14.15,14.15,0,0,0,.9-4.21v-.08a4.67,4.67,0,0,0,2-2.1,3.35,3.35,0,0,0,.11-2.65A3.47,3.47,0,0,0,146,40.69a7.55,7.55,0,0,0,1.65-3.91,6.69,6.69,0,0,0-1.28-4.89Z" transform="translate(-0.01 -0.01)" fill="#39354d"/><path d="M133.48,81.77c7-6,8.44-16,7.94-25a14.91,14.91,0,0,0-.13-1.63c-.24-1-.47-2-.76-3a15.85,15.85,0,0,1-1.83,1.65.24.24,0,0,0,0,.32.19.19,0,0,0,0,.18c.13.37.24.74.34,1.12a20.67,20.67,0,0,1,.1,9.61A18.34,18.34,0,0,1,135,73.33a15,15,0,0,1-7.29,4.48,14,14,0,0,1-4.12.47,11.55,11.55,0,0,1-4.06-.84,2.28,2.28,0,0,1-1.4-1.35,5,5,0,0,1,0-1.34,2.28,2.28,0,0,0-.22-1,1.86,1.86,0,0,0-1.49-1.13H116a1.86,1.86,0,0,0-1.52,1.11,2.28,2.28,0,0,0-.22,1,5,5,0,0,1,0,1.34,2.28,2.28,0,0,1-1.4,1.35,11.55,11.55,0,0,1-4.06.84,14,14,0,0,1-4.12-.47,15,15,0,0,1-7.29-4.48A18.24,18.24,0,0,1,93.32,65a20.5,20.5,0,0,1,.17-9.57c.1-.38.21-.75.33-1.12a.19.19,0,0,0,0-.18.24.24,0,0,0,0-.32,16,16,0,0,1-1.58-1.39,41.76,41.76,0,0,0-.78,7.23v1.21c0,5.24.76,10.65,3.53,15.16,4.31,7,13,10.77,21.41,11,6.14.2,12.53-1.37,17.12-5.3Z" transform="translate(-0.01 -0.01)" fill="#37334a"/><path d="M130,61.8a3.07,3.07,0,0,0-4.08-1.52,3.12,3.12,0,0,0-1.46,1.39c-.11.21.2.4.31.19a2.72,2.72,0,0,1,4.92.12C129.79,62.19,130.1,62,130,61.8Z" transform="translate(-0.01 -0.01)" fill="#4a4a4a"/><path d="M101.45,61.8a3.09,3.09,0,0,1,5.55-.13c.11.21-.21.4-.32.19a2.7,2.7,0,0,0-3.63-1.22A2.73,2.73,0,0,0,101.77,62C101.67,62.19,101.35,62,101.45,61.8Z" transform="translate(-0.01 -0.01)" fill="#4a4a4a"/><path d="M108.14,53.51a.93.93,0,0,0-.7-.48,1.49,1.49,0,0,0-.86.3,22.49,22.49,0,0,0-4.8,3.89c-.34.35-.67.92-.34,1.29s.68.21,1,.1c1.9-.54,5.92-1.83,5.88-4.36a1.48,1.48,0,0,0-.21-.74Z" transform="translate(-0.01 -0.01)" fill="#37334a"/><path d="M123.05,53.51a.93.93,0,0,1,.7-.48,1.49,1.49,0,0,1,.86.3,22.79,22.79,0,0,1,4.81,3.89c.33.35.67.92.34,1.29a1,1,0,0,1-1,.1c-1.9-.54-5.92-1.83-5.88-4.36a1.62,1.62,0,0,1,.21-.74Z" transform="translate(-0.01 -0.01)" fill="#37334a"/></g></svg>