<svg id="Layer_1" data-name="Layer 1" xmlns="http://www.w3.org/2000/svg" viewBox="0 0 254.63 205.18"><g opacity="0.3"><path d="M8.88,161.26a118,118,0,0,1-4.13-12c-.27-1.15-.45-2.08-.55-2.58C3.4,143.51,2.63,139.89,2,136a3.86,3.86,0,0,0-.11-.68c-.2-1.25-.38-2.54-.55-3.86-.07-.48-.13-1-.19-1.48l-.21-2c-.15-1.49-.27-3-.36-4.58A105.28,105.28,0,0,1,.7,108.57q.14-1.5.3-3A84.51,84.51,0,0,1,2.85,95.23,78.3,78.3,0,0,1,6.7,83.39a72.92,72.92,0,0,1,8.59-15c6.17-8.35,12.16-14,17.9-17.64.8-.52,1.59-1,2.37-1.43a37.12,37.12,0,0,1,23.35-4.49l1.26.16c.7.11,1.4.22,2.09.35.46.08.92.17,1.37.27,7.77,1.61,14.26,4.4,19,4C93.4,48.68,98,24,121.73,9.92A62.19,62.19,0,0,1,133,4.7q2.13-.75,4.41-1.38A92.65,92.65,0,0,1,149.17.92c1.39-.19,2.79-.35,4.19-.49C155,.28,156.63.17,158.2.1a89.87,89.87,0,0,1,9.57.11,72.49,72.49,0,0,1,13.57,2.14c1.17.31,2.32.65,3.46,1C204.23,9.68,218,25.78,210.63,56.92c-.09.39-.19.79-.29,1.19a116.14,116.14,0,0,1-4.71,14.34q-1.2,3-2.63,6.22c-17.58,39.17,28.32,27.74,33,66.18a65.51,65.51,0,0,1-.37,17.13v.13l-.33.5C186.05,229.1,28.68,209.11,8.88,161.26Z" transform="translate(0 0)" fill="#e5f2f3" opacity="0.3" style="isolation:isolate"/><path d="M218.18,56.92a4.11,4.11,0,0,1-2.15-.47,23.17,23.17,0,0,1-7.9-6.79,44.65,44.65,0,0,1,.47-8.41c-.46,1.18-2.26,2.82-3.57,3.89-2.79-4.34-4.91-7.83-8.82-6.94-7.27,1.63-16.3-.6-18.84-8a15.41,15.41,0,0,1,4.54-4.73,15.49,15.49,0,0,0-5.64,1.89c-3.21-6.11-11.06-7.85-11.06-7.85a6.93,6.93,0,0,1-1-.34,38.08,38.08,0,0,1,1.13-8.57,10.69,10.69,0,0,0-5.18,6.19C154.75,12,154.55,3.49,155.1.1A113.8,113.8,0,0,1,183,2.35c1.41.31,2.8.65,4.16,1,23.4,6.37,39.94,22.46,31.1,53.6Z" transform="translate(0 0)" fill="#c1e0e4" opacity="0.5" style="isolation:isolate"/><polygon points="108.91 138.57 81.14 138.57 81.14 79.44 71.76 79.44 71.76 122.29 64.93 122.29 64.93 79.44 55.55 79.44 55.55 122.29 41.29 122.29 41.29 107.51 22.53 107.51 22.53 157.4 36.78 157.4 41.29 157.4 55.55 157.4 64.93 157.4 71.76 157.4 73.27 157.4 80.42 157.4 81.14 157.4 108.91 157.4 116.91 157.4 121.75 157.4 121.75 87.14 108.91 87.14 108.91 138.57 108.91 138.57" fill="#e1eef0"/><polygon points="187.6 138.57 187.6 79.44 176.49 79.44 176.49 122.29 171.38 122.29 171.38 104.19 162 104.19 162 122.29 147.75 122.29 147.75 107.51 128.98 107.51 128.98 157.4 143.24 157.4 147.75 157.4 162 157.4 171.38 157.4 176.49 157.4 179.72 157.4 186.88 157.4 187.6 157.4 223.36 157.4 223.36 138.57 187.6 138.57 187.6 138.57" fill="#e1eef0"/><path d="M48.33,44.78v60.28l-31-54.36c1-.52,1.91-1,2.86-1.43a52.55,52.55,0,0,1,28.1-4.49Z" transform="translate(0 0)" fill="#eff" opacity="0.5" style="isolation:isolate"/><polygon points="66.41 48.55 127.39 156.24 98.25 156.24 55.55 79.44 56.17 46.26 66.41 48.55 66.41 48.55" fill="#e7f7f7" opacity="0.5" style="isolation:isolate"/><path d="M238.4,162H214.71V137.11h19.38l4.82,7.74A54.82,54.82,0,0,1,238.4,162Z" transform="translate(0 0)" fill="#c5dadd" opacity="0.5" style="isolation:isolate"/><path d="M194.15,64.62v38.13L134.82,4.6c1.73-.5,3.54-1,5.4-1.38A135.41,135.41,0,0,1,154.63.79Z" transform="translate(0 0)" fill="#eff" opacity="0.5" style="isolation:isolate"/><path d="M65.29,151.2c-.48,7.16-7.69,10.37-7.69,10.37H9.09c-.26-.56-1.56-3.34-1.91-4.16C3.1,147.87-4.37,123.77,3.37,97.24a46.83,46.83,0,0,1,10.19,6.28,32.72,32.72,0,0,0-5.47,6.55,17.86,17.86,0,0,1,9-3.27,29,29,0,0,1,6.48,10.82c5.53,17,16.58,15.21,26.43,18,.53.15,1.06.31,1.57.48a49.74,49.74,0,0,0-6.25,6.15c6.13-2.79,10.59-3.1,13.26-2.86a17.93,17.93,0,0,1,4.26,3.89c-3.51-.63-9,.1-10.32.21,4.19-.32,10.1,2.09,12.18,3.14a11.09,11.09,0,0,1,.62,4.57Z" transform="translate(0 0)" fill="#c7dfe2" opacity="0.6" style="isolation:isolate"/><path d="M198.36,8.39c-1.36-.37-2.75-.71-4.16-1v150H52.47V44.51a24,24,0,0,1-4.15.27V157.39h-32c1,2.41,1.91,4.16,1.91,4.16h180.1Z" transform="translate(0 0)" fill="#c5dadd"/><path d="M239.86,113.92s-8.27,6.15-9.88,5.77,6-6.64,6-6.64c-2.88-1.38-11.84-.51-11.84-.51s-3,9.62-4.45,8.86,3.07-8.38,3.07-8.38c-3.2-.2-7.14,2.18-7.14,2.18-5.39,4.26.35,11,.35,11a16.23,16.23,0,0,1-4.5,6.32,14.24,14.24,0,0,0-5.2,10l.88.08s1.4-6,3.94-8.81l.42-.43c.41-.38.71-.67.9-.89,1.26-1.21,3-2.76,3.85-2.91a1.48,1.48,0,0,1,0-.42v.42c.29,3.39,6.86,6.34,10.9,7s2.79-1.05,1.4-3.51-5.8-3.57-6.8-4.7,1.07-1.14,3.5,0,2.77,4.08,6.68,6,9.78-4.61,9.78-4.61c-3.11-.16-7.56-3.54-7.4-4.57s7.55,1.78,8.81,1.92,4.13-1.44,4.58-6.52-7.89-6.5-7.89-6.5Z" transform="translate(0 0)" fill="#599dad"/><path d="M195.94,117.68s9.13-5.11,4.87-12c0,0-3.41-4.26-7.06-5.36,0,0,1.95,10.35,0,10.59s-1.34-11.69-1.34-11.69S182.79,94.6,179,95c0,0,6,10.11,4,9.87s-8.64-10.48-8.64-10.48-9.87-1.82-11.45,4,1,8.77,2.44,9.13,10.83.25,10.59,1.47-6.58,3.16-10.11,2.07c0,0,3.9,9.62,9,9.13s6.7-3.65,9.87-3.9,5.48.61,3.89,1.46-6.94.28-9.49,2.46-4.63,3.51.12,4.48,13.27.37,15-3.28l1.7-3.66Z" transform="translate(0 0)" fill="#79c8cc"/><path d="M198.38,126.57a19.51,19.51,0,0,1-2.44-8.89c-2.92-9.25-28.49-17.53-28.49-17.53,32.51,13.15,26.79,21.24,26.79,21.24.87.51,2.19,2.94,3.1,4.82.13.31.33.75.64,1.35h0l.29.65c1.67,4.19.79,11.42.79,11.42l1,.27a16.88,16.88,0,0,0-1.69-13.28Z" transform="translate(0 0)" fill="#6bb7bf"/><path d="M210.47,110.63s-12-6.74-6.42-15.89c0,0,4.5-5.62,9.31-7.06,0,0-2.57,13.64,0,14s1.77-15.41,1.77-15.41,12.68-6.1,17.65-5.62c0,0-7.86,13.33-5.29,13s11.39-13.81,11.39-13.81,13-2.41,15.09,5.3-1.28,11.56-3.21,12-14.29.32-14,1.92,8.66,4.18,13.32,2.73c0,0-5.14,12.68-11.88,12s-8.83-4.82-13-5.14-7.23.81-5.14,1.93,9.15.37,12.52,3.23,6.1,4.64-.16,5.92-17.49.48-19.74-4.33l-2.25-4.82Z" transform="translate(0 0)" fill="#6bb7bf"/><path d="M248,87.52s-33.71,10.87-37.56,23.11a25.64,25.64,0,0,1-3.21,11.76A22.16,22.16,0,0,0,205,139.92l1.33-.36s-1.17-9.53,1-15l.38-.85c.41-.79.68-1.37.85-1.79,1.2-2.47,2.93-5.68,4.09-6.35,0,0-7.55-10.6,35.31-27.93Z" transform="translate(0 0)" fill="#599dad"/><path d="M210.07,160.69a23.57,23.57,0,0,0,23.56-23.58H186.48A23.61,23.61,0,0,0,210.07,160.69Z" transform="translate(0 0)" fill="#f1a34f"/><path d="M215.87,160.51A23.61,23.61,0,0,1,189.54,140a23.24,23.24,0,0,1-.18-2.89h5.86A23.58,23.58,0,0,0,215.87,160.51Z" transform="translate(0 0)" fill="#ffb973"/><path d="M219.23,159H200.88c-.7,0-1.27,1.3-1.27,2.91H220.5c0-1.61-.57-2.91-1.27-2.91Z" transform="translate(0 0)" fill="#f1a34f"/><polygon points="185.83 137.11 185.83 137.83 234.3 137.83 234.3 137.11 185.83 137.11 185.83 137.11" fill="#d86713"/><path d="M5.78,130c.08.67.17,1.34.26,2,1-.76,1.86-1.34,1.86-1.34A6.54,6.54,0,0,0,5.78,130Z" transform="translate(0 0)" fill="#599dad"/><path d="M14.12,136.64s-7.41,1.48-8.36.73,6.08-2.45,6.08-2.45c-1.48-1.82-7.68-4.06-7.68-4.06s-1.32,1.43-2.7,2.7c.2,1.31.43,2.6.67,3.86a3.8,3.8,0,0,0,.14.67C3,141.68,3.88,145.24,5,148.74a14.36,14.36,0,0,0,5.49-1.07c-2-1.08-3.89-4.71-3.46-5.35s4.44,3.55,5.23,4,3.19.35,5.08-2.88-3.18-6.79-3.18-6.79Z" transform="translate(0 0)" fill="#599dad"/><path d="M39,101.39c-2.16.54-16,.36-15.63,2.16s9.7,4.67,14.91,3c0,0-5.75,14.19-13.3,13.47s-9.88-5.38-14.55-5.75-8.08.9-5.75,2.16,10.25.41,14,3.62,6.82,5.18-.18,6.62c-5,1-13,.86-17.94-1.32a85.87,85.87,0,0,1,.19-14.87c.09-1,.21-2,.35-3A75.06,75.06,0,0,1,3.3,97.16,70.19,70.19,0,0,1,8,85.38c4-1.48,8.33-2.78,10.89-2.53,0,0-8.81,14.91-5.93,14.55S25.63,81.92,25.63,81.92s14.55-2.67,16.89,6S41.13,100.92,39,101.39Z" transform="translate(0 0)" fill="#6bb7bf"/><path d="M40.63,90.67c-19.84,8-30,14.76-35.13,19.9.09-1,.21-2,.35-3C17.75,98.18,39.53,91,40.63,90.63Z" transform="translate(0 0)" fill="#599dad"/><path d="M28.57,141.08" transform="translate(0 0)" fill="#cfe1e5"/><path d="M28.68,141.07" transform="translate(0 0)" fill="#cfe1e5"/><path d="M194.33,161.57H31.13a1.34,1.34,0,0,1,1.32-1.34H193A1.34,1.34,0,0,1,194.33,161.57Z" transform="translate(0 0)" fill="#59b5b5"/><path d="M145.06,105.39c2.16-11.26-5.39-15-5.73-17.72s-.58-8.85-5.1-13.13,1.12-21.74-14.31-20a3.21,3.21,0,0,1,1.28-.6,3,3,0,0,0-2.22.73l-.52.08s-3.35-1.85-8,1.27-5.09,12.44-4,16.47-5,7.27-5.6,10.28,2,4-.89,6.83-7.73,7.52-6.34,14.32a30.78,30.78,0,0,0,6.3,13.13,4.69,4.69,0,0,0,.35,4,6.25,6.25,0,0,1,.69,2.35,4.71,4.71,0,0,0,2.18-2.82,8.5,8.5,0,0,1,.91,4.17c-.12,1,1.56,3.73,4.84,3.19.67-.11,20.44-3.51,24-5.11a.48.48,0,0,0,.08.32c.92,2.87,3,1.59,3.56,1.18,1.6-1.18.86-2.56,3.59-3.32,1.23-.35,2-2.79,2.3-3.93,5.88-7.19,2.16-9.2,2.63-11.67Z" transform="translate(0 0)" fill="#c65447"/><path d="M180.87,109.55c-2.08-1.08-3,1.25-3.78,1.61S174,111,173,112.53a8,8,0,0,1-1.89,1.88h0c-6.37,3.71-15.46,6.39-17.2,6.49-.48,0-1.77-2-3.43-5-4.34-7.91-11.21-22.53-12.66-24.16a8.65,8.65,0,0,0-3.2-1.82h0a49.84,49.84,0,0,0-7.49-2h0a3.34,3.34,0,0,1-2.38-3c-.16-2.55,0-5.5,0-5.5l-9.56.22a23.64,23.64,0,0,1-.16,6,2.65,2.65,0,0,1-2,2.21,46.72,46.72,0,0,0-8.36,2.49,7.06,7.06,0,0,0-2.23,1.46c-1.31,1.47-7,13.5-11.32,21.66h0C88.85,117.8,87,121,86.36,121c-1.74-.1-10.83-2.78-17.19-6.49h0a8.27,8.27,0,0,1-1.9-1.88c-1-1.51-3.29-1-4.08-1.37s-1.69-2.69-3.78-1.61c-.74.39.58,3.59.58,3.59A4.63,4.63,0,0,0,65.21,116a1.65,1.65,0,0,1,.91.33,13.12,13.12,0,0,1,1.47,1s8.88,8.85,15.87,11.48h.17l.19.07a9.34,9.34,0,0,0,3.35.62h.46c3.33-.41,7.31-4,11-8.42.45-.54.9-1.09,1.34-1.64,2-2.51,3.88-5.18,5.5-7.62,1.19,7,3.23,15.33,3.75,17.44a1.73,1.73,0,0,0,.07.6c-2.55,4.16-6.17,10.2-6.17,10.2s36.79,1.65,36.45,0-5.21-9.9-5.56-10.94c-.28-.84,1.2-8,2.64-14.63,1.47,2.09,3.08,4.25,4.74,6.25l.93,1.09c3.53,4.07,7.25,7.29,10.39,7.67,7,.83,20-12.17,20-12.17l-.05-.1.05.1s.48-.43,1-.84a4.82,4.82,0,0,1,1-.6h0a.92.92,0,0,1,.33,0,4.63,4.63,0,0,0,5.22-2.78s1.33-3.2.58-3.59Z" transform="translate(0 0)" fill="#ffb27d"/><path d="M151.74,148.74c-8.82,7.4-21.47,11.42-21.47,11.42s-10.18.2-21.73,0c-11.21-.19-22.18-14-22.18-14s9.35-.12,11.92-2.31a47.88,47.88,0,0,0,6-6.8c1.51-2,3-4.06,4.27-6,0,0,2.65,2.6,13.42,2.32s13.38-1.45,13.38-1.45,1.27,1.56,3,3.54c2,2.38,4.63,5.36,6.32,6.94.74.7,7.08,6.35,7.08,6.35Z" transform="translate(0 0)" fill="#63c1c6"/><path d="M114,59.08a7.36,7.36,0,0,1,10.25.13S120.91,58.51,114,59.08Z" transform="translate(0 0)" fill="#63c1c6"/><path d="M120.3,64.39s4.06-.08,5,1.28,1,2.87,1.51,3.64a2.94,2.94,0,0,1,.38,1.62s3.49-9-4.56-7.15c-.58.13-2.31.61-2.31.61Z" transform="translate(0 0)" fill="#b5453c"/><path d="M70,119.18" transform="translate(0 0)" fill="#5153a0"/><path d="M151.74,148.74c-8.82,7.4-21.47,11.42-21.47,11.42s-10.18.2-21.73,0c-11.21-.19-22.18-14-22.18-14s9.35-.12,11.92-2.31a47.88,47.88,0,0,0,6-6.8c.48.31,10.62,6.67,16.62,6.35s17.22-7.82,17.4-7.94c2,2.38,4.63,5.36,6.32,6.94.74.7,7.08,6.35,7.08,6.35Z" transform="translate(0 0)" fill="#59b5b5"/><path d="M153,147.77c-2.69,2.32-10.65,4.88-18.16,6.9-2.1.57-4.17,1.09-6.08,1.56-1.72.54-5.21,1.65-9,3-5.28,1.84-7.6,1-10.21.5s-5.57,1.36-9.45,0-2.9-9-2.9-9c1.32-.87,6.42-1.11,9.88,1.37s8.08,2,8.08,2a3.06,3.06,0,0,0,1.18-.56,91.17,91.17,0,0,0,9.55-6.9q3-2.37,6.85-5.71c4.88-4.26,9.1-9.87,14-10.9,8.29-1.76,11.24,1.46,11.24,1.46s2,10.31-5,16.41Z" transform="translate(0 0)" fill="#f2a672"/><path d="M134.8,154.67c-2.1.57-4.17,1.09-6.08,1.56-1.72.54-5.21,1.65-9,3-5.28,1.84-7.6,1-10.21.5s-5.57,1.36-9.45,0-2.9-9-2.9-9c1.32-.87,6.42-1.11,9.88,1.37s8.08,2,8.08,2a3.06,3.06,0,0,0,1.18-.56,91.17,91.17,0,0,0,9.55-6.9,17.07,17.07,0,0,0,8.1,7.73,8.83,8.83,0,0,1,.8.43Z" transform="translate(0 0)" fill="#abbfdb"/><path d="M140.13,152.39s-.18,6.65-2.62,7.44c-3.35,1.09-6-.65-8.75-.14s-5,1.22-10.59-.72c-3.7-1.3-7.17-2.41-9.08-3l-2.9-.8c-7.41-2.09-15.84-4.88-18.53-7.4-6.52-6.1-4-16.93-4-16.93s2.13-2.7,9.8-.94c4.5,1,9.15,5.49,13.65,9.73,1.87,1.76,3.64,3.39,5.26,4.85,5.66,5.11,9.53,8.29,9.53,8.29h0a2.82,2.82,0,0,0,1.2.56s3,1.17,8.07-.55c3.57-1.2,7.63-1.32,9-.41Z" transform="translate(0 0)" fill="#ffb27d"/><path d="M115.31,81.59s1.89,4.38,5,4.12,4.38-4.22,4.38-4.22l-9.37.1Z" transform="translate(0 0)" fill="#e8945b"/><path d="M112.16,76.3a40.57,40.57,0,0,1-2.39-6.68c-.65-2.56,0-12.29,9.76-11.6a13.15,13.15,0,0,1,5.6,1.67c2.2,1.26,5.46,4.11,2.67,12.76l-.67,2.9-15,1Z" transform="translate(0 0)" fill="#c65447"/><path d="M125.83,80.39C123.3,82.8,120.15,86,113.41,80c-1.32-1.11-1.78-3.55-1.86-6.11-.08-3-.25-4.31.1-6.06.41-2.1,2.2-3,5.93-3.36,6.84-.57,9.66,1,9.82,4.37C127.75,76.26,128.4,77.92,125.83,80.39Z" transform="translate(0 0)" fill="#ffb27d"/><path d="M115.31,61.57c-3.92.09-6,9.81-4.15,9.39s5.47-5,5.47-5c-.3,2.34-3,4.51-3,4.51,4.17-1.56,6-6.1,6-6.1s-.35-2.93-4.28-2.84Z" transform="translate(0 0)" fill="#c65447"/><path d="M127,64c-1.91-1.3-7.38.41-7.38.41a3.35,3.35,0,0,1,2.69,1.41c.78,1.39,3.32,5.35,5.52,6.63C127.8,72.45,128.88,65.3,127,64Z" transform="translate(0 0)" fill="#c65447"/><path d="M121.63,128.22c-.31,0-.56.46-.56,1s.25,1,.56,1,.57-.46.57-1S121.94,128.22,121.63,128.22Z" transform="translate(0 0)" fill="#f2a672"/><path d="M173.68,116.58a11.4,11.4,0,0,0-1,.84s-13,13-20,12.17c-3.14-.38-6.86-3.6-10.39-7.67l-.93-1.09,1-1.67,4.88.53s4.26,3.76,5.77,6.42c1.21,2.14,14.31-5.68,19.58-8.86l1.11-.67Z" transform="translate(0 0)" fill="#f2a672"/><path d="M180.29,113.14a4.63,4.63,0,0,1-5.22,2.78.92.92,0,0,0-.33,0h0s-.59-1.48,2.88-2.43a4.05,4.05,0,0,0,3.28-4c.75.39-.58,3.59-.58,3.59Z" transform="translate(0 0)" fill="#f2a672"/><path d="M100,119.53c-.44.55-.89,1.1-1.34,1.64-3.72,4.42-7.7,8-11,8.42h-.47A9.84,9.84,0,0,1,83.8,129l-.17-.05h-.1c-7-2.63-15.9-11.51-15.9-11.51a12.18,12.18,0,0,0-1.51-1.17c.5.24,1.06.52,1.67.84,6.2,3.21,17.67,9.86,19.9,8.22,3.13-2.3,7.29-7.89,7.29-7.89l5,2.11Z" transform="translate(0 0)" fill="#f2a672"/><path d="M66.12,116.25a1.65,1.65,0,0,0-.91-.33A4.63,4.63,0,0,1,60,113.14s-1.32-3.2-.58-3.59c0,0,.21,3.19,2.52,3.8A9.57,9.57,0,0,1,66.12,116.25Z" transform="translate(0 0)" fill="#f2a672"/><path d="M137.83,91.69a8.59,8.59,0,0,0-3.2-1.83h0s-4.75,5.71-14.67,5.8-15.21-5.47-15.21-5.47v.2l-.1-.14a7.06,7.06,0,0,0-2.23,1.46c-1.31,1.47-7,13.5-11.32,21.66h0A9.52,9.52,0,0,0,94,118.64h0a11.44,11.44,0,0,0,4.56,2.55,101.92,101.92,0,0,0,6.54-8.81l.22-.33.2.92,2,9.65A51.73,51.73,0,0,0,119.81,125c.49,0,1,.06,1.45.07h0c8.92.28,13.63-2.49,13.63-2.49s1-3.86,1.81-7.7a.21.21,0,0,1,0-.11c1.7,2.41,3.58,4.9,5.52,7.13a12.25,12.25,0,0,0,4.91-2.23,11.86,11.86,0,0,0,3.27-3.84c-4.34-7.91-11.21-22.53-12.66-24.16Z" transform="translate(0 0)" fill="#79c8cc"/><path d="M94.06,118.62h0a11.44,11.44,0,0,0,4.56,2.55,101.92,101.92,0,0,0,6.54-8.81C103.3,112.15,94.06,118.62,94.06,118.62Z" transform="translate(0 0)" fill="#63c1c6"/><path d="M136.77,114.75a87.22,87.22,0,0,0,5.54,7.17,12.25,12.25,0,0,0,4.91-2.23S138.82,114.69,136.77,114.75Z" transform="translate(0 0)" fill="#63c1c6"/><path d="M105.63,112.92l2,9.65A51.71,51.71,0,0,0,119.89,125c-6-1-12.61-9.69-14.3-12.07Z" transform="translate(0 0)" fill="#63c1c6"/><path d="M121.33,125.09c8.92.28,13.63-2.49,13.63-2.49s1-3.86,1.81-7.7v-.15S128.63,124.6,121.33,125.09Z" transform="translate(0 0)" fill="#63c1c6"/><path d="M140.13,152.39s-.18,6.65-2.62,7.44c-3.35,1.09-6-.65-8.75-.14s-5,1.22-10.59-.72c-3.7-1.3-7.17-2.41-9.08-3l-2.9-.8a18.55,18.55,0,0,0,6.15-10.69c5.66,5.11,9.53,8.29,9.53,8.29h0a2.82,2.82,0,0,0,1.2.56s3,1.17,8.07-.55c3.57-1.2,7.63-1.32,9-.41Z" transform="translate(0 0)" fill="#e9f3fe"/><path d="M221.92,162.77H20.21a.36.36,0,0,1-.35-.37h0V162a.36.36,0,0,1,.35-.37h201.7a.36.36,0,0,1,.35.37h0v.38a.37.37,0,0,1-.35.37Z" transform="translate(0 0)" fill="#2e3552"/><path d="M136.2,96.18a2.64,2.64,0,0,0-4.44-2.44,19.86,19.86,0,0,1-12.53,5.65c-11.57,1.06-2.64,5-.86,6.36s3.28,3.2,6.69,1.78,6.09-4.83,8.33-6c1.08-.56,2.27-2.86,2.81-5.29Z" transform="translate(0 0)" fill="#63c1c6"/></g></svg>