<svg id="Layer_1" data-name="Layer 1" xmlns="http://www.w3.org/2000/svg" viewBox="0 0 250.53 223.1"><g opacity="0.3"><path d="M237.59,190.78c-28,59.87-199.91,22.51-218.34-.39-7.16-8.89-37.35-50.63-3.53-97.92A112.78,112.78,0,0,1,26.17,79.74l1.4-1.43c.42-.41.85-.81,1.26-1.22a33,33,0,0,1,13.38-8.46c.51-.18,2-.48,2-.48s2-.39,2.41-.5c4.83-1.12,5.81.45,9.13,2.7,10.87,7.34,42.46.9,69.29-41.83a56.12,56.12,0,0,1,16.32-16.77l.11-.07a60,60,0,0,1,5.39-3.23C159.29,1.83,174.22-.79,189.29.2a97.84,97.84,0,0,1,25,5c1.85.63,3.69,1.31,5.49,2.06v88.9h10.77v.08l-.09.35c-.2.84-.37,1.67-.53,2.47a.72.72,0,0,1-.07.38c-.07.36-.13.71-.19,1-.19,1.16-.34,2.29-.45,3.38C225.67,139.06,265.64,130.91,237.59,190.78Z" transform="translate(0 0)" fill="#fcecdb" opacity="0.3" style="isolation:isolate"/><path d="M229.45,183.84H26.36a.32.32,0,0,1-.27-.33v-.12a.3.3,0,0,1,.27-.34H229.45a.32.32,0,0,1,.26.34v.12A.32.32,0,0,1,229.45,183.84Z" transform="translate(0 0)" fill="#2e3552"/><path d="M219.79,7.28V96.16h-78.3V11.68a60,60,0,0,1,5.39-3.23C159.29,1.83,174.29-.79,189.29.2a97.84,97.84,0,0,1,25,5C216.17,5.85,218,6.53,219.79,7.28Z" transform="translate(0 0)" fill="#f8fbff" opacity="0.5" style="isolation:isolate"/><path d="M233.17,82.06c-7.39-2.43,24.16-16.63,16-20.8-10.35-5.28-16.32-7.32-17.72-18.78-.61-5-5.46-6.9-11.67-8.46-1.74-.44-3.6-.85-5.49-1.3-6.79-1.6-14.12-3.65-19.06-9-7.23-7.85-7-17.59-6-23.52a97.84,97.84,0,0,1,25,5c1.85.63,3.69,1.31,5.49,2.06,1.56.64,3.11,1.32,4.63,2,1.32.63,2.62,1.28,3.91,2,15.61,8.34-6,21.12.56,37.73a66.08,66.08,0,0,1,4.23,16.9A74.08,74.08,0,0,1,233.17,82.06Z" transform="translate(0 0)" fill="#86d1cd" opacity="0.5" style="isolation:isolate"/><polygon points="219.79 80.91 219.79 96.15 141.49 96.15 141.49 45.58 151.15 45.58 151.15 60.95 162.16 60.95 162.16 35.9 174.32 35.9 174.32 52.16 177.09 52.16 177.09 32.75 189.24 32.75 189.24 69.14 204.61 69.14 204.61 90.36 210.35 90.36 210.35 80.91 219.79 80.91" fill="#e7f1fb"/><path d="M230.55,96.23l-.09.35c-.2.84-.37,1.67-.53,2.47a.72.72,0,0,1-.07.38c-.07.36-.13.71-.19,1-.19,1.16-.34,2.29-.45,3.38h-102V96.16H229.48A7.59,7.59,0,0,1,230.55,96.23Z" transform="translate(0 0)" fill="#f9ddbf"/><path d="M141.49,11.68a60,60,0,0,1,5.39-3.23V96.59h-5.5V11.75Z" transform="translate(0 0)" fill="#f9ddbf"/><path d="M219.79,7.28V96.59h-5.5V5.22C216.17,5.85,218,6.53,219.79,7.28Z" transform="translate(0 0)" fill="#f9ddbf"/><path d="M138.29,62.93H137c-14.16-.41-29.07-9.72-43.37,4q-.63.6-1.26,1.23c-.47.46-.94.94-1.4,1.42v14h48.68V63Z" transform="translate(0 0)" fill="#f9ddbf"/><path d="M137,62.88c-14.16-.41-29.07-9.72-43.37,4l-1.26,1.23V81.77h45.91V63H137Z" transform="translate(0 0)" fill="#ffead7"/><path d="M137,62.88V80.16H93.64V66.84c14.3-13.68,29.21-4.37,43.37-4Z" transform="translate(0 0)" fill="#fcecdb"/><path d="M164.94,136.85c-.55,1.26-5.88,2.44-13.79,3.47-1.39.19-2.86.36-4.4.54-26.91,3-100.6,4.74-105.14,3.84-6.32-1.24-18.77-61.81-18.77-61.81s36.78-.62,66-.91c10-.11,44.75-.36,51.19-.36,10,0,25.83,53.19,24.93,55.23Z" transform="translate(0 0)" fill="#efcbab"/><path d="M221.76,164.32c-1.88,11.32-14.17,18.54-26.78,18.54H170l2-66s23.83-7.19,29.81-.35c5.25,6,19.47,29.72,20.21,43.76a18,18,0,0,1-.22,4.08Z" transform="translate(0 0)" fill="#f9ddbf"/><path d="M221.76,164.32c-1.88,11.32-14.17,18.54-26.78,18.54H182.73c8.17-5.21,15.55-21.25,39-18.54Z" transform="translate(0 0)" fill="#eac3a0"/><path d="M155.46,123.82s33.69-16.17,40.08-5.6c3.38,5.61,12.71,28,13.4,42,.67,13.65-11.9,22.62-24.84,22.62H161.17l-5.67-59Z" transform="translate(0 0)" fill="#c6916d"/><path d="M165.38,49.91s5.69,5.32,0,10.87c0,0,4.51.65,6.1-.53a4,4,0,0,1-.63.86s5.05.41,7.22-1.07,2-27.42-12.17-25.17c0,0-11.86-1.45-11.38,12.37s-4,13.61-4,13.61a6.08,6.08,0,0,0,1.83.7s.89-.29,1.09-.77a3,3,0,0,1-.45,1s4.83.68,7.34-1S166,52.84,165.41,50Z" transform="translate(0 0)" fill="#233862"/><path d="M117.29,80.91a18,18,0,0,0-2.06-1.15c-.22,0-.57.83,1.27,1.68,1.35.62.81-.53.81-.53Z" transform="translate(0 0)" fill="#ffb27d"/><path d="M154.69,68.3s-10,13.7-12.61,14.62-20.79,1.63-20.79,1.63l1.85,3.21s15.77,3.68,20.21,2.41S161,76.38,161.93,74.71,159.15,67.71,154.69,68.3Z" transform="translate(0 0)" fill="#ed985f"/><path d="M142.82,86a45.09,45.09,0,0,0-3.23-4.3c-.4-.18-3.15-.8-3.15-.8s.74,2,1.45,2.23a1.33,1.33,0,0,1,.87.59s.43,1.38.26,1.26c-.38-.27-1.16-1.58-1.19-1a27.29,27.29,0,0,0,.9,2.78c.29,1.12,3.18,1.88,3.18,1.88l.91-2.62Z" transform="translate(0 0)" fill="#ffb27d"/><path d="M115.5,67.71l18,.52a1.13,1.13,0,0,1,1.09.89l4.1,17.59a1.15,1.15,0,0,1-.84,1.38h0a1.21,1.21,0,0,1-.38,0l-17.75-1.67a1.15,1.15,0,0,1-1-.86l-4.37-16.43a1.15,1.15,0,0,1,.81-1.41A1,1,0,0,1,115.5,67.71Z" transform="translate(0 0)" fill="#9e332e"/><path d="M113.93,67.66l18,.52a1.15,1.15,0,0,1,1.1.89l4.14,17.59a1.15,1.15,0,0,1-.85,1.39h0a1.21,1.21,0,0,1-.38,0L118.17,86.4a1.19,1.19,0,0,1-1-.86l-4.4-16.38a1.16,1.16,0,0,1,.82-1.42h.34Z" transform="translate(0 0)" fill="#b5453c"/><path d="M122.73,76.8a.75.75,0,0,1,.83-1,1.71,1.71,0,0,1,1.33,1.28.74.74,0,0,1-.3,1h0a.86.86,0,0,1-.45,0A1.73,1.73,0,0,1,122.73,76.8Z" transform="translate(0 0)" fill="#9e332e"/><path d="M114.29,69.31c-.07-.31.11-.52.41-.48a.85.85,0,0,1,.65.63c.06.3-.12.52-.41.48A.82.82,0,0,1,114.29,69.31Z" transform="translate(0 0)" fill="#9e332e"/><path d="M109.54,107.43c-7,2.7-29.5,12-42.68,14-4.25.66-1.89,5.1-1.85,5.13.87.62,28.15,1.36,44.07-4.55,5.15-1.91,11.58-3.71,11.08-8.52-.31-3-6.71-7.61-10.62-6.1Z" transform="translate(0 0)" fill="#dd6d22"/><path d="M179.41,129.4c-3,5.79-9.87,9.84-16,7.51-52.24-19.92-60.56-13.45-54.84-21.62,7.34-10.47,55.72-4.42,59.84-3.07C172.1,113.43,185.83,117.22,179.41,129.4Z" transform="translate(0 0)" fill="#dd6d22"/><path d="M154.35,74.89A18.8,18.8,0,0,0,160.72,78c9.92,2.77,14.15-5.52,15.86-11.27a8.54,8.54,0,0,0-3.35-1.2c-.72-.12-1.48-.21-2.11-.27-1.08-.91-2.6-4.52-2.72-10l-.47.1-8,1.8s.24,2.53.31,4.91c0,1.86,0,3.64-.38,4.06l-1,.17h0a50.61,50.61,0,0,0-4.51,8.63Z" transform="translate(0 0)" fill="#ffb27d"/><path d="M159.93,57.16s.24,2.53.31,4.91c4.5-.24,6.77-4.41,7.69-6.71Z" transform="translate(0 0)" fill="#ed985f"/><path d="M158.48,59.41s10.65-.1,10.49-6.73,1.1-11.11-5.71-11.33-8.06,2.35-8.54,4.57S155.72,59.26,158.48,59.41Z" transform="translate(0 0)" fill="#ffb27d"/><path d="M154.94,42.23c1.59-2,2.85-1.63,3.56-1a7.45,7.45,0,0,1,9.61,1.28,12.61,12.61,0,0,0,4.33,7.38s-1.91,1.25-6.41.21a7.56,7.56,0,0,1-3.69-2.4,25.61,25.61,0,0,0,4.41,5.11c-5.41-2.34-7.74-9.71-8-10.49a8.38,8.38,0,0,0-2.24,3.15c-.49,1.7-2.37,4.31-3.39,4.22,0,0-.59-4.36,1.8-7.41Z" transform="translate(0 0)" fill="#233862"/><path d="M184.43,97c-.59-5.22-1.66-22.31-4.5-28.76-1-2.31-4.78-4.12-9.63-4.14-1.55.9-7.45,4.31-9.79,3.74h-.13c-1.09-.33-1.47-1.12-.52-1.75a17.85,17.85,0,0,0-3.86.3c-1.7.24-6.71,4.22-6.71,4.22s1.68,4.3,5,5.88c-.8,5.09-.45,4.08,2.4,16.74.88,3.91-1.74,12-1.74,12s20.58,31.65,27.29,23.16c4.08-5.16,2.92-25,2.21-31.38Z" transform="translate(0 0)" fill="#b5453c"/><path d="M156.67,55.51a9.92,9.92,0,0,1,3.84,0s-.2,1.1-2.29,1.11a1.67,1.67,0,0,1-1.55-1.12Z" transform="translate(0 0)" fill="#fff"/><path d="M176.58,135.16A14.7,14.7,0,0,1,159,133.43c-14.07-12.85-45.14-42.58-36-46.66,11.66-5.23,50.12,24.73,53,28,2.56,2.93,12.42,13.19.66,20.39Z" transform="translate(0 0)" fill="#f99746"/><path d="M80.91,134.3l16-.17a6.33,6.33,0,0,0-.4-4.09c-.87-1.47-.52-2.3.15-3.51a5.85,5.85,0,0,1-2.58.46,5.36,5.36,0,0,1-2.21-.83,55.1,55.1,0,0,1-4.39,4.52c-1,.7-6.24.72-6.57,3.6Z" transform="translate(0 0)" fill="#b5453c"/><path d="M120.83,88.81c-4.08,6.3-20,27.15-29.44,36.55-3,3,5.48,5,5.52,5,1.08,0,10-6.44,10.83-7.06,11-7.81,21.54-12.42,22.69-18.65,1-5.44,5.8-13.59,2.57-17.2-2-2.21-9.9-2.2-12.17,1.32Z" transform="translate(0 0)" fill="#f99746"/><path d="M171.87,70.59S161.54,89.38,160,90s-18.42-4.37-18.42-4.37l-.12,2.73s14.31,10.08,21.7,9.34c2.93-.3,16-16.54,15.24-19.85s-6.48-7.23-6.48-7.23Z" transform="translate(0 0)" fill="#ffb27d"/><path d="M166.29,77.48s4.73,5,11.46,3.35c0,0,5.62-9.56-2.57-14.1C175.21,66.73,170.67,66.41,166.29,77.48Z" transform="translate(0 0)" fill="#b5453c"/><path d="M116,81.16s-1.71-.24-.74,2.17c.68,1.7,3.16,2.16,3.35,1.64C118.9,84.24,119,83.15,116,81.16Z" transform="translate(0 0)" fill="#ffb27d"/><path d="M192.09,173.76l-1,.73a49.31,49.31,0,0,1-16.7,6.79,72,72,0,0,1-16.1,1.65H74.4l-.93-4.45-9.3-44.38s118.16-3.74,127.71,1.25c4.43,2.31,6.91,12.78,8.31,23.33.74,5.62-2.41,10.9-8.13,15.08Z" transform="translate(0 0)" fill="#e2b796"/><path d="M192.09,173.76l-1,.73a49.31,49.31,0,0,1-16.7,6.79,72,72,0,0,1-16.1,1.65H74.4l-.93-4.45c16.41-2.9,39.13-5.84,62.82-5.61,22.63.22,41.57.19,55.8.88Z" transform="translate(0 0)" fill="#d3a281"/><path d="M88.76,166.37A19.19,19.19,0,0,1,70,182.87H52.41l1.38-60.71s16.77-6.61,21-.32c3.69,5.51,13.7,27.32,14.23,40.22a22,22,0,0,1-.24,4.29Z" transform="translate(0 0)" fill="#f9ddbf"/><path d="M88.76,166.37A19.19,19.19,0,0,1,70,182.87H55.92C62.51,177.87,71.37,163.87,88.76,166.37Z" transform="translate(0 0)" fill="#eac3a0"/><path d="M61.51,182.82a2.54,2.54,0,0,1-.39,0H41.41l-5.46.07H30.41a25.39,25.39,0,0,1-4.35-.38A17.8,17.8,0,0,1,21.22,181a15.93,15.93,0,0,1-3.45-2.35,19,19,0,0,1-4-5.38,32,32,0,0,1-2.11-5.06,54.94,54.94,0,0,1-1.85-8.32,123.58,123.58,0,0,1-1.18-15.73V136.5c.06-4.3.24-8.94.51-14,.39-7,1-14.8,1.76-23.34.71-7.76,1.53-13.16,2.72-14.45,1.77-1.84,5.44-2.58,8-2.87h0c1.58-.18,2.73-.2,2.73-.2,3.13,0,5.9,2.53,6.9,6.29,2,7.66,5.69,21.35,9.48,35.67v.22l.66,2.47a1.26,1.26,0,0,0,.1.38l.66-.33h0c.9-.45,1.93-1,3-1.46h0l1.79-.79c1.73-.75,3.61-1.5,5.51-2.13.84-.29,1.69-.56,2.53-.79,1.08-.3,2.16-.56,3.2-.75h.09l.37-.06c4.52-.75,8.43-.23,10,3,2.6,5.17,9.73,25.8,10.26,38.74.49,11.94-8.15,20-17.5,20.78Z" transform="translate(0 0)" fill="#d39e7a"/><path d="M33.29,129.08s-9-41.51-9.67-45a2.45,2.45,0,0,0-2.08-2.26c1.58-.18,2.74-.2,2.74-.2,3.12,0,5.89,2.52,6.89,6.27,2.19,8.18,6.21,23.27,10.29,38.63C41.29,126.52,33.29,129.08,33.29,129.08Z" transform="translate(0 0)" fill="#f9ddbf"/><path d="M40.45,146.26s5.89-6.87.37-11.24c0,0-4-2.45-7.34-2.25,0,0,4.67,7.83,3.16,8.61s-4.57-9.1-4.57-9.1-9.19-.89-12.15.53c0,0,7.86,6.43,6.2,6.81S16,133.7,16,133.7s-8.55,1.46-8.09,6.67,3.4,6.83,4.69,6.69,8.88-3,9-2-4.39,4.53-7.59,4.69c0,0,6,6.65,10,4.74s4.35-5,6.85-6.11,4.63-1.14,3.6,0-5.55,2.29-7,4.82-2.71,4.23,1.43,3.61,10.89-3.66,11.19-7.14l.29-3.47Z" transform="translate(0 0)" fill="#599dad"/><path d="M12.09,140.51s23.23-.89,28.36,5.75a16.84,16.84,0,0,0,4.63,6.49l.54,1.49s-4-4.25-5.46-4.51c0,0,2.25-8.23-28.07-9.22Z" transform="translate(0 0)" fill="#599dad"/><path d="M45.08,152.75A14.61,14.61,0,0,1,50.41,163l-.9.08s-1.6-6.81-4.47-9.48,0-.88,0-.88Z" transform="translate(0 0)" fill="#599dad"/><path d="M56.8,153.31s-2.9-1.63-1.55-3.84a5.8,5.8,0,0,1,2.25-1.7s-.62,3.29,0,3.37.43-3.72.43-3.72,3.06-1.48,4.26-1.36c0,0-1.9,3.22-1.28,3.14s2.75-3.33,2.75-3.33,3.14-.58,3.65,1.28-.31,2.79-.78,2.9-3.45.08-3.37.47,2.09,1,3.22.66c0,0-1.24,3.06-2.87,2.9s-2.13-1.16-3.14-1.24-1.74.2-1.24.47,2.21.09,3,.78,1.48,1.12,0,1.43-4.22.12-4.76-1.05l-.55-1.16Z" transform="translate(0 0)" fill="#86d1cd"/><path d="M65.87,147.73s-8.14,2.63-9.07,5.58a6.24,6.24,0,0,1-.77,2.83v.58a8.64,8.64,0,0,1,1.32-2.25S55.52,151.91,65.87,147.73Z" transform="translate(0 0)" fill="#6bb7bf"/><path d="M56,156.16a5.36,5.36,0,0,0-.54,4.23l.32-.09a8.76,8.76,0,0,1,.34-3.84C56.81,155.17,56,156.16,56,156.16Z" transform="translate(0 0)" fill="#6bb7bf"/><path d="M49.87,147.07s4.42-2.49,2.42-5.86a8.77,8.77,0,0,0-3.44-2.61s1,5,0,5.15-.65-5.68-.65-5.68-4.68-2.25-6.51-2.08c0,0,2.9,4.92,2,4.8s-4.2-5.09-4.2-5.09-4.8-.89-5.57,2,.47,4.27,1.18,4.44,5.27.12,5.16.71-3.2,1.54-4.92,1c0,0,1.89,4.68,4.38,4.44s3.26-1.77,4.8-1.89,2.67.29,1.9.71-3.38.14-4.62,1.19-2.26,1.71,0,2.19,6.46.17,7.29-1.6l.83-1.78Z" transform="translate(0 0)" fill="#86d1cd"/><path d="M36,138.54s12.44,4,13.86,8.53a9.47,9.47,0,0,0,1.18,4.32v.89s-1.3-3-2-3.43c0,0,2.78-3.91-13-10.31Z" transform="translate(0 0)" fill="#6bb7bf"/><path d="M51.05,151.39a8.26,8.26,0,0,1,.83,6.46l-.5-.13s.48-3.91-.52-5.87S51.05,151.39,51.05,151.39Z" transform="translate(0 0)" fill="#6bb7bf"/><path d="M22.36,157.55a24.2,24.2,0,0,0,48.4,0H22.36Z" transform="translate(0 0)" fill="#ed7d2b"/><path d="M38.29,157.55c0,9.07,2.17,18.3,9.55,22.45,1.23.69,5.34-.06,6.68.41a24.2,24.2,0,0,0,16.24-22.86Z" transform="translate(0 0)" fill="#f99746"/><path d="M46.17,181.75a24,24,0,0,1-2.94,0,24.19,24.19,0,0,0,24.2-24.18h-6c0,12.35-3.29,22.72-15.24,24.2Z" transform="translate(0 0)" fill="#ffb176"/><path d="M36.29,183H71.1c0-1.66-1-3-2.13-3H38.37c-1.18,0-2.13,1.34-2.13,3Z" transform="translate(0 0)" fill="#ed7d2b"/><path d="M28.12,183H46.64c0-1.66-1-3-2.13-3H30.29c-1.18,0-2.13,1.34-2.13,3Z" transform="translate(0 0)" fill="#f99746"/><polygon points="21.55 158.29 71.3 158.29 71.3 157.55 21.55 157.55 21.55 158.29 21.55 158.29" fill="#db6a1f"/><path d="M197.49,144.69l-2,7.41h0L187.34,183h-.86l4.72-25.61v-.08l2.33-12.67,3.92.07Z" transform="translate(0 0)" fill="#c65447"/><path d="M197.49,144.69l-2,7.41h0c-.11.05-3.67,1.9-4.28,5.18l2.33-12.67,3.92.07Z" transform="translate(0 0)" fill="#9e332e"/><path d="M236,183h-.82l-6.65-25.15h0L227,152.18h0l-2-7.41,3.91-.07,1.34,7.24,1,5.43v.08L235.94,183Z" transform="translate(0 0)" fill="#c65447"/><path d="M230.29,151.86a10.84,10.84,0,0,0-1.78,6l-1.51-5.7h0l-2-7.41,3.91-.07,1.34,7.24Z" transform="translate(0 0)" fill="#9e332e"/><path d="M242.22,145.35H178.05a1.58,1.58,0,0,1-1.58-1.58h0v-4.61a1.58,1.58,0,0,1,1.58-1.58h64.17a1.58,1.58,0,0,1,1.57,1.58v4.59a1.58,1.58,0,0,1-1.57,1.58Z" transform="translate(0 0)" fill="#c65447"/><path d="M209.79,87.84c3.93-.84,4-4.06,4-4.06C209.15,85.24,209.79,87.84,209.79,87.84Z" transform="translate(0 0)" fill="#6bb7bf"/><path d="M209.52,87.16a3.56,3.56,0,0,1-4.23-1.51S208.17,85.16,209.52,87.16Z" transform="translate(0 0)" fill="#6bb7bf"/><path d="M214.9,135.66l.51.58a.13.13,0,0,0,.18,0,.17.17,0,0,0,0-.1,212.25,212.25,0,0,0-3.9-40A127.2,127.2,0,0,0,207.83,81h0c0,.06,1.78,5.75,3.71,15.21,1.77,8.7,3.79,20.08,3.28,39.2a.4.4,0,0,0,.08.23Z" transform="translate(0 0)" fill="#6bb7bf"/><path d="M207.86,78.76c.63.51,3,2.66.7,4.32,0,0-1.78.56-2.38-.82a8.73,8.73,0,0,1-.6-2.71.24.24,0,0,1,.21-.26,1.79,1.79,0,0,0,.51-.11c.22-.09.33-.42.63-.49a1.73,1.73,0,0,1,.6-.07A.58.58,0,0,1,207.86,78.76Z" transform="translate(0 0)" fill="#f99746"/><path d="M209.17,82.48a1.45,1.45,0,0,0-.45,1.48v.34a1.59,1.59,0,0,0-1.07-1.11,1.89,1.89,0,0,0,1.51-.71Z" transform="translate(0 0)" fill="#6bb7bf"/><path d="M209.79,87.84c3.93-.84,4-4.06,4-4.06S210.67,85.49,209.79,87.84Z" transform="translate(0 0)" fill="#8ad8db"/><path d="M213.57,85.64a3.54,3.54,0,0,0,4.17-1.59S214.9,83.62,213.57,85.64Z" transform="translate(0 0)" fill="#6bb7bf"/><path d="M209.17,134.28l-.5.6a.14.14,0,0,1-.17,0,.11.11,0,0,1-.05-.12,211.69,211.69,0,0,1,3.1-40.06,128.41,128.41,0,0,1,3.6-15.22h0s-1.67,5.78-3.4,15.28c-1.6,8.73-3.39,20.15-2.5,39.26a.3.3,0,0,1-.08.22Z" transform="translate(0 0)" fill="#6bb7bf"/><path d="M215.05,77.26c-.62.52-3,2.71-.61,4.33,0,0,1.8.53,2.36-.86a8.79,8.79,0,0,0,.55-2.73.24.24,0,0,0-.22-.25,2.3,2.3,0,0,1-.51-.1c-.22-.09-.34-.42-.64-.49a2,2,0,0,0-.6,0,.67.67,0,0,0-.33.15Z" transform="translate(0 0)" fill="#f99746"/><path d="M213.79,81a1.45,1.45,0,0,1,.48,1.47v.34a1.58,1.58,0,0,1,1-1.13,1.89,1.89,0,0,1-1.52-.68Z" transform="translate(0 0)" fill="#6bb7bf"/><path d="M212.52,82.73a3.56,3.56,0,0,1-3.77-2.38S211.62,80.5,212.52,82.73Z" transform="translate(0 0)" fill="#6bb7bf"/><path d="M207.17,131.29l.37.68a.12.12,0,0,0,.15.08h0a.12.12,0,0,0,.07-.07,212.44,212.44,0,0,0,4.91-39.88,127.37,127.37,0,0,0-.51-15.63h0s.49,6,.3,15.65c-.17,8.88-.67,20.42-5.34,39a.33.33,0,0,0,0,.24Z" transform="translate(0 0)" fill="#6bb7bf"/><path d="M212.73,74.23c.5.63,2.38,3.25-.26,4.36,0,0-1.87.16-2.15-1.31a9.32,9.32,0,0,1,0-2.79.24.24,0,0,1,.27-.19,2.26,2.26,0,0,0,.52,0c.23,0,.42-.34.72-.35a1.73,1.73,0,0,1,.6.07.63.63,0,0,1,.3.21Z" transform="translate(0 0)" fill="#f99746"/><path d="M213.22,78.16a1.46,1.46,0,0,0-.76,1.35l-.07.33a1.58,1.58,0,0,0-.79-1.31A1.86,1.86,0,0,0,213.22,78.16Z" transform="translate(0 0)" fill="#6bb7bf"/><path d="M210.36,79.82a3,3,0,0,0-1.78-2.72S208.18,78.83,210.36,79.82Z" transform="translate(0 0)" fill="#6bb7bf"/><path d="M214.55,76.5a2.11,2.11,0,0,1,1.41-2A1.76,1.76,0,0,1,214.55,76.5Z" transform="translate(0 0)" fill="#ed9f4a"/><path d="M209.76,86a2.27,2.27,0,0,1,.68-2.81A2.72,2.72,0,0,1,209.76,86Z" transform="translate(0 0)" fill="#ed9f4a"/><path d="M208.75,85.88A.87.87,0,0,0,208,85S207.88,85.64,208.75,85.88Z" transform="translate(0 0)" fill="#6bb7bf"/><path d="M216.22,83.16a2.46,2.46,0,0,1,2.66-1.08S218.57,83.48,216.22,83.16Z" transform="translate(0 0)" fill="#6bb7bf"/><path d="M205,137.6h13a1.43,1.43,0,0,0,1.43-1.43V136l-6-41.64a.79.79,0,0,0-.78-.67h-2a.84.84,0,0,0-.83.72L203.65,136a1.41,1.41,0,0,0,1.18,1.59h.2Z" transform="translate(0 0)" fill="#f99746"/><path d="M215.17,136.34,212,93.66a.77.77,0,0,1,.68.66l6,41.64a1.42,1.42,0,0,1-1.19,1.62h-2.82a1.5,1.5,0,0,0,.5-1.26Z" transform="translate(0 0)" fill="#ffb278"/><path d="M182.38,129.62a1.19,1.19,0,0,1,.69-1.27,2,2,0,0,1,.68-.19,2.42,2.42,0,0,1,1.85.71,5.07,5.07,0,0,0-.57,2.32,5.16,5.16,0,0,0,.2,1.41c-.93-.52-2.54-1.74-2.85-3Zm18.9-2.35a6.57,6.57,0,0,1-3.64,1.48,5.55,5.55,0,0,0-1.49-1.74l.32-1.32h-9.6l.31,1.36a5.82,5.82,0,0,0-1.07,1.09,3.8,3.8,0,0,0-2.53-.85,2.07,2.07,0,0,0-1.93,2.2,2.36,2.36,0,0,0,.08.45,4.77,4.77,0,0,0,2.16,2.38,6.58,6.58,0,0,0,1.52.77,6.06,6.06,0,0,0,3.24,3.21l-.22.88a.34.34,0,0,0,.25.41h6a.32.32,0,0,0,.32-.32h0v-.11l-.3-.86a5.83,5.83,0,0,0,3.56-4.45V132c1.26-.06,3.29-3.21,3.92-4.23h0c.12-.19.18-.31.18-.31-.25-.33-1.11-.13-1.11-.13Z" transform="translate(0 0)" fill="#86d1cd"/><path d="M190.5,131c0-2.14,2.47-4,2.47-4l-1-.07a5.17,5.17,0,0,1-3-1.28h-2.11l.31,1.36a5.94,5.94,0,0,0-1.25,1.35c-.66-.2-2.19-.59-2.84,0h0a2,2,0,0,1,.68-.19,2.42,2.42,0,0,1,1.85.71,5.07,5.07,0,0,0-.57,2.32,5.66,5.66,0,0,0,3.6,5.07l-.22.88a.34.34,0,0,0,.25.41h4.39l.32-1.24c-1.42-.35-2.84-3.16-2.87-5.3Z" transform="translate(0 0)" fill="#599dad"/><path d="M223.89,135c-.19-.5-.06-.68.16-.72a.84.84,0,0,1,.77.41,3.2,3.2,0,0,0,.25,1c-.34-.08-1-.3-1.18-.69Zm7-2.08h-6v1a2.05,2.05,0,0,0-1.25,0c-.48.3-.33,1.17.12,1.7a4.77,4.77,0,0,0,1.89.89,3,3,0,0,0,1.8,1,2,2,0,0,0,.49,0,3,3,0,0,0,3-3V133Z" transform="translate(0 0)" fill="#86d1cd"/><path d="M230.29,132.88h-.82a2.41,2.41,0,0,1,0,.38v1.18a3.06,3.06,0,0,1-2.64,3h.46a3.07,3.07,0,0,0,3-3.05v-1.13A2.41,2.41,0,0,0,230.29,132.88Z" transform="translate(0 0)" fill="#9ae2dd"/><polygon points="226.4 137.6 229.17 137.6 229 137.23 226.52 137.13 226.4 137.6 226.4 137.6" fill="#86d1cd"/><path d="M223.89,135c-.19-.5-.06-.68.16-.72a.84.84,0,0,1,.77.41,3.2,3.2,0,0,0,.25,1c-.34-.08-1-.3-1.18-.69Zm3.52,2.21c-1.82-2.12-1.43-3.15-1.1-4.29h-1.47v1a2.05,2.05,0,0,0-1.25,0c-.48.3-.33,1.17.12,1.7a4.77,4.77,0,0,0,1.89.89,3.1,3.1,0,0,0,.93.72l-.11.43h.94v-.15h0v-.28Z" transform="translate(0 0)" fill="#599dad"/></g></svg>