<svg id="Layer_1" data-name="Layer 1" xmlns="http://www.w3.org/2000/svg" xmlns:xlink="http://www.w3.org/1999/xlink" viewBox="0 0 233.26 229.73"><defs><clipPath id="clip-path"><path d="M112.52,79.81c-.42-.29-.81-.6-1.19-.92-.79-3.27-5.08-6.56-6.37-9.14h0v-.17a26.92,26.92,0,0,0,8.32,8c-.23.77-.48,1.51-.74,2.21M126,79.25c-.23-.61-.44-1.24-.62-1.86a26.4,26.4,0,0,0,8.87-9.26A25.46,25.46,0,0,1,126,79.25" fill="none"/></clipPath><clipPath id="clip-path-2" transform="translate(0 -0.01)"><path d="M123.09,84.2s15.22-6.57,18.13-19.44-8.15-27.06-8.15-27.06S87.36,76.87,97.31,85c5.15,4.2,25.75,2.36,25.75,2.36V84.2" fill="none" clip-path="url(#clip-path)"/></clipPath><clipPath id="clip-path-3" transform="translate(0 -0.01)"><path d="M105.49,147.51s-10,15.24-10.51,17.6c0,0-33.89,1.84-41.77,5.26S42.44,184,49.31,189.28s52.28,7.1,64.89,2.63c0,0,65.15,8.67,76.18-3.94s-20-25-46.23-23.64c0,0-9.2-18.13-14.19-20.49s-24.43,3.67-24.43,3.67" fill="none"/></clipPath><clipPath id="clip-path-4" transform="translate(0 -0.01)"><path d="M94.11,96.08c0,.52-1.12,4.26-2.24,14s-6.81,23.2-6.73,24.78-3.54,3-6.38,9.76-8.94,11.51-10.45,12.89a18.81,18.81,0,0,0-6.6-.48c-3.4.42-6.59-.48-7.17-1.5,0,0-1.51,1.38-.14,2.63s4.48.06,5.34,1.59-1.13,4-3,3.3A4.4,4.4,0,0,1,54,160.29c-.3-.78.86-4-1.54-4.66,0,0-.71,4.37-.4,5.41,0,0-3.32-3.53-5.09-1.87,0,0,3.29,2.74,3.59,3.51,0,0-2.69-1.19-3.4.43a18.13,18.13,0,0,0,3.5,1.67,3.6,3.6,0,0,1,2.42,1.2s-2.91-.39-3.1,1.2a15.74,15.74,0,0,1,4.22.33c1.34.46,6.35.76,8.14-.38s26.4-14.65,31.86-27.26c0,0,6.58-22.4,6.6-27.67L94.11,96.08" fill="none"/></clipPath><clipPath id="clip-path-5" transform="translate(0 -0.01)"><path d="M146.47,97.07a115.9,115.9,0,0,1,1.7,11.87c1.05,9.79,6.63,23.25,6.55,24.82s3.51,3.09,6.31,9.82,8.84,11.52,10.35,12.92a18.8,18.8,0,0,1,6.6-.43c3.39.45,6.6-.43,7.18-1.45,0,0,1.5,1.39.12,2.63s-4.47,0-5.35,1.56,1.1,4,3,3.31a4.4,4.4,0,0,0,2.78-2.74c.31-.77-.84-4,1.57-4.65,0,0,.68,4.38.36,5.41,0,0,3.35-3.5,5.1-1.83,0,0-3.3,2.72-3.61,3.49,0,0,2.7-1.17,3.4.45A19,19,0,0,1,189,163.9a3.55,3.55,0,0,0-2.43,1.18s2.91-.36,3.09,1.22a15.8,15.8,0,0,0-4.23.3c-1.34.45-6.35.71-8.13-.44s-26.3-14.84-31.66-27.5c0,0-6.42-22.44-6.4-27.7l7.23-13.89" fill="none"/></clipPath><clipPath id="clip-path-6" transform="translate(0 -0.01)"><path d="M105,148.56l-5-35.73L93.71,98.1s-1.22-3.74,12.82-10.49,39.14,1.32,40.06,10.3c1,9.9-6.17,13.09-6.17,13.09l-5.52,37.56s-12.87,6.57-29.95,0" fill="none"/></clipPath><clipPath id="clip-path-7" transform="translate(0 -0.01)"><path d="M108,87.58c-.43,1.31,7.4-8.13,6.66-21.77h8.87s0,17,9,22.28c0,0-14.13,13.11-24.52-.51" fill="none"/></clipPath><clipPath id="clip-path-8" transform="translate(0 -0.01)"><path d="M95.2,95c.31,0,44,16.09,52.22,7.77,0,0,1.65,13.33,3.52,18.47,2.1,5.78,4.2,12.35,4.2,12.61,0,0-2.89-.52-11.82,8.41-12.08,12.07-38.25,1.11-54.2-20.07,0,0,1.83-27.42,6.08-27.19" fill="none"/></clipPath><clipPath id="clip-path-9" transform="translate(0 -0.01)"><path d="M136.42,60.06c0,10.87-12.15,19.67-17.27,19.67s-17.27-8.8-17.27-19.67,7.41-24.46,17-24.46,17.59,13.6,17.59,24.46" fill="none"/></clipPath><clipPath id="clip-path-10" transform="translate(0 -0.01)"><path d="M118.89,41.87s-8.94,5.81-13.14,19c0,0-2.36,5.78-.79,8.93s7.62,7.36,6.31,11.3a15,15,0,0,1-5.78,11.56s5.78-2.37,10.77,6.83c0,0,10.51-5.52,18.13,4.2,0,0,5.51-6.31,11,1.84,0,0,5-3.42,7.62,3.15,0,0,3.94-3.15,2.63,5.52,0,0,4.46,3.68-1,7.09,0,0,.78,1.84-2.37,3.68l-1.58-4.47a3.83,3.83,0,0,1,2.63-.78s-1.57-3.68,1-5.52a5.7,5.7,0,0,1-4.2-5.52s-4.73,3.15-7.88-2.36c0,0-7.62,6.3-13.66-2.1,0,0-12.09,8.14-17.61-2.63,0,0-15,6.83-15.76-6.57,0,0-7.88-10.77,2.1-17.08,0,0-9.16-12.12-3.67-22.85,5.78-11.3,11.29-28.11,23.9-21,0,0,22.07-9.72,18.92,26.53,0,0-11-8.4-17.6-18.65" fill="none"/></clipPath></defs><g opacity="0.3"><path d="M25.31,15S-14.11-6.19,5.45,62.68-9.42,135.87,16.8,180.08s-14,40.3,71.64,45.39,151,14.87,144.36-36-48.49-21.2-31.69-85.34S232.8-10.87,170.19,2,145.68,53.69,25.31,15Z" transform="translate(0 -0.01)" fill="#94d2df" opacity="0.3" style="isolation:isolate"/><path d="M118.61,43.68C111.22,42.91,104,45,97.37,48.14A80,80,0,0,0,80.68,59.08C71.13,67.14,63.14,77.6,59.46,89.65a47.18,47.18,0,0,0,3.68,36c6.15,11.7,16.21,21,27.5,27.7a91.32,91.32,0,0,0,40.79,12.48c13.13.79,27.16-1.31,38.17-8.93,10.05-7,16-18.08,17.52-30.06a57,57,0,0,0-7.4-35.61c-6.53-11.47-16.23-20.84-26.93-28.36-11.65-8.24-25.19-15.48-39.67-16.53a44.44,44.44,0,0,0-10.43.47c-.53.08-.31.9.23.81,14.72-2.39,29.27,3.4,41.68,10.89,11,6.64,21.23,14.88,29,25.12,7.57,9.91,12.59,21.67,13.06,34.22.43,11.72-2.95,23.86-11,32.64-8.9,9.74-22.23,13.88-35.08,14.57a88.78,88.78,0,0,1-40.51-7.73c-22.65-10.12-44.46-31.85-41.68-58.58,1.28-12.35,7.7-23.66,16.07-32.63a80.1,80.1,0,0,1,14.24-12c5.87-3.89,12.3-7.27,19.21-8.84a32.47,32.47,0,0,1,10.63-.69c.54.06.53-.79,0-.84" transform="translate(0 -0.01)" fill="#e4f3f9"/><path d="M124.19,168.65c-7.54,2.62-15.73,1.45-23.43.2a119.94,119.94,0,0,1-21.68-5.46c-13.26-4.83-25.54-12.92-33.51-24.76a45.87,45.87,0,0,1-6.64-37C42.06,89.12,49.78,78,59.69,69.87,82.46,51.27,115,50,142.86,53.5A158.19,158.19,0,0,1,167,58.37c6.61,1.9,13.47,4.16,18.89,8.54a22.56,22.56,0,0,1,8.29,18.69c-.24,7.59-3.56,14.6-7.8,20.76C178.39,117.87,168,128,157,136.58a157.64,157.64,0,0,1-36.24,21.18q-4.66,2-9.46,3.58c-.51.18-.29,1,.22.81a158.17,158.17,0,0,0,70.44-48.64c8.81-10.67,17.47-25.48,10.77-39.45-2.89-6-8.52-10-14.47-12.64-7.13-3.18-14.89-5.11-22.52-6.67a171.26,171.26,0,0,0-47.54-3.12C93.62,52.81,79.08,56.44,66.51,64c-22.09,13.35-37,41.54-26.2,66.72,5.46,12.72,16.11,22.63,28.25,28.94A95,95,0,0,0,90,167.55a107.51,107.51,0,0,0,23.39,3.5,31.82,31.82,0,0,0,11-1.59c.51-.17.29-1-.23-.81" transform="translate(0 -0.01)" fill="#e4f3f9"/><path d="M63.46,89.43a4.22,4.22,0,1,1-4.22-4.22,4.22,4.22,0,0,1,4.22,4.22Z" transform="translate(0 -0.01)" fill="#e4f3f9"/><path d="M68.52,43.58A2.53,2.53,0,1,1,66,41.05h0A2.53,2.53,0,0,1,68.52,43.58Z" transform="translate(0 -0.01)" fill="#e4f3f9"/><path d="M55,128.25a2.54,2.54,0,1,1-2.55-2.53h0A2.55,2.55,0,0,1,55,128.25Z" transform="translate(0 -0.01)" fill="#e4f3f9"/><path d="M161.63,87.32a2.11,2.11,0,1,1-2.11-2.11,2.1,2.1,0,0,1,2.11,2.11Z" transform="translate(0 -0.01)" fill="#e4f3f9"/><path d="M88.77,86.2a1,1,0,1,1-1-1A1,1,0,0,1,88.77,86.2Z" transform="translate(0 -0.01)" fill="#e4f3f9"/><path d="M152.63,30.78a1.55,1.55,0,1,1-1.56-1.54h0a1.54,1.54,0,0,1,1.55,1.53Z" transform="translate(0 -0.01)" fill="#e4f3f9"/><path d="M152.63,156.24a1.55,1.55,0,1,1-1.56-1.54h0a1.54,1.54,0,0,1,1.55,1.53Z" transform="translate(0 -0.01)" fill="#e4f3f9"/><path d="M212.55,122.07a3.66,3.66,0,1,1-3.66-3.66,3.66,3.66,0,0,1,3.66,3.66Z" transform="translate(0 -0.01)" fill="#e4f3f9"/><path d="M34.76,151.32a3.94,3.94,0,1,1-3.94-3.94,3.93,3.93,0,0,1,3.94,3.94Z" transform="translate(0 -0.01)" fill="#e4f3f9"/><path d="M27.17,64.26a1.55,1.55,0,1,1-1.55-1.55,1.54,1.54,0,0,1,1.55,1.55Z" transform="translate(0 -0.01)" fill="#e4f3f9"/><path d="M113.48,18a4.5,4.5,0,1,1-4.5-4.5A4.49,4.49,0,0,1,113.48,18Z" transform="translate(0 -0.01)" fill="#e4f3f9"/><path d="M148.13,203.36a3.1,3.1,0,1,1-3.11-3.09h0A3.1,3.1,0,0,1,148.13,203.36Z" transform="translate(0 -0.01)" fill="#e4f3f9"/><path d="M191.17,73.4a3.66,3.66,0,1,1-3.66-3.66,3.66,3.66,0,0,1,3.66,3.66Z" transform="translate(0 -0.01)" fill="#e4f3f9"/><path d="M83.94,140.68l2.89-2.36c-1.28-2.95-4.37-3.44-6.11-3.47l-3,1.54c.85,4.29,6.18,4.29,6.18,4.29Z" transform="translate(0 -0.01)" fill="#003240"/><path d="M108,137.66s-4.73-2.89-7.88.79c0,0-2.89-2.37-7.88,1.31l-1.84.79s5,3.94,10.51,1c0,0,8.67,1.32,8.93-1a2.57,2.57,0,0,0-1.84-2.89" transform="translate(0 -0.01)" fill="#003240"/><path d="M123.09,84.2s15.22-6.57,18.13-19.44-8.15-27.06-8.15-27.06S87.36,76.87,97.31,85c5.15,4.2,25.75,2.36,25.75,2.36V84.2" transform="translate(0 -0.01)" fill="#003240"/><g clip-path="url(#clip-path-2)"><rect x="104.94" y="68.15" width="29.27" height="11.66" fill="#022734"/></g><path d="M105.49,147.51s-10,15.24-10.51,17.6c0,0-33.89,1.84-41.77,5.26S42.44,184,49.31,189.28s52.28,7.1,64.89,2.63c0,0,65.15,8.67,76.18-3.94s-20-25-46.23-23.64c0,0-9.2-18.13-14.19-20.49s-24.43,3.67-24.43,3.67" transform="translate(0 -0.01)" fill="#eb5a5c"/><g clip-path="url(#clip-path-3)"><path d="M105.79,193.59C99,190.42,93.67,183,93.67,183a55.92,55.92,0,0,0,23.81,9.34c-2.11-.25-3.32-.41-3.32-.41a41.13,41.13,0,0,1-8.37,1.68" transform="translate(0 -0.01)" fill="#e84b4d"/><polyline points="118.51 192.43 118.51 192.43 118.51 192.43 118.51 192.43" fill="#e84b4d"/><path d="M88.39,182c-4.62,0-17.48-7-20-8s0-2.34.53-2.89a1.75,1.75,0,0,1,1.35-.43c5.37,0,22.18,10.26,18.88,11.2a3.72,3.72,0,0,1-.81.09" transform="translate(0 -0.01)" fill="#e84b4d"/><path d="M146.8,180.78h-.11v-.17h.23l-.14.23m.14-.23,2.42-4.14s15.26-6.6,19-6.89h.5c3.2,0,3.37,2.39,2.12,2.39s-2.36,1.57-7.35,3.67A129.76,129.76,0,0,1,147,180.57" transform="translate(0 -0.01)" fill="#e84b4d"/><path d="M112.66,179.87c-.92-2-8.75-11.83-8.75-11.83,3.8,1.89,8.56,8.6,14.08,8.59,2.11,0,4.35-1,6.68-3.6,6.46-7.28,15.42-8.8,19.21-9.12l.06.13c-11.62,1.86-16.56,12.15-14.81,12.4h.33c2.64,0,13.6-2.38,13.6-2.38l.65-.13c-3.05,3.4-8.28,4.5-11.46,4.86h-2.39c-4.73,0-9.45.29-14.16.76l-3,.32" transform="translate(0 -0.01)" fill="#e84b4d"/><path d="M98.09,179.15c4.83,2,9.94,1.58,15,1a152.37,152.37,0,0,1,18.37-1,52.68,52.68,0,0,1,13.47,1.51c3.09.86,6.2,1.76,9.2,2.89.24.09.34-.29.1-.38a63.5,63.5,0,0,0-20.55-4.3,133.6,133.6,0,0,0-18,.7c-5.87.58-11.88,1.61-17.51-.75-.23-.1-.34.28-.1.38" transform="translate(0 -0.01)" fill="#c63338"/><path d="M94.39,184.13a73.71,73.71,0,0,0,22.2,8.43c.24.05.35-.33.1-.38a73.68,73.68,0,0,1-22.1-8.39C94.37,183.66,94.18,184,94.39,184.13Z" transform="translate(0 -0.01)" fill="#c63338"/><path d="M80.87,175.87c-4.12-1-8.22-1.85-12.35-.48-.24.08-.14.46.1.38,4.07-1.34,8.1-.52,12.14.48C81,176.31,81.12,175.93,80.87,175.87Z" transform="translate(0 -0.01)" fill="#c63338"/><path d="M112.31,179.73l-1.67-2.42c.55.81,1.11,1.61,1.67,2.42m-1.67-2.42c-.91-1.33-1.82-2.65-2.72-3.94l2.72,3.94" transform="translate(0 -0.01)" fill="#df3c3c"/><path d="M146.31,163.47A26.13,26.13,0,0,0,136,166.54c-.22.11,0,.45.2.34a25.46,25.46,0,0,1,10.14-3C146.56,163.87,146.56,163.46,146.31,163.47Z" transform="translate(0 -0.01)" fill="#c63338"/><path d="M93.67,165.06a11.08,11.08,0,0,1,7.38,3.32c.18.18.45-.1.27-.28a11.48,11.48,0,0,0-7.65-3.43.2.2,0,0,0-.24.15.2.2,0,0,0,.15.24Z" transform="translate(0 -0.01)" fill="#c63338"/><path d="M141.67,175.63a24.4,24.4,0,0,1-10.57,3.08c-.25,0-.25.4,0,.39A24.82,24.82,0,0,0,141.86,176C142.09,175.86,141.86,175.52,141.67,175.63Z" transform="translate(0 -0.01)" fill="#c63338"/></g><path d="M94.11,96.08c0,.52-1.12,4.26-2.24,14s-6.81,23.2-6.73,24.78-3.54,3-6.38,9.76-8.94,11.51-10.45,12.89a18.81,18.81,0,0,0-6.6-.48c-3.4.42-6.59-.48-7.17-1.5,0,0-1.51,1.38-.14,2.63s4.48.06,5.34,1.59-1.13,4-3,3.3A4.4,4.4,0,0,1,54,160.29c-.3-.78.86-4-1.54-4.66,0,0-.71,4.37-.4,5.41,0,0-3.32-3.53-5.09-1.87,0,0,3.29,2.74,3.59,3.51,0,0-2.69-1.19-3.4.43a18.13,18.13,0,0,0,3.5,1.67,3.6,3.6,0,0,1,2.42,1.2s-2.91-.39-3.1,1.2a15.74,15.74,0,0,1,4.22.33c1.34.46,6.35.76,8.14-.38s26.4-14.65,31.86-27.26c0,0,6.58-22.4,6.6-27.67L94.11,96.08" transform="translate(0 -0.01)" fill="#f49c84"/><g clip-path="url(#clip-path-4)"><path d="M96.15,132.87a58.56,58.56,0,0,1-7-10.62,5.27,5.27,0,0,1,3.52-1.48c2,0,4,1.36,5.75,3.31-.76,3-1.59,6.14-2.32,8.79" transform="translate(0 -0.01)" fill="#f18d72"/></g><path d="M146.47,97.07a115.9,115.9,0,0,1,1.7,11.87c1.05,9.79,6.63,23.25,6.55,24.82s3.51,3.09,6.31,9.82,8.84,11.52,10.35,12.92a18.8,18.8,0,0,1,6.6-.43c3.39.45,6.6-.43,7.18-1.45,0,0,1.5,1.39.12,2.63s-4.47,0-5.35,1.56,1.1,4,3,3.31a4.4,4.4,0,0,0,2.78-2.74c.31-.77-.84-4,1.57-4.65,0,0,.68,4.38.36,5.41,0,0,3.35-3.5,5.1-1.83,0,0-3.3,2.72-3.61,3.49,0,0,2.7-1.17,3.4.45A19,19,0,0,1,189,163.9a3.55,3.55,0,0,0-2.43,1.18s2.91-.36,3.09,1.22a15.8,15.8,0,0,0-4.23.3c-1.34.45-6.35.71-8.13-.44s-26.3-14.84-31.66-27.5c0,0-6.42-22.44-6.4-27.7l7.23-13.89" transform="translate(0 -0.01)" fill="#f49c84"/><g clip-path="url(#clip-path-5)"><path d="M147,141.29a19.82,19.82,0,0,1-1.36-2.63l-.15-.5c.39-5.78,3.14-7.46,5.71-7.46a6.89,6.89,0,0,1,2.93.69,12.43,12.43,0,0,1,.59,2.33h0v.21c-2.94,1-6,4.88-7.73,7.32" transform="translate(0 -0.01)" fill="#f18d72"/></g><path d="M105,148.56l-5-35.73L93.71,98.1s-1.22-3.74,12.82-10.49,39.14,1.32,40.06,10.3c1,9.9-6.17,13.09-6.17,13.09l-5.52,37.56s-12.87,6.57-29.95,0" transform="translate(0 -0.01)" fill="#f49c84"/><g clip-path="url(#clip-path-6)"><path d="M128.79,148.6c-9.47,0-20.71-6.2-25.09-9.1l-.71-5c2-3.4,6.2-4.75,11.06-4.75,7.93,0,17.63,3.62,22.48,7.82l-1.45,9.93a16.13,16.13,0,0,1-6.29,1.15" transform="translate(0 -0.01)" fill="#f18d72"/></g><path d="M108,87.58c-.43,1.31,7.4-8.13,6.66-21.77h8.87s0,17,9,22.28c0,0-14.13,13.11-24.52-.51" transform="translate(0 -0.01)" fill="#f49c84"/><g clip-path="url(#clip-path-7)"><path d="M119,81.87a8.82,8.82,0,0,1-6.33-2.48c.2-.56.39-1.15.57-1.75a12.72,12.72,0,0,0,5.89,2.13,13.12,13.12,0,0,0,6.16-2.36c.14.47.29,1,.46,1.42a8.62,8.62,0,0,1-6.78,3" transform="translate(0 -0.01)" fill="#f08366"/></g><path d="M97.61,179s-1-2.89-2.11-6-5.51-3.42-8.93-1.58-10.51-2.36-13.13-2.63-6.31,0-5.52,2.1c.92,2.46,4.2.27,5.52,1.84s16.55,11.56,21,11.56c0,0,3.16-.78,3.16-5.25Z" transform="translate(0 -0.01)" fill="#f49c84"/><path d="M142.09,175.23s1.33-2.78,2.68-5.81,5.82-2.87,9-.71,10.69-1.34,13.33-1.35,6.27.6,5.29,2.62c-1.16,2.36-4.21-.14-5.67,1.3s-17.59,9.91-22,9.48c0,0-3.06-1.09-2.63-5.53Z" transform="translate(0 -0.01)" fill="#f49c84"/><path d="M95.2,95c.31,0,44,16.09,52.22,7.77,0,0,1.65,13.33,3.52,18.47,2.1,5.78,4.2,12.35,4.2,12.61,0,0-2.89-.52-11.82,8.41-12.08,12.07-38.25,1.11-54.2-20.07,0,0,1.83-27.42,6.08-27.19Z" transform="translate(0 -0.01)" fill="#facebb"/><g clip-path="url(#clip-path-8)"><path d="M86.87,107.74c5-2.46,11.71,1.39,16.8-1a7.64,7.64,0,0,1,1.72-.72,5.45,5.45,0,0,1,1.71,0l16.42,2.37a31.2,31.2,0,0,0,4.42.43c2,0,4-.33,5.82.21.88.25,1.68.7,2.55,1,2.27.78,4.79.49,7.19.19l9.81-1.24c.93-.12,2.24,0,2.31.89s-1.34,1.17-2.35,1.17c-3,0-6,.84-9,1.14a48.78,48.78,0,0,1-6.51.08q-15.66-.54-31.29-1.47c-2-.12-4-.24-6-.56a5.66,5.66,0,0,0-2.13-.1c-.57.14-1.08.46-1.64.63-2.2.65-4.41-1.21-6.71-1.07a23.3,23.3,0,0,1-3,.43c-1-.09-2-1.17-1.38-1.91" transform="translate(0 -0.01)" fill="#fdeae6"/><path d="M85,116c.23-1.12,1.85-1.52,3-1.18s2.15,1.16,3.3,1.58c3.55,1.31,7.41-1.29,11.22-1.12,2.59.12,5,1.5,7.6,1.21.76-.08,1.49-.32,2.24-.41a14.19,14.19,0,0,1,4.76.6c5.17,1.13,10.53,1.22,15.84,1.31l9.75.15a32.86,32.86,0,0,0,8.74-.63,14.36,14.36,0,0,1,3.3-.69,2.94,2.94,0,0,1,2.78,1.45l-9.8,1.28c-1.59.24-3.19.39-4.79.47-2.44.08-4.88-.21-7.33-.32-7.58-.32-15.23,1.19-22.73.1a28.2,28.2,0,0,0-5.94-.63c-1.71.11-3.39.65-5.11.6a18.39,18.39,0,0,1-3.75-.71,39.27,39.27,0,0,0-13.36-1c-.54-.8-1.09-1.59-1.63-2.38l2-.09" transform="translate(0 -0.01)" fill="#fdeae6"/><path d="M85,124.55c2.3-1.4,5.36-1.06,8-.31s5.23,1.87,8,1.89c2.59,0,5.08-.95,7.66-1.07,4.11-.19,8.15,1.74,12.22,1.19,1.72-.23,3.35-.89,5.08-1a16.4,16.4,0,0,1,3.83.33l7.61,1.29a10.42,10.42,0,0,0,2.36.21,11.48,11.48,0,0,0,3-.75,55.23,55.23,0,0,1,7.47-2,6.64,6.64,0,0,1,4.11.14,9.36,9.36,0,0,0,1.42.7c1,.28,2-.26,3.06-.48s2.45.2,2.4,1.17c-2.89,1-6.08.47-9.15.61-3.26.14-6.43,1-9.65,1.49a46.28,46.28,0,0,1-15.22-.13,39.07,39.07,0,0,0-5.17-.77,39.88,39.88,0,0,0-6.17.57,83.39,83.39,0,0,1-15.48-.09L91.88,127a41.92,41.92,0,0,1-6.51-.78,1.88,1.88,0,0,1-1.2-.62c-.25-.36,0-1,.43-1" transform="translate(0 -0.01)" fill="#fdeae6"/><path d="M94.52,133.87a9.76,9.76,0,0,1,6.36,0,39.53,39.53,0,0,0,6.23,1.68c6.12.71,12.48-3.54,18.17-1.35a7.94,7.94,0,0,0,3,.92,10.43,10.43,0,0,0,2.33-.63c2.22-.61,4.58.21,6.73,1a4,4,0,0,0,2.49.37,13.23,13.23,0,0,0,1.67-.87c1.3-.55,2.81,0,4.24.19,2.11.29,4.23-.23,6.35-.52s4.44-.3,6.17.85a9,9,0,0,1-4.55,1.31c-5.37.34-10.88-.48-16.08.79a9.38,9.38,0,0,1-2.52.43,10.17,10.17,0,0,1-2.71-.68c-3.35-1.09-7-1.12-10.54-1.13a40.34,40.34,0,0,0-4.4.13c-3.39.33-6.68,1.48-10.08,1.36-4.11-.14-8-2.13-12.07-2.17a4.77,4.77,0,0,1-1.76-.19c-.55-.22-1-.79-.79-1.3s1.2-.59,1.32-.06" transform="translate(0 -0.01)" fill="#fdeae6"/><path d="M86.61,101.57c1.06-1.81,3.6-2.49,5.83-2.31a46.57,46.57,0,0,1,6.52,1.5,19.81,19.81,0,0,0,6.91.23,14.28,14.28,0,0,1,3.69-.3,30.31,30.31,0,0,1,3.37,1c4,1.09,8.15-1.26,12.32-1.79a27.91,27.91,0,0,1,8.4.61c6.77,1.21,13.69,2.52,20.52,1.6,0,1.54-2.22,2.06-3.89,2.12a155.23,155.23,0,0,1-19.76-.65,66.71,66.71,0,0,0-9.89-.55c-2.31.12-4.61.54-6.93.46-3.9-.14-7.63-1.71-11.53-1.77a52.44,52.44,0,0,0-6,.54,35.05,35.05,0,0,1-8.19-.15,2.37,2.37,0,0,1-1.52-.59.76.76,0,0,1,0-1.07.7.7,0,0,1,.31-.18" transform="translate(0 -0.01)" fill="#fdeae6"/><path d="M108.67,142.05a125.32,125.32,0,0,0,18.48-.47,28.28,28.28,0,0,1,4.11-.37,25.79,25.79,0,0,1,3.61.44c4.41.74,8.87,1.31,13.34,1.69-3.86,1.71-8.37,1.52-12.61,1s-8.52-1.42-12.77-.94c-2.45.28-4.86,1-7.33.92a11.31,11.31,0,0,1-5.34-1.57" transform="translate(0 -0.01)" fill="#fdeae6"/></g><path d="M136.42,60.06c0,10.87-12.15,19.67-17.27,19.67s-17.27-8.8-17.27-19.67,7.41-24.46,17-24.46,17.59,13.6,17.59,24.46" transform="translate(0 -0.01)" fill="#f49c84"/><g clip-path="url(#clip-path-9)"><path d="M106.45,63s-.17-.55-.69-2.18l.69,2.18m-.69-2.15h0m0,0h0m0,0h0m0,0h0m0,0h0m0,0h0m0,0h0m0,0h0m0,0h0m0,0h0m0,0h0m0,0c4.19-13.19,13.13-19,13.13-19a4,4,0,0,0,.22.34c-5.75,3.87-13.36,18.66-13.36,18.66m29.12-1.56c-8.23-3.94-13.9-13.57-15.62-16.79,5,7.6,12.39,14.11,15.62,16.79" transform="translate(0 -0.01)" fill="#f18c72"/></g><path d="M118.89,41.87s-8.94,5.81-13.14,19c0,0-2.36,5.78-.79,8.93s7.62,7.36,6.31,11.3a15,15,0,0,1-5.78,11.56s5.78-2.37,10.77,6.83c0,0,10.51-5.52,18.13,4.2,0,0,5.51-6.31,11,1.84,0,0,5-3.42,7.62,3.15,0,0,3.94-3.15,2.63,5.52,0,0,4.46,3.68-1,7.09,0,0,.78,1.84-2.37,3.68l-1.58-4.47a3.83,3.83,0,0,1,2.63-.78s-1.57-3.68,1-5.52a5.7,5.7,0,0,1-4.2-5.52s-4.73,3.15-7.88-2.36c0,0-7.62,6.3-13.66-2.1,0,0-12.09,8.14-17.61-2.63,0,0-15,6.83-15.76-6.57,0,0-7.88-10.77,2.1-17.08,0,0-9.16-12.12-3.67-22.85,5.78-11.3,11.29-28.11,23.9-21,0,0,22.07-9.72,18.92,26.53,0,0-11-8.4-17.6-18.65" transform="translate(0 -0.01)" fill="#003240"/><g clip-path="url(#clip-path-10)"><path d="M111.31,78.87a26.73,26.73,0,0,1-6.37-9.14h0c1.29,2.58,5.58,5.87,6.37,9.14" transform="translate(0 -0.01)" fill="#022734"/></g><path d="M106,61.66c.5,2-.19,4-1.54,4.3s-2.86-1-3.37-3.1.2-4,1.55-4.29S105.46,59.57,106,61.66Z" transform="translate(0 -0.01)" fill="#f49c84"/><path d="M134.7,59.87c-.5,2,.19,4,1.55,4.3s2.86-1,3.36-3.09-.19-4-1.55-4.3S135.2,57.78,134.7,59.87Z" transform="translate(0 -0.01)" fill="#f49c84"/><path d="M90.51,120.19c-5.51-1.84-7.88,4.73-7.88,4.73-3.94-1.58-5,3.41-5,3.41-3.42,2.89,0,6.84,0,6.84a6.23,6.23,0,0,0,.12,1.22l3-1.54a8.57,8.57,0,0,0-1.24.05c1.31-2.62-.79-5.51-.79-5.51A5.24,5.24,0,0,0,84,126.23c14.19,5.26,17.87-11,17.87-11s-5.78,6.83-11.3,5Z" transform="translate(0 -0.01)" fill="#003240"/><path d="M109,61.2a10.58,10.58,0,0,0,3.41.32,10.93,10.93,0,0,0,3.33-.78,5.65,5.65,0,0,1-3.3,1.31A5.55,5.55,0,0,1,109,61.2Z" transform="translate(0 -0.01)" fill="#2d1e2c"/><path d="M116.79,73.27a5.5,5.5,0,0,0,4.84-.35.22.22,0,0,0,0-.32.22.22,0,0,0-.25-.07,5,5,0,0,1-4.49.3C116.64,72.72,116.52,73.16,116.79,73.27Z" transform="translate(0 -0.01)" fill="#bb4e2b"/><path d="M116.85,68.87h1.21a10.65,10.65,0,0,0,1.13,0,8.67,8.67,0,0,0,1.13-.12l1.19-.21a2.69,2.69,0,0,1-1,.8,3.6,3.6,0,0,1-1.25.32,3.52,3.52,0,0,1-1.29-.15,2.55,2.55,0,0,1-1.11-.65Z" transform="translate(0 -0.01)" fill="#bb4e2b"/><path d="M123.18,61.25a10.53,10.53,0,0,0,6.74-.47A5.84,5.84,0,0,1,123.18,61.25Z" transform="translate(0 -0.01)" fill="#2d1e2c"/><path d="M108.9,58.63A6.39,6.39,0,0,1,115,56.49c.39.08.56-.53.16-.61a7.06,7.06,0,0,0-6.75,2.3C108.18,58.49,108.63,58.94,108.9,58.63Z" transform="translate(0 -0.01)" fill="#003240"/><path d="M130.11,57.87a7.06,7.06,0,0,0-6.75-2.3c-.4.08-.24.69.16.61a6.39,6.39,0,0,1,6.14,2.14C129.93,58.63,130.38,58.18,130.11,57.87Z" transform="translate(0 -0.01)" fill="#003240"/><path d="M119.4,41a19.67,19.67,0,0,0,1.8,4.87,23.57,23.57,0,0,0,6.78,8,25,25,0,0,0,2.21,1.48c.76.47,1.57.83,2.36,1.25-.81-.38-1.64-.7-2.43-1.13a25.38,25.38,0,0,1-2.29-1.39,22.41,22.41,0,0,1-4.1-3.49,23.15,23.15,0,0,1-3.22-4.34,20.83,20.83,0,0,1-2.14-5l1-.21Z" transform="translate(0 -0.01)" fill="#003240"/><path d="M119.77,39.87a12.44,12.44,0,0,0-1,5.65,9.25,9.25,0,0,0,.61,2.85,10,10,0,0,0,1.43,2.6,10.44,10.44,0,0,1-1.67-2.49,10.18,10.18,0,0,1-.9-2.9,13.46,13.46,0,0,1,.51-6.11l1,.4Z" transform="translate(0 -0.01)" fill="#003240"/><path d="M120.64,40.87A10.63,10.63,0,0,0,119.31,42a14,14,0,0,0-2.3,2.7,13.46,13.46,0,0,0-.85,1.59,11.24,11.24,0,0,1,.62-1.71,12.62,12.62,0,0,1,.87-1.62,13.46,13.46,0,0,1,1.09-1.51A12.12,12.12,0,0,1,120.05,40l.62.85Z" transform="translate(0 -0.01)" fill="#003240"/><path d="M123.37,218.27c-45.21,0-81.86-1.13-81.86-2.53s36.65-2.53,81.86-2.53,81.86,1.13,81.86,2.53-36.65,2.53-81.86,2.53" transform="translate(0 -0.01)" fill="#64c1d2"/></g></svg>