<svg id="Layer_1" data-name="Layer 1" xmlns="http://www.w3.org/2000/svg" viewBox="0 0 250 180.3"><g opacity="0.3"><path d="M.85,94c6.39,16.22,16.34,41.48,51,33.65,27.9-6.3,36.13,13.28,43.86,31.65,1.24,3,2.47,5.88,3.76,8.66,2,4.39,5.8,6.73,9.72,6.73h31.62c3.92,0,7.67-2.34,9.72-6.73,1.29-2.78,2.52-5.7,3.77-8.66,7.72-18.37,15.95-38,43.85-31.65,34.66,7.83,44.61-17.43,51-33.65a12.21,12.21,0,0,0,.85-4.55V16.83c0-12-9.26-20.12-17.68-15.53L129.9,57.15a10,10,0,0,1-9.8,0L17.68,1.3C9.26-3.29,0,4.85,0,16.83V89.46A12.61,12.61,0,0,0,.85,94Z" transform="translate(0 0)" fill="#f4a17c" fill-rule="evenodd" opacity="0.4" style="isolation:isolate"/><path d="M155.35,22.09A7.35,7.35,0,0,1,159,23.83c1.69,1.52,3.26-2.35.45-3.14A3.6,3.6,0,0,0,155.35,22.09Z" transform="translate(0 0)" fill="#f5e2d5"/><path d="M153.47,21.91a7.21,7.21,0,0,1,3.51-2c2.22-.55-.14-4-2.37-2.14A3.55,3.55,0,0,0,153.47,21.91Z" transform="translate(0 0)" fill="#f5e2d5"/><path d="M127.58,30.91a7.11,7.11,0,0,0-1.7,3.67c-.32,2.25-4,.27-2.39-2.12A3.64,3.64,0,0,1,127.58,30.91Z" transform="translate(0 0)" fill="#f5e2d5"/><path d="M128.91,29.57a7.26,7.26,0,0,0-4,.67c-2.06,1-2.48-3.15.44-3.15A3.59,3.59,0,0,1,128.91,29.57Z" transform="translate(0 0)" fill="#f5e2d5"/><path d="M157.5,42.68a14.76,14.76,0,0,0-4.83-20.32h0l-.16-.1a15.08,15.08,0,0,0-20.62,5,14.81,14.81,0,0,0,4.88,20.37h0l.12.07A15.09,15.09,0,0,0,157.5,42.68Z" transform="translate(0 0)" fill="#f5e2d5"/><path d="M133,32.43a.59.59,0,0,1-.66-.29.56.56,0,0,1,.22-.76h0l3.74-2-2.5-.09a.59.59,0,0,1-.57-.59.58.58,0,0,1,.6-.56h0l4.65.16a.57.57,0,0,1,.54.45.56.56,0,0,1-.29.63l-5.62,3Z" transform="translate(0 0)" fill="#3f4553"/><path d="M153.05,27h-.13l-6.11.19a.57.57,0,0,1-.61-.53h0a.55.55,0,0,1,.28-.53l4.12-2.55a.58.58,0,0,1,.8.18.57.57,0,0,1-.18.79h0L148.92,26l4-.12a.58.58,0,0,1,.6.55A.59.59,0,0,1,153.05,27Z" transform="translate(0 0)" fill="#3f4553"/><path d="M132.79,35c3.18,5.82,8.83,9.13,14,7.71s8.35-7.13,8.08-13.73l-2,.2a58.25,58.25,0,0,0-18.53,5.09Z" transform="translate(0 0)" fill="#3f4553"/><path d="M153.19,36.45a15.15,15.15,0,0,0-15,4.17A9.89,9.89,0,0,0,152,38.5,9.53,9.53,0,0,0,153.19,36.45Z" transform="translate(0 0)" fill="#4e5567"/><path d="M53.42,93.06A14.86,14.86,0,0,0,43.25,74.67h-.09a14.88,14.88,0,1,0-8.43,28.55h.1A15,15,0,0,0,53.42,93.06Z" transform="translate(0 0)" fill="#f5e2d5"/><path d="M31.32,79.9a.58.58,0,0,1,.32-1.1l4.19.67L33.9,77.9a.56.56,0,0,1-.09-.8h0a.58.58,0,0,1,.82-.08h0L38.22,80a.57.57,0,0,1-.46,1l-6.32-1Z" transform="translate(0 0)" fill="#3f4553"/><path d="M50.55,87.64l-.12-.07-5-3.53a.57.57,0,0,1,0-.82.6.6,0,0,1,.42-.18l4.83.46a.58.58,0,0,1,.58.58h0a.6.6,0,0,1-.59.58h-.1l-2.69-.26,3.22,2.29a.55.55,0,0,1,.15.76l0,0h0A.62.62,0,0,1,50.55,87.64Z" transform="translate(0 0)" fill="#3f4553"/><path d="M40.89,95.15A11.62,11.62,0,0,1,35,93.72,12.37,12.37,0,0,1,29.44,86a.71.71,0,0,1,.55-.84h0a.73.73,0,0,1,.85.56,11.11,11.11,0,0,0,4.88,6.79c2.85,1.63,6.59,1.69,11.1.16a.73.73,0,0,1,.92.44h0a.71.71,0,0,1-.44.9h0A20.59,20.59,0,0,1,40.89,95.15Z" transform="translate(0 0)" fill="#3f4553"/><path d="M129.57,135.15a16.24,16.24,0,0,0,.19-23l0,0-.16-.16a16.62,16.62,0,0,0-23.34,0,16.24,16.24,0,0,0-.19,23l0,0,.16.16A16.6,16.6,0,0,0,129.57,135.15Z" transform="translate(0 0)" fill="#f5e2d5"/><path d="M108.6,128.9s10.62-6,20.84-7.46c0,0,2.94,9.59-6.84,13.3C114.12,138,108.6,128.9,108.6,128.9Z" transform="translate(0 0)" fill="#3f4553"/><path d="M110.69,124.28a1,1,0,0,1-.86-.52l-2.41-4.61a1,1,0,0,1,1.73-.88l2.4,4.61a1,1,0,0,1-.39,1.29A.93.93,0,0,1,110.69,124.28Z" transform="translate(0 0)" fill="#3f4553"/><path d="M123.53,119.67a1,1,0,0,1-.94-.76l-1.13-5.25a1,1,0,0,1,1.9-.4l1.12,5.25a1,1,0,0,1-.75,1.14Z" transform="translate(0 0)" fill="#3f4553"/><path d="M125.2,132.83c-.89-2.18-4-3.06-7-2a7,7,0,0,0-3.7,2.91,9.75,9.75,0,0,0,8.08.4A15.26,15.26,0,0,0,125.2,132.83Z" transform="translate(0 0)" fill="#4e5567"/><path d="M213.4,81.15a16.29,16.29,0,0,0,8.71-21.34l-.06-.14a16.56,16.56,0,0,0-21.68-8.52,16.3,16.3,0,0,0-8.72,21.34h0l.06.14A16.57,16.57,0,0,0,213.4,81.15Z" transform="translate(0 0)" fill="#f5e2d5"/><path d="M209,69.77a18.23,18.23,0,0,1-10.1-3.34.48.48,0,0,1-.08-.67.5.5,0,0,1,.68-.08c.35.27,8.62,6.53,17.24.69a.48.48,0,0,1,.55.79A14.62,14.62,0,0,1,209,69.77Z" transform="translate(0 0)" fill="#3f4553"/><path d="M213.69,61.08c0,1-.39,1.83-.89,1.83s-.89-.81-.89-1.83.4-1.82.89-1.82S213.69,60.08,213.69,61.08Z" transform="translate(0 0)" fill="#3f4553"/><path d="M205.15,60.73c0,1-.4,1.83-.89,1.83s-.89-.81-.89-1.83.39-1.82.89-1.82S205.15,59.72,205.15,60.73Z" transform="translate(0 0)" fill="#3f4553"/><path d="M165.14,180.07c22.24,0,40.28-4,40.28-9s-18-9-40.28-9-40.29,4-40.29,9S142.89,180.07,165.14,180.07Z" transform="translate(0 0)" fill="#f4a17c" opacity="0.4" style="isolation:isolate"/><path d="M165.14,180.07c22.24,0,40.28-4,40.28-9s-18-9-40.28-9-40.29,4-40.29,9S142.89,180.07,165.14,180.07Z" transform="translate(0 0)" fill="#f4a17c" opacity="0.4" style="isolation:isolate"/><path d="M162,51.82s-3.09-.28-3.37-3.06,7-6.26,11.65-6.39,9.12,4.86,9.12,8.9.7,9.73,4.21,10.84S189.5,70,187.4,72.54s-2,2.5.14,4.73.28,6.12-1.13,7-5.61,2.09-15,1.25-15-9.32-15.41-12.79,2.8-5.84,3.92-7.37-.84-2.78-.7-4.46,2.25-3,2.81-4.45S162,51.82,162,51.82Z" transform="translate(0 0)" fill="#3f4553"/><path d="M177.16,86c-1.65,0-3.55-.09-5.76-.28-9.86-.88-15.26-9.77-15.66-13-.34-2.82,1.6-4.9,3-6.42.4-.43.74-.8,1-1.12.57-.78.22-1.47-.17-2.28a3.81,3.81,0,0,1-.57-2,5.31,5.31,0,0,1,1.63-2.9,6.78,6.78,0,0,0,1.19-1.67c.46-1.13.12-3.61,0-4.29-.7-.12-3.14-.72-3.39-3.25a2.77,2.77,0,0,1,.86-2.08c2-2.28,7.27-4.47,11-4.58a8.9,8.9,0,0,1,6.23,2.71,9.62,9.62,0,0,1,3.15,6.44c0,3.48.52,9.5,4,10.61,1.84.59,3.55,2.73,4.35,5.46.66,2.24.49,4.24-.45,5.36-1.9,2.26-1.9,2.26,0,4.21l.19.2a4.09,4.09,0,0,1,1,3.46,5.79,5.79,0,0,1-2.15,3.86C185.85,84.85,183.35,86,177.16,86Zm-6.68-43.4h-.18c-3.56.1-8.75,2.25-10.66,4.41a2.34,2.34,0,0,0-.75,1.72c.26,2.55,3.12,2.84,3.15,2.85a.26.26,0,0,1,.22.19c0,.14.56,3.29,0,4.72A7.4,7.4,0,0,1,161,58.31a5.13,5.13,0,0,0-1.52,2.57,3.56,3.56,0,0,0,.53,1.8c.43.87.87,1.76.13,2.78a12.23,12.23,0,0,1-1,1.16c-1.34,1.45-3.19,3.44-2.87,6,.38,3.13,5.63,11.73,15.22,12.58,10.35.92,14-.7,14.87-1.21a5.36,5.36,0,0,0,1.92-3.52,3.65,3.65,0,0,0-.85-3.07l-.18-.2c-2-2.09-2.09-2.31,0-4.85.84-1,1-2.83.36-4.91s-2.11-4.52-4-5.13c-3.81-1.21-4.37-7.46-4.37-11.08a9.07,9.07,0,0,0-3-6.08,8.6,8.6,0,0,0-5.76-2.55Z" transform="translate(0 0)" fill="#3f4553"/><path d="M184.4,74.15h-.15a.26.26,0,0,1-.19-.29.24.24,0,0,1,.29-.18h0a.78.78,0,0,0,.53-.17c.37-.27.87-1,1.11-2.67.32-2.21-3.22-5.12-7-8.19-1.67-1.36-3.39-2.78-4.9-4.23a19.3,19.3,0,0,1-5.71-10.52.24.24,0,0,1,.21-.27h0a.25.25,0,0,1,.27.21,18.64,18.64,0,0,0,5.57,10.24c1.49,1.43,3.2,2.84,4.86,4.2,4,3.29,7.5,6.15,7.14,8.62a4.37,4.37,0,0,1-1.34,3A1.24,1.24,0,0,1,184.4,74.15Z" transform="translate(0 0)" fill="#ac9b8f"/><path d="M160.55,49.54c-1.57,0-2.07-.6-2.09-.63a.25.25,0,0,1,0-.34h0a.25.25,0,0,1,.34,0h0s.81.9,3.8.15a19.88,19.88,0,0,0,6.4-3.26.24.24,0,1,1,.3.38h0a20.19,20.19,0,0,1-6.54,3.39A8.67,8.67,0,0,1,160.55,49.54Z" transform="translate(0 0)" fill="#ac9b8f"/><path d="M147.28,166.15a17.25,17.25,0,0,0,4.43,4c2.33,1.28,6.53.4,5.32-2.63a8.8,8.8,0,0,0-4.6-5.19C151,161.79,147.21,163.22,147.28,166.15Z" transform="translate(0 0)" fill="#e49621"/><path d="M154.08,171a5.26,5.26,0,0,1-2.49-.6,17.26,17.26,0,0,1-4.5-4.06.2.2,0,0,1-.09-.17,3.82,3.82,0,0,1,1.78-3.23,4.57,4.57,0,0,1,3.7-.84c.72.28,3.2,1.49,4.73,5.33a2.24,2.24,0,0,1-.5,2.69A4.11,4.11,0,0,1,154.08,171Zm-6.56-4.89a17.1,17.1,0,0,0,4.3,3.88,4.51,4.51,0,0,0,4.61-.19,1.75,1.75,0,0,0,.37-2.15c-1.45-3.66-3.78-4.8-4.45-5.06a4.07,4.07,0,0,0-3.25.78,3.39,3.39,0,0,0-1.58,2.72Z" transform="translate(0 0)" fill="#3f4553"/><path d="M150.26,169.15v.07a8.93,8.93,0,0,0,1.43,1c2.33,1.28,6.53.4,5.32-2.64C153.24,165.22,150.26,169.15,150.26,169.15Z" transform="translate(0 0)" fill="#f1bd54"/><path d="M154.08,171a5.26,5.26,0,0,1-2.49-.6,11.09,11.09,0,0,1-1.46-1,.2.2,0,0,1-.08-.12v-.08a.28.28,0,0,1,0-.22s3.16-4,7.09-1.65a.18.18,0,0,1,.1.11,2.24,2.24,0,0,1-.5,2.69A4,4,0,0,1,154.08,171Zm-3.51-1.83a9.75,9.75,0,0,0,1.25.84,4.51,4.51,0,0,0,4.61-.19,1.74,1.74,0,0,0,.4-2.08c-3.15-1.91-5.68.71-6.26,1.41Z" transform="translate(0 0)" fill="#3f4553"/><path d="M151.71,170.15c2.19,1.2,6,.51,5.48-2.09a4,4,0,0,1-4.52,1,13.26,13.26,0,0,1-5.15-4.24,3.18,3.18,0,0,0-.24,1.29A17.41,17.41,0,0,0,151.71,170.15Z" transform="translate(0 0)" fill="#f1bd54"/><path d="M154.08,171a5.26,5.26,0,0,1-2.49-.6,17.26,17.26,0,0,1-4.5-4.06.22.22,0,0,1-.09-.17,3.45,3.45,0,0,1,.26-1.38.23.23,0,0,1,.19-.15.26.26,0,0,1,.22.09,13.13,13.13,0,0,0,5,4.17,3.85,3.85,0,0,0,4.25-1,.22.22,0,0,1,.24-.07.21.21,0,0,1,.17.18,2.11,2.11,0,0,1-.86,2.25A4.24,4.24,0,0,1,154.08,171Zm-6.56-4.89a17.1,17.1,0,0,0,4.3,3.88,4.62,4.62,0,0,0,4.46-.07,1.59,1.59,0,0,0,.72-1.3,4.26,4.26,0,0,1-4.41.76,13.09,13.09,0,0,1-5-4,3.35,3.35,0,0,0-.07.71Z" transform="translate(0 0)" fill="#3f4553"/><path d="M182.32,166.08a17.25,17.25,0,0,1-4.43,4c-2.33,1.28-6.53.4-5.32-2.63a8.8,8.8,0,0,1,4.6-5.19C178.62,161.69,182.39,163.15,182.32,166.08Z" transform="translate(0 0)" fill="#e49621"/><path d="M175.52,170.88a4.15,4.15,0,0,1-2.67-.84,2.25,2.25,0,0,1-.51-2.69,9.07,9.07,0,0,1,4.74-5.33,4.5,4.5,0,0,1,3.7.83,3.82,3.82,0,0,1,1.78,3.23.24.24,0,0,1-.05.14,17.3,17.3,0,0,1-4.51,4.06A5.22,5.22,0,0,1,175.52,170.88Zm2.39-8.52a2.11,2.11,0,0,0-.66.1c-.68.26-3,1.4-4.46,5.06a1.77,1.77,0,0,0,.37,2.15,4.51,4.51,0,0,0,4.61.19,16.71,16.71,0,0,0,4.3-3.87,3.4,3.4,0,0,0-1.58-2.75,4.79,4.79,0,0,0-2.58-.88Z" transform="translate(0 0)" fill="#3f4553"/><path d="M179.34,169v.07a10.79,10.79,0,0,1-1.43,1c-2.33,1.28-6.53.4-5.32-2.64C176.36,165.15,179.34,169,179.34,169Z" transform="translate(0 0)" fill="#f1bd54"/><path d="M175.52,170.88a4.15,4.15,0,0,1-2.67-.84,2.22,2.22,0,0,1-.51-2.69.23.23,0,0,1,.1-.12c3.93-2.4,7.06,1.62,7.09,1.66a.26.26,0,0,1,0,.21v.08a.31.31,0,0,1-.09.11,11.09,11.09,0,0,1-1.46,1A5.25,5.25,0,0,1,175.52,170.88Zm-2.76-3.29a1.76,1.76,0,0,0,.41,2.08,4.51,4.51,0,0,0,4.61.19A10.32,10.32,0,0,0,179,169c-.58-.67-3.11-3.29-6.27-1.43Z" transform="translate(0 0)" fill="#3f4553"/><path d="M177.89,170.07c-2.19,1.2-6,.51-5.48-2.09a4,4,0,0,0,4.51,1c2.34-.85,4.33-3.17,5.16-4.24a3.36,3.36,0,0,1,.24,1.29A17.41,17.41,0,0,1,177.89,170.07Z" transform="translate(0 0)" fill="#f1bd54"/><path d="M175.52,170.88a4.32,4.32,0,0,1-2.52-.73,2.1,2.1,0,0,1-.86-2.24.25.25,0,0,1,.17-.19.24.24,0,0,1,.24.07,3.82,3.82,0,0,0,4.25,1,12.63,12.63,0,0,0,5-4.16.24.24,0,0,1,.22-.09.19.19,0,0,1,.19.15,3.45,3.45,0,0,1,.26,1.38.21.21,0,0,1-.05.13,17.26,17.26,0,0,1-4.5,4.06A5.16,5.16,0,0,1,175.52,170.88Zm-2.92-2.38a1.6,1.6,0,0,0,.71,1.29,4.62,4.62,0,0,0,4.46.07,16.71,16.71,0,0,0,4.3-3.87,2.74,2.74,0,0,0-.09-.7,13.09,13.09,0,0,1-5,4,4.28,4.28,0,0,1-4.38-.79Z" transform="translate(0 0)" fill="#3f4553"/><path d="M166,61.92a42.07,42.07,0,0,1-1,5.56c-.42,1-5.61,1.25-7.86,2.09s-7,4.87-10,7.65-5.61,10.15-5.61,11.12,2.94-2.78,5.61-5.43,8.56-6,8.56-6,2.11,10.35,2.39,11.47a13.65,13.65,0,0,1,0,3.38c0,.42-5.9,10.57-6.88,19s.84,24.61.84,24.61a35.79,35.79,0,0,0-3.51,13.22c-.28,7-1.82,15.15-1.68,15.71s-.28,1.67.42,1.81,1.26-1.81,2.95-2.23,3.92.7,4.21-.41,0-3.34.28-6.26,4.91-14.88,5.2-18.91,3.64-23.78,4.35-24.76l.7-1s.7-1.67,1.12.14,0,19.74.84,22.39,7.47,20.38,8.32,22.47-1,4.59-.42,5.7,2.1.69,3.5.69,2.87,2,4,2,1.49-1.63,1.49-3.44-4.95-19.4-5.23-23.72a39.54,39.54,0,0,0-1.26-7.65s1.82-19.88,1.4-24.19-4.07-15.3-4.07-15.3L177.19,78s7.72,4.31,10.38,7.79,4.49,3.33,4.21.55-6.88-11-10.39-14.6-8.28-2.92-9.68-3.89-.56-10.57-.56-10.57Z" transform="translate(0 0)" fill="#fed9ce"/><path d="M147.36,166.43h-.12c-.68-.13-.64-.85-.6-1.37a2.08,2.08,0,0,0,0-.61,18.31,18.31,0,0,1,.36-3.3c.45-3.22,1.14-8.1,1.32-12.54a36.32,36.32,0,0,1,3.5-13.25c-.13-1.17-1.78-16.47-.84-24.59C151.77,104,155.75,96,157.25,93c.31-.63.59-1.17.61-1.28a4.17,4.17,0,0,1,0-.5,10,10,0,0,0,0-2.79c-.25-1-2-9.35-2.33-11.14-1.21.71-5.94,3.51-8.22,5.77-.93.92-1.9,2-2.75,2.92-2.13,2.33-2.66,2.86-3.05,2.71a.35.35,0,0,1-.23-.37c0-1.09,2.7-8.47,5.69-11.3,2.4-2.26,7.58-6.79,10.05-7.7a25.39,25.39,0,0,1,3.77-.85c1.67-.29,3.75-.65,4-1.1a44.67,44.67,0,0,0,1-5.5.18.18,0,0,1,.08-.15L171,57.15a.23.23,0,0,1,.27,0,.22.22,0,0,1,.13.23c-.32,3.66-.48,9.7.46,10.35a6.65,6.65,0,0,0,2.23.6c2.15.36,5.09.85,7.49,3.33,3.49,3.6,10.16,11.83,10.45,14.74.16,1.64-.41,2.12-.76,2.26-.92.36-2.3-.58-3.88-2.65-2.31-3-8.58-6.73-10-7.55l-2.45,13.33c.32,1,3.66,11.12,4.06,15.3s-1.28,22.9-1.4,24.19a39.77,39.77,0,0,1,1.26,7.66c.16,2.43,1.87,9.34,3.24,14.9q1.22,4.36,2,8.83c0,2.37-.62,3.67-1.73,3.67a3.61,3.61,0,0,1-1.92-1,4,4,0,0,0-2.07-1.06h-.91c-1.13.07-2.3.15-2.81-.87a3.38,3.38,0,0,1,.2-2.28,5.38,5.38,0,0,0,.21-3.43c-.85-2.11-7.46-19.81-8.32-22.49-.5-1.59-.56-8.28-.61-14.18a80.7,80.7,0,0,0-.23-8.23c-.17-.73-.28-.65-.28-.65a1.4,1.4,0,0,0-.38.55h0l-.7,1c-.62.86-4,20.19-4.3,24.63-.16,2.26-1.67,7-3,11.18a60.93,60.93,0,0,0-2.19,7.74c-.14,1.45-.14,2.74-.14,3.79a12.4,12.4,0,0,1-.14,2.51c-.22.85-1.19.73-2.23.6a6.52,6.52,0,0,0-2.16,0,3.6,3.6,0,0,0-1.87,1.43C148.06,166.05,147.75,166.43,147.36,166.43ZM155.7,76.7a.17.17,0,0,1,.1,0,.22.22,0,0,1,.14.17c0,.11,2.11,10.36,2.39,11.45a10.77,10.77,0,0,1,0,3v.49a5.5,5.5,0,0,1-.66,1.46c-1.49,3-5.44,10.89-6.22,17.62-1,8.36.82,24.4.84,24.56a.15.15,0,0,1,0,.13,35.64,35.64,0,0,0-3.48,13.11c-.18,4.48-.87,9.36-1.33,12.6q-.25,1.52-.36,3.06a2.3,2.3,0,0,1,0,.74c0,.58,0,.84.21.88s.44-.31.72-.63a4,4,0,0,1,2.12-1.59,6.57,6.57,0,0,1,2.34,0c1,.12,1.59.17,1.7-.24a11.94,11.94,0,0,0,.13-2.39c0-1,0-2.36.14-3.83a59.4,59.4,0,0,1,2.21-7.85c1.33-4.15,2.83-8.85,3-11.06.24-3.49,3.58-23.75,4.39-24.88l.69-1c.1-.23.41-.85.87-.82s.6.6.7,1c.18.77.21,4.11.24,8.33,0,5.58.11,12.52.59,14,.86,2.68,7.46,20.35,8.31,22.45a5.85,5.85,0,0,1-.19,3.74,3.31,3.31,0,0,0-.23,1.94c.37.73,1.28.68,2.35.61h.94a4.49,4.49,0,0,1,2.36,1.15,3.5,3.5,0,0,0,1.62.89c1.13,0,1.25-2.23,1.25-3.19,0-.75-1-4.63-2-8.72-1.45-5.86-3.09-12.51-3.26-15a38.4,38.4,0,0,0-1.25-7.6v-.09c0-.2,1.82-19.91,1.4-24.15s-4-15.13-4.06-15.24v-.12L176.94,78a.24.24,0,0,1,.13-.18.31.31,0,0,1,.23,0c.32.18,7.79,4.38,10.46,7.85,1.65,2.16,2.81,2.69,3.31,2.5s.56-.8.47-1.77c-.28-2.76-7-11-10.32-14.46-2.29-2.36-5.14-2.84-7.22-3.19a6.64,6.64,0,0,1-2.43-.68c-1.31-.91-.88-7.94-.71-10.19L166.19,62a40,40,0,0,1-1,5.54c-.29.66-1.82,1-4.3,1.39a24.72,24.72,0,0,0-3.7.83c-2.07.77-6.58,4.48-9.88,7.59C144.5,80,142,86.7,141.79,88.09a25.66,25.66,0,0,0,2.41-2.48c.86-1,1.83-2,2.77-2.94,2.66-2.63,8.37-5.88,8.62-6Z" transform="translate(0 0)" fill="#3f4553"/><path d="M174.82,163.34c.56,1.11,2.1.69,3.51.69s2.86,2.05,4,2.05,1.49-1.63,1.49-3.44-5-19.4-5.23-23.72a39.54,39.54,0,0,0-1.26-7.65s1.82-19.88,1.4-24.19a20.87,20.87,0,0,0-.42-2.49l-24.87-2.44a37.86,37.86,0,0,0-2.23,8.64c-1,8.49.84,24.62.84,24.62a35.74,35.74,0,0,0-3.51,13.21c-.28,7-1.82,15.16-1.68,15.71s-.28,1.67.42,1.81,1.26-1.81,2.95-2.22,3.92.69,4.21-.42,0-3.33.28-6.26,4.91-14.88,5.19-18.91,3.65-23.78,4.36-24.75l.7-1s.7-1.67,1.12.13,0,19.75.84,22.39,7.47,20.39,8.32,22.47S174.26,162.23,174.82,163.34Z" transform="translate(0 0)" fill="#3f4553"/><path d="M147.36,166.43h-.12c-.68-.13-.64-.85-.6-1.37a2.08,2.08,0,0,0,0-.61,18.31,18.31,0,0,1,.36-3.3c.45-3.22,1.14-8.1,1.32-12.54a36.12,36.12,0,0,1,3.5-13.25c-.13-1.17-1.78-16.47-.84-24.59a38.62,38.62,0,0,1,2.25-8.71.25.25,0,0,1,.25-.16l24.85,2.4a.21.21,0,0,1,.21.19A24,24,0,0,1,179,107c.41,4.22-1.28,22.9-1.4,24.19a39.77,39.77,0,0,1,1.26,7.66c.16,2.43,1.87,9.34,3.24,14.9.81,2.91,1.48,5.86,2,8.83,0,2.37-.62,3.68-1.73,3.68a3.61,3.61,0,0,1-1.92-1,4.15,4.15,0,0,0-2.07-1.06h-.91c-1.13.07-2.3.15-2.81-.86a3.41,3.41,0,0,1,.2-2.29,5.45,5.45,0,0,0,.21-3.43c-.85-2.11-7.46-19.8-8.32-22.49-.5-1.58-.56-8.27-.61-14.18a80.7,80.7,0,0,0-.23-8.23c-.17-.73-.28-.65-.28-.65a1.4,1.4,0,0,0-.38.55v0l-.7,1c-.62.86-4,20.19-4.3,24.63-.16,2.26-1.67,7-3,11.18a60.93,60.93,0,0,0-2.19,7.74c-.14,1.45-.14,2.74-.14,3.79a12.4,12.4,0,0,1-.14,2.51c-.22.85-1.19.73-2.23.6a6.53,6.53,0,0,0-2.16,0,3.6,3.6,0,0,0-1.87,1.43C148.06,166.05,147.75,166.43,147.36,166.43Zm6.25-64a38.3,38.3,0,0,0-2.16,8.42c-1,8.36.82,24.4.84,24.56a.15.15,0,0,1,0,.13,35.64,35.64,0,0,0-3.48,13.12c-.18,4.47-.87,9.35-1.33,12.59q-.25,1.51-.36,3.06a2.3,2.3,0,0,1,0,.74c0,.58,0,.84.21.88s.44-.31.72-.63a4,4,0,0,1,2.12-1.59,6.57,6.57,0,0,1,2.34,0c1,.12,1.59.17,1.7-.24a11.94,11.94,0,0,0,.13-2.39c0-1.05,0-2.36.14-3.83a57.51,57.51,0,0,1,2.21-7.85c1.33-4.15,2.83-8.85,3-11.06.24-3.49,3.58-23.75,4.39-24.88l.69-.95c.1-.23.41-.85.87-.82s.6.6.7,1c.18.77.2,4.11.24,8.33,0,5.58.11,12.52.59,14,.86,2.68,7.46,20.35,8.31,22.45a5.85,5.85,0,0,1-.19,3.74,3.31,3.31,0,0,0-.23,1.94c.37.73,1.28.68,2.35.61h.94a4.49,4.49,0,0,1,2.36,1.15,3.5,3.5,0,0,0,1.62.89c1.13,0,1.25-2.23,1.25-3.19,0-.75-1-4.63-2-8.72-1.46-5.86-3.09-12.51-3.26-15a38.4,38.4,0,0,0-1.25-7.6v-.09c0-.2,1.82-19.91,1.4-24.15a19.88,19.88,0,0,0-.38-2.29Z" transform="translate(0 0)" fill="#3f4553"/><path d="M181.38,71.8c-3.5-3.62-8.28-2.92-9.68-3.9-1-.71-.85-6-.69-8.81l-.9-.85L166,61.92a43.61,43.61,0,0,1-1,5.57c-.42,1-5.61,1.25-7.86,2.08s-6.85,4.74-9.81,7.51l2.91,3.36c2.63-1.88,5.5-3.5,5.5-3.5s2.11,10.35,2.39,11.47a13.65,13.65,0,0,1,0,3.38,107.1,107.1,0,0,0-5.29,12.26c4,1.83,11.94,3.92,25.82,2.26-.72-4.72-4-14.53-4-14.53l2.52-13.73s2.43,1.36,5,3.16l4-3.84A68.71,68.71,0,0,0,181.38,71.8Z" transform="translate(0 0)" fill="#9776a5"/><path d="M169.06,107.15c-8,0-13.2-1.45-16.36-2.89a.23.23,0,0,1-.13-.29,82.12,82.12,0,0,1,4.67-11c.31-.63.59-1.18.61-1.28a4.34,4.34,0,0,1,0-.51,10,10,0,0,0,0-2.79c-.25-1-2-9.34-2.33-11.14-.79.46-3.07,1.82-5.19,3.32a.22.22,0,0,1-.31,0h0l-2.91-3.36a.24.24,0,0,1,0-.33c2.54-2.39,7.49-6.67,9.9-7.56a25.39,25.39,0,0,1,3.77-.85c1.67-.29,3.75-.65,3.95-1.1a44.67,44.67,0,0,0,1-5.5.18.18,0,0,1,.08-.15L170,58a.26.26,0,0,1,.33,0l.9.84a.2.2,0,0,1,.08.19c-.35,5.8.07,8.25.59,8.6a6.43,6.43,0,0,0,2.23.6c2.14.36,5.08.85,7.48,3.33,1.4,1.44,3.21,3.53,4.85,5.59a.22.22,0,0,1,0,.31h0l-4,3.85a.24.24,0,0,1-.3,0c-2-1.41-4-2.56-4.72-3L175,91.72c.27.82,3.29,10,4,14.51a.24.24,0,0,1-.21.27h0A81.25,81.25,0,0,1,169.06,107.15Zm-16-3.24c4.24,1.88,12,3.74,25.25,2.19-.77-4.73-3.89-14.15-3.92-14.24a.24.24,0,0,1,0-.12L176.91,78a.24.24,0,0,1,.27-.2h.09s2.37,1.33,4.89,3.06l3.71-3.55c-1.59-2-3.33-4-4.68-5.39-2.29-2.36-5.14-2.84-7.22-3.19a6.64,6.64,0,0,1-2.43-.68c-.84-.58-1.11-3.58-.79-8.92l-.66-.62L166.16,62a38.52,38.52,0,0,1-1,5.54c-.28.66-1.82,1-4.3,1.39a24.69,24.69,0,0,0-3.7.82c-2,.75-6.31,4.27-9.57,7.3l2.62,3c2.57-1.82,5.32-3.37,5.34-3.39a.22.22,0,0,1,.22,0,.24.24,0,0,1,.14.18c0,.1,2.11,10.35,2.39,11.44a10.77,10.77,0,0,1,0,3v.5a5.94,5.94,0,0,1-.66,1.45,84.63,84.63,0,0,0-4.55,10.7Z" transform="translate(0 0)" fill="#3f4553"/><path d="M174.55,68.62a8.79,8.79,0,0,1-2.85-.72c-1-.71-.85-6-.69-8.82l-.9-.84L166,61.92a42.07,42.07,0,0,1-1,5.56c-.16.38-1,.65-2.17.89.93,2.78,3,7.75,5.68,7.75S173.4,71.44,174.55,68.62Z" transform="translate(0 0)" fill="#fed9ce"/><path d="M168.47,76.37c-2.83,0-4.92-5-5.91-7.92a.23.23,0,0,1,0-.2.28.28,0,0,1,.16-.12c1.54-.32,1.94-.58,2-.74a42.86,42.86,0,0,0,1-5.5.28.28,0,0,1,.08-.15l4.2-3.68a.26.26,0,0,1,.33,0l.91.84a.27.27,0,0,1,.08.19c-.35,5.8.07,8.25.58,8.6a6.42,6.42,0,0,0,2.24.6l.51.08a.3.3,0,0,1,.17.12.26.26,0,0,1,0,.21C173.35,72.2,171.09,76.37,168.47,76.37Zm-5.37-7.82c.83,2.39,2.84,7.33,5.37,7.33s4.58-4.31,5.74-7.07H174a6.64,6.64,0,0,1-2.43-.68c-.84-.58-1.11-3.58-.8-8.92l-.66-.62-3.93,3.48a38.52,38.52,0,0,1-1,5.54C165,68,164.41,68.25,163.1,68.55Z" transform="translate(0 0)" fill="#3f4553"/><path d="M171,59.59a8.41,8.41,0,0,0-1.5.26,15.9,15.9,0,0,0-2.77,1.38l-.77.69s-.23,1.87-.5,3.47a17.3,17.3,0,0,0,5.45-3C170.9,61.39,170.94,60.42,171,59.59Z" transform="translate(0 0)" fill="#c6ff00"/><path d="M171,59.59a8.41,8.41,0,0,0-1.5.26,15.9,15.9,0,0,0-2.77,1.38l-.77.69s-.23,1.87-.5,3.47a17.3,17.3,0,0,0,5.45-3C170.9,61.39,170.94,60.42,171,59.59Z" transform="translate(0 0)" fill="#bfb2aa"/><path d="M165.52,130.94a27.69,27.69,0,1,0-.26,0Z" transform="translate(0 0)" fill="#fa6e5a"/><path d="M174.66,126.29a27.5,27.5,0,0,1-17-49.34,27.59,27.59,0,1,0,24.89,48.2A28.09,28.09,0,0,1,174.66,126.29Z" transform="translate(0 0)" fill="#e3604d"/><path d="M146,93.15a1.08,1.08,0,0,1-1-.83,1.05,1.05,0,0,1,.78-1.26h0l7.67-1.75L149,88a1.07,1.07,0,0,1-.71-1.33,1.09,1.09,0,0,1,1.35-.7l8.21,2.54a1.07,1.07,0,0,1,.7,1.34,1.09,1.09,0,0,1-.77.72l-11.53,2.62Z" transform="translate(0 0)" fill="#3f4553"/><path d="M184.46,93.15h-.26l-11-2.63a1.08,1.08,0,0,1-.82-1,1.06,1.06,0,0,1,.77-1L181.78,86a1.06,1.06,0,0,1,.94,1.9,1.26,1.26,0,0,1-.33.1l-4.8,1.42,7.12,1.7a1.06,1.06,0,0,1,.79,1.27h0A1.09,1.09,0,0,1,184.46,93.15Z" transform="translate(0 0)" fill="#3f4553"/><path d="M144.27,97.68c2.81,11.94,11.26,20.61,21.25,20.61s18.45-8.67,21.25-20.61l-3.69-.6a107.34,107.34,0,0,0-35.63.07Z" transform="translate(0 0)" fill="#3f4553"/><path d="M180,110.15a28.13,28.13,0,0,0-28.83.15c3.88,4.31,8.88,6.92,14.35,6.92S176.11,114.57,180,110.15Z" transform="translate(0 0)" fill="#4e5567"/><path d="M161.88,50.29a45.15,45.15,0,0,1-1.82,4.59c-.85,1.67.42,6.81,1.4,8.34s2.8,1.25,3.5,1.11a19.66,19.66,0,0,0,4.92-3.18l1.68-1.67s.56,0,1.12-1.11S171,54.74,169,51.68s-2.81-2.92-2.81-2.92Z" transform="translate(0 0)" fill="#fed9ce"/><path d="M163.91,64.68a3,3,0,0,1-2.66-1.33c-1-1.58-2.31-6.8-1.41-8.58a47,47,0,0,0,1.81-4.56.28.28,0,0,1,.15-.15l4.35-1.53c.21,0,1.14,0,3.09,3,.53.82,1.06,1.58,1.58,2.32,1.49,2.12,2.57,3.65,2.09,4.59s-1,1.18-1.23,1.23l-1.63,1.62a19.4,19.4,0,0,1-5,3.26A6.32,6.32,0,0,1,163.91,64.68Zm-1.84-14.21a40.74,40.74,0,0,1-1.8,4.51c-.8,1.59.48,6.69,1.4,8.11.62,1,1.72,1.31,3.25,1A19.34,19.34,0,0,0,169.71,61l1.69-1.66a.22.22,0,0,1,.17-.07s.43,0,.9-1c.35-.69-.76-2.27-2.05-4.11-.52-.74-1-1.51-1.59-2.33-1.62-2.53-2.43-2.78-2.56-2.81Z" transform="translate(0 0)" fill="#3f4553"/><path d="M162.86,57.22h-.08c-1.47-.56-1.34-.94-1.3-1.06.1-.29,1.23-1.94,1.57-2.44a.23.23,0,0,1,.32-.07h0a.24.24,0,0,1,.07.33c-.65.93-1.34,2-1.49,2.26a3.4,3.4,0,0,0,1,.52.24.24,0,0,1,.14.31h0A.25.25,0,0,1,162.86,57.22Z" transform="translate(0 0)" fill="#3f4553"/><path d="M167.76,55a.22.22,0,0,1-.21-.14,1.57,1.57,0,0,0-.87-.88,1.45,1.45,0,0,0-.92,0,.25.25,0,0,1-.34,0h0a.26.26,0,0,1,.05-.34h.07a1.82,1.82,0,0,1,1.3-.07A2,2,0,0,1,168,54.69a.25.25,0,0,1-.12.32Z" transform="translate(0 0)" fill="#3f4553"/><path d="M162.57,53.7a.23.23,0,0,1-.19-.1,1,1,0,0,0-.57-.35,1,1,0,0,0-.71.29.26.26,0,0,1-.35,0,.24.24,0,0,1,0-.35,1.39,1.39,0,0,1,1.09-.41,1.37,1.37,0,0,1,.91.55.23.23,0,0,1-.05.32h0A.21.21,0,0,1,162.57,53.7Z" transform="translate(0 0)" fill="#3f4553"/><path d="M168.53,53.51a.23.23,0,0,1-.22-.17c-.68-1.93-1.88-1.66-1.92-1.65a.25.25,0,0,1-.3-.17.24.24,0,0,1,.17-.29s1.67-.42,2.5,2a.24.24,0,0,1-.14.3h0Z" transform="translate(0 0)" fill="#3f4553"/><path d="M161.42,52.55h-.1a.22.22,0,0,1-.12-.3h0a1.61,1.61,0,0,1,1.08-1,1.67,1.67,0,0,1,1.3.31.21.21,0,0,1,0,.31h0a.24.24,0,0,1-.34.05h0a1.25,1.25,0,0,0-.9-.23,1.2,1.2,0,0,0-.75.71A.23.23,0,0,1,161.42,52.55Z" transform="translate(0 0)" fill="#3f4553"/><path d="M162,58.31a4.88,4.88,0,0,0,3.94-.57s-1.16,1.72-2.5,1.91S162,58.31,162,58.31Z" transform="translate(0 0)" fill="#3f4553"/><path d="M146.37,78.15s-6.08,5.06-7.05,8.31-.24,10.72-.36,13a7.57,7.57,0,0,0,2.18,5.3c.73.48.85-.36.73-1.2s-.12-5.18-.12-5.18,1.1,3.12,1.22,2.53a7.46,7.46,0,0,0-.37-3.38c-.48-1.68-1.7-4.09-1.58-4.57s4-7.71,4.62-10" transform="translate(0 0)" fill="#fed9ce"/><path d="M141.52,105.15A1,1,0,0,1,141,105a7.71,7.71,0,0,1-2.3-5.52c0-.68,0-1.84,0-3.19-.11-3.19-.27-7.55.42-9.86,1-3.29,6.88-8.22,7.13-8.43a.25.25,0,0,1,.34,0h0a.24.24,0,0,1,0,.33c-.06,0-6,5.06-7,8.2-.66,2.24-.51,6.56-.4,9.71,0,1.36.08,2.54,0,3.24a7.29,7.29,0,0,0,2.08,5.09.45.45,0,0,0,.27.1c.09-.06.18-.43.09-1.07-.12-.84-.13-5-.13-5.21a.24.24,0,0,1,.2-.23.26.26,0,0,1,.28.15c.25.74.58,1.57.8,2.06a8.88,8.88,0,0,0-.41-2.76c-.21-.72-.57-1.61-.88-2.38a5.76,5.76,0,0,1-.71-2.32,16.48,16.48,0,0,1,1.06-2.2,67.53,67.53,0,0,0,3.56-7.79.26.26,0,0,1,.3-.18.23.23,0,0,1,.17.27v0h0a65,65,0,0,1-3.59,7.88,20.34,20.34,0,0,0-1,2.11,10.06,10.06,0,0,0,.69,2c.32.79.68,1.68.9,2.43a7.49,7.49,0,0,1,.36,3.48.28.28,0,0,1-.27.27c-.14,0-.34,0-.93-1.47a33.84,33.84,0,0,0,.11,3.77c.11.52.12,1.27-.31,1.54A.54.54,0,0,1,141.52,105.15Z" transform="translate(0 0)" fill="#3f4553"/><path d="M141.47,104.92a.27.27,0,0,1-.22-.16,26.68,26.68,0,0,1-1.17-4.82.24.24,0,0,1,.2-.27.25.25,0,0,1,.28.2,27.51,27.51,0,0,0,1.14,4.72.25.25,0,0,1-.15.31Z" transform="translate(0 0)" fill="#3f4553"/><path d="M140.61,104.34a.25.25,0,0,1-.22-.13,17.17,17.17,0,0,1-1.27-4.07.24.24,0,0,1,.17-.28h0a.24.24,0,0,1,.29.18h0A17.47,17.47,0,0,0,140.8,104a.24.24,0,0,1-.1.32Z" transform="translate(0 0)" fill="#3f4553"/><path d="M186.45,78.15s6.08,5.06,7.05,8.31.25,10.72.37,13a7.52,7.52,0,0,1-2.19,5.3c-.72.48-.85-.36-.73-1.2s.12-5.18.12-5.18-1.09,3.12-1.21,2.53a7.61,7.61,0,0,1,.36-3.38c.49-1.68,1.7-4.09,1.58-4.57s-4-7.71-4.62-10" transform="translate(0 0)" fill="#fed9ce"/><path d="M191.31,105.15a.6.6,0,0,1-.29-.08c-.42-.27-.37-1.08-.31-1.54s.1-2.44.11-3.77c-.59,1.49-.78,1.48-.93,1.47a.28.28,0,0,1-.27-.27,7.63,7.63,0,0,1,.36-3.48c.22-.75.58-1.64.9-2.43a9.44,9.44,0,0,0,.68-2c0-.14-.52-1.1-1-2.11A64.83,64.83,0,0,1,187,83.06a.24.24,0,0,1,.16-.3h0a.26.26,0,0,1,.3.18A65.75,65.75,0,0,0,191,90.73a22.24,22.24,0,0,1,1.06,2.2c.09.33-.18,1-.7,2.32a25.14,25.14,0,0,0-.88,2.38,8.6,8.6,0,0,0-.42,2.76c.23-.49.55-1.32.81-2.06a.24.24,0,0,1,.27-.15.23.23,0,0,1,.2.23c0,.18,0,4.36-.12,5.21-.09.64,0,1,.09,1.07s.12,0,.27-.1a7.29,7.29,0,0,0,2.08-5.09c0-.7,0-1.88.05-3.24.11-3.15.26-7.47-.41-9.71-.94-3.14-6.91-8.14-7-8.2a.24.24,0,0,1,0-.33h0a.25.25,0,0,1,.34,0h0c.25.21,6.14,5.14,7.12,8.43.69,2.31.54,6.67.43,9.86,0,1.35-.09,2.52-.06,3.19a7.74,7.74,0,0,1-2.29,5.52A1,1,0,0,1,191.31,105.15Z" transform="translate(0 0)" fill="#3f4553"/><path d="M191.32,104.72h-.06a.24.24,0,0,1-.19-.27h0a24.52,24.52,0,0,0,.77-4.9.24.24,0,0,1,.24-.24h0a.24.24,0,0,1,.24.24h0a24.9,24.9,0,0,1-.78,5A.23.23,0,0,1,191.32,104.72Z" transform="translate(0 0)" fill="#3f4553"/><path d="M192.18,104.63h-.08a.23.23,0,0,1-.14-.29h0A21.68,21.68,0,0,0,193.1,100a.24.24,0,0,1,.24-.24h0a.24.24,0,0,1,.24.24h0a20.3,20.3,0,0,1-1.17,4.47A.24.24,0,0,1,192.18,104.63Z" transform="translate(0 0)" fill="#3f4553"/><path d="M80.58,180.29c21.91,0,39.66-4.13,39.66-9.24s-17.75-9.24-39.66-9.24-39.66,4.13-39.66,9.24S58.68,180.29,80.58,180.29Z" transform="translate(0 0)" fill="#f4a17c" opacity="0.4" style="isolation:isolate"/><path d="M82.87,180.3c23.19,0,42-4.13,42-9.22s-18.79-9.21-42-9.21-42,4.12-42,9.21S59.68,180.3,82.87,180.3Z" transform="translate(0 0)" fill="#f4a17c" opacity="0.4" style="isolation:isolate"/><path d="M63.92,164.62s-5.88,3.07-7,4.65.37,2.85,2.58,3,11.31-2.88,12.13-3.27.22-2.78-.37-4S63.92,164.62,63.92,164.62Z" transform="translate(0 0)" fill="#e49621"/><path d="M59.68,172.52h-.19a3.53,3.53,0,0,1-3-1.5,1.77,1.77,0,0,1,.26-1.87c1.13-1.62,6.83-4.6,7.07-4.73h.08c1.16-.15,7-.81,7.6.5a9.52,9.52,0,0,1,.74,2.38c.16,1.06,0,1.71-.49,1.94C70.92,169.6,62.24,172.52,59.68,172.52ZM64,164.85c-.51.27-5.85,3.1-6.87,4.56a1.33,1.33,0,0,0-.22,1.39,3.07,3.07,0,0,0,2.62,1.2c2.18.16,11.19-2.86,12-3.25.25-.12.33-.65.21-1.43a8,8,0,0,0-.69-2.25C70.69,164.36,66.72,164.51,64,164.85Z" transform="translate(0 0)" fill="#3f4553"/><path d="M71.94,167.05c-2.33,1-8.76,3.74-11,4a7.64,7.64,0,0,1-4.39-.93c-.15,1.16,1.15,2,2.94,2.13,2.21.16,11.3-2.88,12.13-3.27C72.09,168.78,72.11,168,71.94,167.05Z" transform="translate(0 0)" fill="#f1bd54"/><path d="M59.68,172.52h-.19a4,4,0,0,1-2.79-1.14,1.67,1.67,0,0,1-.38-1.25.26.26,0,0,1,.13-.19.22.22,0,0,1,.22,0,7.49,7.49,0,0,0,4.25.91c2.22-.28,8.92-3.14,10.92-4a.25.25,0,0,1,.32.12V167c.23,1.2.08,2-.43,2.2C70.92,169.6,62.23,172.52,59.68,172.52Zm-2.87-2a1.28,1.28,0,0,0,.26.52,3.49,3.49,0,0,0,2.45,1c2.17.16,11.19-2.86,12-3.25.24-.12.32-.63.22-1.38-2.73,1.18-8.63,3.64-10.77,3.91a8,8,0,0,1-4.16-.78Z" transform="translate(0 0)" fill="#3f4553"/><path d="M92.4,164.62s5.88,3.07,7,4.65-.37,2.85-2.58,3S85.51,169.39,84.69,169s-.22-2.78.37-4S92.4,164.62,92.4,164.62Z" transform="translate(0 0)" fill="#e49621"/><path d="M96.65,172.52c-2.57,0-11.25-2.92-12.07-3.31-.48-.23-.64-.88-.48-1.94a8.66,8.66,0,0,1,.74-2.38c.64-1.32,6.43-.65,7.59-.5h.08c.24.13,5.95,3.11,7.08,4.73a1.77,1.77,0,0,1,.26,1.87,3.53,3.53,0,0,1-3,1.5Zm-8.56-8c-1.46,0-2.63.14-2.82.53a8,8,0,0,0-.69,2.25c-.13.78,0,1.31.21,1.43.8.39,9.41,3.26,11.84,3.26h.17a3.08,3.08,0,0,0,2.62-1.24,1.33,1.33,0,0,0-.22-1.39c-1-1.46-6.36-4.28-6.87-4.55a33.38,33.38,0,0,0-4.24-.24Z" transform="translate(0 0)" fill="#3f4553"/><path d="M84.38,167.05c2.33,1,8.77,3.74,11,4a7.64,7.64,0,0,0,4.39-.93c.15,1.16-1.16,2-2.94,2.13-2.21.16-11.31-2.88-12.13-3.27C84.23,168.78,84.21,168,84.38,167.05Z" transform="translate(0 0)" fill="#f1bd54"/><path d="M96.65,172.52c-2.57,0-11.25-2.92-12.07-3.31-.51-.24-.66-1-.44-2.2a.23.23,0,0,1,.13-.16.2.2,0,0,1,.21,0c2,.86,8.7,3.72,10.91,4a7.52,7.52,0,0,0,4.26-.91.22.22,0,0,1,.22,0,.26.26,0,0,1,.13.19,1.58,1.58,0,0,1-.38,1.25,4,4,0,0,1-2.79,1.14ZM84.57,167.4c-.11.75,0,1.26.22,1.38.8.39,9.41,3.26,11.84,3.26h.17a3.59,3.59,0,0,0,2.44-1,1.17,1.17,0,0,0,.27-.53,7.83,7.83,0,0,1-4.18.78C93.19,171,87.3,168.58,84.57,167.4Z" transform="translate(0 0)" fill="#3f4553"/><path d="M66.83,104.66l-6.1,26.23c-.75,3.23-1.29,7-.42,9.17S64,163.89,64,163.89l8,2.17s.1-13.9-.16-19.36-.58-12.37-.58-12.37l8.52-21,1.4,1.82L87.56,134l-3.75,31.61,7.62-2S98,143.5,99.06,139.32s1.57-7,.74-8.92S93.57,107,93.57,107Z" transform="translate(0 0)" fill="#3f4553"/><path d="M72,166.3h-.07l-8-2.17a.25.25,0,0,1-.17-.2c0-.22-2.8-21.63-3.65-23.78-.72-1.85-.59-4.89.41-9.31.74-3.24,6-26,6.1-26.23a.25.25,0,0,1,.26-.19l26.73,2.4a.23.23,0,0,1,.21.18c.06.22,5.41,21.45,6.22,23.33s.39,4.67-.73,9.07c-1.06,4.15-7.56,24.11-7.62,24.31a.25.25,0,0,1-.17.16l-7.63,2a.23.23,0,0,1-.22-.06.22.22,0,0,1-.09-.21L87.33,134,81,115.24l-1.12-1.48-8.34,20.61c0,.64.32,7.13.58,12.32.26,5.4.16,19.23.16,19.37a.25.25,0,0,1-.09.19A.25.25,0,0,1,72,166.3Zm-7.8-2.6,7.56,2c0-2.08.08-14.09-.17-19-.26-5.46-.57-12.36-.57-12.36a.21.21,0,0,1,0-.11l8.52-21a.23.23,0,0,1,.31-.1h0a.2.2,0,0,1,.09.09l1.41,1.84v.07L87.75,134a.21.21,0,0,1,0,.11L84,165.37l7.15-1.85c.56-1.71,6.57-20.2,7.58-24.16,1.09-4.29,1.54-7,.76-8.76s-5.66-21.09-6.2-23.24L67,104.91c-.53,2.28-5.35,23-6,26-1,4.33-1.12,7.28-.43,9,.8,2.24,3.34,21.67,3.62,23.79Z" transform="translate(0 0)" fill="#3f4553"/><path d="M86.37,160.81h0a.25.25,0,0,1-.21-.27c0-.23,2.79-23,2.94-24.33.07-.65.09-.84.54-.87a3,3,0,0,0,1.65-.69c.24-.16.39-.27.49-.35h-.43a5,5,0,0,1-2-.2c-1.36-.59-5-12.48-5.65-14.86a.24.24,0,0,1,.16-.3h0a.24.24,0,0,1,.3.16h0c2,6.79,4.59,14.2,5.38,14.54a4.38,4.38,0,0,0,1.8.17c.64,0,1,0,1.09.26s-.12.47-.85,1a3.48,3.48,0,0,1-1.9.77h0v.45c-.15,1.28-2.92,24.1-2.94,24.33a.26.26,0,0,1-.31.2h-.06Z" transform="translate(0 0)" fill="#4e5567"/><path d="M71.52,155.8a.25.25,0,0,1-.24-.21l-.2-1.72a.24.24,0,0,1,.26-.22h0a.21.21,0,0,1,.21.17l.21,1.71a.26.26,0,0,1-.22.27Z" transform="translate(0 0)" fill="#4e5567"/><path d="M71,151.53a.25.25,0,0,1-.24-.21L69,136c-.32-.07-1.06-.23-2-.5-.18,0-.55-.15-.56-.43s.36-.48,1.2-.81a14.62,14.62,0,0,0,2.17-1.08c.89-.56,3-5.14,5.79-12.57a.24.24,0,0,1,.31-.14h0a.23.23,0,0,1,.15.29h0c-2,5.4-4.72,12-6,12.8a13.73,13.73,0,0,1-2.29,1.09c-.28.11-.58.23-.77.32h.07c1.29.36,2.16.52,2.17.53a.23.23,0,0,1,.19.2l1.82,15.53a.23.23,0,0,1-.2.26h0Z" transform="translate(0 0)" fill="#4e5567"/><path d="M76.75,118.43h-.08a.24.24,0,0,1-.14-.31h0c.33-.9.52-1.45.52-1.45a.23.23,0,0,1,.28-.16h0a.24.24,0,0,1,.15.3L77,118.27A.25.25,0,0,1,76.75,118.43Z" transform="translate(0 0)" fill="#4e5567"/><path d="M83,67.3s-13-2.11-18.21-3-9.72-1.81-9.72-1.81l-2.28,7.24S63.2,73.15,65.93,74s3.81,1.25,3.81,1.25S70.1,92.67,69,96.42s-3.65,11.31-3.65,11.31l13.37,7.42,2.68-4.1.21,3.88a38.18,38.18,0,0,0,8-1.45,28.3,28.3,0,0,0,6.08-2.65l-3-13.07,4.09-16.87s20.65-4.06,20.77-5.38-2.84-6.15-2.84-6.15l-28-1.81Z" transform="translate(0 0)" fill="#fff9f1"/><path d="M78.7,115.4h-.12L65.21,108a.24.24,0,0,1-.11-.28c0-.08,2.54-7.6,3.65-11.31,1-3.49.79-19.22.75-21-.37-.15-1.5-.56-3.64-1.19-2.7-.8-13-4.24-13.11-4.27a.26.26,0,0,1-.15-.3l2.27-7.23a.25.25,0,0,1,.28-.17s4.55.89,9.72,1.81,17.74,3,18.19,3l3.67.25,28,1.81a.25.25,0,0,1,.19.12c.31.5,3,4.94,2.87,6.29,0,.35-.09,1-10.61,3.4-4.63,1-9.3,2-10.19,2.17L93,97.71l3,13a.23.23,0,0,1-.11.25,28.44,28.44,0,0,1-6.14,2.68,38.2,38.2,0,0,1-8,1.46.23.23,0,0,1-.18-.06.21.21,0,0,1-.08-.17l-.17-3.14L79,115.21a.25.25,0,0,1-.27.21Zm-13.08-7.77,13,7.21,2.56-3.91a.24.24,0,0,1,.33-.07.21.21,0,0,1,.11.19l.2,3.63a36.48,36.48,0,0,0,7.68-1.42,30.1,30.1,0,0,0,5.89-2.54l-3-12.9a.21.21,0,0,1,0-.11l4.1-16.86a.25.25,0,0,1,.19-.18c9.63-1.9,20.12-4.36,20.58-5.19.08-1-1.9-4.47-2.75-5.87l-27.85-1.8L83,67.55h0c-.13,0-13-2.13-18.2-3-4.54-.81-8.56-1.59-9.51-1.77l-2.15,6.81C54.67,70.1,63.54,73,66,73.78c2.71.81,3.79,1.24,3.83,1.26a.24.24,0,0,1,.15.22c0,.71.35,17.54-.77,21.28C68.2,99.88,66,106.43,65.62,107.63Z" transform="translate(0 0)" fill="#3f4553"/><path d="M78.49,66.4l-.57,8.28L84.77,72l7.29,5.57-.24-10.88Z" transform="translate(0 0)" fill="#fff"/><path d="M92.06,77.83a.38.38,0,0,1-.15,0L84.73,72.3,78,74.91a.26.26,0,0,1-.24,0,.24.24,0,0,1-.09-.21l.56-8.28a.25.25,0,0,1,.25-.22l13.34.31a.23.23,0,0,1,.23.23h0l.23,10.88a.23.23,0,0,1-.13.22Zm-7.29-6a.38.38,0,0,1,.15,0l6.89,5.26L91.59,67l-12.88-.3-.52,7.67,6.5-2.52Z" transform="translate(0 0)" fill="#3f4553"/><path d="M81.65,110.5h0a.22.22,0,0,1-.22-.22v0h0L84.1,78.55a.24.24,0,0,1,.48,0l-2.69,31.69a.24.24,0,0,1-.22.26h0Z" transform="translate(0 0)" fill="#3f4553"/><path d="M96.75,81.15h-.13a.23.23,0,0,1-.08-.3l3.23-6.77a.26.26,0,0,1,.33-.11.24.24,0,0,1,.11.32l-2.57,5.38,5.87-6.23a.25.25,0,0,1,.34,0,.22.22,0,0,1,0,.32h0l-6.93,7.35A.25.25,0,0,1,96.75,81.15Z" transform="translate(0 0)" fill="#3f4553"/><path d="M69.74,75.45a.25.25,0,0,1-.19-.09l-5.31-6.92a.24.24,0,0,1,0-.33h0a.25.25,0,0,1,.34,0l4.2,5.46L67.31,70a.24.24,0,0,1,.13-.31.26.26,0,0,1,.32.13L70,75.15a.23.23,0,0,1-.1.29A.18.18,0,0,1,69.74,75.45Z" transform="translate(0 0)" fill="#3f4553"/><path d="M81.63,67.07l2.7,11.5,4.85-10.85-2.48-.16L83,67.31Z" transform="translate(0 0)" fill="#fff"/><path d="M84.33,78.81h0a.24.24,0,0,1-.21-.19L81.39,67.15a.29.29,0,0,1,.06-.22.26.26,0,0,1,.22-.07l1.4.23,6.13.41a.25.25,0,0,1,.19.12.22.22,0,0,1,0,.22L84.54,78.68A.23.23,0,0,1,84.33,78.81ZM82,67.37l2.46,10.44,4.41-9.87-5.81-.4Z" transform="translate(0 0)" fill="#3f4553"/><path d="M81.63,67.07l2.7,11.5,4.85-10.85-2.48-.16L83,67.31Z" transform="translate(0 0)" fill="#c6ff00"/><path d="M81.63,67.07l2.7,11.5,4.85-10.85-2.48-.16L83,67.31Z" transform="translate(0 0)" fill="#fed9ce"/><path d="M122.64,72.89s.23,1.91-.84,2.75-5.59,2.29-6.86,1.54-3.06-4.74-2.36-7.54,4.94-1.76,4.94-1.76S121.66,69.15,122.64,72.89Z" transform="translate(0 0)" fill="#fff"/><path d="M116,77.62a2.41,2.41,0,0,1-1.18-.24c-1.41-.84-3.17-5-2.47-7.8a2.89,2.89,0,0,1,2.94-2.11,8,8,0,0,1,2.29.18c.18,0,4.29,1.39,5.29,5.17h0c0,.09.24,2.06-.92,3A13.44,13.44,0,0,1,116,77.62Zm-.18-9.69c-1.19,0-2.65.31-3,1.77-.68,2.72,1.12,6.6,2.26,7.27s5.52-.69,6.58-1.52c.9-.71.76-2.35.75-2.52-.94-3.51-4.92-4.81-5-4.82A8.51,8.51,0,0,0,115.82,67.93Z" transform="translate(0 0)" fill="#575c69"/><path d="M118.8,74.92a4.23,4.23,0,0,1-4.23-3.21c-1.26-4.81-4.34-16.13-5.51-16.91-1.49-1-2.63-1.23-2.61-2.14l.1-4.54s.66-1,1.1-.07a3.11,3.11,0,0,1,.33,1.64,11.14,11.14,0,0,0,.66-2.66c-.08-.64-.23-2.36-.22-2.82s.61-.85,1.51.08,2.64,2.91,2.3,3.85-.94,5.61-.94,5.61,11.2,16.3,11,17.74A3.92,3.92,0,0,1,118.8,74.92Z" transform="translate(0 0)" fill="#fed9ce"/><path d="M118.59,75.15a4.47,4.47,0,0,1-4.25-3.39c-2.58-9.85-4.66-16.27-5.41-16.77-.43-.28-.83-.51-1.18-.7-.9-.5-1.56-.86-1.54-1.65l.1-4.53a.29.29,0,0,1,0-.13,1.08,1.08,0,0,1,.89-.57.81.81,0,0,1,.63.53q.14.3.24.6a5.79,5.79,0,0,0,.29-1.49c-.08-.62-.23-2.37-.22-2.85a.71.71,0,0,1,.47-.67c.24-.1.76-.14,1.46.58,1,1.08,2.74,3,2.35,4.11-.3.84-.83,4.82-.92,5.47,2,2.9,11.2,16.38,11,17.84a4.1,4.1,0,0,1-3.69,3.61Zm-11.81-27-.09,4.46c0,.48.41.73,1.29,1.22.36.2.77.43,1.22.72,1.13.75,3.67,9.69,5.61,17a4,4,0,0,0,4,3,3.65,3.65,0,0,0,3.24-3.22c.15-1-6.64-11.3-11-17.57a.22.22,0,0,1,0-.16,43.25,43.25,0,0,1,1-5.66c.2-.57-.68-2-2.25-3.62-.43-.44-.76-.53-.94-.46a.22.22,0,0,0-.15.23c0,.43.13,2.11.21,2.78a10.56,10.56,0,0,1-.66,2.77.25.25,0,0,1-.29.16.24.24,0,0,1-.18-.27,2.94,2.94,0,0,0-.31-1.51c-.07-.15-.16-.24-.23-.25s-.35.29-.47.43Z" transform="translate(0 0)" fill="#3f4553"/><path d="M110.38,49.86h-.06a.24.24,0,0,1-.17-.28h0l.52-1.73a5.21,5.21,0,0,1-.46-1.64.59.59,0,0,1,.26-.61.83.83,0,0,1,.87.1.22.22,0,0,1,.09.3h0a.23.23,0,0,1-.31.1h0a.7.7,0,0,0-.37-.11v.19a5.24,5.24,0,0,0,.45,1.54.28.28,0,0,1,0,.18l-.55,1.82A.29.29,0,0,1,110.38,49.86Z" transform="translate(0 0)" fill="#263238"/><path d="M109.56,49.64h-.06a.24.24,0,0,1-.18-.29h0l.41-1.64a3.16,3.16,0,0,1-.26-1.94A1,1,0,0,1,110,45a.89.89,0,0,1,.75,0,.23.23,0,0,1,.09.31h0a.24.24,0,0,1-.32.1h0a.44.44,0,0,0-.32,0c-.14.06-.21.27-.24.43a2.92,2.92,0,0,0,.24,1.7.17.17,0,0,1,0,.17l-.42,1.73A.24.24,0,0,1,109.56,49.64Z" transform="translate(0 0)" fill="#263238"/><path d="M108.86,49.6h0a.25.25,0,0,1-.2-.28l.34-2.17a14.86,14.86,0,0,1-.36-2.1.84.84,0,0,1,.26-.7,1.43,1.43,0,0,1,1-.27.24.24,0,0,1,.21.27h0a.23.23,0,0,1-.25.21h0a.88.88,0,0,0-.65.14.42.42,0,0,0-.11.32,14.45,14.45,0,0,0,.36,2.07.17.17,0,0,1,0,.1l-.4,2.24A.22.22,0,0,1,108.86,49.6Z" transform="translate(0 0)" fill="#263238"/><path d="M88.73,69.77a29.88,29.88,0,1,0-.25,0Z" transform="translate(0 0)" fill="#fa6e5a"/><path d="M68,38.85A29.83,29.83,0,0,1,93.42,10.71a29.73,29.73,0,0,0-10.3,58.56,30.38,30.38,0,0,0,4.37.44,29,29,0,0,0,5.81-.32A29.79,29.79,0,0,1,68,38.85Z" transform="translate(0 0)" fill="#ac3e2f" opacity="0.3" style="isolation:isolate"/><path d="M70.56,42.72s22-2.87,40.22,1.65c0,0-1.7,18.12-20.72,17.7C73.57,61.71,70.56,42.72,70.56,42.72Z" transform="translate(0 0)" fill="#3f4553"/><path d="M91,33.31a1.43,1.43,0,0,1-1.43-1.25A7.44,7.44,0,0,0,82,25.85a7.54,7.54,0,0,0-7.35,5.21,1.46,1.46,0,0,1-1.8,1,1.44,1.44,0,0,1-1-1.75h0A10.48,10.48,0,0,1,82,23a10.33,10.33,0,0,1,10.44,8.72,1.44,1.44,0,0,1-1.23,1.61H91Z" transform="translate(0 0)" fill="#3f4553"/><path d="M112.11,36.72a1.45,1.45,0,0,1-1.46-1.39,6.55,6.55,0,0,0-6.1-6.13,6.71,6.71,0,0,0-7,3.94,1.46,1.46,0,0,1-1.89.8,1.43,1.43,0,0,1-.81-1.85h0a9.6,9.6,0,0,1,9.92-5.73,9.45,9.45,0,0,1,8.72,8.9,1.44,1.44,0,0,1-1.4,1.48h0Z" transform="translate(0 0)" fill="#3f4553"/><path d="M73.42,43.28c.18.72,1.51,4.65,9.28,5,8.55.35,17.09,1,21.54.88,2.66-.08,3.93-2.35,4.52-4.16C95.3,41.92,80.15,42.7,73.42,43.28Z" transform="translate(0 0)" fill="#fff"/><path d="M95.75,60.62c0-4.26-4.61-7.86-10.47-8.1A12.75,12.75,0,0,0,77,54.89a17.63,17.63,0,0,0,13.31,6.18A24.84,24.84,0,0,0,95.75,60.62Z" transform="translate(0 0)" fill="#4e5567"/><path d="M63.06,164.73l9.58,3,.08-3.92-10-2Z" transform="translate(0 0)" fill="#4e5567"/><path d="M72.64,168h-.07L63,165a.24.24,0,0,1-.16-.2l-.39-3a.22.22,0,0,1,.08-.2.2.2,0,0,1,.21-.06l10,2a.24.24,0,0,1,.2.24l-.08,3.91a.26.26,0,0,1-.1.2A.32.32,0,0,1,72.64,168Zm-9.37-3.4,9.13,2.83.07-3.39L63,162Z" transform="translate(0 0)" fill="#3f4553"/><path d="M82.74,165.31l1.18,3.47L93.35,165l-.71-3.23Z" transform="translate(0 0)" fill="#4e5567"/><path d="M83.92,169h-.1a.32.32,0,0,1-.14-.14L82.5,165.4a.25.25,0,0,1,.15-.31l9.91-3.57a.21.21,0,0,1,.19,0,.2.2,0,0,1,.12.16l.72,3.23a.24.24,0,0,1-.15.27L84,169ZM83,165.45l1,3,9-3.63-.61-2.77Z" transform="translate(0 0)" fill="#3f4553"/><path d="M47.57,65.15S46.92,67,47.79,68s5,3.43,6.36,3,4-4,3.94-6.87-4.45-2.76-4.45-2.76S49.32,61.75,47.57,65.15Z" transform="translate(0 0)" fill="#fff"/><path d="M53.74,71.26c-1.81,0-5.37-2.16-6.14-3.1-.94-1.13-.3-3-.27-3.09h0c1.81-3.52,6.11-3.92,6.29-3.92,1.61,0,4.63.53,4.71,3,.08,2.87-2.54,6.58-4.1,7.1A1.61,1.61,0,0,1,53.74,71.26Zm-6-6a3.09,3.09,0,0,0,.19,2.62c.85,1,4.83,3.3,6.1,2.88s3.85-3.82,3.77-6.63c-.07-2.61-4.16-2.53-4.2-2.53s-4.14.41-5.81,3.64Z" transform="translate(0 0)" fill="#3f4553"/><path d="M49.87,67.67a4.24,4.24,0,0,0,4.82-2.23c2.27-4.44,7.72-14.85,9-15.36,1.67-.65,2.83-.65,3-1.54l.89-4.45s-.44-1.1-1.06-.3a3,3,0,0,0-.68,1.54,11.42,11.42,0,0,1-.06-2.74c.21-.61.73-2.27.82-2.71s-.42-1-1.49-.25S61.9,41.92,62,42.92s-.29,5.68-.29,5.68-14.46,13.54-14.56,15A3.87,3.87,0,0,0,49.87,67.67Z" transform="translate(0 0)" fill="#fed9ce"/><path d="M50.91,68.05A3.93,3.93,0,0,1,47,64.16a3.64,3.64,0,0,1,0-.57c.1-1.47,12-12.7,14.56-15.11A52.79,52.79,0,0,0,61.84,43c-.14-1.12,1.94-2.68,3.19-3.52.84-.56,1.33-.4,1.55-.26a.74.74,0,0,1,.31.76c-.09.47-.62,2.15-.83,2.74A4.89,4.89,0,0,0,66,44.15a3.84,3.84,0,0,1,.35-.54.77.77,0,0,1,.73-.38c.47.07.72.67.75.74a.29.29,0,0,1,0,.13L67,48.59c-.15.77-.87,1-1.85,1.28a12.53,12.53,0,0,0-1.31.43c-.84.33-4.25,6.17-8.9,15.24A4.53,4.53,0,0,1,50.91,68.05Zm-1-.61a4,4,0,0,0,4.54-2.11c3.47-6.79,7.88-15,9.15-15.47.5-.2,1-.33,1.35-.45,1-.29,1.42-.45,1.52-.92l.9-4.34c-.08-.16-.23-.36-.34-.37s-.18.06-.28.19a2.92,2.92,0,0,0-.63,1.41.25.25,0,0,1-.49,0,10.54,10.54,0,0,1,0-2.86c.22-.63.72-2.25.8-2.67a.22.22,0,0,0-.1-.26c-.15-.1-.5-.08-1,.26-1.89,1.26-3,2.45-3,3,.13,1-.27,5.54-.28,5.74a.28.28,0,0,1-.08.15C56.41,54,47.56,62.6,47.49,63.59a3.64,3.64,0,0,0,2.45,3.85Z" transform="translate(0 0)" fill="#3f4553"/><path d="M64,45.23h0a.23.23,0,0,1-.23-.23h0s.06-1.32,0-2a16.49,16.49,0,0,1,1.11-3.49.25.25,0,0,1,.32-.13.24.24,0,0,1,.13.31A16,16,0,0,0,64.25,43v2a.25.25,0,0,1-.2.28Z" transform="translate(0 0)" fill="#263238"/><path d="M63.21,45h-.48s0-1.4.06-1.92a14.91,14.91,0,0,1,.62-2.36.25.25,0,0,1,.28-.2.25.25,0,0,1,.19.28v.07a17.2,17.2,0,0,0-.6,2.24C63.25,43.57,63.21,45,63.21,45Z" transform="translate(0 0)" fill="#263238"/></g></svg>