<svg id="Layer_1" data-name="Layer 1" xmlns="http://www.w3.org/2000/svg" xmlns:xlink="http://www.w3.org/1999/xlink" viewBox="0 0 249 220.09"><defs><linearGradient id="linear-gradient" x1="170.71" y1="537.53" x2="115.69" y2="714.81" gradientTransform="translate(-2.6 -465.02)" gradientUnits="userSpaceOnUse"><stop offset="0" stop-color="#2d4d6d"/><stop offset="1" stop-color="#4b7999"/></linearGradient><linearGradient id="linear-gradient-2" x1="-69.83" y1="398.56" x2="239.24" y2="775.04" gradientTransform="translate(-2.6 -465.02)" gradientUnits="userSpaceOnUse"><stop offset="0"/><stop offset="1" stop-opacity="0"/></linearGradient><linearGradient id="linear-gradient-3" x1="109.08" y1="-855.52" x2="109.65" y2="-936.23" gradientTransform="matrix(1, 0, 0, -1, -2.6, -733.02)" xlink:href="#linear-gradient-2"/><linearGradient id="linear-gradient-4" x1="168.55" y1="-872.46" x2="168.71" y2="-896.22" gradientTransform="matrix(1, 0, 0, -1, -2.6, -733.02)" xlink:href="#linear-gradient-2"/><linearGradient id="linear-gradient-5" x1="125.47" y1="-802.92" x2="128.47" y2="-861.34" gradientTransform="matrix(1, 0, 0, -1, -2.6, -733.02)" xlink:href="#linear-gradient"/><linearGradient id="linear-gradient-6" x1="126.26" y1="-867.31" x2="127.56" y2="-828.87" gradientTransform="matrix(1, 0, 0, -1, -2.6, -733.02)" xlink:href="#linear-gradient-2"/><linearGradient id="linear-gradient-7" x1="113.66" y1="-861.83" x2="86.69" y2="-836.29" gradientTransform="matrix(1, 0, 0, -1, -2.6, -733.02)" gradientUnits="userSpaceOnUse"><stop offset="0" stop-color="#ffe5c0"/><stop offset="1" stop-color="#ffa992"/></linearGradient><linearGradient id="linear-gradient-8" x1="99.77" y1="-845.22" x2="101.79" y2="-865.49" gradientTransform="matrix(1, 0, 0, -1, -2.6, -733.02)" xlink:href="#linear-gradient-2"/><linearGradient id="linear-gradient-9" x1="99.22" y1="-869.94" x2="104.7" y2="-844.32" gradientTransform="matrix(1, 0, 0, -1, -2.6, -733.02)" xlink:href="#linear-gradient-2"/><linearGradient id="linear-gradient-10" x1="96.34" y1="-869.33" x2="101.82" y2="-843.71" gradientTransform="matrix(1, 0, 0, -1, -2.6, -733.02)" xlink:href="#linear-gradient-2"/><linearGradient id="linear-gradient-11" x1="92.82" y1="-868.57" x2="98.29" y2="-842.95" gradientTransform="matrix(1, 0, 0, -1, -2.6, -733.02)" xlink:href="#linear-gradient-2"/><linearGradient id="linear-gradient-12" x1="82.79" y1="-805.12" x2="85.79" y2="-863.53" gradientTransform="matrix(1, 0, 0, -1, -2.6, -733.02)" xlink:href="#linear-gradient"/><linearGradient id="linear-gradient-13" x1="116.34" y1="-861.51" x2="106.46" y2="-835.52" xlink:href="#linear-gradient-7"/><linearGradient id="linear-gradient-14" x1="112.39" y1="-869.93" x2="106.92" y2="-844.31" gradientTransform="matrix(1, 0, 0, -1, -2.6, -733.02)" xlink:href="#linear-gradient-2"/><linearGradient id="linear-gradient-15" x1="115.22" y1="-869.33" x2="109.75" y2="-843.71" gradientTransform="matrix(1, 0, 0, -1, -2.6, -733.02)" xlink:href="#linear-gradient-2"/><linearGradient id="linear-gradient-16" x1="118.78" y1="-868.56" x2="113.31" y2="-842.95" gradientTransform="matrix(1, 0, 0, -1, -2.6, -733.02)" xlink:href="#linear-gradient-2"/><linearGradient id="linear-gradient-17" x1="104.68" y1="-792.77" x2="104.08" y2="-824.21" gradientTransform="matrix(1, 0, 0, -1, -2.6, -733.02)" xlink:href="#linear-gradient-2"/><linearGradient id="linear-gradient-18" x1="28.25" y1="-816.93" x2="109.29" y2="-787.68" xlink:href="#linear-gradient-7"/><linearGradient id="linear-gradient-19" x1="109.84" y1="-814.54" x2="195.48" y2="-783.63" xlink:href="#linear-gradient-7"/><linearGradient id="linear-gradient-20" x1="107.24" y1="-767.89" x2="104.49" y2="-815.17" gradientTransform="matrix(1, 0, 0, -1, -2.6, -733.02)" gradientUnits="userSpaceOnUse"><stop offset="0" stop-color="#84dbc7"/><stop offset="1" stop-color="#33c2cf"/></linearGradient><linearGradient id="linear-gradient-21" x1="105.83" y1="-752.54" x2="105.98" y2="-777.13" gradientTransform="matrix(1, 0, 0, -1, -2.6, -733.02)" xlink:href="#linear-gradient"/><linearGradient id="linear-gradient-22" x1="109.82" y1="-772.02" x2="100.52" y2="-762.39" xlink:href="#linear-gradient-7"/><linearGradient id="linear-gradient-23" x1="106" y1="-768.38" x2="105.48" y2="-749.16" xlink:href="#linear-gradient-7"/><linearGradient id="linear-gradient-24" x1="103.46" y1="-764.91" x2="110.68" y2="-774.95" gradientTransform="matrix(1, 0, 0, -1, -2.6, -733.02)" xlink:href="#linear-gradient-2"/><linearGradient id="linear-gradient-25" x1="103.5" y1="-758.91" x2="103.66" y2="-759.87" gradientTransform="matrix(1, 0, 0, -1, -2.6, -733.02)" gradientUnits="userSpaceOnUse"><stop offset="0" stop-color="#561111"/><stop offset="1" stop-color="#862e2d"/></linearGradient><linearGradient id="linear-gradient-26" x1="107.89" y1="-758.91" x2="108.05" y2="-759.87" xlink:href="#linear-gradient-25"/><linearGradient id="linear-gradient-27" x1="97.16" y1="-757.64" x2="102.01" y2="-764.72" gradientTransform="matrix(1, 0, 0, -1, -2.6, -733.02)" xlink:href="#linear-gradient-2"/><linearGradient id="linear-gradient-28" x1="114.16" y1="-757.65" x2="109.3" y2="-764.73" gradientTransform="matrix(1, 0, 0, -1, -2.6, -733.02)" xlink:href="#linear-gradient-2"/><linearGradient id="linear-gradient-29" x1="102.27" y1="-752.37" x2="107.99" y2="-760.98" gradientTransform="matrix(1, 0, 0, -1, -2.6, -733.02)" xlink:href="#linear-gradient-2"/><linearGradient id="linear-gradient-30" x1="112.66" y1="-771.25" x2="104.59" y2="-758.71" gradientTransform="matrix(1, 0, 0, -1, -2.6, -733.02)" gradientUnits="userSpaceOnUse"><stop offset="0" stop-color="#fff"/><stop offset="1" stop-color="#fff" stop-opacity="0"/></linearGradient><linearGradient id="linear-gradient-31" x1="107.12" y1="-769.16" x2="105.55" y2="-741.14" gradientTransform="matrix(1, 0, 0, -1, -2.6, -733.02)" xlink:href="#linear-gradient-2"/><linearGradient id="linear-gradient-32" x1="118.41" y1="-817.8" x2="99.41" y2="-794.68" gradientTransform="matrix(1, 0, 0, -1, -2.6, -733.02)" xlink:href="#linear-gradient-2"/><linearGradient id="linear-gradient-33" x1="82.03" y1="-805.25" x2="68.03" y2="-791.24" gradientTransform="matrix(1, 0, 0, -1, -2.6, -733.02)" xlink:href="#linear-gradient-2"/><linearGradient id="linear-gradient-34" x1="104.55" y1="-846.5" x2="104.85" y2="-807.01" gradientTransform="matrix(1, 0, 0, -1, -2.6, -733.02)" xlink:href="#linear-gradient-2"/><linearGradient id="linear-gradient-35" x1="92.72" y1="-883.98" x2="89.72" y2="-837.89" gradientTransform="matrix(1, 0, 0, -1, -2.6, -733.02)" xlink:href="#linear-gradient-2"/><linearGradient id="linear-gradient-36" x1="119.93" y1="-850.84" x2="99.4" y2="-834.98" gradientTransform="matrix(1, 0, 0, -1, -2.6, -733.02)" xlink:href="#linear-gradient-2"/><linearGradient id="linear-gradient-37" x1="49.9" y1="-806.79" x2="48.1" y2="-790.49" gradientTransform="matrix(1, 0, 0, -1, -2.6, -733.02)" xlink:href="#linear-gradient-2"/><linearGradient id="linear-gradient-38" x1="161.61" y1="-806.78" x2="163.41" y2="-790.49" gradientTransform="matrix(1, 0, 0, -1, -2.6, -733.02)" xlink:href="#linear-gradient-2"/><linearGradient id="linear-gradient-39" x1="134.7" y1="-814.91" x2="145.25" y2="-793.13" gradientTransform="matrix(1, 0, 0, -1, -2.6, -733.02)" xlink:href="#linear-gradient-2"/><linearGradient id="linear-gradient-40" x1="144.33" y1="-782.81" x2="125.73" y2="-805.67" xlink:href="#linear-gradient-30"/><linearGradient id="linear-gradient-41" x1="8.55" y1="-846.51" x2="43.36" y2="-846.99" xlink:href="#linear-gradient-20"/><linearGradient id="linear-gradient-42" x1="10.07" y1="-824.69" x2="23.23" y2="-851.55" xlink:href="#linear-gradient-20"/><linearGradient id="linear-gradient-43" x1="3.58" y1="-827.87" x2="16.74" y2="-854.73" xlink:href="#linear-gradient-20"/><linearGradient id="linear-gradient-44" x1="13.01" y1="-836.2" x2="33.12" y2="-858.28" xlink:href="#linear-gradient-20"/><linearGradient id="linear-gradient-45" x1="7.67" y1="-841.05" x2="27.78" y2="-863.13" xlink:href="#linear-gradient-20"/><linearGradient id="linear-gradient-46" x1="19.9" y1="-847.78" x2="43.22" y2="-866.39" xlink:href="#linear-gradient-20"/><linearGradient id="linear-gradient-47" x1="15.38" y1="-853.45" x2="38.71" y2="-872.05" xlink:href="#linear-gradient-20"/><linearGradient id="linear-gradient-48" x1="24.63" y1="-855.82" x2="53.43" y2="-863.34" xlink:href="#linear-gradient-20"/><linearGradient id="linear-gradient-49" x1="22.8" y1="-862.86" x2="51.6" y2="-870.38" xlink:href="#linear-gradient-20"/><linearGradient id="linear-gradient-50" x1="13.42" y1="-814.98" x2="11.67" y2="-844.88" xlink:href="#linear-gradient-20"/><linearGradient id="linear-gradient-51" x1="6.21" y1="-814.56" x2="4.47" y2="-844.46" xlink:href="#linear-gradient-20"/><linearGradient id="linear-gradient-52" x1="62.53" y1="-897.37" x2="25.88" y2="-839.85" gradientTransform="matrix(1, 0, 0, -1, -2.6, -733.02)" xlink:href="#linear-gradient"/><linearGradient id="linear-gradient-53" x1="61.07" y1="-827.62" x2="31.55" y2="-894.24" xlink:href="#linear-gradient-20"/><linearGradient id="linear-gradient-54" x1="182.95" y1="-802.54" x2="183.55" y2="-829.46" xlink:href="#linear-gradient-20"/><linearGradient id="linear-gradient-55" x1="207.01" y1="-792.21" x2="196.05" y2="-836.96" gradientTransform="matrix(1, 0, 0, -1, -2.6, -733.02)" gradientUnits="userSpaceOnUse"><stop offset="0" stop-color="#f4f9f4"/><stop offset="1" stop-color="#ddeac4"/></linearGradient><linearGradient id="linear-gradient-56" x1="177.2" y1="-852.37" x2="187.68" y2="-828.64" gradientTransform="matrix(1, 0, 0, -1, -2.6, -733.02)" xlink:href="#linear-gradient"/><linearGradient id="linear-gradient-57" x1="191.22" y1="-873.85" x2="182.38" y2="-826.46" gradientTransform="matrix(1, 0, 0, -1, -2.6, -733.02)" xlink:href="#linear-gradient-2"/><linearGradient id="linear-gradient-58" x1="193.23" y1="-858.52" x2="181.16" y2="-800.26" gradientTransform="matrix(1, 0, 0, -1, -2.6, -733.02)" xlink:href="#linear-gradient"/><linearGradient id="linear-gradient-59" x1="171.64" y1="-810.47" x2="183.43" y2="-832.36" xlink:href="#linear-gradient-30"/><linearGradient id="linear-gradient-60" x1="208.54" y1="-880.91" x2="235.13" y2="-869.41" xlink:href="#linear-gradient-20"/><linearGradient id="linear-gradient-61" x1="202.21" y1="-863.9" x2="221.43" y2="-879.75" xlink:href="#linear-gradient-20"/><linearGradient id="linear-gradient-62" x1="198.36" y1="-868.56" x2="217.58" y2="-884.41" xlink:href="#linear-gradient-20"/><linearGradient id="linear-gradient-63" x1="208.42" y1="-871.55" x2="231.24" y2="-881.42" xlink:href="#linear-gradient-20"/><linearGradient id="linear-gradient-64" x1="205.99" y1="-877.16" x2="228.81" y2="-887.03" xlink:href="#linear-gradient-20"/><linearGradient id="linear-gradient-65" x1="217.59" y1="-878.02" x2="241.67" y2="-884.17" xlink:href="#linear-gradient-20"/><linearGradient id="linear-gradient-66" x1="216.09" y1="-883.91" x2="240.16" y2="-890.06" xlink:href="#linear-gradient-20"/><linearGradient id="linear-gradient-67" x1="223.92" y1="-882.49" x2="248.42" y2="-878.37" xlink:href="#linear-gradient-20"/><linearGradient id="linear-gradient-68" x1="224.93" y1="-888.48" x2="249.43" y2="-884.36" xlink:href="#linear-gradient-20"/><linearGradient id="linear-gradient-69" x1="201.41" y1="-855.36" x2="210.42" y2="-878.66" xlink:href="#linear-gradient-20"/><linearGradient id="linear-gradient-70" x1="195.79" y1="-857.53" x2="204.8" y2="-880.84" xlink:href="#linear-gradient-20"/><linearGradient id="linear-gradient-71" x1="269.08" y1="-907.34" x2="229.56" y2="-876.04" xlink:href="#linear-gradient-55"/><linearGradient id="linear-gradient-72" x1="241.78" y1="-848.45" x2="242.41" y2="-909.35" xlink:href="#linear-gradient-20"/></defs><g opacity="0.3"><path d="M134.38,5.32S16.54,80.12,28.4,127.77s-11.1,52.1,51.51,49,111.12-17.32,141.26-8,27.79,5.92,27.79-7.9S227.54,56.53,205,47.09s-24.64-39.66-35.6-40.7S141.14,2,134.38,5.32Z" transform="translate(0 -3.9)" fill="#84c6ae" opacity="0.3"/><path d="M121.52,12.5l-.63.54h0c-.49.43-1,.87-1.46,1.32s-1,.91-1.43,1.39l-6.9,7h0L109,24.89h0l-4.21,4.23L103,30.83,101.86,32l-1.46,1.53h0L97.58,36.3l-3.73,3.77-.74.76-3.6,3.62h0l-.4.42h0L86.9,47.06l-1.06,1.07L75.58,58.46,64.4,69.67l-8.71,8.78-8.87,8.92c-1.28,1.3-2.5,2.65-3.62,4a53.72,53.72,0,0,0-9.62,18,52.3,52.3,0,0,0-1.84,8.11c-.08.53-.16,1-.21,1.58a4.26,4.26,0,0,0-.06.5v.5c0,.32-.07.64-.1,1s-.06.65-.07,1q-.06.85-.09,1.71v4.59c0,.5.06,1,.1,1.49s.09,1,.15,1.49v.43a6.44,6.44,0,0,0,.1.87h0c.05.41.12.82.18,1.22h0a53.93,53.93,0,0,0,3,11.38c.37.93.75,1.86,1.17,2.77.25.54.5,1.07.76,1.6l.19.38c.27.51.51,1,.79,1.5a53.2,53.2,0,0,0,2.83,4.61c.41.61.83,1.2,1.27,1.79s.9,1.17,1.36,1.74c1.14,1.39,2.35,2.73,3.62,4l22,22.1,8.44,8.5A128.68,128.68,0,0,0,51.66,194,44.14,44.14,0,0,1,5.48,162.9a26.88,26.88,0,0,1-1.3-7.55v-6.71a125.86,125.86,0,0,1,8.72-46.18c.36-.93.75-1.86,1.13-2.78.72-1.71,1.48-3.41,2.28-5.07.37-.79.74-1.56,1.14-2.33h0c14.44-28.82,44.27-60.63,75.61-73l1.87-.71.28-.1c.87-.32,1.73-.62,2.6-.9s1.79-.58,2.69-.84c.64-.21,1.3-.4,2-.56q5.55-1.53,11.3-2.54,3.69-.66,7.44-1.09Z" transform="translate(0 -3.9)" fill="#afdbc5" opacity="0.4" style="isolation:isolate"/><path d="M219.28,41.44H173.16c2.66-2.59,8.73-2.7,8.73-2.7s.14-1.94,4.73-3.89a19.13,19.13,0,0,1,9.77-1s0-1.29,4.59-3.13c4.08-1.64,6.52-.86,7-.67Z" transform="translate(0 -3.9)" fill="#fff8f2"/><path d="M155.15,13H120.69l.5-.5h.33A52.34,52.34,0,0,1,129.63,7c.91-.51,1.81-1,2.73-1.45h0a19,19,0,0,1,9.26,1c4.59,2,4.73,3.9,4.73,3.9S152.48,10.45,155.15,13Z" transform="translate(0 -3.9)" fill="#fff8f2"/><path d="M243.4,186.57c-4.57,6.56-11.87,14-23.48,22.93Q215.3,213,209.72,217c-19.06,13.39-70.32,5.43-115.23-5.34h0L68.83,185.78l-22-22.1c-1.27-1.27-2.48-2.61-3.62-4-.93-1.15-1.81-2.32-2.63-3.53a53.2,53.2,0,0,1-2.83-4.61c-.28-.49-.52-1-.79-1.5-.79-1.56-1.49-3.14-2.12-4.75l2.27-.15c.33,0,.64,0,1-.06l3-.2c.69,0,1.41-.08,2.15-.13l2.6-.17c11.76-.72,28-1.62,45.36-2.31l1.3-.05,3-.12h.1a19.14,19.14,0,0,0,2.14-.08l2.74-.08,5.32-.17c1.61-.05,3.24-.1,4.85-.13h0l3.41-.08h1.12c31-.68,60.29,0,68.45,4.29C194.48,151.46,219.77,170.55,243.4,186.57Z" transform="translate(0 -3.9)" fill="url(#linear-gradient)"/><path d="M219.94,209.5q-4.62,3.54-10.2,7.46c-19.06,13.39-70.32,5.43-115.23-5.34h0L68.83,185.78c8.23-.43,17.3-.87,26.68-1.23h1.3l3-.12h.08l2.16-.08,2.74-.1,5.32-.16L115,184h0l3.41-.09h1.12c31-.68,60.29,0,68.43,4.27C194.51,191.54,206.4,199.89,219.94,209.5Z" transform="translate(0 -3.9)" opacity="0.45" fill="url(#linear-gradient-2)" style="isolation:isolate"/><path d="M106.68,154.8c16.64,0,30.12-2,30.12-4.52s-13.48-4.52-30.12-4.52-30.12,2-30.12,4.52S90,154.8,106.68,154.8Z" transform="translate(0 -3.9)" opacity="0.45" fill="url(#linear-gradient-3)" style="isolation:isolate"/><path d="M166,149c4.9,0,8.87-.59,8.87-1.32s-4-1.33-8.87-1.33-8.87.6-8.87,1.33S161.14,149,166,149Z" transform="translate(0 -3.9)" opacity="0.45" fill="url(#linear-gradient-4)" style="isolation:isolate"/><path d="M147,103.76C144.4,113.59,126,116,114.4,116.09c-5,0-8.69-.33-9.43-.71a1.69,1.69,0,0,1-.36-.23h0a6,6,0,0,1-1.39-1.73h0v-.15a1.28,1.28,0,0,1-.11-.2l-.14-.27c-.18-.4-.34-.81-.48-1.22a7,7,0,0,1-.25-.93h0a6.74,6.74,0,0,1-.17-1h0a11.38,11.38,0,0,1-.1-1.31v-1a7.7,7.7,0,0,1,.43-1.9,1,1,0,0,1,.16-.38,6.18,6.18,0,0,1,.63-1.12,6,6,0,0,1,1.25-1.31l1-.4a95,95,0,0,1,12.73-3.47s-6.23-5.86-14.94-5.87h0V80.21h0l13.17-2.59a54,54,0,0,1,6.76,1.5h0c1.31.37,2.59.8,3.84,1.27.65.24,1.3.49,1.92.76,10.11,4.26,17.37,11.22,18.31,18.27A11.14,11.14,0,0,1,147,103.76Z" transform="translate(0 -3.9)" fill="url(#linear-gradient-5)"/><path d="M147,103.76C144.4,113.59,126,116,114.4,116.09c-5,0-8.69-.33-9.43-.71a1.69,1.69,0,0,1-.36-.23h0a6,6,0,0,1-1.39-1.73h0v-.15a1.28,1.28,0,0,1-.11-.2l-.14-.27c-.18-.4-.34-.81-.48-1.22a7,7,0,0,1-.25-.93h0a6.74,6.74,0,0,1-.17-1h0a8.69,8.69,0,0,1,.38-4.17,1,1,0,0,1,.16-.38,6.12,6.12,0,0,1,1.88-2.42c.31-.14.64-.27,1-.41a10.56,10.56,0,0,0,7.89,2.4c6-.4,4.24,4.09,9.86,5.18s4.74-4.09,10.27-2.4,5.42-3.87,10.56-3.38c2.11.21,3.13-1.89,3.22-4.63A11.24,11.24,0,0,1,147,103.76Z" transform="translate(0 -3.9)" opacity="0.45" fill="url(#linear-gradient-6)" style="isolation:isolate"/><path d="M100.53,122a20.74,20.74,0,0,1-.35,5.39,2.51,2.51,0,0,1-.5,1.07.88.88,0,0,1-.24.19,1.28,1.28,0,0,1-1.59-.4,1.35,1.35,0,0,1-.69,0h0a.58.58,0,0,1-.22-.08,1.26,1.26,0,0,1-.57-.89c-.88.35-1.63-.64-1.63-.64a2.39,2.39,0,0,1-.43.2h0l-.18.06h0a2.15,2.15,0,0,1-2.61-.92c-.51-.83-.43-3.09-.14-5.74.1-.86.22-1.75.35-2.65.36-2.63.81-5.29,1-7,.39-4.12,1-3.38,3.7-3.72a16.05,16.05,0,0,0,1.83-.38,43.81,43.81,0,0,0,4.33-1.42,7.81,7.81,0,0,0-.56,2.08,10.55,10.55,0,0,0,1.22,6.16C100.77,115.21,100.4,119.06,100.53,122Z" transform="translate(0 -3.9)" fill="url(#linear-gradient-7)"/><path d="M100.52,122a20.73,20.73,0,0,1-.34,5.39c-4.12-2.68-1.84-5.21-4.45-6.43a14,14,0,0,1-4-3.33c.37-2.63.81-5.29,1-7,.39-4.12,1-3.38,3.7-3.72a16.69,16.69,0,0,0,1.84-.38l3.41.21.36.45a10.55,10.55,0,0,0,1.22,6.16C100.77,115.21,100.4,119.06,100.52,122Z" transform="translate(0 -3.9)" opacity="0.45" fill="url(#linear-gradient-8)" style="isolation:isolate"/><g opacity="0.45"><path d="M98.4,125.66c-.07.46-.37,2.89,1.31,2.79a.88.88,0,0,1-.24.19,1.28,1.28,0,0,1-1.59-.4,1.34,1.34,0,0,1-.69,0C97.83,128.07,98.28,126.07,98.4,125.66Z" transform="translate(0 -3.9)" opacity="0.45" fill="url(#linear-gradient-9)" style="isolation:isolate"/><path d="M95.69,124.25c-.23,2.23-.23,2.78.44,2.67s.92-1.35,1-1.72c-.09.48-.49,2.53-.19,3a1.18,1.18,0,0,1-.57-.89c-.89.35-1.63-.64-1.63-.64a2.48,2.48,0,0,1-.44.2C94.65,126.69,95.32,126.13,95.69,124.25Z" transform="translate(0 -3.9)" opacity="0.45" fill="url(#linear-gradient-10)" style="isolation:isolate"/><path d="M91.4,120.27c.36,2.46,1.19,6.4,2.75,6.66a2.14,2.14,0,0,1-2.65-1C91,125.18,91.06,123,91.4,120.27Z" transform="translate(0 -3.9)" opacity="0.45" fill="url(#linear-gradient-11)" style="isolation:isolate"/></g><g opacity="0.25"><path d="M141.57,97c-.81,6.17-12.65,7.38-24.09,8.56-6.51.66-12.72,1.3-15.56,2.84v-.94c3.14-1.47,8.94-2.06,15.44-2.74,10.6-1.08,22.63-2.32,23.35-7.83,1.28-9.65-17.45-17.62-17.62-17.69h0c1.31.38,2.59.8,3.84,1.27.65.24,1.29.49,1.92.76C134.18,84,142.53,89.68,141.57,97Z" transform="translate(0 -3.9)" fill="#fff" opacity="0.25" style="isolation:isolate"/></g><path d="M104.4,108.77v.32a5,5,0,0,1-.06.54h0a4.87,4.87,0,0,1-.17,1l-.09.36-.09.32c-.07.23-.15.47-.24.69s-.21.55-.33.81-.18.37-.27.54v.08h0a5.79,5.79,0,0,1-1.39,1.72h0a2.16,2.16,0,0,1-.36.22c-.74.39-4.46.76-9.42.72-6.33-.06-14.65-.79-21.33-3-5.59-1.88-10-4.82-11.19-9.3-1.93-7.45,4.21-15.46,14.15-20.74.88-.47,1.79-.92,2.73-1.34s1.83-.8,2.78-1.16A53.31,53.31,0,0,1,90,77.67l13.18,2.58h0V93h0c-8.72,0-15,5.86-15,5.86h0c.54.11,9.11,1.85,13.69,3.87a6.38,6.38,0,0,1,1.88,2.42c0,.13.11.25.15.38s.09.26.13.39a7,7,0,0,1,.19.79,2.79,2.79,0,0,0,.07.4,5.54,5.54,0,0,1,.07.81A4.42,4.42,0,0,1,104.4,108.77Z" transform="translate(0 -3.9)" fill="url(#linear-gradient-12)"/><path d="M114.86,126a2.15,2.15,0,0,1-2.61.92h0l-.19-.06h0a2.39,2.39,0,0,1-.43-.2s-.75,1-1.64.64a1.28,1.28,0,0,1-.57.9l-.21.08h0a1.61,1.61,0,0,1-.69,0,1.27,1.27,0,0,1-1.58.4,1.18,1.18,0,0,1-.25-.19c-.73-.8-.93-3.3-.84-6.46a15,15,0,0,0-1-6.36,5.59,5.59,0,0,0-.59-1,5.17,5.17,0,0,0-1.14-1.24c.09-.17.18-.34.26-.53s.23-.54.34-.82.16-.45.23-.68l.06-.4.09-.35c.07-.32.13-.65.18-1h0a1.57,1.57,0,0,1,.06-.53,8.55,8.55,0,0,0,0-1.24,7.4,7.4,0,0,0-.08-.81,1,1,0,0,0-.06-.41,7.44,7.44,0,0,0-.2-.78,1.36,1.36,0,0,0-.12-.39,2.54,2.54,0,0,0-.16-.38,32.28,32.28,0,0,0,6.17,1.79,22.57,22.57,0,0,1,2.32.27c.82.25,1.14,1,1.38,3.46.23,2.31.94,6.29,1.32,9.67C115.3,123,115.4,125.18,114.86,126Z" transform="translate(0 -3.9)" fill="url(#linear-gradient-13)"/><g opacity="0.45"><path d="M108,125.66c.07.46.37,2.89-1.31,2.79a.88.88,0,0,0,.24.19,1.28,1.28,0,0,0,1.59-.4,1.34,1.34,0,0,0,.69,0C108.53,128.07,108.08,126.07,108,125.66Z" transform="translate(0 -3.9)" opacity="0.45" fill="url(#linear-gradient-14)" style="isolation:isolate"/><path d="M110.67,124.25c.22,2.23.22,2.79-.44,2.68s-.92-1.35-1-1.73c.1.49.5,2.53.2,3a1.22,1.22,0,0,0,.57-.9c.88.35,1.63-.64,1.63-.64a3.36,3.36,0,0,0,.43.2C111.71,126.69,111,126.13,110.67,124.25Z" transform="translate(0 -3.9)" opacity="0.45" fill="url(#linear-gradient-15)" style="isolation:isolate"/><path d="M115,120.28c-.36,2.45-1.19,6.39-2.75,6.65a2.15,2.15,0,0,0,2.62-.92C115.4,125.18,115.3,123,115,120.28Z" transform="translate(0 -3.9)" opacity="0.45" fill="url(#linear-gradient-16)" style="isolation:isolate"/></g><g opacity="0.25"><path d="M104.4,108.77v.32a5,5,0,0,1-.06.54h0c-3.13-1.48-11-2.9-17.24-3.54C75.65,105,63.82,103.7,63,97.53S68.4,86.09,73.55,83c.74-.45,1.47-.86,2.14-1.22A16.63,16.63,0,0,1,77.6,81c.48-.18,1-.35,1.47-.52q1.17-.41,2.37-.75h0c-.18.07-18.9,8-17.63,17.69.73,5.51,12.75,6.75,23.36,7.84C93.53,106,101.15,107.35,104.4,108.77Z" transform="translate(0 -3.9)" fill="#fff" opacity="0.25" style="isolation:isolate"/></g><path d="M127,80.39c-1.49,0-3.5-.44-4.86.37-2.16,1.3-5.72-.55-8.37,1.06-2.21,1.35-6.49,1.51-10.56,2.21h0c-.79.13-1.58.28-2.34.48-4.66,1.17-7.82-1.92-11.86-1s-5.38-2.28-8.85-1.67a7.32,7.32,0,0,1-3.83-.16,53.29,53.29,0,0,1,13.71-4l13.17,2.59h0l13.21-2.65A53.68,53.68,0,0,1,127,80.39Z" transform="translate(0 -3.9)" opacity="0.45" fill="url(#linear-gradient-17)" style="isolation:isolate"/><path d="M82.77,71.08c-4,4.56-9.57,9-15.93,9a39.4,39.4,0,0,1-6.51-.49C52.58,78.36,50.07,75,49.4,74.49c-.86-.65-2.37-.23-5.53-1s-5.79-5.94-4.66-6.41,3.4,2.5,4,3h0a.24.24,0,0,0,.11.06c.13,0,.17-.11.21-.33a3.9,3.9,0,0,1,.66-2.12c.86-1.1,1.75-1.47,2.2-.65h0c.35.81-1.27,1.71-.74,2.68s3.11.67,3.3-.35a1.93,1.93,0,0,0-1.25-2,.7.7,0,0,1-.4-.55.92.92,0,0,1,.63-1.12.49.49,0,0,1,.17,0,2.55,2.55,0,0,1,3,2v.15c.44,2,1.48,3.65,4,3.91,8.13.83,15.92-6,19.39-11.51a15.51,15.51,0,0,0,5.11,8.5A26.54,26.54,0,0,0,82.77,71.08Z" transform="translate(0 -3.9)" fill="url(#linear-gradient-18)"/><path d="M162.48,73.46c-3.16.79-4.66.37-5.53,1a16.53,16.53,0,0,1-7,4.19,33.57,33.57,0,0,1-10.49,1.44c-6.37,0-11.92-4.48-15.94-9h0l.53-.36c.18-.13.37-.26.54-.4L125,70c.31-.25.61-.49.9-.74s.83-.73,1.2-1.09.49-.49.71-.73a10,10,0,0,0,1-1.25,16.11,16.11,0,0,0,1.73-2.8,12.41,12.41,0,0,0,1.06-3.2h0c3,4.82,9.36,10.64,16.33,11.47a14.14,14.14,0,0,0,3.05,0c2.56-.26,3.59-1.93,4-3.91a2.56,2.56,0,0,1,2.9-2.17H158a.91.91,0,0,1,.83,1v0a.89.89,0,0,1-.43.7,2,2,0,0,0-1.25,2c.2,1,2.76,1.35,3.3.35s-1.16-1.91-.72-2.73,1.34-.45,2.2.64.47,2.51.87,2.46,3-3.5,4.16-3S165.64,72.66,162.48,73.46Z" transform="translate(0 -3.9)" fill="url(#linear-gradient-19)"/><path d="M95.74,24a3.35,3.35,0,0,0-.81.74A2.14,2.14,0,0,1,95.74,24Z" transform="translate(0 -3.9)" fill="none" stroke="#000" stroke-miterlimit="10" stroke-width="0.65"/><path d="M100.83,81.3a44.73,44.73,0,0,0,1.35,5.57,1.71,1.71,0,0,0,1.68.85" transform="translate(0 -3.9)" fill="none" stroke="#fff" stroke-miterlimit="10" stroke-width="0.68" opacity="0.45" style="isolation:isolate"/><path d="M103.57,81.83,103.71,93" transform="translate(0 -3.9)" fill="none" stroke="#fff" stroke-miterlimit="10" stroke-width="0.68" opacity="0.45" style="isolation:isolate"/><path d="M131.72,60.19a12.73,12.73,0,0,1-1.06,3.19,15.58,15.58,0,0,1-1.74,2.8c-.32.41-.67.83-1,1.25-.22.24-.46.49-.71.73a15.64,15.64,0,0,1-1.2,1.1c-.29.24-.59.49-.9.73l-.44.34c-.18.13-.36.27-.54.39l-.53.36h0c-.59-.67-1.14-1.34-1.66-2h0a53,53,0,0,1-5-7.51s-.89,5-.3,7.75,1.55,6.18,1.11,7.9-8.41,5-14.57,5A29.88,29.88,0,0,1,91.4,79.36c-1.58-.77-2.63-1.55-2.79-2.14-.44-1.72.51-5.15,1.11-7.9s-.3-7.75-.3-7.75a53.46,53.46,0,0,1-6.63,9.51,23.52,23.52,0,0,1-3.06-2.39,15.5,15.5,0,0,1-5.12-8.49c.25-.39.47-.78.68-1.16,2.65-5,9.34-19.8,22.08-23.42a21.55,21.55,0,0,1,5.81-.8,21,21,0,0,1,6,.88c5.22,1.54,9.42,5,12.73,8.82C126.58,50,129.48,56.16,131,59c.2.37.43.75.67,1.15Z" transform="translate(0 -3.9)" fill="url(#linear-gradient-20)"/><path d="M109.23,35.82c-.93,2.47-2.71,5-6,4.6-4.12-.49-5.41-3-5.81-4.66a20.78,20.78,0,0,1,5.81-.8A21.38,21.38,0,0,1,109.23,35.82Z" transform="translate(0 -3.9)" fill="url(#linear-gradient-21)"/><path d="M106.4,36.85c-.3.79-2.09,1.59-3.17,1.59a4.89,4.89,0,0,1-2.83-1.11,1.22,1.22,0,0,1-.36-.48,18.92,18.92,0,0,1,0-4.12l3.17-1.24,3.19,1.24a9.45,9.45,0,0,0,.08,1.07A12,12,0,0,1,106.4,36.85Z" transform="translate(0 -3.9)" fill="url(#linear-gradient-22)"/><path d="M111.71,26.46c-.43,2.24-1.93,1.89-1.93,1.89v.1a5.53,5.53,0,0,1-3.38,4.92,8.64,8.64,0,0,1-3.22.56,9.6,9.6,0,0,1-2-.18,6.72,6.72,0,0,1-1.23-.38,5.56,5.56,0,0,1-3.4-5s-1.48.45-1.91-1.79a2.35,2.35,0,0,1,.25-1.76h0a2.27,2.27,0,0,1,.8-.74h.06L96,24h.14s.25,2.45.62,2.48c.11,0,.3-.49.51-1.19.46-1.58,1-4.13,1-4.13a21.82,21.82,0,0,0,5,.86c3.34.25,3.82-.38,3.82-.38a2.12,2.12,0,0,0,.29.38,1.76,1.76,0,0,0,1,.56s.48,3.91.85,3.91S110,24,110,24a2.07,2.07,0,0,1,1.66,2.41A.15.15,0,0,1,111.71,26.46Z" transform="translate(0 -3.9)" fill="url(#linear-gradient-23)"/><path d="M111.49,20.23c.74,1.68-1.34,3.6-1.34,3.6s-.44,2.48-.81,2.48-.85-3.91-.85-3.91a2,2,0,0,1-1.29-.93s-.48.62-3.81.37a21.82,21.82,0,0,1-5-.86s-1.15,5.37-1.52,5.33-.62-2.49-.62-2.49h-.14a1,1,0,0,0-.28.13h-.06a2.08,2.08,0,0,0-.81.75h0A11.21,11.21,0,0,1,93.08,22a3.36,3.36,0,0,1-.28-2,1.78,1.78,0,0,1,2.08-1.42h0a1.65,1.65,0,0,1,.36.11,11.73,11.73,0,0,1-.1-2.44c.1-1.56.58-3.42,2.21-4a4.49,4.49,0,0,1,5,1.15,9.65,9.65,0,0,1,8.59-2,4.36,4.36,0,0,1,2.92,2.42h0a4.93,4.93,0,0,1,.43,1.93C114.31,17.8,113.2,19.86,111.49,20.23Z" transform="translate(0 -3.9)" fill="#2d4d6d"/><path d="M106.4,33.8c-.62,0-1.85.24-2.17,1.16-.45,1.25-1.61.25-2.55,1.71a1.33,1.33,0,0,1-1.35.66,1.38,1.38,0,0,1-.35-.48,13.44,13.44,0,0,1,0-3.47,8.55,8.55,0,0,0,3.21.56,8.45,8.45,0,0,0,3.22-.57A1.55,1.55,0,0,1,106.4,33.8Z" transform="translate(0 -3.9)" opacity="0.45" fill="url(#linear-gradient-24)" style="isolation:isolate"/><path d="M100.4,26.68a.62.62,0,1,1,1.22-.22.81.81,0,0,1,0,.22" transform="translate(0 -3.9)" fill="none" stroke-linecap="round" stroke-linejoin="round" stroke-width="0.68" stroke="url(#linear-gradient-25)"/><path d="M104.79,26.68a.62.62,0,1,1,1.21-.27.62.62,0,0,1,0,.27" transform="translate(0 -3.9)" fill="none" stroke-linecap="round" stroke-linejoin="round" stroke-width="0.68" stroke="url(#linear-gradient-26)"/><path d="M100.86,29.17h4.66a2.41,2.41,0,0,1-2.45,1.71A2.22,2.22,0,0,1,100.86,29.17Z" transform="translate(0 -3.9)" fill="#fff"/><path d="M95.73,25.55c-.48-.09-.51,1.47,0,1.56S96.26,25.65,95.73,25.55Z" transform="translate(0 -3.9)" opacity="0.45" fill="url(#linear-gradient-27)" style="isolation:isolate"/><path d="M110.4,25.55c.48-.09.51,1.47,0,1.56S109.84,25.65,110.4,25.55Z" transform="translate(0 -3.9)" opacity="0.45" fill="url(#linear-gradient-28)" style="isolation:isolate"/><path d="M107.49,21.85a12.63,12.63,0,0,1-1.74,1.26c-1.22.63-1.74-.48-3.41.57s-1.84-.23-2.85.73a3,3,0,0,1-2.14.71c.46-1.57,1-4.13,1-4.13a21.82,21.82,0,0,0,5,.86c3.33.26,3.81-.37,3.81-.37A2.91,2.91,0,0,0,107.49,21.85Z" transform="translate(0 -3.9)" opacity="0.45" fill="url(#linear-gradient-29)" style="isolation:isolate"/><path d="M109.78,28.46a5.51,5.51,0,0,1-3.38,4.91,8.5,8.5,0,0,1-3.23.57,10.34,10.34,0,0,1-2-.19,2.15,2.15,0,0,1,2.11-.73c1.45.23,1-1,2.5-.87S107,30.68,108,30.59,108.7,28.42,109.78,28.46Z" transform="translate(0 -3.9)" opacity="0.45" fill="url(#linear-gradient-30)" style="isolation:isolate"/><path d="M114.26,15.74c.06,2.06-1.06,4.12-2.77,4.49.74,1.68-1.33,3.6-1.33,3.6s-.44,2.48-.81,2.48-.85-3.91-.85-3.91a2,2,0,0,1-1.3-.93s-.47.62-3.81.37a21.82,21.82,0,0,1-5-.86s-1.15,5.37-1.52,5.33-.62-2.49-.62-2.49h-.14a1.08,1.08,0,0,0-.29.13h-.06a2.22,2.22,0,0,0-.8.75h0A10.9,10.9,0,0,1,93.09,22a3.36,3.36,0,0,1-.29-2,1.78,1.78,0,0,1,2.08-1.42h0a1.65,1.65,0,0,1,.36.11,12.46,12.46,0,0,1-.09-2.44,4,4,0,0,1,2.72,1.43c1.85,2.17,4.81-.51,6.92,1.27s2.89-2.47,5.2-.75C111.4,19.23,113.32,17.74,114.26,15.74Z" transform="translate(0 -3.9)" opacity="0.45" fill="url(#linear-gradient-31)" style="isolation:isolate"/><path d="M117.76,77.36c-.44,1.71-8.41,5-14.57,5A29.74,29.74,0,0,1,91.4,79.51c2.62-1.23,8,.8,9.42-3,1.63-4.33,6.44-.85,6.81-6.24s4.59-2.26,6.29-5.91,3-2.68,3-2.68-.89,5-.3,7.75S118.2,75.64,117.76,77.36Z" transform="translate(0 -3.9)" opacity="0.45" fill="url(#linear-gradient-32)" style="isolation:isolate"/><path d="M89.4,61.57a53.46,53.46,0,0,1-6.63,9.51c-4,4.56-9.57,9-15.93,9a39.4,39.4,0,0,1-6.51-.49,8.3,8.3,0,0,1,5.61-.92c5.48.89,5.33-4.92,10.44-5.81,2.56-.45,3-2.24,3.33-4.21s.69-4.06,3.06-5.18c4.77-2.24,1.53-7.53,5.38-9C89.78,55.9,89.4,61.57,89.4,61.57Z" transform="translate(0 -3.9)" opacity="0.45" fill="url(#linear-gradient-33)" style="isolation:isolate"/><path d="M118.14,98.78S111.9,93,103.19,93h0c-8.71,0-14.94,5.86-14.94,5.86s-6.81-2.28-9.18-2.47.1-2.09,3.75-1.29.88-1.4,2.26-2.59,2.19,1,4.4,1,1.38-2.88,5-3.24,3.45,1,5.42.7c1.36-.21,2-1.39,3.31-2h0a3.86,3.86,0,0,1,2.2-.29c3,.4,3.75,3.38,5.58,4s3.69-1.74,6.9-.84,2.38,4.28,3.21,5.07,4.4-.6,4.89.34S118.14,98.78,118.14,98.78Z" transform="translate(0 -3.9)" opacity="0.45" fill="url(#linear-gradient-34)" style="isolation:isolate"/><path d="M104.4,109.09a5,5,0,0,1-.06.54h0a5.67,5.67,0,0,1-.18,1l-.09.36-.09.32c-.07.23-.15.47-.23.69s-.22.55-.34.81-.17.37-.26.54v.08h0a5.52,5.52,0,0,1-1.39,1.72h0l-.35.23c-.74.38-4.47.75-9.43.71-6.33-.06-14.65-.79-21.33-3,4.46.41,6.62-1.15,10.62,0C86,114.38,87,110,91.47,111.9s8.75-4.88,12.45-3Z" transform="translate(0 -3.9)" opacity="0.45" fill="url(#linear-gradient-35)" style="isolation:isolate"/><path d="M112.3,107.15a3.15,3.15,0,0,0-1.67,1.87c-.58,2.44-3.7.6-4.29,3.27a2.84,2.84,0,0,1-2,2.28,5.38,5.38,0,0,0-1.15-1.23c.1-.17.18-.35.27-.54s.23-.53.33-.81a5.58,5.58,0,0,0,.23-.69,1.19,1.19,0,0,1,.1-.32l.09-.36c.07-.33.13-.66.17-1h0a2.44,2.44,0,0,1,0-.54,8.55,8.55,0,0,0,0-1.24,7.38,7.38,0,0,0-.07-.81.79.79,0,0,0-.07-.4,5.35,5.35,0,0,0-.19-.79,1.63,1.63,0,0,0-.13-.39l-.15-.38a31.51,31.51,0,0,0,6.16,1.8A21,21,0,0,1,112.3,107.15Z" transform="translate(0 -3.9)" opacity="0.45" fill="url(#linear-gradient-36)" style="isolation:isolate"/><path d="M49.92,71.21C45.3,72,43.33,70.13,43.24,70l.11.06c.13,0,.17-.11.21-.34.4-.11,1.1-.14,1.57-.31.72-.25,0-1.74.72-2.14a6.28,6.28,0,0,1,.59-.27c.35.81-1.27,1.71-.74,2.68s3.11.67,3.3-.35a1.93,1.93,0,0,0-1.25-2,.7.7,0,0,1-.4-.55,4.35,4.35,0,0,1,1.44,0c1.25.25.49,1.06,1.25,1.84A1.82,1.82,0,0,1,49.92,71.21Z" transform="translate(0 -3.9)" opacity="0.45" fill="url(#linear-gradient-37)" style="isolation:isolate"/><path d="M156.4,71.2C161,72,163,70.12,163.08,70l-.12.06c-.12,0-.17-.11-.2-.33-.4-.12-1.1-.15-1.58-.32-.71-.25,0-1.74-.71-2.13a5.46,5.46,0,0,0-.6-.27c-.34.81,1.27,1.71.74,2.68s-3.1.67-3.3-.35a2,2,0,0,1,1.26-2,.76.76,0,0,0,.4-.55,4.35,4.35,0,0,0-1.44,0c-1.26.25-.49,1.06-1.26,1.84a1.79,1.79,0,0,0,.11,2.53h0Z" transform="translate(0 -3.9)" opacity="0.45" fill="url(#linear-gradient-38)" style="isolation:isolate"/><path d="M150,78.67a33.57,33.57,0,0,1-10.49,1.44c-6.37,0-11.92-4.48-15.93-9h0c-.58-.66-1.14-1.34-1.65-2a29.12,29.12,0,0,1,2.72,1.25,16.18,16.18,0,0,1,4.81,3.6c2.37,2.9,5.48,1.21,8.21,3.69s5.3-.34,7.79.63A11.8,11.8,0,0,0,150,78.67Z" transform="translate(0 -3.9)" opacity="0.45" fill="url(#linear-gradient-39)" style="isolation:isolate"/><path d="M148,71.66c-4.57,2.17-10.88-2.41-12.92-4.92-1.39-1.73-3.14-2.12-4.47-3.36h0A5.75,5.75,0,0,1,129,60.54c-1.13-4-1.82-5.58-4.89-9.76a9.59,9.59,0,0,1-2.19-6.26c4.67,5.41,7.57,11.64,9.12,14.52.2.38.43.76.66,1.15h0C134.75,65,141.08,70.83,148,71.66Z" transform="translate(0 -3.9)" opacity="0.45" fill="url(#linear-gradient-40)" style="isolation:isolate"/><path d="M6.29,90.84s-1.89,27,34.11,45.78" transform="translate(0 -3.9)" fill="none" stroke-linecap="round" stroke-linejoin="round" stroke-width="1.37" stroke="url(#linear-gradient-41)"/><path d="M8.23,102.45s1-8.71,4.35-7.77S14.4,101.66,8.23,102.45Z" transform="translate(0 -3.9)" fill="url(#linear-gradient-42)"/><path d="M8.23,102.52S3.33,95.26.77,97.7,2.4,104.7,8.23,102.52Z" transform="translate(0 -3.9)" fill="url(#linear-gradient-43)"/><path d="M14.14,113.31s-1.49-8.64,2-8.69S19.81,110.82,14.14,113.31Z" transform="translate(0 -3.9)" fill="url(#linear-gradient-44)"/><path d="M14.16,113.36s-6.71-5.59-8.5-2.54S9.2,117.09,14.16,113.36Z" transform="translate(0 -3.9)" fill="url(#linear-gradient-45)"/><path d="M22.56,124.18s-2.83-8.28.63-8.9S27.77,120.83,22.56,124.18Z" transform="translate(0 -3.9)" fill="url(#linear-gradient-46)"/><path d="M22.59,124.24s-7.51-4.46-8.79-1.16S18.28,128.71,22.59,124.24Z" transform="translate(0 -3.9)" fill="url(#linear-gradient-47)"/><path d="M30.64,129.28s-5.94-6.41-3-8.39S34,124.07,30.64,129.28Z" transform="translate(0 -3.9)" fill="url(#linear-gradient-48)"/><path d="M30.69,129.32s-8.65-1-8.49,2.55S28.56,135.17,30.69,129.32Z" transform="translate(0 -3.9)" fill="url(#linear-gradient-49)"/><path d="M6.19,91.74s5.07-7.14,7.56-4.64S11.92,94.06,6.19,91.74Z" transform="translate(0 -3.9)" fill="url(#linear-gradient-50)"/><path d="M6.15,91.79S5.4,83.05,2,84,0,90.84,6.15,91.79Z" transform="translate(0 -3.9)" fill="url(#linear-gradient-51)"/><path d="M33.81,137.11S28.12,125,24,117.59s4-16.46,9.65-8.2,6.76,27.23,6.76,27.23Z" transform="translate(0 -3.9)" fill="url(#linear-gradient-52)"/><g opacity="0.45"><path d="M25.79,107.05A61,61,0,0,1,30,114c1.27,2.37,2.47,4.79,3.58,7.25a68.31,68.31,0,0,1,3,7.56,26.79,26.79,0,0,1,1.5,8.07h-1a26.85,26.85,0,0,0-1.47-7.74,77.75,77.75,0,0,0-2.83-7.49c-1.05-2.46-2.19-4.89-3.4-7.28s-2.44-4.77-3.6-7.2Z" transform="translate(0 -3.9)" opacity="0.45" style="isolation:isolate"/></g><path d="M25,119.35l7.64.83,2.6-8.06" transform="translate(0 -3.9)" fill="none" stroke="#000" stroke-miterlimit="10" stroke-width="0.73" opacity="0.45" style="isolation:isolate"/><path d="M28.4,126,36,128.65l2.7-5.32" transform="translate(0 -3.9)" fill="none" stroke="#000" stroke-miterlimit="10" stroke-width="0.73" opacity="0.45" style="isolation:isolate"/><path d="M59.47,100.46h0c-3.64,5.34-4.38,29.18-7.85,30.13s-4.76-.25-4.18,1.28,3.29,2,3.22,3.48c-.07,1.13-4.84,8.3-7,14a15.34,15.34,0,0,0-1,4c-.47,5.68-9.18,1.47-9.18,1.47s-2.7-18.41-1.75-20.7,2.48,2.61,3.94,2.32-3.13-4.91-2.09-8.56a35.92,35.92,0,0,1,1.34-3.77c1.26-3,3-5.89,4.5-5.83,2.2.08,1.33,1.91,2.91,1.1s-2.17-1.91-.54-5.54S51.45,102.07,59.47,100.46Z" transform="translate(0 -3.9)" fill="url(#linear-gradient-53)"/><g opacity="0.45"><path d="M59.47,100.45c-3.06,4-5.91,8.12-8.6,12.34A101.86,101.86,0,0,0,43.67,126a74.75,74.75,0,0,0-4.74,14.18,61.32,61.32,0,0,0-1.06,7.4A50.6,50.6,0,0,0,38,155l-.56.07a46.12,46.12,0,0,1-.4-7.61,49.44,49.44,0,0,1,.87-7.57,67.3,67.3,0,0,1,1.9-7.39,72.8,72.8,0,0,1,2.75-7.1,92.46,92.46,0,0,1,7.34-13.29A71.4,71.4,0,0,1,59.47,100.45Z" transform="translate(0 -3.9)" opacity="0.45" style="isolation:isolate"/></g><path d="M180.08,94s-3.19-10.9-5.77-17.67,6.87-12.66,10.74-4.92,1.45,23.39,1.45,23.39Z" transform="translate(0 -3.9)" fill="url(#linear-gradient-54)"/><g opacity="0.45"><path d="M178,68.08a51.81,51.81,0,0,1,2.67,6.29c.76,2.14,1.46,4.31,2.07,6.52a55,55,0,0,1,1.44,6.72,19.6,19.6,0,0,1-.06,7l-.89-.22a19.31,19.31,0,0,0,0-6.61,59.66,59.66,0,0,0-1.33-6.62c-.55-2.18-1.2-4.35-1.91-6.51s-1.44-4.29-2.12-6.46Z" transform="translate(0 -3.9)" opacity="0.45" style="isolation:isolate"/></g><path d="M174.91,78l7.1,2,4-6.08" transform="translate(0 -3.9)" fill="none" stroke="#000" stroke-miterlimit="10" stroke-width="0.65" opacity="0.45" style="isolation:isolate"/><path d="M177,84l6.73,3.56,3.56-3.84" transform="translate(0 -3.9)" fill="none" stroke="#000" stroke-miterlimit="10" stroke-width="0.65" opacity="0.45" style="isolation:isolate"/><path d="M214.66,67.55h0c-3.78,2.41-10.74,18-13.22,17.58s-3-1.64-3-.45S200,87.07,199.57,88c-.35.73-5.37,4-8.31,7.14a10.61,10.61,0,0,0-1.74,2.31c-1.84,3.63-6.3-1.88-6.3-1.88s3.18-13,4.43-14.28.89,2.5,1.91,2.77-.69-4.23,1-6.34a24.33,24.33,0,0,1,1.84-2.09c1.62-1.61,3.51-3,4.48-2.47,1.39.74.33,1.68,1.57,1.63s-.88-1.94,1.16-3.85S209.06,66.12,214.66,67.55Z" transform="translate(0 -3.9)" fill="url(#linear-gradient-55)"/><g opacity="0.45"><path d="M214.66,67.55c-3.1,1.72-6.08,3.58-9,5.57a68.35,68.35,0,0,0-8.23,6.55,49.76,49.76,0,0,0-6.85,8,40.46,40.46,0,0,0-2.64,4.55,34.43,34.43,0,0,0-1.94,4.9l-.38-.1a32.52,32.52,0,0,1,4.32-9.79,44.71,44.71,0,0,1,6.9-8.25,59.91,59.91,0,0,1,8.37-6.61A46.75,46.75,0,0,1,214.66,67.55Z" transform="translate(0 -3.9)" opacity="0.45" style="isolation:isolate"/></g><path d="M192.91,102.23l-7.81,13.13a1.82,1.82,0,0,1-2.25.75l-10.67-4.44a1.84,1.84,0,0,1-1.07-2.13l.19-.78,3.47-14.06a1.82,1.82,0,0,1,2.2-1.33l.25.08L192,99.62a1.81,1.81,0,0,1,1.08,2.07A2.45,2.45,0,0,1,192.91,102.23Z" transform="translate(0 -3.9)" fill="url(#linear-gradient-56)"/><path d="M192.91,102.23l-7.81,13.13a1.82,1.82,0,0,1-2.25.75l-10.67-4.44a1.83,1.83,0,0,1-1.07-2.12l.19-.79a3.64,3.64,0,0,0,4.48-.91c2.06-2.61,3.93.86,5.68-2.47s4.08.52,6-2.56,3.85-1.17,3.85-1.17h1.85A1.76,1.76,0,0,1,192.91,102.23Z" transform="translate(0 -3.9)" opacity="0.45" fill="url(#linear-gradient-57)" style="isolation:isolate"/><path d="M195.4,99.49l-1,2.63a1.67,1.67,0,0,1-2.18.91h0l-17.46-7.25a1.69,1.69,0,0,1-1-1.7h0a2,2,0,0,1,.12-.48l1-2.62a1.65,1.65,0,0,1,2.15-.92h0l17.46,7.26A1.69,1.69,0,0,1,195.4,99.49Z" transform="translate(0 -3.9)" fill="url(#linear-gradient-58)"/><path d="M181,91.69c-1,.45-1.55,1-2.31.58-1.78-.89-1.51,1.19-3.38,1a1.8,1.8,0,0,0-1.63.82,1.6,1.6,0,0,1,.11-.48L174.91,91a1.67,1.67,0,0,1,2.18-.91h0Z" transform="translate(0 -3.9)" opacity="0.45" fill="url(#linear-gradient-59)" style="isolation:isolate"/><path d="M198.4,130.65s7.79,21.15,41.62,23" transform="translate(0 -3.9)" fill="none" stroke-linecap="round" stroke-linejoin="round" stroke-width="1.37" stroke="url(#linear-gradient-60)"/><path d="M203.88,138.81s-2.25-7,.64-7.42S208.27,136.08,203.88,138.81Z" transform="translate(0 -3.9)" fill="url(#linear-gradient-61)"/><path d="M203.9,138.86s-6.2-3.82-7.32-1.09S200.24,142.53,203.9,138.86Z" transform="translate(0 -3.9)" fill="url(#linear-gradient-62)"/><path d="M212.08,145s-4.09-6-1.43-7.31S215.54,141.16,212.08,145Z" transform="translate(0 -3.9)" fill="url(#linear-gradient-63)"/><path d="M212.11,145.06s-7-1.93-7.33,1S209.61,149.61,212.11,145.06Z" transform="translate(0 -3.9)" fill="url(#linear-gradient-64)"/><path d="M222.21,150.38s-5-5.33-2.56-7S225,146,222.21,150.38Z" transform="translate(0 -3.9)" fill="url(#linear-gradient-65)"/><path d="M222.24,150.41s-7.23-.79-7.07,2.17S220.49,155.3,222.24,150.41Z" transform="translate(0 -3.9)" fill="url(#linear-gradient-66)"/><path d="M230.09,151.45s-6.72-2.82-5.17-5.33S230.89,146.31,230.09,151.45Z" transform="translate(0 -3.9)" fill="url(#linear-gradient-67)"/><path d="M230.14,151.47s-6.92,2.24-5.59,4.87S230.52,156.65,230.14,151.47Z" transform="translate(0 -3.9)" fill="url(#linear-gradient-68)"/><path d="M198.66,131.37s1.41-7.18,4.17-6.15S203.82,131.15,198.66,131.37Z" transform="translate(0 -3.9)" fill="url(#linear-gradient-69)"/><path d="M198.66,131.42s-3.56-6.39-5.86-4.56S193.68,132.82,198.66,131.42Z" transform="translate(0 -3.9)" fill="url(#linear-gradient-70)"/><path d="M235.18,156.31s-8.47-7.25-14.17-11.45-2.58-13.91,4.54-9.58S240,153.64,240,153.64Z" transform="translate(0 -3.9)" fill="url(#linear-gradient-71)"/><g opacity="0.45"><path d="M218.81,136.22a51.42,51.42,0,0,1,5.55,3.81c1.78,1.36,3.51,2.79,5.2,4.27a56.63,56.63,0,0,1,4.82,4.73,22.27,22.27,0,0,1,3.9,5.62l-.77.34a21.86,21.86,0,0,0-3.77-5.37,61.69,61.69,0,0,0-4.7-4.73c-1.65-1.5-3.34-3-5.08-4.35s-3.49-2.79-5.2-4.23Z" transform="translate(0 -3.9)" opacity="0.45" style="isolation:isolate"/></g><path d="M222.4,145.87l6.09-2-.78-7" transform="translate(0 -3.9)" fill="none" stroke="#000" stroke-miterlimit="10" stroke-width="0.73" opacity="0.45" style="isolation:isolate"/><path d="M227.24,149.7l6.66-.58.23-5" transform="translate(0 -3.9)" fill="none" stroke="#000" stroke-miterlimit="10" stroke-width="0.73" opacity="0.45" style="isolation:isolate"/><path d="M242.18,119.54h0c-.94,5.32,6.64,23.71,4.33,25.64s-3.71,1.46-2.74,2.42,3.21.42,3.63,1.53c.34.89-.85,8-.53,13.1a12.79,12.79,0,0,0,.57,3.36c1.59,4.48-6.48,4.3-6.48,4.3s-8.33-13.07-8.41-15.13,2.78,1.12,3.8.4-4.06-2.65-4.52-5.79a30.92,30.92,0,0,1-.27-3.33c-.07-2.72.25-5.51,1.44-6,1.69-.69,1.66,1,2.59-.17s-2.31-.7-2.32-4S236.62,123.54,242.18,119.54Z" transform="translate(0 -3.9)" fill="url(#linear-gradient-72)"/><g opacity="0.45"><path d="M242.18,119.54c-1,4.1-1.73,8.22-2.34,12.36a85.62,85.62,0,0,0-1,12.49,61.8,61.8,0,0,0,1.24,12.43,54.69,54.69,0,0,0,1.72,6,44.07,44.07,0,0,0,2.62,5.67l-.39.24a37.12,37.12,0,0,1-2.91-5.64A43.07,43.07,0,0,1,239.2,157a55.67,55.67,0,0,1-1.08-6.28,61.24,61.24,0,0,1-.33-6.35,77.84,77.84,0,0,1,1-12.66A58,58,0,0,1,242.18,119.54Z" transform="translate(0 -3.9)" opacity="0.45" style="isolation:isolate"/></g></g></svg>