<svg id="Layer_1" data-name="Layer 1" xmlns="http://www.w3.org/2000/svg" viewBox="0 0 248.97 187.75"><g opacity="0.3"><path d="M71.48,44.72c33.77,18.55,29.14-64.07,73.59-40.43S180.16-6,226.76,48.39s5.3,97.34,5.3,97.34c-24,11.39-37.69,14.55-50.27,19.8s-70.1,48.34-125.22-1.81S5,105.87.87,92.09s7.45-35.22,9.35-41.46S37.72,26.16,71.48,44.72Z" transform="translate(0.01 0)" fill="#fedea5" opacity="0.4" style="isolation:isolate"/><path d="M232.09,145.73c-24,11.39-37.69,14.55-50.28,19.81-10.12,4.22-49.38,32.94-93,17.85,19.09-5.78,33.48-15.52,39.05-17.85,12.59-5.26,26.24-8.42,50.28-19.81,0,0,41.29-43-5.31-97.34C134.65,3.87,134,18.54,110.63,12.33c7.56-10.52,17.39-17.12,34.46-8,44.46,23.64,35.1-10.28,81.69,44.1S232.09,145.73,232.09,145.73Z" transform="translate(0.01 0)" fill="#fed49b" opacity="0.3" style="isolation:isolate"/><path d="M182.48,100.93H65.59v42.31H182.48Z" transform="translate(0.01 0)" fill="#fede7d"/><path d="M151.37,94.54c.07-.22-1.18.3-1.17,0a13.38,13.38,0,0,0-.37-2.74c-.31-1.71-.65-3.41-1-5.12-.42-2-.85-3.92-1.27-5.88-.35-1.69-.74-3.39-1.17-5.06a22.94,22.94,0,0,0-1.42-4,4.1,4.1,0,0,0-1-1.58,3.27,3.27,0,0,0-1.89-.36c-2.68-.19-3.6,1.61-3.23,4.45.32,2.46,5,22.68,7.37,23.62C147.9,98.54,150.88,96.09,151.37,94.54Z" transform="translate(0.01 0)" fill="#f29a31"/><path d="M167.87,91.79c-3,.81-12.35,5.2-15.38,6-2.07.51-5,1.59-6.69-.27a3.35,3.35,0,0,1-.09-4c1-1.51.43-.48,2.07-.87,3.69-.87,10.21-.87,17.52-2.9C166.06,89.5,170.22,91.15,167.87,91.79Z" transform="translate(0.01 0)" fill="#f29a31"/><path d="M166.37,86.4a1.87,1.87,0,0,1-.14-.74,1.64,1.64,0,0,1,.63-1.33c.22-.15.58-.17.65.14s-.11.49-.18.73a1.57,1.57,0,0,0,0,1.13,1.07,1.07,0,0,0,.61.49,1.31,1.31,0,0,0,.83,0,1.26,1.26,0,0,0,.63-.55,1.42,1.42,0,0,0,.16-.86,1,1,0,0,0-.4-.72,1.64,1.64,0,0,0-.89-.22h-.45a.63.63,0,0,1-.33-.09.36.36,0,0,1-.08-.37c.06-.27.43-.43.67-.49a1.56,1.56,0,0,1,1.1.14,2.26,2.26,0,0,1,.52.35,3.23,3.23,0,0,1,.54.68,1.65,1.65,0,0,1,.22.68,2.19,2.19,0,0,1-.27,1.35,2.24,2.24,0,0,1-.54.61,2.62,2.62,0,0,1-.64.34,1.76,1.76,0,0,1-.68.1A2.2,2.2,0,0,1,166.37,86.4Z" transform="translate(0.01 0)" fill="#f29a31"/><path d="M167,87.22s.82,2.14-4.46,3.18L166,92.09a18.65,18.65,0,0,0,4.71-1.15c.43-.16.86-.34,1.28-.52a9.94,9.94,0,0,0,2.86-1.64c.12-.11,1-1,.47-1a1.76,1.76,0,0,0-1.14.42,3.53,3.53,0,0,1-3,.7,7.75,7.75,0,0,0,3.53-2,8.73,8.73,0,0,0,1-1.35,1.25,1.25,0,0,0,.27-.93c-.07-.28-.35-.3-.59-.21s-.58.55-.84.83a9.41,9.41,0,0,1-1.19,1,9.71,9.71,0,0,1-1.22.78,4.27,4.27,0,0,1-.77.31,3.38,3.38,0,0,1-1,.12,11,11,0,0,0,1.36-.59,8.68,8.68,0,0,0,2.73-2,2.72,2.72,0,0,0,.58-1.07c.05-.22.16-.43,0-.63a.56.56,0,0,0-.68-.11c-.29.12-.45.4-.64.62a10.07,10.07,0,0,1-2.41,2c-.42.24-2.35,1.5-3,1.39Z" transform="translate(0.01 0)" fill="#f29a31"/><path d="M106.65,94.46c-.07-.22,1.18.3,1.17,0a13.38,13.38,0,0,1,.37-2.74c.31-1.71.65-3.41,1-5.12.42-2,.85-3.92,1.27-5.88.36-1.69.74-3.39,1.18-5.06a21.59,21.59,0,0,1,1.41-4,4.1,4.1,0,0,1,1-1.58,3.35,3.35,0,0,1,1.89-.36c2.68-.18,3.6,1.61,3.24,4.45-.33,2.47-5,22.68-7.38,23.62C110.12,98.46,107.14,96,106.65,94.46Z" transform="translate(0.01 0)" fill="#f29a31"/><path d="M90.15,91.71c3,.81,12.35,5.2,15.39,6,2.06.52,5,1.59,6.68-.26a3.36,3.36,0,0,0,.09-4c-1-1.51-.43-.48-2.07-.86-3.68-.88-10.21-.88-17.52-2.91C92,89.42,87.8,91.07,90.15,91.71Z" transform="translate(0.01 0)" fill="#f29a31"/><path d="M91.65,86.33a1.92,1.92,0,0,0,.14-.75,1.64,1.64,0,0,0-.63-1.33c-.22-.16-.57-.17-.65.14s.11.49.18.73a1.57,1.57,0,0,1,0,1.13,1,1,0,0,1-.61.49,1.31,1.31,0,0,1-.83,0,1.26,1.26,0,0,1-.63-.55,1.42,1.42,0,0,1-.16-.86,1,1,0,0,1,.41-.72,1.6,1.6,0,0,1,.88-.22h.45a.63.63,0,0,0,.33-.09.36.36,0,0,0,.08-.37c-.06-.27-.43-.43-.66-.49a1.56,1.56,0,0,0-1.1.14,2.32,2.32,0,0,0-.53.35,3.23,3.23,0,0,0-.54.68,1.65,1.65,0,0,0-.22.68,2.22,2.22,0,0,0,.27,1.36,2.58,2.58,0,0,0,.54.6,2.69,2.69,0,0,0,.65.34,1.68,1.68,0,0,0,.67.1A2.2,2.2,0,0,0,91.65,86.33Z" transform="translate(0.01 0)" fill="#f29a31"/><path d="M91,87.14s-.82,2.14,4.47,3.18L92,92a18.63,18.63,0,0,1-4.71-1.14c-.43-.16-.86-.34-1.28-.52a9.81,9.81,0,0,1-2.86-1.64c-.12-.11-1-1-.47-1a1.76,1.76,0,0,1,1.14.42,3.47,3.47,0,0,0,3,.7,7.67,7.67,0,0,1-3.52-2,8.28,8.28,0,0,1-1-1.35,1.3,1.3,0,0,1-.27-.93c.07-.28.36-.3.59-.21.39.13.58.55.84.84a8.84,8.84,0,0,0,1.2,1A8.65,8.65,0,0,0,85.9,87a5,5,0,0,0,.76.31,3.74,3.74,0,0,0,1,.11,9.63,9.63,0,0,1-1.36-.59,8.68,8.68,0,0,1-2.73-2,2.89,2.89,0,0,1-.57-1.1c0-.21-.16-.43,0-.63a.56.56,0,0,1,.69-.11c.28.12.44.4.63.62a10.07,10.07,0,0,0,2.41,2c.42.24,2.35,1.5,3,1.39Z" transform="translate(0.01 0)" fill="#f29a31"/><path d="M119.48,69.8H140.2s-3.13,5.68-11.1,5.73C129.11,75.53,119.1,73.16,119.48,69.8Z" transform="translate(0.01 0)" fill="#f29a31"/><path d="M141.08,94.11l3.19-23.33a1,1,0,0,0-1-1h-3.79s-4.47,4.13-10,4.13-10-4.08-10-4.13a33.8,33.8,0,0,0-4.93,0l4.28,24.29L113,107.61c18.94,10.27,33,.31,33-.23Z" transform="translate(0.01 0)" fill="#7e64bf"/><path d="M114.55,104s15,9.13,30.2,0c0,0,4.25,6.7,4.56,13.75,0,0-14.22,3.37-39.72,0C109.59,117.77,110.92,109.23,114.55,104Z" transform="translate(0.01 0)" fill="#565d70"/><path d="M87,122.51c9.17.3,18.35-1.25,27.52-1.45,2.75-.06,5.8-.49,7.84-2.49s1.5-8.33-.68-10.36c-4.94-4.58-10-2.47-16-1.25-5.21,1.06-17.92,5.21-18,5.5Z" transform="translate(0.01 0)" fill="#565d70"/><path d="M166.87,122.55c-9.17.3-16.11-1-25.28-1.18-2.75-.06-5.8-.48-7.85-2.49s.82-8,3-10c4.94-4.59,8.71-3,14.63-1.81,5.22,1.07,14.31,4.08,13.91,4.61Z" transform="translate(0.01 0)" fill="#565d70"/><path d="M132.68,61.48h-6v9.63h6Z" transform="translate(0.01 0)" fill="#f29a31"/><path d="M128,65.25a7.35,7.35,0,0,0,4.71-.52v1.14A7.11,7.11,0,0,1,128,65.25Z" transform="translate(0.01 0)" fill="#db7d0d"/><path d="M132.62,64.52v5.26h.12V64.52" transform="translate(0.01 0)" fill="#333242"/><path d="M129.38,45.87c.09-1.28,0-2.49-1.55-2.88a4.93,4.93,0,0,0-4.35.88,6,6,0,0,1-1,.8c-.82.42-1.82.17-2.64.65-1,.59-1.56,1.66-2.5,2.33a8.23,8.23,0,0,1-2.86,1.09,3.24,3.24,0,0,0-2.4,1.78c-.37.91-.07,1.94-.47,2.84s-1.17,1.26-1.81,1.83c-1.67,1.48-1,3.65.43,5s1.12,2.93,3,3.58c2.11.72,4.36-.2,6.45.75a4.42,4.42,0,0,0,2.86.6,16.29,16.29,0,0,1,4.34-.49c1.16.07,2.46,0,3-1.21,1.08-2.6-.3-5.63-.28-8.3.13-1.2.21-2.4.22-3.6s-.47-2.32-.56-3.51A15.27,15.27,0,0,1,129.38,45.87Z" transform="translate(0.01 0)" fill="#565d70"/><path d="M128.19,46c-.28-1.25-.37-2.47,1.07-3.09a5,5,0,0,1,4.41.16,5.26,5.26,0,0,0,1.1.64c.88.28,1.83-.11,2.71.23,1.1.42,1.8,1.39,2.84,1.91a8,8,0,0,0,3,.66A3.34,3.34,0,0,1,146,47.87c.5.84.37,1.91.91,2.73A6.21,6.21,0,0,0,149,52.13c1.88,1.2,1.55,3.45.36,5s-.64,3.07-2.43,4c-2,1-4.33.48-6.24,1.74a4.56,4.56,0,0,1-2.74,1,16.4,16.4,0,0,0-4.37.18c-1.12.25-2.43.35-3.1-.73-1.48-2.4-.59-5.62-1-8.25a32.37,32.37,0,0,1-.79-3.51c-.07-1.19.09-2.38,0-3.56A15,15,0,0,0,128.19,46Z" transform="translate(0.01 0)" fill="#565d70"/><path d="M138.14,55.74a12.12,12.12,0,0,1-2.4,6.64,7.25,7.25,0,0,1-11.21.87,12.14,12.14,0,0,1-3.42-6.18,8.19,8.19,0,0,1,1.43-6.7,8.77,8.77,0,0,1,12.28-1.71h0a7.77,7.77,0,0,1,.82.7A8.22,8.22,0,0,1,138.14,55.74Z" transform="translate(0.01 0)" fill="#f29a31"/><path d="M122.82,58.93a4.85,4.85,0,0,0-.3-.91c-.09-.24-.21-.46-.3-.7a4.38,4.38,0,0,0-.39-.92,1.34,1.34,0,0,0-.4-.42A1.6,1.6,0,0,0,120,55.9l-.11.07h0a1.1,1.1,0,0,0-.58,1,3.71,3.71,0,0,0,.43,1.25c.2.45.35.93.58,1.37a2,2,0,0,0,1.14,1.16,1.18,1.18,0,0,0,.9-.13,1.14,1.14,0,0,0,.54-.79A2.28,2.28,0,0,0,122.82,58.93Z" transform="translate(0.01 0)" fill="#db7d0d"/><path d="M136.86,58.75a1.14,1.14,0,0,0,.66.7,1.27,1.27,0,0,0,.9,0,2.09,2.09,0,0,0,1-1.32c.15-.48.22-1,.34-1.45a3.4,3.4,0,0,0,.23-1.3,1.12,1.12,0,0,0-.72-.89h-.05l-.12-.06a1.67,1.67,0,0,0-.94,0,1.38,1.38,0,0,0-.46.25,1.55,1.55,0,0,0-.32.48,4.31,4.31,0,0,0-.25,1,4.58,4.58,0,0,1-.18.73,5.62,5.62,0,0,0-.15,1A2.48,2.48,0,0,0,136.86,58.75Z" transform="translate(0.01 0)" fill="#db7d0d"/><path d="M127.33,55.22a1.76,1.76,0,0,1-.44-.15h0a.54.54,0,0,0,.06-.25.19.19,0,0,0-.15-.19.06.06,0,0,0-.06,0c-.11,0-.13.22-.16.31a1,1,0,0,1-.25.4,1.21,1.21,0,0,1-1.23.23c-.39-.13-.83-.38-.8-.84a.16.16,0,0,0-.32,0,1.06,1.06,0,0,0,.31.75,1,1,0,0,1-.48.32c-.11,0-.06.21,0,.17a1.22,1.22,0,0,0,.57-.38.57.57,0,0,0,.16.11l.22.11a2.91,2.91,0,0,1-.16.5c0,.1.1.19.15.09a2.52,2.52,0,0,0,.17-.53,2.07,2.07,0,0,0,.7.09,1.4,1.4,0,0,0,.06.5c.06.16.19.07.17,0l-.06-.47a1.46,1.46,0,0,0,.53-.22,1.94,1.94,0,0,0,.44.31c.1,0,.19-.09.09-.15a1.51,1.51,0,0,1-.39-.27l.11-.11.2-.27a2.64,2.64,0,0,0,.47.17C127.39,55.41,127.48,55.25,127.33,55.22Z" transform="translate(0.01 0)" fill="#333242"/><path d="M123.48,53.13a1.75,1.75,0,0,1,.29-.18h.08l.19-.08a3.26,3.26,0,0,1,.44-.15,2.85,2.85,0,0,1,2.34.41l.24.17c.13.12.32-.09.18-.2a3.18,3.18,0,0,0-2.5-.71,3.61,3.61,0,0,0-1.42.54h0C123.2,53,123.36,53.23,123.48,53.13Z" transform="translate(0.01 0)" fill="#333242"/><path d="M131.71,54.87c.14-.06.27-.15.4-.22h0a.42.42,0,0,1-.09-.24.2.2,0,0,1,.11-.21.06.06,0,0,1,.06,0c.11,0,.17.19.21.28a1,1,0,0,0,.31.35,1.22,1.22,0,0,0,1.25,0c.36-.18.76-.5.65-1a.16.16,0,0,1,.32,0h0a1,1,0,0,1-.18.78,1.15,1.15,0,0,0,.52.25c.11,0,.1.19,0,.17a1.21,1.21,0,0,1-.62-.28l-.17.17-.21.14a4.16,4.16,0,0,0,.24.47c.06.09-.07.21-.14.11s-.16-.33-.25-.5a1.79,1.79,0,0,1-.67.2v.51c0,.17-.17.09-.18,0s0-.32,0-.48a1.38,1.38,0,0,1-.56-.12,2.22,2.22,0,0,1-.38.37c-.09.06-.21-.07-.11-.13a2.65,2.65,0,0,0,.34-.33l-.14-.1-.23-.23c-.15.08-.28.17-.44.24S131.6,54.92,131.71,54.87Z" transform="translate(0.01 0)" fill="#333242"/><path d="M135.15,52.22l-.31-.13h-.08l-.2-.05a3.69,3.69,0,0,0-.46-.08,2.85,2.85,0,0,0-2.24.77,2.08,2.08,0,0,0-.21.21c-.12.13-.33,0-.21-.18a3.16,3.16,0,0,1,2.35-1.08,3.5,3.5,0,0,1,1.49.31h0a.13.13,0,0,1,0,.2h0A.15.15,0,0,1,135.15,52.22Z" transform="translate(0.01 0)" fill="#333242"/><path d="M128.09,61.38a3.37,3.37,0,0,0,1.08.56,2.42,2.42,0,0,0,2.17-.27,2.8,2.8,0,0,0,.6-.59c.11-.14-.1-.32-.21-.17a2.24,2.24,0,0,1-1.07.8,2.12,2.12,0,0,1-1.06.06,3.19,3.19,0,0,1-.85-.3l-.3-.17h-.12C128.13,61.06,127.94,61.27,128.09,61.38Z" transform="translate(0.01 0)" fill="#333242"/><path d="M120.28,58.38c.24.84.92,1.73,1.9,1.43.13,0,.06-.24-.07-.2-.86.27-1.43-.58-1.63-1.3C120.48,58.18,120.25,58.25,120.28,58.38Z" transform="translate(0.01 0)" fill="#333242"/><path d="M138.84,56.87c-.09.74-.51,1.67-1.41,1.54-.13,0-.17.18,0,.2,1,.15,1.55-.84,1.65-1.7C139.06,56.79,138.85,56.75,138.84,56.87Z" transform="translate(0.01 0)" fill="#333242"/><path d="M128.6,47.24c-.09,0,.1.93.13,1a2.15,2.15,0,0,0,1.87,1.24,4.17,4.17,0,0,1,1.1.3,5.78,5.78,0,0,1,1,.77,3.78,3.78,0,0,0,2.22.75s1.47.09,2.54,2.81L136,48.53Z" transform="translate(0.01 0)" fill="#c15724"/><path d="M139.89,52.87c-.16-.29-.34-.57-.53-.85s-.64-.82-1-1.23c-.62-.76-1.2-1.54-1.88-2.26a9,9,0,0,0-2.56-1.93,7.85,7.85,0,0,0-3-.78h-.81a2.35,2.35,0,0,0-.7.07,1.9,1.9,0,0,0-.4.14.5.5,0,0,0-.24-.06h-1.54a15.85,15.85,0,0,0-1.68.14,5.39,5.39,0,0,0-1.55.54,6.07,6.07,0,0,0-2.21,2,5.4,5.4,0,0,0-.71,1.47c-.08.27-.14.55-.23.83s-.14.44-.22.66a4.38,4.38,0,0,0-.38,1.78,5.76,5.76,0,0,0,.22,1c.07.28.1,1.38.51,1.42s.52-.76.57-1.08a6.11,6.11,0,0,1,.6-1.76,3.36,3.36,0,0,1,1.44-1.71,5.31,5.31,0,0,0,1.41-.7,8,8,0,0,0,.92-1.32c.45-.61,1.26-.68,1.91-1a2.19,2.19,0,0,0,.94-.79c-.08.13.31.67.39.77a1.74,1.74,0,0,0,.67.5c.58.26,1.24.27,1.81.55.73.36,1.2,1.12,2,1.39s1.67.2,2.18.91A6.86,6.86,0,0,1,137.35,55c0,.15-.12.82.22.7s.75-1,1-1.35c.53-1,1.71.31,1.63-.78A2,2,0,0,0,139.89,52.87Z" transform="translate(0.01 0)" fill="#6b748b"/><path d="M129.58,46.38c1.2,0,1.56,1.19,2.54,1.63,1.44.65,3.55-.71,4.73.74s.77,2.9,3.26,2.78a5.74,5.74,0,0,1,4.5,1.44c-2.11-1.88-5.86-.15-7.24-2.63-.53-.92-.5-1.55-1.57-2s-2.32.27-3.45-.1S130.89,46.49,129.58,46.38Z" transform="translate(0.01 0)" fill="#9099b9"/><path d="M127.53,44.87c-2-.66-2.8,2.08-4.5,2.64-.69.22-1.56-.23-2.14.15-1.21,1.31.22,1.28-2.09,1.79a2.81,2.81,0,0,0-1.09.4,1.15,1.15,0,0,0-.4.63c-.08.34,0,.76-.3,1,0,0-.92.42-.93.28,0,.18,1-.36,1-.66.11-.51,0-1,.51-1.38.73-.54,2-.33,2.62-.95.35-.35,0-1,.54-1.31s1.07-.06,1.55,0C124.57,47.55,125.13,44,127.53,44.87Z" transform="translate(0.01 0)" fill="#9099b9"/><path d="M120.91,50.63c-1.15.39-1.28,1.69-2.25,2.24-.72.4-1.92.14-2.49.75s.23,1.81-.51,2.42-2.14-.36-2.91.42c-.58.59,0,1.75-1.07,2,1.1-.29.42-1.48,1-2.1s2.16.27,2.83-.44-.21-2,.67-2.54c1.41-.85,2.32-.19,3.36-1.7A2.4,2.4,0,0,1,120.91,50.63Z" transform="translate(0.01 0)" fill="#9099b9"/><path d="M129.14,45.18c1.19-1.07,2,0,3.21.24s2.34-.27,3.42.24c.7.33,1,1.12,1.71,1.52,1.18.72,2.66.24,3.9.76s2.06,1.7,3.34,2.18c-1.25-.4-2.05-1.51-3.24-2s-2.69-.08-3.91-.69c-.76-.38-1.12-1.19-1.85-1.6-1-.51-2.15-.1-3.23-.26C131.2,45.38,130.48,44.12,129.14,45.18Z" transform="translate(0.01 0)" fill="#9099b9"/><path d="M141.27,55.87c1.69-.61,1.26,1.51,2.37,2,.64.23,1.3-.44,2,0,.45.28.65,1.2.81,1.66-.2-.41-.45-1.3-.89-1.54-.66-.36-1.36.33-2,.06C142.42,57.54,142.91,55.46,141.27,55.87Z" transform="translate(0.01 0)" fill="#9099b9"/><path d="M132.1,52" transform="translate(0.01 0)"/><path d="M122.48,60.55a11.1,11.1,0,0,0,5,4.56A8.76,8.76,0,0,1,122.48,60.55Z" transform="translate(0.01 0)" fill="#333242"/><path d="M129.32,73.93h1a2.49,2.49,0,0,0,.72-.08c.26-.08.54-.09.83-.16s.6-.14.91-.24l1-.31.49-.19.48-.2.48-.22.46-.23c.16-.07.31-.15.46-.23l.43-.25.42-.24a4.11,4.11,0,0,1,.39-.24l.37-.24L138,71l.16-.11.31-.22.28-.2.44-.33.38-.29-.36.31-.43.35-.27.21-.3.22L138,71l-.17.12c-.12.08-.23.17-.36.25l-.39.25c-.13.09-.27.17-.41.25l-.44.25-.45.25-.47.23-.48.22-.49.2-.49.19c-.32.11-.65.22-1,.31l-.92.22c-.29.06-.58.1-.85.14a10.81,10.81,0,0,1-1.27.07Z" transform="translate(0.01 0)" fill="#333242"/><path d="M98.66,74.41l.07.1,6.5-4.52-1.07,7.88-5.43-3.54-.07.1-.07.11,5.77,3.76,1.2-8.82-7.12,5,.15.11Z" transform="translate(0.01 0)" fill="#565d70"/><path d="M114.48,37.39h-.12L113,40.52l3.25.74-1.73-4.19-.12.27h0l1.4,3.53-2.46-.57,1.27-2.85h-.23Z" transform="translate(0.01 0)" fill="#565d70"/><path d="M150.26,67.77v.1h5.52l-1.3,2.72-4.17-2.92-.08.1h0l-.07.1,4.42,3.1,1.57-3.32h-6.31l.32.22Z" transform="translate(0.01 0)" fill="#8e97fd"/><path d="M134.29,120.33c1.12,0,2.23-.21,3.35-.26a12.14,12.14,0,0,1,4,.68c1.29.38.5-1.74.11-2.87a2.39,2.39,0,0,0-1.95-1.38,41.37,41.37,0,0,1-4.41-1c-1.11-.38-1.92-1.38-3.11-1.55a2.88,2.88,0,0,0-3,1.11c-.8,1.48-10.39-.53-13.32-.41-6.1.25-2.88,7.49-2.88,7.49.16-.22,19.58-1.77,20.88-1.77Z" transform="translate(0.01 0)" fill="#db7d0d"/><path d="M118.34,114.74c-13.23-1.07-19.65-3.88-26-3.68a11.33,11.33,0,0,0-8.14,4.11c-2.77,3.28-1.6,8.7,2.38,10,2.33.73,16.94-1.62,32-3.62Z" transform="translate(0.01 0)" fill="#9099b9"/><path d="M111,130.31c-1.19.64-.25-3.35,3-4.64a27.83,27.83,0,0,0,4.1-1.92c1-.59,1.59-1.73,2.71-2.14a2.86,2.86,0,0,1,3.15.47c1.1,1.28,10.06-2.64,13-3.12,6-1,4.39,6.74,4.39,6.74-.2-.18-19.52,2.26-20.8,2.53C120.37,128.26,112.24,129.66,111,130.31Z" transform="translate(0.01 0)" fill="#f29a31"/><path d="M134.57,119.58c12.72-3.75,18.41-7.81,24.63-8.9A11.33,11.33,0,0,1,168,113c3.41,2.65,3.4,8.2-.23,10.24-2.12,1.19-16.91,1.87-32,3Z" transform="translate(0.01 0)" fill="#9099b9"/><path d="M117.59,70l5.73,24.14-2.67,12.49s-4.88-1.44-6.1-2.58l4.29-9.91L114.56,69.9S116.77,69.49,117.59,70Z" transform="translate(0.01 0)" fill="#8e6ed9"/><path d="M128.61,73.87a15.68,15.68,0,0,1-9.12-4.09h2.2S122.41,72.25,128.61,73.87Z" transform="translate(0.01 0)" fill="#db7d0d"/><path d="M117.35,105.4s.34.16,1,.39c.3.12.68.26,1.11.4l.33.11.35.12.77.23c.54.15,1.13.31,1.75.45l1,.21.5.09.51.1,1.06.16.54.07.54.06h4.45a6.61,6.61,0,0,0,1.09,0h1.06a5.58,5.58,0,0,0,1-.12l.5-.08h.48l.92-.17.85-.19h.4l.38-.1.36-.1h.17l.17,0,.61-.19.51-.17,1-.34-1,.37c-.15.06-.33.11-.51.17l-.61.21-.11-.06h-.18l-.36.1-.37.11-.2.06h-.2l-.85.2-.92.18H135l-.5.08-1,.13h-1.06a6.7,6.7,0,0,0-1.1.06H126.8l-.55-.07-.54-.07-1.06-.17a4.54,4.54,0,0,1-.51-.09l-.5-.1-1-.22c-.62-.15-1.21-.32-1.75-.47l-1.45-.48-1.1-.42-.7-.31Z" transform="translate(0.01 0)" fill="#333242"/><path d="M131.65,120.64l.88-.3,2.31-.8,1.54-.54,1.72-.61,1.84-.66,1.89-.69,1.88-.7,1.82-.7,1.7-.66,1.52-.61,1.27-.53.28-.11.25-.11.45-.2.85-.36-.84.39-.44.2-.26.11-.27.12-1.26.56-1.51.62c-.54.23-1.11.45-1.69.68l-1.82.71-1.89.71-1.89.68c-.63.22-1.24.45-1.84.65l-.88.31-.85.29c-.55.18-1.07.35-1.54.52l-2.33.75-.66.21Z" transform="translate(0.01 0)" fill="#333242"/><path d="M83.75,122.92a1.35,1.35,0,0,0,.15.26,3.54,3.54,0,0,0,.53.63,4.63,4.63,0,0,0,1,.76,3.94,3.94,0,0,0,.73.32,6.32,6.32,0,0,0,.85.24l.46.08h3.16l.57-.07,4.81-.62,4.81-.6,4.2-.51,3-.35,1.13-.13-1.13.16-3,.39-4.19.55-4.81.62-4.82.59-.57.07H87.5l-.47-.08a5.29,5.29,0,0,1-1.58-.59,4.72,4.72,0,0,1-1-.78,3.62,3.62,0,0,1-.52-.65A1.75,1.75,0,0,1,83.75,122.92Z" transform="translate(0.01 0)" fill="#333242"/><path d="M153.12,107.44l1.23.34,1.4.37,1.83.5,2.14.61c.77.22,1.57.46,2.39.73a19,19,0,0,1,2.49,1,17.28,17.28,0,0,1,2.44,1.3,9.46,9.46,0,0,1,2.06,1.83,4.26,4.26,0,0,1,.41.54,5,5,0,0,1,.35.58,6.75,6.75,0,0,1,.51,1.21,5.86,5.86,0,0,1,.26,2.46,7.33,7.33,0,0,1-.24,1.13,7,7,0,0,1-.37,1,4.56,4.56,0,0,1-.51.85,6.25,6.25,0,0,1-.61.65,4.93,4.93,0,0,1-1.21.81l-.27.11-.24.08-.2.06h-.42l.24-.06a4.51,4.51,0,0,0,.87-.31,4.58,4.58,0,0,0,1.18-.83,5.34,5.34,0,0,0,.59-.66,3.77,3.77,0,0,0,.26-.39c.08-.15.15-.3.22-.45a5.93,5.93,0,0,0,.35-1,5.58,5.58,0,0,0-.06-3.43A6.9,6.9,0,0,0,169,114.2a9.15,9.15,0,0,0-2-1.78,15.44,15.44,0,0,0-2.4-1.3,24.06,24.06,0,0,0-2.47-1c-.82-.28-1.62-.53-2.38-.76s-1.47-.45-2.14-.64l-.48-.15-.47-.13-.86-.25-1.4-.41Z" transform="translate(0.01 0)" fill="#333242"/><path d="M125.4,84.44a1.46,1.46,0,0,0,1,1.12,3.94,3.94,0,0,0,2.43-.4,4.67,4.67,0,0,0,1.62-.74,3,3,0,0,1,.65,1.28,5.24,5.24,0,0,1,.16,1.18,2,2,0,0,0-.78-1,1.4,1.4,0,0,0-.84-.24.57.57,0,0,0-.54.46,1.86,1.86,0,0,0,.38,1.31,3.09,3.09,0,0,0,.61.64,3.68,3.68,0,0,0,.75.48,4.47,4.47,0,0,1-2.14,2,.28.28,0,0,0-.12.38h0A.32.32,0,0,0,129,91l.34-.16a5.48,5.48,0,0,0,1.1-.81h0a3.19,3.19,0,0,0,2.4.5A2,2,0,0,0,134.2,90a.77.77,0,0,0,0-.75,1,1,0,0,0-.71-.49,5.9,5.9,0,0,0-1.57,0,1.54,1.54,0,0,0-.6.09,3.8,3.8,0,0,0,.48-1.54,5.16,5.16,0,0,0-.22-1.91,3,3,0,0,0-.87-1.45,8,8,0,0,0,1-.83,3.3,3.3,0,0,0,.91-1.64,1.26,1.26,0,0,0-.25-1.15,1.11,1.11,0,0,0-.89-.25,1.84,1.84,0,0,0-.86.23,1.73,1.73,0,0,0-.55.56,3.29,3.29,0,0,0-.4,1.5,6.39,6.39,0,0,0-.78-1.31c-.38-.47-1.08-1.2-1.77-1a1.38,1.38,0,0,0-.71,1.48,2,2,0,0,0,.76,1.18,5.3,5.3,0,0,0,.54.39,4.6,4.6,0,0,0-.83-.11,1.89,1.89,0,0,0-.85.11,1,1,0,0,0-.61.58A1.28,1.28,0,0,0,125.4,84.44Zm5.47,5.16H131a4.1,4.1,0,0,1,.5-.14,7.64,7.64,0,0,1,1.51-.13,1.21,1.21,0,0,1,.38,0c.2,0,.42.24.19.42a1.68,1.68,0,0,1-.73.22h-.31A2.3,2.3,0,0,1,130.87,89.6Zm-.07-2.18a3.13,3.13,0,0,0,.1.44,2.6,2.6,0,0,1-.94-.8c-.09-.13-.56-1-.1-.85a1.23,1.23,0,0,1,.31.14,1.51,1.51,0,0,1,.42.52A2.6,2.6,0,0,1,130.8,87.42Zm-.52-5a2.17,2.17,0,0,1,.52-1.5c.22-.21,1.09-.54,1.22-.07a1.1,1.1,0,0,1,0,.51,2.91,2.91,0,0,1-.49,1,6.28,6.28,0,0,1-1.23,1.13,10.28,10.28,0,0,1,0-1.11Zm-.78,1c-.05-.12-.57-.27-.7-.34s-.43-.21-.64-.33a2.53,2.53,0,0,1-1-1,1.06,1.06,0,0,1,0-.92c.27-.45.84,0,1.07.26a4,4,0,0,1,.57.73,12.87,12.87,0,0,1,.73,1.55ZM126,84c.21-.46,1-.32,1.38-.25l1.21.25a12,12,0,0,1,1.19.27,2.17,2.17,0,0,1-.35.15c-.55.2-1.11.42-1.67.6a1.6,1.6,0,0,1-1.49-.08,1.06,1.06,0,0,1-.32-.64.62.62,0,0,1,0-.38Z" transform="translate(0.01 0)" fill="#fdc6d4"/><path d="M130.8,135.21a18.79,18.79,0,0,0-6.73-1.06c-2.62-.09-5.26.09-7.88-.16-1.31-.13-2.61-.32-3.91-.56-.41-.07-1.63,1.46-1.6,2,0,.79,10.39,1.83,11.12,2.44s2.37.27,3.3.21,1.87-.14,2.8-.18a8.69,8.69,0,0,1,2.39.06A3.39,3.39,0,0,0,130.8,135.21Z" transform="translate(0.01 0)" fill="#f59d0e"/><path d="M131.57,135.59c-.25-.14-.51-.26-.77-.38a3.4,3.4,0,0,1-.51,2.8l.17.05c.68.2,1.41.69,1.87-.13A1.79,1.79,0,0,0,131.57,135.59Z" transform="translate(0.01 0)" fill="#fbd89f"/><path d="M83.31,145.56a8.9,8.9,0,0,0,1,3.78,14.41,14.41,0,0,0,10.27,7.53,16.06,16.06,0,0,0,11.17-1.76c1.48-.88,7.27-5.45,8.84-6.19,3.21-1.52,9.14-6.41,4.54-9.9-1-.73-.71-2.62-1.49-3.55-1.2-1.44-3.72-1.84-5.47-2.2-5.45-1.14-11.07-2-16.64-1.36A22.55,22.55,0,0,0,90.8,133a15.33,15.33,0,0,0-4.8,2.68C83.09,138.16,83.11,142,83.31,145.56Z" transform="translate(0.01 0)" fill="#f59d0e"/><path d="M117.56,135.68a12.8,12.8,0,0,1,4.62,3.13c2.39,3-.07,7-2.78,8.82a14.36,14.36,0,0,1-2.7,1.39,31.9,31.9,0,0,0-4,1.68,51.55,51.55,0,0,0-4.82,3.06,11.79,11.79,0,0,0-6.69-13.43s5.87-2.89,2.75-8C103.92,132.32,115.68,134.77,117.56,135.68Z" transform="translate(0.01 0)" fill="#f59d0e"/><path d="M112.12,151c3.23-1.49,4.91-1.14,5.48-1.09,2.46.18,5.13.3,7.36-.94a5.32,5.32,0,0,0,2.52-3.29,6.38,6.38,0,0,0-2.72-6.5,20.82,20.82,0,0,0-3.55-2.17c-1.39-.71-4.77-2-7.44-3-.17-.06,2.24,1.25,2.11,1.37a.68.68,0,0,0,0,1l0,0h0c1.81,1.58-.21,4.19-1.13,5.66a28.65,28.65,0,0,0-2.37,4.69,5.28,5.28,0,0,0-.43,2C112,149.73,111,151.56,112.12,151Z" transform="translate(0.01 0)" fill="#f59d0e"/><path d="M125.31,149.46l.37.08a1.14,1.14,0,0,0,.73,0c.24-.09.14-.41.09-.59s-.15-.57-.25-.85a3.79,3.79,0,0,0-.18-.42.63.63,0,0,0-.21-.3.34.34,0,0,0-.26.05,2.11,2.11,0,0,0-.56.42l-.19.19a4.74,4.74,0,0,0-.65.76c0,.27.4.41.62.5A2.81,2.81,0,0,0,125.31,149.46Z" transform="translate(0.01 0)" fill="#f59d0e"/><path d="M127.56,141l.36.11a1.23,1.23,0,0,1,.64.35c.17.2-.09.43-.21.56s-.42.43-.64.62l-.37.28a.68.68,0,0,1-.33.16.27.27,0,0,1-.2-.17,2.4,2.4,0,0,1-.29-.63.4.4,0,0,0-.06-.26,4.21,4.21,0,0,1-.19-1c.17-.22.55-.17.79-.14A4.05,4.05,0,0,1,127.56,141Z" transform="translate(0.01 0)" fill="#f59d0e"/><path d="M121.28,144.17c.06,0,.07-.14.09-.21s.13-.35,0-.45a.42.42,0,0,0-.31,0c-.09,0-.23.22-.47,0v.18c0,.05-.1.07-.08.07.31,0,.35.33.53.4A.23.23,0,0,0,121.28,144.17Z" transform="translate(0.01 0)"/><path d="M120.24,144.52a.56.56,0,0,1,0-.56.53.53,0,0,1,.43-.22h0l.33.07c.08,0,.1-.08,0-.09l-.33-.07c-.36-.15-.26-.57-.16-.79,0,0-.08-.1-.11,0s-.19.65.1.86a.58.58,0,0,0-.49.66h0a.58.58,0,0,0,.08.22C120.15,144.6,120.26,144.57,120.24,144.52Z" transform="translate(0.01 0)"/><path d="M91.39,154.13c.62-1.62-.83-2.65-2.12-3.28-2.16-1.06-5.54-7.87-6-5.53-.21,1.15-1.51,1.15-2.42,1a8.8,8.8,0,0,1-3.51-1.21A4.7,4.7,0,0,1,75.56,143c-.16-.33-.43-.9-.83-1a.75.75,0,0,0-.62.22,1,1,0,0,1-.78.3c-.36,0-.54.23-.75.49s-.59.08-.79.32-.13.6-.15.86c-.15,2.25,2,4,3.77,5,1.28.72,2.53,1.5,3.84,2.15.89.44,1.78.88,2.69,1.3a57,57,0,0,0,9.7,3.56,24.82,24.82,0,0,0,6.36.87C98.61,157.11,91.13,154.87,91.39,154.13Z" transform="translate(0.01 0)" fill="#f59d0e"/><path d="M97.48,141.79c.62-1.63-.83-2.65-2.12-3.29-2.16-1,2.68-6.87,1.76-6.79-5.75.49-12,2.45-13.66,1.08a6.19,6.19,0,0,1-1.78-2.09c-.16-.33-.43-.9-.83-1a.79.79,0,0,0-.62.23,1,1,0,0,1-.78.29c-.36,0-.54.23-.75.49s-.58.09-.78.33-.14.59-.16.86c-.15,2.24,2,4,3.77,5,1.28.72,2.53,1.49,3.84,2.15.89.44,1.78.87,2.69,1.29a56.64,56.64,0,0,0,9.7,3.56,24,24,0,0,0,6.36.87C104.73,144.77,97.25,142.48,97.48,141.79Z" transform="translate(0.01 0)" fill="#f59d0e"/><path d="M120.87,146.72a6.3,6.3,0,0,0-.25-1.28m-.07,0s-.06,0,0,.07a7.06,7.06,0,0,1,.25,1.28h.07Z" transform="translate(0.01 0)"/><path d="M120.35,146.81a9.87,9.87,0,0,1,.06-1.33m0-.07h-.07c-.07.45,0,.91-.07,1.36a.06.06,0,0,0,0,.08,0,0,0,0,0,.07,0,.06.06,0,0,0,0,0Z" transform="translate(0.01 0)"/><path d="M119.58,146.62a6.09,6.09,0,0,1,.62-1.22c0-.06-.06-.12-.1-.06a5.86,5.86,0,0,0-.63,1.25.06.06,0,0,0,.08,0h0Z" transform="translate(0.01 0)"/><path d="M122.34,141.22a6.31,6.31,0,0,1-.86,1h-.08m0-.07h0a6.25,6.25,0,0,0,.85-1c0-.07.13,0,.09.07Z" transform="translate(0.01 0)"/><path d="M121.93,140.87a13.34,13.34,0,0,0-.61,1.19.06.06,0,0,1-.11.05m0-.05a10.74,10.74,0,0,1,.62-1.22.07.07,0,0,1,.07,0,.06.06,0,0,1,0,.07h0Z" transform="translate(0.01 0)"/><path d="M121.16,140.67a6.27,6.27,0,0,0-.07,1.37.06.06,0,0,1-.08,0l0,0a6.48,6.48,0,0,1,.07-1.39Z" transform="translate(0.01 0)"/><path d="M71.09,139.14c.69-3.1.68-6.91-2.37-8.68-2.59-1.51-5.71-.08-7.25,2.13a13.69,13.69,0,0,0-1.84,3.95C61.53,135.69,66.06,134.48,71.09,139.14Z" transform="translate(0.01 0)" fill="#fbd89f"/><path d="M92,150.17a1.75,1.75,0,0,0-.61-.5c-2.17-1.12-5.9,2.36-7.53,3.13-4.58,2.14-11.73,3.26-14.52-2.11-1.89-3.61.5-6.94,1.49-10.4.11-.37.21-.75.3-1.15-5-4.66-9.56-3.45-11.46-2.59a37,37,0,0,0-1,4.79,16.44,16.44,0,0,0,.68,8.95c3.89,9.42,16.84,11.86,25.34,7.59C86.4,157,94.26,152.87,92,150.17Z" transform="translate(0.01 0)" fill="#f59d0e"/><path d="M125.13,152.71a8.59,8.59,0,0,1-2.15-1c-.82-.45-1.63-.92-2.44-1.39s-3.65-2.52-4.65-2.28-10.51-2.17-10.91-1.47c-.29.52-1.2,9.54-.81,9.38,10.44-4.51,13.47-2.38,14.4-2.1s2.15.6,3.21,1a15.06,15.06,0,0,0,1.86.51A3.75,3.75,0,0,0,125.13,152.71Z" transform="translate(0.01 0)" fill="#f59d0e"/><path d="M125.32,152.75h-.19a3.73,3.73,0,0,1-1.49,2.61,6.71,6.71,0,0,0,1.55.12,1.84,1.84,0,0,0,1.75-1.76C126.89,152.75,126,152.87,125.32,152.75Z" transform="translate(0.01 0)" fill="#fbd89f"/><path d="M118,139c-1.76-1.7-4.27-2.17-6.62-2.51a38.55,38.55,0,0,0-9.17-.34c-3,.28-6.49,1-8.9,2.91s-4.1,5.69-2.13,8.55c1.1,1.59,3.09,1.67,4.84,1.47,4.28-.49,8.29-2.33,12.62-2.56,2.24-.12,4.42.59,6.66.49.72,0,.67-1.2.66-1.68a9.53,9.53,0,0,1,.09-2.92,4.67,4.67,0,0,1,1.06-1.76C117.48,140.36,118.58,139.56,118,139Z" transform="translate(0.01 0)" fill="#fbd89f"/><path d="M123.72,142.87a1.18,1.18,0,0,1-.11-.19.62.62,0,0,1-.06-.42.53.53,0,0,1,.11-.24.79.79,0,0,1,.27-.21l.07.13a.72.72,0,0,0-.22.17.37.37,0,0,0-.08.18.47.47,0,0,0,0,.33l.06.11h0Z" transform="translate(0.01 0)"/><path d="M123.29,146.79a1.18,1.18,0,0,1-.11-.19.69.69,0,0,1-.07-.42.55.55,0,0,1,.12-.24.79.79,0,0,1,.27-.21l.07.13a1.18,1.18,0,0,0-.22.17.31.31,0,0,0-.09.18.48.48,0,0,0,.06.33.24.24,0,0,0,.06.11h0Z" transform="translate(0.01 0)"/><path d="M135.06,150.87c.28.14.54.32.82.46a10.09,10.09,0,0,0,3.13.93,6.08,6.08,0,0,0,2.25-.08,7.18,7.18,0,0,0,1.94-.86,9.13,9.13,0,0,0,2.65-2.38,16.67,16.67,0,0,0,1-1.48,8.73,8.73,0,0,1,1-1.35,3.92,3.92,0,0,1,.67-.55,2.4,2.4,0,0,0,.32,1,2.23,2.23,0,0,0,.86.94,1.46,1.46,0,0,0,1.16.05,1.69,1.69,0,0,0,.94-.74,1.48,1.48,0,0,0-.08-1.28,1.88,1.88,0,0,0-2.35-.83,3.85,3.85,0,0,0-.47.19,2.5,2.5,0,0,1,.26-.8,5.24,5.24,0,0,1,3.77-2.45c.23,0,.2-.39,0-.35a6.12,6.12,0,0,0-2.53,1,4.26,4.26,0,0,0-1.7,2,2.92,2.92,0,0,0-.16.78,4.71,4.71,0,0,0-1.47,1.41,23,23,0,0,1-2.09,2.91,8.19,8.19,0,0,1-2.93,2,4.35,4.35,0,0,1-1.63.37,6.31,6.31,0,0,1-1.62-.2C138.54,151.65,134.85,150.78,135.06,150.87Zm13.81-5.52.21-.1a2.31,2.31,0,0,1,1.34-.25,1.37,1.37,0,0,1,1.05.91.93.93,0,0,1-.32,1.15,1.36,1.36,0,0,1-1.17.22,1.81,1.81,0,0,1-.87-.92,2.3,2.3,0,0,1-.24-1Z" transform="translate(0.01 0)" fill="#565d70"/><path d="M135.06,150.87a7.21,7.21,0,0,0,9.79-2.51,7,7,0,0,0-2.44-9.59.41.41,0,0,0-.11-.07,7.21,7.21,0,0,0-9.79,2.51,7,7,0,0,0,2.48,9.58h0Z" transform="translate(0.01 0)" fill="#565d70"/><path d="M139.9,147.48c-.07.52-.17,1-.29,1.54h-.14q.17-.75.27-1.53Z" transform="translate(0.01 0)" fill="#9099b9"/><path d="M135.58,138.45h0c3.53,1.09,4.56,4.16,4.43,7.42h-.18C140,142.7,139,139.69,135.58,138.45Z" transform="translate(0.01 0)" fill="#9099b9"/><path d="M138.75,151.87h0c.28-.85.52-1.71.72-2.59h.13A21.19,21.19,0,0,1,138.75,151.87Z" transform="translate(0.01 0)" fill="#9099b9"/><path d="M140,146a10.2,10.2,0,0,1-.11,1.24l-.17.06c.05-.42.09-.83.1-1.24Z" transform="translate(0.01 0)" fill="#9099b9"/><path d="M140.21,151.7h0q.49-1.48.84-3l.14-.06A21.8,21.8,0,0,1,140.21,151.7Z" transform="translate(0.01 0)" fill="#9099b9"/><path d="M137.08,137.93h0c3.54,1.06,4.6,4.08,4.51,7.31l-.18.08C141.53,142.12,140.48,139.14,137.08,137.93Z" transform="translate(0.01 0)" fill="#9099b9"/><path d="M141.48,145.49l.18-.08a10.69,10.69,0,0,1-.1,1.26l-.17.08A8.9,8.9,0,0,0,141.48,145.49Z" transform="translate(0.01 0)" fill="#9099b9"/><path d="M141.33,146.93l.15-.06c-.07.53-.17,1.07-.28,1.59l-.15.06A12,12,0,0,0,141.33,146.93Z" transform="translate(0.01 0)" fill="#9099b9"/><path d="M138.3,149.33h-.14c.1-.49.18-1,.24-1.48h.17A12.42,12.42,0,0,1,138.3,149.33Z" transform="translate(0.01 0)" fill="#9099b9"/><path d="M134.57,139h0c3.21,1.17,4.18,4.1,4.09,7.21h-.19C138.6,143.19,137.67,140.33,134.57,139Z" transform="translate(0.01 0)" fill="#9099b9"/><path d="M137.59,151.78h-.05c.21-.71.41-1.45.58-2.22h.13A21.72,21.72,0,0,1,137.59,151.78Z" transform="translate(0.01 0)" fill="#9099b9"/><path d="M138.59,147.63h-.16c0-.4.07-.81.09-1.21h.18C138.68,146.81,138.64,147.22,138.59,147.63Z" transform="translate(0.01 0)" fill="#9099b9"/><path d="M139.9,147.48h-.17a11.61,11.61,0,0,1-1.16.3h-.17a6.22,6.22,0,0,1-6.87-2.78h0a6.44,6.44,0,0,0,6.9,2.59h.16c.39-.08.78-.18,1.17-.29l.17-.06a12.28,12.28,0,0,0,1.43-.53l.17-.08a25.07,25.07,0,0,0,4.28-2.5h0a21.69,21.69,0,0,1-4.33,2.74l-.17.07A12,12,0,0,1,139.9,147.48Z" transform="translate(0.01 0)" fill="#9099b9"/><path d="M138.25,149.53h-.13a6.14,6.14,0,0,1-6.09-2.15l-.06-.15a6.39,6.39,0,0,0,6.19,2.1h.14a9,9,0,0,0,1.17-.26h.14a12.62,12.62,0,0,0,1.46-.51l.15-.06a23.91,23.91,0,0,0,4.53-2.59h0a20.86,20.86,0,0,1-4.58,2.75l-.14.06c-.48.2-1,.37-1.47.52h-.13A9.67,9.67,0,0,1,138.25,149.53Z" transform="translate(0.01 0)" fill="#9099b9"/><path d="M140,146l-.18.06a11.66,11.66,0,0,1-1.16.31h-.18c-2.62.5-5.19,0-6.91-2.69h0a6.46,6.46,0,0,0,6.92,2.51h.18c.38-.08.77-.18,1.16-.3l.18-.06q.7-.24,1.41-.54l.18-.08a24.91,24.91,0,0,0,3.94-2.28h0a21.41,21.41,0,0,1-4,2.42l-.18.08A4.42,4.42,0,0,1,140,146Z" transform="translate(0.01 0)" fill="#9099b9"/><path d="M186.48,123a7.53,7.53,0,0,0-10.29,2.37,7.31,7.31,0,0,0,2.3,10.08h0l.11.07a7.53,7.53,0,0,0,10.29-2.37,7.31,7.31,0,0,0-2.3-10.08h0Z" transform="translate(0.01 0)" fill="#6c67b7"/><path d="M181.33,126.41c.09-.54.2-1.07.34-1.6h.14c-.12.53-.23,1.06-.31,1.59Z" transform="translate(0.01 0)" fill="#8aa3d9"/><path d="M185.61,136h0c-3.65-1.23-4.65-4.47-4.43-7.86l.19-.06C181.13,131.41,182.08,134.58,185.61,136Z" transform="translate(0.01 0)" fill="#8aa3d9"/><path d="M182.64,121.87h0c-.3.84-.58,1.75-.82,2.69h-.14A26.1,26.1,0,0,1,182.64,121.87Z" transform="translate(0.01 0)" fill="#8aa3d9"/><path d="M181.14,127.92a7.1,7.1,0,0,1,.15-1.3l.18-.05c-.06.43-.11.86-.14,1.29Z" transform="translate(0.01 0)" fill="#8aa3d9"/><path d="M181.11,122h0a26,26,0,0,0-1,3.1l-.15.06A23.37,23.37,0,0,1,181.11,122Z" transform="translate(0.01 0)" fill="#8aa3d9"/><path d="M184,136.46h0c-3.67-1.19-4.7-4.38-4.52-7.75l.19-.08C179.48,132,180.48,135.11,184,136.46Z" transform="translate(0.01 0)" fill="#8aa3d9"/><path d="M179.65,128.46l-.19.08a9.85,9.85,0,0,1,.14-1.32l.18-.07C179.72,127.58,179.68,128,179.65,128.46Z" transform="translate(0.01 0)" fill="#8aa3d9"/><path d="M179.81,127l-.18.07c.09-.55.21-1.11.35-1.65l.15-.06A16.46,16.46,0,0,0,179.81,127Z" transform="translate(0.01 0)" fill="#8aa3d9"/><path d="M183.05,124.53h.14c-.11.51-.21,1-.29,1.54h-.17A14.45,14.45,0,0,1,183.05,124.53Z" transform="translate(0.01 0)" fill="#8aa3d9"/><path d="M186.68,135.38h-.06c-3.33-1.31-4.26-4.39-4.08-7.64h.19C182.58,130.93,183.48,133.94,186.68,135.38Z" transform="translate(0.01 0)" fill="#8aa3d9"/><path d="M183.85,122h.06c-.25.73-.48,1.51-.67,2.3h-.14A22.87,22.87,0,0,1,183.85,122Z" transform="translate(0.01 0)" fill="#8aa3d9"/><path d="M182.7,126.29h.17c-.06.42-.1.85-.13,1.27h-.19C182.58,127.14,182.63,126.71,182.7,126.29Z" transform="translate(0.01 0)" fill="#8aa3d9"/><path d="M181.33,126.41h.17c.41-.11.82-.21,1.23-.28h.17a6.48,6.48,0,0,1,7.11,3.08h0a6.74,6.74,0,0,0-7.14-2.89h-.17a10,10,0,0,0-1.23.28l-.18.05c-.5.15-1,.33-1.51.53l-.18.07a25.31,25.31,0,0,0-4.53,2.5h0a21.92,21.92,0,0,1,4.56-2.66l.18-.08A8.58,8.58,0,0,1,181.33,126.41Z" transform="translate(0.01 0)" fill="#8aa3d9"/><path d="M183.1,124.31h.14a6.43,6.43,0,0,1,6.31,2.41l.06.16a6.7,6.7,0,0,0-6.42-2.35h-.14c-.41.06-.82.14-1.24.24h-.14c-.52.14-1,.31-1.54.5l-.15.06a26,26,0,0,0-4.82,2.59h0a21.62,21.62,0,0,1,4.86-2.76l.15-.06c.5-.19,1-.36,1.54-.5h.14A10.78,10.78,0,0,1,183.1,124.31Z" transform="translate(0.01 0)" fill="#8aa3d9"/><path d="M181.14,127.92l.19-.06c.41-.12.81-.22,1.22-.3h.19c2.75-.46,5.42.17,7.16,3h0a6.72,6.72,0,0,0-7.16-2.8h-.19c-.41.08-.82.17-1.23.29h-.19c-.49.15-1,.33-1.48.53l-.19.08a25.65,25.65,0,0,0-4.18,2.28h0a22.22,22.22,0,0,1,4.2-2.42l.19-.08A12.83,12.83,0,0,1,181.14,127.92Z" transform="translate(0.01 0)" fill="#8aa3d9"/><path d="M167,135.15a6,6,0,0,0,7,4.56,5.87,5.87,0,0,0,4.64-6.88v-.06A5.94,5.94,0,0,0,167,135.11Z" transform="translate(0.01 0)" fill="#f59d0e"/><path d="M171.83,136.2c-.36.24-.74.47-1.12.68l-.11-.06q.57-.33,1.11-.69Z" transform="translate(0.01 0)" fill="#fbd89f"/><path d="M175.08,128.52h0c1.28,2.76-.07,5.1-2.18,6.84l-.14-.08C174.87,133.57,176.21,131.29,175.08,128.52Z" transform="translate(0.01 0)" fill="#fbd89f"/><path d="M168.48,137.94h0a21.94,21.94,0,0,0,2-1l.1.07A19.7,19.7,0,0,1,168.48,137.94Z" transform="translate(0.01 0)" fill="#fbd89f"/><path d="M172.82,135.48c-.28.22-.56.43-.85.62l-.13-.07q.43-.3.84-.63Z" transform="translate(0.01 0)" fill="#fbd89f"/><path d="M169.36,138.74h0a23.13,23.13,0,0,0,2.34-1.16h.12A18.41,18.41,0,0,1,169.36,138.74Z" transform="translate(0.01 0)" fill="#fbd89f"/><path d="M176.24,129.14h0c1.31,2.75,0,5.08-2.06,6.83l-.16-.07C176.1,134.2,177.4,131.92,176.24,129.14Z" transform="translate(0.01 0)" fill="#fbd89f"/><path d="M174,136l.15.07c-.27.22-.56.43-.85.64l-.14-.06C173.4,136.47,173.68,136.26,174,136Z" transform="translate(0.01 0)" fill="#fbd89f"/><path d="M173,136.77l.14.06c-.38.25-.77.49-1.16.71l-.12-.06C172.23,137.26,172.61,137,173,136.77Z" transform="translate(0.01 0)" fill="#fbd89f"/><path d="M169.78,136.25l-.09-.07c.36-.22.72-.44,1.07-.68l.11.08A9.37,9.37,0,0,1,169.78,136.25Z" transform="translate(0.01 0)" fill="#fbd89f"/><path d="M174.15,128.23h0c1.06,2.62-.23,4.84-2.24,6.52l-.12-.09C173.79,133,175.07,130.87,174.15,128.23Z" transform="translate(0.01 0)" fill="#fbd89f"/><path d="M167.85,137.19h0c.57-.26,1.15-.56,1.72-.89l.09.07A17.3,17.3,0,0,1,167.85,137.19Z" transform="translate(0.01 0)" fill="#fbd89f"/><path d="M171,135.48l-.11-.08c.28-.2.55-.41.81-.62l.12.09A8.73,8.73,0,0,1,171,135.48Z" transform="translate(0.01 0)" fill="#fbd89f"/><path d="M171.83,136.2l-.12-.07a9.33,9.33,0,0,1-.84-.55l-.11-.08a5,5,0,0,1-2.1-5.74h0a5.2,5.2,0,0,0,2.22,5.65l.11.08a8,8,0,0,0,.83.55l.13.07a12.12,12.12,0,0,0,1.14.57.61.61,0,0,0,.14.07,20.73,20.73,0,0,0,4,1.21h0a17.89,17.89,0,0,1-4.06-1.14l-.14-.07A10.81,10.81,0,0,1,171.83,136.2Z" transform="translate(0.01 0)" fill="#fbd89f"/><path d="M169.62,136.33l-.08-.07a5,5,0,0,1-2-4.91l.06-.12a5.18,5.18,0,0,0,2.14,5l.09.07c.26.2.54.39.82.57l.11.06a11.05,11.05,0,0,0,1.13.6l.12.06a20.14,20.14,0,0,0,4.16,1.32h0a17.26,17.26,0,0,1-4.28-1.26h-.12a12.47,12.47,0,0,1-1.14-.61l-.1-.07A7.1,7.1,0,0,1,169.62,136.33Z" transform="translate(0.01 0)" fill="#fbd89f"/><path d="M172.81,135.48l-.13-.08a9.29,9.29,0,0,1-.85-.53l-.12-.09a5,5,0,0,1-2.17-5.72h0a5.24,5.24,0,0,0,2.29,5.62l.12.09q.41.28.84.54l.14.08c.36.2.74.38,1.12.55l.16.07a20,20,0,0,0,3.62,1.13h0a18.57,18.57,0,0,1-3.72-1.06L174,136A7.4,7.4,0,0,1,172.81,135.48Z" transform="translate(0.01 0)" fill="#fbd89f"/><path d="M165.84,139.55a8.13,8.13,0,0,0-4.55-3.44,5.59,5.59,0,0,0-2.87,0c-.45.11-.87.27-1.31.39a3.23,3.23,0,0,1-1.38.12h-.06a2.75,2.75,0,0,0,.53-.65.88.88,0,0,0,.07-.71,1,1,0,0,0-.67-.56c-.65-.16-1,.57-1,1.12a1.12,1.12,0,0,0,.56.82l.08.05-.14.1a6.85,6.85,0,0,1-1.69,1,3.25,3.25,0,0,1-2,0,3.19,3.19,0,0,1-1.85-1.28,1.91,1.91,0,0,1-.26-.7,3.33,3.33,0,0,0,.81-.26,2.57,2.57,0,0,0,.74-.57,1.07,1.07,0,0,0,.34-.79.8.8,0,0,0-.71-.62,1.15,1.15,0,0,0-1,.52,2.24,2.24,0,0,0-.46,1.56,4.79,4.79,0,0,1-1.88-.19,6.26,6.26,0,0,1-2-1A3.79,3.79,0,0,1,143.9,133c0-.12-.23,0-.18.08a4.13,4.13,0,0,0,1.55,1.76,6,6,0,0,0,2.44,1,4.05,4.05,0,0,0,1.3,0,2.23,2.23,0,0,0,.13.44,3,3,0,0,0,1.63,1.52,4,4,0,0,0,2.28.26,3.09,3.09,0,0,0,.66-.25c.3-.14.6-.3.89-.47a7.81,7.81,0,0,0,.75-.53,2.41,2.41,0,0,0,1,.07,8.35,8.35,0,0,0,1.39-.36,7,7,0,0,1,1.35-.31,6.74,6.74,0,0,1,5.26,2.09,8.34,8.34,0,0,1,1.2,1.45C165.75,139.77,165.91,139.65,165.84,139.55Zm-16.2-5.29c.19-.28.5-.62.88-.59a.55.55,0,0,1,.51.59h0a1.47,1.47,0,0,1-.53.72,2.74,2.74,0,0,1-1.18.53,2,2,0,0,1,.32-1.25Zm5.24,1.68a1,1,0,0,1,.08-.83.55.55,0,0,1,.66-.25.75.75,0,0,1,.5.56,1,1,0,0,1-.27.65,2.78,2.78,0,0,1-.41.43,1,1,0,0,1-.56-.56Z" transform="translate(0.01 0)" fill="#8aa3d9"/><path d="M68.12,108.21a7.8,7.8,0,1,0,.08,0Z" transform="translate(0.01 0)" fill="#8e97fd"/><path d="M66,114.45a16.55,16.55,0,0,1-.77-1.58l.1-.12c.24.52.5,1,.79,1.55Z" transform="translate(0.01 0)" fill="#a9b0ff"/><path d="M76,119.79h0c-3.92,1.31-6.91-.79-9-3.81l.13-.17C69.18,118.87,72.09,120.87,76,119.79Z" transform="translate(0.01 0)" fill="#a9b0ff"/><path d="M64.14,109.74h0a28.14,28.14,0,0,0,1.09,2.81l-.09.12A21.52,21.52,0,0,1,64.14,109.74Z" transform="translate(0.01 0)" fill="#a9b0ff"/><path d="M66.87,115.87c-.26-.39-.5-.79-.73-1.2l.12-.16c.23.41.47.8.73,1.19Z" transform="translate(0.01 0)" fill="#a9b0ff"/><path d="M62.93,110.87h0a29.2,29.2,0,0,0,1.25,3.26l-.09.15A24.46,24.46,0,0,1,62.93,110.87Z" transform="translate(0.01 0)" fill="#a9b0ff"/><path d="M75,121.24h0c-3.9,1.34-6.89-.69-9-3.67a1.18,1.18,0,0,0,.11-.19C68.16,120.36,71.07,122.39,75,121.24Z" transform="translate(0.01 0)" fill="#a9b0ff"/><path d="M66,117.27l-.11.19c-.27-.39-.52-.8-.75-1.21a1.62,1.62,0,0,1,.1-.18A12,12,0,0,0,66,117.27Z" transform="translate(0.01 0)" fill="#a9b0ff"/><path d="M65.11,115.87l-.11.18c-.29-.53-.56-1.07-.8-1.62l.09-.15A13.26,13.26,0,0,0,65.11,115.87Z" transform="translate(0.01 0)" fill="#a9b0ff"/><path d="M66.25,111.74l.11-.11c.23.51.49,1,.77,1.5l-.13.13C66.73,112.76,66.48,112.25,66.25,111.74Z" transform="translate(0.01 0)" fill="#a9b0ff"/><path d="M76.48,118.61v.06c-3.69,1-6.53-1-8.53-3.85l.13-.15C70.09,117.48,72.85,119.45,76.48,118.61Z" transform="translate(0.01 0)" fill="#a9b0ff"/><path d="M65.23,109.06h.06a22.74,22.74,0,0,0,1,2.39l-.11.1A24.09,24.09,0,0,1,65.23,109.06Z" transform="translate(0.01 0)" fill="#a9b0ff"/><path d="M67.11,113.46a.8.8,0,0,0,.13-.13c.23.39.48.78.74,1.16l-.14.15C67.58,114.26,67.34,113.87,67.11,113.46Z" transform="translate(0.01 0)" fill="#a9b0ff"/><path d="M66,114.45l.12-.15c.27-.35.55-.68.85-1l.13-.13a7,7,0,0,1,8.07-2h0a7.24,7.24,0,0,0-8,2.15.86.86,0,0,1-.13.14c-.29.33-.58.67-.85,1l-.12.16c-.33.45-.64.93-.93,1.42l-.1.18a25.88,25.88,0,0,0-2.19,5h0A24,24,0,0,1,65,116l.11-.18C65.39,115.36,65.7,114.9,66,114.45Z" transform="translate(0.01 0)" fill="#a9b0ff"/><path d="M66.15,111.52l.11-.1a6.86,6.86,0,0,1,6.94-2l.16.1a7.15,7.15,0,0,0-7,2.14.57.57,0,0,1-.11.11c-.31.32-.6.65-.88,1l-.1.12a15.74,15.74,0,0,0-1,1.42l-.09.15a25.7,25.7,0,0,0-2.37,5.3h0a22.64,22.64,0,0,1,2.29-5.47l.09-.15a13.48,13.48,0,0,1,1-1.43l.09-.12A8.13,8.13,0,0,1,66.15,111.52Z" transform="translate(0.01 0)" fill="#a9b0ff"/><path d="M66.87,115.87l.12-.17c.27-.35.55-.68.85-1l.14-.15c2-2.17,4.7-3.36,8-2.09h0a7.23,7.23,0,0,0-8,2.25l-.13.15c-.3.32-.58.65-.85,1l-.13.17c-.32.44-.62.92-.91,1.4a1.18,1.18,0,0,1-.11.19,26.84,26.84,0,0,0-2,4.64h0a23.65,23.65,0,0,1,2-4.76l.11-.19A7.35,7.35,0,0,1,66.87,115.87Z" transform="translate(0.01 0)" fill="#a9b0ff"/><path d="M84.48,105.06c0-.19-.31-.2-.3,0a5,5,0,0,1-.49,2,6.13,6.13,0,0,1-1.38,2,2.91,2.91,0,0,1-.81.53l.06-.09a1.42,1.42,0,0,0,.15-.93,1.35,1.35,0,0,0-1.37-1.12,1.47,1.47,0,0,0-1.43.79c-.28.69.49,1.34,1,1.6a2.1,2.1,0,0,0,.6.19l-.19.1a7.14,7.14,0,0,1-2.08.57,8.08,8.08,0,0,1-1.2.09.15.15,0,0,0,0,.3,9,9,0,0,0,1.79-.19,5.48,5.48,0,0,0,2-.73L81,110a4.09,4.09,0,0,0,2.51-2.15,7,7,0,0,0,.66-1.51A4.14,4.14,0,0,0,84.48,105.06Zm-4,4.7a2.05,2.05,0,0,1-1-.57,1.22,1.22,0,0,1-.26-.38.43.43,0,0,1,0-.16v-.09a.09.09,0,0,1,0-.07.6.6,0,0,1,.13-.28.89.89,0,0,1,.29-.22,1.52,1.52,0,0,1,.78-.18,1,1,0,0,1,1.06.94v.12a1.2,1.2,0,0,1-.46.88A1.4,1.4,0,0,1,80.48,109.76Z" transform="translate(0.01 0)" fill="#f59d0e"/><path d="M157.11,44.41H157a1.88,1.88,0,0,1-.55,1.33,1.93,1.93,0,0,1-2.69,0,1.86,1.86,0,0,1,0-2.64h0a1.93,1.93,0,0,1,2.69,0,1.86,1.86,0,0,1,.55,1.32h.19a2.09,2.09,0,1,0-2.12,2.06h0a2.07,2.07,0,0,0,2.08-2.06h0Z" transform="translate(0.01 0)" fill="#f59d0e"/><path d="M174.48,95.05h-.09a1.82,1.82,0,0,1-.55,1.3,1.87,1.87,0,0,1-2.63,0,1.8,1.8,0,0,1,0-2.55h0a1.87,1.87,0,0,1,2.63,0,1.82,1.82,0,0,1,.55,1.3h.19a2.06,2.06,0,1,0-2.12,2h.07a2,2,0,0,0,2.05-2v0h0Z" transform="translate(0.01 0)" fill="#f59d0e"/><path d="M132.12,37.07H132a1.16,1.16,0,0,1-.36.84,1.21,1.21,0,0,1-1.71,0h0a1.21,1.21,0,0,1,1.71-1.7h0a1.18,1.18,0,0,1,.36.85h.19a1.41,1.41,0,1,0-1.44,1.38h0a1.4,1.4,0,0,0,1.41-1.38Z" transform="translate(0.01 0)" fill="#f59d0e"/><path d="M177.14,109.12H177a2.4,2.4,0,0,1-.72,1.72,2.48,2.48,0,0,1-3.48,0,2.41,2.41,0,0,1,0-3.39h0a2.48,2.48,0,0,1,3.48,0,2.4,2.4,0,0,1,.72,1.71h.19a2.65,2.65,0,1,0-2.68,2.62h0a2.63,2.63,0,0,0,2.65-2.61h-.09Z" transform="translate(0.01 0)" fill="#f59d0e"/><path d="M160.54,155.51h-.06a2.67,2.67,0,0,1-.81,1.92,2.76,2.76,0,0,1-3.89,0,2.69,2.69,0,0,1,0-3.8h0a2.76,2.76,0,0,1,3.89,0,2.65,2.65,0,0,1,.81,1.91h.19a2.94,2.94,0,1,0-3,2.9h0a2.92,2.92,0,0,0,2.94-2.9h-.13Z" transform="translate(0.01 0)" fill="#f59d0e"/><path d="M129.06,59.18l-.18-.16a5.81,5.81,0,0,0,.71-1.75,8.11,8.11,0,0,0,.2-1.84,5.36,5.36,0,0,0-.42-2.13h0a10.14,10.14,0,0,1,.23,2.13,8.06,8.06,0,0,1-.19,1.77,5,5,0,0,1-.73,1.74l-.06.08.06.09a1.24,1.24,0,0,0,.28.28,1.46,1.46,0,0,0,1.23.23A1.69,1.69,0,0,1,129.06,59.18Z" transform="translate(0.01 0)" fill="#333242"/><path d="M136.14,59c0,.71-.93,1.29-2.07,1.29S132,59.69,132,59s.93-1.29,2.07-1.29S136.14,58.27,136.14,59Z" transform="translate(0.01 0)" fill="#f67e31"/><path d="M127.39,59c0,.71-.93,1.29-2.07,1.29s-2.06-.58-2.06-1.29.92-1.29,2.06-1.29S127.39,58.27,127.39,59Z" transform="translate(0.01 0)" fill="#f67e31"/><path d="M199.11,76.87H199a4.35,4.35,0,0,1-1.3,3.1,4.49,4.49,0,0,1-6.3,0,4.35,4.35,0,0,1,0-6.15h0a4.49,4.49,0,0,1,6.3,0,4.35,4.35,0,0,1,1.3,3.1h.19a4.64,4.64,0,1,0-4.7,4.58h.06a4.6,4.6,0,0,0,4.64-4.56v0h-.1Z" transform="translate(0.01 0)" fill="#f59d0e"/><path d="M194.48,75.36a1.29,1.29,0,0,1-2.57,0" transform="translate(0.01 0)" fill="none" stroke="#5b5c6c" stroke-width="0.2"/><path d="M197.3,75.36a1.29,1.29,0,0,1-2.57,0" transform="translate(0.01 0)" fill="none" stroke="#5b5c6c" stroke-width="0.2"/><path d="M198.1,76.64a3.87,3.87,0,0,1-6.94,0" transform="translate(0.01 0)" fill="none" stroke="#5b5c6c" stroke-width="0.2"/><path d="M106.82,95.47h-.07a3.37,3.37,0,0,1-1,2.36,3.44,3.44,0,0,1-4.78,0,3.31,3.31,0,0,1,0-4.68h0a3.4,3.4,0,0,1,4.78,0,3.28,3.28,0,0,1,1,2.36h.15A3.53,3.53,0,1,0,103.31,99h.06a3.51,3.51,0,0,0,3.53-3.47Z" transform="translate(0.01 0)" fill="#f59d0e"/><path d="M103.27,94.34a1,1,0,0,1-2,0" transform="translate(0.01 0)" fill="none" stroke="#5b5c6c" stroke-width="0.2"/><path d="M105.48,94.34a1,1,0,1,1-2,.44h0a1.09,1.09,0,0,1,0-.44" transform="translate(0.01 0)" fill="none" stroke="#5b5c6c" stroke-width="0.2"/><path d="M106.05,95.32a2.94,2.94,0,0,1-3.94,1.33h0a2.86,2.86,0,0,1-1.33-1.33" transform="translate(0.01 0)" fill="none" stroke="#5b5c6c" stroke-width="0.2"/><path d="M106.92,78.25a3.25,3.25,0,0,1,0,4.6h0a3.37,3.37,0,0,1-4.71,0,3.25,3.25,0,0,1,0-4.6h0A3.37,3.37,0,0,1,106.92,78.25Zm1.23,2.37h0v-.11h0a3.54,3.54,0,1,0,0,.11Z" transform="translate(0.01 0)" fill="#9099b9" stroke="#9099b9" stroke-width="0.1"/><path d="M104.48,79.44a1,1,0,0,1-2,0" transform="translate(0.01 0)" fill="none" stroke="#5b5c6c" stroke-width="0.2"/><path d="M106.64,79.44a1,1,0,0,1-2,0" transform="translate(0.01 0)" fill="none" stroke="#5b5c6c" stroke-width="0.2"/><path d="M107.25,80.41a2.93,2.93,0,0,1-5.27,0" transform="translate(0.01 0)" fill="none" stroke="#5b5c6c" stroke-width="0.2"/><path d="M117.23,67.87h0a2.18,2.18,0,0,1-.67,1.58,2.23,2.23,0,1,1,0-3.16,2.18,2.18,0,0,1,.67,1.58h.09a2.36,2.36,0,1,0-2.39,2.33h0a2.35,2.35,0,0,0,2.32-2.33Z" transform="translate(0.01 0)" fill="#f59d0e"/><path d="M114.86,67.11a.66.66,0,0,1-.66.65.65.65,0,0,1-.65-.65h0" transform="translate(0.01 0)" fill="none" stroke="#5b5c6c" stroke-width="0.1"/><path d="M116.31,67.11a.65.65,0,1,1-1.3,0" transform="translate(0.01 0)" fill="none" stroke="#5b5c6c" stroke-width="0.1"/><path d="M116.72,67.76a2,2,0,0,1-2.71.82h0a2,2,0,0,1-.82-.82" transform="translate(0.01 0)" fill="none" stroke="#5b5c6c" stroke-width="0.1"/></g></svg>