<svg id="Layer_1" data-name="Layer 1" xmlns="http://www.w3.org/2000/svg" viewBox="0 0 251.06 204.29"><g opacity="0.3"><path d="M196.25,14.86S160.38-8.86,116.69,3.64,43.17,55.33,18.16,86.42s-23.91,69.36,1.56,93.09,51.14,4.61,92.59,13.77,51.12,17.82,90.8,3.12S262,128.31,244.64,80.9,196.25,14.86,196.25,14.86Z" transform="translate(0 0)" fill="#f1b869" opacity="0.3" style="isolation:isolate"/><path d="M82.19,157A3.32,3.32,0,0,1,78,154.92l-11.56-35a2.86,2.86,0,1,0-5.43,1.8l8.63,26.11a2.93,2.93,0,0,1-5.56,1.84l-4.76-14.42a2.12,2.12,0,0,0-4.14.9,2.16,2.16,0,0,0,.14.43L57.11,142l-4.42,1.46-.2-.6,3.82-1.26-1.57-4.76A2.78,2.78,0,1,1,60,135.05h0l4.76,14.42a2.3,2.3,0,0,0,4.45-1.18l-.09-.26-8.7-26a3.49,3.49,0,0,1,6.63-2.19l11.56,35a2.67,2.67,0,1,0,5.07-1.68h0l-14.1-42.73a4.23,4.23,0,0,1,7.78-3.33,5.25,5.25,0,0,1,.22.67l14,42.48a2.86,2.86,0,0,0,5.53-1.46,1.09,1.09,0,0,0,0-.17v-.16L85.9,114.55A4.05,4.05,0,1,1,93.59,112l8.25,25a2.49,2.49,0,1,0,4.73-1.56h0l-4.49-13.58a3,3,0,0,1,5.48-2.44,3.47,3.47,0,0,1,.19.57l1.37,4.14,4.42-1.46.19.6-5,1.66-1.58-4.8a2.35,2.35,0,1,0-4.47,1.48h0l4.48,13.58a3.12,3.12,0,0,1-5.91,2l-8.26-25a3.42,3.42,0,0,0-6.69,1.44c0,.06,0,.13,0,.19a3.16,3.16,0,0,0,.17.52L97.7,148.2a3.49,3.49,0,0,1-6.48,2.58.36.36,0,0,1,0-.09,1.18,1.18,0,0,0-.1-.3l-14-42.48a3.63,3.63,0,0,0-6.9,2.23l14.1,42.68a3.31,3.31,0,0,1-2.06,4.2Z" transform="translate(0 0)" fill="#fedea5"/><path d="M140,137.92a3.32,3.32,0,0,1-4.18-2.1l-11.56-35a2.86,2.86,0,0,0-5.53,1.46,1.09,1.09,0,0,0,0,.17v.16l8.63,26.11a2.93,2.93,0,0,1-5.5,2l-.06-.19-4.76-14.42a2.11,2.11,0,1,0-4.1,1,.83.83,0,0,0,0,.15l.06.19,1.77,5.36-4.39,1.48-.2-.6,3.82-1.26-1.62-4.76a2.74,2.74,0,0,1,5.21-1.73h0l4.79,14.42a2.3,2.3,0,0,0,4.45-1.18l-.09-.26L118.2,102.8a3.49,3.49,0,1,1,6.63-2.19l11.56,35a2.68,2.68,0,0,0,5.08-1.7l-14.1-42.68a4.23,4.23,0,0,1,7.77-3.35,4.41,4.41,0,0,1,.23.7l14.1,42.53a2.86,2.86,0,0,0,5.43-1.8h0l-11.24-33.9a4,4,0,1,1,7.69-2.54h0l8.25,25a2.49,2.49,0,0,0,4.73-1.56l-4.49-13.58a3,3,0,0,1,5.43-2.56l0,.12a3.47,3.47,0,0,1,.19.57l1.37,4.12,4.42-1.46.2.6-5,1.66-1.5-4.69a2.35,2.35,0,0,0-4.56,1.16h0a.84.84,0,0,0,.1.29l4.45,13.6a3.12,3.12,0,1,1-5.88,2.09l0-.09-8.26-25a3.43,3.43,0,0,0-6.6,1.85,1.31,1.31,0,0,0,.09.28l11.21,33.86a3.49,3.49,0,0,1-6.63,2.19l-14-42.48a3.6,3.6,0,1,0-6.84,2.26h0l14.1,42.68A3.29,3.29,0,0,1,140,137.92Z" transform="translate(0 0)" fill="#fedea5"/><path d="M197.81,118.81a3.32,3.32,0,0,1-4.18-2.1l-11.56-35a2.86,2.86,0,0,0-5.53,1.46,1.09,1.09,0,0,0,.05.17v.16l8.64,26.11a2.93,2.93,0,0,1-5.5,2l-.06-.19L175,97a2.11,2.11,0,1,0-4.08,1.08,2.25,2.25,0,0,0,.08.24l1.77,5.36-4.42,1.47-.2-.6,3.82-1.27-1.57-4.76a2.74,2.74,0,0,1,5.21-1.72l4.77,14.41a2.3,2.3,0,0,0,2.88,1.48h0a2.31,2.31,0,0,0,1.46-2.91l-8.63-26.11a3.49,3.49,0,1,1,6.48-2.58.36.36,0,0,1,0,.09,1.18,1.18,0,0,0,.1.3l11.56,35a2.68,2.68,0,0,0,5.18-1.38h0a.88.88,0,0,0-.1-.3L185.2,72.14a4.24,4.24,0,1,1,7.8-3.33,5.25,5.25,0,0,1,.22.67l14,42.48a2.86,2.86,0,0,0,5.43-1.8h0L201.52,76.33a4,4,0,1,1,7.69-2.54l8.26,25a2.49,2.49,0,0,0,4.85-1.12.75.75,0,0,0,0-.16,1.31,1.31,0,0,0-.09-.28L217.7,83.66A3,3,0,1,1,223.1,81l.09.21a2.55,2.55,0,0,1,.18.53l1.37,4.13,4.42-1.46.2.6-5,1.65L222.79,82a2.35,2.35,0,1,0-4.47,1.48L222.81,97a3.12,3.12,0,1,1-5.92,2l-8.25-25a3.42,3.42,0,0,0-6.5,2.15h0L213.33,110a3.49,3.49,0,1,1-6.63,2.19h0l-14-42.48A3.61,3.61,0,0,0,185.86,72h0L200,114.68A3.32,3.32,0,0,1,197.81,118.81Z" transform="translate(0 0)" fill="#fedea5"/><path d="M108.52,22l-1.84-5.57-3.88,4.37Z" transform="translate(0 0)" fill="#263238"/><path d="M101.13,18.14l-.87.29,1.87,5.68.88-.29Z" transform="translate(0 0)" fill="#263238"/><path d="M118,6.8a7.8,7.8,0,1,0,9.84,5,7.8,7.8,0,0,0-9.84-5Zm2.69,11.66-2.2.73-2.58-7.81,2.2-.73ZM125,17l-2.2.73L120.16,10l2.2-.73Z" transform="translate(0 0)" fill="#263238"/><path d="M200.93,49a.93.93,0,0,1-1.19-.57h0l-2.68-8.14a.94.94,0,1,1,1.79-.59l2.68,8.13A1,1,0,0,1,200.93,49Z" transform="translate(0 0)" fill="#ffdb9d"/><path d="M197.63,48.84a1,1,0,0,1-1.19-.6l-2-6a.93.93,0,0,1,.57-1.19h0a1,1,0,0,1,1.2.61l2,6a1,1,0,0,1-.6,1.19Z" transform="translate(0 0)" fill="#ffdb9d"/><path d="M194.69,49.81a.91.91,0,0,1-1.17-.56v0h0l-2-6a.93.93,0,0,1,.57-1.19h0a1,1,0,0,1,1.2.61l2,6a1,1,0,0,1-.6,1.19Z" transform="translate(0 0)" fill="#ffdb9d"/><path d="M230,38.14a1,1,0,0,1-1.2-.6l-2-6a.95.95,0,0,1,1.7-.84.37.37,0,0,1,.05.11.58.58,0,0,1,0,.14l2,6A1,1,0,0,1,230,38.14Z" transform="translate(0 0)" fill="#ffdb9d"/><path d="M227,39.14a.93.93,0,0,1-1.19-.57h0l-2-6a.95.95,0,1,1,1.7-.84.37.37,0,0,1,.05.11V32l2,6A1,1,0,0,1,227,39.14Z" transform="translate(0 0)" fill="#ffdb9d"/><path d="M203.87,48a1,1,0,0,1-1.19-.6L200,39.23a.93.93,0,0,1,.57-1.19h0a1,1,0,0,1,1.2.61l2.73,8.13A1,1,0,0,1,203.87,48Z" transform="translate(0 0)" fill="#ffdb9d"/><path d="M207.28,48.43a1,1,0,0,1-1.2-.61l-3.63-11a.91.91,0,0,1,.56-1.17h0a.93.93,0,0,1,1.19.57h0l3.63,11a.93.93,0,0,1-.57,1.19h0Z" transform="translate(0 0)" fill="#ffdb9d"/><path d="M211,49.71a.93.93,0,0,1-1.19-.57h0l-5.12-15.51a.94.94,0,1,1,1.79-.59h0l5.13,15.51A1,1,0,0,1,211,49.71Z" transform="translate(0 0)" fill="#ffdb9d"/><path d="M224.46,41.14a1,1,0,0,1-1.2-.61l-2.69-8.13a.95.95,0,0,1,1.8-.6L225.06,40A1,1,0,0,1,224.46,41.14Z" transform="translate(0 0)" fill="#ffdb9d"/><path d="M221.52,42.14a1,1,0,0,1-1.2-.6l-2.69-8.14a.93.93,0,0,1,.57-1.19h0a1,1,0,0,1,1.2.61L222.12,41A1,1,0,0,1,221.52,42.14Z" transform="translate(0 0)" fill="#ffdb9d"/><path d="M219,44.54a.94.94,0,0,1-1.19-.6h0l-3.64-11a1,1,0,0,1,.61-1.2.94.94,0,0,1,1.19.6h0l3.64,11A1,1,0,0,1,219,44.54Z" transform="translate(0 0)" fill="#ffdb9d"/><path d="M216.85,47.77a.94.94,0,0,1-1.19-.6h0l-5.14-15.51a.93.93,0,0,1,.57-1.19h0a1,1,0,0,1,1.2.6l5.12,15.51A1,1,0,0,1,216.85,47.77Z" transform="translate(0 0)" fill="#ffdb9d"/><path d="M214.85,51.61a1,1,0,0,1-1.19-.61l-7-21.24a.93.93,0,0,1,.57-1.19h0a1,1,0,0,1,1.2.61l7,21.24A1,1,0,0,1,214.85,51.61Z" transform="translate(0 0)" fill="#ffdb9d"/><path d="M35.33,81a7.61,7.61,0,0,0-14.07,4.75A7.64,7.64,0,0,0,26.45,100l-.36-1.5A6.1,6.1,0,0,1,22.4,86.88l.57-.23L22.86,86A6.08,6.08,0,0,1,34.3,82.27l.33.68.68-.31a4.39,4.39,0,0,1,.63-.26A6.11,6.11,0,1,1,39.77,94l.48,1.46a7.64,7.64,0,0,0-4.52-14.6Z" transform="translate(0 0)" fill="#4a5161"/><path d="M34.88,87.61a.79.79,0,0,0-.49-.49.78.78,0,0,0-.68.1L26.79,92a.74.74,0,0,0-.29.88l2.91,8.8a2.51,2.51,0,0,0-.86.11,2.38,2.38,0,1,0,3,1.73h0l-2.23-6.72L34.93,93l1.29,3.89a2.72,2.72,0,0,0-.85.11,2.39,2.39,0,1,0,3,1.55h0L34.8,87.66Zm-.36,3.78L28.91,95.3,28.14,93l5.61-3.89Z" transform="translate(0 0)" fill="#4a5161"/><path d="M96.92,53.76c-.28-.83.56-2.11.2-2.88s-1.9-.93-2.38-1.64,0-2.19-.56-2.83-2.07-.4-2.71-1-.56-2.11-1.28-2.6-2.1.17-2.87-.22-1.08-1.89-1.9-2.18-2,.7-2.84.52-1.53-1.55-2.39-1.62-1.73,1.2-2.6,1.24-1.87-1.1-2.73-.93-1.36,1.6-2.19,1.87-2.11-.57-2.88-.2-.92,1.9-1.63,2.38-2.18,0-2.83.55-.39,2.08-1,2.73-2.1.55-2.59,1.27.2,2.14-.22,2.92-1.89,1.08-2.18,1.9.7,2,.53,2.84-1.55,1.53-1.61,2.4,1.26,1.72,1.26,2.59-1.1,1.88-.93,2.74,1.6,1.36,1.87,2.19-.56,2.11-.19,2.89,1.9.92,2.37,1.63,0,2.19.56,2.84,2.08.39,2.72,1,.56,2.11,1.28,2.6,2.09-.16,2.87.23,1.07,1.89,1.89,2.18,2-.7,2.84-.52,1.53,1.54,2.4,1.61,1.73-1.19,2.6-1.24,1.87,1.1,2.73.94,1.36-1.6,2.19-1.88,2.1.57,2.87.2.92-1.9,1.64-2.38,2.18,0,2.82-.55.39-2.08,1-2.72,2.1-.56,2.59-1.28-.17-2.1.22-2.88S97.74,67.4,98,66.58s-.7-2-.52-2.85,1.54-1.53,1.61-2.39-1.2-1.74-1.24-2.61S99,56.86,98.81,56,97.2,54.6,96.92,53.76Z" transform="translate(0 0)" fill="#4a5161"/><path d="M82.75,80.19h-.14A2.58,2.58,0,0,1,81,79.7a2.52,2.52,0,0,0-1.12-.43,2.64,2.64,0,0,0-1.09.56,2.55,2.55,0,0,1-1.56.68,2.6,2.6,0,0,1-1.45-.91,2.82,2.82,0,0,0-1-.71,2.58,2.58,0,0,0-1.19.26,2.54,2.54,0,0,1-1.69.24,2.63,2.63,0,0,1-1.15-1.25,2.41,2.41,0,0,0-.76-1,2.75,2.75,0,0,0-1.21,0A2.55,2.55,0,0,1,67,77a2.51,2.51,0,0,1-.81-1.5,2.39,2.39,0,0,0-.5-1.11A2.51,2.51,0,0,0,64.57,74a1.84,1.84,0,0,1-2-1.61,1.94,1.94,0,0,1,0-.68,1.5,1.5,0,0,0-1.07-1.83h-.14a2.58,2.58,0,0,1-1.38-1,2.52,2.52,0,0,1,.08-1.67A2.57,2.57,0,0,0,60.18,66a2.5,2.5,0,0,0-.83-.91,1.85,1.85,0,0,1-1-2.42h0a1.94,1.94,0,0,1,.4-.58,2.52,2.52,0,0,0,.43-1.12,2.64,2.64,0,0,0-.56-1.09A2.53,2.53,0,0,1,58,58.23a2.67,2.67,0,0,1,.9-1.46,2.45,2.45,0,0,0,.71-1,2.58,2.58,0,0,0-.26-1.19A1.87,1.87,0,0,1,59.77,52a1.93,1.93,0,0,1,.56-.27,2.68,2.68,0,0,0,.94-.76,2.52,2.52,0,0,0,0-1.22,2.56,2.56,0,0,1,.2-1.7,2.44,2.44,0,0,1,1.5-.8,2.41,2.41,0,0,0,1.11-.51,2.62,2.62,0,0,0,.44-1.11,2.57,2.57,0,0,1,.63-1.6,2.52,2.52,0,0,1,1.65-.38,2.52,2.52,0,0,0,1.21-.2,2.38,2.38,0,0,0,.65-1,2.58,2.58,0,0,1,1-1.38,2.58,2.58,0,0,1,1.69.06,2.59,2.59,0,0,0,1.17.12,2.53,2.53,0,0,0,.91-.84,2.58,2.58,0,0,1,1.32-1,2.61,2.61,0,0,1,1.66.5,2.48,2.48,0,0,0,1.11.43,2.49,2.49,0,0,0,1.09-.57,1.85,1.85,0,0,1,2.59-.25,2.09,2.09,0,0,1,.41.48,2.47,2.47,0,0,0,1,.72,2.58,2.58,0,0,0,1.19-.26,2.5,2.5,0,0,1,1.72-.26,2.59,2.59,0,0,1,1.17,1.25,2.67,2.67,0,0,0,.76,1,2.52,2.52,0,0,0,1.22,0,1.86,1.86,0,0,1,2.39,1.07,2,2,0,0,1,.12.68,2.43,2.43,0,0,0,.5,1.12,2.59,2.59,0,0,0,1.15.36,2.52,2.52,0,0,1,1.59.63A2.5,2.5,0,0,1,94.81,48a2.64,2.64,0,0,0,.2,1.21,2.38,2.38,0,0,0,1,.65,1.84,1.84,0,0,1,1.53,2.1,1.69,1.69,0,0,1-.21.62,2.53,2.53,0,0,0-.12,1.22,2.53,2.53,0,0,0,.83.92A2.47,2.47,0,0,1,99,56a2.69,2.69,0,0,1-.49,1.65,2.52,2.52,0,0,0-.43,1.12,2.52,2.52,0,0,0,.57,1.1,2.46,2.46,0,0,1,.67,1.56,2.54,2.54,0,0,1-.9,1.45,2.55,2.55,0,0,0-.71,1A2.59,2.59,0,0,0,98,65a2.48,2.48,0,0,1,.25,1.69A2.58,2.58,0,0,1,97,67.89a2.68,2.68,0,0,0-.94.76,2.52,2.52,0,0,0,0,1.22A1.86,1.86,0,0,1,95,72.26a1.68,1.68,0,0,1-.63.12,2.55,2.55,0,0,0-1.11.5A2.63,2.63,0,0,0,92.9,74a1.83,1.83,0,0,1-1.61,2,1.69,1.69,0,0,1-.67,0,1.47,1.47,0,0,0-1.86,1.19,1.8,1.8,0,0,1-2.69,1.32,2.66,2.66,0,0,0-1.22-.13,2.68,2.68,0,0,0-.91.83A3,3,0,0,1,82.75,80.19Zm-3.33-1.45a1.61,1.61,0,0,1,.38-.08,2.85,2.85,0,0,1,1.46.51,2.28,2.28,0,0,0,1.23.43c.32-.07.64-.46,1-.84a2.11,2.11,0,0,1,2.78-.89,2.17,2.17,0,0,0,1.26.1c.31-.14.52-.61.73-1.07a2.9,2.9,0,0,1,.87-1.28,3,3,0,0,1,1.55-.3,1.26,1.26,0,0,0,1.62-.77,1.21,1.21,0,0,0,0-.68,2.86,2.86,0,0,1,.51-1.47,2.76,2.76,0,0,1,1.41-.69,2.2,2.2,0,0,0,1.1-.57,2.15,2.15,0,0,0,.09-1.28,2.89,2.89,0,0,1,.11-1.57,2.76,2.76,0,0,1,1.19-1,2.6,2.6,0,0,0,1-.83,2.25,2.25,0,0,0-.24-1.32A2,2,0,0,1,98,62.36h.07c.35-.36.71-.73.73-1.07a2.26,2.26,0,0,0-.56-1.15,2.07,2.07,0,0,1-.18-2.88A2.26,2.26,0,0,0,98.52,56c-.06-.32-.45-.64-.84-1a2.11,2.11,0,0,1-.92-2.79,2.2,2.2,0,0,0,.1-1.27c-.15-.31-.61-.52-1.07-.73a3,3,0,0,1-1.27-.79,3,3,0,0,1-.3-1.55A2.38,2.38,0,0,0,94,46.6a2.21,2.21,0,0,0-1.26-.46,2.05,2.05,0,0,1-2.16-1.92A2.24,2.24,0,0,0,90,43.14a2.32,2.32,0,0,0-1.28-.09A2.88,2.88,0,0,1,87.18,43a3,3,0,0,1-1-1.19,2.45,2.45,0,0,0-.83-1A2.07,2.07,0,0,0,84.1,41a2.87,2.87,0,0,1-1.55.28,2.79,2.79,0,0,1-1.28-.88c-.36-.34-.73-.7-1.07-.72a2.12,2.12,0,0,0-1.14.56,2.9,2.9,0,0,1-1.42.68,2.85,2.85,0,0,1-1.46-.51A2.15,2.15,0,0,0,75,40c-.32.06-.64.45-1,.83a2.06,2.06,0,0,1-2.76.93h0a2.26,2.26,0,0,0-1.26-.1c-.31.15-.52.62-.73,1.07a2,2,0,0,1-2.33,1.6h-.09a2.17,2.17,0,0,0-1.25.24,2.18,2.18,0,0,0-.42,1.21,3,3,0,0,1-.49,1.41,2.91,2.91,0,0,1-1.41.68,2.19,2.19,0,0,0-1.15.56A2.1,2.1,0,0,0,62,49.66a2.86,2.86,0,0,1-.11,1.56,3,3,0,0,1-1.19,1,2.45,2.45,0,0,0-1,.83,2.21,2.21,0,0,0,.24,1.26,2,2,0,0,1-.51,2.78l-.07,0c-.35.35-.71.73-.73,1.06a2.26,2.26,0,0,0,.56,1.15,2.06,2.06,0,0,1,.18,2.89,2.25,2.25,0,0,0-.43,1.22c.06.33.45.65.84,1a2.81,2.81,0,0,1,1,1.21,2.93,2.93,0,0,1-.11,1.58,1.28,1.28,0,0,0,1,2,2.06,2.06,0,0,1,1.58,2.42,2.39,2.39,0,0,0,.23,1.26,2.14,2.14,0,0,0,1.22.42,2.07,2.07,0,0,1,2.16,1.93,2.25,2.25,0,0,0,.55,1.15,2.15,2.15,0,0,0,1.28.09,3,3,0,0,1,1.56.12,2.76,2.76,0,0,1,1,1.19,2.55,2.55,0,0,0,.84,1,2.25,2.25,0,0,0,1.25-.24,2,2,0,0,1,2.78.52l0,.07c.36.35.73.71,1.07.73a2.16,2.16,0,0,0,1.14-.56A4.36,4.36,0,0,1,79.42,78.74Z" transform="translate(0 0)" fill="#4a5161"/><path d="M70.61,69a.61.61,0,0,1-.66-.18A14.54,14.54,0,0,1,68,66c-3.43-6.39-1.43-14.13,4.43-17.25s13.38-.47,16.79,5.92c.19.37.38.75.54,1.13a.63.63,0,1,1-1.16.5h0a9.25,9.25,0,0,0-.49-1C85,49.43,78.22,47,73,49.8s-7,9.77-3.92,15.55A14,14,0,0,0,70.88,68a.62.62,0,0,1,0,.88h0A.39.39,0,0,1,70.61,69Z" transform="translate(0 0)" fill="#fff"/><path d="M70.71,69.25a.92.92,0,0,1-1-.26,14.77,14.77,0,0,1-3.28-13,11.63,11.63,0,0,1,14-8.66h0a12,12,0,0,1,1.44.44,14,14,0,0,1,7.65,6.68c.2.38.39.77.55,1.15a1,1,0,0,1-.52,1.25.94.94,0,0,1-1.23-.5h0c-.14-.33-.3-.67-.48-1-3-5.61-9.57-8-14.65-5.27s-6.8,9.49-3.81,15.08a12.59,12.59,0,0,0,1.79,2.55A1,1,0,0,1,71.06,69,1.1,1.1,0,0,1,70.71,69.25Zm3.52-21a12.09,12.09,0,0,0-1.7.73A11.17,11.17,0,0,0,67,56.14a13.41,13.41,0,0,0,1.22,9.62,14.14,14.14,0,0,0,2,2.8.31.31,0,0,0,.44,0h0a.31.31,0,0,0,0-.44h0a13.71,13.71,0,0,1-1.87-2.68c-3.16-5.92-1.35-13.09,4-16s12.38-.3,15.54,5.59c.18.34.35.7.5,1a.33.33,0,0,0,.42.17.26.26,0,0,0,.16-.18.33.33,0,0,0,0-.24c-.15-.36-.34-.74-.53-1.09a13.36,13.36,0,0,0-7.3-6.39,11.29,11.29,0,0,0-7.35-.1Z" transform="translate(0 0)" fill="#263238"/><path d="M139.35,142.14s22.37-14,27.57-23.73c0,0,1.57,12.13,7.55,16.82s27.17,15.3,31,17.58,11.58,8.07,13.1,7.35,3.55-9.39,4.28-11.85,2.75-4.54,2-8.07-2.79-3.08-3.26-1.81a24.35,24.35,0,0,1-5.89,7.41c-2.33,1.66-4.83,3.53-4.83,3.53a143,143,0,0,1-17.24-15c-8.09-8.43-19.29-25.58-22.15-28.86s-5.64-3.68-8.64-2.69-12.58,4.16-26.91,17.11-11.34,19.95-8.88,22S134.28,144.92,139.35,142.14Z" transform="translate(0 0)" fill="#4592d0"/><path d="M218.64,160.44c-1.24.41-4.52-1.67-9.33-4.85-1.48-1-2.89-1.91-4-2.55s-3.56-2-6.69-3.61c-8-4.23-20.05-10.62-24.36-14-5.12-4-7-13.2-7.53-16.13-5.88,9.61-26.34,22.5-27.23,23.06h0c-5.18,2.87-10.06,2-12.61-.17a6.56,6.56,0,0,1-2.17-5c-.06-3.36,1.81-9.12,11-17.47,14.37-13,23.89-16.14,27-17.18,3.46-1.14,6.32-.26,9,2.79,1,1.1,2.83,3.73,5.21,7.06,4.87,6.83,11.54,16.18,16.93,21.79a142.25,142.25,0,0,0,17,14.78c.63-.47,2.71-2,4.65-3.39a24.58,24.58,0,0,0,5.78-7.27,1.68,1.68,0,0,1,1.65-1.14c.49,0,1.68.41,2.21,3s-.32,4.38-1.15,6.11a14.45,14.45,0,0,0-.88,2.11c-.14.47-.33,1.16-.55,2-1.33,5-2.63,9.46-3.9,10.06Zm-51.82-42.38H167a.33.33,0,0,1,.25.27c0,.12,1.63,12.06,7.43,16.61,4.26,3.34,16.3,9.71,24.26,13.94,3.15,1.66,5.63,3,6.73,3.63s2.51,1.58,4,2.56c3.14,2.08,7.89,5.21,8.81,4.77,1.11-.53,2.77-6.69,3.56-9.65l.55-2a16.11,16.11,0,0,1,.92-2.19c.78-1.65,1.59-3.34,1.1-5.72-.31-1.5-.92-2.43-1.64-2.49a1.06,1.06,0,0,0-1,.72,25,25,0,0,1-6,7.56c-2.3,1.64-4.8,3.5-4.82,3.52a.29.29,0,0,1-.37,0,141.84,141.84,0,0,1-17.29-15c-5.42-5.64-12.1-15-17-21.85-2.36-3.31-4.23-5.93-5.17-7-2.51-2.87-5.06-3.68-8.31-2.6s-12.52,4.13-26.8,17c-9.07,8.19-10.9,13.76-10.84,17a5.93,5.93,0,0,0,1.94,4.56c2.39,2,7,2.83,11.89.11.51-.32,22.38-14.14,27.46-23.61A.36.36,0,0,1,166.82,118.06Z" transform="translate(0 0)" fill="#263238"/><path d="M224.9,140.19c-.72-3.53-2.79-3.07-3.25-1.8a24.78,24.78,0,0,1-5.89,7.41c-2.33,1.66-4.83,3.52-4.83,3.52a145.11,145.11,0,0,1-14.36-12.07,16.22,16.22,0,0,1-4.85,8.13c6.18,3.32,11.94,6.29,13.78,7.38,3.85,2.28,11.57,8.08,13.1,7.35s3.54-9.38,4.28-11.85S225.63,143.73,224.9,140.19Z" transform="translate(0 0)" fill="#fedea5"/><path d="M218.64,160.44c-1.24.41-4.52-1.67-9.33-4.85-1.48-1-2.89-1.91-4-2.55s-3.58-2-6.72-3.62c-2.13-1.13-4.56-2.41-7-3.76a.31.31,0,0,1-.16-.24.28.28,0,0,1,.1-.27,15.86,15.86,0,0,0,4.75-8,.34.34,0,0,1,.22-.23.32.32,0,0,1,.31.08,147.92,147.92,0,0,0,14.11,12c.62-.47,2.7-2,4.65-3.39a24.38,24.38,0,0,0,5.77-7.27A1.67,1.67,0,0,1,223,137.2c.49,0,1.68.4,2.21,3s-.33,4.38-1.16,6.11a16.2,16.2,0,0,0-.88,2.11c-.14.47-.32,1.16-.55,2-1.33,5-2.63,9.46-3.89,10.06Zm-26.38-15.13c2.36,1.27,4.64,2.48,6.66,3.54,3.15,1.67,5.64,3,6.74,3.64s2.51,1.58,4,2.56c3.13,2.08,7.88,5.21,8.81,4.77,1.11-.52,2.76-6.69,3.56-9.65.22-.83.41-1.53.55-2a16.06,16.06,0,0,1,.91-2.19,8.37,8.37,0,0,0,1.11-5.72c-.31-1.5-.93-2.43-1.64-2.49a1.06,1.06,0,0,0-1,.72,25.07,25.07,0,0,1-6,7.57c-2.3,1.64-4.79,3.49-4.82,3.52a.32.32,0,0,1-.37,0,146.7,146.7,0,0,1-14-11.74,16.59,16.59,0,0,1-4.51,7.47Z" transform="translate(0 0)" fill="#263238"/><path d="M83.52,75.69s4.42,4.55,5.3,6.22-.82,3.36-2.74,4.48-5.56,1-7.56,5.75-4.63,23.31-5,26.19,1.51,4.55,4.53,2.9,7.87-15.94,7.87-15.94,15,9.52,17.22,11.87,3.35,7.18,4.66,12.12,2.9,12.2,9.17,16.47,16,2.84,22.33-3.64,10-22.85,4.49-27.21-14.62-4.39-18.85-8.85-4.33-7.66-6.13-13.06a93.65,93.65,0,0,0-5.3-12S125.1,73.81,139,67c4.83-2.37-.24-7.08-3.55-7.28-4.15-.26-19.83,6.81-24.39,7.85-6.59,1.52-9.41,3.92-10.53,5.43s-2.54,3.6-4.2,4-6-7-6-7S87.3,74.92,83.52,75.69Z" transform="translate(0 0)" fill="#f37630"/><path d="M131.32,147.48c-5,1.66-10.43,1.26-14.47-1.49-6-4.09-7.79-10.86-9.08-15.81l-.56-2.13c-1.16-4.43-2.25-8.61-4.24-10.7s-14.59-10.21-16.82-11.6c-.81,2.33-5,14.18-7.9,15.73-1.5.82-2.86.91-3.81.26a3.49,3.49,0,0,1-1.18-3.47c.31-2.53,3-21.46,5-26.28,1.55-3.66,4-4.52,6-5.2a10.91,10.91,0,0,0,1.66-.68c.85-.51,3.56-2.27,2.62-4.07-.84-1.6-5.2-6.1-5.25-6.14a.35.35,0,0,1-.08-.32.32.32,0,0,1,.24-.21c3.63-.74,6.65-5.5,6.68-5.55a.33.33,0,0,1,.27-.15.36.36,0,0,1,.27.15c2.09,3.51,4.79,7,5.68,6.81,1.4-.32,2.69-2.07,3.73-3.48l.29-.39c1-1.39,3.8-4,10.71-5.55a89.52,89.52,0,0,0,8.71-3c6.16-2.33,13.13-5,15.77-4.82,2.23.14,5.33,2.25,5.78,4.51.2,1,0,2.35-2.11,3.37C126.6,73.46,115.77,80,114,81.08a92.36,92.36,0,0,1,5.18,11.8c.4,1.19.7,2.26,1,3.28,1,3.63,1.8,6.26,5.06,9.69,2.15,2.26,5.61,3.36,9.27,4.52,3.38,1.07,6.87,2.18,9.55,4.3,1.6,1.27,2.55,3.6,2.75,6.72.45,7-2.78,16.4-7.22,21A20.24,20.24,0,0,1,131.32,147.48ZM85.88,105a.42.42,0,0,1,.27,0c.61.39,15,9.56,17.28,11.91s3.21,6.47,4.39,11l.56,2.13c1.26,4.85,3,11.49,8.83,15.45,6.21,4.22,15.84,2.64,21.91-3.6,4.26-4.37,7.48-13.74,7-20.47-.19-2.94-1.06-5.11-2.52-6.26-2.58-2-6-3.14-9.34-4.2-3.74-1.18-7.27-2.31-9.54-4.69-3.36-3.54-4.17-6.36-5.2-10-.3-1-.61-2.07-1-3.25a95,95,0,0,0-5.28-12,.32.32,0,0,1,.12-.42c.11-.07,11.76-7.25,25.53-14,1.39-.69,2-1.59,1.78-2.68-.4-2-3.24-3.88-5.2-4-2.51-.15-9.72,2.58-15.51,4.78a88.15,88.15,0,0,1-8.8,3.08c-6.72,1.54-9.37,4-10.36,5.3l-.29.39c-1.09,1.49-2.45,3.34-4.08,3.72s-5-4.82-6.12-6.67c-.8,1.16-3.23,4.37-6.26,5.27a47.7,47.7,0,0,1,5,5.9c.77,1.42-.25,3.37-2.86,4.9a10,10,0,0,1-1.76.73c-1.86.65-4.18,1.45-5.62,4.86-2,4.76-4.64,23.59-5,26.1a2.92,2.92,0,0,0,.9,2.88c.76.51,1.88.4,3.16-.3,2.31-1.25,6.06-10.86,7.73-15.76A.36.36,0,0,1,85.88,105Z" transform="translate(0 0)" fill="#263238"/><path d="M118,65.19l-1.2.45a20.75,20.75,0,0,0,6.2,9.82l1.18-.66A19.77,19.77,0,0,1,118,65.19Z" transform="translate(0 0)" fill="#263238"/><path d="M123.33,104.05c-.26-.35-.5-.69-.72-1-8.4,5-14.12,13.43-17,18.46.19.52.37,1,.55,1.61C108.74,118.36,114.52,109.25,123.33,104.05Z" transform="translate(0 0)" fill="#263238"/><path d="M101.52,115.7c.39.3.74.57,1,.81,1.81-3.56,6.79-11.53,17.72-19-.13-.42-.25-.86-.38-1.3C108.61,103.76,103.52,111.83,101.52,115.7Z" transform="translate(0 0)" fill="#263238"/><path d="M86,98.63c2-.94,11.78-5.89,23.5-20.46a44,44,0,0,0,3.69,3.27.66.66,0,0,0,.59.1h.09c-.18-.36-.29-.56-.29-.56l.53-.33a.65.65,0,0,0-.15-.18c-.07,0-6.83-5.26-9.14-10.72-.4.2-.77.41-1.11.61a18.16,18.16,0,0,0,1.75,3.1,57.63,57.63,0,0,1-22,18.62,22.93,22.93,0,0,0-2.28-3.4,6.31,6.31,0,0,0-1,.86,22.6,22.6,0,0,1,2,2.93A10.84,10.84,0,0,0,79,91.14a9.11,9.11,0,0,0-.47,1l-.09.21a7.84,7.84,0,0,1,5.29,3.43,23.24,23.24,0,0,1,1.06,3.57,10.76,10.76,0,0,0-7.47-3.14c-.09.4-.19.82-.28,1.24a9.22,9.22,0,0,1,8.06,4.25.52.52,0,0,0,.1.11c.07.69.12,1.4.13,2.14a13.27,13.27,0,0,0-9.09-2.57c-.08.43-.17.85-.24,1.29a11.71,11.71,0,0,1,9.32,2.88v1.59c.41-1.13.66-1.86.66-1.86s.22.15.62.39v-.37A26.23,26.23,0,0,0,86,98.63ZM106.26,74.5a34.62,34.62,0,0,0,2.38,2.76c-11.14,13.87-20.65,19-23,20.12-.17-.58-.35-1.13-.54-1.66a.5.5,0,0,0-.06-.24v-.09a20.08,20.08,0,0,0-1-2.22A59.16,59.16,0,0,0,106.23,74.5Z" transform="translate(0 0)" fill="#263238"/><path d="M128.17,108.29c-.43-.22-.83-.44-1.22-.69-9.44,6.42-15.71,15.08-19.25,21.07a2.46,2.46,0,0,0,.16.59c.09.37.19.75.29,1.14C111.52,124.43,118,115,128.17,108.29Z" transform="translate(0 0)" fill="#263238"/><path d="M118.43,91.69c-.14-.39-.29-.79-.44-1.19-15.1,5.9-20.07,16.3-21.67,21.55l1.09.73C98.78,108,103.38,97.58,118.43,91.69Z" transform="translate(0 0)" fill="#263238"/><path d="M125.89,62.23l-1.24.45A20.73,20.73,0,0,0,129,72.14l1.15-.61A19.78,19.78,0,0,1,125.89,62.23Z" transform="translate(0 0)" fill="#263238"/><path d="M109.52,68a38.15,38.15,0,0,0,7.82,10.73l1.15-.67a36.72,36.72,0,0,1-7.7-10.39Z" transform="translate(0 0)" fill="#263238"/><path d="M115.74,85.33c-.18-.41-.37-.79-.54-1.15-16.71,7.86-23,18.15-25.27,23.64l1.11.72C93.18,103.35,99.31,93.08,115.74,85.33Z" transform="translate(0 0)" fill="#263238"/><path d="M139.35,142.14c5.21-5.35,8.64-17.48,6.55-24a6.58,6.58,0,0,0-2-2.92c-.74-.59-1.55-1.19-2.39-1.8a54.27,54.27,0,0,0-8.81-3.29c-11.56,9.36-18.83,22.9-21.87,28.23a18.43,18.43,0,0,0,6.17,7.41C123.31,150,133.05,148.57,139.35,142.14Z" transform="translate(0 0)" fill="#4592d0"/><path d="M131.32,147.48c-5,1.66-10.43,1.26-14.47-1.49a18.53,18.53,0,0,1-6.28-7.53.37.37,0,0,1,0-.29l.57-1c3.39-6,10.43-18.46,21.38-27.31a.33.33,0,0,1,.3-.06l1.65.53a42.32,42.32,0,0,1,7.21,2.79c1,.69,1.75,1.28,2.43,1.83a7,7,0,0,1,2.07,3c2.1,6.53-1.25,18.8-6.62,24.32A20.68,20.68,0,0,1,131.32,147.48Zm-20.1-9.14a17.74,17.74,0,0,0,6,7.13c6.21,4.23,15.84,2.64,21.92-3.59,5.24-5.39,8.5-17.34,6.47-23.68a6.24,6.24,0,0,0-1.87-2.76c-.68-.54-1.45-1.13-2.37-1.8a42.6,42.6,0,0,0-7.07-2.71l-1.49-.48c-10.78,8.77-17.74,21.09-21.09,27Z" transform="translate(0 0)" fill="#4592d0"/><path d="M70.65,66.49a2.7,2.7,0,0,0-.7.4c-1.75,1.36-1.57,4.53.41,7.09s5,3.55,6.76,2.19A2.85,2.85,0,0,0,78,75.1Z" transform="translate(0 0)" fill="#fff"/><path d="M76.36,76.93a4.33,4.33,0,0,1-2.64-.08A8.23,8.23,0,0,1,68.44,70a3.78,3.78,0,0,1,1.31-3.36,2.62,2.62,0,0,1,.78-.44.32.32,0,0,1,.36.09l7.3,8.6a.3.3,0,0,1,0,.34,3.43,3.43,0,0,1-1.83,1.71ZM70.57,66.87a3.87,3.87,0,0,0-.43.27A3.18,3.18,0,0,0,69.07,70a7.2,7.2,0,0,0,1.55,3.83,7.08,7.08,0,0,0,3.31,2.45,3.15,3.15,0,0,0,3-.32,2.82,2.82,0,0,0,.67-.79Z" transform="translate(0 0)" fill="#263238"/><path d="M70.65,66.49a2.7,2.7,0,0,0-.7.4,2.22,2.22,0,0,0-.52.54L77,76.25a.28.28,0,0,0,.11-.08A2.83,2.83,0,0,0,78,75.09Z" transform="translate(0 0)" fill="#fff"/><path d="M77.13,76.52a.36.36,0,0,1-.37-.07l-7.58-8.82a.3.3,0,0,1,0-.4,3.3,3.3,0,0,1,.58-.6,3,3,0,0,1,.78-.43.32.32,0,0,1,.36.08l7.3,8.61a.3.3,0,0,1,0,.34,3.4,3.4,0,0,1-.94,1.19l-.09.06Zm-7.3-9.1L77,75.81a2.49,2.49,0,0,0,.54-.67l-7-8.27a3.87,3.87,0,0,0-.43.27A3.7,3.7,0,0,0,69.83,67.42Z" transform="translate(0 0)" fill="#263238"/><path d="M86.71,54.49a3.13,3.13,0,0,1,.56-.59c1.73-1.35,4.78-.37,6.73,2.19s2.17,5.74.43,7.09a2.8,2.8,0,0,1-1.26.55Z" transform="translate(0 0)" fill="#fff"/><path d="M93.71,63.93l-.47.12a.31.31,0,0,1-.31-.13l-6.49-9.24a.35.35,0,0,1,0-.37,3,3,0,0,1,.63-.65c1.89-1.46,5.11-.46,7.2,2.24a7.73,7.73,0,0,1,1.67,4.18,3.78,3.78,0,0,1-1.31,3.36A3.26,3.26,0,0,1,93.71,63.93Zm-.39-.55a2.45,2.45,0,0,0,.92-.44,3.2,3.2,0,0,0,1.07-2.8,7.12,7.12,0,0,0-1.54-3.82C91.9,53.9,89.06,53,87.46,54.19a2,2,0,0,0-.37.34Z" transform="translate(0 0)" fill="#263238"/><path d="M93.71,63.93a1.91,1.91,0,0,0-.47.12.31.31,0,0,1-.31-.13l-6.49-9.24a.35.35,0,0,1,0-.37,3,3,0,0,1,.63-.65,2.85,2.85,0,0,1,.72-.41.31.31,0,0,1,.38.11l6.63,9.56a.4.4,0,0,1-.17.51A2.94,2.94,0,0,1,93.71,63.93Zm-.39-.55a2.55,2.55,0,0,0,.79-.35l-6.3-9.1a2.64,2.64,0,0,0-.35.23,2,2,0,0,0-.37.34Z" transform="translate(0 0)" fill="#263238"/><path d="M99.16,74.85A5.71,5.71,0,0,1,96.41,77c-1.66.38-6-7-6-7s-3.07,4.92-6.88,5.69c0,0,4.43,4.56,5.3,6.22.71,1.34-.28,2.71-1.69,3.78,1.51,2,5.69,6.31,11.62,2.6C103.92,85,101.29,78.56,99.16,74.85Z" transform="translate(0 0)" fill="#fedea5"/><path d="M96.59,89.66c-4.92,1.62-8.37-2-9.74-3.78a.35.35,0,0,1-.06-.24.28.28,0,0,1,.12-.2c.91-.69,2.32-2,1.6-3.39-.84-1.6-5.2-6.1-5.24-6.14a.35.35,0,0,1-.08-.32.35.35,0,0,1,.24-.22c3.62-.73,6.64-5.5,6.67-5.54a.33.33,0,0,1,.27-.15.36.36,0,0,1,.27.15c2.09,3.51,4.79,7,5.69,6.81a5.32,5.32,0,0,0,2.58-2,.31.31,0,0,1,.41-.1.32.32,0,0,1,.1.1c2.14,3.72,4.91,10.45-.54,13.86A10.27,10.27,0,0,1,96.59,89.66Zm-9-3.92c1.61,2,5.54,5.69,11,2.28,4.82-3,2.53-9,.55-12.62a5.49,5.49,0,0,1-2.62,1.85c-1.64.39-5-4.81-6.11-6.67-.81,1.17-3.24,4.38-6.27,5.28a46.88,46.88,0,0,1,5,5.89c.77,1.41,0,2.66-1.62,4Z" transform="translate(0 0)" fill="#fedea5"/><path d="M93.15,74.14c-.68-.91-1.34-1.88-1.84-2.65-.35-.43-.69-.88-1-1.33C89.78,71,87,75,83.52,75.7c0,0,1.5,1.54,2.92,3.15a7.3,7.3,0,0,0,5-1.7A8.59,8.59,0,0,0,93.15,74.14Z" transform="translate(0 0)" fill="#263238"/><path d="M89.35,78.68a10.38,10.38,0,0,1-2.92.48.33.33,0,0,1-.25-.11c-1.4-1.59-2.9-3.13-2.91-3.15a.32.32,0,0,1-.08-.31.35.35,0,0,1,.24-.22C86.74,74.71,89.5,70.75,90,70a.33.33,0,0,1,.26-.13.3.3,0,0,1,.26.12c.35.48.69.93,1,1.32.64,1,1.28,1.91,1.84,2.66a.36.36,0,0,1,0,.3,9,9,0,0,1-1.85,3.11A5.36,5.36,0,0,1,89.35,78.68Zm-2.83-.16a6.86,6.86,0,0,0,4.57-1.6,8.05,8.05,0,0,0,1.7-2.78c-.69-.91-1.33-1.87-1.75-2.53a10.43,10.43,0,0,1-.75-1c-.87,1.23-3.25,4.3-6.19,5.18C84.62,76.4,85.6,77.45,86.52,78.52Z" transform="translate(0 0)" fill="#263238"/><path d="M70.37,64.42s5,8.12,7.19,10,8.42,2.9,11,2.37,3.32-4.18,4-7.16a10.55,10.55,0,0,0-1.25-8.2,50.56,50.56,0,0,0-7.63-9.84c-1.54-1.49-6.62-1.87-10.38.51S68.08,60,70.37,64.42Z" transform="translate(0 0)" fill="#fedea5"/><path d="M89,77l-.37.1c-2.8.57-9-.56-11.27-2.45s-7.06-9.72-7.26-10h0c-2.32-4.51-1-10.23,3-12.75s9.16-2,10.76-.46a50.7,50.7,0,0,1,7.66,9.84,10.92,10.92,0,0,1,1.28,8.42v.16C92.19,72.68,91.44,76.14,89,77ZM70.64,64.26c.2.33,5,8.11,7.12,9.89S85.85,77,88.49,76.46c2.33-.47,3.08-4,3.69-6.75v-.16a10.27,10.27,0,0,0-1.21-8,50,50,0,0,0-7.57-9.76c-1.4-1.38-6.4-1.8-10,.54S68.52,60,70.64,64.26Z" transform="translate(0 0)" fill="#263238"/><path d="M81.32,66.66h0A.32.32,0,0,1,81,66.4,2,2,0,0,1,81.38,65a2.76,2.76,0,0,1,2.14-.82.32.32,0,0,1,.33.31h0a.33.33,0,0,1-.31.32,2.23,2.23,0,0,0-1.7.59,1.3,1.3,0,0,0-.29,1A.3.3,0,0,1,81.32,66.66Z" transform="translate(0 0)" fill="#263238"/><path d="M83.37,69.85a5.75,5.75,0,0,1-2.7.23.32.32,0,0,1-.19-.41.33.33,0,0,1,.31-.21c.18,0,4.58.85,5.83-4.57a.32.32,0,0,1,.35-.25h0a.3.3,0,0,1,.24.35h0C86.52,68.14,84.86,69.36,83.37,69.85Z" transform="translate(0 0)" fill="#263238"/><path d="M76.83,67.86A2.87,2.87,0,0,1,75.6,68a.64.64,0,0,1-.5-.74.61.61,0,0,1,.69-.51h0c.07,0,1.47.16,2.54-2.17a.66.66,0,0,1,.87-.3.65.65,0,0,1,.29.87A4.67,4.67,0,0,1,76.83,67.86Z" transform="translate(0 0)" fill="#263238"/><path d="M84.6,61.93a5.52,5.52,0,0,1-1.71.28.63.63,0,1,1,0-1.26h0c.11,0,2.8,0,2.88-2A.63.63,0,0,1,87,58.72.62.62,0,0,1,87,59,3.18,3.18,0,0,1,84.6,61.93Z" transform="translate(0 0)" fill="#263238"/><path d="M73.87,65.22a.32.32,0,0,1-.35-.18,4.16,4.16,0,0,1,0-3.21,3.57,3.57,0,0,1,2.61-1.69.32.32,0,1,1,.13.63,2.93,2.93,0,0,0-2.19,1.37,3.53,3.53,0,0,0,0,2.67.32.32,0,0,1-.17.42h0Z" transform="translate(0 0)" fill="#263238"/><path d="M79.93,58a.31.31,0,0,1-.23,0,.32.32,0,0,1-.16-.42,3.94,3.94,0,0,1,4.65-1.92.33.33,0,0,1,.24.38.32.32,0,0,1-.38.24,3.33,3.33,0,0,0-3.94,1.57A.25.25,0,0,1,79.93,58Z" transform="translate(0 0)" fill="#263238"/><path d="M66.61,70.22S67.67,74.91,68.5,76s6.23,4.12,7.3,4.9,1.26.89.72,4.15-6.72,25.31-5.67,30,2.72,8.7,7.25,6.22,3.29-15.56,3.06-23.12-1-17.23-1.62-19.14-8.34-4.62-9.19-5-2-2.74-2.38-4S66.8,68.85,66.61,70.22Z" transform="translate(0 0)" fill="#fedea5"/><path d="M77,122a3.74,3.74,0,0,1-2.79,0c-2.08-1-3-4-3.69-6.94-.8-3.56,2.43-16.71,4.36-24.56.65-2.64,1.17-4.73,1.3-5.56.5-3,.38-3.12-.56-3.81-.38-.28-1.19-.79-2.15-1.38-2.07-1.29-4.66-2.88-5.25-3.61-.84-1-1.84-5.36-2-5.84a.24.24,0,0,1,0-.12c.12-.87.46-1.39.93-1.44.25,0,.72.09,1,1.09.52,1.58,1.6,3.61,2.2,3.86l.48.18c5.65,2.14,8.48,3.71,8.89,5,.67,2,1.42,11.81,1.64,19.23,0,1,.07,2,.12,3.11.34,7.62.79,18-3.35,20.3A6.65,6.65,0,0,1,77,122ZM66.92,70.21c.31,1.33,1.19,4.74,1.82,5.53a38.94,38.94,0,0,0,5.08,3.47c1,.62,1.79,1.11,2.15,1.37,1.25.91,1.39,1.25.85,4.46-.14.84-.66,3-1.31,5.61-1.91,7.79-5.12,20.84-4.35,24.26.59,2.59,1.49,5.67,3.34,6.5a3.79,3.79,0,0,0,3.45-.48c3.79-2.07,3.34-12.27,3-19.71,0-1.11-.09-2.16-.12-3.13-.24-8-1-17.29-1.6-19-.24-.71-1.91-2.08-8.52-4.58l-.5-.19c-1-.41-2.17-3-2.57-4.25-.18-.53-.36-.65-.4-.65S67,69.55,66.92,70.21Z" transform="translate(0 0)" fill="#263238"/><path d="M81.17,98.08a19.91,19.91,0,0,0-.09-2.3l-7-.4c-1.82,7.55-3.83,16.76-3.18,19.6,1.06,4.69,2.71,8.7,7.24,6.23S81.4,105.65,81.17,98.08Z" transform="translate(0 0)" fill="#f26f1f"/><path d="M77,122a3.74,3.74,0,0,1-2.79,0c-2.08-1-3-4-3.69-6.94s1.5-12.7,3.19-19.74a.3.3,0,0,1,.32-.24l7,.39a.32.32,0,0,1,.3.3c0,.78.06,1.56.08,2.31,0,1,.08,2,.13,3.11.33,7.61.78,18-3.36,20.29A7.29,7.29,0,0,1,77,122ZM74.28,95.71c-1.66,7-3.75,16.38-3.11,19.2.59,2.59,1.49,5.67,3.33,6.5a3.81,3.81,0,0,0,3.46-.48c3.79-2.07,3.34-12.27,3-19.72,0-1.11-.1-2.16-.12-3.12a16.64,16.64,0,0,0-.08-2Z" transform="translate(0 0)" fill="#263238"/><path d="M72.76,100.91v.15a2.33,2.33,0,0,1-.08.36,7.32,7.32,0,0,1-.17.79,63.75,63.75,0,0,1,8.85-.07v-1.27A65,65,0,0,0,72.76,100.91Z" transform="translate(0 0)" fill="#263238"/><path d="M80.52,117.49c.14-.46.25-1,.36-1.46a25.09,25.09,0,0,1-9.36,1.55c.15.46.31.89.48,1.3A26.23,26.23,0,0,0,80.52,117.49Z" transform="translate(0 0)" fill="#263238"/><path d="M71.2,108.89a1.09,1.09,0,0,1,0,.36l-.06.39a1.53,1.53,0,0,1-.08.6,31.21,31.21,0,0,1,10.51-.55v-1.28A32,32,0,0,0,71.2,108.89Z" transform="translate(0 0)" fill="#263238"/><path d="M90.37,50.9s4.59,1.4,5.56,2.3,3.65,6.52,4.35,7.64.79,1.33,4.09,1,25.68-4.91,30.27-3.51,8.47,3.33,5.68,7.69-15.73,2.18-23.25,1.41-17.08-2.22-18.94-3-4-8.67-4.29-9.53S91.26,52.75,90,52.22,89,51,90.37,50.9Z" transform="translate(0 0)" fill="#fedea5"/><path d="M137.67,68.21c-4.31,1.42-11.74.56-17.53-.11l-3.09-.34c-7.37-.75-17.08-2.2-19-3-1.22-.51-2.6-3.44-4.32-9.24-.07-.23-.12-.4-.14-.49-.21-.63-2.15-1.85-3.69-2.49-1-.4-1-.88-1-1.12.07-.47.62-.77,1.49-.83h.12c.49.14,4.69,1.4,5.67,2.4.7.65,2.1,3.34,3.23,5.5.52,1,1,1.85,1.19,2.21.65,1,.72,1.16,3.78.87.83-.08,3-.44,5.63-.9,8-1.37,21.27-3.66,24.77-2.6,2.84.87,5.85,2,6.64,4.19a4.46,4.46,0,0,1-.79,4A5.29,5.29,0,0,1,137.67,68.21ZM89.8,51.33c-.24.07-.31.16-.32.19s.11.22.62.44c1.18.48,3.71,1.82,4,2.87l.15.5c2,6.79,3.27,8.55,4,8.84,1.71.71,10.87,2.15,18.86,3,1,.09,2,.22,3.1.35,7.39.85,17.52,2,19.84-1.62a3.85,3.85,0,0,0,.74-3.41c-.71-1.9-3.7-3-6.24-3.8-3.34-1-16.57,1.25-24.47,2.62-2.7.46-4.82.82-5.68.91-3.24.3-3.56.13-4.35-1.13-.27-.42-.69-1.24-1.24-2.29a37.76,37.76,0,0,0-3.1-5.33c-.74-.68-4.07-1.81-5.38-2.2A1.57,1.57,0,0,0,89.8,51.33Z" transform="translate(0 0)" fill="#263238"/><path d="M117.08,67.44c-.74-.07-1.52-.15-2.29-.25l.11-7.07c7.65-1.26,17-2.62,19.75-1.77,4.59,1.4,8.46,3.33,5.67,7.69S124.6,68.22,117.08,67.44Z" transform="translate(0 0)" fill="#f26f1f"/><path d="M137.67,68.21c-4.31,1.42-11.74.56-17.53-.11l-3.09-.34-2.3-.25a.31.31,0,0,1-.27-.32l.11-7.07a.3.3,0,0,1,.27-.31c7.13-1.18,17-2.65,19.88-1.77s5.85,2,6.65,4.19a4.43,4.43,0,0,1-.79,4A5.23,5.23,0,0,1,137.67,68.21Zm-20.56-1.07,3.1.35c7.39.86,17.52,2,19.85-1.61a3.84,3.84,0,0,0,.73-3.42c-.7-1.9-3.7-3-6.24-3.79-2.76-.84-12.28.58-19.34,1.74l-.1,6.52Z" transform="translate(0 0)" fill="#263238"/><path d="M128.57,68.59h1.26l.57-10.45h-1.3Z" transform="translate(0 0)" fill="#263238"/><path d="M122.86,58.91h-.34l-.87.12-.58,8.82,1,.11h.28l.61-9.13Z" transform="translate(0 0)" fill="#263238"/><path d="M137,59.14c-.2,2.1-.59,5.91-1.05,9.17.47-.09.91-.19,1.32-.31.41-3,.75-6.27,1-8.32C137.86,59.48,137.43,59.3,137,59.14Z" transform="translate(0 0)" fill="#263238"/><path d="M212,151.19a8.48,8.48,0,0,1,2.79,1.08s0,1.64-2.45,5.21c2.85,1.43,5.5,3,6.28,2.64,1.53-.73,3.54-9.39,4.27-11.85s2.75-4.54,2-8.07-2.79-3.08-3.26-1.81a29.66,29.66,0,0,1-6.6,7.82c-2.33,1.66-4.12,3.12-4.12,3.12S210.59,151,212,151.19Z" transform="translate(0 0)" fill="#f37630"/><path d="M218.64,160.44c-.75.25-2.25-.5-4.75-1.79-.56-.29-1.13-.59-1.72-.88a.4.4,0,0,1-.16-.46,14.53,14.53,0,0,0,2.38-4.87,7.94,7.94,0,0,0-2.5-.93,1.52,1.52,0,0,1-1-.61,2.35,2.35,0,0,1-.28-1.64.42.42,0,0,1,.11-.18s1.82-1.49,4.14-3.13a29.13,29.13,0,0,0,6.49-7.67,1.67,1.67,0,0,1,1.66-1.14c.49,0,1.68.41,2.21,3s-.33,4.39-1.16,6.12a13.38,13.38,0,0,0-.87,2.11c-.14.46-.33,1.16-.55,2-1.33,5-2.64,9.46-3.9,10.06Zm-5.86-3.08,1.4.72c1.78.93,3.8,2,4.28,1.75,1.11-.53,2.77-6.69,3.56-9.65l.55-2a16.11,16.11,0,0,1,.92-2.19c.78-1.65,1.59-3.34,1.1-5.72-.31-1.5-.92-2.43-1.64-2.49a1.06,1.06,0,0,0-1,.72,29.68,29.68,0,0,1-6.72,8c-2,1.42-3.6,2.7-4,3a1.75,1.75,0,0,0,.19,1,.86.86,0,0,0,.62.35,8.55,8.55,0,0,1,3,1.14.29.29,0,0,1,.14.28C215.09,152.35,215,154,212.78,157.36Z" transform="translate(0 0)" fill="#263238"/><path d="M223.46,137.61c.84,4.28,0,6-3.09,12.79-2.4,5.26-3,8.23-3.16,9.63a2.36,2.36,0,0,0,1.39.09c1.54-.73,3.54-9.38,4.28-11.85s2.74-4.54,2-8.07A3.55,3.55,0,0,0,223.46,137.61Z" transform="translate(0 0)" fill="#fff"/><path d="M218.63,160.44a2.83,2.83,0,0,1-1.5-.1.32.32,0,0,1-.23-.34c.17-1.62.86-4.62,3.19-9.74l.17-.38c2.92-6.39,3.7-8.11,2.89-12.21a.34.34,0,0,1,.13-.32.29.29,0,0,1,.33,0c.53.27,1.23,1,1.61,2.8.53,2.59-.33,4.39-1.16,6.12a13.38,13.38,0,0,0-.87,2.11c-.14.46-.33,1.16-.55,2-1.33,5-2.64,9.46-3.9,10.06Zm-1.07-.65c.61.13.84.08.9,0,1.11-.53,2.77-6.69,3.56-9.65l.55-2a16.11,16.11,0,0,1,.92-2.19c.78-1.65,1.59-3.34,1.1-5.72a4.86,4.86,0,0,0-.66-1.77c.54,3.68-.41,5.77-3.1,11.65l-.18.38a37.34,37.34,0,0,0-3.13,9.3Z" transform="translate(0 0)" fill="#263238"/><path d="M121.52,131.72a.34.34,0,0,1-.28,0,.32.32,0,0,1-.07-.44l1.32-1.82a.32.32,0,0,1,.43-.08h0a.33.33,0,0,1,.07.45c-.83,1.12-1.31,1.81-1.31,1.81A.3.3,0,0,1,121.52,131.72Z" transform="translate(0 0)" fill="#fff"/><path d="M119.66,133.54s14.75-21.75,28.27-32.44,20-8.6,20.77-2.86-.45,25.45-2.67,36.84-6.17,30.23-6.17,30.23,12.82,9.31,14.08,10.45-4.46,3.25-7.32,2.64a70.34,70.34,0,0,1-7.18-1.63c-8.51-2.29-9.5-4-9-5.89,1.5-6.19,3.93-11.75,3.43-18.45-.91-12.18-.53-28.46.58-27.06a51.57,51.57,0,0,1-14,16.62c-9.39,7.1-16.6,8.45-23.36,3.73" transform="translate(0 0)" fill="#73b4ea"/><path d="M171.61,178.14a11,11,0,0,1-5.06.57c-.67-.14-1.13-.22-1.57-.3a49.45,49.45,0,0,1-5.63-1.32c-8.46-2.28-9.8-4-9.26-6.27.38-1.58.83-3.14,1.27-4.65,1.3-4.51,2.52-8.76,2.15-13.7-.56-7.58-.71-19.22-.15-24.58a52.2,52.2,0,0,1-12.77,14.37c-9.65,7.3-17,8.44-23.74,3.73a.33.33,0,0,1-.08-.44.32.32,0,0,1,.44-.07c6.5,4.53,13.6,3.38,23-3.73a52.11,52.11,0,0,0,13.39-15.53c.14-.7.31-1.12.52-1.2a.44.44,0,0,1,.53.18.33.33,0,0,1,0,.33,11,11,0,0,1-.57,1.07c-.55,3.55-.77,15.35,0,25.83.38,5-.87,9.36-2.17,13.92-.44,1.51-.88,3.06-1.26,4.63s0,3.14,8.81,5.5A53,53,0,0,0,165,177.8c.45.08.92.16,1.6.31,2.38.5,6.6-.93,7.09-1.89a.14.14,0,0,0,0-.2h0c-1.24-1.11-13.93-10.33-14.06-10.42a.33.33,0,0,1-.13-.32c0-.19,4-19,6.18-30.23,2.24-11.52,3.44-31.09,2.66-36.75a4.72,4.72,0,0,0-2.83-4.06c-2.07-.84-7.09-1-17.42,7.14-13.34,10.53-28.06,32.14-28.21,32.35a.31.31,0,0,1-.41.1h0a.31.31,0,0,1-.1-.43h0c.15-.22,14.93-21.91,28.34-32.5,7.84-6.2,14.24-8.76,18-7.23A5.34,5.34,0,0,1,169,98.21c.79,5.7-.41,25.38-2.66,36.94-2.07,10.64-5.71,28-6.14,30,1.58,1.14,12.75,9.27,14,10.35a.77.77,0,0,1,.18,1A5.09,5.09,0,0,1,171.61,178.14Z" transform="translate(0 0)" fill="#73b4ea"/><path d="M124.87,127.2a.37.37,0,0,1-.29,0,.32.32,0,0,1-.07-.44,152.17,152.17,0,0,1,10.89-13.28.31.31,0,0,1,.44,0h0a.33.33,0,0,1,0,.45A152.15,152.15,0,0,0,125,127.14.31.31,0,0,1,124.87,127.2Z" transform="translate(0 0)" fill="#fff"/><path d="M149.1,133.27a.28.28,0,0,1-.4-.09.29.29,0,0,1,0-.35l3.7-6c-.06-1.25-.46-13.94,5.11-22.46a.33.33,0,0,1,.45-.07.34.34,0,0,1,.09.41h0c-5.73,8.74-5,22-5,22.17a.28.28,0,0,1,0,.18l-3.75,6.07A.31.31,0,0,1,149.1,133.27Z" transform="translate(0 0)" fill="#fff"/><path d="M168,122.46a.29.29,0,0,1-.13,0,.31.31,0,0,1-.29-.33h0l.19-3.11a.29.29,0,0,1,.28-.3h0a.32.32,0,0,1,.3.34h0l-.19,3.1A.34.34,0,0,1,168,122.46Z" transform="translate(0 0)" fill="#fff"/><path d="M168.35,116.62h-.12a.31.31,0,0,1-.3-.32h0l.68-11.25a.32.32,0,0,1,.34-.3h0a.34.34,0,0,1,.3.34l-.73,11.25A.3.3,0,0,1,168.35,116.62Z" transform="translate(0 0)" fill="#fff"/><path d="M166.61,178.41c2.86.6,8.59-1.51,7.32-2.64s-14.08-10.45-14.08-10.45,1-5,2.37-11.38a11.36,11.36,0,0,1-8.38-1.18c.39,6.56-2,12-3.45,18.13-.46,1.93.53,3.6,9,5.89A69.06,69.06,0,0,0,166.61,178.41Z" transform="translate(0 0)" fill="#fedea5"/><path d="M171.61,178.14a11,11,0,0,1-5.06.57c-.67-.14-1.13-.22-1.57-.3a49.45,49.45,0,0,1-5.63-1.32c-8.46-2.28-9.8-4-9.26-6.27.38-1.58.83-3.13,1.26-4.63,1.27-4.42,2.47-8.59,2.18-13.4a.31.31,0,0,1,.15-.29.33.33,0,0,1,.33,0c1.51,1,4.16,1.9,8.15,1.13a.3.3,0,0,1,.28.09.27.27,0,0,1,.08.28c-1.16,5.65-2.12,10.19-2.32,11.19,1.57,1.14,12.75,9.26,13.94,10.34a.76.76,0,0,1,.19,1A5,5,0,0,1,171.61,178.14Zm-17.43-24.81c.18,4.67-1,8.74-2.22,13-.43,1.49-.88,3-1.26,4.61s0,3.14,8.81,5.51a55.61,55.61,0,0,0,5.57,1.31c.46.08.92.16,1.6.31,2.38.5,6.61-.93,7.09-1.89a.17.17,0,0,0,0-.21c-1.23-1.11-13.93-10.33-14.06-10.42a.31.31,0,0,1-.12-.32s1-4.75,2.27-10.92A11.85,11.85,0,0,1,154.18,153.33Z" transform="translate(0 0)" fill="#263238"/><path d="M159.85,165.32s-1-.33-1.47,1.6a21.23,21.23,0,0,0-.54,3.73l-6.32-3.74c-.38,1.31-.75,2.63-1.08,4-.46,1.94.53,3.6,9,5.89a70.34,70.34,0,0,0,7.18,1.63c2.86.6,8.59-1.51,7.32-2.64S159.85,165.32,159.85,165.32Z" transform="translate(0 0)" fill="#f37630"/><path d="M171.61,178.14a11,11,0,0,1-5.06.57c-.67-.14-1.13-.22-1.57-.3a49.45,49.45,0,0,1-5.63-1.32c-8.46-2.28-9.8-4-9.26-6.27.34-1.4.73-2.8,1.08-4a.29.29,0,0,1,.18-.21.34.34,0,0,1,.28,0l5.89,3.53a21.2,21.2,0,0,1,.52-3.27,2.55,2.55,0,0,1,1-1.71,1.17,1.17,0,0,1,.84-.11l.09,0c.52.38,12.85,9.32,14.11,10.46a.77.77,0,0,1,.18,1A5.07,5.07,0,0,1,171.61,178.14Zm-20-10.76c-.32,1.11-.67,2.34-1,3.59-.35,1.49,0,3.14,8.82,5.5,1.83.53,3.68,1,5.57,1.32.45.07.92.16,1.59.3,2.38.51,6.61-.92,7.1-1.88a.13.13,0,0,0,0-.2h0c-1.19-1.08-13.08-9.72-14-10.39a.53.53,0,0,0-.32.08c-.21.12-.51.45-.72,1.3a23.74,23.74,0,0,0-.53,3.66.34.34,0,0,1-.33.31h-.14Z" transform="translate(0 0)" fill="#f37630"/><path d="M159.43,176.78a68.52,68.52,0,0,0,7.19,1.63c2.57.54,7.46-1.11,7.5-2.28-9.26,2.53-19.19-2.24-23.78-4.92C150.06,173,151.39,174.62,159.43,176.78Z" transform="translate(0 0)" fill="#fff"/><path d="M171.52,178.14a10.62,10.62,0,0,1-5,.54c-.67-.14-1.13-.22-1.57-.3a49.45,49.45,0,0,1-5.63-1.32c-8.18-2.21-9.64-3.91-9.33-5.94a.3.3,0,0,1,.18-.23.3.3,0,0,1,.29,0c4.93,2.88,14.53,7.35,23.54,4.9a.31.31,0,0,1,.38.22h0v.09a1.31,1.31,0,0,1-.6.93A7.93,7.93,0,0,1,171.52,178.14Zm-20.94-6.44c.06,1.23,1.34,2.71,8.89,4.75a56.45,56.45,0,0,0,5.58,1.31c.45.08.91.16,1.59.31a10.74,10.74,0,0,0,6.65-1.45c-8.67,2-17.72-2-22.67-4.89Z" transform="translate(0 0)" fill="#263238"/></g></svg>