<svg id="Layer_1" data-name="Layer 1" xmlns="http://www.w3.org/2000/svg" viewBox="0 0 243.5 158.27"><g opacity="0.3"><path d="M70,.66C95.27,7,114.84,22.26,173.28,11.46S243.5,34.6,243.5,49.69s-20.11,55.58-15,67.48,31.67,51.69-39.38,38.43-111.74-.29-111.74-.29c-42.77,0-37.53-22.16-47.95-34.95C-7.42,75.15.26,59.36,1.49,47.58S44.72-5.7,70,.66Z" transform="translate(0 0)" fill="#fa6e5a" opacity="0.4" style="isolation:isolate"/><path d="M77,132.31c0,.61-3.59,1.11-8,1.11s-8-.5-8-1.11,3.58-1.1,8-1.1S77,131.7,77,132.31Z" transform="translate(0 0)" fill="#fdf9e7"/><path d="M80.22,156.09c15.65,0,28.34-1.76,28.34-3.92s-12.69-3.92-28.34-3.92S51.88,150,51.88,152.17,64.57,156.09,80.22,156.09Z" transform="translate(0 0)" fill="#f05d48"/><path d="M168.23,142c18.63,0,33.73-2.08,33.73-4.66s-15.1-4.7-33.73-4.7-33.73,2.09-33.73,4.66S149.6,142,168.23,142Z" transform="translate(0 0)" fill="#f05d48"/><path d="M125,134.11c20.77,0,37.61-2.33,37.61-5.2s-16.84-5.2-37.61-5.2-37.62,2.33-37.62,5.2S104.18,134.11,125,134.11Z" transform="translate(0 0)" fill="#f05d48"/><path d="M210.64,127.76c0,1.33-7.79,2.41-17.41,2.41s-17.4-1.08-17.4-2.41,7.79-2.4,17.4-2.4S210.64,126.43,210.64,127.76Z" transform="translate(0 0)" fill="#f05d48"/><path d="M60.39,120.48c-9-2-17.36-9.08-21.79-17.29s-6.14-18.1-3.51-27.06,9.93-16.66,19-18.6c11-2.36,22.2,3.77,30.64,11.31,3.45,3.09,6.7,6.48,10.69,8.81s9,3.48,13.26,1.69c5.11-2.16,7.73-7.72,10.22-12.69,6.13-12.26,14.17-23.74,24.76-32.37S167.56,20,181.19,20c8.5,0,17.37,2.5,23.29,8.63,7.5,7.76,8.81,19.88,6.57,30.48s-7.47,20.25-11.63,30.23-7.32,21-5.09,31.57Z" transform="translate(0 0)" fill="#f05d48"/><path d="M117.21,55.16A43.5,43.5,0,0,0,123,41.42c1.3-6.42.19-13.19-4.23-18.19-6.23-7-19-10.39-27.84-6.88-3.62,1.45-6.76,4.5-7.59,8.32-1.41,6.47,3.5,12.07,6.55,17.24a20.23,20.23,0,0,1,3,9.26c.11,3.11-1.83,6-1.36,9.12a7.46,7.46,0,0,0,2.69,4.48,12.54,12.54,0,0,0,11,2.45C111,65.74,114.31,60,117.21,55.16Z" transform="translate(0 0)" fill="#f05d48"/><path d="M73.09,4.6H8.79a.23.23,0,0,0-.23.23V55.6a.23.23,0,0,0,.23.23h64.3a.23.23,0,0,0,.23-.23h0V4.82A.24.24,0,0,0,73.09,4.6ZM53.59,30h-6V24.12h6ZM54,24.12h6V30H54ZM40.7,30.43v5.85h-6V30.43Zm-6-.46V24.12h6V30Zm6.44.46h6v5.85h-6Zm0-.46V24.12h6V30Zm6.44-6.3V17.82h6v5.85Zm-.45,0h-6V17.82h6Zm-6.44,0h-6V17.82h6Zm-6.45,0h-6V17.82h6Zm0,.45V30h-6V24.12ZM27.83,30h-6V24.12h6Zm-6.44,0h-6V24.12h6Zm0,.46v5.85h-6V30.43Zm.45,0h6v5.85h-6Zm6.44,0h6v5.85h-6Zm6,6.3V42.6h-6V36.73Zm.46,0h6V42.6h-6Zm6.44,0h6V42.6h-6Zm6.44,0h6V42.6h-6Zm0-.46V30.43h6v5.85h-6ZM54,30.43h6v5.85H54Zm6.43,0h6v5.85h-6Zm0-.46V24.12h6V30Zm0-6.3V17.82h6v5.85Zm-.44,0H54V17.82h6Zm-6-6.31V11.52h6v5.85H54Zm-.46,0h-6V11.52h6Zm-6.43,0h-6V11.52h6Zm-6.44,0h-6V11.52h6Zm-6.45,0h-6V11.52h6Zm-6.43,0h-6V11.52h6Zm0,.46v5.85h-6V17.82Zm-6.44,5.85h-6V17.82h6Zm-6.45,0H9V17.82h6Zm0,.45V30H9V24.12Zm0,6.31v5.85H9V30.43Zm0,6.3V42.6H9V36.73Zm.46,0h6V42.6h-6Zm6.44,0h6V42.6h-6Zm6,6.3v5.85h-6V43Zm.45,0h6v5.85h-6Zm6.44,0h6v5.85h-6Zm6.44,0h6v5.85h-6Zm6.44,0h6v5.85h-6ZM54,43h6v5.85H54Zm0-.43V36.73h6V42.6Zm6.43-5.85h6V42.6h-6Zm6.45,0h5.93V42.6h-5.9Zm0-.46V30.43h5.93v5.85H66.9Zm0-6.3V24.12h5.93V30Zm0-6.3V17.82h5.93v5.85Zm0-6.31V11.52h5.93v5.85H66.9Zm-.46,0h-6V11.52h6Zm-6-6.3v-6h6v6Zm-.44,0H54v-6h6Zm-6.45,0h-6v-6h6Zm-6.43,0h-6v-6h6Zm-6.44,0h-6v-6h6Zm-6.45,0h-6v-6h6Zm-6.43,0h-6v-6h6Zm-6.44,0h-6v-6h6Zm0,.46v5.85h-6V11.52Zm-6.45,5.84H9V11.52h6ZM9,43h6v5.85H9Zm6.39,0h6v5.85h-6Zm6,6.31v6h-6v-6Zm.45,0h6v6h-6Zm6.44,0h6v6h-6Zm6.44,0h6v6h-6Zm6.44,0h6v6h-6Zm6.44,0h6v6h-6Zm6.44,0h6v6H54Zm6.43,0h6v6h-6Zm0-.46V43h6v5.85ZM66.94,43h5.93v5.85H66.93Zm5.93-32H66.93V5h5.93ZM15,5v6H9V5ZM9,49.34h6v6H9Zm57.91,6v-6h5.93v6Z" transform="translate(0 0)" fill="#e7dfc2"/><path d="M35.08,19.11S36.52,32,43.65,34.26L56.77,30.6S48.94,27,48.14,19.15Z" transform="translate(0 0)" fill="#fedea6"/><path d="M28.29,31s-1.1,14.69-6.53,17.25L11.76,44a17.74,17.74,0,0,0,6.58-13Z" transform="translate(0 0)" fill="#f7f4e3"/><path d="M62,8.84l-8.74,2.55,3,10.46L65,19.29Z" transform="translate(0 0)" fill="#f7f4e3"/><path d="M61.57,9.87,54.22,12l2,6.75,7.3-2.17Z" transform="translate(0 0)" fill="#fdfdfd"/><path d="M37.19,40.6l-6.72-1.9-2.19,8L35,48.6Z" transform="translate(0 0)" fill="#d2cdb8"/><path d="M36.49,41.05l-5.65-1.56-1.42,5.2,5.65,1.55Z" transform="translate(0 0)" fill="#e7dfc2"/><path d="M173.55,67.7h-2.87a.9.9,0,0,0-.9.9.92.92,0,0,0,.9.91h2.87a.92.92,0,0,0,.9-.9A1,1,0,0,0,173.55,67.7Z" transform="translate(0 0)" fill="#ccc6ad"/><path d="M201.69,91.75,175.22,68.1c-1.29-1.16-3.21.76-1.91,1.92l26.47,23.65C201.07,94.83,203,92.92,201.69,91.75Z" transform="translate(0 0)" fill="#ccc6ad"/><path d="M205.66,125.21h-2.55a48.25,48.25,0,0,0-20.51,0H180a6.51,6.51,0,0,0,0,1.65c0,1.52,5.73,2.75,12.79,2.75s12.8-1.23,12.8-2.75A3.18,3.18,0,0,0,205.66,125.21Z" transform="translate(0 0)" fill="#ccc6ad"/><path d="M205.66,125.21c0,1.52-5.73,2.76-12.79,2.76s-12.8-1.24-12.8-2.76,5.73-2.75,12.8-2.75h1.51a12.18,12.18,0,0,1,1.35.05C201.41,122.8,205.66,123.91,205.66,125.21Z" transform="translate(0 0)" fill="#e7dfc2"/><path d="M195.73,122.52l-1.33,2.3h0v-2.37Z" transform="translate(0 0)" fill="#e7dfc2"/><path d="M199.77,92.36l-8,31.77a1.35,1.35,0,1,0,2.61.72q4-15.88,8-31.77a1.35,1.35,0,0,0-2.61-.72Z" transform="translate(0 0)" fill="#e7dfc2"/><path d="M202.28,91.15,175.82,67.5c-1.3-1.15-3.22.76-1.91,1.93l26.46,23.65C201.66,94.23,203.58,92.32,202.28,91.15Z" transform="translate(0 0)" fill="#e7dfc2"/><path d="M148.49,67.7s7.72-12.64,17.71-6.62,2.55,18.82,2.55,18.82Z" transform="translate(0 0)" fill="#e7dfc2"/><path d="M168.74,79.91c-.55.93-4.09-.13-8.44-2.42-.94-.49-1.91-1-2.9-1.64s-1.93-1.2-2.81-1.8c-4-2.78-6.65-5.41-6.1-6.35s3.63,0,7.57,2c1.2.6,2.48,1.3,3.79,2.09s2.52,1.59,3.61,2.37C167,76.69,169.26,79,168.74,79.91Z" transform="translate(0 0)" fill="#c1b894"/><path d="M163.45,74.12a4.53,4.53,0,0,1-8.86-.08,4.92,4.92,0,0,1-.1-.94,4.54,4.54,0,0,1,1.57-3.44c1.2.6,2.48,1.3,3.78,2.09S162.36,73.34,163.45,74.12Z" transform="translate(0 0)" fill="#fac978"/><path d="M174.32,66.27c-2.89,0-2.9,4.53,0,4.53S177.23,66.27,174.32,66.27Z" transform="translate(0 0)" fill="#e7dfc2"/><path d="M174.32,67.6a.93.93,0,1,0,.93.93h0A.93.93,0,0,0,174.32,67.6Z" transform="translate(0 0)" fill="#e7dfc2"/><path d="M200.82,89.66c-3.73,0-3.73,5.82,0,5.82S204.55,89.66,200.82,89.66Z" transform="translate(0 0)" fill="#e7dfc2"/><path d="M200.82,91.39A1.18,1.18,0,1,0,202,92.57h0A1.18,1.18,0,0,0,200.82,91.39Z" transform="translate(0 0)" fill="#e7dfc2"/><path d="M77,119H61s-.43,9.6,4.36,13a2.49,2.49,0,0,0,1.4.43H71.2a2.49,2.49,0,0,0,1.4-.43C77.41,128.6,77,119,77,119Z" transform="translate(0 0)" fill="#536969"/><path d="M77,119c0,.29-2.61.54-6.13.6H67.41c-3.64,0-6.39-.3-6.39-.6s2.33-.5,5.53-.58H71C74.42,118.52,77,118.76,77,119Z" transform="translate(0 0)" fill="#405050"/><path d="M79.27,121.85a4.16,4.16,0,0,0-3.48-1.17c-1.15,0-1.16,1.85,0,1.81.91,0,1.89,0,2.36.91a3.1,3.1,0,0,1-.07,2.74c-1,2-3.33,2.54-5.38,2.26-.48-.06-.9.47-.9.91a.92.92,0,0,0,.9.9,7,7,0,0,0,6.17-2.05A5,5,0,0,0,79.27,121.85Z" transform="translate(0 0)" fill="#536969"/><path d="M73.49,113.6c-1.21,1.22-2.51,2.62-2.55,4.35v.59a2.93,2.93,0,0,1-.09,1.18H67.37a4,4,0,0,1-.86-1.18,5.24,5.24,0,0,1-.5-1.28,4.64,4.64,0,0,1,0-2.34c.51-2,2.31-3.63,2.27-5.69a5.62,5.62,0,0,0-1.72-3.49,19.51,19.51,0,0,1-2.59-3,5.85,5.85,0,0,1,.37-6.39,5.43,5.43,0,0,1,6.07-1.71,5.16,5.16,0,0,1,3.12,5.44c-.24,1.46-1.13,3-.56,4.31a6.52,6.52,0,0,0,1.56,1.83,4.52,4.52,0,0,1,1.42,3C76,111,74.71,112.41,73.49,113.6Z" transform="translate(0 0)" fill="#54c1bb" opacity="0.5" style="isolation:isolate"/><path d="M85,121.14s-10.16-40.51-5.6-45.4,42.44-7.16,46.59-3.37,3.82,48.72,3.82,48.72Z" transform="translate(0 0)" fill="#54c1bb"/><path d="M126,72.37a2.56,2.56,0,0,0-.48-.33c-12.57-.78-35,1.41-38.48,5.11-4,4.35,3.51,36.77,5.25,44h37.52S130.1,76.16,126,72.37Z" transform="translate(0 0)" fill="#8dd1cd"/><path d="M137.42,87.42s7.82,23.62,9.92,24.21S171,116.3,171,116.3l-1.09,5.3s-26.24.82-32.51-3.64S137.42,87.42,137.42,87.42Z" transform="translate(0 0)" fill="#ddbb8f"/><path d="M137.42,87.42s-6.27,26.06,0,30.52c2.41,1.71,7.73,2.64,13.4,3.15l1.52-7.61-.22-.14-.16-.73c-2.33-.47-4.09-.84-4.61-1C145.24,111,137.42,87.42,137.42,87.42Z" transform="translate(0 0)" fill="#405050"/><path d="M154.57,113.13a8.91,8.91,0,0,0-2.08,3.81,13.79,13.79,0,0,0-.41,4.29.41.41,0,0,1-.31.37,1.35,1.35,0,0,1-.49,0,.82.82,0,0,0-.49.05c-.14.09-.22.25-.37.31a.84.84,0,0,1-.6-.1,4.94,4.94,0,0,0-1.33-.16,1.56,1.56,0,0,1-1.2-.49,1.75,1.75,0,0,1-.24-.89,7.75,7.75,0,0,1,.48-4.23c.42-.82,1.13-1.48,1.5-2.32a9.38,9.38,0,0,1,.51-1.23,1.16,1.16,0,0,1,1.15-.57c.38.08.64.42,1,.52a2.82,2.82,0,0,0,1-.06A2,2,0,0,1,154.57,113.13Z" transform="translate(0 0)" fill="#536969"/><path d="M98.45,121.14H138.2c-1.11-7.76-2.15-16.35-2-20.81.1-3.65,1.25-12.85,1.25-12.85-.44-.52-10.26-8.16-18.25-7.93a27.2,27.2,0,0,0-20.45,10s.46,7.14.8,10.85C99.92,104.86,99.18,113.41,98.45,121.14Z" transform="translate(0 0)" fill="#f7f4e3"/><path d="M136.17,101.17v-.9c.09-3.5,1.15-12.12,1.24-12.8-.42-.47-7.48-6-14.47-7.52l.06,6.74s2.6,16,3.75,34.39h11.43C137.15,113.8,136.18,105.8,136.17,101.17Z" transform="translate(0 0)" fill="#405050"/><path d="M123.86,79l6.28,7.51-4.66-1.41L123,86.69l-2.84-7.09Z" transform="translate(0 0)" fill="#536969"/><path d="M98.45,121.09h18.2c-1.86-16.42-2.47-32-2.47-32l-2-8.5a26.94,26.94,0,0,0-13.41,8.93s.46,7.14.8,10.85C99.92,104.8,99.18,113.35,98.45,121.09Z" transform="translate(0 0)" fill="#405050"/><path d="M135.85,62a15.84,15.84,0,0,0,6.2-9.65,9.36,9.36,0,0,0,.14-3.8,4.83,4.83,0,0,0-1.88-3.13,2.73,2.73,0,0,0-3.28.09,3,3,0,0,0-3.11-1.38,7.39,7.39,0,0,0-3.12,1.64,10.1,10.1,0,0,0-11.24,2.31,7.89,7.89,0,0,0-5.74,4.9,14.49,14.49,0,0,0-.45,8.17,9.72,9.72,0,0,0,2.51,5.17,8.37,8.37,0,0,0,6.12,2C127,68.2,131.62,65,135.85,62Z" transform="translate(0 0)" fill="#405050"/><path d="M116.12,58.9c-.92,8.88-3.21,24.59-3.21,24.59,2,3.55,9.53,3.1,9.36,1.91a6.65,6.65,0,0,1,.45-2.89,4.15,4.15,0,0,1,1.31-2,2.36,2.36,0,0,1,1.2-.22h.13c2.5,0,7.33,1,9.43-2.06,2.62-3.77,2.91-14.27,2.63-19.33a9,9,0,0,0-7.62-7.84C123.71,50,117,50,116.12,58.9Z" transform="translate(0 0)" fill="#fdbca0"/><path d="M117,77.85a16.21,16.21,0,0,0,5.74,4.65,4.15,4.15,0,0,1,1.31-2,2.17,2.17,0,0,1,1.2-.22A18.46,18.46,0,0,1,117,77.85Z" transform="translate(0 0)" fill="#f0a38b"/><path d="M131.26,68.83a1.59,1.59,0,0,1,1,.22.79.79,0,0,1,.3.72,1.37,1.37,0,0,1-1.16,1.11c-.18,0-.27-.24-.09-.28a1.2,1.2,0,0,0,1-.81.55.55,0,0,0-.2-.51,1.26,1.26,0,0,0-.78-.16.16.16,0,0,1-.17-.13A.14.14,0,0,1,131.26,68.83Z" transform="translate(0 0)" fill="#3f4553"/><path d="M127.72,65.38a.88.88,0,0,0,.72,1h0a1,1,0,1,0-.72-1.22h0A.81.81,0,0,0,127.72,65.38Z" transform="translate(0 0)" fill="#3f4553"/><path d="M132.94,65.89a.8.8,0,0,0,1.56.36h0a.73.73,0,0,0,0-.36.88.88,0,0,0-.72-1h0a.88.88,0,0,0-.83.93s0,.05,0,.07Z" transform="translate(0 0)" fill="#3f4553"/><path d="M126.38,60.89a3.39,3.39,0,0,1,3.14-.24.3.3,0,0,1,.17.37.29.29,0,0,1-.37.17,2.78,2.78,0,0,0-2.57.16.3.3,0,0,1-.41-.12h0A.3.3,0,0,1,126.38,60.89Z" transform="translate(0 0)" fill="#3f4553"/><path d="M136.32,61.83a3.33,3.33,0,0,0-3-1.09.3.3,0,0,0-.26.31.28.28,0,0,0,.3.26h0a2.79,2.79,0,0,1,2.43.85.3.3,0,0,0,.4.06.28.28,0,0,0,.13-.36Z" transform="translate(0 0)" fill="#3f4553"/><path d="M125.27,67.48c0,.41.56.79,1.32.86s1.42-.21,1.45-.62-.56-.79-1.32-.86S125.3,67.07,125.27,67.48Z" transform="translate(0 0)" fill="#fbad8b"/><path d="M133.73,68.23c0,.41.56.79,1.32.86s1.42-.21,1.45-.62-.56-.79-1.32-.85S133.76,67.83,133.73,68.23Z" transform="translate(0 0)" fill="#fbad8b"/><path d="M132.7,73.72A2.29,2.29,0,0,1,132,75l-.21.17a3.11,3.11,0,0,1-1.69.54,3.31,3.31,0,0,1-2.4-.88,2.68,2.68,0,0,1-.59-.83,2.58,2.58,0,0,1-.24-1.57c.06-.3.2-.62.48-.69a.69.69,0,0,1,.54.11c.09,0,.17.12.25.17a6,6,0,0,0,2.15,1.13,2.93,2.93,0,0,0,1.71-.09c.17-.07.44-.3.64-.18h0C132.81,73.07,132.74,73.51,132.7,73.72Z" transform="translate(0 0)" fill="#4e5567"/><path d="M132.59,72.91a1.2,1.2,0,0,1-.2.39,1.68,1.68,0,0,1-.8.5,3.49,3.49,0,0,1-3-.54,1.78,1.78,0,0,1-.68-.76.94.94,0,0,1,0-.62l.26.17a5.83,5.83,0,0,0,2.15,1.12,2.82,2.82,0,0,0,1.7-.08C132.12,73,132.39,72.79,132.59,72.91Z" transform="translate(0 0)" fill="#fff"/><path d="M132,75l-.21.17a3.11,3.11,0,0,1-1.69.54,3.27,3.27,0,0,1-2.4-.88,2.53,2.53,0,0,1-.59-.82,11.7,11.7,0,0,1,2,0,5.36,5.36,0,0,1,2.35.64A3.36,3.36,0,0,1,132,75Z" transform="translate(0 0)" fill="#3f4553"/><path d="M132.5,57a5.76,5.76,0,0,1-5.75-2.3,1.76,1.76,0,0,1-1.16,1.15,1.69,1.69,0,0,1-1.58-.38,9.27,9.27,0,0,1-1.55,5,6,6,0,0,1-4.33,2.64,3.65,3.65,0,0,1-2.73-.81,4.51,4.51,0,0,1-1.21-2.41,10.51,10.51,0,0,1,.54-6.48,8.7,8.7,0,0,1,4.53-4.58,14.47,14.47,0,0,1,6.19-.77,22.67,22.67,0,0,1,6.39.94,10,10,0,0,1,4.4,2.8c.23.26.63.63.62,1a3.12,3.12,0,0,1-.41,1.14,6.2,6.2,0,0,1-1.5,1.91A5.49,5.49,0,0,1,132.5,57Z" transform="translate(0 0)" fill="#405050"/><path d="M117,63.15a3.59,3.59,0,0,0-3-1.42,2.62,2.62,0,0,0-2.34,2,5.57,5.57,0,0,0,0,2.3,8.25,8.25,0,0,0,.76,2.31c.72,1.35,2.22,2.58,3.84,2,2.15-.71,2.3-3.38,1.76-5.24A5.78,5.78,0,0,0,117,63.15Z" transform="translate(0 0)" fill="#fdbca0"/><path d="M114.18,63.65c-.2-.1-.37.2-.18.3a3.58,3.58,0,0,1,1.87,3.8c0,.22.29.31.33.09A4,4,0,0,0,114.18,63.65Z" transform="translate(0 0)" fill="#f0a38b"/><path d="M115.75,65.44a3.13,3.13,0,0,0-1.84-.16.17.17,0,0,0-.12.21h0a.18.18,0,0,0,.21.12,2.85,2.85,0,0,1,1.66.16.18.18,0,0,0,.22-.11h0A.19.19,0,0,0,115.75,65.44Z" transform="translate(0 0)" fill="#f0a38b"/><path d="M113.64,79l-3.84,1.6-3.41,9.74,5.82-3.15,2,1.91Z" transform="translate(0 0)" fill="#536969"/><path d="M98.73,89.54S83.61,116.3,86.88,120.88s32.47,9.05,32.47,9.05l1.21-6s-21.27-5.83-21.7-7.51l.53-6.7S101.14,91.93,98.73,89.54Z" transform="translate(0 0)" fill="#fdbca0"/><path d="M98.85,116.47l.54-6.7s1.75-17.84-.66-20.24c0,0-15.12,26.76-11.85,31.34,1.06,1.48,4.83,2.95,9.44,4.26l1.43-.49,2.81-7.06C99.55,117.13,98.92,116.75,98.85,116.47Z" transform="translate(0 0)" fill="#405050"/><path d="M104,118.36a13.34,13.34,0,0,0-4.29,8.18,3,3,0,0,1-1.7-.6,2.89,2.89,0,0,1-2.1.21,1,1,0,0,1-.76-.33,1.12,1.12,0,0,1-.15-.54,6.14,6.14,0,0,1,0-2.18,6.8,6.8,0,0,1,.94-1.91l2-3.12a3.36,3.36,0,0,1,.8-1,1.26,1.26,0,0,1,1.18-.26c.23.12.45.25.67.39a2.55,2.55,0,0,0,1.28.21,4.64,4.64,0,0,1,1.29,0A1.11,1.11,0,0,1,104,118.36Z" transform="translate(0 0)" fill="#536969"/><path d="M99.44,94q-.09,8.7-.67,17.38c-.11,1.64-.23,3.29-.37,4.93,0,.44.65.43.69,0q.72-8.67,1-17.36c0-1.65.07-3.32.09-5a.38.38,0,0,0-.4-.35A.38.38,0,0,0,99.44,94Z" transform="translate(0 0)" fill="#a1b8b8"/><path d="M119.35,129.92s11.62,4.76,12.15,3.79-5-2.81-5-2.81,7.72,1.57,7.92.78-7.23-2.77-7.23-2.77,8.88,1.63,9,.7-7.83-2.68-7.83-2.68,7.45.43,7.51-.25c.09-1.21-15.33-2.7-15.33-2.7Z" transform="translate(0 0)" fill="#fdbca0"/><path d="M121.66,124.1s5.93-2.17,6.53-1.7-2.62,2.84-2.62,2.84Z" transform="translate(0 0)" fill="#fdbca0"/><path d="M89.5,130.52H58.81a.44.44,0,0,0-.45.43h0a.49.49,0,0,0,0,.17l5.33,19.48a.83.83,0,0,0,.75.6H95.16a.44.44,0,0,0,.46-.42h0a.54.54,0,0,0,0-.18l-5.34-19.5A.8.8,0,0,0,89.5,130.52Z" transform="translate(0 0)" fill="#e7dfc2"/><path d="M93.28,151l-4.53-16.56a.67.67,0,0,0-.63-.5h-26a.36.36,0,0,0-.38.34v0a.33.33,0,0,0,0,.14L66.3,151a.86.86,0,0,0,.06.23h27Z" transform="translate(0 0)" fill="#f7f4e3"/><path d="M61,132a.72.72,0,1,1-.72-.72A.72.72,0,0,1,61,132Z" transform="translate(0 0)" fill="#405050"/><path d="M60.66,132a.34.34,0,1,1-.34-.34h0A.34.34,0,0,1,60.66,132Z" transform="translate(0 0)" fill="#576e6e"/><path d="M87.54,134.15h-26a.36.36,0,0,0-.39.33h0a.49.49,0,0,0,0,.17l4.53,16.56.14.5h27l-.14-.5-4.53-16.56A.68.68,0,0,0,87.54,134.15Z" transform="translate(0 0)" fill="#ebb254"/><path d="M92.71,151.21,89.79,140.6h-27l2.92,10.66.14.5h27Z" transform="translate(0 0)" fill="#fedea6"/><path d="M87.59,154.27h-27l5.25-2.56h27Z" transform="translate(0 0)" fill="#ebb254"/><path d="M136.72,89.84l55.1-9.24a1.47,1.47,0,0,1,1.69,1.21v0a1.13,1.13,0,0,1,0,.26l-.23,35.15a1.5,1.5,0,0,1-1.18,1.46l-53.75,11.18a2.34,2.34,0,0,1-2.83-1.71,2.44,2.44,0,0,1-.06-.76V91.32A1.49,1.49,0,0,1,136.72,89.84Z" transform="translate(0 0)" fill="#fedea6"/><path d="M139.22,89.74,191.82,81a1.47,1.47,0,0,1,1.69,1.21v.26l-.22,34.89a1.49,1.49,0,0,1-1.18,1.44l-52.36,10.8a1.47,1.47,0,0,1-1.74-1.14h0a1.61,1.61,0,0,1,0-.31V91.21A1.5,1.5,0,0,1,139.22,89.74Z" transform="translate(0 0)" fill="#fac978"/><path d="M163,108l-3,17.41L176.54,122Z" transform="translate(0 0)" fill="#ebb254"/><path d="M162.3,139.84l-7.3-2.48a1.25,1.25,0,0,1-.75-1.6,1.27,1.27,0,0,1,.85-.78l12.33-3.1a1.2,1.2,0,0,1,.65,0l7.16,2.16a1.24,1.24,0,0,1,0,2.38L163,139.86A1.19,1.19,0,0,1,162.3,139.84Z" transform="translate(0 0)" fill="#ebb254"/><path d="M173.18,106.37a1.23,1.23,0,0,0-1.42-1h0L164,106.83a1.22,1.22,0,0,0-1,1.2l-.31,32,16.68-4.69Zm-2,24.83c-2.33.24-4.5-2.3-4.85-5.68s1.27-6.32,3.61-6.56,4.51,2.31,4.85,5.69-1.26,6.31-3.6,6.55Z" transform="translate(0 0)" fill="#fedea6"/><path d="M187.5,32.21a14.4,14.4,0,1,1,14.32-14.48v.09A14.38,14.38,0,0,1,187.5,32.21Zm0-24.71a10.32,10.32,0,1,0,10.26,10.38v-.06A10.3,10.3,0,0,0,187.5,7.5Z" transform="translate(0 0)" fill="#f5e2d5"/><path d="M182.14,21.45l-.64-1.2,5.42-2.89,2.3-8.62,1.3.35-2.44,9.19Z" transform="translate(0 0)" fill="#f5e2d5"/></g></svg>