<svg id="Layer_1" data-name="Layer 1" xmlns="http://www.w3.org/2000/svg" viewBox="0 0 189.94 184.83"><title>icon_4</title><path d="M81.6,106.7a7.71,7.71,0,0,1,1,2.5v58.6c0,3.3-1.7,5.5-4.4,5.9a5.19,5.19,0,0,1-5.9-4.3c0-.5-.2-.8,0-1.3V110.4a5.65,5.65,0,0,1,2.2-4.8A4.83,4.83,0,0,1,81.6,106.7Z" transform="translate(-17.5 -20.09)" fill="#22a7f0"/><path d="M96.4,154.2a5,5,0,0,1,.2,1.7v39.7c-.3,2.2-2.4,3.5-5.2,3.5s-4.9-1.6-4.9-3.6V155.2c0-2.5,2.2-4,5.4-3.8A4.53,4.53,0,0,1,96.4,154.2Z" transform="translate(-17.5 -20.09)" fill="#22a7f0"/><path d="M110.9,129.3a3.33,3.33,0,0,1,.2,1.7v39.7c-.3,2.2-2.4,3.5-5.2,3.5s-4.9-1.6-4.9-3.6V130.5c0-2.5,2.2-4,5.4-3.8A4.6,4.6,0,0,1,110.9,129.3Z" transform="translate(-17.5 -20.09)" fill="#22a7f0"/><path d="M125.2,145.8a6.52,6.52,0,0,1,.2,2.4v52.1a4.91,4.91,0,0,1-5.2,4.6h0a4.54,4.54,0,0,1-4.9-4.6v-53a4.78,4.78,0,0,1,4.4-5.1h1.1A4.78,4.78,0,0,1,125.2,145.8Z" transform="translate(-17.5 -20.09)" fill="#22a7f0"/><path d="M139.4,131.5a5,5,0,0,1,.2,1.7v39.7c-.3,2.2-2.4,3.5-5.2,3.5s-4.9-1.6-4.9-3.6V132.7c0-2.5,2.2-4,5.4-3.8A4.51,4.51,0,0,1,139.4,131.5Z" transform="translate(-17.5 -20.09)" fill="#22a7f0"/><path d="M154.5,132h0v20.4c0,1.6-1,2.9-3.2,3.5a6.83,6.83,0,0,1-5.4-.6A3.65,3.65,0,0,1,144,152V111.8c0-2.4,1.7-4,4.4-4.1,3.3-.3,5.9,1.3,5.9,4l.2,20.3Z" transform="translate(-17.5 -20.09)" fill="#22a7f0"/><path d="M207.2,110.5a44.87,44.87,0,0,1-19.3,33.7,38.68,38.68,0,0,1-22,7.1h-.2a5,5,0,0,1-5.2-5.1v-5.4h1.6c22.8,1.6,37.1-19.5,34.8-39.3-1.4-12-7.1-21.4-17.6-27.7a1.1,1.1,0,0,0-.6-.3c-1.9-.5-2.4-1.6-2.4-3.6-.6-16.2-11.7-31.7-26.6-37.2-16.9-6.2-35.5.5-45.8,16.5a46.39,46.39,0,0,0-6.5,17.4c0,.5-.2.8-.3,1.6-8.4-4.6-16.6-5.1-24.4.8C65.3,74.5,62.4,82.5,63,91.5a42,42,0,0,0-7.9-2.2,22.13,22.13,0,0,0-20.2,7.1c-11.9,12.2-8.6,34.4,6.3,42.1a23.93,23.93,0,0,0,11.1,2.4H61a5.23,5.23,0,0,1,5.2,5.2,4.84,4.84,0,0,1-1.6,3.6,5,5,0,0,1-3.6,1.6H53a35.17,35.17,0,0,1-35.2-31,7.58,7.58,0,0,1-.3-1.6v-8.4c.3-1.7.8-3.5,1.1-5.2A34.88,34.88,0,0,1,52.7,78.3c1.4,0,1.6-.8,1.9-1.7A33.63,33.63,0,0,1,74.1,56.2a27.13,27.13,0,0,1,14.1-1.9,1.86,1.86,0,0,0,2.4-1.4C96.7,37.6,107.3,27,123,22.1c22.3-6.8,46.6,4.1,57.7,25.7a57.68,57.68,0,0,1,5.4,16.6,3.8,3.8,0,0,0,1.4,2.2C202.5,77.5,208.8,92.2,207.2,110.5Z" transform="translate(-17.5 -20.09)" fill="#22a7f0"/></svg>