<svg id="Layer_1" data-name="Layer 1" xmlns="http://www.w3.org/2000/svg" viewBox="0 0 228 228"><rect x="1.5" y="1.5" width="225" height="225" rx="85" fill="#120919" stroke="#666" stroke-miterlimit="10" stroke-width="3"/><path d="M114.34,87.12a4.77,4.77,0,0,0,4.71-4.72,4.72,4.72,0,0,0-9.43,0,4.67,4.67,0,0,0,4.62,4.72Zm0-6.27a1.56,1.56,0,1,1-.25,0Z" fill="#bdc3c7"/><rect x="112.78" y="65.1" width="3.16" height="3.16" fill="#bdc3c7"/><rect x="112.78" y="71.37" width="3.16" height="3.16" fill="#bdc3c7"/><rect x="65.44" y="88.67" width="3.16" height="3.16" fill="#bdc3c7"/><rect x="65.44" y="95.14" width="3.16" height="3.16" fill="#bdc3c7"/><path d="M106.5,137.57a4.72,4.72,0,1,0,4.73-4.71h0A4.77,4.77,0,0,0,106.5,137.57Zm4.67-1.55a1.55,1.55,0,1,1-1.56,1.55A1.52,1.52,0,0,1,111.1,136h.07Z" fill="#bdc3c7"/><rect x="109.62" y="120.27" width="3.16" height="3.16" fill="#bdc3c7"/><rect x="109.62" y="126.59" width="3.16" height="3.16" fill="#bdc3c7"/><path d="M158.5,96.7a4.72,4.72,0,0,0,.43-9.43h-.43a4.72,4.72,0,0,0,0,9.43Zm0-6.27A1.56,1.56,0,1,1,157,92v0a1.53,1.53,0,0,1,1.51-1.55Z" fill="#bdc3c7"/><rect x="156.87" y="74.53" width="3.16" height="3.16" fill="#bdc3c7"/><rect x="156.87" y="80.85" width="3.16" height="3.16" fill="#bdc3c7"/><path d="M143.81,140.31l2.33-2.69a33.38,33.38,0,0,0,2.54-3.37l.78-.2a40.14,40.14,0,0,1,9-1.09V129.8a39.13,39.13,0,0,0-7.41.67,36.65,36.65,0,0,0,3.16-8.08,12,12,0,0,1,7.41-2.54v-3.16a15.09,15.09,0,0,0-6.63,1.56,35.41,35.41,0,0,0,.31-4.72V113l.47-.88a19.45,19.45,0,0,1,6.73-7.58L160.74,102a24.12,24.12,0,0,0-6,5.75,37.27,37.27,0,0,0-1.34-5.59l-2.9-9-3.06,1,2.95,8.8a20,20,0,0,1,.78,2.85,30.67,30.67,0,0,0-5.08-3.52l-1.24-.57-1.35,2.82,1.24.57a19.93,19.93,0,0,1,7.31,6.27c0,.67.1,1.34.1,2.12a37.35,37.35,0,0,1-.47,5.39,19.91,19.91,0,0,0-8.34-7.72L141.89,114a17.71,17.71,0,0,1,8.24,8.91l.31.88a35.4,35.4,0,0,1-2.43,5.75,16.53,16.53,0,0,0-4.3-6.94l-2.23,2.23a14.61,14.61,0,0,1,3.83,6.73l.47,1.55c-.68.89-1.35,1.77-2,2.54l-3.16,3.53a25.52,25.52,0,0,0-6.17-1.25c-.31-1.24-.77-2.54-1.08-3.83l.46-3.06a26.08,26.08,0,0,1,3.84-9.79l-2.61-1.73a31,31,0,0,0-3.53,7.3c-.88-4.4-1.65-8.9-2.22-13.36a13.3,13.3,0,0,1,6.52-3.94l.78-.2-.78-3.06-.77.21a15.32,15.32,0,0,0-6.17,3c-.2-2.12-.31-4.3-.46-6.26l.31-.68a19.42,19.42,0,0,1,6.76-7.57l-1.76-2.54a19.84,19.84,0,0,0-5.39,5.18h0V95.5a14.31,14.31,0,0,1,4.3-10.36l-2.23-2.23a17.32,17.32,0,0,0-4.71,8.7,23.67,23.67,0,0,0-5.85-5.75L118.1,88.4A19.78,19.78,0,0,1,124.83,96l.47.88v3.16a15.9,15.9,0,0,0-5.89-3.56l-1,3.06a12.61,12.61,0,0,1,6.63,5.08l.31.57c.1,2.22.31,4.4.57,6.63a33.39,33.39,0,0,0-8-5.75L116.5,109a27.2,27.2,0,0,1,10,8.34v.1c.31,2.23.67,4.51,1.09,6.73a23.26,23.26,0,0,0-4.3-2.54L121,120.5l-1.47,2.88,2.33,1.08a31.08,31.08,0,0,1,6.73,4.82c.68,2.85,1.35,5.6,2.23,8.44a23.39,23.39,0,0,0-12.67,4.78l-8.7,6.74a21.65,21.65,0,0,0-9.59-7.05V125.6l8-8a5,5,0,0,0-3.52-8.5,5.26,5.26,0,0,0-3.53,1.45l-3.15,3.16a.67.67,0,0,1-.95-.13.61.61,0,0,1-.14-.34v-5.69a1.22,1.22,0,0,1,.57-1.09l12-10.88A4.89,4.89,0,0,0,110.67,92a4.81,4.81,0,0,0-4.81-4.81h-.19a4.52,4.52,0,0,0-3.36,1.45L97.59,93.3a.67.67,0,0,1-.94-.09.74.74,0,0,1-.15-.34V69.81a4.72,4.72,0,0,0-9.43,0V83.28a.68.68,0,0,1-.75.61.73.73,0,0,1-.34-.14l-6.4-6.25a5,5,0,0,0-7.25,6.89L82.58,95.82A4.86,4.86,0,0,1,83.83,99v19a.68.68,0,0,1-.75.6.79.79,0,0,1-.34-.14L73.26,109A5,5,0,0,0,66,115.84L80.1,131.35a2.29,2.29,0,0,1,.46,1v11.24a21.57,21.57,0,0,0-7.4,6.94L65.5,162.9H163L152.1,147.62A22,22,0,0,0,143.81,140.31ZM83.1,129.44,69,113.9a1.8,1.8,0,0,1-.47-1.25,1.73,1.73,0,0,1,3-1.19L81,120.94A3.87,3.87,0,0,0,83.71,122a3.79,3.79,0,0,0,3.84-3.74V107.84h3.16v-3.16H87.56V101.5h6.26V98.36H87.5A7.7,7.7,0,0,0,85.59,94L75.38,82.5a1.79,1.79,0,0,1-.46-1.25,1.72,1.72,0,0,1,1.68-1.76,1.75,1.75,0,0,1,1.32.57l6.32,6.27a3.87,3.87,0,0,0,2.69,1.09,3.8,3.8,0,0,0,3.84-3.76V70.18a1.56,1.56,0,1,1,3.11-.25,1,1,0,0,1,0,.25v23A3.79,3.79,0,0,0,97.63,97h.08a4.19,4.19,0,0,0,2.69-1.09l4.72-4.71a1.84,1.84,0,0,1,1.34-.47,1.71,1.71,0,0,1,1.66,1.76h0a1.74,1.74,0,0,1-.57,1.24l-12,10.62A4.7,4.7,0,0,0,94,107.89v5.85a3.79,3.79,0,0,0,3.82,3.76h0a4.17,4.17,0,0,0,2.7-1.09l3.16-3.16a1.89,1.89,0,0,1,1.24-.57,1.73,1.73,0,0,1,1.19,3l-7.92,7.92a3.09,3.09,0,0,0-.88,2.23v2.44H91v3.23h6.26v3.16H94.13v3.16h3.16v3.68a25,25,0,0,0-4.71-.57,23.19,23.19,0,0,0-7.82,1.45V132.5A7.33,7.33,0,0,0,83.1,129.44Zm-11.6,30.3,4.81-7.3a25.9,25.9,0,0,1,3.06-3.63,20.41,20.41,0,0,0,10.57,2.95h2.23V148.6H89.94a16.61,16.61,0,0,1-7.72-1.91,19.71,19.71,0,0,1,10-2.85,19.32,19.32,0,0,1,15.07,7.4,27.73,27.73,0,0,0-11.91-2.69v3.16a24,24,0,0,1,13.57,4.2l2.54,1.76,1.34,2Zm45.37,0-5.18-7.82,7.52-5.86a17.57,17.57,0,0,0,11.44,4.2h1.25V147.2h-1.25a14.09,14.09,0,0,1-8.8-2.95,21.35,21.35,0,0,1,11.24-3.37,20.8,20.8,0,0,1,16.52,8.34l-1.76-.46a56.24,56.24,0,0,0-12.79-1.56v3.16a49.57,49.57,0,0,1,12,1.45l5.39,1.35,4.72,6.63h-40.3Z" fill="#bdc3c7"/><rect x="79.63" y="153.47" width="3.16" height="3.16" fill="#bdc3c7"/><rect x="97.04" y="155.08" width="3.16" height="3.16" fill="#bdc3c7"/><rect x="117.55" y="150.31" width="3.16" height="3.16" fill="#bdc3c7"/><rect x="141.12" y="153.47" width="3.16" height="3.16" fill="#bdc3c7"/><rect x="126.92" y="153.47" width="3.16" height="3.16" fill="#bdc3c7"/></svg>