<svg id="Layer_1" data-name="Layer 1" xmlns="http://www.w3.org/2000/svg" viewBox="0 0 189.96 124.3"><title>icon_9</title><path d="M164.7,69.2a3,3,0,1,0,1.3,4A3,3,0,0,0,164.7,69.2Zm31.4-9.8a3,3,0,1,0,1.3,4A2.81,2.81,0,0,0,196.1,59.4Zm0,0a3,3,0,1,0,1.3,4A2.81,2.81,0,0,0,196.1,59.4Zm-31.4,9.8a3,3,0,1,0,1.3,4A3,3,0,0,0,164.7,69.2Zm41.5-10.9-2.4-8L151,66.6,80.5,88.4h-.1l-11,3.4,2.7,2.3a24,24,0,0,0,4.8,3.3c14.7,7.8,41.5,5.8,79.8-6.1l1.8-.6-3.4-11a38.32,38.32,0,0,0,17,1.1c.6,0,13.8-3,23.8-9.1l.3-.1c.1-.1,2-1.3,5,1.1l.7.6.7-.1a5.77,5.77,0,0,0,3.7-2.6C208,68.1,208,63.8,206.2,58.3ZM148.4,71.6l2.1,6.7,1.1,3.6c-34.5,10-47.1,11.3-63.4,8.4ZM77.6,93.5l3.1-1a84.14,84.14,0,0,0,10,2,6.15,6.15,0,0,0,1.4.1c15.8,2.1,30.2-.3,61-9.1l.9,2.7C116.7,99.7,90.7,101.4,77.6,93.5Zm126-27.3h0v.7h0c0,.3-.1.4-.1.7,0,.1-.1.3-.1.4h0c0,.1-.1.1-.1.3s-.3.4-.4.6c-4-2.7-7.4-1.6-8.8-.4C185,74,171.7,77,171.7,77A37.82,37.82,0,0,1,154,75.2l-1.6-4.8,49.1-15.1,1.1,4.3a21,21,0,0,1,1.1,5.5A3.75,3.75,0,0,0,203.6,66.2Zm-7.5-6.8a3,3,0,1,0,1.3,4A2.81,2.81,0,0,0,196.1,59.4Zm-31.4,9.8a3,3,0,1,0,1.3,4A3,3,0,0,0,164.7,69.2Zm-34,87.5c-1.4-5.4-4.7-12-9.4-19.7a248.33,248.33,0,0,0-24.5-33.2,2.19,2.19,0,1,0-3.2,3,21.79,21.79,0,0,0,1.7,2.1l-4.7,4.7a2.12,2.12,0,0,0,0,3.1,1.73,1.73,0,0,0,1.6.7,2.57,2.57,0,0,0,1.6-.7l4.4-4.4a269.1,269.1,0,0,1,19.5,27.1c.4.9,1,1.6,1.4,2.4l-5.4,5.4a2.12,2.12,0,0,0,0,3.1,2.36,2.36,0,0,0,1.6.7,2.57,2.57,0,0,0,1.6-.7l4.5-4.5c6.1,11.6,7.8,19.5,4.4,22.9a6.86,6.86,0,0,1-5,1.7c-6.3-.1-16.4-4.5-29.5-13.1l4.7-4.7a2.19,2.19,0,0,0-3.1-3.1l-5.4,5.3c-16-11-31.2-24.5-35.6-29l-.4-.4,6.4-6.4a2.12,2.12,0,0,0,0-3.1,2.2,2.2,0,0,0-3.1,0L48.7,122c-2.8-3.8-4.3-7.7-4.3-11.6,0-5.3,2.7-10.4,7.7-15.4,7.7-7.7,15.5-9.7,23.4-5.7a2.24,2.24,0,1,0,2-4,22,22,0,0,0-10.7-2.4c-.6-5.6-1.7-10.8-3.6-14.6-2.4-5-5.7-7.8-9.2-7.8-4.4,0-8.2,4.3-10.5,11.3C37,68.2,31.4,67.9,28.3,71s-2.8,8.7.6,15.3c-7.3,2.3-11.3,6.1-11.3,10.5,0,3.7,2.8,6.8,7.8,9.2a46.8,46.8,0,0,0,14.5,3.4v.7c0,6.4,3,12.6,9,18.5,5,5.1,20.9,19.1,37.9,30.8,9.2,6.4,17.2,10.8,23.8,13.1a30.4,30.4,0,0,0,10.2,2.1c3.6,0,6.3-1,8.2-3C132.1,168.4,132.7,163.3,130.7,156.7ZM22,96.8c0-2.1,3.3-5.1,10.7-7a2.33,2.33,0,0,0,1.6-1.3,2,2,0,0,0-.1-2c-4-6.5-4.1-10.9-2.7-12.4,1.6-1.6,6-1.3,12.4,2.7a2,2,0,0,0,2,.1,2.33,2.33,0,0,0,1.3-1.6c1.8-7.4,4.8-10.7,7-10.7,3.3,0,7.4,7.5,8.2,18.5-4.5,1.1-9.1,3.8-13.4,8.2s-7.1,8.8-8.2,13.4C29.6,104.1,22,100.2,22,96.8Zm78.2,28.3a2.12,2.12,0,0,0-3.1,0l-5.8,5.8a2.12,2.12,0,0,0,0,3.1,2.36,2.36,0,0,0,1.6.7,2.57,2.57,0,0,0,1.6-.7l5.8-5.8A2.2,2.2,0,0,0,100.2,125.1ZM78.7,111.9a2.12,2.12,0,0,0-3.1,0l-6,6a2.12,2.12,0,0,0,0,3.1,2.36,2.36,0,0,0,1.6.7,2.57,2.57,0,0,0,1.6-.7l6-6A2.42,2.42,0,0,0,78.7,111.9Z" transform="translate(-17.6 -50.3)" fill="#642f7f"/></svg>