<svg id="Layer_1" data-name="Layer 1" xmlns="http://www.w3.org/2000/svg" viewBox="0 0 190.07 189.94"><title>icon_4</title><path d="M181.4,56.4a3.86,3.86,0,0,0-3.8,3.8,3.8,3.8,0,1,0,7.6,0A3.86,3.86,0,0,0,181.4,56.4Z" transform="translate(-17.37 -17.52)" fill="#642f7f"/><path d="M112.4,145.6a3.8,3.8,0,1,0,3.8,3.8A3.93,3.93,0,0,0,112.4,145.6Z" transform="translate(-17.37 -17.52)" fill="#642f7f"/><path d="M164.3,108.3a3.86,3.86,0,0,0-3.8,3.8A33.57,33.57,0,0,1,127,145.6a3.8,3.8,0,0,0,0,7.6,40.89,40.89,0,0,0,40.9-40.9A3.58,3.58,0,0,0,164.3,108.3Z" transform="translate(-17.37 -17.52)" fill="#642f7f"/><path d="M207,73.4l-9.4-18.6a23.29,23.29,0,0,0-21.1-13,23.93,23.93,0,0,0-18.8,9.4L147.3,63a21.75,21.75,0,0,0-11.7-8.3l-18.8-5.3c-14.3-4.2-28.4-15.2-38.5-30.3a4.2,4.2,0,0,0-4.2-1.5,3.88,3.88,0,0,0-2.7,3.6V41.1a87.88,87.88,0,0,0,4.2,27.3c-2.9.7-5.8,1.3-8.7,1.7a111,111,0,0,1-17.3,1.2H21a3.58,3.58,0,0,0-3.2,1.8,3.71,3.71,0,0,0,.2,3.8l22.2,35.6A54.8,54.8,0,0,0,84,138.1L48.2,178.6A11.19,11.19,0,0,0,52,196.7l19.5,9.8a.2.2,0,0,1,.2.2,11.34,11.34,0,0,0,14.5-6.2l13.7-32.4h27.3c31.4,0,58-25.6,58-55.7V90.3a11.14,11.14,0,0,1,11.1-11.1h7.4a4,4,0,0,0,3.2-1.7A4.55,4.55,0,0,0,207,73.4ZM78.9,32c10.1,12.1,23,20.7,36,24.3l18.8,5.3a14.39,14.39,0,0,1,8.5,7l-9.8,11.1L115.1,69.4a38.71,38.71,0,0,0-25.5-4.9,28.44,28.44,0,0,0-6.7,1.7,80.48,80.48,0,0,1-4-25.2ZM196.3,71.3a18.69,18.69,0,0,0-18.6,18.6v22.2c0,26.2-23.1,48.1-50.4,48.1H97.5a27.6,27.6,0,0,0-24.8,15.2l-.7,1.5a3.67,3.67,0,0,0,6.6,3.2,20.73,20.73,0,0,1,13-11.9l-12.1,29h0a3.53,3.53,0,0,1-4.7,2c-21-10.3-19.6-9.7-20-9.7a3.64,3.64,0,0,1-1.3-6c.2-.2,7.9-8.9,40.3-45.6a54.16,54.16,0,0,0,36-15.8,3.75,3.75,0,1,0-5.3-5.3c-16.6,16.6-36.2,13.4-38.4,13.7a46.85,46.85,0,0,1-39.9-22l-2.5-3.8,2.7,1.1c17,6.5,38.2,4.3,52.8-5.4a3.66,3.66,0,0,0-4.2-6c-12.8,8.7-31.4,10.5-46.1,4.7l-12-4.6L27.1,79h22a125.68,125.68,0,0,0,18.4-1.5c12.5-2,17.7-4.7,22.6-5.6a29.47,29.47,0,0,1,20.3,4l29.1,17.5a3.72,3.72,0,0,0,3.8-6.4L138,83.8c26.2-29.3,24.6-27.8,24.8-28a15.78,15.78,0,0,1,13-6.4,16,16,0,0,1,14.5,9l6.5,13.4h-.7v-.3h.2Z" transform="translate(-17.37 -17.52)" fill="#642f7f"/></svg>