<svg id="Layer_1" data-name="Layer 1" xmlns="http://www.w3.org/2000/svg" viewBox="0 0 190.01 121.3"><title>icon_8</title><path d="M99.2,161H26a1.9,1.9,0,1,1,0-3.8H99.2a1.9,1.9,0,0,1,1.9,1.9A1.78,1.78,0,0,1,99.2,161Z" transform="translate(-17.4 -51.9)" fill="#642f7f"/><path d="M127.5,67.4a2,2,0,0,0-1.9,1.9v63.2a1.84,1.84,0,0,0,1.9,1.9,2,2,0,0,0,1.9-1.9V69.3A1.9,1.9,0,0,0,127.5,67.4Zm0,0a2,2,0,0,0-1.9,1.9v63.2a1.84,1.84,0,0,0,1.9,1.9,2,2,0,0,0,1.9-1.9V69.3A1.9,1.9,0,0,0,127.5,67.4Zm0,0a2,2,0,0,0-1.9,1.9v63.2a1.84,1.84,0,0,0,1.9,1.9,2,2,0,0,0,1.9-1.9V69.3A1.9,1.9,0,0,0,127.5,67.4Zm0,0a2,2,0,0,0-1.9,1.9v63.2a1.84,1.84,0,0,0,1.9,1.9,2,2,0,0,0,1.9-1.9V69.3A1.9,1.9,0,0,0,127.5,67.4Zm0,0a2,2,0,0,0-1.9,1.9v63.2a1.84,1.84,0,0,0,1.9,1.9,2,2,0,0,0,1.9-1.9V69.3A1.9,1.9,0,0,0,127.5,67.4Zm0,0a2,2,0,0,0-1.9,1.9v63.2a1.84,1.84,0,0,0,1.9,1.9,2,2,0,0,0,1.9-1.9V69.3A1.9,1.9,0,0,0,127.5,67.4Zm79.9,99.4V59.3a2,2,0,0,0-1.9-1.9H200V53.8a2,2,0,0,0-1.9-1.9H133.8a22.93,22.93,0,0,0-15.1,5.7H19.3a1.84,1.84,0,0,0-1.9,1.9V166.9a1.84,1.84,0,0,0,1.9,1.9h84.2c1.4,2.8,5.4,4.4,8.9,4.4,4.3,0,7.9-1.7,8.9-4.4h84.2a1.86,1.86,0,0,0,1.9-2Zm-73.6-111h62.4V91.7l-38.4,32.6a2,2,0,0,0,1.3,3.5,12.29,12.29,0,0,1,3.8.8,13.21,13.21,0,0,1,6.6,5.1,10.78,10.78,0,0,1,2.1,5.9,8.4,8.4,0,0,1-.3,1.9H136.7a28.43,28.43,0,0,0-22.2,11.1V75.2A19.21,19.21,0,0,1,133.8,55.8Zm62.4,89.4v12.9H115.5a23.67,23.67,0,0,1,21.1-12.9Zm-23.4-13.8a16,16,0,0,0-9.2-6.8l28.5-24.3-17.6,34.5C174,133.8,173.5,132.7,172.8,131.4Zm2.8,9.9,20.6-40.6v40.6Zm27.9,23.6H119.8a2,2,0,0,0-1.9,1.9c0,.9-2.2,2.4-5.5,2.4a7.3,7.3,0,0,1-4.7-1.4v-5.4a1.9,1.9,0,1,0-3.8,0v2.5H21.4V61.4h82.9v89.4a1.9,1.9,0,1,0,3.8,0V61.4h7.3a23,23,0,0,0-4.6,13.7v85a1.92,1.92,0,0,0,1.6,1.9h85.9a1.84,1.84,0,0,0,1.9-1.9V61.4h3.3V164.9Zm-69.7-13.5a1.84,1.84,0,0,0,1.9,1.9h55.9a1.84,1.84,0,0,0,1.9-1.9,2,2,0,0,0-1.9-1.9H135.7A1.9,1.9,0,0,0,133.8,151.4Zm-6.3-17a2,2,0,0,0,1.9-1.9V69.3a1.9,1.9,0,0,0-3.8,0v63.2A1.84,1.84,0,0,0,127.5,134.4Zm0-67a2,2,0,0,0-1.9,1.9v63.2a1.84,1.84,0,0,0,1.9,1.9,2,2,0,0,0,1.9-1.9V69.3A1.9,1.9,0,0,0,127.5,67.4Zm0,0a2,2,0,0,0-1.9,1.9v63.2a1.84,1.84,0,0,0,1.9,1.9,2,2,0,0,0,1.9-1.9V69.3A1.9,1.9,0,0,0,127.5,67.4Zm0,0a2,2,0,0,0-1.9,1.9v63.2a1.84,1.84,0,0,0,1.9,1.9,2,2,0,0,0,1.9-1.9V69.3A1.9,1.9,0,0,0,127.5,67.4Zm0,0a2,2,0,0,0-1.9,1.9v63.2a1.84,1.84,0,0,0,1.9,1.9,2,2,0,0,0,1.9-1.9V69.3A1.9,1.9,0,0,0,127.5,67.4Zm0,0a2,2,0,0,0-1.9,1.9v63.2a1.84,1.84,0,0,0,1.9,1.9,2,2,0,0,0,1.9-1.9V69.3A1.9,1.9,0,0,0,127.5,67.4Zm0,0a2,2,0,0,0-1.9,1.9v63.2a1.84,1.84,0,0,0,1.9,1.9,2,2,0,0,0,1.9-1.9V69.3A1.9,1.9,0,0,0,127.5,67.4Z" transform="translate(-17.4 -51.9)" fill="#642f7f"/></svg>