<svg id="Layer_1" data-name="Layer 1" xmlns="http://www.w3.org/2000/svg" viewBox="0 0 228 228"><rect x="1.5" y="1.5" width="225" height="225" rx="85" fill="#120919" stroke="#666" stroke-miterlimit="10" stroke-width="3"/><path d="M106.7,140.77H66.25a1,1,0,0,1-1-1v-.05a1.05,1.05,0,0,1,1-1.05H106.7a1,1,0,0,1,1,1v.05a1,1,0,0,1-1,1.05Z" fill="#bdc3c7"/><path d="M122.34,89.05a1.08,1.08,0,0,0-1,1V125a1,1,0,0,0,1,1,1.08,1.08,0,0,0,1-1V90.1a1,1,0,0,0-1-1Zm0,0a1.08,1.08,0,0,0-1,1V125a1,1,0,0,0,1,1,1.08,1.08,0,0,0,1-1V90.1a1,1,0,0,0-1-1Zm0,0a1.08,1.08,0,0,0-1,1V125a1,1,0,0,0,1,1,1.08,1.08,0,0,0,1-1V90.1a1,1,0,0,0-1-1Zm0,0a1.08,1.08,0,0,0-1,1V125a1,1,0,0,0,1,1,1.08,1.08,0,0,0,1-1V90.1a1,1,0,0,0-1-1Zm0,0a1.08,1.08,0,0,0-1,1V125a1,1,0,0,0,1,1,1.08,1.08,0,0,0,1-1V90.1a1,1,0,0,0-1-1Zm0,0a1.08,1.08,0,0,0-1,1V125a1,1,0,0,0,1,1,1.08,1.08,0,0,0,1-1V90.1a1,1,0,0,0-1-1ZM166.5,144V84.57a1.09,1.09,0,0,0-1-1.07h-3v-2a1.11,1.11,0,0,0-1-1H125.82a12.66,12.66,0,0,0-8.32,3.13H62.55a1,1,0,0,0-1,1V144a1,1,0,0,0,1,1.05h46.58c.77,1.55,3,2.44,4.92,2.44,2.37,0,4.36-.94,4.92-2.44H165.5a1,1,0,0,0,1.05-.94.43.43,0,0,0,0-.16ZM125.82,82.64h34.49V102.5l-21.22,18a1.09,1.09,0,0,0,.71,1.94,6.56,6.56,0,0,1,2.1.44,7.29,7.29,0,0,1,3.65,2.82,5.92,5.92,0,0,1,1.16,3.26,4.85,4.85,0,0,1-.16,1H127.43a15.71,15.71,0,0,0-12.27,6.13V93.36a10.61,10.61,0,0,1,10.5-10.72ZM160.31,132v7.13h-44.6A13.09,13.09,0,0,1,127.37,132Zm-12.93-7.62a8.89,8.89,0,0,0-5.09-3.76L158,107.23l-9.73,19.07C148,125.74,147.76,125.14,147.38,124.42Zm1.54,5.47,11.39-22.39v22.44Zm15.42,13H118.09a1.08,1.08,0,0,0-1,1c0,.5-1.22,1.33-3,1.33a4,4,0,0,1-2.6-.78v-3a1.05,1.05,0,1,0-2.1,0v1.38H63.71V85.73H109.5v49.41a1,1,0,0,0,2.1,0V85.73h4a12.75,12.75,0,0,0-2.55,7.57v47a1.07,1.07,0,0,0,.89,1H161.5a1,1,0,0,0,1.05-.95V85.73h1.82v57.2Zm-38.52-7.39a1,1,0,0,0,1,1.05h31a1,1,0,0,0,1.05-1v-.1a1.09,1.09,0,0,0-1.05-1.05H126.87a1,1,0,0,0-1.05,1Zm-3.48-9.4a1.08,1.08,0,0,0,1-1v-35a1.05,1.05,0,0,0-2.1,0V125a1,1,0,0,0,.94,1,.43.43,0,0,0,.16,0Zm0-37a1.08,1.08,0,0,0-1,1V125a1,1,0,0,0,1,1,1.08,1.08,0,0,0,1-1V90.1a1,1,0,0,0-1-1h0Zm0,0a1.08,1.08,0,0,0-1,1V125a1,1,0,0,0,1,1,1.08,1.08,0,0,0,1-1V90.1a1,1,0,0,0-1-1h0Zm0,0a1.08,1.08,0,0,0-1,1V125a1,1,0,0,0,1,1,1.08,1.08,0,0,0,1-1V90.1a1,1,0,0,0-1-1h0Zm0,0a1.08,1.08,0,0,0-1,1V125a1,1,0,0,0,1,1,1.08,1.08,0,0,0,1-1V90.1a1,1,0,0,0-1-1h0Zm0,0a1.08,1.08,0,0,0-1,1V125a1,1,0,0,0,1,1,1.08,1.08,0,0,0,1-1V90.1a1,1,0,0,0-1-1h0Zm0,0a1.08,1.08,0,0,0-1,1V125a1,1,0,0,0,1,1,1.08,1.08,0,0,0,1-1V90.1a1,1,0,0,0-1-1h0Z" fill="#bdc3c7"/></svg>