<svg id="Layer_1" data-name="Layer 1" xmlns="http://www.w3.org/2000/svg" viewBox="0 0 189.92 139"><title>icon_3</title><path d="M204.4,109.7h-16c6.7-15.3,6-27.4,3.4-35.8C187.5,59,172.8,43,151.2,43a52.33,52.33,0,0,0-17.5,3.2,82.51,82.51,0,0,0-20.3,10.2c-3-2.2-9.8-6.4-20.3-10.2A50.76,50.76,0,0,0,75.6,43C54,43,39.3,59,35,73.9c-2.4,8.8-3.4,22.2,5.1,39H20.3a2.73,2.73,0,0,0-2.8,2.8,2.86,2.86,0,0,0,2.8,2.8H43.2c.9,1.7,2.1,3.2,3.2,4.9,18.8,27.1,59.7,56.7,67.1,58.4v.2a.62.62,0,0,0,.4-.2h.6v-.2c6.4-3,45.5-28.4,66-58.4a54.52,54.52,0,0,0,5.1-8.1h19a2.73,2.73,0,0,0,2.8-2.8C207.6,110.6,205.9,109.7,204.4,109.7Zm-29,10.5c-19.2,28-54.4,50.7-61.9,55.5-7.7-4.9-42.9-27.6-62.1-55.5-.4-.6-.7-1.1-1.1-1.7H76.8a2.71,2.71,0,0,0,2.6-1.7L91.5,92.9l19,48.6a3.14,3.14,0,0,0,2.6,1.9h.2a2.75,2.75,0,0,0,2.6-2.2l16.6-56.9,8.8,28.9a3.27,3.27,0,0,0,2.2,2.1,2.86,2.86,0,0,0,2.8-1.3l6.9-10.4,6,10.2a3.06,3.06,0,0,0,2.4,1.5h16.2A11.23,11.23,0,0,1,175.4,120.2Zm6.6-10.5H164.3L157,97.1a3.06,3.06,0,0,0-2.4-1.5,2.33,2.33,0,0,0-2.4,1.3l-6.2,9L136,73.5a3.33,3.33,0,0,0-2.8-2.2,3,3,0,0,0-2.8,2.2l-16.8,58L95.2,84.9A2.87,2.87,0,0,0,92.8,83a2.54,2.54,0,0,0-2.6,1.7l-14.4,28H46.7c-7.1-13.2-9.2-25.8-6-37.3,3.7-12.8,16.2-26.5,35-26.5a50.87,50.87,0,0,1,15.6,2.8c13.2,4.9,20.3,10.6,20.3,10.6a2.74,2.74,0,0,0,3.6,0s6.9-5.6,20.3-10.6a41.57,41.57,0,0,1,15.6-2.8c18.6,0,31.3,13.8,35,26.5C189.3,86,187.7,97.4,182,109.7Z" transform="translate(-17.5 -43)" fill="#642f7f"/></svg>