<svg id="Layer_1" data-name="Layer 1" xmlns="http://www.w3.org/2000/svg" viewBox="0 0 228 228"><rect x="1.5" y="1.5" width="225" height="225" rx="85" fill="#120919" stroke="#666" stroke-miterlimit="10" stroke-width="3"/><path d="M114,65.8A48.2,48.2,0,1,0,162.2,114h0A48.2,48.2,0,0,0,114,65.8Zm4,8.27A40.22,40.22,0,0,1,154,110H120.82c0-.1-.1-.1-.1-.15s-.1-.1-.16-.15a7.51,7.51,0,0,0-2.38-2.38l-.1-.11a.61.61,0,0,0-.26-.15v-33Zm2.79,44h16.84a24.11,24.11,0,1,1-27.76-27.81l.1,17a8,8,0,1,0,10.86,10.86ZM114,154.24a40.15,40.15,0,0,1-4-80.11v8.1a32.12,32.12,0,1,0,35.92,35.87H154a40.37,40.37,0,0,1-40,36.12Z" fill="#bdc3c7"/></svg>