<svg id="Layer_1" data-name="Layer 1" xmlns="http://www.w3.org/2000/svg" viewBox="0 0 228 228"><rect x="1.5" y="1.5" width="225" height="225" rx="85" fill="#120919" stroke="#666" stroke-miterlimit="10" stroke-width="3"/><path d="M161.92,112.5h-8.34c3.5-8,3.17-14.25,1.78-18.66-2.24-7.77-9.9-16.11-21.16-16.11a27.36,27.36,0,0,0-9.13,1.67,43.29,43.29,0,0,0-10.57,5.36,43.4,43.4,0,0,0-10.58-5.32,26.57,26.57,0,0,0-9.12-1.67c-11.28,0-18.92,8.34-21.17,16.11-1.26,4.62-1.78,11.62,2.65,20.33H66a1.41,1.41,0,0,0-1.48,1.34v.12A1.5,1.5,0,0,0,66,117.13H77.9c.47.89,1.09,1.67,1.66,2.55,9.81,14.13,31.13,29.56,35,30.44v.11a.31.31,0,0,0,.2-.11h.31V150c3.34-1.59,23.72-14.81,34.41-30.45a28,28,0,0,0,2.66-4.22h9.91A1.41,1.41,0,0,0,163.5,114h0v-.08C163.6,113,162.71,112.5,161.92,112.5ZM146.81,118c-10,14.59-28.37,26.42-32.27,28.93-4-2.56-22.37-14.39-32.38-28.93-.2-.32-.36-.58-.57-.89h13.8a1.42,1.42,0,0,0,1.35-.89l6.34-12.46,9.9,25.35a1.63,1.63,0,0,0,1.35,1h.11a1.46,1.46,0,0,0,1.36-1.15l8.7-29.63,4.58,15a1.7,1.7,0,0,0,1.15,1.09,1.48,1.48,0,0,0,1.46-.67l3.6-5.43,3.12,5.32a1.6,1.6,0,0,0,1.25.8h8.45a5.87,5.87,0,0,1-1.25,2.55Zm3.43-5.48H141l-3.8-6.57a1.57,1.57,0,0,0-1.25-.79,1.21,1.21,0,0,0-1.25.67l-3.23,4.7-5.21-16.88a1.76,1.76,0,0,0-1.46-1.13,1.59,1.59,0,0,0-1.46,1.15l-8.77,30.23L105,99.61a1.49,1.49,0,0,0-1.25-1,1.31,1.31,0,0,0-1.35.89l-7.51,14.6H79.72c-3.7-6.88-4.8-13.46-3.17-19.44A19.16,19.16,0,0,1,94.77,80.85a26.5,26.5,0,0,1,8.13,1.45,41.73,41.73,0,0,1,10.6,5.55,1.4,1.4,0,0,0,1.86,0A41.5,41.5,0,0,1,126,82.3a21.7,21.7,0,0,1,8.13-1.45c9.7,0,16.31,7.19,18.22,13.81,1.77,5.53.91,11.47-2,17.88Z" fill="#bdc3c7"/></svg>