<svg id="Layer_1" data-name="Layer 1" xmlns="http://www.w3.org/2000/svg" viewBox="0 0 228 228"><rect x="1.5" y="1.5" width="225" height="225" rx="85" fill="#120919" stroke="#666" stroke-miterlimit="10" stroke-width="3"/><path d="M142.07,90.71a1.6,1.6,0,1,0,.7,2.15h0A1.6,1.6,0,0,0,142.07,90.71ZM159,85.43a1.6,1.6,0,1,0,.7,2.15h0a1.52,1.52,0,0,0-.54-2.07.8.8,0,0,0-.16-.08Zm0,0a1.6,1.6,0,1,0,.7,2.15h0a1.52,1.52,0,0,0-.54-2.07.8.8,0,0,0-.16-.08Zm-16.91,5.28a1.6,1.6,0,1,0,.7,2.15h0A1.6,1.6,0,0,0,142.07,90.71Zm22.35-5.87-1.29-4.34-28.44,8.78L96.69,101h0l-5.93,1.83,1.46,1.24a12.3,12.3,0,0,0,2.58,1.77c7.92,4.21,22.35,3.13,43-3.28l1-.32L137,96.33a20.67,20.67,0,0,0,9.15.59A44.64,44.64,0,0,0,158.94,92h.16c.06,0,1.08-.7,2.7.59l.37.33.38-.06a3.07,3.07,0,0,0,2-1.4c.84-1.37.84-3.68-.13-6.64ZM133.29,92l1.13,3.61.59,1.94c-18.58,5.38-25.36,6.08-34.14,4.52ZM95.16,103.79l1.67-.53a44.67,44.67,0,0,0,5.39,1.07,3.17,3.17,0,0,0,.75.06c8.51,1.13,16.26-.17,32.85-4.9l.49,1.45C116.22,107.13,102.22,108.05,95.16,103.79ZM163,89.09h0v.41h0c0,.16-.05.21-.05.38s-.06.16-.06.21h0v.16c0,.16-.16.22-.22.33-2.15-1.46-4-.87-4.74-.22-4.9,3-12.06,4.58-12.06,4.58a20.31,20.31,0,0,1-9.53-1l-.86-2.59,26.44-8.13.56,2.28a11.4,11.4,0,0,1,.59,3A2.32,2.32,0,0,0,163,89.09Zm-4-3.66a1.6,1.6,0,1,0,.7,2.15h0a1.5,1.5,0,0,0-.56-2.06l-.18-.09Zm-16.91,5.28a1.6,1.6,0,1,0,.7,2.15h0a1.59,1.59,0,0,0-.73-2.14h0ZM123.8,137.83a42.75,42.75,0,0,0-5.06-10.61,134.37,134.37,0,0,0-13.24-17.88,1.18,1.18,0,0,0-1.72,1.62,11,11,0,0,0,.91,1.13l-2.53,2.53a1.15,1.15,0,0,0,0,1.63l0,0a1,1,0,0,0,.86.38,1.38,1.38,0,0,0,.86-.38l2.37-2.37a146,146,0,0,1,10.51,14.58c.21.49.54.87.75,1.3l-2.91,2.91a1.14,1.14,0,0,0,0,1.61l0,.05a1.28,1.28,0,0,0,.86.38,1.36,1.36,0,0,0,.87-.38l2.42-2.42c3.28,6.25,4.2,10.5,2.37,12.33a3.65,3.65,0,0,1-2.69.92c-3.4,0-8.84-2.42-15.89-7.06l2.53-2.53a1.18,1.18,0,0,0-1.67-1.67l-2.9,2.87a157.85,157.85,0,0,1-19.17-15.62l-.22-.22,3.44-3.47a1.14,1.14,0,0,0,.07-1.6.46.46,0,0,0-.07-.07,1.18,1.18,0,0,0-1.67,0h0l-3.28,3.28a10.51,10.51,0,0,1-2.32-6.24c0-2.86,1.45-5.61,4.15-8.3,4.14-4.15,8.34-5.22,12.6-3.07a1.2,1.2,0,1,0,1.08-2.15h0a11.79,11.79,0,0,0-5.77-1.29,23.81,23.81,0,0,0-1.94-7.87c-1.29-2.69-3.07-4.2-5-4.2C80,86,78,88.31,76.74,92.08c-3.5-1.94-6.51-2.1-8.18-.43s-1.51,4.68.32,8.24c-3.93,1.24-6.08,3.28-6.08,5.65,0,2,1.5,3.66,4.2,5a25.35,25.35,0,0,0,7.81,1.83v.37q0,5.17,4.84,10a171,171,0,0,0,20.41,16.59,57,57,0,0,0,12.82,7,16.17,16.17,0,0,0,5.5,1.13,5.78,5.78,0,0,0,4.41-1.61c1.71-1.77,2-4.51,1-8.07ZM65.22,105.57c0-1.13,1.77-2.75,5.76-3.77a1.24,1.24,0,0,0,.86-.7,1.09,1.09,0,0,0,0-1.08c-2.16-3.5-2.21-5.87-1.46-6.67s3.23-.7,6.68,1.45a1,1,0,0,0,1.08,0,1.27,1.27,0,0,0,.7-.86c1-4,2.58-5.76,3.77-5.76,1.77,0,4,4,4.41,10a15.34,15.34,0,0,0-7.21,4.42,15.85,15.85,0,0,0-4.42,7.22C69.31,109.5,65.22,107.4,65.22,105.57Zm42.11,15.24a1.15,1.15,0,0,0-1.63,0l0,0-3.16,3.13a1.14,1.14,0,0,0-.07,1.6.46.46,0,0,0,.07.07,1.27,1.27,0,0,0,.86.37,1.4,1.4,0,0,0,.86-.37l3.13-3.13a1.17,1.17,0,0,0,0-1.67ZM95.75,113.7a1.15,1.15,0,0,0-1.63,0l0,0-3.23,3.24a1.14,1.14,0,0,0,0,1.61l0,0a1.28,1.28,0,0,0,.86.38,1.33,1.33,0,0,0,.86-.38l3.24-3.23A1.33,1.33,0,0,0,95.75,113.7Z" fill="#bdc3c7"/></svg>