<svg id="Layer_1" data-name="Layer 1" xmlns="http://www.w3.org/2000/svg" viewBox="0 0 228 228"><rect x="1.5" y="1.5" width="225" height="225" rx="85" fill="#120919" stroke="#666" stroke-miterlimit="10" stroke-width="3"/><path d="M79.82,93.07a5.56,5.56,0,0,0-5.42-5c-.53.05-4.76.8-3.91,7.51s7.13,9.68,7.13,9.68C75.5,98.75,80.39,97.71,79.82,93.07Z" fill="#bdc3c7"/><path d="M90.64,83.12c-.36-6.74-4.69-6.74-5.2-6.74a5.49,5.49,0,0,0-4.53,5.89c.2,4.69,5.2,4.89,4.27,11.77C85.18,94,90.8,89.9,90.64,83.12Z" fill="#bdc3c7"/><path d="M159.91,111.3a42.74,42.74,0,0,0-7.28,1.31s-2.71-6.1-5.16-7.82-2.38.52-2.38,3.65-3.38,14.26-13.59,14.26-40.86-12.2-48.79-12.34C64.5,110,65.18,124.7,65.18,124.7v9.51H78.3s4.64-.21,5.55,2.81a5.72,5.72,0,0,0,1.58,1.09c2.86,1.41,7.92,2.29,14.37,2.55a.58.58,0,0,0-.36-.36,3.55,3.55,0,0,1-.73-3.38l.16-.53c.36-.67,2.37-.79,8.59-.79a21.21,21.21,0,0,1,6.19.73h.22l5.15,3.24a95.52,95.52,0,0,0,24.12-6.41c3-5.26,11.77-12.76,11.77-12.76,2.86-2.87,8.59-5.42,8.59-7S162.15,111.3,159.91,111.3Zm-77,19.33c-1.82,0-3.28-1-3.28-2.38s1.46-2.38,3.28-2.38,3.29,1,3.29,2.38-1.54,2.38-3.32,2.38Z" fill="#bdc3c7"/><path d="M116.58,149.58a55.53,55.53,0,0,1-5.25-2c-2.51.21-5,.37-7.3.37-13.65,0-24.33-3.59-29.89-6.72a9.54,9.54,0,0,1-4.27-4.11H67.93c-2.37,0-4.31-.16-3,1.09C79.34,152.24,99.92,153.75,116.58,149.58Z" fill="#bdc3c7"/><path d="M141.38,135.68a99.54,99.54,0,0,1-20.16,5.26l3.9,2.38a89.65,89.65,0,0,0,14.17-5.26A18.94,18.94,0,0,0,141.38,135.68Z" fill="#bdc3c7"/><path d="M134,142.24c-2.34.93-4.68,1.66-7,2.37l1.31.8A32.65,32.65,0,0,0,134,142.24Z" fill="#bdc3c7"/><path d="M81.92,137.24H72.05c.31.52,1.2,1.58,3.8,3,6.2,3.28,17.87,6.61,32.14,5.94a33.93,33.93,0,0,1-6.41-3.91c-7.55-.15-13.75-1.2-17-2.71A5,5,0,0,1,81.92,137.24Z" fill="#bdc3c7"/><path d="M116.16,140,113,138a21.34,21.34,0,0,0-5.63-.57,47.28,47.28,0,0,0-7.13.57,2.75,2.75,0,0,0,.57,1.25,11.19,11.19,0,0,0,1.46,1.46,14.08,14.08,0,0,0,2.38,1.66,53.76,53.76,0,0,0,7,3.6c1.1.42,2.29.93,3.43,1.3,1.59.57,3.24,1.09,4.69,1.58a28.41,28.41,0,0,0,6.47,1.2c.51,0,.79-.06.93-.06,2.19-.57,2.38-1.19,2.38-1.25a2.15,2.15,0,0,0-.37-.57l-2.88-1.78-1.68-1.06-2-1.3-4.27-2.66Z" fill="#bdc3c7"/></svg>