<svg id="Layer_1" data-name="Layer 1" xmlns="http://www.w3.org/2000/svg" viewBox="0 0 187.36 161.1"><title>icon_6</title><path d="M205.5,58.9c-8.8-14.3-26.8-15.8-34.6-15.8a15.6,15.6,0,0,0-15-11.2h-5.5a25.73,25.73,0,0,0-25.8,25.8V72.3L19.9,177.2a4.39,4.39,0,0,0-.9,4.3,4.18,4.18,0,0,0,3.6,2.4H36.7a26.28,26.28,0,0,0,26-22.2H87.5L81,171.2a4.09,4.09,0,0,0,0,4.5l11,15.6a4,4,0,0,0,3.3,1.7h10.1a4,4,0,0,0,0-8H97.3L89,173.4l8.3-11.7h15.1l-6.5,9.5a4.09,4.09,0,0,0,0,4.5l11,15.6a4,4,0,0,0,3.3,1.7h10.1a4,4,0,0,0,0-8h-8.1l-8.3-11.7,8.3-11.9a53.88,53.88,0,0,0,49.9-53.6V64.9h30.6a3.61,3.61,0,0,0,3.4-2.1A6.71,6.71,0,0,0,205.5,58.9ZM36.5,176H31.9l14.4-14.4h8.1A18.26,18.26,0,0,1,36.5,176ZM163.8,61v46.9h0a46,46,0,0,1-45.9,45.9H54.3l12.6-12.6h33.4a32.22,32.22,0,0,0,32.3-32.3,4,4,0,0,0-8,0,24.37,24.37,0,0,1-24.4,24.4H74.7l56.7-56.7h0l.2-.2a3980657295328.95,3980657295328.95,0,0,0,.4-.4,3980657295328.95,3980657295328.95,0,0,1,.4-.4.2.2,0,0,1,.2-.2V57.9A17.88,17.88,0,0,1,150.5,40H156a7.71,7.71,0,0,1,7.7,7.4v.3l.1,13.3Zm7.7-4V50.8c5.2,0,14.6,1,21.7,6.2Z" transform="translate(-18.78 -31.9)" fill="#642f7f"/><path d="M152.1,47.5a4,4,0,0,0-4,4v5.2a4,4,0,1,0,8,0V51.5A4.08,4.08,0,0,0,152.1,47.5Z" transform="translate(-18.78 -31.9)" fill="#642f7f"/><path d="M128.7,89.5a4,4,0,0,0-4,4v2.4a4,4,0,0,0,8,0V93.5A4.14,4.14,0,0,0,128.7,89.5Z" transform="translate(-18.78 -31.9)" fill="#642f7f"/></svg>