<svg id="Layer_1" data-name="Layer 1" xmlns="http://www.w3.org/2000/svg" viewBox="0 0 190.1 188.8"><title>icon_7</title><path d="M113.1,60.6a9.1,9.1,0,1,0-9.1-9.1A9,9,0,0,0,113.1,60.6Zm0-12.1a3,3,0,1,1-3,3A2.95,2.95,0,0,1,113.1,48.5Z" transform="translate(-17.4 -18.1)" fill="#642f7f"/><rect x="92.7" width="6.1" height="6.1" fill="#642f7f"/><rect x="92.7" y="12.1" width="6.1" height="6.1" fill="#642f7f"/><rect x="1.3" y="45.5" width="6.1" height="6.1" fill="#642f7f"/><rect x="1.3" y="58" width="6.1" height="6.1" fill="#642f7f"/><path d="M98,158a9.1,9.1,0,1,0,9.1-9.1A9.2,9.2,0,0,0,98,158Zm9-3a3,3,0,1,1-3,3A2.95,2.95,0,0,1,107,155Z" transform="translate(-17.4 -18.1)" fill="#642f7f"/><rect x="86.6" y="106.5" width="6.1" height="6.1" fill="#642f7f"/><rect x="86.6" y="118.7" width="6.1" height="6.1" fill="#642f7f"/><path d="M198.4,79.1a9.1,9.1,0,1,0-9.1-9.1A9.2,9.2,0,0,0,198.4,79.1Zm0-12.1a3,3,0,1,1-3,3A2.95,2.95,0,0,1,198.4,67Z" transform="translate(-17.4 -18.1)" fill="#642f7f"/><rect x="177.8" y="18.2" width="6.1" height="6.1" fill="#642f7f"/><rect x="177.8" y="30.4" width="6.1" height="6.1" fill="#642f7f"/><path d="M170,163.3l4.5-5.2a65,65,0,0,0,4.9-6.5l1.5-.4a78.13,78.13,0,0,1,17.4-2.1V143a75.33,75.33,0,0,0-14.3,1.3,72.2,72.2,0,0,0,6.1-15.6,23.14,23.14,0,0,1,14.3-4.9v-6.1a29.37,29.37,0,0,0-12.8,3,69.53,69.53,0,0,0,.6-9.1v-1.1l.9-1.7a37.63,37.63,0,0,1,13-14.7l-3.4-4.9a46.67,46.67,0,0,0-11.5,11.1,74,74,0,0,0-2.6-10.8L183,72.2l-5.9,1.9,5.7,17a36.32,36.32,0,0,1,1.5,5.5,58.69,58.69,0,0,0-9.8-6.8l-2.4-1.1-2.8,5.5,2.4,1.1a38.33,38.33,0,0,1,14.1,12.1c0,1.3.2,2.6.2,4.1a73,73,0,0,1-.9,10.4A38.68,38.68,0,0,0,169,107l-2.8,5.5a34.15,34.15,0,0,1,15.9,17.2l.6,1.7a68.49,68.49,0,0,1-4.7,11.1c-1.7-4.9-4.3-9.8-8.3-13.4l-4.3,4.3a28.34,28.34,0,0,1,7.4,13l.9,3c-1.3,1.7-2.6,3.4-3.9,4.9l-6.1,6.8a48.36,48.36,0,0,0-11.9-2.4c-.6-2.4-1.5-4.9-2.1-7.4l.9-5.9a50.47,50.47,0,0,1,7.4-18.9l-4.9-3.4a59.24,59.24,0,0,0-6.8,14.1c-1.7-8.5-3.2-17.2-4.3-25.8a25.59,25.59,0,0,1,12.6-7.6l1.5-.4-1.5-5.9-1.5.4a29.6,29.6,0,0,0-11.9,5.9c-.4-4.1-.6-8.3-.9-12.1l.6-1.3a37.63,37.63,0,0,1,13-14.7l-3.4-4.9a38.09,38.09,0,0,0-10.4,10h0v-4a27.66,27.66,0,0,1,8.3-20l-4.3-4.3A33.42,33.42,0,0,0,135,69.3a45.84,45.84,0,0,0-11.3-11.1l-3.4,4.9a38.43,38.43,0,0,1,13,14.7l.9,1.7v6.1a30.55,30.55,0,0,0-11.3-6.8L121,84.7a24.48,24.48,0,0,1,12.8,9.8l.6,1.1c.2,4.3.6,8.5,1.1,12.8a64.93,64.93,0,0,0-15.4-11.1l-2.8,5.5a52.8,52.8,0,0,1,19.3,16.1v.2c.6,4.3,1.3,8.7,2.1,13a44.08,44.08,0,0,0-8.3-4.9l-4.5-2.1-2.8,5.5,4.5,2.1a59.35,59.35,0,0,1,13,9.3c1.3,5.5,2.6,10.8,4.3,16.3a45,45,0,0,0-24.5,9.3l-16.8,13A41.67,41.67,0,0,0,85.1,167V134.9l15.4-15.4a9.62,9.62,0,0,0-6.8-16.4,10.15,10.15,0,0,0-6.8,2.8L80.8,112a1.3,1.3,0,0,1-2.1-.9v-11A2.36,2.36,0,0,1,79.8,98l23.1-21a9.43,9.43,0,0,0,3-7,9.29,9.29,0,0,0-9.6-9.3,8.79,8.79,0,0,0-6.5,2.8l-9.1,9.1a1.3,1.3,0,0,1-2.1-.9V27.2a9.1,9.1,0,1,0-18.2,0v26a1.3,1.3,0,0,1-2.1.9L46,42a9.59,9.59,0,0,0-6.8-2.8A9.71,9.71,0,0,0,32,55.3L51.8,77.4a9.37,9.37,0,0,1,2.4,6.1v36.6a1.3,1.3,0,0,1-2.1.9L33.8,102.7A9.59,9.59,0,0,0,27,99.9,9.71,9.71,0,0,0,19.8,116L47,146a4.13,4.13,0,0,1,.9,1.9v21.7A41.63,41.63,0,0,0,33.6,183L18.9,206.9H207.1L186,177.4A42.54,42.54,0,0,0,170,163.3Zm-117.2-21-27.2-30a3.41,3.41,0,0,1-.9-2.4,3.33,3.33,0,0,1,5.8-2.3l18.3,18.3A7.42,7.42,0,0,0,54,128a7.32,7.32,0,0,0,7.4-7.4v-20h6.1V94.5H61.4V88.4H73.5V82.3H61.3a14.91,14.91,0,0,0-3.7-8.5L37.9,51.7a3.41,3.41,0,0,1-.9-2.4A3.33,3.33,0,0,1,42.8,47L55,59.1a7.42,7.42,0,0,0,5.2,2.1,7.32,7.32,0,0,0,7.4-7.4V27.9a3,3,0,0,1,6,0V72.4A7.32,7.32,0,0,0,81,79.8a8.09,8.09,0,0,0,5.2-2.1l9.1-9.1a3.57,3.57,0,0,1,2.6-.9,3.29,3.29,0,0,1,3.2,3.2,3.36,3.36,0,0,1-1.1,2.4L76.9,93.8a9,9,0,0,0-3,6.8v11.3a7.32,7.32,0,0,0,7.4,7.4,8.09,8.09,0,0,0,5.2-2.1l6.1-6.1A3.59,3.59,0,0,1,95,110a3.33,3.33,0,0,1,2.3,5.8L82,131.1a6,6,0,0,0-1.7,4.3v4.7H68.1v6.1H80.2v6.1H74.1v6.1h6.1v7.2a47.13,47.13,0,0,0-9.1-1.1A44.93,44.93,0,0,0,56,167.3v-19C55.2,146.1,54.6,144,52.8,142.3ZM30.4,200.8l9.3-14.1a48.64,48.64,0,0,1,5.9-7A39.47,39.47,0,0,0,66,185.4h4.3v-6.1H66a31.92,31.92,0,0,1-14.9-3.7,38,38,0,0,1,19.3-5.5,37.31,37.31,0,0,1,29.1,14.3,53.39,53.39,0,0,0-23-5.2v6.1a46.32,46.32,0,0,1,26.2,8.1l4.9,3.4,2.6,3.9-79.8.1Zm87.6,0-10-15.1,14.5-11.3a34,34,0,0,0,22.1,8.1H147v-5.9h-2.4a27.23,27.23,0,0,1-17-5.7,41.11,41.11,0,0,1,21.7-6.5,40.16,40.16,0,0,1,31.9,16.1l-3.4-.9a109.07,109.07,0,0,0-24.7-3v6.1a95.65,95.65,0,0,1,23.2,2.8l10.4,2.6,9.1,12.8H118Z" transform="translate(-17.4 -18.1)" fill="#642f7f"/><rect x="28.7" y="170.6" width="6.1" height="6.1" fill="#642f7f"/><rect x="62.3" y="173.7" width="6.1" height="6.1" fill="#642f7f"/><rect x="101.9" y="164.5" width="6.1" height="6.1" fill="#642f7f"/><rect x="147.4" y="170.6" width="6.1" height="6.1" fill="#642f7f"/><rect x="120" y="170.6" width="6.1" height="6.1" fill="#642f7f"/></svg>