<svg id="Layer_1" data-name="Layer 1" xmlns="http://www.w3.org/2000/svg" viewBox="0 0 190.11 144.42"><title>icon_2</title><path d="M46.8,72.3c-1.1-9-9.6-9.7-10.4-9.6-1,.1-9.2,1.5-7.5,14.4S42.6,95.7,42.6,95.7C38.6,83.2,47.9,81.2,46.8,72.3Z" transform="translate(-17.39 -40.28)" fill="#642f7f"/><path d="M67.5,53.2c-.6-13-8.9-13-9.9-12.9s-9,2.1-8.7,11.3c.4,9,10,9.4,8.2,22.6C57.1,74.1,67.9,66.2,67.5,53.2Z" transform="translate(-17.39 -40.28)" fill="#642f7f"/><path d="M200.6,107.3c-4.4,0-14,2.5-14,2.5s-5.2-11.7-9.9-15-4.6,1-4.6,7-6.5,27.4-26.2,27.4c-19.9,0-78.3-23.4-93.5-23.7-35-.7-33.7,27.5-33.7,27.5v18.2H43.9s8.9-.4,10.7,5.4a11.06,11.06,0,0,0,3,2.1c5.5,2.7,15.2,4.4,27.6,4.9a1.21,1.21,0,0,0-.7-.7c-1.7-2.3-2.1-4.4-1.4-6.5l.3-1c.7-1.3,4.6-1.5,16.5-1.5a40.43,40.43,0,0,1,11.9,1.4l.4.1,9.9,6.2a182.94,182.94,0,0,0,46.3-12.3c5.8-10.1,22.6-24.5,22.6-24.5,5.5-5.5,16.5-10.4,16.5-13.4C207.3,108.1,204.9,107.3,200.6,107.3ZM52.7,144.4c-3.5,0-6.3-2-6.3-4.5s2.8-4.5,6.3-4.5,6.3,2,6.3,4.5S56.1,144.4,52.7,144.4Z" transform="translate(-17.39 -40.28)" fill="#642f7f"/><path d="M117.4,180.8c-3.4-1.1-6.8-2.4-10.1-3.8-4.8.4-9.6.7-14,.7-26.2,0-46.7-6.9-57.4-12.9-3.5-2-6.6-4.4-8.2-7.9H24c-4.6,0-8.3-.3-5.8,2.1C45.9,185.9,85.4,188.8,117.4,180.8Z" transform="translate(-17.39 -40.28)" fill="#642f7f"/><path d="M165,154.1c-12.2,4.8-25.7,8-38.7,10.1l7.5,4.6A171.09,171.09,0,0,0,161,158.7,33.76,33.76,0,0,0,165,154.1Z" transform="translate(-17.39 -40.28)" fill="#642f7f"/><path d="M150.9,166.7c-4.5,1.8-9,3.2-13.4,4.6l2.5,1.5A62.16,62.16,0,0,0,150.9,166.7Z" transform="translate(-17.39 -40.28)" fill="#642f7f"/><path d="M50.9,157.1h-19c.6,1,2.3,3.1,7.3,5.8,11.9,6.3,34.3,12.7,61.7,11.4a65.4,65.4,0,0,1-12.3-7.5c-14.5-.3-26.4-2.3-32.6-5.2C53.3,160.3,51.6,158.9,50.9,157.1Z" transform="translate(-17.39 -40.28)" fill="#642f7f"/><path d="M116.6,162.3l-6.1-3.8a41.23,41.23,0,0,0-10.8-1.1A89.59,89.59,0,0,0,86,158.5a5,5,0,0,0,1.1,2.4,18.48,18.48,0,0,0,2.8,2.8,25.8,25.8,0,0,0,4.5,3.2,104.51,104.51,0,0,0,13.4,6.9c2.1.8,4.4,1.8,6.6,2.5,3.1,1.1,6.2,2.1,9,3,5.1,1.4,9.6,2.3,12.4,2.3,1,0,1.5-.1,1.8-.1,4.2-1.1,4.5-2.3,4.5-2.4a2.27,2.27,0,0,0-.7-1.1l-5.4-3.4-3.2-2-3.9-2.5-8.2-5.1Z" transform="translate(-17.39 -40.28)" fill="#642f7f"/></svg>