<svg id="Layer_1" data-name="Layer 1" xmlns="http://www.w3.org/2000/svg" viewBox="0 0 161.62 189.86"><title>icon_5</title><path d="M183.4,18.4l-15.7-.8c-15.4-.8-29,7.2-37.6,13.8-4.4,3.1-8,7.5-11.6,12.8-6.1,9.1-21.1,19.1-27,22.8L89,63.1a5.87,5.87,0,0,0-8.1-1.7l-22,14.3a5.72,5.72,0,0,0-2.5,3.6,6.34,6.34,0,0,0,.8,4.5l1.5,2.3-7.8,5.1a5,5,0,0,0-2.2,3.1,5.53,5.53,0,0,0,.6,3.8l7.3,11.3a5,5,0,0,0,3.1,2.2,1.64,1.64,0,0,0,1,.2,5.6,5.6,0,0,0,2.7-.8l6.6-4.4A92.37,92.37,0,0,1,76.1,125H66.3v34.8c0,29-18.7,39.2-22.5,41.1l-.2.2h-12v6.3H164.1v-6.3H152.3c-3.1-1.7-19.5-11.7-19.5-41.1V125.2H121.4a37.79,37.79,0,0,0,8.8-17.5l.5-2.2-2.5-1.5a96,96,0,0,1-21.7-16.9c1.1-.8,2.2-1.7,3.3-2.5a95,95,0,0,0,16.1-17.5c11.4-16.2,32.8-25.3,39.1-27.8a10.91,10.91,0,0,1,3.9-.6l13.3.6a9.85,9.85,0,0,0,7.5-2.7,11.07,11.07,0,0,0,3.5-7.5A10.26,10.26,0,0,0,183.4,18.4ZM61.3,105.2l-5.9-9.1L62,91.7l.3.3.3.3a66.52,66.52,0,0,1,5,8.6Zm65.4,26.5v28.5c0,22,8.6,34.7,15.4,41.1H126.7v-9.4a3.05,3.05,0,0,0-3.1-3.1,3.18,3.18,0,0,0-3.1,3.1v9.4H111V182.2a3.18,3.18,0,0,0-3.1-3.1,2.94,2.94,0,0,0-3.1,3.1v19.1H95.1V195a3.1,3.1,0,0,0-6.2,0v6.3H79.5v-9.4a3.05,3.05,0,0,0-3.1-3.1,3.18,3.18,0,0,0-3.1,3.1v9.4h-18c7.8-6.4,17.5-19.1,17.5-41.1V131.7h28.5V138a3.18,3.18,0,0,0,3.1,3.1,3.05,3.05,0,0,0,3.1-3.1v-6.3h6.3v9.4a3.18,3.18,0,0,0,3.1,3.1,3.05,3.05,0,0,0,3.1-3.1v-9.4Zm-2.9-23.1A36.38,36.38,0,0,1,113,125.3H86.4a34.83,34.83,0,0,0,17-5.1,33.78,33.78,0,0,0,12.8-16.6C118.8,105.2,121.1,107,123.8,108.6ZM111,99.4a26.33,26.33,0,0,1-29.7,19.2,100.9,100.9,0,0,0-5.6-15.4l-.5-1c-1.1-2.5-2.5-5-3.8-7.5a1.14,1.14,0,0,1-.3-.6,65.35,65.35,0,0,0-3.5-5.6l-5-7.7L83.6,67l2.2,3.3,2.8,4.4c1,1.5,2,3,3,4.4.5.5.8,1.1,1.3,1.7.6.8,1.3,1.7,1.9,2.5.5.6,1.1,1.3,1.7,2S98,87,98.7,87.8c.5.6,1.1,1.3,1.7,1.9l1.3,1.3C104.5,93.8,107.7,96.7,111,99.4ZM185.5,32a4.38,4.38,0,0,1-2.8,1l-13.3-.6a13.71,13.71,0,0,0-6.4,1c-8.6,3.3-29.8,12.8-42.1,30A78.74,78.74,0,0,1,106,79.6a43.93,43.93,0,0,1-3.6,2.8l-.3-.3c-1-1.1-1.9-2.3-2.8-3.5-.3-.5-.8-1-1.1-1.5-.8-1-1.5-2-2.2-3a12.55,12.55,0,0,1-1.1-1.7c6.6-4.2,22-14.6,28.9-24.7a44.89,44.89,0,0,1,10.1-11.3c7.8-5.9,20-13.1,33.5-12.5l15.8.8a4,4,0,0,1,3.9,4.4A10.24,10.24,0,0,1,185.5,32Z" transform="translate(-31.6 -17.54)" fill="#642f7f"/></svg>