<svg id="Layer_1" data-name="Layer 1" xmlns="http://www.w3.org/2000/svg" viewBox="0 0 189.86 190.08"><title>icon_5a</title><path d="M56.1,110.6a3.7,3.7,0,0,1,3.6-3.8,3.63,3.63,0,0,1,3.6,3.8,3.52,3.52,0,0,1-3.6,3.6A3.72,3.72,0,0,1,56.1,110.6Z" transform="translate(-17.64 -17.52)" fill="#14697f"/><path d="M65.9,106.9a3.7,3.7,0,0,1,.8-5.2c.2,0,.2-.2.3-.2l15.8-10c2.7-1.6,5.7.2,5.7,3.8a9.2,9.2,0,0,1-1.9,2.5c-5.2,3.3-10.5,6.7-15.7,10A3.41,3.41,0,0,1,65.9,106.9Z" transform="translate(-17.64 -17.52)" fill="#14697f"/><path d="M148.9,151.8a3.89,3.89,0,0,1-1.4,5.1c-.2,0-.2.2-.3.2l-16,8.9a8.8,8.8,0,0,1-1.7.6,3.68,3.68,0,0,1-1.9-6.9c2.7-1.6,5.2-3,7.9-4.4s5.5-3.2,8.2-4.6a3.83,3.83,0,0,1,5.2,1.1Z" transform="translate(-17.64 -17.52)" fill="#14697f"/><path d="M158.7,148.3a3.8,3.8,0,0,1-3.8,3.8,3.7,3.7,0,1,1,.2-7.4A3.41,3.41,0,0,1,158.7,148.3Z" transform="translate(-17.64 -17.52)" fill="#14697f"/><path d="M205,25.2a11.91,11.91,0,0,0,2.5-2.9V19.9c-2.2-2.7-3.5-3-6.3-1.4q-54,27.15-107.9,54.2c-1.6.8-3,1.7-3,3.8a3.63,3.63,0,0,0,2.9,3.6c6.2,3.3,12.5,6.7,18.7,10a22.06,22.06,0,0,1,2.1,1.1,17.28,17.28,0,0,1-2.1,1.3c-15.4,9.7-30.7,19.3-46.1,29.2-3.8,2.4-3.6,5.5.2,7.6l20.9,11.1a9.3,9.3,0,0,1,1.9,1.1,17.72,17.72,0,0,1-1.6,1.4L19.9,200.3c-3.2,2.7-3,5.2.6,7.3h2.1c1.4-.8,2.9-1.6,4.3-2.4q54-30.15,108.1-60c1.6-1,3.2-1.7,3.2-4s-1.6-3.2-3.3-4c-5.1-2.7-10.3-5.4-15.4-8.1-1.7-1-3.3-1.7-5.2-2.9l12-7.8L165,93.5c3.3-2.2,3.2-5.4-.3-7.1-1.6-1-3.2-1.6-4.8-2.5l-13.8-7.1a15.85,15.85,0,0,0,1.7-1.4C166.7,58.8,185.8,42,205,25.2ZM138.8,81.7l16.8,8.7a19.1,19.1,0,0,1-2.1,1.4l-47.7,30.7-.8.5c-3,2.1-3,5.2.3,7,6.3,3.5,12.7,6.8,19,10.1a21.87,21.87,0,0,1,1.9,1.1L53.8,181.4l-.3-.3,6.3-5.4c12-10.3,23.9-20.6,36.1-30.6,4.3-3.6,3.8-6.5-1-8.9-6.5-3.2-12.8-6.8-19.2-10.1a21.87,21.87,0,0,1-1.9-1.1l18.4-11.6L122,95l1-.6c3-2.1,2.9-5.2-.3-7-6-3.3-12-6.5-18.2-9.7a11.18,11.18,0,0,1-2.2-1.3l75.9-38,.3.3-10.3,9L138,74.1C134.5,77,134.8,79.7,138.8,81.7Z" transform="translate(-17.64 -17.52)" fill="#14697f"/></svg>