<svg id="Layer_1" data-name="Layer 1" xmlns="http://www.w3.org/2000/svg" viewBox="0 0 189.9 180.26"><title>icon_8a</title><path d="M18.5,49.7a2.84,2.84,0,0,1,0-4l.2-.2a2.81,2.81,0,0,1,3.8-.5.2.2,0,0,1,.2.2c2.5,2.2,4.7,4.7,7.1,7.1a5.39,5.39,0,0,1,.8,2.1c-.6.8-1.1,1.9-2.1,2.2a4,4,0,0,1-3.2-.3A52.82,52.82,0,0,1,18.5,49.7Z" transform="translate(-17.6 -22.29)" fill="#14697f"/><path d="M21.8,30.9a3.21,3.21,0,0,1,.2-4.3,2.78,2.78,0,0,1,4.1-.2h0c4.4,4.1,8.5,8.5,12.8,12.8A12.81,12.81,0,0,1,40,41.6a11.23,11.23,0,0,1-2.4,2.5,2.76,2.76,0,0,1-3.5-.8L23.5,32.7A9.76,9.76,0,0,1,21.8,30.9Z" transform="translate(-17.6 -22.29)" fill="#14697f"/><path d="M33.9,62.5A29.49,29.49,0,0,1,36.4,60c.9.5,1.9,1.1,2.8,1.7,3,2.8,5.9,5.9,8.9,8.7,1.6,1.6,1.7,3.5.3,4.9s-3.2,1.3-4.9-.5l-8.9-8.9A2.52,2.52,0,0,1,33.9,62.5Z" transform="translate(-17.6 -22.29)" fill="#14697f"/><path d="M44,52.9a4.21,4.21,0,0,1-.5-3.3c.3-.9,1.6-1.4,2.5-2.1a14.14,14.14,0,0,1,2.4,1.3A32.22,32.22,0,0,1,51.6,52a3.31,3.31,0,0,1-.8,4.4,3,3,0,0,1-3.6,0A15.35,15.35,0,0,1,44,52.9Z" transform="translate(-17.6 -22.29)" fill="#14697f"/><path d="M49.7,30.9a29.49,29.49,0,0,1,2.5-2.5c.9.5,1.9,1.1,2.8,1.7,6.2,6,12.3,12.2,18.3,18.3a3.17,3.17,0,0,1,.6,4.4l-.3.3a3,3,0,0,1-4.4,0c-.2,0-.2-.2-.3-.3-6.2-6.2-12.3-12.3-18.3-18.5A2.47,2.47,0,0,1,49.7,30.9Z" transform="translate(-17.6 -22.29)" fill="#14697f"/><path d="M68.8,27.4a2.85,2.85,0,0,1,.2-4h0a2.71,2.71,0,0,1,3.8-.6.2.2,0,0,1,.2.2c2.5,2.4,4.9,4.9,7.4,7.3a4.85,4.85,0,0,1,.8,2.1c-.6.8-1.1,1.9-1.9,2.2a3.6,3.6,0,0,1-3.2-.2C73.6,32.1,71.2,29.8,68.8,27.4Z" transform="translate(-17.6 -22.29)" fill="#14697f"/><path d="M114.8,62.4c-2.2,2.2-4.4,4.4-6.8,6.6l.2.6H125a3.22,3.22,0,0,1,3.5,2.8v.2a3.12,3.12,0,0,1-3,3.2H100.2c-1.4,0-2.8-.6-3-2.1a4.56,4.56,0,0,1,.8-3.3c4-4.3,8.2-8.4,12.3-12.5a3.14,3.14,0,0,1,5,3.8C115.3,61.9,115,62,114.8,62.4Z" transform="translate(-17.6 -22.29)" fill="#14697f"/><path d="M150.8,52.9c0-7.1-.2-14.4.2-21.5a9.8,9.8,0,0,1,8.9-8.7,28.12,28.12,0,0,1,7.1,0A10.15,10.15,0,0,1,176.2,33c-.2,6.5-.2,13-.2,19.6v19a7.84,7.84,0,0,1-.2,2.1,3.16,3.16,0,0,1-4,1.9,3.41,3.41,0,0,1-2.1-2.4V33.9c0-3.8-1.3-5.1-5.2-5.1h-3.3a3.87,3.87,0,0,0-4.1,3.8V53a2.84,2.84,0,0,1-3.2,2.5,2.81,2.81,0,0,1-3.1-2.6Z" transform="translate(-17.6 -22.29)" fill="#14697f"/><path d="M35.3,104.6l73.9-73.7c2.8-2.8,4-2.8,6.8,0l73.4,72.9a12.88,12.88,0,0,1,1.6,1.7,2.87,2.87,0,0,1-.3,4.1h0a2.78,2.78,0,0,1-4.1.2,5.35,5.35,0,0,1-1.3-1.3q-35.4-35.4-71-70.7a21.56,21.56,0,0,1-1.6-1.9c-5.2,5.2-10,10.3-14.9,15.2C78.5,70.4,59.2,89.5,39.9,108.8a5.39,5.39,0,0,1-1.6,1.4,3.18,3.18,0,0,1-4-.5,2.89,2.89,0,0,1-.3-3.8A8,8,0,0,1,35.3,104.6Z" transform="translate(-17.6 -22.29)" fill="#14697f"/><path d="M179.1,164.4V118.7a8.2,8.2,0,0,0-.2-2.2,3.09,3.09,0,0,0-6.1.4v50.7a2.49,2.49,0,0,1-1.6,2.8,15.21,15.21,0,0,1-17.9-1.3,48.11,48.11,0,0,0-6.8-4.7,20.26,20.26,0,0,0-11.9-1.7v-41c0-3.2-1.1-4.3-4.3-4.3H94.8c-3.3,0-4.4.9-4.4,4.3v40.8c-8.4-.5-12.2.9-18.5,6.5a14.31,14.31,0,0,1-17.2,1.7,4.07,4.07,0,0,1-2.2-3.8V114.7c0-2.4-1.1-3.8-3-3.8s-3.3,1.4-3.3,3.8v49.7c-10.9-4.4-19.8-1.6-27,6.8-1.6,1.7-1.7,3.5-.3,4.9s3.2,1.1,4.9-.5a22.82,22.82,0,0,0,2.2-2.2,15.77,15.77,0,0,1,7.6-4.4c5.4-1.1,9.8.6,13.9,4.3a21.2,21.2,0,0,0,29.4-.2c6.3-6,14.6-6,21,0,8.9,8.1,20.6,8.1,29.6,0a22.76,22.76,0,0,1,7.1-4c5.5-1.6,10.1.5,14.2,4.3,7.8,7.4,20.4,8.1,29.6-.8a14.77,14.77,0,0,1,12-4c4.6.5,7.8,3.3,10.8,6.5,2.5,2.5,4.4,2.4,6.3-.6v-1.6C200.1,163.4,190.9,159.6,179.1,164.4Zm-50.6-1.3a2.52,2.52,0,0,1-1.3,2.4c-1.6,1.1-3.2,2.4-4.7,3.6a14.72,14.72,0,0,1-19.8,0c-1.6-1.4-3.3-2.5-4.9-4a2.16,2.16,0,0,1-.9-1.6V123.6h31.6v39.5Z" transform="translate(-17.6 -22.29)" fill="#14697f"/><path d="M207.5,196.2l-.2,2.5c-2.5,2.5-3.8,2.5-6.3,0l-2.4-2.4a14.52,14.52,0,0,0-20.2-.3,22.07,22.07,0,0,1-14.2,6.5,21,21,0,0,1-16.1-6.2,14.71,14.71,0,0,0-12.3-4.1,16.65,16.65,0,0,0-9.2,4.7,20.5,20.5,0,0,1-16,5.5A21.84,21.84,0,0,1,97,195.9a14.43,14.43,0,0,0-18.8-.8,17.14,17.14,0,0,0-2.5,2.2,20.61,20.61,0,0,1-25,1.9,29.8,29.8,0,0,1-4.3-3.5,14.54,14.54,0,0,0-19.9.3c-1.3,1.1-2.4,2.5-3.6,3.6a3,3,0,0,1-4.1,0l-.2-.2a2.78,2.78,0,0,1-.2-4.1h0c5.4-6.3,11.7-10.4,20.4-9.5a21.51,21.51,0,0,1,13,6.2,14.16,14.16,0,0,0,16,3,18.62,18.62,0,0,0,4.7-3.2c9.2-8.2,20.7-8.2,29.7,0a14.67,14.67,0,0,0,20.7,0h0c9.2-8.4,20.7-8.2,29.9,0a14.73,14.73,0,0,0,20.6.2c9.8-8.9,21.7-8.5,31,.8C205.5,194,206.4,195.1,207.5,196.2Z" transform="translate(-17.6 -22.29)" fill="#14697f"/></svg>