<svg id="Layer_1" data-name="Layer 1" xmlns="http://www.w3.org/2000/svg" viewBox="0 0 190 129.83"><title>icon_3a</title><path d="M110.2,171.1Z" transform="translate(-17.5 -47.6)" fill="#14697f"/><path d="M153.1,110.1Z" transform="translate(-17.5 -47.6)" fill="#14697f"/><path d="M74.9,61a4.07,4.07,0,0,1,.5-1.8c1.1-2.1,2.1-4.3,3.2-6.3.2-.3.3-.5.6-.5a.63.63,0,0,1,.6.5l1.4,2.6c.2.2.2.5,0,.6a.47.47,0,0,1-.8,0c-.2,0-.2-.2-.2-.3-.3-.5-.6-1.1-.8-1.5V54l-1.8,3.5-1.1,2.1a3.43,3.43,0,0,0,1.4,4.6,2.61,2.61,0,0,0,.8.3,3.22,3.22,0,0,0,3.8-2.6v-.2a3,3,0,0,0-.3-2.1,21.86,21.86,0,0,0-1.1-2c-.2-.5-.2-.8.2-.9s.6,0,.8.3a25.32,25.32,0,0,1,1.2,2.3,4.38,4.38,0,0,1-2,5.6,3.76,3.76,0,0,1-4.3-.2A3.81,3.81,0,0,1,74.9,61Z" transform="translate(-17.5 -47.6)" fill="#14697f"/><path d="M83,79.8c1.1-2.1,2.1-4.3,3.2-6.3.2-.3.3-.5.6-.5a.63.63,0,0,1,.6.5l1.4,2.6c.2.2.2.5,0,.6a.47.47,0,0,1-.8,0s-.2-.2-.2-.3c-.3-.5-.6-1.1-.9-1.5l-.2-.3L85,78.1l-1.1,2a3.15,3.15,0,0,0,1.4,4.4,1.33,1.33,0,0,0,.8.3,3.22,3.22,0,0,0,3.8-2.6V82a3,3,0,0,0-.3-2.1,21.86,21.86,0,0,0-1.1-2c-.2-.5-.2-.8.2-.9a.63.63,0,0,1,.8.3,25.32,25.32,0,0,1,1.2,2.3,4.38,4.38,0,0,1-2,5.6,3.76,3.76,0,0,1-4.3-.2,4.41,4.41,0,0,1-2.1-4C82.6,81,82.7,80.4,83,79.8Z" transform="translate(-17.5 -47.6)" fill="#14697f"/><path d="M98.4,69.6a4.07,4.07,0,0,1,.5-1.8c.9-2.1,2-4.1,2.9-6.3.2-.3.3-.5.6-.5a.63.63,0,0,1,.6.5l1.4,2.4c.2.2.2.5,0,.6a.65.65,0,0,1-.8.2.2.2,0,0,1-.2-.2c-.3-.5-.6-1.1-.9-1.5l-.2-.3-1.7,3.5-.9,2a3.26,3.26,0,0,0,1.5,4.3,2.61,2.61,0,0,0,.8.3,3.19,3.19,0,0,0,3.7-2.7h0a2.08,2.08,0,0,0-.5-2c-.3-.6-.8-1.2-1.1-1.8a.59.59,0,0,1,.2-.9c.3-.2.6,0,.8.3.5.8.8,1.4,1.2,2.1a4.21,4.21,0,0,1-1.7,5.5,4.14,4.14,0,0,1-4.3.2A5.61,5.61,0,0,1,98.4,69.6Z" transform="translate(-17.5 -47.6)" fill="#14697f"/><path d="M110.7,80.1a4.07,4.07,0,0,1,.5-1.8c1.1-2.1,2.1-4.3,3.2-6.3.2-.3.3-.5.6-.5a.63.63,0,0,1,.6.5l1.4,2.6c.2.2.2.5,0,.6a.47.47,0,0,1-.8,0s-.2-.2-.2-.3c-.3-.5-.6-1.1-.8-1.5l-.2-.3-1.8,3.5-1.1,2a3.15,3.15,0,0,0,1.4,4.4,1.33,1.33,0,0,0,.8.3,3.22,3.22,0,0,0,3.8-2.6v-.2a3,3,0,0,0-.3-2.1,21.86,21.86,0,0,0-1.1-2c-.2-.5-.2-.8.2-.9s.6,0,.8.3a25.32,25.32,0,0,1,1.2,2.3,4.38,4.38,0,0,1-2,5.6,3.76,3.76,0,0,1-4.3-.2C111.4,83.3,110.7,81.8,110.7,80.1Z" transform="translate(-17.5 -47.6)" fill="#14697f"/><path d="M115.1,57.8a3.7,3.7,0,0,1,.6-2.1c1.2-2.4,2.6-5,3.8-7.5.2-.3.3-.6.8-.6s.6.3.8.6c.6,1.1,1.1,2.1,1.7,3.1a.61.61,0,0,1,0,.8.56.56,0,0,1-.9,0c-.2,0-.2-.2-.2-.3l-.9-1.8c-.2,0-.2-.2-.3-.2l-2.1,4.1-1.2,2.4a3.78,3.78,0,0,0,1.7,5.3,1.61,1.61,0,0,0,.9.3,3.86,3.86,0,0,0,4.6-3.1v-.2a2.89,2.89,0,0,0-.5-2.4,16.65,16.65,0,0,1-1.2-2.3.71.71,0,0,1,.2-1.1.63.63,0,0,1,.9.5c.5.9.9,1.7,1.4,2.6a5.39,5.39,0,0,1-2.3,6.7,4.89,4.89,0,0,1-5.2-.2A5.09,5.09,0,0,1,115.1,57.8Z" transform="translate(-17.5 -47.6)" fill="#14697f"/><path d="M131.9,75.1a4.07,4.07,0,0,1,.5-1.8c1.1-2.1,2.1-4.3,3.2-6.3.2-.3.3-.5.6-.5s.5.3.6.5l1.4,2.6c.2.2.2.5,0,.6a.47.47,0,0,1-.8,0s-.2-.2-.2-.3c-.3-.5-.6-1.1-.8-1.5l-.2-.3-1.8,3.5-1.1,2a3.43,3.43,0,0,0,1.4,4.6,2.61,2.61,0,0,0,.8.3,3.22,3.22,0,0,0,3.8-2.6v-.2a3,3,0,0,0-.3-2.1,21.86,21.86,0,0,0-1.1-2c-.2-.5-.2-.8.2-.9a.63.63,0,0,1,.8.3,25.32,25.32,0,0,1,1.2,2.3,4.38,4.38,0,0,1-2,5.6,3.76,3.76,0,0,1-4.3-.2A4,4,0,0,1,131.9,75.1Z" transform="translate(-17.5 -47.6)" fill="#14697f"/><path d="M205.8,157.5c-1.7-.9-3.5-.3-4.6,1.8-1.5,2.7-2.9,5.5-4.3,8.2a15,15,0,0,1-1.1,1.7c-3.4-4.1-6.7-7.9-9.6-12.1-14.7-20-24.9-42.1-33-65.5a6.08,6.08,0,0,1-.3-2.3V76.9a3.24,3.24,0,0,0-3.5-2.9,3.17,3.17,0,0,0-2.9,3.5V88h-71V77.7c0-2.3-1.4-3.7-3.2-3.7s-3.1,1.4-3.1,3.7V89.5a18.1,18.1,0,0,1-.3,2.3A332.31,332.31,0,0,1,44,146a114.11,114.11,0,0,1-15.4,21.1c-.6.6-1.4,1.2-2.1,2-.9-2.6-1.7-4.9-2.4-7.2-1.4-3.8-4-4.3-6.6-1.2v2.1c1.5,4.1,2.9,8.1,4.4,12.2a3.28,3.28,0,0,0,3.5,2.4H197a3.16,3.16,0,0,0,3.2-2c2.3-4.4,4.6-8.9,6.9-13.3C207.9,160.1,207.5,158.5,205.8,157.5ZM102.4,169.3c-1.4-3.1-2.7-6.1-4.1-9.2a.36.36,0,0,0-.2-.3,3.14,3.14,0,0,0-4-1.7.85.85,0,0,0-.6.3,3.1,3.1,0,0,0-1.1,4.3c1.2,2.7,2.4,5.5,3.8,8.6H33.9c0-.3,0-.5.2-.5,10.1-11,17.3-23.7,23.8-36.8A368.76,368.76,0,0,0,74.1,96.3a2.1,2.1,0,0,1,2.3-1.7h69.2a4.22,4.22,0,0,1-.3,1.2c-8.1,19.5-16.8,38.8-28.4,56.6a78.25,78.25,0,0,1-13.1,16C103.3,168.7,102.9,169,102.4,169.3Zm44.1,1.8H110.2c16.2-18.2,26.1-39.7,36.3-61.7Zm6.6,0V110.2c9.5,21.8,20.3,42.8,36.3,60.9Z" transform="translate(-17.5 -47.6)" fill="#14697f"/></svg>