<svg id="Layer_1" data-name="Layer 1" xmlns="http://www.w3.org/2000/svg" viewBox="0 0 189.94 165.5"><title>icon_1</title><path d="M99.7,115a6.43,6.43,0,0,1,1,2.4V176c0,3.3-1.7,5.5-4.4,5.9a5.19,5.19,0,0,1-5.9-4.3c0-.5-.2-.8,0-1.3V118.7a5.18,5.18,0,0,1,2.2-4.8A4.92,4.92,0,0,1,99.7,115Z" transform="translate(-17.5 -29.8)" fill="#14697f"/><path d="M121.7,130.2a10.55,10.55,0,0,1,.2,2.5v57.5a5,5,0,0,1-5.1,5.1h-.2a5.08,5.08,0,0,1-4.9-5.1V132c0-3.6,2.2-5.7,5.4-5.5A4.32,4.32,0,0,1,121.7,130.2Z" transform="translate(-17.5 -29.8)" fill="#14697f"/><path d="M143.1,147.6h0v28.8a5,5,0,0,1-3.2,5.1,5.08,5.08,0,0,1-5.4-.8,5.76,5.76,0,0,1-1.7-4.8v-57c0-3.3,1.7-5.5,4.4-5.9a5,5,0,0,1,5.9,4.3v30.3Z" transform="translate(-17.5 -29.8)" fill="#14697f"/><path d="M207.2,119.9a44.87,44.87,0,0,1-19.3,33.7,38.68,38.68,0,0,1-22,7.1c-4.6.2-9.2,0-13.9,0V150.2c3.5,0,7-.2,10.3,0,22.8,1.6,37.1-19.5,34.8-39.3-1.4-12-7.1-21.5-17.6-27.7a1.1,1.1,0,0,0-.6-.3c-1.9-.5-2.4-1.6-2.4-3.6-.6-16.2-11.7-31.7-26.6-37.2-16.9-6.2-35.5.5-45.8,16.5A46.39,46.39,0,0,0,97.6,76c0,.5-.2.8-.3,1.6-8.4-4.6-16.6-5.1-24.4.8-7.4,5.5-10.3,13.5-9.7,22.5a42,42,0,0,0-7.9-2.2A22.31,22.31,0,0,0,35,105.8c-11.9,12.2-8.6,34.4,6.3,42.3a23.93,23.93,0,0,0,11.1,2.4H81.7V161H53a35.34,35.34,0,0,1-35.2-31,9,9,0,0,0-.3-1.6v-8.2c.3-1.7.8-3.5,1.1-5.2a34.62,34.62,0,0,1,34-26.9c1.4,0,1.6-.8,1.9-1.7A33.79,33.79,0,0,1,74,65.9,27.13,27.13,0,0,1,88.1,64a1.86,1.86,0,0,0,2.4-1.4c6.2-15.2,16.8-25.8,32.5-30.7,22.3-7,46.6,4,57.7,25.7a57.68,57.68,0,0,1,5.4,16.6,3.31,3.31,0,0,0,1.4,2.1C202.5,87,208.8,101.7,207.2,119.9Z" transform="translate(-17.5 -29.8)" fill="#14697f"/></svg>