<svg id="Layer_1" data-name="Layer 1" xmlns="http://www.w3.org/2000/svg" viewBox="0 0 225 225"><rect width="225" height="225" rx="85" fill="#3e4487"/><rect x="66.1" y="117.71" width="7.06" height="3.42" fill="#fff"/><path d="M76.69,124.87v28.54H65a2.71,2.71,0,0,1-2.5-1.21V126.08a2.5,2.5,0,0,1,2.42-1.21Z" fill="#fff"/><rect x="82.27" y="124.87" width="3.42" height="28.39" fill="#fff"/><path d="M112.13,122.24a10.17,10.17,0,0,0-1.58-6,4.91,4.91,0,0,0-1.47-1.47,4.65,4.65,0,0,0-6.32,1.47,11.92,11.92,0,0,0,0,12,5.06,5.06,0,0,0,1.47,1.48,4.66,4.66,0,0,0,6.32-1.48A10.67,10.67,0,0,0,112.13,122.24Zm-.95,0h0a9.42,9.42,0,0,1-1.31,5.31,3.75,3.75,0,0,1-1.37,1.37,3.71,3.71,0,0,1-5.08-1.32h0a11.09,11.09,0,0,1,0-10.58,3.17,3.17,0,0,1,1.32-1.37,3.72,3.72,0,0,1,5.08,1.33h0A8.88,8.88,0,0,1,111.18,122.24Z" fill="#fff"/><polygon points="112.29 133.24 113.34 133.24 113.34 152.46 112.29 152.46 112.29 143.35 102.44 143.35 102.44 152.46 101.34 152.46 101.34 133.24 102.44 133.24 102.44 142.35 112.29 142.35 112.29 133.24" fill="#fff"/><path d="M114.71,128.87a.86.86,0,0,1,0,1.11h0a.72.72,0,0,1-.58.26.8.8,0,0,1-.58-.26.88.88,0,0,1,0-1.21h0a.76.76,0,0,1,.58-.27A5.72,5.72,0,0,0,114.71,128.87Z" fill="#fff"/><polygon points="119.56 129.5 119.56 119.92 118.35 120.66 117.87 120.29 120.24 118.6 120.24 129.5 122.72 129.5 122.72 130.13 117.08 130.13 117.08 129.5 119.56 129.5" fill="#fff"/><polygon points="117.34 151.36 123.93 151.36 123.93 152.46 115.5 152.46 121.61 141.88 115.5 141.88 115.5 140.82 123.45 140.82 117.34 151.36" fill="#fff"/><rect x="139.31" y="124.92" width="3.42" height="28.44" fill="#fff"/><path d="M128.56,78.84C114,72.1,100.12,74.37,87.75,84.32c-9.22,7.42-14.22,17.27-15.8,29a1.55,1.55,0,0,1-.21.73H68c.47-2.31.74-4.63,1.32-6.79C72.42,95.5,78.74,85.9,88.8,79a40.7,40.7,0,0,1,27.07-7.27c14.43,1.32,25.28,8.53,33.28,20.44a48,48,0,0,1,7.64,21.38V114h-3.48c-.25-1.75-.58-3.48-1-5.21C148.94,95.17,141.41,84.58,128.56,78.84Z" fill="#fff"/><rect x="151.84" y="117.76" width="7.06" height="3.42" fill="#fff"/><path d="M162.5,126.08V152.2a2.67,2.67,0,0,1-2.53,1.21c-3.53-.1-7.16,0-10.69,0h-1V124.87H160A2.62,2.62,0,0,1,162.5,126.08Z" fill="#fff"/></svg>