<svg id="Layer_1" data-name="Layer 1" xmlns="http://www.w3.org/2000/svg" viewBox="0 0 225 225"><rect width="225" height="225" rx="85" fill="#3e4487"/><path d="M67,98.83v27.34a3.48,3.48,0,0,1-6,2.46,3.53,3.53,0,0,1-1-2.46V98.83a3.48,3.48,0,0,1,3.46-3.5h0A3.44,3.44,0,0,1,67,98.71h0Z" fill="#fff"/><path d="M81,86.57v51.81a3.49,3.49,0,0,1-3.45,3.53h0A3.53,3.53,0,0,1,74,138.4V86.57a3.5,3.5,0,0,1,7,0Z" fill="#fff"/><path d="M95,75.22v74.56a3.5,3.5,0,0,1-7,0V75.22a3.5,3.5,0,0,1,7,0Z" fill="#fff"/><path d="M109,81.64v61.61a3.48,3.48,0,0,1-6,2.46,3.53,3.53,0,0,1-1-2.46V81.64a3.5,3.5,0,1,1,7,0Z" fill="#fff"/><path d="M123,90.41V134.5a3.49,3.49,0,0,1-3.45,3.53h0a3.53,3.53,0,0,1-3.55-3.51V90.41a3.5,3.5,0,0,1,7,0Z" fill="#fff"/><path d="M137,86.57v51.81a3.49,3.49,0,0,1-3.45,3.53h0A3.53,3.53,0,0,1,130,138.4V86.57a3.5,3.5,0,0,1,7,0Z" fill="#fff"/><path d="M151,90.41V134.5a3.49,3.49,0,0,1-3.45,3.53h0a3.53,3.53,0,0,1-3.55-3.51V90.41a3.5,3.5,0,0,1,7,0Z" fill="#fff"/><path d="M165,97.05v30.84a3.48,3.48,0,0,1-6,2.46,3.53,3.53,0,0,1-1-2.46V97.05a3.5,3.5,0,0,1,7,0Z" fill="#fff"/></svg>