<svg id="Layer_1" data-name="Layer 1" xmlns="http://www.w3.org/2000/svg" viewBox="0 0 225 225"><rect width="225" height="225" rx="85" fill="#3e4487"/><path d="M126.41,139.84a41.81,41.81,0,0,0-4.1-1.2c.85-1.36,1.82-2.73,2.56-4.15a42.33,42.33,0,0,0,1.65-4.62,1.6,1.6,0,0,0-.4-.23,17.06,17.06,0,0,0-8.83,4.39c.52.63,1,1.08,1.37,1.54,1.43-.91,2.79-1.82,4.16-2.74-.91,3.31-5.35,7.41-7.75,7.41,2.17-5.58,1.31-10.71-2.1-15.72a17.78,17.78,0,0,0-3.19,7.63,15.23,15.23,0,0,0,1.08,8.14c-3.19-.74-7.63-4.89-7.92-7.57,1.54,1,2.85,1.88,4.16,2.73.51-.45,1-.91,1.59-1.42a17.06,17.06,0,0,0-9.11-4.39,17.22,17.22,0,0,0,4.33,9.06c-3,.68-5.81,1.37-8.14,3.25,0,.17,0,.22.17.22,5.07,3.42,10.42,4.16,16.06,1.66a2.14,2.14,0,0,1,2,0c5.81,2.62,11.16,1.7,16.46-1.88A31.13,31.13,0,0,0,126.41,139.84Zm-26,2.11a.91.91,0,0,0-.06-.4c1.43-.23,3-.4,4.39-.69,1.71-.39,3,.4,4.55,1.37a12,12,0,0,1-8.91-.23ZM113,139c-1.43-1.82-1.6-7-.06-9.79A13,13,0,0,1,113,139Zm3.7,3.25a8.44,8.44,0,0,1,8.88-.4,12,12,0,0,1-8.91.44Z" fill="#fff"/><path d="M166.56,120.82a21.64,21.64,0,0,0-2.73-10.43c-4.73-8.42-12-12.92-21.65-12.92-15.26-.06-30.41-.06-45.67,0-1.6,0-2.85-.17-3.71-1.6l-.22-.23c-6.72-6.6-13.33-13.32-20-20a6.32,6.32,0,0,0-1.08-.85,8.42,8.42,0,0,0-11.11,1.54,8.33,8.33,0,0,0,.46,11.22c3.81,3.81,7.57,7.57,11.33,11.39a5.68,5.68,0,0,0,1,.68c-.51.28-.86.46-1.14.63a23.59,23.59,0,0,0-12,14.69c-1.54,5.18-1.19,10.48-.68,15.72a23.92,23.92,0,0,0,23.69,21h59a25.76,25.76,0,0,0,4.21-.29A24.18,24.18,0,0,0,166.05,132,53,53,0,0,0,166.56,120.82ZM62.11,85.56A6,6,0,1,1,71,77.42h0c.86.74,1.6,1.54,2.34,2.28-3,3-5.76,5.81-8.55,8.54C64,87.39,62.9,86.5,62.11,85.56Zm4.5,4.62L75,81.75,90.81,97.5c-2.85,0-5.58-.17-8.37.06a62.41,62.41,0,0,0-6.66,1.08,1.19,1.19,0,0,1-.92-.17C72.13,95.7,69.34,92.91,66.61,90.18ZM66.09,108A21.32,21.32,0,0,1,83.5,99.69c19.54-.06,39.19-.06,58.78,0A22,22,0,0,1,164,117.29a8.56,8.56,0,0,0,.17,1.13c-34.18-13.89-68.29-14-102.58,0A20.36,20.36,0,0,1,66.09,108Zm97.74,24.15a21.89,21.89,0,0,1-21.33,17.2H83.07A21.75,21.75,0,0,1,61.5,129.7c-.23-2.62-.06-5.35-.17-8.09,0-.68.4-.74.85-.91,4.73-1.65,9.46-3.53,14.24-5a126,126,0,0,1,32.47-5.36,127.49,127.49,0,0,1,43.39,6.27c3.88,1.2,7.64,2.73,11.39,4.16a1,1,0,0,1,.74.74c-.11,3.49.18,7-.56,10.64Z" fill="#fff"/></svg>