<svg id="Layer_1" data-name="Layer 1" xmlns="http://www.w3.org/2000/svg" viewBox="0 0 225 225"><rect width="225" height="225" rx="85" fill="#3e4487"/><path d="M94.17,132.18a1.22,1.22,0,1,1,.21,0A.74.74,0,0,0,94.17,132.18Z" fill="#fff"/><path d="M103,123.5a1.49,1.49,0,0,1-1.47-1.42,1.44,1.44,0,0,1,1.41-1.46,1.48,1.48,0,0,1,1.47,1.31v.1A1.67,1.67,0,0,1,103,123.5Z" fill="#fff"/><path d="M111.84,114.61a1.41,1.41,0,1,1,1.41-1.41A1.49,1.49,0,0,1,111.84,114.61Z" fill="#fff"/><path d="M120.68,105.78a1.32,1.32,0,0,1-1.46-1.16v-.2a1.39,1.39,0,0,1,1.3-1.46h.11a1.43,1.43,0,0,1,1.47,1.37h0A1.49,1.49,0,0,1,120.68,105.78Z" fill="#fff"/><path d="M129.5,96.94a1.43,1.43,0,0,1-1.45-1.43h0a1.44,1.44,0,1,1,2.87-.24,1,1,0,0,1,0,.24A1.51,1.51,0,0,1,129.5,96.94Z" fill="#fff"/><path d="M136.83,97.26c0,.1-.11.1-.11.15-.28.35-.58.68-.89,1-18.08,18-36.06,36.07-54.15,54.15a12.23,12.23,0,0,0-.89,1.47c-.26.31-.42.68-.73,1-2,2-4.13,4.23-6.27,6.27-1.15,1.1-1.83,1-3-.42-2.14-2.3-4.39-4.6-6.79-6.79-1.41-1.26-1.46-1.88-.42-3l6.27-6.28a4.06,4.06,0,0,1,1.1-.73,3.93,3.93,0,0,0,1.15-.68c2.67-2.66,5.28-5.28,8-7.94.26-.26.47-.68.73-.68.58,0,1.31-.11,1.67.26a2,2,0,0,1,.26,1.67c0,.31-.41.58-.67.84L73.83,146a6.43,6.43,0,0,1,.88,1,1.22,1.22,0,0,1,.15,1.73,1.06,1.06,0,0,1-.15.15h0A1.23,1.23,0,0,1,73,149c-.1-.11-.15-.11-.15-.16-.48-.42-.89-.84-1.42-1.31l-3.86,3.87a1.67,1.67,0,0,0,0,2.25h0l3.55,3.45a1.74,1.74,0,0,0,2.46,0h0l3.55-3.45c-2.87-2.3-.42-3.87.89-2.46.89.84,2-1.15,3-2L133.76,96.5c.32-.32.58-.73.89-.84a2.46,2.46,0,0,1,1.73.16,1,1,0,0,1,.55,1.3A.71.71,0,0,1,136.83,97.26Z" fill="#fff"/><path d="M156,63h-1.1a51.08,51.08,0,0,1-4.7,2.71,12.6,12.6,0,0,0-5,3.82c-2.14,2.4-4,5-6.38,7.37q-26.5,26.59-53.17,53.1a7,7,0,0,0-.83.89,1.48,1.48,0,0,0,2,2.09c.35-.28.68-.58,1-.89Q113.91,106,140.07,79.8c.24-.32.47-.66.68-1l5.54,5.55a2.61,2.61,0,0,0-.89.57l-6.17,6.17-.26.26a1.45,1.45,0,1,0,2.3,1.78A179.12,179.12,0,0,1,156,79.5a12.18,12.18,0,0,0,3.4-4.6A36.13,36.13,0,0,1,162.18,70V68.93Zm-5.07,16.88c-.89.68-1.72,1.41-2.56,2L143,76.5c3.13-4.39,6.69-8.41,12.38-10.08l3.14,3c-1.62,4.21-3.87,7.87-7.58,10.43Z" fill="#fff"/></svg>