<svg id="Layer_1" data-name="Layer 1" xmlns="http://www.w3.org/2000/svg" viewBox="0 0 225 225"><rect width="225" height="225" rx="85" fill="#3e4487"/><path d="M67,88v49a3.49,3.49,0,0,1-6,2.47A3.56,3.56,0,0,1,60,137V88a3.5,3.5,0,0,1,7,0Z" fill="#fff"/><path d="M81,97.77v29.4a3.49,3.49,0,0,1-6,2.47,3.56,3.56,0,0,1-1-2.47V97.77a3.5,3.5,0,1,1,7,0Z" fill="#fff"/><path d="M95,82.41v60.18a3.48,3.48,0,0,1-3.46,3.5h0a3.47,3.47,0,0,1-2.47-1,3.53,3.53,0,0,1-1-2.46V82.41a3.48,3.48,0,0,1,3.43-3.5h0A3.44,3.44,0,0,1,95,82.33h0Z" fill="#fff"/><path d="M109,94.62v35.7a3.49,3.49,0,0,1-6,2.47,3.56,3.56,0,0,1-1-2.47V94.62a3.5,3.5,0,0,1,7,0Z" fill="#fff"/><path d="M123,102.36v20.28a3.49,3.49,0,0,1-6,2.47,3.56,3.56,0,0,1-1-2.47V102.36a3.5,3.5,0,0,1,7,0Z" fill="#fff"/><path d="M137,83.67v57.77a3.5,3.5,0,0,1-7,0V83.67a3.48,3.48,0,0,1,3.46-3.5h0A3.41,3.41,0,0,1,137,83.45v.22Z" fill="#fff"/><path d="M151,91.5v42a3.49,3.49,0,0,1-3.45,3.53h0a3.53,3.53,0,0,1-3.55-3.51v-42a3.5,3.5,0,0,1,7,0Z" fill="#fff"/><path d="M165,102.36v20.28a3.49,3.49,0,0,1-6,2.47,3.56,3.56,0,0,1-1-2.47V102.36a3.5,3.5,0,0,1,7,0Z" fill="#fff"/></svg>