<svg id="Layer_1" data-name="Layer 1" xmlns="http://www.w3.org/2000/svg" viewBox="0 0 225 225"><rect width="225" height="225" rx="85" fill="#3e4487"/><path d="M67,102.3v20.29a3.49,3.49,0,0,1-3.45,3.53h0A3.53,3.53,0,0,1,60,122.61V102.3a3.5,3.5,0,0,1,7,0Z" fill="#fff"/><path d="M81,95.31v34.33a3.49,3.49,0,0,1-3.45,3.53h0A3.53,3.53,0,0,1,74,129.66V95.31a3.48,3.48,0,0,1,3.46-3.5h0A3.42,3.42,0,0,1,81,95.13h0Z" fill="#fff"/><path d="M95,99.15v26.59a3.48,3.48,0,0,1-6,2.46,3.53,3.53,0,0,1-1-2.46V99.15a3.5,3.5,0,0,1,7,0Z" fill="#fff"/><path d="M109,105.79v13.3a3.49,3.49,0,0,1-6,2.47,3.56,3.56,0,0,1-1-2.47v-13.3a3.5,3.5,0,0,1,7,0Z" fill="#fff"/><path d="M123,93.41v38.18a3.5,3.5,0,0,1-7,0V93.41a3.5,3.5,0,0,1,7,0Z" fill="#fff"/><path d="M137,107.06v10.83a3.5,3.5,0,0,1-7,0h0V107.06a3.5,3.5,0,0,1,7,0Z" fill="#fff"/><path d="M151,102.3v20.29a3.49,3.49,0,0,1-3.45,3.53h0a3.53,3.53,0,0,1-3.55-3.51V102.3a3.5,3.5,0,0,1,7,0Z" fill="#fff"/><path d="M165,94.56v35.71a3.49,3.49,0,0,1-3.45,3.53h0a3.53,3.53,0,0,1-3.55-3.51V94.56a3.5,3.5,0,0,1,7,0Z" fill="#fff"/></svg>