<svg id="Layer_1" data-name="Layer 1" xmlns="http://www.w3.org/2000/svg" xmlns:xlink="http://www.w3.org/1999/xlink" viewBox="0 0 228 228"><defs><linearGradient id="linear-gradient" x1="26.4" y1="26.4" x2="201.6" y2="201.6" gradientUnits="userSpaceOnUse"><stop offset="0" stop-color="#041519"/><stop offset="1" stop-color="#0d434c"/></linearGradient></defs><rect x="1.5" y="1.5" width="225" height="225" rx="85" stroke="#fff" stroke-miterlimit="10" stroke-width="3" fill="url(#linear-gradient)"/><path d="M97.73,110.94a4,4,0,0,1,.52,1.32v30.89c0,1.74-.89,2.9-2.32,3.11A2.73,2.73,0,0,1,92.82,144c0-.27-.1-.43,0-.69V112.89A3,3,0,0,1,94,110.36a2.56,2.56,0,0,1,3.6.38Z" fill="#fff"/><path d="M105.5,136a2.74,2.74,0,0,1,.1.9v20.93c-.15,1.16-1.26,1.84-2.74,1.84s-2.58-.84-2.58-1.89V136.5c0-1.32,1.16-2.11,2.85-2A2.37,2.37,0,0,1,105.5,136Z" fill="#fff"/><path d="M113.17,122.86a1.8,1.8,0,0,1,.11.89v20.93c-.16,1.16-1.27,1.85-2.74,1.85s-2.59-.85-2.59-1.9V123.5c0-1.32,1.16-2.11,2.85-2A2.41,2.41,0,0,1,113.17,122.86Z" fill="#fff"/><path d="M120.71,131.55a3.39,3.39,0,0,1,.11,1.27v27.47a2.59,2.59,0,0,1-2.75,2.42h0a2.38,2.38,0,0,1-2.57-2.19,1.77,1.77,0,0,1,0-.23V132.35a2.52,2.52,0,0,1,2.32-2.69h.58A2.51,2.51,0,0,1,120.71,131.55Z" fill="#fff"/><path d="M128.2,124a2.68,2.68,0,0,1,.1.89v20.93c-.16,1.16-1.26,1.85-2.74,1.85s-2.58-.85-2.58-1.9V124.65c0-1.32,1.16-2.11,2.84-2A2.39,2.39,0,0,1,128.2,124Z" fill="#fff"/><path d="M136.16,124.28h0V135c0,.85-.53,1.53-1.69,1.85a3.56,3.56,0,0,1-2.85-.32,1.94,1.94,0,0,1-1-1.74V113.63a2.15,2.15,0,0,1,2.13-2.17h.19c1.74-.16,3.11.68,3.11,2.11v10.7Z" fill="#fff"/><path d="M163.94,113a23.65,23.65,0,0,1-10.18,17.76,20.33,20.33,0,0,1-11.59,3.79h-.11a2.62,2.62,0,0,1-2.74-2.48V129h.84c12,.84,19.56-10.28,18.35-20.72a18.67,18.67,0,0,0-9.28-14.6.58.58,0,0,0-.32-.16c-1-.26-1.26-.84-1.26-1.9a22.35,22.35,0,0,0-14-19.61c-8.91-3.27-18.72.26-24.15,8.7a24.34,24.34,0,0,0-3.43,9.17c0,.27-.1.42-.15.85-4.43-2.43-8.75-2.69-12.87.42-3.9,2.9-5.43,7.11-5.11,11.86a22.13,22.13,0,0,0-4.16-1.16,11.67,11.67,0,0,0-10.67,3.68c-6.28,6.43-4.54,18.14,3.32,22.2A12.73,12.73,0,0,0,82.28,129h4.59a2.76,2.76,0,0,1,2.74,2.74,2.54,2.54,0,0,1-.85,1.9,2.61,2.61,0,0,1-1.89.84H82.65A18.53,18.53,0,0,1,64.09,118.1a4.79,4.79,0,0,1-.16-.84v-4.43c.16-.9.43-1.85.58-2.74A18.41,18.41,0,0,1,82.5,96c.74,0,.84-.42,1-.9A17.75,17.75,0,0,1,93.77,84.32a14.31,14.31,0,0,1,7.43-1,1,1,0,0,0,1.25-.66s0,0,0-.08c3.22-8.07,8.8-13.65,17.08-16.24,11.76-3.58,24.57,2.16,30.42,13.55a30.43,30.43,0,0,1,2.85,8.75,2,2,0,0,0,.73,1.16C161.5,95.55,164.78,103.3,163.94,113Z" fill="#fff"/></svg>