<svg id="Layer_1" data-name="Layer 1" xmlns="http://www.w3.org/2000/svg" xmlns:xlink="http://www.w3.org/1999/xlink" viewBox="0 0 228 228"><defs><linearGradient id="linear-gradient" x1="26.4" y1="26.4" x2="201.6" y2="201.6" gradientUnits="userSpaceOnUse"><stop offset="0" stop-color="#041519"/><stop offset="1" stop-color="#0d434c"/></linearGradient></defs><rect x="1.5" y="1.5" width="225" height="225" rx="85" stroke="#fff" stroke-miterlimit="10" stroke-width="3" fill="url(#linear-gradient)"/><path d="M106.94,115.35a3.54,3.54,0,0,1,.55,1.33v32.39c0,1.83-.94,3.05-2.43,3.27A2.88,2.88,0,0,1,101.8,150c0-.28-.11-.44,0-.72V117.4a2.85,2.85,0,0,1,1.22-2.65,2.72,2.72,0,0,1,3.82.46Z" fill="#fff"/><path d="M119.1,123.76a5.8,5.8,0,0,1,.11,1.38v31.78a2.76,2.76,0,0,1-2.7,2.82h-.23a2.8,2.8,0,0,1-2.71-2.82V124.75c0-2,1.22-3.15,3-3A2.38,2.38,0,0,1,119.1,123.76Z" fill="#fff"/><path d="M130.93,133.38h0V149.3a2.89,2.89,0,0,1-4.75,2.37,3.16,3.16,0,0,1-.94-2.65V117.5a3,3,0,0,1,2.43-3.26,2.75,2.75,0,0,1,3.23,2.19l0,.19v16.75Z" fill="#fff"/><path d="M166.37,118.06a24.81,24.81,0,0,1-10.67,18.63,21.5,21.5,0,0,1-12.2,3.93c-2.55.11-5.09,0-7.69,0v-5.81c1.94,0,3.87-.11,5.7,0,12.6.89,20.5-10.78,19.23-21.72A19.47,19.47,0,0,0,151,97.77a.6.6,0,0,0-.33-.16c-1.05-.28-1.32-.89-1.32-2A23.45,23.45,0,0,0,134.65,75c-9.34-3.42-19.62.28-25.32,9.13a25.74,25.74,0,0,0-3.59,9.61c0,.28-.11.45-.17.89-4.64-2.54-9.17-2.82-13.48.44-4.1,3-5.7,7.46-5.37,12.44a23.52,23.52,0,0,0-4.36-1.22,12.33,12.33,0,0,0-11.23,3.93c-6.57,6.74-4.75,19,3.49,23.38A13.27,13.27,0,0,0,80.75,135H97v5.8H81.12a19.53,19.53,0,0,1-19.45-17.13,4.51,4.51,0,0,0-.17-.89v-4.53c.17-.94.44-1.94.61-2.88A19.13,19.13,0,0,1,80.9,100.5c.78,0,.89-.44,1-.94A18.71,18.71,0,0,1,92.73,88.21a15,15,0,0,1,7.8-1,1,1,0,0,0,1.28-.61.75.75,0,0,0,0-.16c3.43-8.41,9.29-14.26,18-17,12.33-3.87,25.76,2.21,31.9,14.2a32,32,0,0,1,3,9.18,1.85,1.85,0,0,0,.78,1.16C163.77,99.88,167.25,108,166.37,118.06Z" fill="#fff"/></svg>