<svg id="Layer_1" data-name="Layer 1" xmlns="http://www.w3.org/2000/svg" xmlns:xlink="http://www.w3.org/1999/xlink" viewBox="0 0 228 228"><defs><linearGradient id="linear-gradient" x1="26.4" y1="26.4" x2="201.6" y2="201.6" gradientUnits="userSpaceOnUse"><stop offset="0" stop-color="#041519"/><stop offset="1" stop-color="#0d434c"/></linearGradient></defs><rect x="1.5" y="1.5" width="225" height="225" rx="85" stroke="#fff" stroke-miterlimit="10" stroke-width="3" fill="url(#linear-gradient)"/><path d="M112.76,145.58" fill="#fff"/><path d="M135.89,112.7" fill="#fff"/><path d="M93.73,86.23a2.2,2.2,0,0,1,.27-1c.59-1.13,1.13-2.32,1.73-3.4.1-.16.16-.27.32-.27a.34.34,0,0,1,.32.27l.76,1.4a.22.22,0,0,1,0,.31l0,0a.25.25,0,0,1-.34.09.2.2,0,0,1-.09-.09c-.11,0-.11-.11-.11-.16-.16-.27-.33-.6-.43-.81V82.5l-1,1.88-.57,1.12A1.84,1.84,0,0,0,95.35,88a1.33,1.33,0,0,0,.43.17,1.75,1.75,0,0,0,2-1.41v-.1a1.66,1.66,0,0,0-.11-1.14c-.17-.32-.33-.64-.6-1.07-.1-.27-.1-.44.11-.49a.35.35,0,0,1,.43.16c.27.43.43.81.65,1.24A2.35,2.35,0,0,1,94,87.26a2.43,2.43,0,0,1-.25-1Z" fill="#fff"/><path d="M98.1,96.36c.59-1.13,1.13-2.31,1.72-3.39.11-.16.16-.27.33-.27a.34.34,0,0,1,.32.27l.75,1.4c.11.11.11.27,0,.32a.25.25,0,0,1-.34.09.2.2,0,0,1-.09-.09s-.1-.1-.1-.16c-.17-.27-.33-.59-.49-.81l-.11-.16-1,1.89-.59,1a1.7,1.7,0,0,0,.63,2.31l.12.06a.73.73,0,0,0,.43.16,1.73,1.73,0,0,0,2-1.35v-.16a1.59,1.59,0,0,0-.16-1.13,11.3,11.3,0,0,0-.59-1.08c-.11-.27-.11-.43.11-.49a.33.33,0,0,1,.43.17,11.17,11.17,0,0,1,.64,1.24,2.36,2.36,0,0,1-1.07,3,2,2,0,0,1-2.32-.11A2.37,2.37,0,0,1,97.64,97C97.88,97,97.94,96.69,98.1,96.36Z" fill="#fff"/><path d="M106.4,90.87a2.2,2.2,0,0,1,.27-1c.48-1.14,1.08-2.22,1.56-3.4.11-.16.16-.27.33-.27a.34.34,0,0,1,.32.27l.75,1.29c.11.11.11.27,0,.33a.34.34,0,0,1-.43.1.09.09,0,0,1-.1-.1c-.17-.27-.33-.6-.49-.81l-.11-.16L107.59,89l-.49,1.08a1.77,1.77,0,0,0,.81,2.32,1.31,1.31,0,0,0,.43.16,1.73,1.73,0,0,0,2-1.42v0h0a1.13,1.13,0,0,0-.27-1.07c-.17-.33-.44-.65-.6-1a.32.32,0,0,1,0-.45l.06,0c.16-.11.32,0,.43.16.27.43.43.76.65,1.14a2.26,2.26,0,0,1-.92,3,2.23,2.23,0,0,1-2.32.11A3,3,0,0,1,106.4,90.87Z" fill="#fff"/><path d="M113,96.5a2.2,2.2,0,0,1,.27-1c.59-1.14,1.13-2.32,1.73-3.4.1-.16.16-.27.32-.27a.34.34,0,0,1,.32.27l.76,1.4c.1.11.1.27,0,.32a.24.24,0,0,1-.32.11.2.2,0,0,1-.11-.11s-.11-.1-.11-.16c-.16-.27-.33-.59-.43-.81l-.11-.16-1,1.89-.59,1.08a1.7,1.7,0,0,0,.63,2.31l.12.06a.67.67,0,0,0,.43.16,1.74,1.74,0,0,0,2-1.4v-.11a1.59,1.59,0,0,0-.16-1.13c-.16-.32-.33-.65-.59-1.08-.11-.27-.11-.43.1-.48a.33.33,0,0,1,.43.16,11.27,11.27,0,0,1,.78,1.35,2.37,2.37,0,0,1-1.08,3,2,2,0,0,1-2.32-.11C113.41,98.25,113,97.44,113,96.5Z" fill="#fff"/><path d="M115.4,84.5a2,2,0,0,1,.33-1.13c.64-1.29,1.4-2.69,2-4,.11-.16.17-.32.44-.32s.32.16.43.32c.32.59.59,1.13.91,1.67a.32.32,0,0,1,0,.43.3.3,0,0,1-.42.06l-.06-.06c-.11,0-.11-.11-.11-.16l-.48-1c-.11,0-.11-.11-.17-.11l-1.13,2.21-.64,1.29a2,2,0,0,0,.7,2.74l.22.11a.84.84,0,0,0,.49.16,2.09,2.09,0,0,0,2.47-1.6s0,0,0-.07v-.1a1.62,1.62,0,0,0-.27-1.3,9.56,9.56,0,0,1-.62-1.24.38.38,0,0,1,0-.54l.08,0a.34.34,0,0,1,.48.27c.27.48.49.91.76,1.4a2.9,2.9,0,0,1-1.24,3.61A2.62,2.62,0,0,1,116.8,87,2.76,2.76,0,0,1,115.4,84.5Z" fill="#fff"/><path d="M124.5,93.83a2.2,2.2,0,0,1,.27-1c.59-1.13,1.13-2.32,1.72-3.4.11-.16.17-.27.33-.27s.27.17.32.27l.76,1.41a.21.21,0,0,1,0,.3l0,0a.26.26,0,0,1-.36.08.3.3,0,0,1-.08-.08s-.1-.11-.1-.16c-.16-.27-.33-.6-.43-.81l-.11-.16-1,1.88-.6,1.08a1.84,1.84,0,0,0,.76,2.48,1.31,1.31,0,0,0,.43.16,1.73,1.73,0,0,0,2-1.4v-.11a1.59,1.59,0,0,0-.16-1.13,11.4,11.4,0,0,0-.6-1.08c-.1-.27-.1-.43.11-.48a.34.34,0,0,1,.43.16c.27.43.43.81.65,1.24a2.37,2.37,0,0,1-1.08,3,2,2,0,0,1-2.32-.11A2.15,2.15,0,0,1,124.5,93.83Z" fill="#fff"/><path d="M164.3,138.25a1.76,1.76,0,0,0-2.37.75,1.12,1.12,0,0,0-.11.25c-.81,1.46-1.56,3-2.32,4.42a8,8,0,0,1-.59.92c-1.83-2.21-3.61-4.26-5.18-6.52-7.92-10.78-13.42-22.7-17.79-35.31a3.26,3.26,0,0,1-.16-1.24V94.8a1.74,1.74,0,0,0-1.89-1.56,1.7,1.7,0,0,0-1.57,1.82v5.72H94.05V95.23a1.78,1.78,0,0,0-1.55-2h-.17c-1,0-1.67.75-1.67,2v6.36a10.25,10.25,0,0,1-.16,1.24,179.51,179.51,0,0,1-13.43,29.22,61.43,61.43,0,0,1-8.3,11.38c-.32.32-.75.65-1.13,1.08-.49-1.41-.92-2.65-1.3-3.89-.75-2-2.15-2.31-3.55-.64v1.13c.8,2.21,1.56,4.37,2.37,6.58A1.76,1.76,0,0,0,67,149h92.52a1.7,1.7,0,0,0,1.72-1.08c1.24-2.37,2.48-4.8,3.72-7.17a1.8,1.8,0,0,0-.66-2.46Zm-55.74,6.36c-.76-1.67-1.46-3.28-2.21-5a.21.21,0,0,0-.11-.16,1.69,1.69,0,0,0-2.16-.91.42.42,0,0,0-.32.16,1.68,1.68,0,0,0-.63,2.28l0,0c.65,1.45,1.3,3,2,4.63H71.63c0-.16,0-.27.11-.27,5.44-5.93,9.32-12.77,12.83-19.84a200.1,200.1,0,0,0,8.73-20.32,1.14,1.14,0,0,1,1.24-.92h37.31a2.15,2.15,0,0,1-.17.65c-4.36,10.51-9.05,20.92-15.31,30.51a41.84,41.84,0,0,1-7.06,8.63A3.76,3.76,0,0,1,108.56,144.61Zm23.77,1H112.76c8.73-9.81,14.07-21.4,19.57-33.26Zm3.56,0V112.75c5.12,11.76,10.94,23.08,19.57,32.83Z" fill="#fff"/></svg>