<svg id="Layer_1" data-name="Layer 1" xmlns="http://www.w3.org/2000/svg" viewBox="0 0 156.58 190.06"><title>icon_7a</title><path d="M112.5,17.5C107,23.4,97.8,39.8,97.8,47.9v.2a14.64,14.64,0,0,0,14.7,14.6h0A14.66,14.66,0,0,0,127.2,48C127.2,40,113.7,16.1,112.5,17.5ZM122,48.1a9.56,9.56,0,0,1-9.5,9.5h-.3a9.56,9.56,0,0,1-9.5-9.5c0-5.2,5.7-20.1,10-23.1,1-.8,9.3,17.7,9.3,23.1Z" transform="translate(-34.43 -17.44)" fill="#22a7f0"/><path d="M182.7,181.7c-7.4,8.9-17.1,14.4-27.7,18.4a114,114,0,0,1-34,7.1,21.11,21.11,0,0,0-2.1.3H106.1c-3.3-.3-6.6-.6-10-1.1-14.6-1.9-28.3-5.9-40.8-13.6a81.51,81.51,0,0,1-7.8-5.7,2.56,2.56,0,1,1,2.6-4.4c.2.2.5.3.6.5C61.3,192.4,74,197.3,87.6,200a120.44,120.44,0,0,0,63-3.6c9.8-3.3,19-8.1,26.3-15.7,5.1-5.2,8.5-11.1,8.9-18.5s-2.5-13.8-7.3-19.2c-6.3-7.3-14.4-12-23.1-15.7a103.13,103.13,0,0,0-26.7-7,.55.55,0,0,0-.5.2,19.2,19.2,0,0,1,1.1,2.7,17.6,17.6,0,0,0,9.7,8.5,35.59,35.59,0,0,1,14.4,9.5,41,41,0,0,1,4.9,7.6,2.44,2.44,0,0,1-.9,3.2.37.37,0,0,0-.3.2,2.39,2.39,0,0,1-3.2-1.1c0-.2-.2-.2-.2-.3a25.06,25.06,0,0,0-10.4-11.2,53,53,0,0,0-6.8-3.3c-9.2-4.3-14.1-11.6-14.2-21.7-.2-8.7,0-17.4,0-26.1a9.58,9.58,0,0,0-9.3-9.8,9.46,9.46,0,0,0-9.8,9.3v25.6a27.72,27.72,0,0,1-1.7,9.8A22.49,22.49,0,0,1,89,136.2a44.86,44.86,0,0,0-11.9,7,5.7,5.7,0,0,0-1.1,1.1c-7.3,7.3-7.1,16,.5,23a42.36,42.36,0,0,0,17.7,9.2,68.68,68.68,0,0,0,44.3-2.5,31.29,31.29,0,0,0,11.4-7.6,32.43,32.43,0,0,0,4.1-6.3c.9-1.7,2.1-2.5,3.5-2.1,1.4.6,2.1,1.9,1.3,3.8a25.28,25.28,0,0,1-9.7,12,53.57,53.57,0,0,1-24.4,9.3,74,74,0,0,1-37-3.3,42,42,0,0,1-14.9-8.9C63,161.7,63,149.2,73,140a44.71,44.71,0,0,1,13.3-8.2,17.68,17.68,0,0,0,10.3-10.1,7.17,7.17,0,0,0,.5-1.4c-3.5.6-6.6,1.1-9.8,1.7a82.67,82.67,0,0,0-32.1,13.3,39.37,39.37,0,0,0-12,12.7c-5.1,8.9-5.1,17.6.2,26.4a9.13,9.13,0,0,1,.8,1.3,2.55,2.55,0,0,1-.6,3.5h0a2.38,2.38,0,0,1-3.3-.5s-.2-.2-.2-.3a29.49,29.49,0,0,1-5.2-13.3c-1.9-10.8,2.1-19.5,9-27.1,7.8-8.2,17.4-13.5,27.9-17.3a115.34,115.34,0,0,1,26-5.9c0-.6.2-1.3.2-2.1V88.6a14.7,14.7,0,0,1,29.4-.6c.2,8.4,0,16.6,0,25v1.7c4.4.8,8.7,1.4,13,2.4,13.3,3,25.6,7.8,36.2,16.5,6.5,5.4,11.6,11.9,13.6,20.3C192.6,164.3,189.5,173.4,182.7,181.7Z" transform="translate(-34.43 -17.44)" fill="#22a7f0"/></svg>