<svg id="Layer_1" data-name="Layer 1" xmlns="http://www.w3.org/2000/svg" viewBox="0 0 189.96 183.45"><title>icon_2a</title><path d="M137.8,163.5Zm0,0Zm0,0Zm0,0Zm0,0Zm0,0Zm0,0Zm0,0Zm0,0Zm0,0Zm0,0Z" transform="translate(-17.56 -20.78)" fill="#22a7f0"/><path d="M127.7,142.6a4.37,4.37,0,0,0-3.3-1.6c-6-.2-12,0-18.2,0h-2.4c.2-.8.2-1.1.3-1.6l4.8-19c.8-3-.3-4.8-3.2-4.8H81.1a2.92,2.92,0,0,0-3.3,2.4c-4.1,12.5-8.4,24.9-12.5,37.4-1,2.7.5,4.6,3.5,4.6H92.7a5.79,5.79,0,0,1-.3,1.7c-2.5,12.7-5.1,25.3-7.6,38-.3,1.9-.2,3.5,1.9,4.3a3.2,3.2,0,0,0,4.1-1.6c12.4-18.7,24.5-37.4,36.7-56.1A4.77,4.77,0,0,0,127.7,142.6ZM94.8,184.7l-.5-.2c.8-3.8,1.4-7.6,2.2-11.4,1-5.1,2.1-10,3-15,.6-2.9-.6-4.4-3.6-4.4H72.6c2.1-5.9,3.8-11.6,5.7-17.1,1.4-4.4,2.9-8.9,4.4-13.1a2.2,2.2,0,0,1,1.4-1.3h18.1c-.6,2.2-1.1,4.4-1.6,6.5-1.1,4.6-2.4,9.2-3.5,13.9-1,3.5.3,5.1,3.8,5.1h18.4Z" transform="translate(-17.56 -20.78)" fill="#22a7f0"/><path d="M134.8,30.6a44.48,44.48,0,0,1,0-7.3,2.53,2.53,0,0,1,2.9-2.5h.2a2.76,2.76,0,0,1,3,2.7h0v3.8h0v3.6a2.66,2.66,0,0,1-3,2.5h0a3.3,3.3,0,0,1-3.1-2.8Z" transform="translate(-17.56 -20.78)" fill="#22a7f0"/><path d="M152.9,183.1c-2.7-9.8-7.3-18.7-12.2-27.6-1.4-2.7-4.6-2.5-6,.3-3.2,6.2-6.3,12.2-9,18.5a98.56,98.56,0,0,0-3.6,11.7c-.2,12.8,10.1,20.6,20.3,17.4C151,201,155.4,192.6,152.9,183.1Zm-12.2,14.4a9,9,0,0,1-11.4-5.4,12.76,12.76,0,0,1-.3-7c1.6-7.6,5.2-14.4,8.9-21.7,3.8,7.4,7.4,14.6,9.2,22.3A9.56,9.56,0,0,1,140.7,197.5Z" transform="translate(-17.56 -20.78)" fill="#22a7f0"/><path d="M179.9,48.2a3,3,0,0,1,0-4.4l.3-.3a70.49,70.49,0,0,1,6.2-6,4.25,4.25,0,0,1,3.5-.6c1,.3,1.4,1.7,2.2,2.7a17.77,17.77,0,0,1-1.7,2.7L184.7,48C183.1,49.5,181.2,49.6,179.9,48.2Z" transform="translate(-17.56 -20.78)" fill="#22a7f0"/><path d="M186.9,101.7c-.2,0-.2,0-.2-.2a2.13,2.13,0,0,1-.6-3,43.39,43.39,0,0,0,2.2-21.4,44.41,44.41,0,0,0-79.1-20.3l-1.6,2.1c-15.5-8.9-31-9.8-45.6.6-13.9,9.8-18.8,23.8-15.8,40.9-.6.2-1.3.3-1.9.5-16.2,3-28.2,18.7-26.6,34.8,1.7,17.3,16,30.6,32.8,30.6a3.18,3.18,0,0,0,1.4-.2,3,3,0,0,0,2.4-3.5v-.2a3.09,3.09,0,0,0-3.3-2.7,26.4,26.4,0,0,1-26.9-24.1,26.7,26.7,0,0,1,24.2-29c5.1-.5,6-1.6,4.6-5.7A32.65,32.65,0,0,1,83,58.7c14.9-.5,26.9,7.1,33.1,20.7,1.1,2.5,2.5,3.2,5.1,2.2,14.7-5.7,29,1.4,33.4,16.5.8,2.5,1.9,3,4.4,3a55.49,55.49,0,0,1,12.2.3c11.7,2.7,19.6,10,22.8,21.7,3,11.7-.6,21.7-9.5,29.6a28.83,28.83,0,0,1-19.3,7.3c-2.4.2-3.8,1.3-3.8,3.2s1.4,3.2,4,3.2c1.4,0,3-.2,4.4-.3a36.3,36.3,0,0,0,30.4-26.6A35.8,35.8,0,0,0,186.9,101.7ZM179.8,97c-4-.8-8.1-1.9-12-2.5a27.2,27.2,0,0,0-5.7-.2,2,2,0,0,1-2.5-1.6A30,30,0,0,0,137.9,74a28.3,28.3,0,0,0-15,.3,2,2,0,0,1-2.7-1.3c-2.2-3.5-4.8-6.8-7.3-10.3,10-16,32.3-21.5,49.6-12.2C180.4,60.4,186.1,81.8,179.8,97Z" transform="translate(-17.56 -20.78)" fill="#22a7f0"/><path d="M207.5,84.3a2.71,2.71,0,0,1-2.4,2.7H205a48.21,48.21,0,0,1-7.6,0,2.76,2.76,0,0,1-2.5-2.9v-.3a2.89,2.89,0,0,1,2.7-3h7.2a2.71,2.71,0,0,1,2.7,3Z" transform="translate(-17.56 -20.78)" fill="#22a7f0"/></svg>