<svg id="Layer_1" data-name="Layer 1" xmlns="http://www.w3.org/2000/svg" viewBox="0 0 190.15 189.77"><title>icon_9a</title><path d="M168.9,114.1Z" transform="translate(-17.3 -17.63)" fill="#22a7f0"/><path d="M147.9,50.6a4,4,0,0,1,.3-3.2c3.2-3.5,6.5-6.8,10-10a3,3,0,0,1,4.3.5,2.78,2.78,0,0,1,0,3.8c-3.2,3.5-6.7,6.8-10,10a5.54,5.54,0,0,1-2.2,1C149.3,52,148.2,51.4,147.9,50.6Z" transform="translate(-17.3 -17.63)" fill="#22a7f0"/><path d="M170.1,92.9C158.6,66,138.6,49.6,109.8,44c-3.2-.6-6.7-.8-9.9-1.3-.2-.2-.2-.3-.2-.3V37.1c0-2.4-1.3-3.8-3.2-3.8s-3.2,1.4-3.2,3.8v5.4a127.53,127.53,0,0,0-14.2,2.2c-31.7,8.1-51.6,28-59.7,59.5-1.1,4-1.4,8.3-2.1,12.4v12.7c.2.2.3.3.5.3a3.12,3.12,0,0,0,3.8,1.4,3.21,3.21,0,0,0,2.2-3.3v-3.3a3.44,3.44,0,0,1,.8-2.1,20,20,0,0,1,27.7-2.2c2.2,1.8,3.8,3.7,3.2,6.7v1.6a3,3,0,0,0,3.2,3,3.08,3.08,0,0,0,3-3,9.15,9.15,0,0,0,0-3.3,3.49,3.49,0,0,1,1.4-3.2,6,6,0,0,0,.8-.8,20,20,0,0,1,28.3,1,5.15,5.15,0,0,1,1.3,2.9v25.5c-2.5.3-6-.8-6.2,3-.2,4.3,3.7,3.2,6,3.5v6.4H87.1v21c0,1.9-.6,3.5-2.4,4s-3-.5-3.8-2.1l-.2-.3a9.35,9.35,0,0,0-8.9-3.8,9.52,9.52,0,0,0-8.1,10.7c1,4.9,4.1,8.4,8.3,10.8a73.62,73.62,0,0,0,9.2,3.7H87a1.33,1.33,0,0,1,.5-.3c12.1-2.5,18.9-10.8,18.9-23.2V163H100V124a2.69,2.69,0,0,1,.8-1.8,20,20,0,0,1,28-2.1c2.1,1.6,3.3,3.5,2.9,6.2v1.8a3.08,3.08,0,0,0,2.5,2.5,3.18,3.18,0,0,0,3.7-2.5,26.7,26.7,0,0,1,0-4,3.44,3.44,0,0,1,.8-2.1,19.91,19.91,0,0,1,27.2-2.5c2.5,1.8,4.3,3.8,3.7,7.2v1.1a3.2,3.2,0,1,0,6.4,0C176.2,116,174.9,104.1,170.1,92.9ZM55.5,114.6c-10.3-6.8-20.7-7.2-31.4-.3a73.12,73.12,0,0,1,55.1-63C62.2,69.2,57.4,91.2,55.5,114.6Zm37.9,0a28.39,28.39,0,0,0-15.6-5.3A28,28,0,0,0,62,114.4c.2-2.7.3-5.1.6-7.3A101.71,101.71,0,0,1,72.9,70.5c3.7-7.2,8.3-13.5,15.3-17.8,1.6-1,3.2-1.6,5.3-2.7v64.6Zm6.5,54.9v8.9a49.51,49.51,0,0,1-.5,10.2,15.54,15.54,0,0,1-12.7,12.3,15.83,15.83,0,0,1-15.9-6.8c-1.3-1.9-1.1-3.5.3-4.8s3.3-.8,4.8,1.1a9.81,9.81,0,0,0,8,4.5,9.43,9.43,0,0,0,9.6-9.4V169.7Zm-.1-54.9-.2-64.3c1,.5,1.9.6,2.7,1.1a35.44,35.44,0,0,1,14.3,13.4c6.8,10.3,10.5,22,12.6,34.1.8,5.1,1.3,10.2,2.1,15.9C120.6,107.6,110.3,107.6,99.8,114.6Zm37.9.1c-1.9-23.4-6.7-45.4-23.4-63,25,5.3,51.3,29.1,54.6,62.6C158.4,107.4,148,107.7,137.7,114.7Z" transform="translate(-17.3 -17.63)" fill="#22a7f0"/><path d="M166.8,31.5a3.32,3.32,0,0,1,.3-3.2c3.2-3.5,6.5-6.8,10-10a3,3,0,0,1,4.3.5,2.78,2.78,0,0,1,0,3.8c-3.2,3.5-6.7,6.7-10,10a5.8,5.8,0,0,1-2.1,1C168.4,32.9,167.1,32.4,166.8,31.5Z" transform="translate(-17.3 -17.63)" fill="#22a7f0"/><path d="M185.7,67.9a9.8,9.8,0,0,1-1.8,2.7c-2.9,3-5.9,5.9-8.8,8.8a3.21,3.21,0,0,1-5.1-3.9c.2-.2.3-.5.6-.6,3-3,5.9-6,8.9-8.9a3,3,0,0,1,3.7-.8A15,15,0,0,1,185.7,67.9Z" transform="translate(-17.3 -17.63)" fill="#22a7f0"/><path d="M188.9,39.4a22.87,22.87,0,0,1-1.8,2.9c-2.9,3-5.9,5.9-8.8,8.8a3.11,3.11,0,0,1-4.5.6c-.2,0-.2-.2-.3-.3-1.4-1.3-1.3-3.2.3-4.8,3-3,5.9-6,8.9-8.9a2.81,2.81,0,0,1,3.5-.8A16.32,16.32,0,0,1,188.9,39.4Z" transform="translate(-17.3 -17.63)" fill="#22a7f0"/><path d="M192.1,31.5a3.32,3.32,0,0,1,.3-3.2c3.2-3.5,6.5-6.8,10-10a3,3,0,0,1,4.3.5,2.78,2.78,0,0,1,0,3.8c-3.2,3.5-6.7,6.7-10,10a5.8,5.8,0,0,1-2.1,1C193.7,32.9,192.4,32.4,192.1,31.5Z" transform="translate(-17.3 -17.63)" fill="#22a7f0"/><path d="M206.8,44.2a3.15,3.15,0,0,1,0,3.7c-3.3,3.5-6.7,6.8-10.2,10.2a13.06,13.06,0,0,1-2.1.8c-.8-.6-1.9-1.1-2.2-2.1a3.6,3.6,0,0,1,.2-3.2c3.2-3.5,6.5-6.8,10-10.2A3.34,3.34,0,0,1,206.8,44.2Z" transform="translate(-17.3 -17.63)" fill="#22a7f0"/></svg>