<svg id="Layer_1" data-name="Layer 1" xmlns="http://www.w3.org/2000/svg" xmlns:xlink="http://www.w3.org/1999/xlink" viewBox="0 0 228 228"><defs><linearGradient id="linear-gradient" x1="26.4" y1="26.4" x2="201.6" y2="201.6" gradientUnits="userSpaceOnUse"><stop offset="0" stop-color="#041519"/><stop offset="1" stop-color="#0d434c"/></linearGradient></defs><rect x="1.5" y="1.5" width="225" height="225" rx="85" stroke="#fff" stroke-miterlimit="10" stroke-width="3" fill="url(#linear-gradient)"/><path d="M145.16,114.85" fill="#fff"/><path d="M133.56,79.78a2.21,2.21,0,0,1,.17-1.76,71.87,71.87,0,0,1,5.52-5.52,1.68,1.68,0,0,1,2.35.24l0,0a1.52,1.52,0,0,1,0,2.1c-1.76,1.93-3.7,3.81-5.52,5.52a3,3,0,0,1-1.21.55A3,3,0,0,1,133.56,79.78Z" fill="#fff"/><path d="M145.88,103.14c-6.38-14.85-17.38-23.85-33.3-26.94-1.77-.34-3.7-.45-5.47-.72-.11-.11-.11-.17-.11-.17V72.39c0-1.33-.72-2.1-1.77-2.1s-1.76.77-1.76,2.1v3a69.38,69.38,0,0,0-7.84,1.21q-26.17,6.7-33,32.86c-.61,2.21-.77,4.58-1.16,6.84v7c.11.11.17.16.28.16a1.72,1.72,0,0,0,2.09.78,1.77,1.77,0,0,0,1.22-1.83v-1.82a1.89,1.89,0,0,1,.44-1.16,11,11,0,0,1,15.24-1.21c1.22,1,2.1,2,1.77,3.7v.88a1.66,1.66,0,0,0,1.61,1.71h.19A1.71,1.71,0,0,0,86,122.84,5.06,5.06,0,0,0,86,121a1.92,1.92,0,0,1,.78-1.77,3.05,3.05,0,0,0,.44-.44,11,11,0,0,1,15.55.47l.07.08a2.74,2.74,0,0,1,.72,1.6v14c-1.38.17-3.37-.44-3.42,1.66-.11,2.38,2,1.77,3.37,1.93v3.54H100v11.59c0,1.05-.33,1.94-1.32,2.21a1.74,1.74,0,0,1-2.1-1.16l-.11-.16a5.17,5.17,0,0,0-4.92-2.1,5.26,5.26,0,0,0-4.47,5.91,8.81,8.81,0,0,0,4.59,6,44.26,44.26,0,0,0,5.08,2H100a.74.74,0,0,1,.27-.16c6.69-1.38,10.5-6,10.5-12.87V141.85h-3.54V120.32a1.51,1.51,0,0,1,.44-1,11,11,0,0,1,15.41-1.16,3.44,3.44,0,0,1,1.6,3.43v1a1.72,1.72,0,0,0,3.38,0,16.3,16.3,0,0,1,0-2.21,1.9,1.9,0,0,1,.45-1.16,11,11,0,0,1,15-1.38c1.38,1,2.37,2.1,2,4v.6a1.77,1.77,0,0,0,3.53.27,1.22,1.22,0,0,0,0-.27A45.27,45.27,0,0,0,145.88,103.14Zm-63.23,12c-5.74-3.82-11.43-4-17.28-.17a40.52,40.52,0,0,1,30.37-34.8c-9.39,9.94-12,22-13.09,35Zm20.87,0a15.61,15.61,0,0,0-8.61-2.93A15.43,15.43,0,0,0,86.18,115c.11-1.49.17-2.81.33-4a55,55,0,0,1,5.75-20.21A23.1,23.1,0,0,1,100.71,81c.88-.55,1.76-.88,2.92-1.49v35.68Zm3.59,30.31v4.92a27.9,27.9,0,0,1-.27,5.63,8.58,8.58,0,0,1-7,6.79A8.69,8.69,0,0,1,91.06,159a1.84,1.84,0,0,1,.11-2.6l.06,0c.77-.72,1.82-.44,2.65.61a5.4,5.4,0,0,0,4.42,2.48,5.21,5.21,0,0,0,5.3-5.12v-8.8Zm0-30.31L107,79.63c.55.27,1,.33,1.49.61a19.46,19.46,0,0,1,7.89,7.4c3.81,5.74,5.8,12.14,7,18.77.44,2.82.72,5.63,1.16,8.78-6-3.93-11.69-3.93-17.48-.06Zm20.92,0c-1-12.92-3.7-25-12.92-34.79,13.81,2.93,28.28,16.07,30.15,34.51-5.9-3.76-11.59-3.6-17.28.27Z" fill="#fff"/><path d="M144.05,69.24a1.86,1.86,0,0,1,.17-1.77A75.65,75.65,0,0,1,149.74,62a1.71,1.71,0,0,1,2.38.26h0a1.54,1.54,0,0,1,0,2.1c-1.77,1.94-3.7,3.7-5.53,5.52a3,3,0,0,1-1.16.56C144.88,70,144.22,69.79,144.05,69.24Z" fill="#fff"/><path d="M154.5,89.39a5.56,5.56,0,0,1-1,1.49c-1.61,1.66-3.26,3.26-4.86,4.86a1.77,1.77,0,1,1-2.82-2.15c.11-.11.17-.28.33-.33,1.66-1.66,3.26-3.37,4.92-4.92a1.69,1.69,0,0,1,2-.44A5.79,5.79,0,0,1,154.5,89.39Z" fill="#fff"/><path d="M156.26,73.66a13.84,13.84,0,0,1-1,1.6c-1.6,1.65-3.26,3.25-4.86,4.86a1.7,1.7,0,0,1-2.38.4l-.1-.07c-.11,0-.11-.11-.17-.17a1.75,1.75,0,0,1-.05-2.46l.22-.19c1.66-1.66,3.26-3.37,4.91-4.91a1.55,1.55,0,0,1,1.94-.45A6,6,0,0,1,156.26,73.66Z" fill="#fff"/><path d="M158,69.24a1.86,1.86,0,0,1,.17-1.77A75.65,75.65,0,0,1,163.71,62a1.71,1.71,0,0,1,2.38.26h0a1.54,1.54,0,0,1,0,2.1c-1.77,1.94-3.7,3.7-5.53,5.52a3,3,0,0,1-1.16.56C158.91,70,158.19,69.79,158,69.24Z" fill="#fff"/><path d="M166.09,76.25a1.74,1.74,0,0,1,0,2c-1.83,1.94-3.7,3.81-5.64,5.64a6.76,6.76,0,0,1-1.16.44c-.44-.33-1-.61-1.21-1.16a2,2,0,0,1,.11-1.77c1.77-1.93,3.59-3.81,5.52-5.63A1.86,1.86,0,0,1,166.09,76.25Z" fill="#fff"/></svg>