<svg id="Layer_1" data-name="Layer 1" xmlns="http://www.w3.org/2000/svg" xmlns:xlink="http://www.w3.org/1999/xlink" viewBox="0 0 228 228"><defs><linearGradient id="linear-gradient" x1="26.4" y1="26.4" x2="201.6" y2="201.6" gradientUnits="userSpaceOnUse"><stop offset="0" stop-color="#051911"/><stop offset="1" stop-color="#0f4c32"/></linearGradient></defs><rect x="1.5" y="1.5" width="225" height="225" rx="85" stroke="#fff" stroke-miterlimit="10" stroke-width="3" fill="url(#linear-gradient)"/><path d="M134.56,84.11a11.14,11.14,0,0,0-10.69-11.55,1.18,1.18,0,0,1-.86-.48,9.46,9.46,0,0,0-10.74-4.32,1.14,1.14,0,0,1-.77-.26,7.75,7.75,0,0,0-4.86-3.56h-2.37a7.11,7.11,0,0,0-5,4.1,7.6,7.6,0,0,0-7,.38,7.89,7.89,0,0,0-3.88,5.83,8.06,8.06,0,0,0-6.32,2.27,7.86,7.86,0,0,0-2.16,6.2c-.38,0-.59.11-.86.11a8.48,8.48,0,0,0-7.4,6.1,1.39,1.39,0,0,1-1.13,1A10.31,10.31,0,0,0,63,102.4l0,.1a10.41,10.41,0,0,0,2.64,4.75c-2,4.26-1.62,7.83,1.24,10.69h0a1,1,0,0,1,.32,1.38,1.13,1.13,0,0,1-.1.13h0l-.11.21a10.24,10.24,0,0,0,5,13.55,35.89,35.89,0,0,1,3.94,3,13.72,13.72,0,0,0,8.74,4.69v22.4c1.14,1,2.21.86,3.62.11v-21.7c0-.27.43-.65.75-.76a25.71,25.71,0,0,0,3-.86c1.62-.81,3.13-1.78,4.65-2.65a33.68,33.68,0,0,0,4.1,2.49c7.61,3.34,14.63-.6,16.35-6.86a1.48,1.48,0,0,1,.87-.7,10.24,10.24,0,0,0,7-14.73h0a2,2,0,0,1,0-1.35,10.07,10.07,0,0,0,1.08-4.85,1.43,1.43,0,0,1,.54-1.08,9,9,0,0,0,1.3-1,10.33,10.33,0,0,0,.54-14.61l-.06-.07h0a5,5,0,0,1-.43-.6l.27-.21A11.28,11.28,0,0,0,134.56,84.11ZM123.33,91.4h-1a1.71,1.71,0,0,0-1.4,1.94,1.68,1.68,0,0,0,.92,1.24,5.86,5.86,0,0,0,1,.33,7,7,0,0,1,4.81,6.42,6.81,6.81,0,0,1-4,6.48c-1.46.7-1.67,1.13-1.3,2.7a5.24,5.24,0,0,1-1.08,4.69c-.91,1.14-.91,1.62,0,2.87a6.89,6.89,0,0,1-1.55,9.61A7,7,0,0,1,116,129c-1.3,0-1.78.48-2,1.73-.86,5.07-5.07,7.72-10.09,6.47a10.55,10.55,0,0,1-5.56-3.45c-1.3-1.51-2.16-1.51-3.46,0a10.34,10.34,0,0,1-6.64,3.62c.33-1.46.71-2.92,1.14-4.32A21.08,21.08,0,0,1,101.9,120.6c.22-.11.49-.16.7-.27h.11a1.72,1.72,0,1,0-1.35-3.13,24.65,24.65,0,0,0-11.12,7.67l-1,1.13c.27-2.27.43-4.32.7-6.26.38-2.59.87-5.18,1.14-7.72a7.45,7.45,0,0,1,1.78-3.94,36.87,36.87,0,0,1,9.33-8,5.18,5.18,0,0,0,.87-.6,1.61,1.61,0,0,0,.43-2.21h0a1.62,1.62,0,0,0-2.21-.59,32.16,32.16,0,0,0-3.46,2.21c-1.56,1.13-3,2.32-4.75,3.72.65-2,1.08-3.72,1.68-5.39A42.47,42.47,0,0,1,101.5,84c.11-.11.21-.27.32-.38a1.73,1.73,0,1,0-3-1.72A38.92,38.92,0,0,0,93,91.94a97.91,97.91,0,0,0-5.77,21.75c-.38,2.27-.65,4.48-1,7.07a4.85,4.85,0,0,1-.65-1.18c-.81-2.49-1.56-4.92-2.37-7.4a.59.59,0,0,1-.06-.32h0a1.75,1.75,0,0,0-1.93-1.57H81a1.68,1.68,0,0,0-1.25,2C80.5,117,82,121.36,85.09,125a2,2,0,0,1,.54,1.73c-.27,3.18-.49,6.42-.7,9.6a7.24,7.24,0,0,0,0,1.14,9.56,9.56,0,0,1-7.29-4.86,3.93,3.93,0,0,0-2.91-2.14,6.8,6.8,0,0,1-3.83-10.74h0c1.29-1.67,1.18-2.32-.65-3.46a4.07,4.07,0,0,1-.65-.43,5,5,0,0,1-.71-7.11h0c1.3-1.62,1.24-2.16-.38-3.46a6.91,6.91,0,0,1-.86-9.71,7,7,0,0,1,4.87-2.51c1.45-.11,1.94-.54,2.1-2a4,4,0,0,1,.32-1.57,5.08,5.08,0,0,1,6.47-3,1.89,1.89,0,0,0,2.16-.38A1.79,1.79,0,0,0,83.66,84a4.3,4.3,0,0,1,1.73-5.78,4.18,4.18,0,0,1,3.83-.1c1.73.64,2.81-.22,2.59-2a4.32,4.32,0,0,1,2-4.65c1.62-.91,3.35-.64,5.08.6a2.67,2.67,0,0,0,1.94.43c.86-.16,1-1,1.13-1.89a2.2,2.2,0,0,1,.27-1,3.36,3.36,0,0,1,4.4-1.79h0a3.25,3.25,0,0,1,2,2.54c.37,1.89,1.35,2.37,3.07,1.46a3.92,3.92,0,0,1,.87-.43,5.91,5.91,0,0,1,7.66,3.29h0a2.09,2.09,0,0,0,2.43,1.41h.86a7.69,7.69,0,1,1,.06,15.38h0Z" fill="#fff"/><path d="M141.31,127.5a5.44,5.44,0,0,1,1.67,4.27,5.73,5.73,0,0,1-5.61,5.83h-17a.84.84,0,0,1-.92-.49.8.8,0,0,1,.38-1l.16-.05h17a4.41,4.41,0,0,0,4.48-4.32,4.08,4.08,0,0,0-.43-1.94,3.23,3.23,0,0,0-4.21-1.57l-.27.17a1.91,1.91,0,0,0-1,2.1,1.77,1.77,0,0,0,1.57,1.4,2.35,2.35,0,0,0,.65.06c.11,0,.21-.11.32-.16-.11-.11-.16-.27-.27-.27a.78.78,0,0,1-.75-.81h0v-.06h0a.84.84,0,0,1,.93-.76h.07a1.89,1.89,0,0,1,1.57,1.78,1.85,1.85,0,0,1-1.52,1.78,3.7,3.7,0,0,1-4.15-2.59,3.58,3.58,0,0,1,2.21-4.16A4.62,4.62,0,0,1,141.31,127.5Z" fill="#fff"/><path d="M136.29,70.78c0-1.08.76-1.73,2.05-1.73h12.9c1.35,0,2.11.65,2.11,1.73s-.85,1.72-2.16,1.72h-12.8C137.05,72.5,136.29,71.86,136.29,70.78Z" fill="#fff"/><path d="M154.05,101a21.7,21.7,0,0,0-1.3-4.48,9.47,9.47,0,0,0-6.58-5.72,13.72,13.72,0,0,0-8.21.59,2.25,2.25,0,0,0-1.62,2.48,18.21,18.21,0,0,0,.71,3.51,10.67,10.67,0,0,0,10.09,7.83c1.67-.33,3.18-.6,4.86-1a2.47,2.47,0,0,0,2.15-2.75A2.36,2.36,0,0,0,154.05,101ZM139.8,94.5h0c5.23-2,10,.86,10.63,6.53C146.06,102.74,140.82,100.85,139.8,94.5Z" fill="#fff"/><path d="M135.1,110.18h17.82c1.34,0,2.15.65,2.15,1.73s-.81,1.73-2.1,1.73H135.05c-1.41,0-2.11-.59-2.16-1.73S133.7,110.18,135.1,110.18Z" fill="#fff"/><path d="M141.58,79.36H163a2.75,2.75,0,0,1,2.26.87V82a3,3,0,0,1-2.26.87H142c-1.3,0-2-.49-2.16-1.46a1.66,1.66,0,0,1,1.35-1.92l.11,0C141.36,79.42,141.5,79.36,141.58,79.36Z" fill="#fff"/><path d="M157.07,116.12c-4.37-.54-7.56,1.62-10,5-2.27,3.08-2,4.32,1.19,6.37,5.67,3.73,11.5,2.75,15.6-2.7.54-.75,1-1.56,1.51-2.32v-1.94A12.39,12.39,0,0,0,157.07,116.12ZM149.24,124c2.92-5.29,8.43-5.77,12.37-2.21C159,126.7,153.72,127.89,149.24,124Z" fill="#fff"/></svg>