<svg id="Layer_1" data-name="Layer 1" xmlns="http://www.w3.org/2000/svg" xmlns:xlink="http://www.w3.org/1999/xlink" viewBox="0 0 228 228"><defs><linearGradient id="linear-gradient" x1="26.4" y1="26.4" x2="201.6" y2="201.6" gradientUnits="userSpaceOnUse"><stop offset="0" stop-color="#051911"/><stop offset="1" stop-color="#0f4c32"/></linearGradient></defs><rect x="1.5" y="1.5" width="225" height="225" rx="85" stroke="#fff" stroke-miterlimit="10" stroke-width="3" fill="url(#linear-gradient)"/><path d="M110.77,64.92h0a2,2,0,1,1,2,2,1.9,1.9,0,0,1-2-1.79Z" fill="#fff"/><path d="M122.58,124.79a2,2,0,1,1-2,2A2,2,0,0,1,122.58,124.79Z" fill="#fff"/><path d="M134,81.36a2.05,2.05,0,0,1-2.21-1.88v-.33a2.07,2.07,0,0,1,4.14,0A2.16,2.16,0,0,1,134,81.36Z" fill="#fff"/><path d="M161.64,86.44a11.14,11.14,0,0,0-3.47-5.69,20.16,20.16,0,0,0-12.25-5.07,1.48,1.48,0,0,1-1.49-1.18,18.53,18.53,0,0,0-9.71-10.59,28.91,28.91,0,0,0-13.3-2.38c-1.6.11-2.43.89-2.43,2.1s.94,2,2.43,2c1.82.11,3.7.11,5.41.27,7.5.77,12.58,5.13,14.51,12.14,1.16,4.3.72,8.66.33,13-.61,8.11-1.16,16.17-1.65,24.28a39.4,39.4,0,0,1-.78,6.12c-1.76,7.45-6.4,12.86-12.85,16.72-10.49,6.34-21.89,8.09-33.89,6.16-2.2-.33-4.36-1.16-6.73-1.77.77-1.05,1.33-1.93,1.93-2.65a3.13,3.13,0,0,1,1.33-.71c3.25-.28,6.56-.33,9.76-.72a53.49,53.49,0,0,0,17.49-5.08c.11,0,.11,0,.17-.11a2,2,0,0,0,1-2.63l0-.07c-.55-1.16-1.66-1.38-3-.88-1,.55-2,.93-3,1.38a57.65,57.65,0,0,1-19.2,3.86,41.63,41.63,0,0,1-10.75-.44,15.17,15.17,0,0,1-6.84-3.15c.17-.11.44-.16.61-.27,5.4-1.6,9.32-5.08,12.58-9.61a2.07,2.07,0,0,0,.27-2.37,1.91,1.91,0,0,0-2-1,12.48,12.48,0,0,1-8.22-2.81c-.34-.28-.61-.55-.89-.77l.17-.17,2-.33a25.85,25.85,0,0,0,14.32-6.45,55.58,55.58,0,0,0,6-6.46c3.47-3.91,7.55-6.73,13.07-7.22a15.19,15.19,0,0,1,16.17,11.2c1.21,5.07.16,9.71-2.37,14.18-.78,1.32-.61,2.54.44,3.14s2.26.28,3-1.16a23.4,23.4,0,0,0,3.31-10.2c1.38-15-11.75-23.55-23.62-20.92-.77.17-1.65.45-2.65.72.11-.55.17-.88.28-1.32a43.66,43.66,0,0,1,4-11.2c.77-1.49.71-2.38-.61-3.31a69.49,69.49,0,0,0-6-4,6,6,0,0,1-.77-.55c.77-.45,1.49-.78,2.21-1.16a2.1,2.1,0,0,0,.88-2.71h0a2.16,2.16,0,0,0-2.7-.88,20,20,0,0,0-2.82,1.49,14.55,14.55,0,0,0-3,2.81,2,2,0,0,0,.31,2.81,1.93,1.93,0,0,0,.63.34c.33.17.77.28,1.16.44A25.64,25.64,0,0,1,107,77.36a45.38,45.38,0,0,0-4.54,15.26.84.84,0,0,1-.44.71,34.61,34.61,0,0,0-7.17,7.18c-3.14,3.86-6.84,7-11.7,8.27a45.92,45.92,0,0,1-8.38,1.6c-3.48.34-3.7,2.27-2.43,4.64a8.56,8.56,0,0,0,1.93,2.54,48.05,48.05,0,0,0,5,3.25,19.17,19.17,0,0,0,3,1.16,6.24,6.24,0,0,1-.55.72c-2.81,3-6.45,4.52-10.48,5.35-2.37.44-2.87,1.93-1.6,3.86A14.41,14.41,0,0,0,76,137c2.26.88,4.74,1.6,7.06,2.26-.11.17-.33.44-.55.77L67,161.26c-1.38,1.93-1,3.25,1.21,3.91,1.66.56,3.31.89,5.08,1.33h4.36c2.37-.44,4.63-1.05,6.89-1.66,7.89-2.81,13.63-8.05,18.38-14.78A2.33,2.33,0,0,1,104.7,149a51.76,51.76,0,0,0,19.87-5.08c6.84-3.31,12.47-7.94,16.16-14.79,2.54-4.8,3.31-10,3.48-15.28.27-6.18.77-12.41,1.21-18.59a1.1,1.1,0,0,1,.94-1.16c4.52-1.49,9-3,13.57-4.53C161.64,89,162.09,88.2,161.64,86.44ZM71.71,162a3.49,3.49,0,0,1,.55-.77l10.65-14.68c.33-.44.55-.77,1.21-.44a36.75,36.75,0,0,0,13.3,3,5,5,0,0,1,.94.17C91.79,158.33,80.7,164.13,71.71,162Zm74.37-72.12V79.71c4.53.71,8.56,2.2,11.26,6.4Z" fill="#fff"/></svg>