<svg id="Layer_1" data-name="Layer 1" xmlns="http://www.w3.org/2000/svg" viewBox="0 0 167.74 190"><title>icon_7a</title><path d="M127.6,69.7a5.8,5.8,0,0,1,1,2.1c0,2.5-1.7,3.6-3.6,2.9a40.58,40.58,0,0,1-4.1-2.5c-2.4-1.7-4.8-3.6-7.3-5.5a2.45,2.45,0,0,1-1-3.2.2.2,0,0,1,.2-.2c.8-1.3,2.1-1.3,3.3-.8a31.7,31.7,0,0,1,3.3,1.1,15.75,15.75,0,0,1,3.8,2.2C124.7,67,126.1,68.3,127.6,69.7Z" transform="translate(-28.56 -17.6)" fill="#1bbc9b"/><path d="M195.4,99.2a16.26,16.26,0,0,0-4.1-4.9,46.66,46.66,0,0,0-8.2-5.1C178,87,173,84.8,167.7,83a48.9,48.9,0,0,1-18.9-12.2c-3.5-3.6-7.1-7.3-10.8-10.8-5.2-4.6-10.8-8.7-18.1-9-4.9-.2-9.8-.2-14.6-.2a4,4,0,0,1-3.5-1.3c-7-6.5-15.1-11.3-24.7-12.2a11.59,11.59,0,0,1-7.3-3.6c-2.7-2.7-5.4-5.4-8.1-7.9a35.44,35.44,0,0,0-11.6-8.2H46.9A10.88,10.88,0,0,0,39,26.3c-.3,1.1-.3,2.4-.6,3.5A6.34,6.34,0,0,1,37,32.2c-2.2,2.1-4.6,4-6.8,6.3s-2.1,4.4-.2,7.1l7.9-4.4,5.9,11.4a29.62,29.62,0,0,0-3.6-1,30.25,30.25,0,0,0-6.7-1.1c-4,0-5.9,3.2-4,6.7C40,76.8,53.6,94.1,69,110a30,30,0,0,1,7.6,12.5,77.72,77.72,0,0,1,3.2,20.8c.5,17.7-2.1,35.2-5.2,52.6-.6,3.5-1.4,7.1-2.2,10.9L74,206c7-3.2,14.1-6.7,21.2-9.5,9.5-3.6,19.3-6.3,29.6-5.9a20.94,20.94,0,0,1,15.5,6.7,31.42,31.42,0,0,0,11.9,8.2,70.49,70.49,0,0,0,7.1,2.1h6.5l1.3-.5a25.35,25.35,0,0,0,12.2-5.9c-.2-.2-.2-.3-.2-.3a1.1,1.1,0,0,0-.6-.3c-3.6-.6-5.4-3.2-6-6.5a149.77,149.77,0,0,1-3.2-15.1,156.12,156.12,0,0,1-1.4-21.7c0-10-.2-20-2.4-29.8-1-4.4-2.5-8.7-3.8-13.2a8.51,8.51,0,0,1,1.7-.6c7.9-2.4,15.7-4.8,23.6-7.1a72.22,72.22,0,0,0,6.7-2.7C196.5,103,197,101.7,195.4,99.2Zm-4.9,1.7-36,11.1c1.6,3.5,3,6.5,4.1,9.7,4,11.6,4.3,23.6,4.3,35.8a167.23,167.23,0,0,0,1.6,22.3c1,5.5,2.1,11.1,3.6,16.6a45.51,45.51,0,0,0,2.1,5.1,18.51,18.51,0,0,1-10.1,1.4,25.23,25.23,0,0,1-11.6-4.8,35.76,35.76,0,0,1-3.6-3c-7.6-8.9-17.7-10-28.4-8.9-12.2,1.3-23.5,5.5-34.5,10.5L79.1,198c.8-4.9,1.7-9.5,2.4-14.3,2.5-16,4.1-32,2.5-48.2-.8-8.1-2.2-16.2-6.7-23.1a43.17,43.17,0,0,0-3.6-4.6A238.35,238.35,0,0,1,35,57.2c-.3-.5-.5-1.1-1.1-2.1,3,.8,5.2,1.4,7.6,1.9,3.5.8,6-.3,6.7-3.2a4.09,4.09,0,0,0-.2-2.7c-1.1-2.5-2.4-5.2-3.6-7.6a11.71,11.71,0,0,1-1.6-7.6c.5-2.9.5-6,.8-9a8.18,8.18,0,0,1,1-2.4,1.33,1.33,0,0,0,.3-.5,4.39,4.39,0,0,1,5.9-1c2.5,1.9,5.1,3.8,7.4,5.9,2.9,2.5,5.5,5.2,8.1,7.9A14.94,14.94,0,0,0,76,41.7c9.3,1,16.8,5.5,23.3,11.9a5.22,5.22,0,0,0,4.8,1.7c3.2-.3,6.3-.2,9.5-.3a28.47,28.47,0,0,1,21.7,8.9c3.3,3.3,7,6.7,10.1,10.1a52.63,52.63,0,0,0,21.1,13.6,167,167,0,0,1,17.9,7.8,43.62,43.62,0,0,1,6.5,4.8Z" transform="translate(-28.56 -17.6)" fill="#1bbc9b"/></svg>