<svg id="Layer_1" data-name="Layer 1" xmlns="http://www.w3.org/2000/svg" xmlns:xlink="http://www.w3.org/1999/xlink" viewBox="0 0 228 228"><defs><linearGradient id="linear-gradient" x1="26.4" y1="26.4" x2="201.6" y2="201.6" gradientUnits="userSpaceOnUse"><stop offset="0" stop-color="#051911"/><stop offset="1" stop-color="#0f4c32"/></linearGradient></defs><rect x="1.5" y="1.5" width="225" height="225" rx="85" stroke="#fff" stroke-miterlimit="10" stroke-width="3" fill="url(#linear-gradient)"/><path d="M151,117.27a54.09,54.09,0,0,0-9.24-21.36c-3-4.3-6.22-8.5-9.19-12.86-3.45-5-5.79-10.62-5.79-16.84a2.65,2.65,0,0,0-1.6-2.71l-1.27.11-.74.58a54,54,0,0,0-17.69,22.9c-2.61,6.38-3.35,13.12-3.78,19.92-.16,2.18-.16,4.47-.26,6.75a10,10,0,0,1-4.2-2,15.74,15.74,0,0,1-4.36-6.26c-.74-2-1.32-4-1.86-6.06s-1.91-2.71-3.71-1.59c-.27.16-.59.42-.85.58a19.64,19.64,0,0,0-6,7.6,44.07,44.07,0,0,0-3.14,29.27c3.61,14.66,13,24,27.52,28,2.13.58,4.36.74,6.59,1.17h5.15l2.55-.32c12.81-2,22.21-8.66,28.37-19.92C152.19,135.5,152.66,126.5,151,117.27ZM126.1,150.63A12.46,12.46,0,0,1,114.89,160a11.2,11.2,0,0,1-8-2.34c-6.16-4.51-6.37-12.85-4-18.33.31.59.69,1.12,1,1.6a7.27,7.27,0,0,0,5.32,3.29,2.25,2.25,0,0,0,2.71-1.66,2.28,2.28,0,0,0,0-.78c.16-2.76.27-5.63.69-8.4.48-3.29,2.18-6.05,4.3-8.76.16.42.27.74.43,1.17.9,1.7,1.86,3.45,2.87,5.15,1.17,1.86,2.55,3.61,3.61,5.47C126.31,140.8,127.5,145.58,126.1,150.63Zm21.4-21.13c-1.28,12.7-8,21.89-19.45,27.52a.2.2,0,0,0-.16.1,54,54,0,0,0,2.45-6.37,21.75,21.75,0,0,0-2.91-16.25,68,68,0,0,0-3.93-6,15,15,0,0,1-3-8.18,2.05,2.05,0,0,0-.58-1.54,1.93,1.93,0,0,0-2.73-.14l-.14.14a23.46,23.46,0,0,0-8.82,15c-.27,1.6-.32,3.3-.75,5-.31-.74-.85-1.54-1.11-2.34a10.48,10.48,0,0,1-.48-1.91,3,3,0,0,0-.42-1,2.11,2.11,0,0,0-2.93-.42,10.13,10.13,0,0,0-3.87,5.47c-2,6.37-1.92,12.69,2.12,18.59-.27-.11-.48-.16-.74-.26-10.84-5.48-17.43-14-19-26.09a40.11,40.11,0,0,1,3.34-22.95,47.09,47.09,0,0,1,3.14-5c1,2.29,1.75,4.31,2.76,6.22a16.92,16.92,0,0,0,7,7.41,12.46,12.46,0,0,0,6,1.54c1.75,0,2.44-.69,2.55-2.44.1-3.61.16-7.22.32-10.78.58-13.66,6-25,16-34.32.26-.27.53-.43.69-.59.69,2.34,1.17,4.62,2,6.91,1.75,4.78,4.72,8.92,7.65,13.12,3.13,4.36,6.32,8.66,9.08,13.23A43.15,43.15,0,0,1,147.5,129.5Z" fill="#fff"/></svg>