<svg id="Layer_1" data-name="Layer 1" xmlns="http://www.w3.org/2000/svg" viewBox="0 0 190.24 185.14"><title>icon_2a</title><path d="M150.5,57.2a20.57,20.57,0,0,0-19.9-21.3,2.14,2.14,0,0,1-1.6-1,17.85,17.85,0,0,0-19.9-8,1.15,1.15,0,0,1-1.4-.5,14.11,14.11,0,0,0-9.1-6.5H94.3c-4.1,1.3-7.5,3.3-9.4,7.6a14.33,14.33,0,0,0-12.9.6,14,14,0,0,0-7.2,10.8A14.22,14.22,0,0,0,53.2,43a14,14,0,0,0-4,11.5c-.6,0-1.1.2-1.6.2A15.86,15.86,0,0,0,33.9,66a2.34,2.34,0,0,1-2.1,1.9A18.85,18.85,0,0,0,17.3,87.6a18.51,18.51,0,0,0,5.6,12.2c-3.7,7.8-3,14.5,2.2,19.7h0a2.06,2.06,0,0,1,.5,2.9c0,.2-.2.3-.2.5A18.81,18.81,0,0,0,34.6,148a67.16,67.16,0,0,1,7.3,5.6A25.1,25.1,0,0,0,58,162.3v41.4c2.1,1.9,4.1,1.6,6.7.2V163.7a2,2,0,0,1,1.3-1.4c1.9-.5,3.7-1,5.4-1.6,3-1.4,5.9-3.3,8.6-4.9a58,58,0,0,0,7.5,4.6c14,6.2,27-1.1,30.2-12.7a2.93,2.93,0,0,1,1.6-1.3,22.71,22.71,0,0,0,4.6-1.6,18.89,18.89,0,0,0,8.3-25.6,3.31,3.31,0,0,1,0-2.4,19.74,19.74,0,0,0,2.1-8.9,2.79,2.79,0,0,1,1-2.1c.8-.6,1.6-1.3,2.4-1.9a19.36,19.36,0,0,0,1-27.2,5.22,5.22,0,0,1-.8-1.1c.2-.2.3-.3.5-.3A20.26,20.26,0,0,0,150.5,57.2ZM129.8,70.7h-1.7a3.51,3.51,0,0,0-2.4,1.7,3.17,3.17,0,0,0,1.4,4.3,7,7,0,0,0,1.9.6,12.91,12.91,0,0,1,1.4,24c-2.7,1.3-3,2.1-2.4,4.9a9.51,9.51,0,0,1-2.1,8.7c-1.7,2.1-1.7,3-.2,5.2a11.86,11.86,0,0,1,1.1,12.9,12.34,12.34,0,0,1-11,7.3c-2.4.2-3.3,1-3.7,3.2-1.6,9.4-9.4,14.3-18.6,11.9A19.67,19.67,0,0,1,83.2,149c-2.4-2.7-4-2.7-6.4,0a19.89,19.89,0,0,1-12.2,6.7c.6-2.7,1.3-5.4,2.1-8a39.32,39.32,0,0,1,23.1-23.1l1.3-.5h.2a3,3,0,0,0,1.6-4.1,3.2,3.2,0,0,0-4.1-1.6,44.59,44.59,0,0,0-20.5,14.2l-1.7,2.1c.5-4.1.8-8,1.3-11.6.6-4.8,1.6-9.5,2.1-14.3a16.21,16.21,0,0,1,3.3-7.3A65.62,65.62,0,0,1,90.5,86.7a7.64,7.64,0,0,0,1.6-1.1,3.12,3.12,0,0,0,.8-4.1v-.2a3,3,0,0,0-4-1.1,62.87,62.87,0,0,0-6.4,4.1c-2.9,2.1-5.6,4.5-8.7,6.8,1.4-3.7,2.2-6.8,3.3-10A79.19,79.19,0,0,1,89.7,56.6a2.41,2.41,0,0,0,.6-.8,3.12,3.12,0,0,0-1.1-4.3,3.07,3.07,0,0,0-4.3,1.1A73.51,73.51,0,0,0,74.1,71.2a179.35,179.35,0,0,0-10.7,40.2c-.6,4.1-1.3,8.3-1.9,13a8,8,0,0,1-1.3-2.2c-1.4-4.6-3-9.1-4.5-13.7a.85.85,0,0,1-.2-.6h0a3.25,3.25,0,0,0-3.7-2.9h-.3a3.05,3.05,0,0,0-2.2,3.7c1.4,8.6,4.1,16.7,9.9,23.5a4.13,4.13,0,0,1,1,3.2c-.5,5.9-1,11.8-1.3,17.8a6.82,6.82,0,0,0-.2,2.1,17.78,17.78,0,0,1-13.5-8.9,7.2,7.2,0,0,0-5.4-4,13.18,13.18,0,0,1-4.8-2.2,12.49,12.49,0,0,1-2.2-17.7c2.4-3,2.2-4.3-1.1-6.4a9.13,9.13,0,0,1-1.3-.8,9.37,9.37,0,0,1-1.3-13.2c2.4-3,2.2-4-.6-6.4a12.64,12.64,0,0,1,7.3-22.4c2.7-.2,3.7-1,3.8-3.7a7.53,7.53,0,0,1,.6-2.9,9.54,9.54,0,0,1,12.1-5.6,3.54,3.54,0,0,0,4-.8,3.17,3.17,0,0,0,.2-4,7.64,7.64,0,0,1-.2-7.2,7.89,7.89,0,0,1,10.5-3.8c3.2,1.3,5.2-.3,4.8-3.8a8,8,0,0,1,3.8-8.6c3-1.7,6.2-1.3,9.4,1.1a5.65,5.65,0,0,0,3.5.8c1.6-.3,1.9-1.9,2.1-3.5a4.49,4.49,0,0,1,.5-1.9A6.14,6.14,0,0,1,99,26.1a6,6,0,0,1,3.8,4.8c.8,3.5,2.5,4.3,5.7,2.7a11.94,11.94,0,0,1,1.6-.8A11,11,0,0,1,124.3,39a4,4,0,0,0,4.5,2.7h1.6a14.34,14.34,0,0,1,14,14.5C144.2,64.5,137.6,70.9,129.8,70.7Z" transform="translate(-17.26 -19.9)" fill="#1bbc9b"/><path d="M163.1,137.4a10,10,0,0,1,3,7.8A10.53,10.53,0,0,1,155.8,156H124.3a1.37,1.37,0,0,1-1.7-1,1.46,1.46,0,0,1,.8-1.9c.2,0,.2,0,.3-.2h1c10.2,0,20.4-.2,30.5,0a8.15,8.15,0,0,0,8.3-8,8,8,0,0,0-.8-3.7,5.78,5.78,0,0,0-7.8-2.9,1.33,1.33,0,0,1-.5.3,3.86,3.86,0,0,0-1.9,3.8,3.4,3.4,0,0,0,2.9,2.7,2.15,2.15,0,0,0,1.1.2c.2,0,.3-.2.5-.3-.2-.2-.3-.5-.5-.5a1.55,1.55,0,0,1-1.4-1.6h0a1.72,1.72,0,0,1,1.8-1.3h.2a3.42,3.42,0,0,1,2.9,3.3,3.33,3.33,0,0,1-2.7,3.3,6.65,6.65,0,0,1-7.6-4.8,6.48,6.48,0,0,1,4-7.6A9.31,9.31,0,0,1,163.1,137.4Z" transform="translate(-17.26 -19.9)" fill="#1bbc9b"/><path d="M153.9,32.6c0-2.1,1.4-3.2,3.8-3.2h23.9c2.4,0,4,1.3,4,3.2s-1.4,3.2-4,3.2H157.9C155.1,35.7,153.7,34.6,153.9,32.6Z" transform="translate(-17.26 -19.9)" fill="#1bbc9b"/><path d="M186.5,88.4a39.49,39.49,0,0,0-2.4-8.3,18.41,18.41,0,0,0-12.2-10.7,24.38,24.38,0,0,0-15.1,1.1,4.18,4.18,0,0,0-3,4.6,27.76,27.76,0,0,0,1.3,6.5,19.87,19.87,0,0,0,18.6,14.5c3-.6,5.9-1.1,9.1-1.9C185.8,93.5,187.3,91.4,186.5,88.4ZM160.2,76.3h0c9.7-3.7,18.6,1.6,19.7,12.1C171.8,91.7,162.1,88.2,160.2,76.3Z" transform="translate(-17.26 -19.9)" fill="#1bbc9b"/><path d="M151.6,105.4h32.9c2.5,0,4,1.1,4,3.2s-1.4,3.2-3.8,3.2H151.5c-2.5,0-4-1.1-4-3.2S148.9,105.4,151.6,105.4Z" transform="translate(-17.26 -19.9)" fill="#1bbc9b"/><path d="M163.6,48.5h39.6a5.3,5.3,0,0,1,4.3,1.6v3.2a5.64,5.64,0,0,1-4.3,1.6h-39c-2.4,0-3.8-1-4-2.7a3.38,3.38,0,0,1,2.7-3.7Z" transform="translate(-17.26 -19.9)" fill="#1bbc9b"/><path d="M192.2,116.4c-8.1-1-14,3-18.6,9.4-4.1,5.7-3.7,8,2.2,11.8,10.5,7,21.3,5.1,28.8-4.9,1-1.4,1.9-2.9,2.9-4.3v-3.5A22.64,22.64,0,0,0,192.2,116.4ZM177.7,131c5.4-9.7,15.6-10.7,22.9-4.1C195.7,136,186,138.2,177.7,131Z" transform="translate(-17.26 -19.9)" fill="#1bbc9b"/></svg>