<svg id="Layer_1" data-name="Layer 1" xmlns="http://www.w3.org/2000/svg" xmlns:xlink="http://www.w3.org/1999/xlink" viewBox="0 0 228 228"><defs><linearGradient id="linear-gradient" x1="26.4" y1="26.4" x2="201.6" y2="201.6" gradientUnits="userSpaceOnUse"><stop offset="0" stop-color="#051911"/><stop offset="1" stop-color="#0f4c32"/></linearGradient></defs><rect x="1.5" y="1.5" width="225" height="225" rx="85" stroke="#fff" stroke-miterlimit="10" stroke-width="3" fill="url(#linear-gradient)"/><path d="M74.9,155.91v1.21a1,1,0,0,1-1,.93H72.65a.93.93,0,0,1-.94-.92h0v-1.21a.93.93,0,0,1,.92-.94h1.23a.88.88,0,0,1,1,.7A1,1,0,0,1,74.9,155.91Z" fill="#fff"/><path d="M85.27,148.66v-1.37a.92.92,0,0,1,.91-.93h1.4a.93.93,0,0,1,.93.93v1.37a.93.93,0,0,1-.92.94H86.2a.9.9,0,0,1-.93-.87Z" fill="#fff"/><path d="M98.72,154.15h0v4.78l-1.65,2.69-1.59,1a1,1,0,0,1-1.21-.11,3.26,3.26,0,0,0-4.62,0l-.15.15a3.18,3.18,0,0,0-.88,1.59,1.12,1.12,0,0,1-.94.77H86.09a.94.94,0,0,1-.93-.77,6.72,6.72,0,0,0-5.93-5.93,1,1,0,0,1-.76-.93v-1.43a1,1,0,0,1,.93-1h.1a10.42,10.42,0,0,1,7.24,4.34,1,1,0,0,0,1.32.27,6.65,6.65,0,0,1,6-.88,1,1,0,0,0,1.21-.71v-3.62a.93.93,0,0,1,.92-.94h1.38a.86.86,0,0,1,1.1.52A.7.7,0,0,1,98.72,154.15Z" fill="#fff"/><path d="M102.28,138.35V128.8a1.2,1.2,0,0,1,1.16-1.16h1.15a1.2,1.2,0,0,1,1.15,1.16v9.55a1.12,1.12,0,0,1-1.09,1.15h-1.21A1.16,1.16,0,0,1,102.28,138.35Z" fill="#fff"/><path d="M104.64,156.4h-1.59a.94.94,0,0,1-.88-.77v-.13a6.63,6.63,0,0,0-6.42-5.76H93.06a.92.92,0,0,1-.93-.91v0h0v-1.59a.88.88,0,0,1,.81-.93H93c5-.44,9.33.88,11.74,5.93a11.14,11.14,0,0,1,.88,3,1,1,0,0,1-.71,1.16A.67.67,0,0,1,104.64,156.4Z" fill="#fff"/><path d="M106.73,144.5a1,1,0,0,1-1-1v-1.21a1,1,0,0,1,1-1h1.21a1,1,0,0,1,1,1v1.21a1,1,0,0,1-1,1Z" fill="#fff"/><path d="M112.38,120.35v.76a1.18,1.18,0,0,1-1.15,1.21h-.93a1.18,1.18,0,0,1-1.21-1.15v-.82a1.18,1.18,0,0,1,1.15-1.21h.93A1.25,1.25,0,0,1,112.38,120.35Z" fill="#fff"/><path d="M109.09,127.5a1.65,1.65,0,0,1,3.29,0v1.65a1.65,1.65,0,0,1-3.29.26,1.13,1.13,0,0,1,0-.26Z" fill="#fff"/><path d="M112.5,148.17v5.93a1.18,1.18,0,0,1-1.16,1.2h-.92a1.17,1.17,0,0,1-1.21-1.13v-6a1.19,1.19,0,0,1,1.17-1.21h.91a1.19,1.19,0,0,1,1.21,1.17Z" fill="#fff"/><path d="M117.38,125.72v.55a1.36,1.36,0,0,1-1.35,1.37h-.53a1.36,1.36,0,0,1-1.37-1.35v-.57a1.37,1.37,0,0,1,1.37-1.37h.55A1.4,1.4,0,0,1,117.38,125.72Z" fill="#fff"/><path d="M116.39,147.9h-1a1.2,1.2,0,0,1-1.15-1.16V142.3a1.18,1.18,0,0,1,1.15-1.15h1a1.19,1.19,0,0,1,1.11,1.15v4.44A1.29,1.29,0,0,1,116.39,147.9Z" fill="#fff"/><path d="M117.5,135.66v.93a1.21,1.21,0,0,1-1.15,1.15h-1a1.21,1.21,0,0,1-1.15-1.15v-.93a1.2,1.2,0,0,1,1.15-1.16h.94a1.11,1.11,0,0,1,1.21,1Z" fill="#fff"/><path d="M64,91.2,61.89,89v-.16a3.76,3.76,0,0,0,.88-.71c8-8,16.08-16.08,24-24.1,1.48-1.48,2.08-1.48,3.56,0l8.07,8.07a.43.43,0,0,0,.61,0h0l.54-.44,6.26-6.25c1-.94,1.92-1,2.85-.11,3.85,3.73,7.63,7.57,11.42,11.41.11.11.16.17.16.28s0,.27-.11.32h0L118.32,79a.41.41,0,0,1-.59,0h0c-3.29-3.29-6.53-6.58-9.82-9.93a.43.43,0,0,0-.61,0h0l-5.54,5.6a.41.41,0,0,0,0,.59h0l3,2.85a.45.45,0,0,1,0,.61h0L103,80.39a.41.41,0,0,1-.59,0h0l-.11-.11L89.06,67.39a.43.43,0,0,0-.61,0h0L64.58,91.2a.35.35,0,0,1-.6,0Z" fill="#fff"/><path d="M116.06,153.22v-.33c.6-2.63,3.29-4.61,6.58-4.88a1.5,1.5,0,0,1,1.65,1.34v.47a1.65,1.65,0,0,1-1.48,1.59,3.35,3.35,0,0,0-3.4,2.36,1.48,1.48,0,0,1-1.38,1h-.44A1.57,1.57,0,0,1,116.06,153.22Z" fill="#fff"/><path d="M125.94,155.8v3.29a.87.87,0,0,1-.86.88h-1.94a5.24,5.24,0,0,0-5,2.63,1.72,1.72,0,0,1-2.25.72,1.42,1.42,0,0,1-.71-.72c-2.42-3.45-6-3.67-8.68-.44a.89.89,0,0,1-1,.28l-1.48-.77a.86.86,0,0,1-.36-1.16l0,0h0c2.25-4.28,8.07-5.1,12.62-1.92a.91.91,0,0,0,1.16,0,8.28,8.28,0,0,1,4.71-1.92,1,1,0,0,0,.77-.77.85.85,0,0,1,.88-.77h1.59C125.61,154.92,125.94,155.3,125.94,155.8Z" fill="#fff"/><path d="M128.74,151.3a.93.93,0,0,1-.94-.92V149a.92.92,0,0,1,.91-.93h1.34a.93.93,0,0,1,.94.92h0v1.37a.93.93,0,0,1-.92.94h-1.33Z" fill="#fff"/><path d="M141.41,158.43l.77,3.3a3.68,3.68,0,0,0-2.63,3.29.11.11,0,0,1-.11.11h-2.8a1.19,1.19,0,0,1-.55-.44c-1-3.24-3.46-3.9-6.2-1.59h-.11l-2.53-1.81v-.11c2.2-3.46,6.81-3.74,10.43-.61h.11A8.45,8.45,0,0,1,141.41,158.43Z" fill="#fff"/><path d="M149.15,159.09v1.48a.87.87,0,0,1-.86.88h-1.5a.87.87,0,0,1-.88-.86v-1.5a.87.87,0,0,1,.86-.88h1.5a.87.87,0,0,1,.88.86Z" fill="#fff"/><path d="M165.5,105.2a1,1,0,0,1,.07,1.41.46.46,0,0,1-.07.07h0l-.94.88a1.11,1.11,0,0,1-1.48-.11L161,105.09a1.09,1.09,0,0,0-1.48-.11h0L150,114.5c-1.48,1.49-2.09,1.49-3.57,0l-6-6a1,1,0,0,0-1.41-.07l-.07.07-.11.11a1.53,1.53,0,0,1-.61.6l-5.21,5.22a4.15,4.15,0,0,1-3,1.21,5.72,5.72,0,0,0-1.37.11c-1.76.32-2.64,1.75-2.64,3.84V143.5a1,1,0,0,1-1,1.05h-1.37a1,1,0,0,1-1-1v-.05h0v-22a15.47,15.47,0,0,1,.33-4.5,1.1,1.1,0,0,0-.72-1.32c-.11,0-.16-.11-.32-.11H104.2a9.52,9.52,0,0,0-3,.44,2.93,2.93,0,0,0-2.42,3.29v22.34a1,1,0,0,1-1,1H96.36a1,1,0,0,1-1-1h0v-22a17.17,17.17,0,0,1,.72-3.46,1.07,1.07,0,0,0-.17-.93c-2.19-2.25-4.33-4.44-6.58-6.69a1,1,0,0,0-1.41-.08.6.6,0,0,0-.08.08l-6,6c-1.48,1.48-2.25,1.48-3.56-.11-2.64-3-5.11-6-7.74-9a1,1,0,0,0-1.4-.18l-.08.07-.22.11-3.85,4a1,1,0,0,1-1.41.13l-.08-.08-1-1,.11-1.65c1.48-1.37,2.85-2.8,4.34-4.17l1.37-1.37c1.15-1.16,2-1.16,3.13.11,2.68,3,5.32,6.2,8,9.33l.11.11A1.09,1.09,0,0,0,81,111h.11l5.32-5.33.88-.88a1.8,1.8,0,0,1,2.52-.33,1.72,1.72,0,0,1,.33.33l8.07,8.07a1.45,1.45,0,0,0,1.76.44,15.19,15.19,0,0,1,4.06-.77c8.51-.11,17,0,25.46,0a2.19,2.19,0,0,0,1.65-.71L138,105c1.37-1.37,2.08-1.37,3.4,0l6.09,6.1a1,1,0,0,0,1.41.07l.07-.07.11-.11,9.5-9.55c1.2-1.21,1.92-1.21,3.12,0Z" fill="#fff"/><path d="M106.73,96.86,131.1,72.5c1.31-1.32,2-1.32,3.29,0l7.3,7.3a1.63,1.63,0,0,0,2.3.11,1.14,1.14,0,0,0,.11-.11l.11-.11c1.92-2,3.84-3.9,5.82-5.82a1.69,1.69,0,0,1,2.36-.37l.05,0,.28.28L166,87.09c0,.11.11.11.11.16L165,88.41a1.64,1.64,0,0,1-2.32.1.94.94,0,0,1-.1-.1l-9.82-9.83a1.57,1.57,0,0,0-2.22-.14.93.93,0,0,0-.14.14h0l-3.73,3.73a1.66,1.66,0,0,0-.14,2.33l0,0h.11l1.31,1.21a1.63,1.63,0,0,1,.12,2.3l-.12.12h0l-.11.11a1.71,1.71,0,0,1-2.33-.11L133.29,76.11a.86.86,0,0,0-1.21,0h0L109.64,98.56a1.77,1.77,0,0,1-2.36,0l-.61-.61A.82.82,0,0,1,106.73,96.86Z" fill="#fff"/></svg>