<svg id="Layer_1" data-name="Layer 1" xmlns="http://www.w3.org/2000/svg" xmlns:xlink="http://www.w3.org/1999/xlink" viewBox="0 0 228 228"><defs><linearGradient id="linear-gradient" x1="26.4" y1="26.4" x2="201.6" y2="201.6" gradientUnits="userSpaceOnUse"><stop offset="0" stop-color="#051911"/><stop offset="1" stop-color="#0f4c32"/></linearGradient></defs><rect x="1.5" y="1.5" width="225" height="225" rx="85" stroke="#fff" stroke-miterlimit="10" stroke-width="3" fill="url(#linear-gradient)"/><path d="M159.84,102.5a4.16,4.16,0,0,1-1.66-3.09A18.66,18.66,0,0,0,142,83a15.86,15.86,0,0,0-10.17,2.21,2,2,0,0,0-.72.61,1.69,1.69,0,0,0,.45,2.36l.1.07a2.13,2.13,0,0,0,2.27-.27,13.58,13.58,0,0,1,15.25,1.6A15.86,15.86,0,0,1,155,101.84a2.15,2.15,0,0,0,1.05,2.1c5.08,2.87,7.18,7.46,7,13.15a13.11,13.11,0,0,1-9.9,12.28,2.49,2.49,0,0,0-1.93,1.6,12.5,12.5,0,0,1-6.91,6.13,13.5,13.5,0,0,1-1.77.45,1.78,1.78,0,0,1-.11-.61v-14a2.75,2.75,0,0,1,.61-1.33c2.54-2.37,5.08-4.64,7.63-7a1.75,1.75,0,0,0,.51-2.42A1.3,1.3,0,0,0,151,112a1.8,1.8,0,0,0-2.54-.07l-.17.18c-1.6,1.38-3.1,2.82-4.64,4.2l-1.31,1.23V106.29c0-1.49-1-2.38-2.21-1.93a2,2,0,0,0-1.22,2.1V127a9.1,9.1,0,0,1-1-.94c-1.66-1.49-3.26-3.09-5-4.53a2.22,2.22,0,0,0-1.83-.44,1.87,1.87,0,0,0-1.05,1.33,2.54,2.54,0,0,0,.78,1.76c2.43,2.38,5,4.65,7.51,7,.28.28.61.61.61.89v5.64c-.11,0-.27.11-.33.11a1.18,1.18,0,0,1-.55-.11,12.72,12.72,0,0,1-8.52-6.67,2.8,2.8,0,0,0-1.77-1.49,12.65,12.65,0,0,1-9.45-11.39,13.39,13.39,0,0,1,5.85-13.43,3.29,3.29,0,0,0,1.61-2.71,15.85,15.85,0,0,1,2.87-9c.72-1.16.61-2.1-.27-2.71s-1.83-.27-2.55.78a19.72,19.72,0,0,0-3.42,10,1.5,1.5,0,0,1-.56,1,17,17,0,0,0-7,12.71c-.75,7.74,3.69,15.3,11,17.74a1.62,1.62,0,0,1,.94.72A16.39,16.39,0,0,0,139,141.4v10.34c-.78.33-1,.11-1.16-.72a10.81,10.81,0,0,0-6.86-8.68,2.51,2.51,0,0,1-1-.94,10.56,10.56,0,0,0-6-4.75,1.83,1.83,0,0,1-.94-.94c-1.49-4.15-4.31-6.58-8.56-7.19s-7.35,1.16-9.84,4.48a1.6,1.6,0,0,1-1,.61,10.82,10.82,0,0,0-7.46,4.2,5.4,5.4,0,0,0-.56.61,9.1,9.1,0,0,0-7.35-5.64V128.4a1.17,1.17,0,0,1,.28-.17.93.93,0,0,1,.55-.16,14.77,14.77,0,0,0,9.46-6.47,4,4,0,0,1,2.38-1.82c11.33-3.93,14.2-19.73,5.08-27.8a8.31,8.31,0,0,1-2.87-5.09c-2-8.24-9.4-14.92-18.41-14.32a15.86,15.86,0,0,0-8.56,3.16.11.11,0,0,0-.11.11h0a1.76,1.76,0,0,0-.45,2.37l.12.11a1.69,1.69,0,0,0,2.36.38.18.18,0,0,0,.07,0,2.06,2.06,0,0,1,.55-.33,12.85,12.85,0,0,1,15.14.45,15,15,0,0,1,6,11.93A2.29,2.29,0,0,0,101,93c5.2,3.1,7.19,7.79,6.47,13.6A12.38,12.38,0,0,1,98,117.18a3.29,3.29,0,0,0-1.71,1.32A12.1,12.1,0,0,1,92,123.25c-1.22.72-2.54,1.22-3.92,1.93a2.25,2.25,0,0,1-.11-.77V111.1a2.24,2.24,0,0,1,.6-1.16c2.27-2.1,4.54-4.2,6.86-6.3,1.32-1.22,1.6-2.21.72-3.1s-1.77-.72-3.1.56L88,105.74V95.29A3.48,3.48,0,0,0,87.82,94a1.71,1.71,0,0,0-2.25-.92,1.73,1.73,0,0,0-1,1.19V114.5c-.44-.44-.72-.61-.94-.88-1.49-1.33-3-2.71-4.48-4a3.91,3.91,0,0,0-.94-.72,1.63,1.63,0,0,0-2,.72,1.72,1.72,0,0,0,.44,2.38h0c2.44,2.27,4.92,4.48,7.36,6.74.27.28.6.61.6.89v5.25h-.33a.64.64,0,0,1-.44-.11,11.71,11.71,0,0,1-8-6.3,3.61,3.61,0,0,0-2-1.66,11.55,11.55,0,0,1-3.43-1.6c-7.46-5.09-7.29-17,.45-22a2.45,2.45,0,0,0,1.38-2.43A16,16,0,0,1,74,83.59a1.79,1.79,0,0,0-.39-2.51,1.64,1.64,0,0,0-.22-.14c-.94-.55-1.83-.16-2.43,1a21.82,21.82,0,0,0-2.15,7.66,2,2,0,0,1-.72,1.21,15.89,15.89,0,0,0-6,9,26.75,26.75,0,0,0-.61,2.65v3.76a60.52,60.52,0,0,0,2.27,6.69A14.77,14.77,0,0,0,72.09,120a1.25,1.25,0,0,1,.94.72,15.61,15.61,0,0,0,11.58,7.8c0,1.49.11,3,0,4.47a1.27,1.27,0,0,1-.55.72,9.81,9.81,0,0,0-3.7,3,1.57,1.57,0,0,1-.94.55A9.06,9.06,0,0,0,72,143.93a1.51,1.51,0,0,1-.89.94A10.94,10.94,0,0,0,65.88,151c-.28.78-.17.61-.28.78a11.07,11.07,0,0,0-.44,1.38c-.11.33,0,.44.11,1.16a2.46,2.46,0,0,0,2.54,1.16h74.45l-.11-3.43V141.5a1.17,1.17,0,0,1,.28-.17,15.81,15.81,0,0,0,11.22-7.9,1.85,1.85,0,0,1,.88-.61c6.69-2.1,10.45-6.74,11.56-13.43A16.38,16.38,0,0,0,159.84,102.5ZM69.08,151.84a7.11,7.11,0,0,1,4-4.15,2.73,2.73,0,0,0,2-2.54,5.15,5.15,0,0,1,5.19-4.53A2.47,2.47,0,0,0,82.82,139a5.14,5.14,0,0,1,9.56,1.77,2,2,0,0,0,1.93,2,5.6,5.6,0,0,1,4.2,3.15,3.23,3.23,0,0,0,1.5,1.33,5.92,5.92,0,0,1,4.14,4.64H69.08Zm64,.11h-24.2c-.89,0-1.16-.28-1.33-1.16a9.16,9.16,0,0,0-5.36-6.58,6.54,6.54,0,0,1-1.16-.94c-.88-.94-1.77-1.94-2.65-3a6.53,6.53,0,0,1,5.86-3.15,2.6,2.6,0,0,0,2.7-1.65,6.65,6.65,0,0,1,6.91-3.49,6.86,6.86,0,0,1,5.7,5.64c.27,1.66.55,1.94,2.21,2.21a6.47,6.47,0,0,1,5.08,3.87,2.91,2.91,0,0,0,2,1.77,7.22,7.22,0,0,1,5.2,6.41,4.3,4.3,0,0,1-.95.07Z" fill="#fff"/></svg>