<svg id="Layer_1" data-name="Layer 1" xmlns="http://www.w3.org/2000/svg" viewBox="0 0 190 155.43"><title>icon_6a</title><rect x="6.9" y="87.6" width="13.4" height="6.5" fill="#7f551d"/><path d="M44.5,136v54.2H22.3a5.17,5.17,0,0,1-4.8-2.3V138.3a4.76,4.76,0,0,1,4.6-2.3Z" transform="translate(-17.5 -34.8)" fill="#7f551d"/><rect x="37.6" y="101.2" width="6.5" height="53.9" fill="#7f551d"/><path d="M111.8,131a19.41,19.41,0,0,0-3-11.3,9.34,9.34,0,0,0-2.8-2.8,8.84,8.84,0,0,0-12,2.8,22.67,22.67,0,0,0,0,22.8,9.34,9.34,0,0,0,2.8,2.8,8.84,8.84,0,0,0,12-2.8A20.25,20.25,0,0,0,111.8,131Zm-1.8,0h0a17.89,17.89,0,0,1-2.5,10.1,7.2,7.2,0,0,1-2.6,2.6,7,7,0,0,1-9.7-2.6,21.08,21.08,0,0,1,0-20.1,6.24,6.24,0,0,1,2.5-2.6,7,7,0,0,1,9.7,2.6A16.89,16.89,0,0,1,110,131Z" transform="translate(-17.5 -34.8)" fill="#7f551d"/><polygon points="94.6 117.1 96.6 117.1 96.6 153.6 94.6 153.6 94.6 136.3 75.9 136.3 75.9 153.6 73.8 153.6 73.8 117.1 75.9 117.1 75.9 134.4 94.6 134.4 94.6 117.1" fill="#7f551d"/><path d="M116.7,143.6a1.66,1.66,0,0,1,0,2.1h0a1.39,1.39,0,0,1-1.1.5,1.43,1.43,0,0,1-1.1-.5,1.69,1.69,0,0,1,0-2.3h0a1.39,1.39,0,0,1,1.1-.5C116,143.2,116.4,143.4,116.7,143.6Z" transform="translate(-17.5 -34.8)" fill="#7f551d"/><polygon points="108.4 110 108.4 91.8 106.1 93.2 105.2 92.5 109.7 89.3 109.7 110 114.4 110 114.4 111.2 103.7 111.2 103.7 110 108.4 110" fill="#7f551d"/><polygon points="104.2 151.5 116.7 151.5 116.7 153.6 100.7 153.6 112.3 133.5 100.7 133.5 100.7 131.5 115.8 131.5 104.2 151.5" fill="#7f551d"/><rect x="145.9" y="101.3" width="6.5" height="54" fill="#7f551d"/><path d="M143,48.6C115.3,35.8,89,40.1,65.5,59c-17.5,14.1-27,32.8-30,55.1a2.89,2.89,0,0,1-.4,1.4H28c.9-4.4,1.4-8.8,2.5-12.9,5.9-22.4,17.9-40.6,37-53.7a77.22,77.22,0,0,1,51.4-13.8c27.4,2.5,48,16.2,63.2,38.8a91.15,91.15,0,0,1,14.5,40.6v.9H190c-.5-3.4-1.1-6.7-1.9-9.9C181.7,79.6,167.4,59.5,143,48.6Z" transform="translate(-17.5 -34.8)" fill="#7f551d"/><rect x="169.7" y="87.7" width="13.4" height="6.5" fill="#7f551d"/><path d="M207.5,138.3v49.6a5.07,5.07,0,0,1-4.8,2.3c-6.7-.2-13.6,0-20.3,0h-1.9V136h22.3A5,5,0,0,1,207.5,138.3Z" transform="translate(-17.5 -34.8)" fill="#7f551d"/></svg>