<svg id="Layer_1" data-name="Layer 1" xmlns="http://www.w3.org/2000/svg" viewBox="0 0 189.9 142.3"><title>icon_7a</title><path d="M29.8,88.5v47.7a6.08,6.08,0,0,1-10.4,4.3,6.22,6.22,0,0,1-1.8-4.3V88.5a6.1,6.1,0,0,1,12.2,0Z" transform="translate(-17.6 -41.4)" fill="#7f551d"/><path d="M54.2,67.2v90.4a6.08,6.08,0,0,1-10.4,4.3,6.22,6.22,0,0,1-1.8-4.3V67.2a6.06,6.06,0,0,1,6.1-6.1A5.94,5.94,0,0,1,54.2,67.2Z" transform="translate(-17.6 -41.4)" fill="#7f551d"/><path d="M78.6,47.5V177.6a6.1,6.1,0,0,1-12.2,0V47.5a6.06,6.06,0,0,1,6.1-6.1A5.94,5.94,0,0,1,78.6,47.5Z" transform="translate(-17.6 -41.4)" fill="#7f551d"/><path d="M103.1,58.6V166.1a6.08,6.08,0,0,1-10.4,4.3,6.22,6.22,0,0,1-1.8-4.3V58.6a6.1,6.1,0,1,1,12.2,0Z" transform="translate(-17.6 -41.4)" fill="#7f551d"/><path d="M127.5,73.9v77a6.08,6.08,0,0,1-10.4,4.3,6.22,6.22,0,0,1-1.8-4.3v-77a6.1,6.1,0,1,1,12.2,0Z" transform="translate(-17.6 -41.4)" fill="#7f551d"/><path d="M152,67.2v90.4a6.08,6.08,0,0,1-10.4,4.3,6.22,6.22,0,0,1-1.8-4.3V67.2a6.06,6.06,0,0,1,6.1-6.1A5.94,5.94,0,0,1,152,67.2Z" transform="translate(-17.6 -41.4)" fill="#7f551d"/><path d="M176.4,73.9v77a6.08,6.08,0,0,1-10.4,4.3,6.22,6.22,0,0,1-1.8-4.3v-77a6.1,6.1,0,1,1,12.2,0Z" transform="translate(-17.6 -41.4)" fill="#7f551d"/><path d="M200.8,85.5v53.8a6.08,6.08,0,0,1-10.4,4.3,6.22,6.22,0,0,1-1.8-4.3V85.5a6.1,6.1,0,0,1,12.2,0Z" transform="translate(-17.6 -41.4)" fill="#7f551d"/><circle cx="183.8" cy="39.8" r="6.1" fill="#cc51ff"/></svg>