<svg id="Layer_1" data-name="Layer 1" xmlns="http://www.w3.org/2000/svg" viewBox="0 0 189.9 78.8"><title>icon_8a</title><path d="M29.8,94.6V130a6.08,6.08,0,0,1-10.4,4.3,6.22,6.22,0,0,1-1.8-4.3V94.6a6.1,6.1,0,0,1,12.2,0Z" transform="translate(-17.6 -73.2)" fill="#7f551d"/><path d="M54.2,82.4v59.9a6.08,6.08,0,0,1-10.4,4.3,6.22,6.22,0,0,1-1.8-4.3V82.4a6.1,6.1,0,1,1,12.2,0Z" transform="translate(-17.6 -73.2)" fill="#7f551d"/><path d="M78.6,89.2v46.4a6.08,6.08,0,0,1-10.4,4.3,6.22,6.22,0,0,1-1.8-4.3V89.2a6.06,6.06,0,0,1,6.1-6.1A6,6,0,0,1,78.6,89.2Z" transform="translate(-17.6 -73.2)" fill="#7f551d"/><path d="M103.1,100.8V124a6.08,6.08,0,0,1-10.4,4.3,6.22,6.22,0,0,1-1.8-4.3V100.8A6.06,6.06,0,0,1,97,94.7,5.94,5.94,0,0,1,103.1,100.8Z" transform="translate(-17.6 -73.2)" fill="#7f551d"/><path d="M127.5,79.3v66.6a6.1,6.1,0,0,1-12.2,0V79.3a6.06,6.06,0,0,1,6.1-6.1A5.94,5.94,0,0,1,127.5,79.3Z" transform="translate(-17.6 -73.2)" fill="#7f551d"/><path d="M152,103.1V122a6.1,6.1,0,0,1-12.2,0V103.1a6.06,6.06,0,0,1,6.1-6.1A5.94,5.94,0,0,1,152,103.1Z" transform="translate(-17.6 -73.2)" fill="#7f551d"/><path d="M176.4,94.6V130a6.08,6.08,0,0,1-10.4,4.3,6.22,6.22,0,0,1-1.8-4.3V94.6a6.1,6.1,0,1,1,12.2,0Z" transform="translate(-17.6 -73.2)" fill="#7f551d"/><path d="M200.8,81.2v62.3a6.08,6.08,0,0,1-10.4,4.3,6.22,6.22,0,0,1-1.8-4.3V81.2a6.1,6.1,0,0,1,12.2,0Z" transform="translate(-17.6 -73.2)" fill="#7f551d"/><circle cx="183.8" cy="8" r="6.1" fill="#394fff"/></svg>