<?xml version="1.0" encoding="utf-8"?>
<!-- Generator: Adobe Illustrator 24.3.0, SVG Export Plug-In . SVG Version: 6.00 Build 0)  -->
<svg version="1.1" id="Layer_1" xmlns="http://www.w3.org/2000/svg" xmlns:xlink="http://www.w3.org/1999/xlink" x="0px" y="0px"
	 viewBox="0 0 225 225" style="enable-background:new 0 0 225 225;" xml:space="preserve">
<style type="text/css">
	.st0{fill:#FFFFFF;}
</style>
<path class="st0" d="M97.4,89.1c-1.3-4.1-2-8.5-2-12.8v-4.8c4.8,5.8,11.1,10.1,18.3,12.4l9.6,2.7c1.9,0.6,3.4,1.9,4.3,3.6l-5,5.7
	l-8.8-5.2c-3.9-2.3-8.5-3.2-13-2.5C99.6,88.3,98.5,88.6,97.4,89.1z"/>
<path class="st0" d="M152.1,85.2l3.1,6.3c-5.2,0.1-9.4,4.3-9.5,9.5v11.3c0,13.3-11.8,24.5-25.7,24.5h-15.2c-5.3,0-10.2,3-12.6,7.7
	l-0.4,0.8c-0.3,1,0.2,2,1.2,2.4c0.8,0.3,1.7,0,2.2-0.7c1.2-2.9,3.6-5.1,6.6-6.1l-6.1,14.8c-0.3,0.7-1,1.2-1.7,1.2
	c-0.2,0-0.4,0-0.6-0.1h-0.1c-10.7-5.2-10-4.9-10.2-4.9c-0.9-0.3-1.4-1.4-1.1-2.3c0,0,0-0.1,0-0.1c0.1-0.3,0.2-0.5,0.4-0.7
	c0.1-0.1,4-4.5,20.5-23.2c6.9-0.3,13.4-3.1,18.3-8c0.7-0.8,0.7-2-0.1-2.7c-0.4-0.3-0.8-0.5-1.3-0.5c-0.5,0-0.9,0.2-1.3,0.5
	c-8.4,8.4-18.4,6.8-19.5,7c-8.2,0-15.9-4.2-20.3-11.2l-1.3-1.9l1.4,0.6c8.7,3.3,19.5,2.2,26.9-2.8c0.9-0.6,1.1-1.7,0.5-2.6
	c-0.6-0.9-1.7-1.1-2.6-0.5c-4.3,2.8-9.2,4.1-14.1,4.1c-3.2,0-6.4-0.6-9.4-1.8l-6.2-2.4l-5-7.8h11.3c3.1,0,6.3-0.3,9.4-0.8
	c6.4-1,9-2.4,11.5-2.8c3.6-0.6,7.2,0.1,10.3,2l14.8,8.9c0.9,0.6,2,0.4,2.6-0.5s0.4-2-0.5-2.6l-0.2-0.1l-2.7-1.7
	c13.4-14.9,12.5-14.1,12.7-14.2c1.5-2.1,4-3.3,6.6-3.3C147.8,80.6,150.7,82.4,152.1,85.2z"/>
<polygon class="st0" points="155.2,91.5 155.2,91.6 155.2,91.5 "/>
<polygon class="st0" points="155.2,91.6 155.4,92 155,92 155,91.8 155.1,91.8 "/>
<path class="st0" d="M140,0H85C38.1,0,0,38.1,0,85v55c0,46.9,38.1,85,85,85h55c46.9,0,85-38.1,85-85V85C225,38.1,186.9,0,140,0z
	 M160.6,94.7c-0.3,0.6-0.9,0.9-1.6,0.9h-3.8c-3.1,0-5.7,2.6-5.7,5.7v11.3c0,15.3-13.5,28.3-29.5,28.3h-13.8l-7,16.5
	c-0.9,2.2-3,3.5-5.3,3.5c-0.7,0-1.4-0.1-2-0.4c0,0,0,0,0,0c0,0,0-0.1-0.1-0.1l-10-5c-0.6-0.2-1.2-0.6-1.7-1.1
	c-2.3-2.2-2.4-5.8-0.2-8.1l18.2-20.7c-9.1-0.4-17.4-5.3-22.3-13L64.5,94.3c-0.4-0.6-0.4-1.3-0.1-1.9c0.3-0.6,0.9-0.9,1.6-0.9h14.5
	c2.9,0,5.9-0.2,8.8-0.6c1.4-0.2,2.9-0.6,4.4-0.9c-1.4-4.5-2.1-9.2-2.1-13.9V65.9c0.1-0.8,0.6-1.5,1.4-1.8c0.8-0.1,1.6,0.2,2.1,0.8
	c5.1,7.7,12.3,13.3,19.6,15.4l9.6,2.7c2.4,0.7,4.5,2.2,6,4.2l5.3-6c1.1-1.5,2.6-2.8,4.3-3.6c5.9-2.9,13.1-0.4,16,5.5l4.8,9.5
	C161,93.3,161,94.1,160.6,94.7z"/>
</svg>
