<?xml version="1.0" encoding="utf-8"?>
<!-- Generator: Adobe Illustrator 24.3.0, SVG Export Plug-In . SVG Version: 6.00 Build 0)  -->
<svg version="1.1" id="Layer_1" xmlns="http://www.w3.org/2000/svg" xmlns:xlink="http://www.w3.org/1999/xlink" x="0px" y="0px"
	 viewBox="0 0 225 225" style="enable-background:new 0 0 225 225;" xml:space="preserve">
<style type="text/css">
	.st0{fill:#FFFFFF;}
</style>
<path class="st0" d="M87.3,102.4c1,1.4,1.8,2.9,2.6,4.4l-3.4,2l-3-4.6l3.4-2.2l0.2,0.2L87.3,102.4z"/>
<path class="st0" d="M107.2,101.8c1.4,1.3,3,2.7,4.6,4.1c-1.8,6.6-8.3,10.8-15.1,9.7c-0.7-2.7-1.7-5.3-2.9-7.8l-0.2-0.5
	c-0.6-1.3-1.3-2.6-1.9-3.8c-0.1-0.1-0.1-0.2-0.2-0.3c-0.5-1-1.1-1.9-1.8-2.8l-2.6-3.9l10.7-7l1.2,1.7l1.4,2.2c0.5,0.8,1,1.5,1.5,2.2
	c0.2,0.3,0.5,0.6,0.7,0.9l1,1.3c0.3,0.4,0.6,0.7,0.9,1c0.4,0.4,0.8,0.9,1.1,1.3l0.9,1L107.2,101.8z"/>
<path class="st0" d="M114.4,108c1.4,0.8,2.5,1.7,3.9,2.6c-1,3.3-2.9,6.2-5.5,8.5H99.2c3.1-0.1,6.1-1,8.7-2.6
	C110.9,114.4,113.2,111.5,114.4,108z"/>
<path class="st0" d="M116.3,122.4l3.5-0.1v14.5c0,11.2,4.4,17.7,7.8,20.9h-7.8v-4.8c0-0.8-0.7-1.5-1.5-1.6c-0.9,0-1.6,0.7-1.6,1.6
	v4.8h-4.8V148c-0.1-0.9-0.7-1.5-1.6-1.6c-0.8,0-1.5,0.6-1.6,1.4v9.8h-5v-3.1c0.1-0.9-0.5-1.6-1.4-1.7c-0.8-0.1-1.5,0.4-1.7,1.2v3.6
	h-4.8v-4.7c0-0.8-0.7-1.5-1.5-1.5c-0.9,0.1-1.5,0.7-1.6,1.6v4.8h-9.2c4-3.2,8.9-9.7,8.9-20.9v-14.6h14.5v3.2c0,0.8,0.7,1.5,1.5,1.6
	c0.8,0,1.5-0.7,1.6-1.5v-3.2h3.2v4.8c0,0.8,0.8,1.5,1.6,1.5c0.8,0,1.5-0.6,1.5-1.4V122.4z"/>
<path class="st0" d="M150.4,69.5v0.2c-0.1,0.7-0.4,1.3-0.7,1.9c-0.4,0.3-0.9,0.5-1.4,0.5l-6.8-0.3c-1.1-0.1-2.2,0.1-3.2,0.5
	c-4.4,1.7-15.2,6.5-21.4,15.3c-2.1,3.1-4.7,5.9-7.6,8.2c-0.6,0.5-1.2,1-1.8,1.4l-0.2-0.2c-0.5-0.6-1-1.2-1.4-1.8
	c-0.2-0.2-0.4-0.5-0.6-0.8c-0.4-0.5-0.8-1-1.1-1.6l-0.6-0.9c3.4-2.1,11.2-7.4,14.7-12.6c1.4-2.2,3.1-4.1,5.1-5.8
	c4-3,10.2-6.7,17-6.4l8,0.4C149.5,67.5,150.4,68.4,150.4,69.5z"/>
<path class="st0" d="M140,0H85C38.1,0,0,38.1,0,85v55c0,46.9,38.1,85,85,85h55c46.9,0,85-38.1,85-85V85C225,38.1,186.9,0,140,0z
	 M151.9,73.8c-1,1-2.4,1.5-3.8,1.4l-6.8-0.3c-0.7,0-1.3,0.1-2,0.3c-3.2,1.3-14.1,6-19.9,14.2c-2.4,3.3-5.1,6.3-8.2,8.9
	c-0.6,0.4-1.1,0.9-1.7,1.3c3.2,3.4,6.9,6.3,11,8.6l1.3,0.8l-0.2,1.1c-0.7,3.3-2.2,6.4-4.5,8.9h5.8v17.8c0,14.9,8.3,20,9.9,20.9h6
	v3.2H71.4v-3.2h6.1l0.1-0.1c1.9-0.9,11.4-6.1,11.4-20.9V119h5c-0.7-3.2-1.8-6.4-3.1-9.4l-3.4,2.2c-0.4,0.2-0.9,0.4-1.4,0.4
	c-0.2,0-0.3,0-0.5-0.1c-0.6-0.1-1.2-0.5-1.6-1l-3.7-5.8c-0.3-0.6-0.4-1.2-0.3-1.9c0.1-0.7,0.5-1.3,1.1-1.6l4-2.6L84.3,98v-0.1
	c-0.9-1.4-0.5-3.3,0.9-4.1l11.2-7.3c1.4-0.8,3.2-0.4,4.1,0.9l1.3,1.9c3.1-1.9,10.7-7,13.8-11.6c1.6-2.5,3.6-4.7,5.9-6.5
	c4.3-3.3,11.3-7.4,19.1-7l8,0.4c2.9,0.2,5.1,2.5,5.1,5.4C153.6,71.5,153,72.8,151.9,73.8z"/>
</svg>
