<?xml version="1.0" encoding="utf-8"?>
<!-- Generator: Adobe Illustrator 24.3.0, SVG Export Plug-In . SVG Version: 6.00 Build 0)  -->
<svg version="1.1" id="Layer_1" xmlns="http://www.w3.org/2000/svg" xmlns:xlink="http://www.w3.org/1999/xlink" x="0px" y="0px"
	 viewBox="0 0 225 225" style="enable-background:new 0 0 225 225;" xml:space="preserve">
<style type="text/css">
	.st0{fill:#FFFFFF;}
</style>
<path class="st0" d="M81.6,127.9l-14.1-15.5c-0.3-0.3-0.5-0.8-0.5-1.2c0-0.9,0.8-1.7,1.7-1.7h0c0.5,0,1,0.2,1.3,0.6l9.5,9.5
	c0.7,0.7,1.7,1.1,2.7,1.1c2,0,3.8-1.6,3.8-3.6v-10.5h3.2v-3.2H86v-3.2h6.3v-3.1H86c-0.2-1.6-0.8-3.1-1.9-4.4L73.9,81
	c-0.7-0.7-0.7-1.8,0-2.5c0.3-0.3,0.7-0.5,1.2-0.5h0c0.5,0,1,0.2,1.3,0.6l6.3,6.3c0.7,0.7,1.7,1.1,2.7,1.1c2.1,0,3.8-1.7,3.8-3.8
	V68.7c-0.1-0.9,0.5-1.6,1.4-1.7c0.8,0,1.6,0.6,1.7,1.4v23.2c0,2.1,1.7,3.8,3.8,3.8h0.1c1,0,2-0.4,2.7-1.1l4.7-4.7
	c0.4-0.3,0.8-0.5,1.3-0.5c1,0,1.7,0.8,1.7,1.8v0c0,0.5-0.2,0.9-0.6,1.2l-12,10.6c-1,0.9-1.6,2.2-1.6,3.5v5.8c0,2.1,1.7,3.8,3.8,3.8
	c1,0,2-0.4,2.7-1.1l3.2-3.2c0.3-0.3,0.8-0.5,1.2-0.6c0.9,0,1.7,0.8,1.7,1.7v0c0,0.5-0.2,1-0.6,1.3l-7.9,7.9
	c-0.6,0.6-0.9,1.4-0.9,2.2v2.4h-6.1v3.2h6.3v3.2h-3.1v3.2h3.2v3.7c-1.6-0.3-3.1-0.5-4.7-0.6c-2.7,0-5.3,0.5-7.8,1.4v-9.9
	C82.9,129.6,82.3,128.7,81.6,127.9z"/>
<path class="st0" d="M110.1,156.1l-2.5-1.8c-4-2.7-8.8-4.2-13.6-4.2v-3.2c4.1,0,8.2,0.9,11.9,2.7c-3.7-4.6-9.2-7.3-15.1-7.4
	c-3.5,0.1-7,1.1-10,2.9c2.4,1.2,5,1.9,7.7,1.9h2.2v3.2h-2.2c-3.7,0.1-7.4-1-10.6-2.9c-1.2,1.1-2.2,2.3-3.1,3.6l-4.8,7.3l41.4-0.1
	L110.1,156.1z M81.3,155.2h-3.2V152h3.2V155.2z M98.7,156.8h-3.2v-3.2h3.2V156.8z"/>
<path class="st0" d="M150.8,151.5l-5.4-1.4c-3.9-0.9-8-1.4-12-1.4v-3.2c4.3,0.1,8.6,0.6,12.8,1.6l1.8,0.5c-3.9-5.2-10-8.3-16.5-8.3
	c-4,0.1-7.8,1.3-11.2,3.4c2.5,1.9,5.6,2.9,8.8,2.9h1.2v3.1h-1.2c-4.2,0-8.2-1.5-11.4-4.2l-7.5,5.9l5.2,7.8l40.1-0.1L150.8,151.5z
	 M119.3,152h-3.2v-3.2h3.2V152z M128.6,155.2h-3.2V152h3.2V155.2z M142.8,155.2h-3.2V152h3.2V155.2z"/>
<path class="st0" d="M109.7,134.5h-0.2c-0.8,0-1.5,0.8-1.4,1.6v0.1c0,0.8,0.7,1.4,1.5,1.4h0c0.9,0,1.6-0.6,1.6-1.5
	C111.2,135.2,110.6,134.5,109.7,134.5z M109.7,134.5h-0.2c-0.8,0-1.5,0.8-1.4,1.6v0.1c0,0.8,0.7,1.4,1.5,1.4h0
	c0.9,0,1.6-0.6,1.6-1.5C111.2,135.2,110.6,134.5,109.7,134.5z M109.7,134.5h-0.2c-0.8,0-1.5,0.8-1.4,1.6v0.1c0,0.8,0.7,1.4,1.5,1.4
	h0c0.9,0,1.6-0.6,1.6-1.5C111.2,135.2,110.6,134.5,109.7,134.5z M109.7,134.5h-0.2c-0.8,0-1.5,0.8-1.4,1.6v0.1
	c0,0.8,0.7,1.4,1.5,1.4h0c0.9,0,1.6-0.6,1.6-1.5C111.2,135.2,110.6,134.5,109.7,134.5z M109.7,134.5h-0.2c-0.8,0-1.5,0.8-1.4,1.6
	v0.1c0,0.8,0.7,1.4,1.5,1.4h0c0.9,0,1.6-0.6,1.6-1.5C111.2,135.2,110.6,134.5,109.7,134.5z M109.7,134.5h-0.2
	c-0.8,0-1.5,0.8-1.4,1.6v0.1c0,0.8,0.7,1.4,1.5,1.4h0c0.9,0,1.6-0.6,1.6-1.5C111.2,135.2,110.6,134.5,109.7,134.5z M109.7,134.5
	h-0.2c-0.8,0-1.5,0.8-1.4,1.6v0.1c0,0.8,0.7,1.4,1.5,1.4h0c0.9,0,1.6-0.6,1.6-1.5C111.2,135.2,110.6,134.5,109.7,134.5z M157,88.9
	c-0.8,0.1-1.5,0.8-1.5,1.6c0,0.8,0.7,1.5,1.6,1.5c0.9,0,1.5-0.7,1.5-1.6C158.6,89.5,157.9,88.9,157,88.9z M157,88.9
	c-0.8,0.1-1.5,0.8-1.5,1.6c0,0.8,0.7,1.5,1.6,1.5c0.9,0,1.5-0.7,1.5-1.6C158.6,89.5,157.9,88.9,157,88.9z M109.7,134.5h-0.2
	c-0.8,0-1.5,0.8-1.4,1.6v0.1c0,0.8,0.7,1.4,1.5,1.4h0c0.9,0,1.6-0.6,1.6-1.5C111.2,135.2,110.6,134.5,109.7,134.5z M109.7,134.5
	h-0.2c-0.8,0-1.5,0.8-1.4,1.6v0.1c0,0.8,0.7,1.4,1.5,1.4h0c0.9,0,1.6-0.6,1.6-1.5C111.2,135.2,110.6,134.5,109.7,134.5z M157,88.9
	c-0.8,0.1-1.5,0.8-1.5,1.6c0,0.8,0.7,1.5,1.6,1.5c0.9,0,1.5-0.7,1.5-1.6C158.6,89.5,157.9,88.9,157,88.9z M157,88.9
	c-0.8,0.1-1.5,0.8-1.5,1.6c0,0.8,0.7,1.5,1.6,1.5c0.9,0,1.5-0.7,1.5-1.6C158.6,89.5,157.9,88.9,157,88.9z M109.7,134.5h-0.2
	c-0.8,0-1.5,0.8-1.4,1.6v0.1c0,0.8,0.7,1.4,1.5,1.4h0c0.9,0,1.6-0.6,1.6-1.5C111.2,135.2,110.6,134.5,109.7,134.5z M109.7,134.5
	h-0.2c-0.8,0-1.5,0.8-1.4,1.6v0.1c0,0.8,0.7,1.4,1.5,1.4h0c0.9,0,1.6-0.6,1.6-1.5C111.2,135.2,110.6,134.5,109.7,134.5z M157,88.9
	c-0.8,0.1-1.5,0.8-1.5,1.6c0,0.8,0.7,1.5,1.6,1.5c0.9,0,1.5-0.7,1.5-1.6C158.6,89.5,157.9,88.9,157,88.9z M157,88.9
	c-0.8,0.1-1.5,0.8-1.5,1.6c0,0.8,0.7,1.5,1.6,1.5c0.9,0,1.5-0.7,1.5-1.6C158.6,89.5,157.9,88.9,157,88.9z M109.7,134.5h-0.2
	c-0.8,0-1.5,0.8-1.4,1.6v0.1c0,0.8,0.7,1.4,1.5,1.4h0c0.9,0,1.6-0.6,1.6-1.5C111.2,135.2,110.6,134.5,109.7,134.5z M109.7,134.5
	h-0.2c-0.8,0-1.5,0.8-1.4,1.6v0.1c0,0.8,0.7,1.4,1.5,1.4h0c0.9,0,1.6-0.6,1.6-1.5C111.2,135.2,110.6,134.5,109.7,134.5z M112.8,79.4
	h-0.3c-0.7,0.1-1.3,0.7-1.4,1.4c-0.1,0.9,0.5,1.6,1.4,1.7c0.9,0.1,1.6-0.5,1.7-1.4C114.3,80.2,113.7,79.5,112.8,79.4z M157,88.9
	c-0.8,0.1-1.5,0.8-1.5,1.6c0,0.8,0.7,1.5,1.6,1.5c0.9,0,1.5-0.7,1.5-1.6C158.6,89.5,157.9,88.9,157,88.9z M157,88.9
	c-0.8,0.1-1.5,0.8-1.5,1.6c0,0.8,0.7,1.5,1.6,1.5c0.9,0,1.5-0.7,1.5-1.6C158.6,89.5,157.9,88.9,157,88.9z M109.7,134.5h-0.2
	c-0.8,0-1.5,0.8-1.4,1.6v0.1c0,0.8,0.7,1.4,1.5,1.4h0c0.9,0,1.6-0.6,1.6-1.5C111.2,135.2,110.6,134.5,109.7,134.5z M112.8,79.4h-0.3
	c-0.7,0.1-1.3,0.7-1.4,1.4c-0.1,0.9,0.5,1.6,1.4,1.7c0.9,0.1,1.6-0.5,1.7-1.4C114.3,80.2,113.7,79.5,112.8,79.4z M140,0H85
	C38.1,0,0,38.1,0,85v55c0,46.9,38.1,85,85,85h55c46.9,0,85-38.1,85-85V85C225,38.1,186.9,0,140,0z M155.4,73h3.2v3.2h-3.2V73z
	 M155.4,79.3h3.2v3.2h-3.2V79.3z M111.3,63.6h3.2v3.2h-3.2V63.6z M111.3,69.9h3.2v3.2h-3.2V69.9z M112.6,76.4c0.2,0,0.4,0,0.6,0
	c2.5,0.2,4.4,2.2,4.3,4.7c0,2.5-2.1,4.6-4.7,4.5v0h-0.2c-2.5-0.1-4.6-2.2-4.5-4.7C108.2,78.5,110.2,76.5,112.6,76.4z M111.3,125.1
	v3.2h-3.2v-3.2H111.3z M108.1,122v-3.2h3.2v3.2H108.1z M109.7,131.4C109.7,131.4,109.7,131.4,109.7,131.4c2.6,0,4.7,2.1,4.7,4.7
	c0,2.6-2.1,4.7-4.7,4.7c-2.6,0-4.7-2.1-4.7-4.7v0C105,133.5,107.1,131.4,109.7,131.4z M63.9,87.2h3.2v3.2h-3.2V87.2z M63.9,93.6h3.2
	v3.2h-3.2V93.6z M63.6,161.4l7.7-12.4c1.9-2.8,4.4-5.2,7.4-6.9v-11.2c-0.1-0.4-0.3-0.7-0.5-1l-14.1-15.5c-0.8-0.9-1.1-2-1.1-3.1
	c0-1.2,0.5-2.4,1.3-3.4c1.9-2,5-2.1,7.1-0.3l9.5,9.5c0.1,0,0.2,0.1,0.3,0.1c0.4,0,0.8-0.2,0.8-0.6v-19c0-1.2-0.4-2.3-1.2-3.2
	L70.5,83c-1.9-2-1.8-5.2,0.2-7.1c2-1.9,5.2-1.8,7.1,0.2l6.4,6.2c0.1,0,0.2,0.1,0.3,0.1c0.4,0,0.7-0.2,0.7-0.6V68.3
	c0.1-1.2,0.6-2.3,1.4-3.1c0.8-0.8,1.9-1.3,3.1-1.4c2.6-0.1,4.8,1.9,4.9,4.5v22.9c0.1,0.1,0.1,0.2,0.2,0.3c0.2,0.3,0.6,0.3,0.9,0.1
	l4.7-4.7c0.9-0.9,2.1-1.4,3.4-1.4h0.2c1.3,0,2.5,0.6,3.4,1.5c1.9,1.9,1.8,5-0.1,6.9l-12,10.9c-0.4,0.2-0.6,0.6-0.6,1.1v5.7
	c0,0.1,0,0.2,0.1,0.3c0.2,0.3,0.6,0.3,0.9,0.1l3.2-3.2c0.9-0.9,2.2-1.4,3.5-1.4c1.3,0,2.5,0.5,3.4,1.4c2,1.9,2,5.1,0.1,7.1l-8,8
	v16.6c3.8,1.5,7.1,3.9,9.6,7.1l8.7-6.7c3.7-2.8,8.1-4.5,12.7-4.8c-0.8-2.8-1.5-5.5-2.2-8.4c-2-1.9-4.3-3.5-6.7-4.8l-2.3-1.1l1.5-2.9
	l2.3,1.1c1.5,0.6,3,1.5,4.3,2.5c-0.4-2.2-0.8-4.5-1.1-6.7v-0.1c-2.6-3.5-6-6.4-10-8.3l1.4-2.9c2.9,1.6,5.6,3.5,8,5.8
	c-0.3-2.2-0.5-4.4-0.6-6.6l-0.3-0.6c-1.5-2.4-3.9-4.2-6.6-5.1l1-3.1c2.2,0.8,4.2,2,5.9,3.6v-3.2l-0.5-0.9c-1.5-3.1-3.8-5.7-6.7-7.6
	l1.8-2.5c2.2,1.6,4.2,3.6,5.8,5.8c0.7-3.3,2.3-6.3,4.7-8.7l2.2,2.2c-2.8,2.8-4.3,6.5-4.3,10.4v2.1c1.5-2,3.3-3.8,5.4-5.2l1.8,2.5
	c-2.9,1.9-5.3,4.5-6.8,7.6l-0.3,0.7c0.2,2,0.3,4.2,0.5,6.3c1.8-1.5,3.9-2.5,6.2-3l0.8-0.2l0.8,3.1l-0.8,0.2c-2.5,0.6-4.8,2-6.5,3.9
	c0.6,4.5,1.3,9,2.2,13.4c0.8-2.6,2-5,3.5-7.3l2.6,1.7c-1.9,3-3.2,6.3-3.8,9.8l-0.5,3.1c0.3,1.3,0.8,2.6,1.1,3.8
	c2.1,0.1,4.2,0.5,6.2,1.2l3.2-3.5c0.6-0.7,1.3-1.6,2-2.5l-0.5-1.6c-0.6-2.5-1.9-4.9-3.8-6.7l2.2-2.2c2,1.9,3.5,4.3,4.3,6.9
	c0.9-1.9,1.8-3.8,2.4-5.8l-0.3-0.9c-1.6-3.8-4.5-7-8.2-8.9l1.5-2.8c3.4,1.7,6.3,4.4,8.3,7.7c0.3-1.8,0.5-3.6,0.5-5.4
	c0-0.8-0.1-1.4-0.1-2.1c-1.9-2.7-4.4-4.8-7.3-6.3l-1.2-0.6l1.4-2.8l1.2,0.6c1.8,1,3.5,2.2,5.1,3.5c-0.2-0.9-0.5-1.9-0.8-2.8
	l-2.9-8.8l3.1-1l2.9,9c0.5,1.8,1,3.7,1.3,5.6c1.7-2.2,3.7-4.2,6-5.8l1.8,2.5c-2.9,1.9-5.2,4.5-6.7,7.6l-0.5,0.9v0.5
	c0,1.6-0.1,3.1-0.3,4.7c2-1.1,4.3-1.6,6.6-1.6v3.2c-2.7,0-5.3,0.8-7.4,2.5c-0.8,2.8-1.8,5.5-3.2,8.1c2.4-0.5,4.9-0.7,7.4-0.7v3.2
	c-3,0-6.1,0.4-9,1.1l-0.8,0.2c-0.7,1.2-1.6,2.3-2.5,3.4l-2.3,2.7c3.4,1.7,6.2,4.2,8.3,7.3l10.9,15.3H63.6z M157,95.2
	c-1.2-0.1-2.3-0.6-3.1-1.4c-0.8-0.8-1.3-1.9-1.4-3.1c-0.1-2.6,1.9-4.8,4.5-4.9h0.4c2.6,0.1,4.6,2.3,4.5,4.9
	C161.8,93.3,159.6,95.3,157,95.2z M157,88.9c-0.8,0.1-1.5,0.8-1.5,1.6c0,0.8,0.7,1.5,1.6,1.5c0.9,0,1.5-0.7,1.5-1.6
	C158.6,89.5,157.9,88.9,157,88.9z M112.5,82.5c0.9,0.1,1.6-0.5,1.7-1.4c0.1-0.8-0.5-1.6-1.4-1.7h-0.3c-0.7,0.1-1.3,0.7-1.4,1.4
	C111,81.7,111.6,82.4,112.5,82.5z M109.6,137.6L109.6,137.6c0.9,0,1.6-0.6,1.6-1.5c0-0.9-0.6-1.6-1.5-1.6h-0.2
	c-0.8,0-1.5,0.8-1.4,1.6v0.1C108.1,137,108.8,137.6,109.6,137.6z M112.8,79.4h-0.3c-0.7,0.1-1.3,0.7-1.4,1.4
	c-0.1,0.9,0.5,1.6,1.4,1.7c0.9,0.1,1.6-0.5,1.7-1.4C114.3,80.2,113.7,79.5,112.8,79.4z M109.7,134.5h-0.2c-0.8,0-1.5,0.8-1.4,1.6
	v0.1c0,0.8,0.7,1.4,1.5,1.4h0c0.9,0,1.6-0.6,1.6-1.5C111.2,135.2,110.6,134.5,109.7,134.5z M157,88.9c-0.8,0.1-1.5,0.8-1.5,1.6
	c0,0.8,0.7,1.5,1.6,1.5c0.9,0,1.5-0.7,1.5-1.6C158.6,89.5,157.9,88.9,157,88.9z M157,88.9c-0.8,0.1-1.5,0.8-1.5,1.6
	c0,0.8,0.7,1.5,1.6,1.5c0.9,0,1.5-0.7,1.5-1.6C158.6,89.5,157.9,88.9,157,88.9z M112.8,79.4h-0.3c-0.7,0.1-1.3,0.7-1.4,1.4
	c-0.1,0.9,0.5,1.6,1.4,1.7c0.9,0.1,1.6-0.5,1.7-1.4C114.3,80.2,113.7,79.5,112.8,79.4z M109.7,134.5h-0.2c-0.8,0-1.5,0.8-1.4,1.6
	v0.1c0,0.8,0.7,1.4,1.5,1.4h0c0.9,0,1.6-0.6,1.6-1.5C111.2,135.2,110.6,134.5,109.7,134.5z M109.7,134.5h-0.2
	c-0.8,0-1.5,0.8-1.4,1.6v0.1c0,0.8,0.7,1.4,1.5,1.4h0c0.9,0,1.6-0.6,1.6-1.5C111.2,135.2,110.6,134.5,109.7,134.5z M157,88.9
	c-0.8,0.1-1.5,0.8-1.5,1.6c0,0.8,0.7,1.5,1.6,1.5c0.9,0,1.5-0.7,1.5-1.6C158.6,89.5,157.9,88.9,157,88.9z M157,88.9
	c-0.8,0.1-1.5,0.8-1.5,1.6c0,0.8,0.7,1.5,1.6,1.5c0.9,0,1.5-0.7,1.5-1.6C158.6,89.5,157.9,88.9,157,88.9z M109.7,134.5h-0.2
	c-0.8,0-1.5,0.8-1.4,1.6v0.1c0,0.8,0.7,1.4,1.5,1.4h0c0.9,0,1.6-0.6,1.6-1.5C111.2,135.2,110.6,134.5,109.7,134.5z M109.7,134.5
	h-0.2c-0.8,0-1.5,0.8-1.4,1.6v0.1c0,0.8,0.7,1.4,1.5,1.4h0c0.9,0,1.6-0.6,1.6-1.5C111.2,135.2,110.6,134.5,109.7,134.5z M157,88.9
	c-0.8,0.1-1.5,0.8-1.5,1.6c0,0.8,0.7,1.5,1.6,1.5c0.9,0,1.5-0.7,1.5-1.6C158.6,89.5,157.9,88.9,157,88.9z M157,88.9
	c-0.8,0.1-1.5,0.8-1.5,1.6c0,0.8,0.7,1.5,1.6,1.5c0.9,0,1.5-0.7,1.5-1.6C158.6,89.5,157.9,88.9,157,88.9z M109.7,134.5h-0.2
	c-0.8,0-1.5,0.8-1.4,1.6v0.1c0,0.8,0.7,1.4,1.5,1.4h0c0.9,0,1.6-0.6,1.6-1.5C111.2,135.2,110.6,134.5,109.7,134.5z M109.7,134.5
	h-0.2c-0.8,0-1.5,0.8-1.4,1.6v0.1c0,0.8,0.7,1.4,1.5,1.4h0c0.9,0,1.6-0.6,1.6-1.5C111.2,135.2,110.6,134.5,109.7,134.5z
	 M109.7,134.5h-0.2c-0.8,0-1.5,0.8-1.4,1.6v0.1c0,0.8,0.7,1.4,1.5,1.4h0c0.9,0,1.6-0.6,1.6-1.5C111.2,135.2,110.6,134.5,109.7,134.5
	z M109.7,134.5h-0.2c-0.8,0-1.5,0.8-1.4,1.6v0.1c0,0.8,0.7,1.4,1.5,1.4h0c0.9,0,1.6-0.6,1.6-1.5
	C111.2,135.2,110.6,134.5,109.7,134.5z M109.7,134.5h-0.2c-0.8,0-1.5,0.8-1.4,1.6v0.1c0,0.8,0.7,1.4,1.5,1.4h0
	c0.9,0,1.6-0.6,1.6-1.5C111.2,135.2,110.6,134.5,109.7,134.5z M109.7,134.5h-0.2c-0.8,0-1.5,0.8-1.4,1.6v0.1c0,0.8,0.7,1.4,1.5,1.4
	h0c0.9,0,1.6-0.6,1.6-1.5C111.2,135.2,110.6,134.5,109.7,134.5z M109.7,134.5h-0.2c-0.8,0-1.5,0.8-1.4,1.6v0.1
	c0,0.8,0.7,1.4,1.5,1.4h0c0.9,0,1.6-0.6,1.6-1.5C111.2,135.2,110.6,134.5,109.7,134.5z"/>
</svg>
