<?xml version="1.0" encoding="utf-8"?>
<!-- Generator: Adobe Illustrator 24.3.0, SVG Export Plug-In . SVG Version: 6.00 Build 0)  -->
<svg version="1.1" id="Layer_1" xmlns="http://www.w3.org/2000/svg" xmlns:xlink="http://www.w3.org/1999/xlink" x="0px" y="0px"
	 viewBox="0 0 225 225" style="enable-background:new 0 0 225 225;" xml:space="preserve">
<style type="text/css">
	.st0{fill:#FFFFFF;}
</style>
<path class="st0" d="M78.4,100.9c-2.1,2-3.6,4.5-4.4,7.2c-6.2-0.1-10.3-2.2-10.3-4c0-1.1,1.8-2.8,5.8-3.8c0.4-0.1,0.7-0.3,0.9-0.7
	c0.2-0.3,0.2-0.8,0-1.1c-2.2-3.5-2.2-5.9-1.5-6.7c0.7-0.8,3.2-0.7,6.7,1.4c0.3,0.2,0.8,0.2,1.1,0c0.4-0.2,0.6-0.5,0.7-0.9
	c1-4,2.6-5.8,3.8-5.8c1.8,0,4,4,4.4,10C82.8,97.3,80.3,98.8,78.4,100.9z"/>
<path class="st0" d="M132.9,94.1l-1.1-3.6l-32.4,10c8.7,1.6,15.5,0.9,34.1-4.5L132.9,94.1z M134.5,98.1c-16.6,4.7-24.4,6-32.9,4.9
	c-0.3,0-0.6-0.1-0.8-0.1c-1.8-0.3-3.6-0.6-5.4-1.1l-1.7,0.5c7,4.3,21,3.3,41.3-2.8L134.5,98.1z M160.9,84.1l-0.6-2.3l-26.4,8.1
	l0.9,2.6c3,1.1,6.3,1.4,9.5,1c0,0,7.2-1.6,12.1-4.6c0.7-0.7,2.6-1.3,4.7,0.2c0-0.1,0.2-0.1,0.2-0.3v-0.2c0,0,0.1,0,0.1-0.2
	c0-0.2,0.1-0.2,0.1-0.4v-0.9C161.4,86.1,161.2,85.1,160.9,84.1z M141.3,91.4c-0.4,0.8-1.4,1.1-2.2,0.7c-0.8-0.4-1.1-1.4-0.7-2.2
	c0.4-0.8,1.4-1.1,2.2-0.7c0.6,0.3,0.9,0.9,0.9,1.5C141.5,90.9,141.4,91.2,141.3,91.4z M158.2,86.1c-0.4,0.8-1.4,1.1-2.2,0.7
	c-0.8-0.4-1.1-1.4-0.7-2.2c0.4-0.8,1.4-1.1,2.2-0.7c0.1,0.1,0.1,0.1,0.2,0.1c0.5,0.3,0.7,0.8,0.7,1.3
	C158.4,85.6,158.3,85.9,158.2,86.1z M160.9,84.1l-0.6-2.3l-26.4,8.1l0.9,2.6c3,1.1,6.3,1.4,9.5,1c0,0,7.2-1.6,12.1-4.6
	c0.7-0.7,2.6-1.3,4.7,0.2c0-0.1,0.2-0.1,0.2-0.3v-0.2c0,0,0.1,0,0.1-0.2c0-0.2,0.1-0.2,0.1-0.4v-0.9
	C161.4,86.1,161.2,85.1,160.9,84.1z M141.3,91.4c-0.4,0.8-1.4,1.1-2.2,0.7c-0.8-0.4-1.1-1.4-0.7-2.2c0.4-0.8,1.4-1.1,2.2-0.7
	c0.6,0.3,0.9,0.9,0.9,1.5C141.5,90.9,141.4,91.2,141.3,91.4z M158.2,86.1c-0.4,0.8-1.4,1.1-2.2,0.7c-0.8-0.4-1.1-1.4-0.7-2.2
	c0.4-0.8,1.4-1.1,2.2-0.7c0.1,0.1,0.1,0.1,0.2,0.1c0.5,0.3,0.7,0.8,0.7,1.3C158.4,85.6,158.3,85.9,158.2,86.1z M134.5,98.1
	c-16.6,4.7-24.4,6-32.9,4.9c-0.3,0-0.6-0.1-0.8-0.1c-1.8-0.3-3.6-0.6-5.4-1.1l-1.7,0.5c7,4.3,21,3.3,41.3-2.8L134.5,98.1z
	 M132.9,94.1l-1.1-3.6l-32.4,10c8.7,1.6,15.5,0.9,34.1-4.5L132.9,94.1z M132.9,94.1l-1.1-3.6l-32.4,10c8.7,1.6,15.5,0.9,34.1-4.5
	L132.9,94.1z M134.5,98.1c-16.6,4.7-24.4,6-32.9,4.9c-0.3,0-0.6-0.1-0.8-0.1c-1.8-0.3-3.6-0.6-5.4-1.1l-1.7,0.5
	c7,4.3,21,3.3,41.3-2.8L134.5,98.1z M160.9,84.1l-0.6-2.3l-26.4,8.1l0.9,2.6c3,1.1,6.3,1.4,9.5,1c0,0,7.2-1.6,12.1-4.6
	c0.7-0.7,2.6-1.3,4.7,0.2c0-0.1,0.2-0.1,0.2-0.3v-0.2c0,0,0.1,0,0.1-0.2c0-0.2,0.1-0.2,0.1-0.4v-0.9
	C161.4,86.1,161.2,85.1,160.9,84.1z M141.3,91.4c-0.4,0.8-1.4,1.1-2.2,0.7c-0.8-0.4-1.1-1.4-0.7-2.2c0.4-0.8,1.4-1.1,2.2-0.7
	c0.6,0.3,0.9,0.9,0.9,1.5C141.5,90.9,141.4,91.2,141.3,91.4z M158.2,86.1c-0.4,0.8-1.4,1.1-2.2,0.7c-0.8-0.4-1.1-1.4-0.7-2.2
	c0.4-0.8,1.4-1.1,2.2-0.7c0.1,0.1,0.1,0.1,0.2,0.1c0.5,0.3,0.7,0.8,0.7,1.3C158.4,85.6,158.3,85.9,158.2,86.1z M160.9,84.1l-0.6-2.3
	l-26.4,8.1l0.9,2.6c3,1.1,6.3,1.4,9.5,1c0,0,7.2-1.6,12.1-4.6c0.7-0.7,2.6-1.3,4.7,0.2c0-0.1,0.2-0.1,0.2-0.3v-0.2
	c0,0,0.1,0,0.1-0.2c0-0.2,0.1-0.2,0.1-0.4v-0.9C161.4,86.1,161.2,85.1,160.9,84.1z M141.3,91.4c-0.4,0.8-1.4,1.1-2.2,0.7
	c-0.8-0.4-1.1-1.4-0.7-2.2c0.4-0.8,1.4-1.1,2.2-0.7c0.6,0.3,0.9,0.9,0.9,1.5C141.5,90.9,141.4,91.2,141.3,91.4z M158.2,86.1
	c-0.4,0.8-1.4,1.1-2.2,0.7c-0.8-0.4-1.1-1.4-0.7-2.2c0.4-0.8,1.4-1.1,2.2-0.7c0.1,0.1,0.1,0.1,0.2,0.1c0.5,0.3,0.7,0.8,0.7,1.3
	C158.4,85.6,158.3,85.9,158.2,86.1z M101.6,103c-0.3,0-0.6-0.1-0.8-0.1c-1.8-0.3-3.6-0.6-5.4-1.1l-1.7,0.5c7,4.3,21,3.3,41.3-2.8
	l-0.5-1.4C117.9,102.8,110.1,104.1,101.6,103z M133.5,96l-0.6-1.9l-1.1-3.6l-32.4,10C108.1,102.1,114.9,101.4,133.5,96z M140,0H85
	C38.1,0,0,38.1,0,85v55c0,46.9,38.1,85,85,85h55c46.9,0,85-38.1,85-85V85C225,38.1,186.9,0,140,0z M121.1,144.4
	c-1.2,1.1-2.8,1.7-4.4,1.6c-1.9,0-3.8-0.4-5.5-1.1c-4.5-1.8-8.8-4.2-12.8-7c-7.2-5-14-10.6-20.4-16.6c-3.2-3.2-4.8-6.6-4.8-10v-0.4
	c-2.7-0.2-5.3-0.8-7.8-1.8c-2.7-1.3-4.2-3-4.2-5c0-2.4,2.2-4.5,6.1-5.7c-1.8-3.5-2-6.5-0.3-8.2s4.7-1.5,8.2,0.4
	c1.3-3.8,3.3-6.1,5.9-6.3c1.9,0,3.7,1.5,5,4.2c1.1,2.5,1.7,5.2,1.9,7.9c0.1,0,0.3,0,0.4,0c1.9,0,3.8,0.5,5.4,1.3l0.2,0.1
	c0.5,0.4,0.7,1.1,0.3,1.6c-0.3,0.6-1.1,0.7-1.6,0.4c-4.3-2.1-8.5-1.1-12.6,3.1c-2.8,2.7-4.2,5.4-4.2,8.3c0.1,2.2,0.9,4.4,2.3,6.2
	l3.3-3.3c0,0,0-0.1,0.1-0.1c0.5-0.4,1.2-0.4,1.6,0.1l0.1,0.1c0.4,0.5,0.3,1.2-0.1,1.6l-3.4,3.5l0.2,0.2c6,5.7,12.4,10.9,19.2,15.6
	l2.9-2.9c0.5-0.5,1.2-0.5,1.7,0c0.5,0.5,0.5,1.2,0,1.7l-2.5,2.5c7.1,4.7,12.5,7.1,15.9,7.1c1,0.1,2-0.2,2.7-0.9
	c1.8-1.8,0.9-6.1-2.4-12.3l-2.4,2.4c-0.3,0.2-0.6,0.3-0.9,0.4c-0.3,0-0.7-0.1-0.9-0.4v-0.1c-0.4-0.5-0.4-1.1,0-1.6l2.9-2.9
	c-0.3-0.4-0.6-0.8-0.8-1.3c-3.2-5.1-6.7-10-10.5-14.6l-2.4,2.4c-0.3,0.2-0.6,0.4-0.9,0.4h-0.1c-0.3,0-0.6-0.1-0.8-0.4
	c-0.1-0.1-0.1-0.1-0.2-0.2c-0.3-0.4-0.2-1.1,0.2-1.4l2.5-2.5c-0.3-0.3-0.6-0.7-0.9-1.1l-0.1-0.1c-0.4-0.5-0.4-1.2,0.1-1.6
	c0.5-0.4,1.2-0.4,1.7,0.1c4.9,5.6,9.3,11.6,13.2,17.9c2.2,3.3,3.9,6.8,5.1,10.6C123.3,139.8,123,142.6,121.1,144.4z M89.5,115.4
	l3.2-3.2c0.1-0.1,0.1-0.1,0.2-0.2c0.4-0.3,1.1-0.2,1.4,0.2c0.3,0.5,0.4,1.1,0.2,1.6l-3.2,3.2c-0.3,0.2-0.6,0.3-0.9,0.4
	c-0.3,0-0.7-0.2-0.9-0.4C89.1,116.5,89.1,115.9,89.5,115.4z M101,122.4l3.2-3.1c0.1-0.1,0.1-0.1,0.2-0.2c0.4-0.3,1.1-0.2,1.4,0.2
	c0.1,0,0.1,0.1,0.2,0.1c0.4,0.5,0.4,1.1-0.1,1.5l-3.1,3.1c-0.3,0.2-0.6,0.3-0.9,0.4c-0.3,0-0.7-0.1-0.9-0.4l-0.1-0.1
	C100.5,123.5,100.5,122.8,101,122.4z M163.2,89.9c-0.5,0.7-1.2,1.2-2,1.4l-0.4,0.1l-0.4-0.3c-1.6-1.3-2.6-0.6-2.7-0.6h-0.2
	c-4,2.3-8.3,3.9-12.8,4.9c-3,0.5-6.2,0.3-9.1-0.6l1.8,5.9l-1,0.3c-20.7,6.4-35.1,7.5-43,3.3c-0.9-0.5-1.8-1.1-2.6-1.8l-1.5-1.2
	l5.9-1.8l38-11.7l28.4-8.8l1.3,4.3C163.9,86.3,163.9,88.6,163.2,89.9z M160.3,81.8l-26.4,8.1l0.9,2.6c3,1.1,6.3,1.4,9.5,1
	c0,0,7.2-1.6,12.1-4.6c0.7-0.7,2.6-1.3,4.7,0.2c0-0.1,0.2-0.1,0.2-0.3v-0.2c0,0,0.1,0,0.1-0.2c0-0.2,0.1-0.2,0.1-0.4v-0.9
	c-0.1-1-0.3-2-0.6-3L160.3,81.8z M141.3,91.4c-0.4,0.8-1.4,1.1-2.2,0.7c-0.8-0.4-1.1-1.4-0.7-2.2c0.4-0.8,1.4-1.1,2.2-0.7
	c0.6,0.3,0.9,0.9,0.9,1.5C141.5,90.9,141.4,91.2,141.3,91.4z M158.2,86.1c-0.4,0.8-1.4,1.1-2.2,0.7c-0.8-0.4-1.1-1.4-0.7-2.2
	c0.4-0.8,1.4-1.1,2.2-0.7c0.1,0.1,0.1,0.1,0.2,0.1c0.5,0.3,0.7,0.8,0.7,1.3C158.4,85.6,158.3,85.9,158.2,86.1z M101.6,103
	c-0.3,0-0.6-0.1-0.8-0.1c-1.8-0.3-3.6-0.6-5.4-1.1l-1.7,0.5c7,4.3,21,3.3,41.3-2.8l-0.5-1.4C117.9,102.8,110.1,104.1,101.6,103z
	 M133.5,96l-0.6-1.9l-1.1-3.6l-32.4,10C108.1,102.1,114.9,101.4,133.5,96z M132.9,94.1l-1.1-3.6l-32.4,10c8.7,1.6,15.5,0.9,34.1-4.5
	L132.9,94.1z M134.5,98.1c-16.6,4.7-24.4,6-32.9,4.9c-0.3,0-0.6-0.1-0.8-0.1c-1.8-0.3-3.6-0.6-5.4-1.1l-1.7,0.5
	c7,4.3,21,3.3,41.3-2.8L134.5,98.1z M160.9,84.1l-0.6-2.3l-26.4,8.1l0.9,2.6c3,1.1,6.3,1.4,9.5,1c0,0,7.2-1.6,12.1-4.6
	c0.7-0.7,2.6-1.3,4.7,0.2c0-0.1,0.2-0.1,0.2-0.3v-0.2c0,0,0.1,0,0.1-0.2c0-0.2,0.1-0.2,0.1-0.4v-0.9
	C161.4,86.1,161.2,85.1,160.9,84.1z M141.3,91.4c-0.4,0.8-1.4,1.1-2.2,0.7c-0.8-0.4-1.1-1.4-0.7-2.2c0.4-0.8,1.4-1.1,2.2-0.7
	c0.6,0.3,0.9,0.9,0.9,1.5C141.5,90.9,141.4,91.2,141.3,91.4z M158.2,86.1c-0.4,0.8-1.4,1.1-2.2,0.7c-0.8-0.4-1.1-1.4-0.7-2.2
	c0.4-0.8,1.4-1.1,2.2-0.7c0.1,0.1,0.1,0.1,0.2,0.1c0.5,0.3,0.7,0.8,0.7,1.3C158.4,85.6,158.3,85.9,158.2,86.1z M160.9,84.1l-0.6-2.3
	l-26.4,8.1l0.9,2.6c3,1.1,6.3,1.4,9.5,1c0,0,7.2-1.6,12.1-4.6c0.7-0.7,2.6-1.3,4.7,0.2c0-0.1,0.2-0.1,0.2-0.3v-0.2
	c0,0,0.1,0,0.1-0.2c0-0.2,0.1-0.2,0.1-0.4v-0.9C161.4,86.1,161.2,85.1,160.9,84.1z M141.3,91.4c-0.4,0.8-1.4,1.1-2.2,0.7
	c-0.8-0.4-1.1-1.4-0.7-2.2c0.4-0.8,1.4-1.1,2.2-0.7c0.6,0.3,0.9,0.9,0.9,1.5C141.5,90.9,141.4,91.2,141.3,91.4z M158.2,86.1
	c-0.4,0.8-1.4,1.1-2.2,0.7c-0.8-0.4-1.1-1.4-0.7-2.2c0.4-0.8,1.4-1.1,2.2-0.7c0.1,0.1,0.1,0.1,0.2,0.1c0.5,0.3,0.7,0.8,0.7,1.3
	C158.4,85.6,158.3,85.9,158.2,86.1z M134.5,98.1c-16.6,4.7-24.4,6-32.9,4.9c-0.3,0-0.6-0.1-0.8-0.1c-1.8-0.3-3.6-0.6-5.4-1.1
	l-1.7,0.5c7,4.3,21,3.3,41.3-2.8L134.5,98.1z M132.9,94.1l-1.1-3.6l-32.4,10c8.7,1.6,15.5,0.9,34.1-4.5L132.9,94.1z M132.9,94.1
	l-1.1-3.6l-32.4,10c8.7,1.6,15.5,0.9,34.1-4.5L132.9,94.1z M134.5,98.1c-16.6,4.7-24.4,6-32.9,4.9c-0.3,0-0.6-0.1-0.8-0.1
	c-1.8-0.3-3.6-0.6-5.4-1.1l-1.7,0.5c7,4.3,21,3.3,41.3-2.8L134.5,98.1z M160.9,84.1l-0.6-2.3l-26.4,8.1l0.9,2.6c3,1.1,6.3,1.4,9.5,1
	c0,0,7.2-1.6,12.1-4.6c0.7-0.7,2.6-1.3,4.7,0.2c0-0.1,0.2-0.1,0.2-0.3v-0.2c0,0,0.1,0,0.1-0.2c0-0.2,0.1-0.2,0.1-0.4v-0.9
	C161.4,86.1,161.2,85.1,160.9,84.1z M141.3,91.4c-0.4,0.8-1.4,1.1-2.2,0.7c-0.8-0.4-1.1-1.4-0.7-2.2c0.4-0.8,1.4-1.1,2.2-0.7
	c0.6,0.3,0.9,0.9,0.9,1.5C141.5,90.9,141.4,91.2,141.3,91.4z M158.2,86.1c-0.4,0.8-1.4,1.1-2.2,0.7c-0.8-0.4-1.1-1.4-0.7-2.2
	c0.4-0.8,1.4-1.1,2.2-0.7c0.1,0.1,0.1,0.1,0.2,0.1c0.5,0.3,0.7,0.8,0.7,1.3C158.4,85.6,158.3,85.9,158.2,86.1z M160.9,84.1l-0.6-2.3
	l-26.4,8.1l0.9,2.6c3,1.1,6.3,1.4,9.5,1c0,0,7.2-1.6,12.1-4.6c0.7-0.7,2.6-1.3,4.7,0.2c0-0.1,0.2-0.1,0.2-0.3v-0.2
	c0,0,0.1,0,0.1-0.2c0-0.2,0.1-0.2,0.1-0.4v-0.9C161.4,86.1,161.2,85.1,160.9,84.1z M141.3,91.4c-0.4,0.8-1.4,1.1-2.2,0.7
	c-0.8-0.4-1.1-1.4-0.7-2.2c0.4-0.8,1.4-1.1,2.2-0.7c0.6,0.3,0.9,0.9,0.9,1.5C141.5,90.9,141.4,91.2,141.3,91.4z M158.2,86.1
	c-0.4,0.8-1.4,1.1-2.2,0.7c-0.8-0.4-1.1-1.4-0.7-2.2c0.4-0.8,1.4-1.1,2.2-0.7c0.1,0.1,0.1,0.1,0.2,0.1c0.5,0.3,0.7,0.8,0.7,1.3
	C158.4,85.6,158.3,85.9,158.2,86.1z M134.5,98.1c-16.6,4.7-24.4,6-32.9,4.9c-0.3,0-0.6-0.1-0.8-0.1c-1.8-0.3-3.6-0.6-5.4-1.1
	l-1.7,0.5c7,4.3,21,3.3,41.3-2.8L134.5,98.1z M132.9,94.1l-1.1-3.6l-32.4,10c8.7,1.6,15.5,0.9,34.1-4.5L132.9,94.1z"/>
<path class="st0" d="M157.5,83.9c0.1,0.1,0.1,0.1,0.2,0.1L157.5,83.9z M157.5,83.9c0.1,0.1,0.1,0.1,0.2,0.1L157.5,83.9z M157.5,83.9
	c0.1,0.1,0.1,0.1,0.2,0.1L157.5,83.9z M157.5,83.9c0.1,0.1,0.1,0.1,0.2,0.1L157.5,83.9z M157.5,83.9c0.1,0.1,0.1,0.1,0.2,0.1
	L157.5,83.9z"/>
</svg>
