<?xml version="1.0" encoding="utf-8"?>
<!-- Generator: Adobe Illustrator 24.3.0, SVG Export Plug-In . SVG Version: 6.00 Build 0)  -->
<svg version="1.1" id="Layer_1" xmlns="http://www.w3.org/2000/svg" xmlns:xlink="http://www.w3.org/1999/xlink" x="0px" y="0px"
	 viewBox="0 0 225 225" style="enable-background:new 0 0 225 225;" xml:space="preserve">
<style type="text/css">
	.st0{fill:#FFFFFF;}
</style>
<path class="st0" d="M140.8,119.1c2.1,0.6,3.9,2,5.1,3.8c0.4,0.7,0.6,1.3,0.9,1.9l9.7-19.1L140.8,119.1z M158.8,101V81.1h-34.5v0.1
	h-0.4c-5.8,0.1-10.4,4.9-10.3,10.7v42.6c3-3.8,7.5-6,12.3-6.1H145c0.1-0.3,0.2-0.7,0.2-1c-0.1-1.2-0.5-2.3-1.2-3.3
	c-0.8-1.3-2.1-2.3-3.6-2.8c-0.7-0.2-1.4-0.4-2.1-0.4c-0.3,0-0.7-0.1-0.9-0.4c-0.3-0.5-0.2-1.1,0.2-1.5L158.8,101z M121.8,123.6
	c0,0.5-0.5,1-1,1c0-0.1-0.1-0.1-0.2-0.1c-0.5,0-0.9-0.5-0.9-1V88.6c0-0.5,0.5-1,1-1h0.1c0.1,0,0.2,0,0.3,0c0.2,0.1,0.5,0.2,0.6,0.5
	c0,0,0.1,0.1,0.1,0.1c0,0.1,0,0.1,0.1,0.2c0,0.1,0,0.1,0,0.2V123.6z M147.4,128.3h11.4v-22.4L147.4,128.3z M125.9,130.5
	c-4.9,0-9.5,2.7-11.7,7.1h44.6v-7.1H125.9z M157.3,134.2c0,0.5-0.5,0.9-1,0.8h-31.2c-0.5,0-0.9-0.5-0.8-1v-0.4c0-0.5,0.5-0.9,1-0.8
	h30.9c0.6,0,1.1,0.5,1.1,1.1V134.2z M161,84.2V139c0,0.5-0.5,0.9-1,0.8h-47.6c-0.5-0.1-0.9-0.5-0.9-1v-47c0.1-2.7,1-5.4,2.6-7.6h-4
	v49.3c0,0,0,0.1,0,0.1c0,0.6-0.4,1-1,1c-0.6,0-1.1-0.5-1.1-1.1V84.1H62.2v57h45.7v-1.4c0-0.6,0.5-1,1.1-1c0.6,0,1,0.5,1,1.1v3
	c0.7,0.6,1.7,0.9,2.6,0.8c1.8,0,3-0.8,3-1.3c0-0.5,0.5-1,1-1h46.2V84.2H161z M106.1,138.2c0.1,0.5-0.2,1-0.8,1.1c0,0,0,0,0,0l-0.1,0
	H64.7c-0.5,0-1-0.4-1-0.9v-0.2c0-0.6,0.4-1,1-1.1h40.4c0.5,0,1,0.4,1,0.9V138.2z M161,84.2V139c0,0.5-0.5,0.9-1,0.8h-47.6
	c-0.5-0.1-0.9-0.5-0.9-1v-47c0.1-2.7,1-5.4,2.6-7.6h-4v49.3c0,0,0,0.1,0,0.1c0,0.6-0.4,1-1,1c-0.6,0-1.1-0.5-1.1-1.1V84.1H62.2v57
	h45.7v-1.4c0-0.6,0.5-1,1.1-1c0.6,0,1,0.5,1,1.1v3c0.7,0.6,1.7,0.9,2.6,0.8c1.8,0,3-0.8,3-1.3c0-0.5,0.5-1,1-1h46.2V84.2H161z
	 M106.1,138.2c0.1,0.5-0.2,1-0.8,1.1c0,0,0,0,0,0l-0.1,0H64.7c-0.5,0-1-0.4-1-0.9v-0.2c0-0.6,0.4-1,1-1.1h40.4c0.5,0,1,0.4,1,0.9
	V138.2z M125.9,130.5c-4.9,0-9.5,2.7-11.7,7.1h44.6v-7.1H125.9z M157.3,134.2c0,0.5-0.5,0.9-1,0.8h-31.2c-0.5,0-0.9-0.5-0.8-1v-0.4
	c0-0.5,0.5-0.9,1-0.8h30.9c0.6,0,1.1,0.5,1.1,1.1V134.2z M147.4,128.3h11.4v-22.4L147.4,128.3z M158.8,101V81.1h-34.5v0.1h-0.4
	c-5.8,0.1-10.4,4.9-10.3,10.7v42.6c3-3.8,7.5-6,12.3-6.1H145c0.1-0.3,0.2-0.7,0.2-1c-0.1-1.2-0.5-2.3-1.2-3.3
	c-0.8-1.3-2.1-2.3-3.6-2.8c-0.7-0.2-1.4-0.4-2.1-0.4c-0.3,0-0.7-0.1-0.9-0.4c-0.3-0.5-0.2-1.1,0.2-1.5L158.8,101z M121.8,123.6
	c0,0.5-0.5,1-1,1c0-0.1-0.1-0.1-0.2-0.1c-0.5,0-0.9-0.5-0.9-1V88.6c0-0.5,0.5-1,1-1h0.1c0.1,0,0.2,0,0.3,0c0.2,0.1,0.5,0.2,0.6,0.5
	c0,0,0.1,0.1,0.1,0.1c0,0.1,0,0.1,0.1,0.2c0,0.1,0,0.1,0,0.2V123.6z M140.8,119.1c2.1,0.6,3.9,2,5.1,3.8c0.4,0.7,0.6,1.3,0.9,1.9
	l9.7-19.1L140.8,119.1z M140.8,119.1c2.1,0.6,3.9,2,5.1,3.8c0.4,0.7,0.6,1.3,0.9,1.9l9.7-19.1L140.8,119.1z M158.8,101V81.1h-34.5
	v0.1h-0.4c-5.8,0.1-10.4,4.9-10.3,10.7v42.6c3-3.8,7.5-6,12.3-6.1H145c0.1-0.3,0.2-0.7,0.2-1c-0.1-1.2-0.5-2.3-1.2-3.3
	c-0.8-1.3-2.1-2.3-3.6-2.8c-0.7-0.2-1.4-0.4-2.1-0.4c-0.3,0-0.7-0.1-0.9-0.4c-0.3-0.5-0.2-1.1,0.2-1.5L158.8,101z M121.8,123.6
	c0,0.5-0.5,1-1,1c0-0.1-0.1-0.1-0.2-0.1c-0.5,0-0.9-0.5-0.9-1V88.6c0-0.5,0.5-1,1-1h0.1c0.1,0,0.2,0,0.3,0c0.2,0.1,0.5,0.2,0.6,0.5
	c0,0,0.1,0.1,0.1,0.1c0,0.1,0,0.1,0.1,0.2c0,0.1,0,0.1,0,0.2V123.6z M147.4,128.3h11.4v-22.4L147.4,128.3z M125.9,130.5
	c-4.9,0-9.5,2.7-11.7,7.1h44.6v-7.1H125.9z M157.3,134.2c0,0.5-0.5,0.9-1,0.8h-31.2c-0.5,0-0.9-0.5-0.8-1v-0.4c0-0.5,0.5-0.9,1-0.8
	h30.9c0.6,0,1.1,0.5,1.1,1.1V134.2z M161,84.2V139c0,0.5-0.5,0.9-1,0.8h-47.6c-0.5-0.1-0.9-0.5-0.9-1v-47c0.1-2.7,1-5.4,2.6-7.6h-4
	v49.3c0,0,0,0.1,0,0.1c0,0.6-0.4,1-1,1c-0.6,0-1.1-0.5-1.1-1.1V84.1H62.2v57h45.7v-1.4c0-0.6,0.5-1,1.1-1c0.6,0,1,0.5,1,1.1v3
	c0.7,0.6,1.7,0.9,2.6,0.8c1.8,0,3-0.8,3-1.3c0-0.5,0.5-1,1-1h46.2V84.2H161z M106.1,138.2c0.1,0.5-0.2,1-0.8,1.1c0,0,0,0,0,0l-0.1,0
	H64.7c-0.5,0-1-0.4-1-0.9v-0.2c0-0.6,0.4-1,1-1.1h40.4c0.5,0,1,0.4,1,0.9V138.2z M161,84.2V139c0,0.5-0.5,0.9-1,0.8h-47.6
	c-0.5-0.1-0.9-0.5-0.9-1v-47c0.1-2.7,1-5.4,2.6-7.6h-4v49.3c0,0,0,0.1,0,0.1c0,0.6-0.4,1-1,1c-0.6,0-1.1-0.5-1.1-1.1V84.1H62.2v57
	h45.7v-1.4c0-0.6,0.5-1,1.1-1c0.6,0,1,0.5,1,1.1v3c0.7,0.6,1.7,0.9,2.6,0.8c1.8,0,3-0.8,3-1.3c0-0.5,0.5-1,1-1h46.2V84.2H161z
	 M106.1,138.2c0.1,0.5-0.2,1-0.8,1.1c0,0,0,0,0,0l-0.1,0H64.7c-0.5,0-1-0.4-1-0.9v-0.2c0-0.6,0.4-1,1-1.1h40.4c0.5,0,1,0.4,1,0.9
	V138.2z M114.2,137.6h44.6v-7.1h-32.9C121,130.5,116.4,133.2,114.2,137.6z M157.3,133.9v0.3c0,0.5-0.5,0.9-1,0.8h-31.2
	c-0.5,0-0.9-0.5-0.8-1v-0.4c0-0.5,0.5-0.9,1-0.8h30.9C156.8,132.8,157.3,133.3,157.3,133.9z M158.8,105.9l-11.4,22.4h11.4V105.9z
	 M113.6,134.5c3-3.8,7.5-6,12.3-6.1H145c0.1-0.3,0.2-0.7,0.2-1c-0.1-1.2-0.5-2.3-1.2-3.3c-0.8-1.3-2.1-2.3-3.6-2.8
	c-0.7-0.2-1.4-0.4-2.1-0.4c-0.3,0-0.7-0.1-0.9-0.4c-0.3-0.5-0.2-1.1,0.2-1.5l21.2-18V81.1h-34.5v0.1h-0.4
	c-5.8,0.1-10.4,4.9-10.3,10.7V134.5z M119.7,88.6c0-0.5,0.5-1,1-1h0.1c0.1,0,0.2,0,0.3,0c0.2,0.1,0.5,0.2,0.6,0.5
	c0,0,0.1,0.1,0.1,0.1c0,0.1,0,0.1,0.1,0.2c0,0.1,0,0.1,0,0.2v35c0,0.5-0.5,1-1,1c0-0.1-0.1-0.1-0.2-0.1c-0.5,0-0.9-0.5-0.9-1V88.6z
	 M140.8,119.1c2.1,0.6,3.9,2,5.1,3.8c0.4,0.7,0.6,1.3,0.9,1.9l9.7-19.1L140.8,119.1z M140,0H85C38.1,0,0,38.1,0,85v55
	c0,46.9,38.1,85,85,85h55c46.9,0,85-38.1,85-85V85C225,38.1,186.9,0,140,0z M165,142.6c-0.1,0.5-0.6,0.9-1.1,0.9h-46.5
	c-0.5,1.5-2.5,2.4-4.9,2.4c-1.9,0-4.1-0.8-4.9-2.4H60.8c-0.5,0-0.9-0.5-0.8-1V83c0,0,0,0,0,0c0-0.5,0.5-0.9,1-0.9h55
	c2.3-2,5.2-3.1,8.3-3.1H160c0.5,0.1,0.9,0.5,1,1v2h3c0.6,0,1,0.5,1,1.1V142.6C165.1,142.5,165.1,142.6,165,142.6z M161,139
	c0,0.5-0.5,0.9-1,0.8h-47.6c-0.5-0.1-0.9-0.5-0.9-1v-47c0.1-2.7,1-5.4,2.6-7.6h-4v49.3c0,0,0,0.1,0,0.1c0,0.6-0.4,1-1,1
	c-0.6,0-1.1-0.5-1.1-1.1V84.1H62.2v57h45.7v-1.4c0-0.6,0.5-1,1.1-1c0.6,0,1,0.5,1,1.1v3c0.7,0.6,1.7,0.9,2.6,0.8c1.8,0,3-0.8,3-1.3
	c0-0.5,0.5-1,1-1h46.2V84.2H161V139z M106.1,138.2c0.1,0.5-0.2,1-0.8,1.1c0,0,0,0,0,0l-0.1,0H64.7c-0.5,0-1-0.4-1-0.9v-0.2
	c0-0.6,0.4-1,1-1.1h40.4c0.5,0,1,0.4,1,0.9V138.2z M114.2,137.6h44.6v-7.1h-32.9C121,130.5,116.4,133.2,114.2,137.6z M157.3,133.9
	v0.3c0,0.5-0.5,0.9-1,0.8h-31.2c-0.5,0-0.9-0.5-0.8-1v-0.4c0-0.5,0.5-0.9,1-0.8h30.9C156.8,132.8,157.3,133.3,157.3,133.9z
	 M158.8,105.9l-11.4,22.4h11.4V105.9z M113.6,134.5c3-3.8,7.5-6,12.3-6.1H145c0.1-0.3,0.2-0.7,0.2-1c-0.1-1.2-0.5-2.3-1.2-3.3
	c-0.8-1.3-2.1-2.3-3.6-2.8c-0.7-0.2-1.4-0.4-2.1-0.4c-0.3,0-0.7-0.1-0.9-0.4c-0.3-0.5-0.2-1.1,0.2-1.5l21.2-18V81.1h-34.5v0.1h-0.4
	c-5.8,0.1-10.4,4.9-10.3,10.7V134.5z M119.7,88.6c0-0.5,0.5-1,1-1h0.1c0.1,0,0.2,0,0.3,0c0.2,0.1,0.5,0.2,0.6,0.5
	c0,0,0.1,0.1,0.1,0.1c0,0.1,0,0.1,0.1,0.2c0,0.1,0,0.1,0,0.2v35c0,0.5-0.5,1-1,1c0-0.1-0.1-0.1-0.2-0.1c-0.5,0-0.9-0.5-0.9-1V88.6z
	 M140.8,119.1c2.1,0.6,3.9,2,5.1,3.8c0.4,0.7,0.6,1.3,0.9,1.9l9.7-19.1L140.8,119.1z M140.8,119.1c2.1,0.6,3.9,2,5.1,3.8
	c0.4,0.7,0.6,1.3,0.9,1.9l9.7-19.1L140.8,119.1z M158.8,101V81.1h-34.5v0.1h-0.4c-5.8,0.1-10.4,4.9-10.3,10.7v42.6
	c3-3.8,7.5-6,12.3-6.1H145c0.1-0.3,0.2-0.7,0.2-1c-0.1-1.2-0.5-2.3-1.2-3.3c-0.8-1.3-2.1-2.3-3.6-2.8c-0.7-0.2-1.4-0.4-2.1-0.4
	c-0.3,0-0.7-0.1-0.9-0.4c-0.3-0.5-0.2-1.1,0.2-1.5L158.8,101z M121.8,123.6c0,0.5-0.5,1-1,1c0-0.1-0.1-0.1-0.2-0.1
	c-0.5,0-0.9-0.5-0.9-1V88.6c0-0.5,0.5-1,1-1h0.1c0.1,0,0.2,0,0.3,0c0.2,0.1,0.5,0.2,0.6,0.5c0,0,0.1,0.1,0.1,0.1
	c0,0.1,0,0.1,0.1,0.2c0,0.1,0,0.1,0,0.2V123.6z M147.4,128.3h11.4v-22.4L147.4,128.3z M125.9,130.5c-4.9,0-9.5,2.7-11.7,7.1h44.6
	v-7.1H125.9z M157.3,134.2c0,0.5-0.5,0.9-1,0.8h-31.2c-0.5,0-0.9-0.5-0.8-1v-0.4c0-0.5,0.5-0.9,1-0.8h30.9c0.6,0,1.1,0.5,1.1,1.1
	V134.2z M161,84.2V139c0,0.5-0.5,0.9-1,0.8h-47.6c-0.5-0.1-0.9-0.5-0.9-1v-47c0.1-2.7,1-5.4,2.6-7.6h-4v49.3c0,0,0,0.1,0,0.1
	c0,0.6-0.4,1-1,1c-0.6,0-1.1-0.5-1.1-1.1V84.1H62.2v57h45.7v-1.4c0-0.6,0.5-1,1.1-1c0.6,0,1,0.5,1,1.1v3c0.7,0.6,1.7,0.9,2.6,0.8
	c1.8,0,3-0.8,3-1.3c0-0.5,0.5-1,1-1h46.2V84.2H161z M106.1,138.2c0.1,0.5-0.2,1-0.8,1.1c0,0,0,0,0,0l-0.1,0H64.7c-0.5,0-1-0.4-1-0.9
	v-0.2c0-0.6,0.4-1,1-1.1h40.4c0.5,0,1,0.4,1,0.9V138.2z M161,84.2V139c0,0.5-0.5,0.9-1,0.8h-47.6c-0.5-0.1-0.9-0.5-0.9-1v-47
	c0.1-2.7,1-5.4,2.6-7.6h-4v49.3c0,0,0,0.1,0,0.1c0,0.6-0.4,1-1,1c-0.6,0-1.1-0.5-1.1-1.1V84.1H62.2v57h45.7v-1.4c0-0.6,0.5-1,1.1-1
	c0.6,0,1,0.5,1,1.1v3c0.7,0.6,1.7,0.9,2.6,0.8c1.8,0,3-0.8,3-1.3c0-0.5,0.5-1,1-1h46.2V84.2H161z M106.1,138.2
	c0.1,0.5-0.2,1-0.8,1.1c0,0,0,0,0,0l-0.1,0H64.7c-0.5,0-1-0.4-1-0.9v-0.2c0-0.6,0.4-1,1-1.1h40.4c0.5,0,1,0.4,1,0.9V138.2z
	 M125.9,130.5c-4.9,0-9.5,2.7-11.7,7.1h44.6v-7.1H125.9z M157.3,134.2c0,0.5-0.5,0.9-1,0.8h-31.2c-0.5,0-0.9-0.5-0.8-1v-0.4
	c0-0.5,0.5-0.9,1-0.8h30.9c0.6,0,1.1,0.5,1.1,1.1V134.2z M147.4,128.3h11.4v-22.4L147.4,128.3z M158.8,101V81.1h-34.5v0.1h-0.4
	c-5.8,0.1-10.4,4.9-10.3,10.7v42.6c3-3.8,7.5-6,12.3-6.1H145c0.1-0.3,0.2-0.7,0.2-1c-0.1-1.2-0.5-2.3-1.2-3.3
	c-0.8-1.3-2.1-2.3-3.6-2.8c-0.7-0.2-1.4-0.4-2.1-0.4c-0.3,0-0.7-0.1-0.9-0.4c-0.3-0.5-0.2-1.1,0.2-1.5L158.8,101z M121.8,123.6
	c0,0.5-0.5,1-1,1c0-0.1-0.1-0.1-0.2-0.1c-0.5,0-0.9-0.5-0.9-1V88.6c0-0.5,0.5-1,1-1h0.1c0.1,0,0.2,0,0.3,0c0.2,0.1,0.5,0.2,0.6,0.5
	c0,0,0.1,0.1,0.1,0.1c0,0.1,0,0.1,0.1,0.2c0,0.1,0,0.1,0,0.2V123.6z M140.8,119.1c2.1,0.6,3.9,2,5.1,3.8c0.4,0.7,0.6,1.3,0.9,1.9
	l9.7-19.1L140.8,119.1z"/>
</svg>
