<?xml version="1.0" encoding="utf-8"?>
<!-- Generator: Adobe Illustrator 24.3.0, SVG Export Plug-In . SVG Version: 6.00 Build 0)  -->
<svg version="1.1" id="Layer_1" xmlns="http://www.w3.org/2000/svg" xmlns:xlink="http://www.w3.org/1999/xlink" x="0px" y="0px"
	 viewBox="0 0 225 225" style="enable-background:new 0 0 225 225;" xml:space="preserve">
<style type="text/css">
	.st0{fill:#FFFFFF;}
</style>
<path class="st0" d="M137.9,112.5h8.4c0.1,0.9-0.3,1.9-1,2.5c-10,14.6-28.4,26.4-32.3,28.9c-4-2.6-22.4-14.4-32.4-28.9l-0.6-0.9
	h13.8c0.6,0,1.1-0.3,1.3-0.9l6.3-12.5l9.9,25.4c0.2,0.6,0.7,1,1.3,1h0.1c0.7,0,1.2-0.5,1.4-1.1l8.7-29.6l4.6,15
	c0.2,0.5,0.6,0.9,1.1,1.1c0.6,0.1,1.2-0.2,1.5-0.7l3.6-5.4l3.1,5.3C136.9,112.2,137.4,112.5,137.9,112.5z"/>
<path class="st0" d="M150.7,91.8c1.8,5.5,0.9,11.5-2,17.9v-0.2h-9.2l-3.8-6.6c-0.2-0.5-0.7-0.8-1.2-0.8c-0.5-0.1-1,0.2-1.2,0.7
	l-3.2,4.7l-5.2-16.9c-0.2-0.6-0.8-1.1-1.5-1.1c-0.7,0-1.3,0.5-1.5,1.2l-8.8,30.2l-9.6-24.3c-0.2-0.5-0.7-0.9-1.2-1
	c-0.6-0.1-1.1,0.3-1.3,0.9l-7.5,14.6H78.2c-3.7-6.9-4.8-13.5-3.2-19.4c2.4-8.1,9.8-13.7,18.2-13.8c2.8,0.1,5.5,0.5,8.1,1.4
	c3.8,1.3,7.4,3.2,10.6,5.6c0.5,0.5,1.4,0.5,1.9,0c3.2-2.4,6.8-4.2,10.6-5.5c2.6-1,5.3-1.5,8.1-1.4C142.2,78,148.8,85.2,150.7,91.8z"
	/>
<path class="st0" d="M140,0H85C38.1,0,0,38.1,0,85v55c0,46.9,38.1,85,85,85h55c46.9,0,85-38.1,85-85V85C225,38.1,186.9,0,140,0z
	 M162,111.1c0,0.8-0.7,1.3-1.4,1.3h-9.9c-0.8,1.5-1.7,2.9-2.7,4.2c-10.7,15.6-31.1,28.8-34.4,30.4v0.1h-0.3
	c-0.1,0.1-0.1,0.1-0.2,0.1v-0.1c-3.9-0.8-25.2-16.3-35-30.4c-0.6-0.9-1.2-1.7-1.7-2.6H64.5c-0.8,0-1.5-0.7-1.5-1.5v-0.1
	c0.1-0.8,0.8-1.3,1.5-1.3h10.3c-4.5-8.7-4-15.7-2.7-20.3c2.3-7.8,9.9-16.1,21.2-16.1c3.1,0,6.2,0.6,9.1,1.7
	c3.8,1.3,7.3,3.1,10.6,5.3c3.3-2.3,6.8-4.1,10.6-5.4c2.9-1.1,6-1.7,9.1-1.7c11.3,0,19,8.3,21.2,16.1c1.4,4.5,1.7,10.7-1.8,18.7h8.3
	l0.2,0C161.4,109.5,162,110.2,162,111.1L162,111.1z"/>
</svg>
