<?xml version="1.0" encoding="utf-8"?>
<!-- Generator: Adobe Illustrator 24.3.0, SVG Export Plug-In . SVG Version: 6.00 Build 0)  -->
<svg version="1.1" id="Layer_1" xmlns="http://www.w3.org/2000/svg" xmlns:xlink="http://www.w3.org/1999/xlink" x="0px" y="0px"
	 viewBox="0 0 225 225" style="enable-background:new 0 0 225 225;" xml:space="preserve">
<style type="text/css">
	.st0{fill:#FFFFFF;}
</style>
<path class="st0" d="M84.7,126.7c0,1.4-1.5,2.4-3.3,2.4c-1.8,0-3.3-1-3.3-2.4c0-1.4,1.5-2.4,3.3-2.4
	C83.2,124.3,84.7,125.3,84.7,126.7z"/>
<path class="st0" d="M140,0H85C38.1,0,0,38.1,0,85v55c0,46.9,38.1,85,85,85h55c46.9,0,85-38.1,85-85V85C225,38.1,186.9,0,140,0z
	 M83.9,74.9c0.5,0,4.8,0,5.2,6.7c0.2,6.8-5.4,10.9-5.4,11c0.9-6.9-4.1-7.1-4.3-11.8C79.1,78,81.1,75.4,83.9,74.9z M72.9,86.6
	c2.8,0.1,5.1,2.2,5.4,5c0.6,4.6-4.3,5.7-2.2,12.2c0,0-6.2-3-7.1-9.7C68.1,87.4,72.4,86.7,72.9,86.6z M63.5,136.8
	c-1.3-1.3,0.6-1.1,3-1.1h1.9c1,1.8,2.5,3.2,4.3,4.1c5.6,3.1,16.2,6.7,29.9,6.7c2.3,0,4.8-0.2,7.3-0.4c1.7,0.8,3.4,1.4,5.2,2
	C98.4,152.3,77.8,150.7,63.5,136.8z M70.5,135.7h9.9c0.5,1.1,1.5,1.9,2.6,2.3c3.2,1.5,9.4,2.6,17,2.7c2,1.5,4.1,2.8,6.4,3.9
	c-14.2,0.7-25.9-2.6-32.1-5.9C71.7,137.3,70.8,136.2,70.5,135.7z M125.8,148.5c-0.3,0.1-0.6,0.1-0.9,0.1c-2.2-0.1-4.4-0.5-6.5-1.2
	c-1.5-0.5-3.1-1-4.7-1.6c-1.1-0.4-2.3-0.9-3.4-1.3c-2.4-1-4.8-2.2-7-3.6c-0.9-0.5-1.7-1.1-2.4-1.7c-0.6-0.5-1.1-1-1.5-1.5
	c-0.3-0.3-0.5-0.8-0.6-1.2c2.4-0.4,4.7-0.6,7.1-0.6c1.9,0,3.8,0.2,5.6,0.6l3.2,2l2.2,1.3l4.3,2.7l2,1.3l1.7,1.1l2.9,1.8
	c0.2,0.2,0.3,0.4,0.4,0.6C128.2,147.3,128,147.9,125.8,148.5z M126.8,143.9l-1.3-0.8c2.3-0.7,4.7-1.5,7-2.4
	C130.7,142,128.8,143,126.8,143.9z M137.8,136.6c-4.6,2.2-9.3,3.9-14.2,5.3l-3.9-2.4c6.9-1.1,13.7-2.8,20.2-5.3
	C139.3,135,138.6,135.8,137.8,136.6z M153.5,118.9c0,0-8.8,7.5-11.8,12.8c-7.7,3.2-15.8,5.3-24.1,6.4l-5.2-3.2h-0.2
	c-2-0.5-4.1-0.8-6.2-0.7c-6.2,0-8.2,0.1-8.6,0.8l-0.2,0.5c-0.4,1.2-0.1,2.5,0.7,3.4c0.2,0.1,0.3,0.2,0.4,0.4
	c-6.5-0.3-11.5-1.2-14.4-2.6c-0.6-0.3-1.1-0.7-1.6-1.1c-1-3-5.6-2.8-5.6-2.8H63.6v-9.5c0,0-0.7-14.7,17.5-14.3
	c7.9,0.1,38.6,12.3,48.8,12.3c10.2,0,13.6-11.1,13.6-14.3s-0.1-5.4,2.4-3.7s5.2,7.8,5.2,7.8c2.4-0.6,4.8-1.1,7.3-1.3
	c2.2,0,3.7,0.5,3.7,2.1C162.1,113.5,156.4,116,153.5,118.9z"/>
</svg>
