<?xml version="1.0" encoding="utf-8"?>
<!-- Generator: Adobe Illustrator 24.3.0, SVG Export Plug-In . SVG Version: 6.00 Build 0)  -->
<svg version="1.1" id="Layer_1" xmlns="http://www.w3.org/2000/svg" xmlns:xlink="http://www.w3.org/1999/xlink" x="0px" y="0px"
	 viewBox="0 0 225 225" style="enable-background:new 0 0 225 225;" xml:space="preserve">
<style type="text/css">
	.st0{fill:#FFFFFF;}
</style>
<path class="st0" d="M136.1,116.6c-2.2,13.1-14.7,21.9-27.8,19.7c-13.1-2.2-21.9-14.7-19.7-27.8c1.7-10.1,9.7-18.1,19.8-19.7l0.1,17
	c-3.9,2.1-5.3,7-3.2,10.9s7,5.3,10.9,3.2c1.3-0.8,2.4-1.9,3.1-3.3H136.1z"/>
<path class="st0" d="M152.5,116.4c-2.1,20.5-19.3,36.2-40,36.3c-22.2,0-40.2-18-40.2-40.2c0-20.6,15.6-37.9,36.2-40v8.1
	c-17.6,2.2-30,18.3-27.8,35.9c2.2,17.6,18.3,30,35.9,27.8c14.6-1.8,26-13.3,27.8-27.9H152.5z"/>
<path class="st0" d="M152.5,108.5h-33.2c0-0.1-0.1-0.1-0.1-0.2c0-0.1-0.1-0.1-0.2-0.2c-0.6-1-1.4-1.8-2.4-2.4l-0.1-0.1
	c-0.1-0.1-0.2-0.1-0.3-0.2v-33l0.3,0.2C135.5,74.5,150.6,89.5,152.5,108.5z"/>
<path class="st0" d="M140,0H85C38.1,0,0,38.1,0,85v55c0,46.9,38.1,85,85,85h55c46.9,0,85-38.1,85-85V85C225,38.1,186.9,0,140,0z
	 M112.5,160.7c-26.6,0-48.2-21.6-48.2-48.2s21.6-48.2,48.2-48.2c13.3,0,25.3,5.4,34.1,14.1c8.7,8.7,14.1,20.8,14.1,34.1
	C160.7,139.1,139.1,160.7,112.5,160.7z"/>
</svg>
