<?xml version="1.0" encoding="utf-8"?>
<!-- Generator: Adobe Illustrator 24.3.0, SVG Export Plug-In . SVG Version: 6.00 Build 0)  -->
<svg version="1.1" id="Layer_1" xmlns="http://www.w3.org/2000/svg" xmlns:xlink="http://www.w3.org/1999/xlink" x="0px" y="0px"
	 viewBox="0 0 225 225" style="enable-background:new 0 0 225 225;" xml:space="preserve">
<style type="text/css">
	.st0{fill:#FFFFFF;}
</style>
<path class="st0" d="M75.4,140H80c-1,4.8-5.2,8.2-10.1,8.1h-2.6L75.4,140z"/>
<path class="st0" d="M141.1,76.4v-0.2c-0.1-2.3-2-4.2-4.3-4.2h-3.1c-5.5,0-10,4.5-10,10v9.8c-0.1,0-0.1,0-0.1,0.1
	c-0.1,0-0.1,0-0.1,0.1c-0.1,0-0.1,0-0.1,0.1c0,0,0,0,0,0c0,0-0.1,0-0.1,0.1c0,0,0,0,0,0c-0.1,0-0.1,0-0.1,0.1l-31.9,31.9h14.5
	c7.5,0,13.6-6.2,13.6-13.7c0,0,0,0,0,0c0-1.2,1-2.2,2.2-2.2c1.2,0,2.2,1,2.2,2.2v0.2c-0.1,9.9-8.2,18-18.1,17.9H87l-7.1,7.1h35.7
	c14.2,0,25.7-11.5,25.7-25.7c0,0,0,0,0,0V83.7L141.1,76.4z M123.8,103.2c0,1.2-1,2.2-2.2,2.2c-1.2,0-2.2-1-2.2-2.2v-1.4
	c0-1.2,1-2.2,2.2-2.2c1.2,0.1,2.2,1.1,2.2,2.3V103.2z M136.9,81.3c0,1.2-1,2.2-2.2,2.2c-1.2,0-2.2-1-2.2-2.2v-3c0-1.2,1-2.2,2.2-2.2
	h0.1c0,0,0,0,0,0c1.2,0.1,2.1,1.1,2.1,2.3V81.3z"/>
<path class="st0" d="M145.6,78c2.9,0,8.2,0.6,12.2,3.5l-12.2-0.1V78z"/>
<path class="st0" d="M140,0H85C38.1,0,0,38.1,0,85v55c0,46.9,38.1,85,85,85h55c46.9,0,85-38.1,85-85V85C225,38.1,186.9,0,140,0z
	 M165,84.6c-0.3,0.8-1.1,1.2-1.9,1.2H146v24c-0.1,15.8-12.3,28.9-28,30l-4.7,6.7l4.7,6.6h4.5c1.2,0,2.2,1,2.2,2.2
	c0,1.2-1,2.2-2.2,2.2h-5.6c-0.7,0.1-1.4-0.3-1.8-0.9l-6.2-8.7c-0.5-0.8-0.5-1.7,0-2.5l3.6-5.3H104l-4.7,6.6l4.7,6.5h4.5
	c1.2,0,2.2,1,2.2,2.2c0,1.2-1,2.2-2.2,2.2h-5.6c-0.7,0.1-1.4-0.3-1.8-0.9l-6.2-8.7c-0.5-0.8-0.5-1.7,0-2.5l3.6-5.3h-14
	c-1.2,7.2-7.3,12.4-14.6,12.4H62c-0.9,0-1.7-0.5-2-1.3c-0.3-0.8-0.1-1.8,0.5-2.4l58.7-58.8v-8.3c0-8,6.5-14.4,14.5-14.4h3.1
	c3.9,0,7.3,2.6,8.4,6.3c4.4,0,14.5,0.8,19.4,8.8C165,83.1,165.2,83.9,165,84.6z"/>
</svg>
