<?xml version="1.0" encoding="utf-8"?>
<!-- Generator: Adobe Illustrator 24.3.0, SVG Export Plug-In . SVG Version: 6.00 Build 0)  -->
<svg version="1.1" id="Layer_1" xmlns="http://www.w3.org/2000/svg" xmlns:xlink="http://www.w3.org/1999/xlink" x="0px" y="0px"
	 viewBox="0 0 225 225" style="enable-background:new 0 0 225 225;" xml:space="preserve">
<style type="text/css">
	.st0{fill:#FFFFFF;}
</style>
<path class="st0" d="M141.7,101.9h-0.4c-19.2-0.1-38.3-0.1-57.5,0h-0.1c-7.9-0.1-14.3,6.2-14.4,14.1v17c0,1,0.1,2,0.3,3
	c1.4,6.8,7.3,11.6,14.2,11.5H141c8,0.2,14.5-6.2,14.7-14.1V133h0.1v-16.6C156,108.5,149.6,102,141.7,101.9z M137.8,114
	c0-1.5,1.2-2.8,2.8-2.8h4.8c1.5-0.1,2.8,1,2.9,2.5v0c0.1,1.6-1.2,2.9-2.8,3c-0.4,0-0.8,0-1.2,0c-0.4,0-0.8,0-1.2,0h-2.3
	C139.1,116.8,137.9,115.6,137.8,114C137.8,114,137.8,114,137.8,114z M107.2,113.9c0.1-1.6,1.4-2.8,2.9-2.8h4.6
	c1.6,0,2.8,1.2,2.9,2.8c0,1.5-1.2,2.8-2.7,2.9c-0.9,0.1-1.7,0.1-2.6,0c-0.4,0-0.8,0-1.2,0s-0.8,0-1.2,0
	C108.5,116.8,107.2,115.5,107.2,113.9L107.2,113.9z M110,122.6h4.9c1.6,0,2.9,1.2,2.9,2.8s-1.2,2.9-2.8,2.9c-0.8,0-1.6,0-2.4,0h-2.3
	c-1.6,0-3-1.3-3-2.9C107.2,123.9,108.5,122.6,110,122.6z M92.1,114c0-1.5,1.2-2.8,2.8-2.8h4.8c1.5,0,2.8,1.2,2.9,2.7
	c0.1,1.5-1,2.8-2.5,2.9h-0.2c-0.9,0.1-1.7,0.1-2.6,0c-0.4,0-0.8,0-1.2,0c-0.4,0-0.8,0-1.2,0c-1.5,0.1-2.8-1.1-2.8-2.6V114z
	 M84.7,128.2h-0.1c-0.9,0-1.7,0-2.6,0h-2.3c-1.6-0.1-2.8-1.3-2.9-2.9v-0.1c0.1-1.5,1.3-2.8,2.9-2.8h4.7c1.5,0,2.8,1.2,2.9,2.7
	C87.4,126.8,86.2,128.1,84.7,128.2z M87.3,113.8c0.1,1.6-1.2,2.9-2.7,2.9h-0.2c-0.8,0-1.6,0-2.4,0c-0.8,0-1.5,0-2.3,0
	c-1.6-0.1-2.8-1.3-2.9-2.9v-0.1c0-1.5,1.3-2.8,2.8-2.7h4.7c1.5,0,2.8,1.2,2.9,2.7V113.8z M92.1,125.4v-0.3c0.1-1.4,1.2-2.5,2.6-2.6
	h5.1c1.4,0.1,2.5,1.2,2.7,2.6c0.2,1.4-0.8,2.8-2.2,3c-1.1,0.1-2.2,0.1-3.3,0.1c-0.9,0-1.8,0-2.7-0.1C93,128,91.9,126.8,92.1,125.4z
	 M130.4,138.5c-0.4,1.3-1.7,2.1-3,2H97.5c-1.6,0.1-2.9-1.2-3-2.7c-0.1-1.5,1-2.7,2.5-2.9h30.5c1.6-0.1,2.9,1,3.1,2.6
	c0,0.1,0,0.2,0,0.2C130.6,137.9,130.5,138.2,130.4,138.5z M130.7,128.1h-0.2c-2,0.2-3.9,0.2-5.9,0c-1.5-0.2-2.5-1.5-2.3-3
	c0.1-0.7,0.4-1.3,0.9-1.8s1.1-0.8,1.9-0.8h5.1c1.4,0,2.6,1.2,2.7,2.6C133.1,126.6,132.2,127.9,130.7,128.1z M133,114
	c0.1,1.6-1.2,2.9-2.7,2.9h-0.1c-0.8,0-1.6,0-2.5,0h-2.3c-1.6,0-2.9-1.2-2.9-2.8V114c0-1.5,1.2-2.8,2.7-2.8h4.8
	c1.5-0.2,2.8,0.9,3,2.3V114z M146.2,128h-0.1c-2.1,0.2-4.2,0.2-6.3,0c-1.4-0.3-2.3-1.6-2-3c0.1-1.3,1.2-2.4,2.6-2.5h5.3
	c1.3,0.2,2.3,1.2,2.6,2.5C148.5,126.4,147.6,127.7,146.2,128z"/>
<path class="st0" d="M140,0H85C38.1,0,0,38.1,0,85v55c0,46.9,38.1,85,85,85h55c46.9,0,85-38.1,85-85V85C225,38.1,186.9,0,140,0z
	 M161.4,134.8c-0.2,0.9-0.4,1.9-0.6,2.8c-2.2,8.9-10.1,15.2-19.3,15.4H83.4c-10.9-0.1-19.8-8.9-19.9-19.8v-17.3
	c0.1-8,4.9-15.2,12.3-18.2c0.6-0.2,1-0.8,0.9-1.4c-0.1-2.3,0-4.7,0.3-7c0.6-3.8,3.8-6.6,7.6-6.9c0.6-0.1,1.2-0.1,1.8-0.1h54.1
	c1.5,0,2.8-1.2,2.8-2.8V75c0-2.3,2.3-3.8,4.2-2.6c0.7,0.4,1.2,1.1,1.4,1.9c0.2,2.4,0.2,4.8-0.2,7.2c-0.8,3.6-3.8,6.3-7.5,6.5
	c-0.6,0.1-1.1,0.1-1.7,0.1H86.6c-0.5,0-0.9,0-1.4,0.1c-1.4,0.1-2.5,1.2-2.6,2.6c-0.1,1.8,0,3.7,0,5.5H141c10.2-0.2,19,7.4,20.3,17.5
	c0,0.2,0,0.3,0.1,0.4V134.8z"/>
</svg>
