<?xml version="1.0" encoding="utf-8"?>
<!-- Generator: Adobe Illustrator 24.3.0, SVG Export Plug-In . SVG Version: 6.00 Build 0)  -->
<svg version="1.1" id="Layer_1" xmlns="http://www.w3.org/2000/svg" xmlns:xlink="http://www.w3.org/1999/xlink" x="0px" y="0px"
	 viewBox="0 0 225 225" style="enable-background:new 0 0 225 225;" xml:space="preserve">
<style type="text/css">
	.st0{fill:#FFFFFF;}
</style>
<path class="st0" d="M80.6,128.5c1.2,3,2.5,6,3.7,9.1c0,0.2-0.1,0.5-0.2,0.7c-2.4,3.3-3.7,7.3-3.6,11.4c0,0.2,0,0.3-0.1,0.5h-5.6
	v-8.9c-0.2-1-1.2-1.7-2.2-1.6c-1,0.2-1.8,1.2-1.6,2.2v8.3h-3.8v-10.6c-0.2-4.7,3.1-8.8,7.7-9.7C76.7,129.4,78.6,129,80.6,128.5z"/>
<path class="st0" d="M86.7,133C86.7,133,86.7,133,86.7,133C86.7,133,86.7,133,86.7,133L86.7,133z"/>
<path class="st0" d="M89.5,123.8c0.6,3.4-1.8,6.1-2.8,9.1c-1-3.1-3.4-5.7-2.9-9.1H89.5z"/>
<path class="st0" d="M77.9,104.8c-0.3-3.9,2-7.5,5.6-8.9c4.5-1.8,9.6,0.4,11.4,4.9v0.1c0,0.1,0.1,0.1,0.1,0.2c0.1,0.4-0.1,0.8-0.5,1
	c-3.4,1.8-7.2,2.8-11,2.8h-5.7V104.8z"/>
<path class="st0" d="M77.9,111.8l0-0.1v-3.1c6.1,0.2,12,0.1,17.6-2.8c-0.2,3.2,0.5,6.1-0.8,9c-1.4,3.1-4.4,5.2-7.8,5.4
	C82.2,120.4,78.1,116.7,77.9,111.8z"/>
<polygon class="st0" points="99.8,130.3 100,130.3 99.9,130.3 99.8,130.3 91,132.6 92.8,128.4 99.8,130.1 "/>
<path class="st0" d="M103.7,125.4l0,2.2c-3.1-1.8-6.5-2.1-9.7-3c-0.3-0.2-0.5-0.5-0.7-0.8c-0.3-1.1,0.1-2.2,1.1-2.7
	c1.1-0.8,2.1-1.5,3.2-2.4v-0.1c1.4,2.5,3.3,4.5,5.7,6C103.6,124.9,103.7,125.2,103.7,125.4z"/>
<path class="st0" d="M116.5,132.2L116.5,132.2c-1.3,2.7-2.4,5.4-3.7,8.2c-0.1,0.3-0.3,0.6-0.5,1.1c-0.2-0.3-0.3-0.6-0.5-0.9
	c-1.3-3.1-2.8-6.1-4-9.2c-0.6-1.3-0.4-3-0.6-4.8c1.7,0.5,3.3,0.7,5.1,0.7c1.6,0,3.1-0.2,4.7-0.6
	C117.1,128.6,117.4,130.4,116.5,132.2z"/>
<path class="st0" d="M99.5,102c-0.6-4.4,1.1-8.8,4.5-11.6c3.9-3.4,9.5-4.2,14.2-1.8c4.5,2.2,7.4,6.9,7.3,11.9l-6.4-3.7
	c-1.8-1.1-2.2-1-3.6,0.5c-2.4,2.8-5.9,4.4-9.5,4.7C103.9,102.1,101.8,102,99.5,102z"/>
<path class="st0" d="M111.2,123.4c-6.6-0.7-11.7-6.2-11.8-12.8v-4.7h3c5.8,0.3,11-1.1,15.4-5.3c2.6,1.4,4.9,2.9,7.5,4.4
	c0.2,0.1,0.3,0.3,0.3,0.6c-0.1,2.7,0.1,5.6-0.5,8.2C123.5,120,117.6,124,111.2,123.4z"/>
<path class="st0" d="M129.5,105.8L129.5,105.8C129.5,105.8,129.5,105.8,129.5,105.8L129.5,105.8z"/>
<path class="st0" d="M131.6,124.4l-10.4,2.9v-1.9c0-0.3,0.2-0.5,0.4-0.7c2.5-1.5,4.5-3.7,5.9-6.3c1.3,1.1,2.6,2.3,3.8,3.6
	C131.7,122.4,131.5,123.6,131.6,124.4z"/>
<polygon class="st0" points="132,128.3 133.8,132.6 124.9,130.4 124.9,130.1 "/>
<path class="st0" d="M138.1,132.9L138.1,132.9c-0.9-2.1-1.8-4.1-2.6-6.2c-0.2-0.9-0.3-1.9-0.2-2.8h5.8
	C141.5,127.3,139.1,129.9,138.1,132.9z"/>
<path class="st0" d="M129.9,100.9L129.9,100.9c1.3-3.5,4.8-5.8,8.6-5.6c4.9,0.3,8.6,4.4,8.5,9.2c0,0.1,0,0.2-0.1,0.2v-0.1
	c-5.7,0.3-11.4,0.2-16.5-2.7C129.9,101.8,129.7,101.6,129.9,100.9z"/>
<path class="st0" d="M129.5,105.8c5.6,2.9,11.5,3,17.5,2.8c0.1,0.7,0.2,1.4,0.2,2c0,4.6-2.6,8.2-7,9.2c-0.4,0.1-0.8,0.2-1.1,0.2
	c-4.8,0.5-9.1-3.1-9.6-7.9C129.3,110,129.5,108,129.5,105.8z"/>
<path class="st0" d="M157.9,138.7l0,10.5c0,0.2-0.1,0.5-0.1,0.8h-3.2c-0.2,0-0.5-0.5-0.5-0.8v-7c0-0.4,0-0.8-0.1-1.1
	c-0.1-1-1-1.6-2-1.5c-1,0.1-1.7,0.9-1.8,1.8v8.5h-5.7c-0.2-1.5-0.2-3-0.5-4.6c-0.5-2.5-1.5-4.9-3-7c-0.3-0.3-0.4-0.7-0.3-1.1
	c1.2-3,2.6-6,3.8-9.2c2.6,0.6,5.2,1.3,7.7,2.1C155.7,131.6,158,135,157.9,138.7z"/>
<path class="st0" d="M140,0H85C38.1,0,0,38.1,0,85v55c0,46.9,38.1,85,85,85h55c46.9,0,85-38.1,85-85V85C225,38.1,186.9,0,140,0z
	 M148.8,75.1c0.2-0.9,1-1.5,1.9-1.5c1.8-0.1,2.7,0.3,3,1.2c0.5,1.5-0.5,2.6-2.4,2.6C149.6,77.3,148.5,76.5,148.8,75.1z M145.8,68.5
	c0.9-0.5,2.1-0.1,2.5,0.8c0.1,0.1,0.1,0.3,0.2,0.4c0.1,0.3,0.1,0.7,0.1,1c0,2.2-1.2,3.3-2.7,2.6c-0.8-0.4-1.3-1.3-1.2-2.3
	C144.8,70,144.8,69,145.8,68.5z M144.7,79.2c0.1-0.9,0.9-1.6,1.8-1.8c1,0,1.8,0.7,2,1.6c0.1,0.6,0.1,1.3,0,1.9c0,1-0.9,1.8-1.9,1.8
	h-0.1c-1-0.1-1.7-0.9-1.8-1.9V79.2z M139.5,75.4c0-0.9,0.7-1.6,1.6-1.8c0.6-0.1,1.2-0.1,1.8,0c1,0,1.8,0.8,1.8,1.8v0.1
	c0,1-0.8,1.8-1.8,1.8c0,0,0,0,0,0H142c-0.4,0-0.8,0-1.2-0.1C139.9,77.1,139.4,76.3,139.5,75.4z M118.6,71.5c0-0.1,0.1-0.2,0.1-0.3
	c0.1-0.2,0.3-0.3,0.5-0.5l2.9-2.9c0.5-0.5,1.3-0.7,2-0.3c0.5,0.5,1,1,1.4,1.5c-0.2,0.6-0.5,1.1-0.9,1.6c-0.9,1-1.8,1.8-2.7,2.7
	c-0.6,0.9-1.8,1.1-2.7,0.5c-0.5-0.3-0.9-0.9-0.9-1.5C118.4,72.1,118.5,71.8,118.6,71.5z M112.3,63.2h0.1c1,0,1.8,0.9,1.8,1.9
	c0,1-0.8,1.9-1.9,1.9c-1.1,0-1.9-0.9-1.9-1.9C110.4,64.1,111.3,63.2,112.3,63.2z M114.4,72.3v5.1c-0.1,1-1,1.8-2,1.8
	c-0.9-0.1-1.7-0.8-1.8-1.8v-5.1c0-1,0.8-1.8,1.8-1.8h0.2C113.5,70.6,114.3,71.3,114.4,72.3z M100.1,68.2c0.6-0.8,1.7-0.9,2.4-0.3
	c1.1,1.1,2.3,2.2,3.4,3.4c0.2,0.4,0.4,0.8,0.5,1.2c-0.4,0.5-0.7,1.1-1.1,1.3c-0.6,0.3-1.3,0.2-1.9-0.1c-1.2-1-2.3-2-3.3-3.2
	C99.5,69.8,99.5,68.8,100.1,68.2z M82.8,73.6c1.8,0,2.9,1.1,2.4,2.5c-0.3,0.9-1.2,1.5-2.1,1.4c-1.2-0.2-2.3-0.1-2.8-1.3
	C79.7,74.7,80.7,73.6,82.8,73.6z M77.9,68.3c1.2-0.1,2,0.8,2,2.2c0.1,1.8-0.6,2.9-1.9,2.9s-1.8-0.9-1.8-2.6
	C76.1,69.2,76.7,68.4,77.9,68.3z M80,80c0,1.8-0.6,2.6-1.8,2.7c-1.2,0.1-2-0.8-2-2.5v-1c0.2-0.9,1-1.6,1.9-1.7
	C79.3,77.5,80,78.5,80,80z M72.1,73.5h1.3v-0.1c0.4,0,0.8,0.1,1.2,0.2c1,0.4,1.5,1.5,1.1,2.5c-0.2,0.6-0.7,1-1.3,1.2
	c-0.5,0.1-1.1,0.1-1.6,0.1c-1,0.2-2.1-0.4-2.3-1.4c0,0,0,0,0-0.1s0,0,0-0.1C70.3,74.8,71,73.8,72.1,73.5z M113.7,161L113.7,161
	L113.7,161l-0.2,0.2l-0.6,0.4h-1.3c-0.2-0.1-0.4-0.3-0.6-0.4c-0.9-0.5-1.2-1.7-0.7-2.6c0.3-0.6,0.9-1,1.6-1c0.3,0,0.6,0.1,0.8,0.2
	l0.1,0.1c0.3,0,0.5,0.2,0.7,0.5C114.5,159.1,114.5,160.3,113.7,161z M161.7,152.8c-0.5,1-1.5,1.5-2.6,1.4h-14.7v5
	c0.1,1.1-0.4,2.1-1.4,2.6h-23c-1.2-1-1.5-1.7-1.1-2.5c0.5-1.1,1.5-1.2,2.5-1.2h8.6v-8.2c0-1.5,0.8-2.2,1.9-2.2
	c1.1,0,1.8,0.9,1.8,2.2v8h6.7c0-3.3,0.2-6.5,0-9.7c-0.4-6.2-4.9-11.3-11-12.6c-2.7-0.7-5.3-1.2-8-1.9c-0.1,0-0.2-0.1-0.3-0.1
	c-0.5-0.1-1.1,0.2-1.2,0.8c-1.8,4.1-3.6,8.2-5.5,12.4c-0.2,0.9-1,1.6-1.9,1.7c-1.1,0-1.6-0.8-2-1.7c-1.4-3.5-3-7-4.6-10.5
	c-0.4-1-0.8-1.8-1.2-2.8c-3.3,0.8-6.5,1.5-9.7,2.3c-5.6,1.6-9.2,5.1-10.2,10.9c-0.6,3.7-0.4,7.5-0.5,11.3h6.7v-8.2
	c-0.1-1.1,0.7-2,1.8-2.1h0.2c0,0,0,0,0,0c1,0,1.8,0.8,1.8,1.8v8.6h7.9c1.4,0,2.1,0.5,2.4,1.5c0.3,1-0.2,1.7-1.3,2.3l-22.1-0.1
	c-1-0.5-1.5-1.5-1.3-2.6v-5H66c-2.1,0-2.7-0.7-2.7-2.7v-11.8c-0.2-6.5,4.3-12.3,10.7-13.6c1.6-0.4,3.2-0.8,5-1.1
	c0.5-0.1,0.9-0.5,0.9-1.1c0.1-1-0.4-2-1.2-2.6c-2.9-2.3-4.7-5.9-4.7-9.6c0-2.9-0.1-5.7,0.1-8.4c0.2-5,3.4-9.3,8.2-10.8
	c4.9-2,9.4-0.9,13.3,2.7l0.6,0.4c2.9-7.6,8.3-12,16.7-12c3.6,0,7.2,1.2,10,3.5c2.9,2.2,5,5.3,6,8.7c1.6-1.7,3.7-3,5.9-3.7
	c6.7-2,13.7,1.8,15.7,8.5c0.2,0.9,0.4,1.8,0.5,2.7c0.2,3.2,0.2,6.4,0,9.6c-0.2,3.5-2.1,6.7-4.9,8.7c-0.8,0.7-1.1,1.9-0.8,2.9
	c0.2,0.2,0.5,0.3,0.8,0.4c1.9,0.5,3.9,0.9,5.7,1.5c5.2,1.3,9.1,5.5,9.9,10.8c0,0.2,0.1,0.3,0.2,0.6V152.8z"/>
<path class="st0" d="M138.1,132.9L138.1,132.9z"/>
</svg>
