<?xml version="1.0" encoding="utf-8"?>
<!-- Generator: Adobe Illustrator 24.3.0, SVG Export Plug-In . SVG Version: 6.00 Build 0)  -->
<svg version="1.1" id="Layer_1" xmlns="http://www.w3.org/2000/svg" xmlns:xlink="http://www.w3.org/1999/xlink" x="0px" y="0px"
	 viewBox="0 0 225 225" style="enable-background:new 0 0 225 225;" xml:space="preserve">
<style type="text/css">
	.st0{fill:#FFFFFF;}
</style>
<path class="st0" d="M161.5,73.4c0.7,0.8,0,1.6-0.3,2.4c-1,2.5-2.6,4.8-4.7,6.6l-10.7,9.1c-1.5,1-2.2,2.8-2,4.6
	c0.5,4.3,1.2,8.6,1.8,12.9c0.9,6.5,1.8,12.9,2.6,19.4c0.5,2.6-1.1,5.1-3.6,5.7c-1.2,0.4-1.5,0.3-1.8-0.8c-2.1-5.5-4.2-10.8-6.1-16.3
	c-1.5-4.2-3.5-8.1-6.1-11.7l-1.4,1c-4.9,3.8-9.8,7.5-14.7,11.3c-0.8,0.5-1.2,1.5-0.9,2.4c0.5,1.9,0.9,3.8,1.4,5.7
	c0.3,1.1,0,2.3-0.8,3.1c-1,1.2-2,1.1-3-0.1L99.7,114c-0.2-0.2-0.3-0.3-0.4-0.5c-0.3-0.6-1.2-1.5-1-1.8c0.7-0.9,1.5-1.6,2.4-2.2
	c0.5-0.1,0.9,0,1.3,0.3c1.9,0.9,3.8,1.8,5.7,2.8c0.8,0.5,1.8,0.3,2.5-0.3c4.8-4.5,9.4-9,14.2-13.5c0.1,0,0.1,0,0.1-0.1
	c-1.6-3-3.9-5.5-6.7-7.3c-5.3-3.6-10.5-7.2-15.7-10.8c-1.8-1.3-1.8-1.4-0.4-3c2.2-2.8,2.8-3,6.1-1.6c9,3.4,18,6.7,26.9,10.1
	c1.1,0.5,2.3,0.7,3.5,0.7c1.4,0,2.7-0.6,3.6-1.5c3.6-3.2,7.3-6.3,11-9.4c1.6-1.4,3.5-2.3,5.6-2.6c0.2,0,0.3-0.1,0.4-0.1
	C159.8,72.8,160.8,72.6,161.5,73.4z"/>
<path class="st0" d="M140,0H85C38.1,0,0,38.1,0,85v55c0,46.9,38.1,85,85,85h55c46.9,0,85-38.1,85-85V85C225,38.1,186.9,0,140,0z
	 M75.1,131.3h0.1L91.6,119c0.5-0.5,1.3-0.6,1.9-0.3c0.4,0.3,0.7,0.7,0.9,1.2c-0.3,0.5-0.6,0.9-0.9,1.3c-5.5,4.2-11,8.4-16.5,12.5
	c-0.5,0.6-1.5,0.6-2.1,0.1c-0.2-0.2-0.2-0.2-0.3-0.3C74.2,132.8,74.4,131.8,75.1,131.3z M67.3,137.2c1.3-1.2,2.8-2.2,4.2-3.2
	c0.1-0.1,0.3,0,0.8-0.1c0.3,0.2,0.9,0.4,0.9,0.9c0.1,0.5,0,1.1-0.3,1.5c-1.2,1.1-2.5,2.1-3.9,3c-0.5,0.2-1.1,0.1-1.5-0.3
	C67.2,138.5,67.1,137.8,67.3,137.2z M60.5,152.9V152c0.3-0.3,0.6-0.7,0.9-1c11.5-8.8,22.9-17.5,34.5-26.2c0.2-0.2,0.4-0.3,0.6-0.4
	c0.6-0.5,1.5-0.3,2,0.3c0.2,0.3,0.3,0.6,0.3,0.9c0,0.4-0.1,0.8-0.4,1c-0.1,0.1-0.2,0.1-0.3,0.2c-2.4,1.9-5,3.8-7.6,5.8l-27.2,20.7
	C62.1,154.1,61.5,154.1,60.5,152.9z M77.4,152.7c-1,0.9-2.2,1.6-3.2,2.4c-0.6,0.6-1.6,0.6-2.2,0c-0.2-0.3-0.3-0.6-0.3-0.9
	c0-0.5,0.2-0.9,0.6-1.2l0.1-0.1c1-0.9,2.1-1.7,3.2-2.4c0.5-0.2,1.1-0.3,1.6-0.1c0.5,0,0.6,0.5,1,1C78.1,151.8,77.8,152.3,77.4,152.7
	z M103.1,133.3c-1.3,1-2.7,2.1-4,3.1c-5.8,4.3-11.4,8.7-17.1,13c-0.5,0.4-1.1,0.7-1.6,0.9c-0.4-0.3-0.8-0.6-1.2-0.9
	c-0.1-0.5,0-1,0.2-1.5c0.1-0.3,0.5-0.5,0.9-0.7l20.1-15.4c0.3-0.3,0.6-0.5,1-0.7c0.7-0.5,1.6-0.3,2.1,0.3
	C103.9,132,103.7,132.8,103.1,133.3z M164.4,74.2c0,0.3,0,0.5-0.2,0.8c-1.2,3.7-3.4,6.9-6.3,9.4c-3.3,3-6.7,5.7-10.1,8.6
	c-0.9,0.7-1.3,1.8-1,2.9c1.4,10.1,2.8,20.1,4.2,30.2c0.1,1.1,0.2,2.2,0.2,3.2c-0.2,4.2-3.1,6.5-6.7,7.5c-1.3,0.4-2.7-0.2-3.4-1.4
	c-0.5-0.7-0.9-1.5-1.2-2.2l-7.6-19.2c-0.7-1.5-1.5-3.1-2.4-4.8c-4.4,3.4-8.6,6.7-12.8,10c-0.3,0.3-0.4,0.8-0.3,1.2
	c0.2,1.4,0.7,3,1,4.4c0.8,2.9-0.5,5.9-3.1,7.3c-1.9,0.8-4,0.2-5.2-1.5c-3.6-4.5-7.2-9-10.7-13.5c-0.8-1-1.7-2.1-2.6-3.2
	c-1.2-1.6-1.1-2.9,0.3-4.4c0.6-0.6,1.2-1.2,1.9-1.8c1.3-1.2,3.3-1.5,4.9-0.6c1.6,0.8,3.2,1.6,4.9,2.3c0.3,0.2,0.7,0.2,1,0
	c4-3.7,8-7.5,12.1-11.5c-1.1-1.2-2.3-2.3-3.5-3.3c-5.4-3.9-10.9-7.6-16.4-11.4c-0.9-0.6-1.8-1.3-2.5-2.1c-1.1-1-1.3-2.8-0.5-4
	c1-1.8,2.4-3.4,4.2-4.5c1-0.7,2.4-0.9,3.5-0.5c3.5,1.2,6.8,2.3,10.3,3.6c6.4,2.4,12.7,4.8,19,7.1c0.4,0.2,0.9,0.3,1.4,0.4
	c1.1,0.5,2.4,0.2,3.2-0.8c2.8-2.4,5.5-4.8,8.3-7.2c2.2-1.9,4.5-3.9,7.3-4.9c1.7-0.8,3.5-1,5.4-0.7C163.3,70,164.9,72.3,164.4,74.2z"
	/>
</svg>
