<?xml version="1.0" encoding="utf-8"?>
<!-- Generator: Adobe Illustrator 24.3.0, SVG Export Plug-In . SVG Version: 6.00 Build 0)  -->
<svg version="1.1" id="Layer_1" xmlns="http://www.w3.org/2000/svg" xmlns:xlink="http://www.w3.org/1999/xlink" x="0px" y="0px"
	 viewBox="0 0 225 225" style="enable-background:new 0 0 225 225;" xml:space="preserve">
<style type="text/css">
	.st0{fill:#FFFFFF;}
</style>
<rect x="74.9" y="136.4" class="st0" width="14.7" height="4.8"/>
<path class="st0" d="M89.5,87.1H65.9c-2.6,0-2.6,0-2.6,2.6c0,1.8,0.6,2.3,2.4,2.3h22.1c1,0,1.8-0.5,1.8-1.4
	C89.7,89.4,89.6,88.2,89.5,87.1z M102.5,75.9l-27.9,7.6v0.3h9c2.4,0,5,0.5,7.2-0.2C93,83,95,81.2,97,79.8c1.8-1.2,3.8-2.5,5.6-3.8
	L102.5,75.9z M114.3,129.8h-3.2c0.1,1-0.4,2.3,0.8,2.9c0.5,0.3,1.1,0.3,1.7,0C114.6,132.2,114.2,130.9,114.3,129.8z M114.9,74.6
	c-1.5-1-3.5-0.9-4.9,0.3v0c-1.3,0.9-2.5,1.8-3.7,2.6c-2.9,2.1-5.8,4.1-9,6.2h31.2C123.8,80.5,119.4,77.6,114.9,74.6z M132.2,90.4
	v-3.3H92.9v2.5c0,1.9,0.4,2.4,2.4,2.4h35.5c0.8,0,1.5-0.7,1.6-1.5L132.2,90.4L132.2,90.4z M161.7,90.2v-1.9c0-0.7-0.2-0.9-0.9-0.9
	c-1.4,0.1-2.7,0-4,0H144c-1.2,0-1.9-0.6-1.9-1.5s0.8-1.7,1.9-1.8h6.6v-0.3l-27.3-7.4c0.2,0.3,0.4,0.5,0.7,0.7c2.7,1.8,5.4,3.5,8,5.4
	c1.5,1,2.9,1.8,4.7,1.5c0.2,0,0.5,0,0.7,0.1c0.8,0.2,1.3,0.9,1.2,1.7v0.1c0,0.8-0.7,1.5-1.5,1.5h-1.8v2.8c0,1.6,0.5,2.1,2.2,2.1
	h22.1C161.1,92.2,161.7,91.6,161.7,90.2L161.7,90.2z M161.7,90.2v-1.9c0-0.7-0.2-0.9-0.9-0.9c-1.4,0.1-2.7,0-4,0H144
	c-1.2,0-1.9-0.6-1.9-1.5s0.8-1.7,1.9-1.8h6.6v-0.3l-27.3-7.4c0.2,0.3,0.4,0.5,0.7,0.7c2.7,1.8,5.4,3.5,8,5.4c1.5,1,2.9,1.8,4.7,1.5
	c0.2,0,0.5,0,0.7,0.1c0.8,0.2,1.3,0.9,1.2,1.7v0.1c0,0.8-0.7,1.5-1.5,1.5h-1.8v2.8c0,1.6,0.5,2.1,2.2,2.1h22.1
	C161.1,92.2,161.7,91.6,161.7,90.2L161.7,90.2z M132.2,87.1H92.9v2.5c0,1.9,0.4,2.4,2.4,2.4h35.5c0.8,0,1.5-0.7,1.6-1.5v-0.2h-0.1
	V87.1z M128.5,83.7c-4.6-3.1-9.1-6.1-13.5-9.1c-1.5-1-3.5-0.9-4.9,0.3v0c-1.3,0.9-2.5,1.8-3.7,2.6c-2.9,2.1-5.8,4.1-9,6.2H128.5z
	 M111.1,129.8c0.1,1-0.4,2.3,0.8,2.9c0.5,0.3,1.1,0.3,1.7,0c1.1-0.5,0.7-1.8,0.8-2.9H111.1z M102.6,76.1l-0.1-0.2l-27.9,7.6v0.3h9
	c2.4,0,5,0.5,7.2-0.2C93,83,95,81.2,97,79.8C98.8,78.6,100.8,77.3,102.6,76.1z M65.9,87.1c-2.6,0-2.6,0-2.6,2.6
	c0,1.8,0.6,2.3,2.4,2.3h22.1c1,0,1.8-0.5,1.8-1.4c0.1-1.2,0-2.3,0-3.5H65.9z M140,0H85C38.1,0,0,38.1,0,85v55c0,46.9,38.1,85,85,85
	h55c46.9,0,85-38.1,85-85V85C225,38.1,186.9,0,140,0z M93.2,154.3h-0.1c-0.9,0.1-1.7-0.5-1.8-1.3v-0.1c-0.5-2.4-0.9-5-1.2-7.4
	c-0.1-0.6-0.3-0.9-1-0.9H75.5c-0.7,0-0.9,0.2-1,0.9c-0.3,2.4-0.8,4.8-1.2,7.2c-0.2,1.2-0.9,1.9-2,1.7c-1.1-0.3-1.4-1-1.2-2.3
	c0.5-3,1-5.9,1.5-8.9c0.1-0.4,0.1-0.8,0.1-1.2v-19.7c0-1.7-0.3-2-1.9-2.4c-0.8-0.2-1.4-0.9-1.3-1.8c0.2-0.9,1-1.5,1.9-1.4
	c2.6,0.2,4.6,2.3,4.7,4.9V133h15.4c1.8,0,2.7,0.7,2.5,2.6c-0.1,5.5,0.4,11,1.5,16.4c0,0.2,0.1,0.3,0.1,0.4
	C94.7,153.3,94.1,154.2,93.2,154.3z M155.4,119.9c-1.3,0.3-1.8,0.7-1.8,2.1c0,6.8,0,13.5,0.1,20.3c0,2.8,0.8,5.6,1.2,8.4
	c0.1,0.5,0.2,1,0.3,1.5c0.2,0.9-0.4,1.7-1.2,2h-0.1c-0.9,0.2-1.7-0.4-1.9-1.2v-0.3c-0.4-2.4-0.9-4.9-1.2-7.4
	c-0.2-0.8-0.4-0.9-1.2-0.9h-13.3c-0.8,0-1,0.2-1.2,0.9c-0.3,2.4-0.8,4.8-1.2,7.2c-0.2,1.2-0.9,1.9-1.9,1.7c-1-0.2-1.5-1-1.3-2.2
	c0.6-3,1.2-6,1.5-9c0.2-2.3,0.2-4.7,0.1-7.1c0-2.5,0.5-3,3-3h15v-11.3c0-2.6,2-4.8,4.5-5c1-0.1,1.8,0.6,2,1.5c0,0.1,0,0.1,0.1,0.2
	C156.9,119.2,156.2,119.9,155.4,119.9z M165,91.4c-0.1,0.2-0.2,0.4-0.3,0.6c-0.7,2-2.5,3.3-4.6,3.3H137c-0.9,0-0.9-0.6-1.8-0.9
	c-1-0.1-1.9-0.1-2.9,0c-1,0.3-1.2,0.8-2.2,0.9c-5,0.1-9.9,0-14.8,0h-1.2v31h16.2c0.9,0,1.7,0.7,1.7,1.7c-0.1,0.9-0.8,1.5-1.7,1.5
	h-13.1v1.5c0,1.9-1,3.6-2.6,4.5c-0.3,0.2-0.5,0.5-0.6,0.9c-0.1,2.6,0,5.3,0,8c0.6,0.3,1.3,0.4,1.8,0.7c2.8,1.2,4.7,3.9,4.8,7
	c0.1,1.3-0.4,2-1.5,2.1s-1.7-0.5-1.8-1.8c-0.1-2-1.4-3.7-3.2-4.4v4.3c0,1.4-0.5,2.1-1.5,2.1s-1.7-0.7-1.7-2.1v-4
	c-1.9,0.5-3,2.1-3.3,4.5v0.1c0,0,0,0.1,0,0.1c-0.1,0.9-1,1.5-1.9,1.4c-0.9-0.1-1.5-1-1.4-1.9c0-0.3,0.1-0.5,0.1-0.8
	c0.4-3.2,2.7-5.8,5.7-6.8c0.7-0.3,0.9-0.5,0.9-1.2c-0.1-2.3,0-4.5,0-6.8c0-0.5-0.2-1-0.7-1.3c-1.6-0.8-2.6-2.5-2.6-4.4v-1.7H95
	c-1.3,0-2.1-0.6-2.1-1.6s0.8-1.7,2.1-1.7h15.7V95.3H94.8c-1,0.1-1.9-0.2-2.6-0.9c-0.8-0.1-1.7-0.1-2.5,0c-1,0.2-1.3,0.9-2.3,0.9
	c-7.3,0.1-14.8,0-22.2,0c-0.1,0-0.3,0-0.4,0s-0.3,0-0.4,0c-2.7-0.2-4.7-2.6-4.5-5.3v-1.9c-0.1-2.3,1.5-4.4,3.8-4.9L102,72.7
	c2.4-0.7,4.9-1.4,7.4-1.8c3.8-0.8,7.4,0,11,1c13.3,3.8,26.6,7.4,39.9,11c2.4,0.6,4,1.8,4.8,4V91.4z M161.7,88.3
	c0-0.7-0.2-0.9-0.9-0.9c-1.4,0.1-2.7,0-4,0H144c-1.2,0-1.9-0.6-1.9-1.5s0.8-1.7,1.9-1.8h6.6v-0.3l-27.3-7.4c0.2,0.3,0.4,0.5,0.7,0.7
	c2.7,1.8,5.4,3.5,8,5.4c1.5,1,2.9,1.8,4.7,1.5c0.2,0,0.5,0,0.7,0.1c0.8,0.2,1.3,0.9,1.2,1.7v0.1c0,0.8-0.7,1.5-1.5,1.5h-1.8v2.8
	c0,1.6,0.5,2.1,2.2,2.1h22.1c1.3,0,1.9-0.6,1.9-1.9l0,0V88.3z M135.6,141.2h14.6v-4.8h-14.6V141.2z M132.2,87.1H92.9v2.5
	c0,1.9,0.4,2.4,2.4,2.4h35.5c0.8,0,1.5-0.7,1.6-1.5v-0.2h-0.1V87.1z M128.5,83.7c-4.6-3.1-9.1-6.1-13.5-9.1c-1.5-1-3.5-0.9-4.9,0.3
	v0c-1.3,0.9-2.5,1.8-3.7,2.6c-2.9,2.1-5.8,4.1-9,6.2H128.5z M111.8,132.7c0.5,0.3,1.1,0.3,1.7,0c1.1-0.5,0.7-1.8,0.8-2.9h-3.2
	C111.1,130.9,110.7,132.1,111.8,132.7z M102.6,76.1l-0.1-0.2l-27.9,7.6v0.3h9c2.4,0,5,0.5,7.2-0.2C93,83,95,81.2,97,79.8
	C98.8,78.6,100.8,77.3,102.6,76.1z M65.9,87.1c-2.6,0-2.6,0-2.6,2.6c0,1.8,0.6,2.3,2.4,2.3h22.1c1,0,1.8-0.5,1.8-1.4
	c0.1-1.2,0-2.3,0-3.5H65.9z"/>
<path class="st0" d="M97.2,83.8L97.2,83.8z"/>
</svg>
