<?xml version="1.0" encoding="utf-8"?>
<!-- Generator: Adobe Illustrator 24.3.0, SVG Export Plug-In . SVG Version: 6.00 Build 0)  -->
<svg version="1.1" id="Layer_1" xmlns="http://www.w3.org/2000/svg" xmlns:xlink="http://www.w3.org/1999/xlink" x="0px" y="0px"
	 viewBox="0 0 225 225" style="enable-background:new 0 0 225 225;" xml:space="preserve">
<style type="text/css">
	.st0{fill:#FFFFFF;}
</style>
<path class="st0" d="M97.3,128.1L97.3,128.1c0,3.7-2.9,6.5-6.5,6.5h-0.3v0c-3.6,0-6.6-3-6.6-6.6v-0.3c0-3.6,3-6.5,6.6-6.5h0.4
	C94.6,121.4,97.4,124.4,97.3,128.1z"/>
<path class="st0" d="M145.8,123.3c1.2,1.2,1.9,2.9,1.9,4.7c0,3.7-3,6.6-6.6,6.6c-3.7,0-6.6-3-6.6-6.6v-0.2c0-3.6,3-6.5,6.6-6.5
	C142.9,121.3,144.6,122.1,145.8,123.3z"/>
<path class="st0" d="M159.2,109.9c-6.3-0.8-12.6-1.6-18.9-2.4c-0.7,0-1.4-0.3-1.9-0.8c-5.7-4.8-11.6-9.6-17.3-14.5
	c-1.4-1.2-3.2-1.9-5.1-1.8H88.7c-1.7,0-3.4,0.9-4.2,2.4c-2.5,4.1-5.1,8.1-7.9,12.2c-0.4,0.6-1.1,1.1-1.8,1.3c-2.9,1-6.1,1.9-9.1,2.8
	c-2.2,0.7-2.9,2-2.6,4.2c0.4,2.8,0.9,5.6,1.3,8.4c0.3,2.8,2.8,4.8,5.5,4.6h10.9c0.1-0.4,0.2-0.7,0.3-1c1.4-5.1,6.6-8.1,11.7-6.8
	c3.4,0.8,6,3.5,6.9,6.9c0.2,0.8,0.5,0.9,1.3,0.9h30.3c1.8-5.2,4.8-8,9-8.1c5.6-0.2,9,2.9,10.3,8.1h5.3c2,0.2,3.9-1.3,4.1-3.3
	c0.6-3.3,1.1-6.5,1.5-9.7c0.1-0.2,0.1-0.5,0.1-0.7C161.9,111.2,160.7,109.9,159.2,109.9z M124.9,107.5c-0.1,0.5-0.5,1-1,1.2
	c-0.4,0.1-0.8,0.1-1.2,0.1H88.8c-0.7-0.1-1.3-0.7-1.2-1.4c0,0,0,0,0,0v-0.1c0-0.7,0.5-1.3,1.2-1.3h35c0.7,0.1,1.2,0.8,1.1,1.5
	C124.9,107.4,124.9,107.5,124.9,107.5z"/>
<path class="st0" d="M140,0H85C38.1,0,0,38.1,0,85v55c0,46.9,38.1,85,85,85h55c46.9,0,85-38.1,85-85V85C225,38.1,186.9,0,140,0z
	 M164.9,113.3c-0.5,3.5-1,7-1.7,10.4c-0.5,3.1-3.1,5.4-6.2,5.6c-1.8,0.1-3.7,0.2-5.5,0.1c0,0-0.1,0-0.1,0c-0.4,0-0.8,0.3-0.9,0.7
	c-1.3,4.6-4.9,7.4-9.5,7.4c-4.5,0-8.1-2.9-9.4-7.6l-0.1-0.4h-30.4c-0.8,0-1.2,0.2-1.3,0.9c-1.4,5.1-6.6,8.1-11.8,6.8
	c-3.3-0.9-5.9-3.6-6.8-6.9c-0.2-0.8-0.5-0.9-1.3-0.9h-9.7c-5,0-8.1-2.7-8.8-7.6c-0.3-2.7-0.8-5.2-1.2-7.8c0-0.2-0.1-0.3-0.2-0.4
	l-0.1-2.2c0.7-2.9,2.8-4.6,5.8-5.3c2.4-0.7,4.9-1.4,7.3-2.2c0.6-0.2,1.1-0.7,1.5-1.2c2.4-3.8,4.9-7.5,7.2-11.4
	c1.4-2.5,4.1-3.9,6.9-3.8c9.1,0.1,18.2,0.1,27.2,0c2.6,0,5.1,0.9,7,2.5c5.5,4.7,11.1,9.4,16.7,14c0.5,0.4,1.1,0.6,1.8,0.7
	c6.2,0.9,12.5,1.6,18.7,2.4c3,0.4,5.1,3.1,4.9,6.1V113.3z"/>
</svg>
