<?xml version="1.0" encoding="utf-8"?>
<!-- Generator: Adobe Illustrator 24.3.0, SVG Export Plug-In . SVG Version: 6.00 Build 0)  -->
<svg version="1.1" id="Layer_1" xmlns="http://www.w3.org/2000/svg" xmlns:xlink="http://www.w3.org/1999/xlink" x="0px" y="0px"
	 viewBox="0 0 225 225" style="enable-background:new 0 0 225 225;" xml:space="preserve">
<style type="text/css">
	.st0{fill:#FFFFFF;}
</style>
<path class="st0" d="M76.2,141.8c0.1,0.1,0.2,0.3,0.3,0.4c-3.9,0-7.6,0.1-11.4,0.1h-0.2c-0.9-0.1-1.6-0.8-1.6-1.8v-7.1h4.3
	c0.3,0,0.5,0.1,0.7,0.3L76.2,141.8z"/>
<path class="st0" d="M80.7,145.9c0,1.1,0.5,2.3-0.7,3.1c-0.6,0.2-1.2,0.3-1.8,0.1c-1.3-0.7-0.9-1.9-1-3.2H80.7z"/>
<path class="st0" d="M99.4,142.1h-17c-0.5,0.1-1.1-0.1-1.4-0.5l0.1,0c-2.5-2.4-4.8-4.8-7.2-7.2c-0.3-0.3-0.6-0.4-0.8-0.7l0.2-0.3
	c0.3,0,0.6,0,0.9-0.1h15.7c0.5,0,1,0.2,1.3,0.5c2.7,2.7,5.4,5.4,8,8C99.2,141.9,99.2,142.1,99.4,142.1z"/>
<path class="st0" d="M96.3,134c-0.2-0.2-0.4-0.2-0.5-0.5l0.1,0l18.4-0.1v8.8h-8.9c-0.4,0-0.8-0.2-1.2-0.4
	C101.5,139.3,98.9,136.6,96.3,134z"/>
<path class="st0" d="M124.9,128.2c0,1.2,0.6,1.8,2,1.8l0,0.1h3.1v12.2h-12.1v-31.6H130v15.8h-3.1C125.7,126.4,124.9,127,124.9,128.2
	z"/>
<path class="st0" d="M137.6,79l-9.3,0c-0.2,0-0.3,0-0.5-0.1c0.6-2,2.4-3.4,4.5-3.4C134.8,75.3,136.9,76.7,137.6,79z"/>
<polygon class="st0" points="140.7,145.9 141,149.3 84.3,149.3 84.5,145.9 "/>
<polygon class="st0" points="144.1,99.9 130.1,99.9 130.2,96.6 144.1,96.6 "/>
<path class="st0" d="M147.8,145.8l0.1,0.1c-0.1,1.2,0.2,2.4-1,3.1l0,0c-0.5,0.2-1.2,0.2-1.7,0c-1.3-0.7-0.8-2-0.9-3.2H147.8z"/>
<path class="st0" d="M150.5,142.2l-16.8,0v-8.7c1.8,0,3.6,0.2,5.4,0c1.7-0.2,3.4,0.5,4.5,1.8C145.8,137.7,148,139.8,150.5,142.2z"/>
<path class="st0" d="M161.9,133.6l0,7.2c-0.1,1-1,1.6-2,1.5h-0.1c-1.4,0-2.9,0.3-4-0.1s-2-1.8-3-2.7c-1.9-1.9-3.9-3.8-5.9-5.9H161.9
	z"/>
<path class="st0" d="M149.8,110.9l-9,9.1v-9.4h8.1C149.2,110.6,149.5,110.8,149.8,110.9z"/>
<path class="st0" d="M145.4,121.2l7.3-7.1c3,1.5,2,4.4,2.1,7.1H145.4z"/>
<polygon class="st0" points="154.8,121.2 154.8,121.2 154.8,121.2 "/>
<path class="st0" d="M94.9,110.8v9.2l9.2-9.2H94.9z M99.8,121.2h7.4l0-7.4L99.8,121.2z M99.8,121.2h7.4l0-7.4L99.8,121.2z
	 M94.9,110.8v9.2l9.2-9.2H94.9z M161.9,130l-0.1-15.4c0-0.8-0.3-1.7-1-2.3c-2.5-2.4-5-4.9-7.4-7.4c-0.7-0.9-1.9-1.3-3-1.2H76.8
	c-1-0.1-2-0.1-3,0c-0.7,0-1.3,0.3-1.8,0.7c-2.8,2.6-5.4,5.4-8.1,8.2c-0.4,0.4-0.6,0.9-0.6,1.4v15.6c0,0.2,0.1,0.2,0.1,0.3h51v-18.8
	c0-2.7,1.3-4,4-4h11.1c2.8,0,4.2,1.3,4.2,4.2V130H161.9z M87.8,121L87.8,121c0.1,2-1.4,3.6-3.3,3.7H70.6c-2.5,0-3.9-1.4-3.9-3.9
	v-4.4c0-1.1,0.4-2.1,1.2-2.9c1.8-1.8,3.6-3.4,5.2-5.2c0.8-0.7,1.8-1.1,2.8-1.2h8.4c1.9-0.1,3.6,1.3,3.7,3.3l0,0.4
	C87.9,114.2,87.9,117.6,87.8,121z M110.7,121.6c-0.2,2-2,3.4-3.9,3.2H95.4c-2.5,0-3.9-1.4-3.9-3.9v-9.8c0-2.5,1.3-3.9,3.8-3.9h11.7
	c2.4,0,3.9,1.3,3.8,3.8v9.9c0,0.1,0,0.2,0,0.4C110.7,121.4,110.7,121.5,110.7,121.6z M137.1,111c0-0.7,0.1-1.4,0.5-2
	c0.7-1.3,2-2,3.5-1.9h8c1.2,0,2.3,0.5,3.2,1.3c1.6,1.7,3.3,3.3,4.9,4.8c0.9,0.9,1.3,2.1,1.2,3.3v4.3c0.1,1.5-0.7,2.9-2,3.6
	c-0.1,0-0.1,0.1-0.2,0.1c-0.3,0.1-0.7,0.2-1.1,0.3H141c-2.5,0-3.9-1.4-3.9-3.9V111z M107.2,121.2l0-7.4l-7.4,7.4H107.2z M94.9,110.8
	v9.2l9.2-9.2H94.9z M84.2,121.1v-7.3l-7.3,7.3H84.2z M81.7,110.7h-5.6c-0.3,0-0.7,0.2-0.9,0.5c-1.5,1.5-3,2.9-4.5,4.4
	c-0.2,0.2-0.3,0.5-0.4,0.8v5.1c0.5-0.2,1.1-0.5,1.6-0.8l9.3-9.3C81.4,111.3,81.4,111,81.7,110.7z"/>
<path class="st0" d="M140,0H85C38.1,0,0,38.1,0,85v55c0,46.9,38.1,85,85,85h55c46.9,0,85-38.1,85-85V85C225,38.1,186.9,0,140,0z
	 M165.2,141.4c-0.5,1-1,1.9-1.6,2.8c-1,1.1-2.4,1.7-3.9,1.6h-8.4l-0.3,3.5h7.2c1,0,1.8,0.8,1.7,1.8c0,1-0.8,1.8-1.8,1.8H67.4
	c-1.6,0-2.4-0.6-2.4-1.8c0-1.2,0.8-1.8,2.4-1.8h6.7l-0.3-3.5H65c-2.1,0-4-1.3-4.8-3.3c-0.2-0.3-0.3-0.6-0.4-0.9v-28.8
	c0.5-1.5,1.5-2.9,2.7-3.9c2.4-2.3,4.7-4.6,6.9-6.9c1.1-1.4,2.9-2.1,4.7-2h52.5v-3.2c0-0.1,0-0.2,0-0.3c0-0.1,0-0.2,0-0.4
	c0.2-2,2-3.4,3.9-3.2h7.5V82.5h-10.5v2.1c0.2,2.9-0.7,3.3-1.8,3.3c-1.2,0-1.9-0.6-1.8-3.3v-1.9H76.5c-1.8,0-2.7-0.6-2.7-1.8
	c0-1.2,0.9-1.8,2.7-1.8h46.6c0.6,0.1,1.3-0.3,1.4-0.9c0.9-2.6,3-4.7,5.6-5.6c4.6-1.5,9.6,1,11.1,5.7v0.1c0.1,0.5,0.6,0.9,1.2,0.8h18
	c0.9,0.2,1.5,1.1,1.4,2c-0.2,0.7-0.7,1.2-1.4,1.4h-18.7V93h2.4c1.9-0.1,3.6,1.4,3.7,3.3v0.3c0.1,1.1,0,2.2,0,3.4
	c0.8,0.1,1.6,0.1,2.4,0c2.3-0.2,4.5,0.7,6,2.4c2,2.2,4.2,4.2,6.3,6.3c1.3,1,2.2,2.4,2.6,4V141.4z"/>
</svg>
