<?xml version="1.0" encoding="utf-8"?>
<!-- Generator: Adobe Illustrator 24.3.0, SVG Export Plug-In . SVG Version: 6.00 Build 0)  -->
<svg version="1.1" id="Layer_1" xmlns="http://www.w3.org/2000/svg" xmlns:xlink="http://www.w3.org/1999/xlink" x="0px" y="0px"
	 viewBox="0 0 225 225" style="enable-background:new 0 0 225 225;" xml:space="preserve">
<style type="text/css">
	.st0{fill:#FFFFFF;}
</style>
<path class="st0" d="M98,122.2c1.1,3.8,1.1,3.8,4.9,8.7c-0.2,0.2-0.4,0.4-0.6,0.7c-6.3,6.5-12.6,13-18.9,19.6
	c-0.4,0.5-1.1,0.6-1.6,0.3c-8.5-3.4-13.5-12.1-12.3-21.1c0-0.7,0.5-1.3,1.2-1.4c8.8-2.1,17.6-4.4,26.4-6.5L98,122.2z"/>
<path class="st0" d="M121.4,119.8c-0.1,4.9-4.1,8.8-9,8.8v0c-4.9,0-8.8-4-8.8-8.8v-0.1c0.1-4.9,4.1-8.8,9-8.8
	C117.5,110.8,121.4,114.8,121.4,119.8z"/>
<path class="st0" d="M107.2,105c-2.5-8.9-5-17.5-7.5-26.2c-0.2-0.6,0-1.2,0.5-1.6c7.3-5.8,17.6-5.7,24.8,0.2
	c0.3,0.3,0.4,0.7,0.4,1.1c-2.6,9.1-5.2,18.2-7.7,27.2c-1.7-0.3-3.4-0.5-5.1-0.6c-1.7,0.1-3.4,0.3-5,0.7
	C107.3,105.5,107.2,105.3,107.2,105z"/>
<path class="st0" d="M155.2,130.1c1.5,9.2-3.8,18.1-12.5,21.4v0c-0.4,0.2-1,0.1-1.2-0.3c-6.5-6.8-13-13.6-19.6-20.4
	c-0.1,0-0.1-0.1-0.1-0.3c2.6-2.2,4.3-5.2,4.9-8.5c1.3,0.3,2.6,0.7,3.9,0.9l23.5,5.9C154.7,128.9,155.2,129.5,155.2,130.1z"/>
<path class="st0" d="M140,0H85C38.1,0,0,38.1,0,85v55c0,46.9,38.1,85,85,85h55c46.9,0,85-38.1,85-85V85C225,38.1,186.9,0,140,0z
	 M161.5,135.3c-0.1,0.1-0.1,0.3-0.2,0.5c-1.1,10.2-8.7,19.9-19.9,22.1c-0.7,0.2-1.4,0-1.8-0.6c-7.4-7.7-14.7-15.3-22.1-23
	c-0.4-0.5-1.1-0.7-1.7-0.6c-1.8,0.3-3.5,0.4-5.3,0.2c-1.4-0.5-2.9,0-3.8,1.2c-0.9,1-1.8,2-2.8,2.9c2.7,1.2,5.6,1.9,8.5,2v5.7h-0.7
	c-4-0.1-7.9-1.1-11.4-2.9c-0.3-0.2-0.7-0.2-1.1,0c-1.3,1.3-2.6,2.7-4,4.1c3.5,2.2,7.3,3.7,11.4,4.5c4,0.7,8.2,0.6,12.2-0.2
	c0.1,1,0.4,1.9,0.6,2.8c0.2,0.9,0.4,1.9,0.6,2.8c-10.1,2-20.5,0-29.1-5.7c-0.2,0.3-0.3,0.6-0.6,0.8c-1.8,1.8-3.6,3.8-5.5,5.6
	c-0.3,0.2-0.7,0.4-1.1,0.3c-9.7-2.1-16.1-8-19.2-17.5c-0.5-1.6-0.8-3.3-1.1-5l0.1-4.2c0.5-2,0.9-3.9,1.4-5.9c0.1-0.6,0.5-1,1.1-1.1
	c6.4-1.5,12.8-3.2,19.1-4.7h0.3c0.6-0.1,1-0.7,1-1.3v-0.1c0.1-3.3,1-6.6,2.4-9.5l5,2.4l-1.8,6.7l0.3,0.3c1.9-0.4,3.8-1,5.8-1.4
	c0.2-0.1,0.3-0.3,0.4-0.6c0.7-2.3,2-4.5,3.7-6.3c0.3-0.2,0.4-0.6,0.3-0.9c-0.5-1.8-1-3.6-1.6-5.6l-3.5,3.1l-4.2-3.8
	c1.6-1.7,3.4-3.2,5.3-4.5h0.1c0.5-0.2,0.7-0.8,0.5-1.2c-0.1,0-0.1-0.1-0.1-0.1c-0.6-1.6-1-3.3-1.5-5.1c-7.5,4-13.1,10.7-15.6,18.8
	l-5.4-1.7c0.9-3,2.2-5.8,3.8-8.4c3.6-6,8.8-10.9,15-14.1c0.6-0.4,0.6-0.6,0.5-1.2c-0.8-2.6-1.5-5-2.2-7.6c-0.1-0.2-0.1-0.4-0.1-0.5
	c0-0.4,0.2-0.7,0.5-0.9c9.2-10.4,25.1-11.4,35.5-2.2c0.8,0.7,1.6,1.4,2.3,2.3c0.4,0.3,0.5,0.9,0.2,1.4c-2.9,10.1-5.9,20.4-8.8,30.7
	c-0.3,0.7-0.2,1.5,0.4,2c1.5,1.6,2.7,3.6,3.2,5.7c0.1,0.5,0.5,0.9,1.1,1c1.7,0.3,3.4,0.8,5.3,1.3c-0.4-4.1-2-8-4.6-11.2l4.3-3.5
	c1.9,2.3,3.4,4.9,4.4,7.7c1,2.8,1.5,5.7,1.6,8.7l6.1,1.5c0.3-9.6-3.6-18.9-10.8-25.3l3.8-4.3c2.6,2.3,4.9,4.9,6.7,7.9
	c4.2,6.6,6.2,14.2,5.9,22c0,0.9,0.3,1.2,1.1,1.4c2.4,0.6,4.9,1.2,7.4,1.8c0.6,0,1,0.4,1.1,1c0.4,1.9,0.9,3.9,1.5,5.7V135.3z"/>
</svg>
