<?xml version="1.0" encoding="utf-8"?>
<!-- Generator: Adobe Illustrator 24.3.0, SVG Export Plug-In . SVG Version: 6.00 Build 0)  -->
<svg version="1.1" id="Layer_1" xmlns="http://www.w3.org/2000/svg" xmlns:xlink="http://www.w3.org/1999/xlink" x="0px" y="0px"
	 viewBox="0 0 225 225" style="enable-background:new 0 0 225 225;" xml:space="preserve">
<style type="text/css">
	.st0{fill:#FFFFFF;}
</style>
<path class="st0" d="M79.8,133.9h-4c0.2,1.2-0.4,2.7,0.9,3.6c0.7,0.5,1.6,0.5,2.2,0C80.4,136.5,79.8,135.1,79.8,133.9z M137,133.9
	h-4c0,1.2-0.4,2.7,0.9,3.6c0.6,0.4,1.5,0.4,2.1,0h0C137.5,136.7,136.9,135.3,137,133.9z M145.7,102.8c-0.3-0.2-0.6-0.3-0.9-0.3H118
	c-1.4,0-2.7,0.9-3.2,2.2c-0.7,1.8,0.2,3.9,2,4.7c0.5,0.2,1,0.3,1.5,0.3h33.5l0.9,0.1C150.2,107.3,148,105,145.7,102.8z M145.7,102.8
	c-0.3-0.2-0.6-0.3-0.9-0.3H118c-1.4,0-2.7,0.9-3.2,2.2c-0.7,1.8,0.2,3.9,2,4.7c0.5,0.2,1,0.3,1.5,0.3h33.5l0.9,0.1
	C150.2,107.3,148,105,145.7,102.8z M137,133.9h-4c0,1.2-0.4,2.7,0.9,3.6c0.6,0.4,1.5,0.4,2.1,0h0C137.5,136.7,136.9,135.3,137,133.9
	z M75.8,133.9c0.2,1.2-0.4,2.7,0.9,3.6c0.7,0.5,1.6,0.5,2.2,0c1.4-1,0.8-2.4,0.8-3.6H75.8z M140,0H85C38.1,0,0,38.1,0,85v55
	c0,46.9,38.1,85,85,85h55c46.9,0,85-38.1,85-85V85C225,38.1,186.9,0,140,0z M61,100.5c0-1.1,0.8-2,1.9-2.1H63c1,0,1.9,0.8,1.9,1.8
	v0.2c0.1,1.1-0.8,2-1.9,2.1c0,0,0,0,0,0H63c-1,0-2-0.8-2-1.8V100.5z M60.8,111.5v-0.1c0.2-0.9,0.9-1.5,1.7-1.7H94
	c1.9,0.2,3.7-1.1,3.9-3.1c0-0.1,0-0.3,0-0.4c0-0.4,0-0.8-0.2-1.1c-0.5-1.6-2-2.7-3.7-2.5H71.5c-1.8,0-2.8-0.7-2.8-2
	c0-1.3,1-2.1,2.8-2.1h22.7c4.2-0.1,7.7,3.2,7.8,7.5c0.1,4.1-3,7.5-7.1,7.8H62.6C61.5,113.5,60.7,112.5,60.8,111.5z M104.8,141.9
	L104.8,141.9c-1.2,0-2.1-0.9-2.1-2.1c0-1.1,0.9-2,2-2h0.1c1.1,0,2,0.9,2,2C106.8,141,105.9,141.9,104.8,141.9z M164.2,140.5
	c-0.6,1-1.7,1.5-2.8,1.4h-48.8c-1.2,0-2.1-0.9-2.1-2.1v-0.2c0.1-1.1,1.1-1.9,2.2-1.8h16.4l-0.3-4H84l-0.3,4h12.6
	c1.5,0,2.4,0.8,2.4,2.1s-0.9,2-2.4,2h-33c-1,0.1-1.9-0.5-2.2-1.5c-0.3-0.9,0.1-1.8,0.9-2.2c0.5-0.2,1-0.3,1.5-0.3h8.7l-0.3-4h-8.7
	c-1.1,0.1-2.1-0.7-2.2-1.8c-0.1-1.1,0.7-2.1,1.8-2.2h87.8c3.3,0.2,6.5-1.5,8.3-4.3c2.3-3.7,1.6-8.5-1.6-11.4
	c-0.4-0.2-0.9-0.3-1.3-0.3h-37.3c-3.2,0.2-6.1-1.7-7.3-4.6c-1.7-3.8,0-8.3,3.8-10.1c1-0.5,2.1-0.8,3.3-0.7h23
	c-2.1-2.3-4.5-4.4-7.1-6.2c-5.1-3.4-11.1-5.1-17.2-5.1H62.8c-1.1-0.1-1.9-1.1-1.8-2.2c0-0.9,0.7-1.6,1.5-1.8
	c0.4-0.1,0.8-0.1,1.2-0.1H117c9.5-0.2,18.6,3.6,25.2,10.4c6,6,12,12.2,18,18.2c1.8,1.8,3,4,3.5,6.5c1.5,7.1-3,14-10,15.5
	c-1,0.2-2,0.3-3,0.3h-9.6l-0.3,4h20.5c1.1-0.2,2.2,0.4,2.7,1.4V140.5z M145.7,102.8c-0.3-0.2-0.6-0.3-0.9-0.3H118
	c-1.4,0-2.7,0.9-3.2,2.2c-0.7,1.8,0.2,3.9,2,4.7c0.5,0.2,1,0.3,1.5,0.3h33.5l0.9,0.1C150.2,107.3,148,105,145.7,102.8z M137,133.9
	h-4c0,1.2-0.4,2.7,0.9,3.6c0.6,0.4,1.5,0.4,2.1,0h0C137.5,136.7,136.9,135.3,137,133.9z M75.8,133.9c0.2,1.2-0.4,2.7,0.9,3.6
	c0.7,0.5,1.6,0.5,2.2,0c1.4-1,0.8-2.4,0.8-3.6H75.8z"/>
</svg>
