<?xml version="1.0" encoding="utf-8"?>
<!-- Generator: Adobe Illustrator 24.3.0, SVG Export Plug-In . SVG Version: 6.00 Build 0)  -->
<svg version="1.1" id="Layer_1" xmlns="http://www.w3.org/2000/svg" xmlns:xlink="http://www.w3.org/1999/xlink" x="0px" y="0px"
	 viewBox="0 0 225 225" style="enable-background:new 0 0 225 225;" xml:space="preserve">
<style type="text/css">
	.st0{fill:#FFFFFF;}
</style>
<path class="st0" d="M120.1,105.5c-4.9-3.2-11.3-3.1-16.1,0.3c-4.6,3-6.8,7.3-7,12.8h0c2.4-1.2,5.2-1.1,7.4,0.4
	c1.3,0.8,3,0.8,4.2-0.1c2.2-1.5,5.1-1.5,7.4,0c1.4,1,3.3,1,4.7,0c1.9-1.2,4.3-1.4,6.3-0.5c0.2,0.1,0.4,0.1,0.6,0.2
	C127.4,112.7,125,108.3,120.1,105.5z M126.8,121.1c-1.4-1.1-3.3-1.1-4.7-0.1c-2.3,1.5-5.2,1.5-7.5,0c-1.3-0.9-3-0.9-4.4,0
	c-2.3,1.5-5.3,1.5-7.6,0c-1.3-0.8-3-0.8-4.3,0c-0.6,0.3-0.9,0.9-0.7,1.5v0.1c1.9,6.6,7.9,11.2,14.8,11.3c0.7-0.1,1.3-0.1,2-0.2
	c6.2-0.8,11.3-5.4,12.8-11.5l0,0C127.3,121.8,127.2,121.3,126.8,121.1z M126.8,121.1c-1.4-1.1-3.3-1.1-4.7-0.1
	c-2.3,1.5-5.2,1.5-7.5,0c-1.3-0.9-3-0.9-4.4,0c-2.3,1.5-5.3,1.5-7.6,0c-1.3-0.8-3-0.8-4.3,0c-0.6,0.3-0.9,0.9-0.7,1.5v0.1
	c1.9,6.6,7.9,11.2,14.8,11.3c0.7-0.1,1.3-0.1,2-0.2c6.2-0.8,11.3-5.4,12.8-11.5l0,0C127.3,121.8,127.2,121.3,126.8,121.1z
	 M120.1,105.5c-4.9-3.2-11.3-3.1-16.1,0.3c-4.6,3-6.8,7.3-7,12.8h0c2.4-1.2,5.2-1.1,7.4,0.4c1.3,0.8,3,0.8,4.2-0.1
	c2.2-1.5,5.1-1.5,7.4,0c1.4,1,3.3,1,4.7,0c1.9-1.2,4.3-1.4,6.3-0.5c0.2,0.1,0.4,0.1,0.6,0.2C127.4,112.7,125,108.3,120.1,105.5z
	 M120.1,105.5c-4.9-3.2-11.3-3.1-16.1,0.3c-4.6,3-6.8,7.3-7,12.8h0c2.4-1.2,5.2-1.1,7.4,0.4c1.3,0.8,3,0.8,4.2-0.1
	c2.2-1.5,5.1-1.5,7.4,0c1.4,1,3.3,1,4.7,0c1.9-1.2,4.3-1.4,6.3-0.5c0.2,0.1,0.4,0.1,0.6,0.2C127.4,112.7,125,108.3,120.1,105.5z
	 M126.8,121.1c-1.4-1.1-3.3-1.1-4.7-0.1c-2.3,1.5-5.2,1.5-7.5,0c-1.3-0.9-3-0.9-4.4,0c-2.3,1.5-5.3,1.5-7.6,0c-1.3-0.8-3-0.8-4.3,0
	c-0.6,0.3-0.9,0.9-0.7,1.5v0.1c1.9,6.6,7.9,11.2,14.8,11.3c0.7-0.1,1.3-0.1,2-0.2c6.2-0.8,11.3-5.4,12.8-11.5l0,0
	C127.3,121.8,127.2,121.3,126.8,121.1z M126.8,121.1c-1.4-1.1-3.3-1.1-4.7-0.1c-2.3,1.5-5.2,1.5-7.5,0c-1.3-0.9-3-0.9-4.4,0
	c-2.3,1.5-5.3,1.5-7.6,0c-1.3-0.8-3-0.8-4.3,0c-0.6,0.3-0.9,0.9-0.7,1.5v0.1c1.9,6.6,7.9,11.2,14.8,11.3c0.7-0.1,1.3-0.1,2-0.2
	c6.2-0.8,11.3-5.4,12.8-11.5l0,0C127.3,121.8,127.2,121.3,126.8,121.1z M104.4,119c1.3,0.8,3,0.8,4.2-0.1c2.2-1.5,5.1-1.5,7.4,0
	c1.4,1,3.3,1,4.7,0c1.9-1.2,4.3-1.4,6.3-0.5c0.2,0.1,0.4,0.1,0.6,0.2c-0.3-5.9-2.6-10.3-7.5-13.1c-4.9-3.2-11.3-3.1-16.1,0.3
	c-4.6,3-6.8,7.3-7,12.8h0C99.4,117.4,102.2,117.5,104.4,119z M137.2,145.6h10.4l0-54H77v53.9h54.7c0.7,0,1.2,0.5,1.3,1.2v0.1
	c0,0.7-0.5,1.3-1.2,1.4H77.2c0,0.2,0.1,0.3,0.1,0.5c0.8,3.4,3.9,5.8,7.4,5.7h56c3.4-0.2,6.3-2.7,6.8-6.1h-10.3
	c-1.1,0-1.7-0.4-1.7-1.3C135.5,146.1,136.2,145.6,137.2,145.6z M116.1,142.3h-0.2c-1.1,0.1-2.2,0.2-3.3,0.3
	c-12.2,0.1-22.4-9-23.9-21c-0.8-6.3,1-12.7,5-17.7c0.8-1,1.7-1,2.3-0.2c0.4,0.6,0.3,1.4-0.2,1.9c-2.2,2.7-3.6,6-4.2,9.4
	c-2.1,11.6,5.7,22.7,17.3,24.7s22.7-5.7,24.7-17.3c2.1-11.6-5.7-22.7-17.3-24.7c-5.8-1-11.7,0.4-16.4,3.8c-0.6,0.4-1.2,0.8-1.9,0.3
	c-0.6-0.5-0.7-1.3-0.2-1.9c0.1-0.1,0.2-0.2,0.4-0.3c10.5-8,25.5-6,33.5,4.6c2.1,2.8,3.6,6,4.3,9.4c0.1,0.5,0.2,1,0.3,1.5
	C138.2,128,129.2,140.3,116.1,142.3z M130.2,118.3c0.2,9.9-7.7,18.1-17.6,18.3c-9.9,0.2-18.1-7.7-18.3-17.6v-0.4
	c0.1-9.9,8.1-17.9,18-17.9v0C122.1,100.8,130,108.6,130.2,118.3z M126.8,121.1c-1.4-1.1-3.3-1.1-4.7-0.1c-2.3,1.5-5.2,1.5-7.5,0
	c-1.3-0.9-3-0.9-4.4,0c-2.3,1.5-5.3,1.5-7.6,0c-1.3-0.8-3-0.8-4.3,0c-0.6,0.3-0.9,0.9-0.7,1.5v0.1c1.9,6.6,7.9,11.2,14.8,11.3
	c0.7-0.1,1.3-0.1,2-0.2c6.2-0.8,11.3-5.4,12.8-11.5l0,0C127.3,121.8,127.2,121.3,126.8,121.1z M104,105.8c-4.6,3-6.8,7.3-7,12.8h0
	c2.4-1.2,5.2-1.1,7.4,0.4c1.3,0.8,3,0.8,4.2-0.1c2.2-1.5,5.1-1.5,7.4,0c1.4,1,3.3,1,4.7,0c1.9-1.2,4.3-1.4,6.3-0.5
	c0.2,0.1,0.4,0.1,0.6,0.2c-0.3-5.9-2.6-10.3-7.5-13.1C115.2,102.3,108.8,102.4,104,105.8z M120.1,105.5c-4.9-3.2-11.3-3.1-16.1,0.3
	c-4.6,3-6.8,7.3-7,12.8h0c2.4-1.2,5.2-1.1,7.4,0.4c1.3,0.8,3,0.8,4.2-0.1c2.2-1.5,5.1-1.5,7.4,0c1.4,1,3.3,1,4.7,0
	c1.9-1.2,4.3-1.4,6.3-0.5c0.2,0.1,0.4,0.1,0.6,0.2C127.4,112.7,125,108.3,120.1,105.5z M126.8,121.1c-1.4-1.1-3.3-1.1-4.7-0.1
	c-2.3,1.5-5.2,1.5-7.5,0c-1.3-0.9-3-0.9-4.4,0c-2.3,1.5-5.3,1.5-7.6,0c-1.3-0.8-3-0.8-4.3,0c-0.6,0.3-0.9,0.9-0.7,1.5v0.1
	c1.9,6.6,7.9,11.2,14.8,11.3c0.7-0.1,1.3-0.1,2-0.2c6.2-0.8,11.3-5.4,12.8-11.5l0,0C127.3,121.8,127.2,121.3,126.8,121.1z
	 M126.8,121.1c-1.4-1.1-3.3-1.1-4.7-0.1c-2.3,1.5-5.2,1.5-7.5,0c-1.3-0.9-3-0.9-4.4,0c-2.3,1.5-5.3,1.5-7.6,0c-1.3-0.8-3-0.8-4.3,0
	c-0.6,0.3-0.9,0.9-0.7,1.5v0.1c1.9,6.6,7.9,11.2,14.8,11.3c0.7-0.1,1.3-0.1,2-0.2c6.2-0.8,11.3-5.4,12.8-11.5l0,0
	C127.3,121.8,127.2,121.3,126.8,121.1z M120.1,105.5c-4.9-3.2-11.3-3.1-16.1,0.3c-4.6,3-6.8,7.3-7,12.8h0c2.4-1.2,5.2-1.1,7.4,0.4
	c1.3,0.8,3,0.8,4.2-0.1c2.2-1.5,5.1-1.5,7.4,0c1.4,1,3.3,1,4.7,0c1.9-1.2,4.3-1.4,6.3-0.5c0.2,0.1,0.4,0.1,0.6,0.2
	C127.4,112.7,125,108.3,120.1,105.5z"/>
<path class="st0" d="M90.6,77.6c0.5,0.5,0.9,1.2,0.9,2.1c0,1.6-1.2,2.9-2.8,2.9c-1.6,0-2.9-1.4-2.9-3c0-1.5,1.2-2.7,2.7-2.8
	C89.3,76.8,90,77.1,90.6,77.6z"/>
<path class="st0" d="M103.5,76.9c-1.6,0-2.9,1.3-2.9,2.9c0,1.6,1.3,2.9,2.9,2.9h0.1c1.6,0,2.8-1.3,2.8-2.9v-0.3
	C106.3,78,105,76.8,103.5,76.9z M103.5,76.9c-1.6,0-2.9,1.3-2.9,2.9c0,1.6,1.3,2.9,2.9,2.9h0.1c1.6,0,2.8-1.3,2.8-2.9v-0.3
	C106.3,78,105,76.8,103.5,76.9z M139.8,70.5H84.9c-4.8,0-7.9,3.1-8,7.9v9.6c0,0.3,0,0.6,0.1,0.9h70.6c0-0.4,0.1-0.6,0.1-0.9h0.1
	v-9.6C147.8,73.6,144.6,70.5,139.8,70.5z M88.7,85.2L88.7,85.2c-3.1,0-5.6-2.6-5.5-5.6c0.1-3,2.6-5.4,5.6-5.4c3,0,5.5,2.5,5.4,5.5
	C94.2,82.8,91.7,85.2,88.7,85.2z M103.8,85.2c-3,0.1-5.6-2.3-5.6-5.3c-0.1-3,2.3-5.5,5.3-5.6h0.1c3,0,5.5,2.5,5.5,5.5
	C109.1,82.7,106.8,85.1,103.8,85.2z M139.5,82.3c0,1.6-1.2,2.9-2.8,3h-15.1c-1.6,0.1-3-1.1-3.1-2.8v-5.2c0-1.6,1.2-3,2.8-3.1h14.9
	c1.7-0.1,3.1,1.1,3.3,2.8V82.3z M136.1,76.7h-14.2c-0.6,0-0.8,0.2-0.8,0.8v4.1c0,0.8,0.2,1,1,1H136c0.7,0,0.9-0.2,0.9-0.9
	c0-1.4,0-2.8-0.1-4.2C136.8,76.9,136.7,76.7,136.1,76.7z M103.5,76.9c-1.6,0-2.9,1.3-2.9,2.9c0,1.6,1.3,2.9,2.9,2.9h0.1
	c1.6,0,2.8-1.3,2.8-2.9v-0.3C106.3,78,105,76.8,103.5,76.9z"/>
<path class="st0" d="M140,0H85C38.1,0,0,38.1,0,85v55c0,46.9,38.1,85,85,85h55c46.9,0,85-38.1,85-85V85C225,38.1,186.9,0,140,0z
	 M150.4,146.4c0,4.5-2,7.9-6.1,9.8c-0.8,0.3-1.6,0.6-2.5,0.8H83.2c-0.9-0.2-1.8-0.5-2.7-0.9c-3.8-1.6-6.2-5.4-6-9.6V78.5
	c0-4.8,2.6-8.6,6.9-10c1.1-0.4,2.2-0.5,3.3-0.5h55.5c5.8,0,10.1,4.3,10.2,10.3c0,4.3,0,8.6,0.1,13V146.4z"/>
</svg>
